ISO-10303-21;
HEADER;
FILE_DESCRIPTION(('Aetheris AP242 subset export'),'2;1');
FILE_NAME('aetheris_export.step','1970-01-01T00:00:00',('Aetheris'),('Aetheris'),'Aetheris.Kernel','Aetheris.Kernel','');
FILE_SCHEMA(('AP242_MANAGED_MODEL_BASED_3D_ENGINEERING_MIM_LF'));
ENDSEC;
DATA;
#1=CARTESIAN_POINT($,(0,0,1.2));
#2=DIRECTION($,(0,0,1));
#3=DIRECTION($,(1,0,0));
#4=AXIS2_PLACEMENT_3D($,#1,#2,#3);
#5=PLANE($,#4);
#6=CARTESIAN_POINT($,(-0,-0,1.2));
#7=VERTEX_POINT($,#6);
#8=CARTESIAN_POINT($,(2.7,0,1.2));
#9=VERTEX_POINT($,#8);
#10=CARTESIAN_POINT($,(-0,-0,1.2));
#11=DIRECTION($,(1,0,0));
#12=VECTOR($,#11,1);
#13=LINE($,#10,#12);
#14=EDGE_CURVE($,#7,#9,#13,.T.);
#15=ORIENTED_EDGE($,$,$,#14,.T.);
#16=CARTESIAN_POINT($,(177.9,0,1.2));
#17=VERTEX_POINT($,#16);
#18=CARTESIAN_POINT($,(2.7,0,1.2));
#19=DIRECTION($,(1,0,0));
#20=VECTOR($,#19,1);
#21=LINE($,#18,#20);
#22=EDGE_CURVE($,#9,#17,#21,.T.);
#23=ORIENTED_EDGE($,$,$,#22,.T.);
#24=CARTESIAN_POINT($,(180,0,1.2));
#25=VERTEX_POINT($,#24);
#26=CARTESIAN_POINT($,(177.9,0,1.2));
#27=DIRECTION($,(1,0,0));
#28=VECTOR($,#27,1);
#29=LINE($,#26,#28);
#30=EDGE_CURVE($,#17,#25,#29,.T.);
#31=ORIENTED_EDGE($,$,$,#30,.T.);
#32=CARTESIAN_POINT($,(180,2.1,1.2));
#33=VERTEX_POINT($,#32);
#34=CARTESIAN_POINT($,(180,0,1.2));
#35=DIRECTION($,(0,1,0));
#36=VECTOR($,#35,1);
#37=LINE($,#34,#36);
#38=EDGE_CURVE($,#25,#33,#37,.T.);
#39=ORIENTED_EDGE($,$,$,#38,.T.);
#40=CARTESIAN_POINT($,(180,117.3,1.2));
#41=VERTEX_POINT($,#40);
#42=CARTESIAN_POINT($,(180,2.1,1.2));
#43=DIRECTION($,(0,1,0));
#44=VECTOR($,#43,1);
#45=LINE($,#42,#44);
#46=EDGE_CURVE($,#33,#41,#45,.T.);
#47=ORIENTED_EDGE($,$,$,#46,.T.);
#48=CARTESIAN_POINT($,(180,120,1.2));
#49=VERTEX_POINT($,#48);
#50=CARTESIAN_POINT($,(180,117.3,1.2));
#51=DIRECTION($,(0,1,0));
#52=VECTOR($,#51,1);
#53=LINE($,#50,#52);
#54=EDGE_CURVE($,#41,#49,#53,.T.);
#55=ORIENTED_EDGE($,$,$,#54,.T.);
#56=CARTESIAN_POINT($,(177.3,120,1.2));
#57=VERTEX_POINT($,#56);
#58=CARTESIAN_POINT($,(180,120,1.2));
#59=DIRECTION($,(-1,0,0));
#60=VECTOR($,#59,1);
#61=LINE($,#58,#60);
#62=EDGE_CURVE($,#49,#57,#61,.T.);
#63=ORIENTED_EDGE($,$,$,#62,.T.);
#64=CARTESIAN_POINT($,(2.69999999999999,120,1.2));
#65=VERTEX_POINT($,#64);
#66=CARTESIAN_POINT($,(177.3,120,1.2));
#67=DIRECTION($,(-1,0,0));
#68=VECTOR($,#67,1);
#69=LINE($,#66,#68);
#70=EDGE_CURVE($,#57,#65,#69,.T.);
#71=ORIENTED_EDGE($,$,$,#70,.T.);
#72=CARTESIAN_POINT($,(0,120,1.2));
#73=VERTEX_POINT($,#72);
#74=CARTESIAN_POINT($,(2.69999999999999,120,1.2));
#75=DIRECTION($,(-1,0,0));
#76=VECTOR($,#75,1);
#77=LINE($,#74,#76);
#78=EDGE_CURVE($,#65,#73,#77,.T.);
#79=ORIENTED_EDGE($,$,$,#78,.T.);
#80=CARTESIAN_POINT($,(0,117.3,1.2));
#81=VERTEX_POINT($,#80);
#82=CARTESIAN_POINT($,(0,120,1.2));
#83=DIRECTION($,(0,-1,0));
#84=VECTOR($,#83,1);
#85=LINE($,#82,#84);
#86=EDGE_CURVE($,#73,#81,#85,.T.);
#87=ORIENTED_EDGE($,$,$,#86,.T.);
#88=CARTESIAN_POINT($,(0,2.7,1.2));
#89=VERTEX_POINT($,#88);
#90=CARTESIAN_POINT($,(0,117.3,1.2));
#91=DIRECTION($,(0,-1,0));
#92=VECTOR($,#91,1);
#93=LINE($,#90,#92);
#94=EDGE_CURVE($,#81,#89,#93,.T.);
#95=ORIENTED_EDGE($,$,$,#94,.T.);
#96=CARTESIAN_POINT($,(0,2.7,1.2));
#97=DIRECTION($,(0,-1,0));
#98=VECTOR($,#97,1);
#99=LINE($,#96,#98);
#100=EDGE_CURVE($,#89,#7,#99,.T.);
#101=ORIENTED_EDGE($,$,$,#100,.T.);
#102=EDGE_LOOP($,(#15,#23,#31,#39,#47,#55,#63,#71,#79,#87,#95,#101));
#103=FACE_OUTER_BOUND('',#102,.T.);
#104=CARTESIAN_POINT($,(17,15,1.2));
#105=VERTEX_POINT($,#104);
#106=CARTESIAN_POINT($,(15,15,1.2));
#107=DIRECTION($,(0,0,1));
#108=DIRECTION($,(1,0,0));
#109=AXIS2_PLACEMENT_3D($,#106,#107,#108);
#110=CIRCLE($,#109,2);
#111=EDGE_CURVE($,#105,#105,#110,.T.);
#112=ORIENTED_EDGE($,$,$,#111,.T.);
#113=EDGE_LOOP($,(#112));
#114=FACE_BOUND('',#113,.T.);
#115=CARTESIAN_POINT($,(167,15,1.2));
#116=VERTEX_POINT($,#115);
#117=CARTESIAN_POINT($,(165,15,1.2));
#118=DIRECTION($,(0,0,1));
#119=DIRECTION($,(1,0,0));
#120=AXIS2_PLACEMENT_3D($,#117,#118,#119);
#121=CIRCLE($,#120,2);
#122=EDGE_CURVE($,#116,#116,#121,.T.);
#123=ORIENTED_EDGE($,$,$,#122,.T.);
#124=EDGE_LOOP($,(#123));
#125=FACE_BOUND('',#124,.T.);
#126=CARTESIAN_POINT($,(17,105,1.2));
#127=VERTEX_POINT($,#126);
#128=CARTESIAN_POINT($,(15,105,1.2));
#129=DIRECTION($,(0,0,1));
#130=DIRECTION($,(1,0,0));
#131=AXIS2_PLACEMENT_3D($,#128,#129,#130);
#132=CIRCLE($,#131,2);
#133=EDGE_CURVE($,#127,#127,#132,.T.);
#134=ORIENTED_EDGE($,$,$,#133,.T.);
#135=EDGE_LOOP($,(#134));
#136=FACE_BOUND('',#135,.T.);
#137=CARTESIAN_POINT($,(167,105,1.2));
#138=VERTEX_POINT($,#137);
#139=CARTESIAN_POINT($,(165,105,1.2));
#140=DIRECTION($,(0,0,1));
#141=DIRECTION($,(1,0,0));
#142=AXIS2_PLACEMENT_3D($,#139,#140,#141);
#143=CIRCLE($,#142,2);
#144=EDGE_CURVE($,#138,#138,#143,.T.);
#145=ORIENTED_EDGE($,$,$,#144,.T.);
#146=EDGE_LOOP($,(#145));
#147=FACE_BOUND('',#146,.T.);
#148=CARTESIAN_POINT($,(84.5,63,1.2));
#149=VERTEX_POINT($,#148);
#150=CARTESIAN_POINT($,(39.5,63,1.2));
#151=VERTEX_POINT($,#150);
#152=CARTESIAN_POINT($,(84.5,63,1.2));
#153=DIRECTION($,(-1,0,0));
#154=VECTOR($,#153,1);
#155=LINE($,#152,#154);
#156=EDGE_CURVE($,#149,#151,#155,.T.);
#157=ORIENTED_EDGE($,$,$,#156,.F.);
#158=CARTESIAN_POINT($,(84.5,57,1.2));
#159=VERTEX_POINT($,#158);
#160=CARTESIAN_POINT($,(84.5,57,1.2));
#161=DIRECTION($,(0,1,0));
#162=VECTOR($,#161,1);
#163=LINE($,#160,#162);
#164=EDGE_CURVE($,#159,#149,#163,.T.);
#165=ORIENTED_EDGE($,$,$,#164,.F.);
#166=CARTESIAN_POINT($,(39.5,57,1.2));
#167=VERTEX_POINT($,#166);
#168=CARTESIAN_POINT($,(39.5,57,1.2));
#169=DIRECTION($,(1,0,0));
#170=VECTOR($,#169,1);
#171=LINE($,#168,#170);
#172=EDGE_CURVE($,#167,#159,#171,.T.);
#173=ORIENTED_EDGE($,$,$,#172,.F.);
#174=CARTESIAN_POINT($,(39.5,63,1.2));
#175=DIRECTION($,(0,-1,0));
#176=VECTOR($,#175,1);
#177=LINE($,#174,#176);
#178=EDGE_CURVE($,#151,#167,#177,.T.);
#179=ORIENTED_EDGE($,$,$,#178,.F.);
#180=EDGE_LOOP($,(#157,#165,#173,#179));
#181=FACE_BOUND('',#180,.T.);
#182=CARTESIAN_POINT($,(112.5,63,1.2));
#183=VERTEX_POINT($,#182);
#184=CARTESIAN_POINT($,(67.5,63,1.2));
#185=VERTEX_POINT($,#184);
#186=CARTESIAN_POINT($,(112.5,63,1.2));
#187=DIRECTION($,(-1,0,0));
#188=VECTOR($,#187,1);
#189=LINE($,#186,#188);
#190=EDGE_CURVE($,#183,#185,#189,.T.);
#191=ORIENTED_EDGE($,$,$,#190,.F.);
#192=CARTESIAN_POINT($,(112.5,57,1.2));
#193=VERTEX_POINT($,#192);
#194=CARTESIAN_POINT($,(112.5,57,1.2));
#195=DIRECTION($,(0,1,0));
#196=VECTOR($,#195,1);
#197=LINE($,#194,#196);
#198=EDGE_CURVE($,#193,#183,#197,.T.);
#199=ORIENTED_EDGE($,$,$,#198,.F.);
#200=CARTESIAN_POINT($,(67.5,57,1.2));
#201=VERTEX_POINT($,#200);
#202=CARTESIAN_POINT($,(67.5,57,1.2));
#203=DIRECTION($,(1,0,0));
#204=VECTOR($,#203,1);
#205=LINE($,#202,#204);
#206=EDGE_CURVE($,#201,#193,#205,.T.);
#207=ORIENTED_EDGE($,$,$,#206,.F.);
#208=CARTESIAN_POINT($,(67.5,63,1.2));
#209=DIRECTION($,(0,-1,0));
#210=VECTOR($,#209,1);
#211=LINE($,#208,#210);
#212=EDGE_CURVE($,#185,#201,#211,.T.);
#213=ORIENTED_EDGE($,$,$,#212,.F.);
#214=EDGE_LOOP($,(#191,#199,#207,#213));
#215=FACE_BOUND('',#214,.T.);
#216=CARTESIAN_POINT($,(140.5,63,1.2));
#217=VERTEX_POINT($,#216);
#218=CARTESIAN_POINT($,(95.5,63,1.2));
#219=VERTEX_POINT($,#218);
#220=CARTESIAN_POINT($,(140.5,63,1.2));
#221=DIRECTION($,(-1,0,0));
#222=VECTOR($,#221,1);
#223=LINE($,#220,#222);
#224=EDGE_CURVE($,#217,#219,#223,.T.);
#225=ORIENTED_EDGE($,$,$,#224,.F.);
#226=CARTESIAN_POINT($,(140.5,57,1.2));
#227=VERTEX_POINT($,#226);
#228=CARTESIAN_POINT($,(140.5,57,1.2));
#229=DIRECTION($,(0,1,0));
#230=VECTOR($,#229,1);
#231=LINE($,#228,#230);
#232=EDGE_CURVE($,#227,#217,#231,.T.);
#233=ORIENTED_EDGE($,$,$,#232,.F.);
#234=CARTESIAN_POINT($,(95.5,57,1.2));
#235=VERTEX_POINT($,#234);
#236=CARTESIAN_POINT($,(95.5,57,1.2));
#237=DIRECTION($,(1,0,0));
#238=VECTOR($,#237,1);
#239=LINE($,#236,#238);
#240=EDGE_CURVE($,#235,#227,#239,.T.);
#241=ORIENTED_EDGE($,$,$,#240,.F.);
#242=CARTESIAN_POINT($,(95.5,63,1.2));
#243=DIRECTION($,(0,-1,0));
#244=VECTOR($,#243,1);
#245=LINE($,#242,#244);
#246=EDGE_CURVE($,#219,#235,#245,.T.);
#247=ORIENTED_EDGE($,$,$,#246,.F.);
#248=EDGE_LOOP($,(#225,#233,#241,#247));
#249=FACE_BOUND('',#248,.T.);
#250=ADVANCED_FACE('',(#103,#114,#125,#136,#147,#181,#215,#249),#5,.T.);
#251=CARTESIAN_POINT($,(0,0,0));
#252=DIRECTION($,(-0,-0,-1));
#253=DIRECTION($,(1,0,0));
#254=AXIS2_PLACEMENT_3D($,#251,#252,#253);
#255=PLANE($,#254);
#256=CARTESIAN_POINT($,(0,2.7,0));
#257=VERTEX_POINT($,#256);
#258=CARTESIAN_POINT($,(0,117.3,0));
#259=VERTEX_POINT($,#258);
#260=CARTESIAN_POINT($,(0,2.7,0));
#261=DIRECTION($,(0,1,0));
#262=VECTOR($,#261,1);
#263=LINE($,#260,#262);
#264=EDGE_CURVE($,#257,#259,#263,.T.);
#265=ORIENTED_EDGE($,$,$,#264,.T.);
#266=CARTESIAN_POINT($,(0,120,-0));
#267=VERTEX_POINT($,#266);
#268=CARTESIAN_POINT($,(0,117.3,0));
#269=DIRECTION($,(0,1,0));
#270=VECTOR($,#269,1);
#271=LINE($,#268,#270);
#272=EDGE_CURVE($,#259,#267,#271,.T.);
#273=ORIENTED_EDGE($,$,$,#272,.T.);
#274=CARTESIAN_POINT($,(2.7,120,0));
#275=VERTEX_POINT($,#274);
#276=CARTESIAN_POINT($,(0,120,-0));
#277=DIRECTION($,(1,0,0));
#278=VECTOR($,#277,1);
#279=LINE($,#276,#278);
#280=EDGE_CURVE($,#267,#275,#279,.T.);
#281=ORIENTED_EDGE($,$,$,#280,.T.);
#282=CARTESIAN_POINT($,(177.3,120,0));
#283=VERTEX_POINT($,#282);
#284=CARTESIAN_POINT($,(2.7,120,0));
#285=DIRECTION($,(1,0,0));
#286=VECTOR($,#285,1);
#287=LINE($,#284,#286);
#288=EDGE_CURVE($,#275,#283,#287,.T.);
#289=ORIENTED_EDGE($,$,$,#288,.T.);
#290=CARTESIAN_POINT($,(180,120,-0));
#291=VERTEX_POINT($,#290);
#292=CARTESIAN_POINT($,(177.3,120,0));
#293=DIRECTION($,(1,0,0));
#294=VECTOR($,#293,1);
#295=LINE($,#292,#294);
#296=EDGE_CURVE($,#283,#291,#295,.T.);
#297=ORIENTED_EDGE($,$,$,#296,.T.);
#298=CARTESIAN_POINT($,(180,117.3,0));
#299=VERTEX_POINT($,#298);
#300=CARTESIAN_POINT($,(180,120,-0));
#301=DIRECTION($,(0,-1,0));
#302=VECTOR($,#301,1);
#303=LINE($,#300,#302);
#304=EDGE_CURVE($,#291,#299,#303,.T.);
#305=ORIENTED_EDGE($,$,$,#304,.T.);
#306=CARTESIAN_POINT($,(180,2.09999999999999,0));
#307=VERTEX_POINT($,#306);
#308=CARTESIAN_POINT($,(180,117.3,0));
#309=DIRECTION($,(0,-1,0));
#310=VECTOR($,#309,1);
#311=LINE($,#308,#310);
#312=EDGE_CURVE($,#299,#307,#311,.T.);
#313=ORIENTED_EDGE($,$,$,#312,.T.);
#314=CARTESIAN_POINT($,(180,0,-0));
#315=VERTEX_POINT($,#314);
#316=CARTESIAN_POINT($,(180,2.09999999999999,0));
#317=DIRECTION($,(0,-1,0));
#318=VECTOR($,#317,1);
#319=LINE($,#316,#318);
#320=EDGE_CURVE($,#307,#315,#319,.T.);
#321=ORIENTED_EDGE($,$,$,#320,.T.);
#322=CARTESIAN_POINT($,(177.9,0,0));
#323=VERTEX_POINT($,#322);
#324=CARTESIAN_POINT($,(180,0,-0));
#325=DIRECTION($,(-1,0,0));
#326=VECTOR($,#325,1);
#327=LINE($,#324,#326);
#328=EDGE_CURVE($,#315,#323,#327,.T.);
#329=ORIENTED_EDGE($,$,$,#328,.T.);
#330=CARTESIAN_POINT($,(2.69999999999999,0,0));
#331=VERTEX_POINT($,#330);
#332=CARTESIAN_POINT($,(177.9,0,0));
#333=DIRECTION($,(-1,0,0));
#334=VECTOR($,#333,1);
#335=LINE($,#332,#334);
#336=EDGE_CURVE($,#323,#331,#335,.T.);
#337=ORIENTED_EDGE($,$,$,#336,.T.);
#338=CARTESIAN_POINT($,(0,0,0));
#339=VERTEX_POINT($,#338);
#340=CARTESIAN_POINT($,(2.69999999999999,0,0));
#341=DIRECTION($,(-1,0,0));
#342=VECTOR($,#341,1);
#343=LINE($,#340,#342);
#344=EDGE_CURVE($,#331,#339,#343,.T.);
#345=ORIENTED_EDGE($,$,$,#344,.T.);
#346=CARTESIAN_POINT($,(0,0,0));
#347=DIRECTION($,(0,1,0));
#348=VECTOR($,#347,1);
#349=LINE($,#346,#348);
#350=EDGE_CURVE($,#339,#257,#349,.T.);
#351=ORIENTED_EDGE($,$,$,#350,.T.);
#352=EDGE_LOOP($,(#265,#273,#281,#289,#297,#305,#313,#321,#329,#337,#345,#351));
#353=FACE_OUTER_BOUND('',#352,.T.);
#354=CARTESIAN_POINT($,(17,15,0));
#355=VERTEX_POINT($,#354);
#356=CARTESIAN_POINT($,(15,15,0));
#357=DIRECTION($,(0,0,1));
#358=DIRECTION($,(1,0,0));
#359=AXIS2_PLACEMENT_3D($,#356,#357,#358);
#360=CIRCLE($,#359,2);
#361=EDGE_CURVE($,#355,#355,#360,.T.);
#362=ORIENTED_EDGE($,$,$,#361,.T.);
#363=EDGE_LOOP($,(#362));
#364=FACE_BOUND('',#363,.T.);
#365=CARTESIAN_POINT($,(167,15,0));
#366=VERTEX_POINT($,#365);
#367=CARTESIAN_POINT($,(165,15,0));
#368=DIRECTION($,(0,0,1));
#369=DIRECTION($,(1,0,0));
#370=AXIS2_PLACEMENT_3D($,#367,#368,#369);
#371=CIRCLE($,#370,2);
#372=EDGE_CURVE($,#366,#366,#371,.T.);
#373=ORIENTED_EDGE($,$,$,#372,.T.);
#374=EDGE_LOOP($,(#373));
#375=FACE_BOUND('',#374,.T.);
#376=CARTESIAN_POINT($,(17,105,0));
#377=VERTEX_POINT($,#376);
#378=CARTESIAN_POINT($,(15,105,0));
#379=DIRECTION($,(0,0,1));
#380=DIRECTION($,(1,0,0));
#381=AXIS2_PLACEMENT_3D($,#378,#379,#380);
#382=CIRCLE($,#381,2);
#383=EDGE_CURVE($,#377,#377,#382,.T.);
#384=ORIENTED_EDGE($,$,$,#383,.T.);
#385=EDGE_LOOP($,(#384));
#386=FACE_BOUND('',#385,.T.);
#387=CARTESIAN_POINT($,(167,105,0));
#388=VERTEX_POINT($,#387);
#389=CARTESIAN_POINT($,(165,105,0));
#390=DIRECTION($,(0,0,1));
#391=DIRECTION($,(1,0,0));
#392=AXIS2_PLACEMENT_3D($,#389,#390,#391);
#393=CIRCLE($,#392,2);
#394=EDGE_CURVE($,#388,#388,#393,.T.);
#395=ORIENTED_EDGE($,$,$,#394,.T.);
#396=EDGE_LOOP($,(#395));
#397=FACE_BOUND('',#396,.T.);
#398=CARTESIAN_POINT($,(39.5,57,0));
#399=VERTEX_POINT($,#398);
#400=CARTESIAN_POINT($,(84.5,57,-0));
#401=VERTEX_POINT($,#400);
#402=CARTESIAN_POINT($,(39.5,57,0));
#403=DIRECTION($,(1,0,0));
#404=VECTOR($,#403,1);
#405=LINE($,#402,#404);
#406=EDGE_CURVE($,#399,#401,#405,.T.);
#407=ORIENTED_EDGE($,$,$,#406,.T.);
#408=CARTESIAN_POINT($,(84.5,63,-0));
#409=VERTEX_POINT($,#408);
#410=CARTESIAN_POINT($,(84.5,57,-0));
#411=DIRECTION($,(0,1,0));
#412=VECTOR($,#411,1);
#413=LINE($,#410,#412);
#414=EDGE_CURVE($,#401,#409,#413,.T.);
#415=ORIENTED_EDGE($,$,$,#414,.T.);
#416=CARTESIAN_POINT($,(39.5,63,-0));
#417=VERTEX_POINT($,#416);
#418=CARTESIAN_POINT($,(84.5,63,-0));
#419=DIRECTION($,(-1,0,0));
#420=VECTOR($,#419,1);
#421=LINE($,#418,#420);
#422=EDGE_CURVE($,#409,#417,#421,.T.);
#423=ORIENTED_EDGE($,$,$,#422,.T.);
#424=CARTESIAN_POINT($,(39.5,63,-0));
#425=DIRECTION($,(0,-1,0));
#426=VECTOR($,#425,1);
#427=LINE($,#424,#426);
#428=EDGE_CURVE($,#417,#399,#427,.T.);
#429=ORIENTED_EDGE($,$,$,#428,.T.);
#430=EDGE_LOOP($,(#407,#415,#423,#429));
#431=FACE_BOUND('',#430,.T.);
#432=CARTESIAN_POINT($,(67.5,57,0));
#433=VERTEX_POINT($,#432);
#434=CARTESIAN_POINT($,(112.5,57,-0));
#435=VERTEX_POINT($,#434);
#436=CARTESIAN_POINT($,(67.5,57,0));
#437=DIRECTION($,(1,0,0));
#438=VECTOR($,#437,1);
#439=LINE($,#436,#438);
#440=EDGE_CURVE($,#433,#435,#439,.T.);
#441=ORIENTED_EDGE($,$,$,#440,.T.);
#442=CARTESIAN_POINT($,(112.5,63,-0));
#443=VERTEX_POINT($,#442);
#444=CARTESIAN_POINT($,(112.5,57,-0));
#445=DIRECTION($,(0,1,0));
#446=VECTOR($,#445,1);
#447=LINE($,#444,#446);
#448=EDGE_CURVE($,#435,#443,#447,.T.);
#449=ORIENTED_EDGE($,$,$,#448,.T.);
#450=CARTESIAN_POINT($,(67.5,63,-0));
#451=VERTEX_POINT($,#450);
#452=CARTESIAN_POINT($,(112.5,63,-0));
#453=DIRECTION($,(-1,0,0));
#454=VECTOR($,#453,1);
#455=LINE($,#452,#454);
#456=EDGE_CURVE($,#443,#451,#455,.T.);
#457=ORIENTED_EDGE($,$,$,#456,.T.);
#458=CARTESIAN_POINT($,(67.5,63,-0));
#459=DIRECTION($,(0,-1,0));
#460=VECTOR($,#459,1);
#461=LINE($,#458,#460);
#462=EDGE_CURVE($,#451,#433,#461,.T.);
#463=ORIENTED_EDGE($,$,$,#462,.T.);
#464=EDGE_LOOP($,(#441,#449,#457,#463));
#465=FACE_BOUND('',#464,.T.);
#466=CARTESIAN_POINT($,(95.5,57,0));
#467=VERTEX_POINT($,#466);
#468=CARTESIAN_POINT($,(140.5,57,-0));
#469=VERTEX_POINT($,#468);
#470=CARTESIAN_POINT($,(95.5,57,0));
#471=DIRECTION($,(1,0,0));
#472=VECTOR($,#471,1);
#473=LINE($,#470,#472);
#474=EDGE_CURVE($,#467,#469,#473,.T.);
#475=ORIENTED_EDGE($,$,$,#474,.T.);
#476=CARTESIAN_POINT($,(140.5,63,-0));
#477=VERTEX_POINT($,#476);
#478=CARTESIAN_POINT($,(140.5,57,-0));
#479=DIRECTION($,(0,1,0));
#480=VECTOR($,#479,1);
#481=LINE($,#478,#480);
#482=EDGE_CURVE($,#469,#477,#481,.T.);
#483=ORIENTED_EDGE($,$,$,#482,.T.);
#484=CARTESIAN_POINT($,(95.5,63,-0));
#485=VERTEX_POINT($,#484);
#486=CARTESIAN_POINT($,(140.5,63,-0));
#487=DIRECTION($,(-1,0,0));
#488=VECTOR($,#487,1);
#489=LINE($,#486,#488);
#490=EDGE_CURVE($,#477,#485,#489,.T.);
#491=ORIENTED_EDGE($,$,$,#490,.T.);
#492=CARTESIAN_POINT($,(95.5,63,-0));
#493=DIRECTION($,(0,-1,0));
#494=VECTOR($,#493,1);
#495=LINE($,#492,#494);
#496=EDGE_CURVE($,#485,#467,#495,.T.);
#497=ORIENTED_EDGE($,$,$,#496,.T.);
#498=EDGE_LOOP($,(#475,#483,#491,#497));
#499=FACE_BOUND('',#498,.T.);
#500=ADVANCED_FACE('',(#353,#364,#375,#386,#397,#431,#465,#499),#255,.F.);
#501=CARTESIAN_POINT($,(2.7,-1.5,2.7));
#502=DIRECTION($,(0,1,0));
#503=DIRECTION($,(1,0,0));
#504=AXIS2_PLACEMENT_3D($,#501,#502,#503);
#505=PLANE($,#504);
#506=CARTESIAN_POINT($,(2.7,-1.5,2.7));
#507=VERTEX_POINT($,#506);
#508=CARTESIAN_POINT($,(177.9,-1.5,2.7));
#509=VERTEX_POINT($,#508);
#510=CARTESIAN_POINT($,(2.7,-1.5,2.7));
#511=DIRECTION($,(1,0,0));
#512=VECTOR($,#511,1);
#513=LINE($,#510,#512);
#514=EDGE_CURVE($,#507,#509,#513,.T.);
#515=ORIENTED_EDGE($,$,$,#514,.T.);
#516=CARTESIAN_POINT($,(177.9,-1.5,37.7));
#517=VERTEX_POINT($,#516);
#518=CARTESIAN_POINT($,(177.9,-1.5,2.7));
#519=DIRECTION($,(0,-0,1));
#520=VECTOR($,#519,1);
#521=LINE($,#518,#520);
#522=EDGE_CURVE($,#509,#517,#521,.T.);
#523=ORIENTED_EDGE($,$,$,#522,.T.);
#524=CARTESIAN_POINT($,(2.69999999999999,-1.5,37.7));
#525=VERTEX_POINT($,#524);
#526=CARTESIAN_POINT($,(177.9,-1.5,37.7));
#527=DIRECTION($,(-1,0,0));
#528=VECTOR($,#527,1);
#529=LINE($,#526,#528);
#530=EDGE_CURVE($,#517,#525,#529,.T.);
#531=ORIENTED_EDGE($,$,$,#530,.T.);
#532=CARTESIAN_POINT($,(2.69999999999999,-1.5,37.7));
#533=DIRECTION($,(0,0,-1));
#534=VECTOR($,#533,1);
#535=LINE($,#532,#534);
#536=EDGE_CURVE($,#525,#507,#535,.T.);
#537=ORIENTED_EDGE($,$,$,#536,.T.);
#538=EDGE_LOOP($,(#515,#523,#531,#537));
#539=FACE_OUTER_BOUND('',#538,.T.);
#540=ADVANCED_FACE('',(#539),#505,.T.);
#541=CARTESIAN_POINT($,(2.7,-2.7,2.7));
#542=DIRECTION($,(-0,-1,-0));
#543=DIRECTION($,(1,0,0));
#544=AXIS2_PLACEMENT_3D($,#541,#542,#543);
#545=PLANE($,#544);
#546=CARTESIAN_POINT($,(2.7,-2.7,37.7));
#547=VERTEX_POINT($,#546);
#548=CARTESIAN_POINT($,(177.9,-2.7,37.7));
#549=VERTEX_POINT($,#548);
#550=CARTESIAN_POINT($,(2.7,-2.7,37.7));
#551=DIRECTION($,(1,0,0));
#552=VECTOR($,#551,1);
#553=LINE($,#550,#552);
#554=EDGE_CURVE($,#547,#549,#553,.T.);
#555=ORIENTED_EDGE($,$,$,#554,.T.);
#556=CARTESIAN_POINT($,(177.9,-2.7,2.7));
#557=VERTEX_POINT($,#556);
#558=CARTESIAN_POINT($,(177.9,-2.7,37.7));
#559=DIRECTION($,(0,0,-1));
#560=VECTOR($,#559,1);
#561=LINE($,#558,#560);
#562=EDGE_CURVE($,#549,#557,#561,.T.);
#563=ORIENTED_EDGE($,$,$,#562,.T.);
#564=CARTESIAN_POINT($,(2.69999999999999,-2.7,2.7));
#565=VERTEX_POINT($,#564);
#566=CARTESIAN_POINT($,(177.9,-2.7,2.7));
#567=DIRECTION($,(-1,0,0));
#568=VECTOR($,#567,1);
#569=LINE($,#566,#568);
#570=EDGE_CURVE($,#557,#565,#569,.T.);
#571=ORIENTED_EDGE($,$,$,#570,.T.);
#572=CARTESIAN_POINT($,(2.69999999999999,-2.7,2.7));
#573=DIRECTION($,(0,-0,1));
#574=VECTOR($,#573,1);
#575=LINE($,#572,#574);
#576=EDGE_CURVE($,#565,#547,#575,.T.);
#577=ORIENTED_EDGE($,$,$,#576,.T.);
#578=EDGE_LOOP($,(#555,#563,#571,#577));
#579=FACE_OUTER_BOUND('',#578,.T.);
#580=ADVANCED_FACE('',(#579),#545,.F.);
#581=CARTESIAN_POINT($,(2.7,0,2.7));
#582=DIRECTION($,(1,0,0));
#583=DIRECTION($,(0,0,-1));
#584=AXIS2_PLACEMENT_3D($,#581,#582,#583);
#585=CYLINDRICAL_SURFACE($,#584,1.5);
#586=ORIENTED_EDGE($,$,$,#22,.T.);
#587=CARTESIAN_POINT($,(177.9,0,2.7));
#588=DIRECTION($,(-1,-0,-0));
#589=DIRECTION($,(0,0,-1));
#590=AXIS2_PLACEMENT_3D($,#587,#588,#589);
#591=CIRCLE($,#590,1.5);
#592=TRIMMED_CURVE($,#591,(PARAMETER_VALUE(0)),(PARAMETER_VALUE(1.5707963267949)),.T.,.PARAMETER.);
#593=EDGE_CURVE($,#17,#509,#592,.T.);
#594=ORIENTED_EDGE($,$,$,#593,.T.);
#595=ORIENTED_EDGE($,$,$,#514,.F.);
#596=CARTESIAN_POINT($,(2.7,0,2.7));
#597=DIRECTION($,(1,0,0));
#598=DIRECTION($,(0,-1,-0));
#599=AXIS2_PLACEMENT_3D($,#596,#597,#598);
#600=CIRCLE($,#599,1.5);
#601=TRIMMED_CURVE($,#600,(PARAMETER_VALUE(0)),(PARAMETER_VALUE(1.5707963267949)),.T.,.PARAMETER.);
#602=EDGE_CURVE($,#507,#9,#601,.T.);
#603=ORIENTED_EDGE($,$,$,#602,.T.);
#604=EDGE_LOOP($,(#586,#594,#595,#603));
#605=FACE_OUTER_BOUND('',#604,.T.);
#606=ADVANCED_FACE('',(#605),#585,.T.);
#607=CARTESIAN_POINT($,(2.7,0,2.7));
#608=DIRECTION($,(1,0,0));
#609=DIRECTION($,(0,0,-1));
#610=AXIS2_PLACEMENT_3D($,#607,#608,#609);
#611=CYLINDRICAL_SURFACE($,#610,2.7);
#612=ORIENTED_EDGE($,$,$,#570,.F.);
#613=CARTESIAN_POINT($,(177.9,0,2.7));
#614=DIRECTION($,(1,0,0));
#615=DIRECTION($,(0,-1,-0));
#616=AXIS2_PLACEMENT_3D($,#613,#614,#615);
#617=CIRCLE($,#616,2.7);
#618=TRIMMED_CURVE($,#617,(PARAMETER_VALUE(0)),(PARAMETER_VALUE(1.5707963267949)),.T.,.PARAMETER.);
#619=EDGE_CURVE($,#557,#323,#618,.T.);
#620=ORIENTED_EDGE($,$,$,#619,.T.);
#621=ORIENTED_EDGE($,$,$,#336,.T.);
#622=CARTESIAN_POINT($,(2.7,0,2.7));
#623=DIRECTION($,(-1,-0,-0));
#624=DIRECTION($,(0,0,-1));
#625=AXIS2_PLACEMENT_3D($,#622,#623,#624);
#626=CIRCLE($,#625,2.7);
#627=TRIMMED_CURVE($,#626,(PARAMETER_VALUE(0)),(PARAMETER_VALUE(1.5707963267949)),.T.,.PARAMETER.);
#628=EDGE_CURVE($,#331,#565,#627,.T.);
#629=ORIENTED_EDGE($,$,$,#628,.T.);
#630=EDGE_LOOP($,(#612,#620,#621,#629));
#631=FACE_OUTER_BOUND('',#630,.T.);
#632=ADVANCED_FACE('',(#631),#611,.F.);
#633=CARTESIAN_POINT($,(181.5,2.1,2.7));
#634=DIRECTION($,(-1,0,0));
#635=DIRECTION($,(0,1,0));
#636=AXIS2_PLACEMENT_3D($,#633,#634,#635);
#637=PLANE($,#636);
#638=CARTESIAN_POINT($,(181.5,2.1,2.7));
#639=VERTEX_POINT($,#638);
#640=CARTESIAN_POINT($,(181.5,117.3,2.7));
#641=VERTEX_POINT($,#640);
#642=CARTESIAN_POINT($,(181.5,2.1,2.7));
#643=DIRECTION($,(0,1,0));
#644=VECTOR($,#643,1);
#645=LINE($,#642,#644);
#646=EDGE_CURVE($,#639,#641,#645,.T.);
#647=ORIENTED_EDGE($,$,$,#646,.T.);
#648=CARTESIAN_POINT($,(181.5,117.3,37.7));
#649=VERTEX_POINT($,#648);
#650=CARTESIAN_POINT($,(181.5,117.3,2.7));
#651=DIRECTION($,(0,0,1));
#652=VECTOR($,#651,1);
#653=LINE($,#650,#652);
#654=EDGE_CURVE($,#641,#649,#653,.T.);
#655=ORIENTED_EDGE($,$,$,#654,.T.);
#656=CARTESIAN_POINT($,(181.5,2.1,37.7));
#657=VERTEX_POINT($,#656);
#658=CARTESIAN_POINT($,(181.5,117.3,37.7));
#659=DIRECTION($,(0,-1,0));
#660=VECTOR($,#659,1);
#661=LINE($,#658,#660);
#662=EDGE_CURVE($,#649,#657,#661,.T.);
#663=ORIENTED_EDGE($,$,$,#662,.T.);
#664=CARTESIAN_POINT($,(181.5,2.1,37.7));
#665=DIRECTION($,(0,0,-1));
#666=VECTOR($,#665,1);
#667=LINE($,#664,#666);
#668=EDGE_CURVE($,#657,#639,#667,.T.);
#669=ORIENTED_EDGE($,$,$,#668,.T.);
#670=EDGE_LOOP($,(#647,#655,#663,#669));
#671=FACE_OUTER_BOUND('',#670,.T.);
#672=ADVANCED_FACE('',(#671),#637,.T.);
#673=CARTESIAN_POINT($,(182.7,2.1,2.7));
#674=DIRECTION($,(1,-0,-0));
#675=DIRECTION($,(0,1,0));
#676=AXIS2_PLACEMENT_3D($,#673,#674,#675);
#677=PLANE($,#676);
#678=CARTESIAN_POINT($,(182.7,2.1,37.7));
#679=VERTEX_POINT($,#678);
#680=CARTESIAN_POINT($,(182.7,117.3,37.7));
#681=VERTEX_POINT($,#680);
#682=CARTESIAN_POINT($,(182.7,2.1,37.7));
#683=DIRECTION($,(0,1,0));
#684=VECTOR($,#683,1);
#685=LINE($,#682,#684);
#686=EDGE_CURVE($,#679,#681,#685,.T.);
#687=ORIENTED_EDGE($,$,$,#686,.T.);
#688=CARTESIAN_POINT($,(182.7,117.3,2.7));
#689=VERTEX_POINT($,#688);
#690=CARTESIAN_POINT($,(182.7,117.3,37.7));
#691=DIRECTION($,(0,0,-1));
#692=VECTOR($,#691,1);
#693=LINE($,#690,#692);
#694=EDGE_CURVE($,#681,#689,#693,.T.);
#695=ORIENTED_EDGE($,$,$,#694,.T.);
#696=CARTESIAN_POINT($,(182.7,2.09999999999999,2.7));
#697=VERTEX_POINT($,#696);
#698=CARTESIAN_POINT($,(182.7,117.3,2.7));
#699=DIRECTION($,(0,-1,0));
#700=VECTOR($,#699,1);
#701=LINE($,#698,#700);
#702=EDGE_CURVE($,#689,#697,#701,.T.);
#703=ORIENTED_EDGE($,$,$,#702,.T.);
#704=CARTESIAN_POINT($,(182.7,2.09999999999999,2.7));
#705=DIRECTION($,(0,0,1));
#706=VECTOR($,#705,1);
#707=LINE($,#704,#706);
#708=EDGE_CURVE($,#697,#679,#707,.T.);
#709=ORIENTED_EDGE($,$,$,#708,.T.);
#710=EDGE_LOOP($,(#687,#695,#703,#709));
#711=FACE_OUTER_BOUND('',#710,.T.);
#712=ADVANCED_FACE('',(#711),#677,.F.);
#713=CARTESIAN_POINT($,(180,2.1,2.7));
#714=DIRECTION($,(0,1,0));
#715=DIRECTION($,(0,0,-1));
#716=AXIS2_PLACEMENT_3D($,#713,#714,#715);
#717=CYLINDRICAL_SURFACE($,#716,1.5);
#718=ORIENTED_EDGE($,$,$,#46,.T.);
#719=CARTESIAN_POINT($,(180,117.3,2.7));
#720=DIRECTION($,(-0,-1,-0));
#721=DIRECTION($,(0,0,-1));
#722=AXIS2_PLACEMENT_3D($,#719,#720,#721);
#723=CIRCLE($,#722,1.5);
#724=TRIMMED_CURVE($,#723,(PARAMETER_VALUE(0)),(PARAMETER_VALUE(1.5707963267949)),.T.,.PARAMETER.);
#725=EDGE_CURVE($,#41,#641,#724,.T.);
#726=ORIENTED_EDGE($,$,$,#725,.T.);
#727=ORIENTED_EDGE($,$,$,#646,.F.);
#728=CARTESIAN_POINT($,(180,2.1,2.7));
#729=DIRECTION($,(0,1,0));
#730=DIRECTION($,(1,0,-0));
#731=AXIS2_PLACEMENT_3D($,#728,#729,#730);
#732=CIRCLE($,#731,1.5);
#733=TRIMMED_CURVE($,#732,(PARAMETER_VALUE(0)),(PARAMETER_VALUE(1.5707963267949)),.T.,.PARAMETER.);
#734=EDGE_CURVE($,#639,#33,#733,.T.);
#735=ORIENTED_EDGE($,$,$,#734,.T.);
#736=EDGE_LOOP($,(#718,#726,#727,#735));
#737=FACE_OUTER_BOUND('',#736,.T.);
#738=ADVANCED_FACE('',(#737),#717,.T.);
#739=CARTESIAN_POINT($,(180,2.1,2.7));
#740=DIRECTION($,(0,1,0));
#741=DIRECTION($,(0,0,-1));
#742=AXIS2_PLACEMENT_3D($,#739,#740,#741);
#743=CYLINDRICAL_SURFACE($,#742,2.7);
#744=ORIENTED_EDGE($,$,$,#702,.F.);
#745=CARTESIAN_POINT($,(180,117.3,2.7));
#746=DIRECTION($,(0,1,0));
#747=DIRECTION($,(1,0,-0));
#748=AXIS2_PLACEMENT_3D($,#745,#746,#747);
#749=CIRCLE($,#748,2.69999999999999);
#750=TRIMMED_CURVE($,#749,(PARAMETER_VALUE(0)),(PARAMETER_VALUE(1.5707963267949)),.T.,.PARAMETER.);
#751=EDGE_CURVE($,#689,#299,#750,.T.);
#752=ORIENTED_EDGE($,$,$,#751,.T.);
#753=ORIENTED_EDGE($,$,$,#312,.T.);
#754=CARTESIAN_POINT($,(180,2.1,2.7));
#755=DIRECTION($,(-0,-1,-0));
#756=DIRECTION($,(0,0,-1));
#757=AXIS2_PLACEMENT_3D($,#754,#755,#756);
#758=CIRCLE($,#757,2.7);
#759=TRIMMED_CURVE($,#758,(PARAMETER_VALUE(0)),(PARAMETER_VALUE(1.5707963267949)),.T.,.PARAMETER.);
#760=EDGE_CURVE($,#307,#697,#759,.T.);
#761=ORIENTED_EDGE($,$,$,#760,.T.);
#762=EDGE_LOOP($,(#744,#752,#753,#761));
#763=FACE_OUTER_BOUND('',#762,.T.);
#764=ADVANCED_FACE('',(#763),#743,.F.);
#765=CARTESIAN_POINT($,(177.3,121.5,2.7));
#766=DIRECTION($,(0,-1,0));
#767=DIRECTION($,(-1,0,0));
#768=AXIS2_PLACEMENT_3D($,#765,#766,#767);
#769=PLANE($,#768);
#770=CARTESIAN_POINT($,(177.3,121.5,2.7));
#771=VERTEX_POINT($,#770);
#772=CARTESIAN_POINT($,(2.69999999999999,121.5,2.7));
#773=VERTEX_POINT($,#772);
#774=CARTESIAN_POINT($,(177.3,121.5,2.7));
#775=DIRECTION($,(-1,0,0));
#776=VECTOR($,#775,1);
#777=LINE($,#774,#776);
#778=EDGE_CURVE($,#771,#773,#777,.T.);
#779=ORIENTED_EDGE($,$,$,#778,.T.);
#780=CARTESIAN_POINT($,(2.7,121.5,37.7));
#781=VERTEX_POINT($,#780);
#782=CARTESIAN_POINT($,(2.69999999999999,121.5,2.7));
#783=DIRECTION($,(0,0,1));
#784=VECTOR($,#783,1);
#785=LINE($,#782,#784);
#786=EDGE_CURVE($,#773,#781,#785,.T.);
#787=ORIENTED_EDGE($,$,$,#786,.T.);
#788=CARTESIAN_POINT($,(177.3,121.5,37.7));
#789=VERTEX_POINT($,#788);
#790=CARTESIAN_POINT($,(2.7,121.5,37.7));
#791=DIRECTION($,(1,0,0));
#792=VECTOR($,#791,1);
#793=LINE($,#790,#792);
#794=EDGE_CURVE($,#781,#789,#793,.T.);
#795=ORIENTED_EDGE($,$,$,#794,.T.);
#796=CARTESIAN_POINT($,(177.3,121.5,37.7));
#797=DIRECTION($,(0,0,-1));
#798=VECTOR($,#797,1);
#799=LINE($,#796,#798);
#800=EDGE_CURVE($,#789,#771,#799,.T.);
#801=ORIENTED_EDGE($,$,$,#800,.T.);
#802=EDGE_LOOP($,(#779,#787,#795,#801));
#803=FACE_OUTER_BOUND('',#802,.T.);
#804=ADVANCED_FACE('',(#803),#769,.T.);
#805=CARTESIAN_POINT($,(177.3,122.7,2.7));
#806=DIRECTION($,(-0,1,-0));
#807=DIRECTION($,(-1,0,0));
#808=AXIS2_PLACEMENT_3D($,#805,#806,#807);
#809=PLANE($,#808);
#810=CARTESIAN_POINT($,(177.3,122.7,37.7));
#811=VERTEX_POINT($,#810);
#812=CARTESIAN_POINT($,(2.7,122.7,37.7));
#813=VERTEX_POINT($,#812);
#814=CARTESIAN_POINT($,(177.3,122.7,37.7));
#815=DIRECTION($,(-1,0,0));
#816=VECTOR($,#815,1);
#817=LINE($,#814,#816);
#818=EDGE_CURVE($,#811,#813,#817,.T.);
#819=ORIENTED_EDGE($,$,$,#818,.T.);
#820=CARTESIAN_POINT($,(2.7,122.7,2.7));
#821=VERTEX_POINT($,#820);
#822=CARTESIAN_POINT($,(2.7,122.7,37.7));
#823=DIRECTION($,(0,0,-1));
#824=VECTOR($,#823,1);
#825=LINE($,#822,#824);
#826=EDGE_CURVE($,#813,#821,#825,.T.);
#827=ORIENTED_EDGE($,$,$,#826,.T.);
#828=CARTESIAN_POINT($,(177.3,122.7,2.7));
#829=VERTEX_POINT($,#828);
#830=CARTESIAN_POINT($,(2.7,122.7,2.7));
#831=DIRECTION($,(1,0,0));
#832=VECTOR($,#831,1);
#833=LINE($,#830,#832);
#834=EDGE_CURVE($,#821,#829,#833,.T.);
#835=ORIENTED_EDGE($,$,$,#834,.T.);
#836=CARTESIAN_POINT($,(177.3,122.7,2.7));
#837=DIRECTION($,(0,0,1));
#838=VECTOR($,#837,1);
#839=LINE($,#836,#838);
#840=EDGE_CURVE($,#829,#811,#839,.T.);
#841=ORIENTED_EDGE($,$,$,#840,.T.);
#842=EDGE_LOOP($,(#819,#827,#835,#841));
#843=FACE_OUTER_BOUND('',#842,.T.);
#844=ADVANCED_FACE('',(#843),#809,.F.);
#845=CARTESIAN_POINT($,(177.3,120,2.7));
#846=DIRECTION($,(-1,0,0));
#847=DIRECTION($,(0,0,-1));
#848=AXIS2_PLACEMENT_3D($,#845,#846,#847);
#849=CYLINDRICAL_SURFACE($,#848,1.5);
#850=ORIENTED_EDGE($,$,$,#70,.T.);
#851=CARTESIAN_POINT($,(2.69999999999999,120,2.7));
#852=DIRECTION($,(1,-0,-0));
#853=DIRECTION($,(0,0,-1));
#854=AXIS2_PLACEMENT_3D($,#851,#852,#853);
#855=CIRCLE($,#854,1.5);
#856=TRIMMED_CURVE($,#855,(PARAMETER_VALUE(0)),(PARAMETER_VALUE(1.5707963267949)),.T.,.PARAMETER.);
#857=EDGE_CURVE($,#65,#773,#856,.T.);
#858=ORIENTED_EDGE($,$,$,#857,.T.);
#859=ORIENTED_EDGE($,$,$,#778,.F.);
#860=CARTESIAN_POINT($,(177.3,120,2.7));
#861=DIRECTION($,(-1,0,0));
#862=DIRECTION($,(0,1,-0));
#863=AXIS2_PLACEMENT_3D($,#860,#861,#862);
#864=CIRCLE($,#863,1.5);
#865=TRIMMED_CURVE($,#864,(PARAMETER_VALUE(0)),(PARAMETER_VALUE(1.5707963267949)),.T.,.PARAMETER.);
#866=EDGE_CURVE($,#771,#57,#865,.T.);
#867=ORIENTED_EDGE($,$,$,#866,.T.);
#868=EDGE_LOOP($,(#850,#858,#859,#867));
#869=FACE_OUTER_BOUND('',#868,.T.);
#870=ADVANCED_FACE('',(#869),#849,.T.);
#871=CARTESIAN_POINT($,(177.3,120,2.7));
#872=DIRECTION($,(-1,0,0));
#873=DIRECTION($,(0,0,-1));
#874=AXIS2_PLACEMENT_3D($,#871,#872,#873);
#875=CYLINDRICAL_SURFACE($,#874,2.7);
#876=ORIENTED_EDGE($,$,$,#834,.F.);
#877=CARTESIAN_POINT($,(2.69999999999999,120,2.7));
#878=DIRECTION($,(-1,0,0));
#879=DIRECTION($,(0,1,-0));
#880=AXIS2_PLACEMENT_3D($,#877,#878,#879);
#881=CIRCLE($,#880,2.69999999999999);
#882=TRIMMED_CURVE($,#881,(PARAMETER_VALUE(0)),(PARAMETER_VALUE(1.5707963267949)),.T.,.PARAMETER.);
#883=EDGE_CURVE($,#821,#275,#882,.T.);
#884=ORIENTED_EDGE($,$,$,#883,.T.);
#885=ORIENTED_EDGE($,$,$,#288,.T.);
#886=CARTESIAN_POINT($,(177.3,120,2.7));
#887=DIRECTION($,(1,-0,-0));
#888=DIRECTION($,(0,0,-1));
#889=AXIS2_PLACEMENT_3D($,#886,#887,#888);
#890=CIRCLE($,#889,2.7);
#891=TRIMMED_CURVE($,#890,(PARAMETER_VALUE(0)),(PARAMETER_VALUE(1.5707963267949)),.T.,.PARAMETER.);
#892=EDGE_CURVE($,#283,#829,#891,.T.);
#893=ORIENTED_EDGE($,$,$,#892,.T.);
#894=EDGE_LOOP($,(#876,#884,#885,#893));
#895=FACE_OUTER_BOUND('',#894,.T.);
#896=ADVANCED_FACE('',(#895),#875,.F.);
#897=CARTESIAN_POINT($,(-1.5,117.3,2.7));
#898=DIRECTION($,(1,0,0));
#899=DIRECTION($,(0,-1,0));
#900=AXIS2_PLACEMENT_3D($,#897,#898,#899);
#901=PLANE($,#900);
#902=CARTESIAN_POINT($,(-1.5,117.3,2.7));
#903=VERTEX_POINT($,#902);
#904=CARTESIAN_POINT($,(-1.5,2.7,2.7));
#905=VERTEX_POINT($,#904);
#906=CARTESIAN_POINT($,(-1.5,117.3,2.7));
#907=DIRECTION($,(0,-1,0));
#908=VECTOR($,#907,1);
#909=LINE($,#906,#908);
#910=EDGE_CURVE($,#903,#905,#909,.T.);
#911=ORIENTED_EDGE($,$,$,#910,.T.);
#912=CARTESIAN_POINT($,(-1.5,2.7,37.7));
#913=VERTEX_POINT($,#912);
#914=CARTESIAN_POINT($,(-1.5,2.7,2.7));
#915=DIRECTION($,(-0,0,1));
#916=VECTOR($,#915,1);
#917=LINE($,#914,#916);
#918=EDGE_CURVE($,#905,#913,#917,.T.);
#919=ORIENTED_EDGE($,$,$,#918,.T.);
#920=CARTESIAN_POINT($,(-1.5,117.3,37.7));
#921=VERTEX_POINT($,#920);
#922=CARTESIAN_POINT($,(-1.5,2.7,37.7));
#923=DIRECTION($,(0,1,0));
#924=VECTOR($,#923,1);
#925=LINE($,#922,#924);
#926=EDGE_CURVE($,#913,#921,#925,.T.);
#927=ORIENTED_EDGE($,$,$,#926,.T.);
#928=CARTESIAN_POINT($,(-1.5,117.3,37.7));
#929=DIRECTION($,(0,0,-1));
#930=VECTOR($,#929,1);
#931=LINE($,#928,#930);
#932=EDGE_CURVE($,#921,#903,#931,.T.);
#933=ORIENTED_EDGE($,$,$,#932,.T.);
#934=EDGE_LOOP($,(#911,#919,#927,#933));
#935=FACE_OUTER_BOUND('',#934,.T.);
#936=ADVANCED_FACE('',(#935),#901,.T.);
#937=CARTESIAN_POINT($,(-2.7,117.3,2.7));
#938=DIRECTION($,(-1,-0,-0));
#939=DIRECTION($,(0,-1,0));
#940=AXIS2_PLACEMENT_3D($,#937,#938,#939);
#941=PLANE($,#940);
#942=CARTESIAN_POINT($,(-2.7,117.3,37.7));
#943=VERTEX_POINT($,#942);
#944=CARTESIAN_POINT($,(-2.7,2.7,37.7));
#945=VERTEX_POINT($,#944);
#946=CARTESIAN_POINT($,(-2.7,117.3,37.7));
#947=DIRECTION($,(0,-1,0));
#948=VECTOR($,#947,1);
#949=LINE($,#946,#948);
#950=EDGE_CURVE($,#943,#945,#949,.T.);
#951=ORIENTED_EDGE($,$,$,#950,.T.);
#952=CARTESIAN_POINT($,(-2.7,2.7,2.7));
#953=VERTEX_POINT($,#952);
#954=CARTESIAN_POINT($,(-2.7,2.7,37.7));
#955=DIRECTION($,(0,0,-1));
#956=VECTOR($,#955,1);
#957=LINE($,#954,#956);
#958=EDGE_CURVE($,#945,#953,#957,.T.);
#959=ORIENTED_EDGE($,$,$,#958,.T.);
#960=CARTESIAN_POINT($,(-2.7,117.3,2.7));
#961=VERTEX_POINT($,#960);
#962=CARTESIAN_POINT($,(-2.7,2.7,2.7));
#963=DIRECTION($,(0,1,0));
#964=VECTOR($,#963,1);
#965=LINE($,#962,#964);
#966=EDGE_CURVE($,#953,#961,#965,.T.);
#967=ORIENTED_EDGE($,$,$,#966,.T.);
#968=CARTESIAN_POINT($,(-2.7,117.3,2.7));
#969=DIRECTION($,(-0,0,1));
#970=VECTOR($,#969,1);
#971=LINE($,#968,#970);
#972=EDGE_CURVE($,#961,#943,#971,.T.);
#973=ORIENTED_EDGE($,$,$,#972,.T.);
#974=EDGE_LOOP($,(#951,#959,#967,#973));
#975=FACE_OUTER_BOUND('',#974,.T.);
#976=ADVANCED_FACE('',(#975),#941,.F.);
#977=CARTESIAN_POINT($,(0,117.3,2.7));
#978=DIRECTION($,(0,-1,0));
#979=DIRECTION($,(0,0,-1));
#980=AXIS2_PLACEMENT_3D($,#977,#978,#979);
#981=CYLINDRICAL_SURFACE($,#980,1.5);
#982=ORIENTED_EDGE($,$,$,#94,.T.);
#983=CARTESIAN_POINT($,(0,2.7,2.7));
#984=DIRECTION($,(-0,1,-0));
#985=DIRECTION($,(0,0,-1));
#986=AXIS2_PLACEMENT_3D($,#983,#984,#985);
#987=CIRCLE($,#986,1.5);
#988=TRIMMED_CURVE($,#987,(PARAMETER_VALUE(0)),(PARAMETER_VALUE(1.5707963267949)),.T.,.PARAMETER.);
#989=EDGE_CURVE($,#89,#905,#988,.T.);
#990=ORIENTED_EDGE($,$,$,#989,.T.);
#991=ORIENTED_EDGE($,$,$,#910,.F.);
#992=CARTESIAN_POINT($,(0,117.3,2.7));
#993=DIRECTION($,(0,-1,0));
#994=DIRECTION($,(-1,0,-0));
#995=AXIS2_PLACEMENT_3D($,#992,#993,#994);
#996=CIRCLE($,#995,1.5);
#997=TRIMMED_CURVE($,#996,(PARAMETER_VALUE(0)),(PARAMETER_VALUE(1.5707963267949)),.T.,.PARAMETER.);
#998=EDGE_CURVE($,#903,#81,#997,.T.);
#999=ORIENTED_EDGE($,$,$,#998,.T.);
#1000=EDGE_LOOP($,(#982,#990,#991,#999));
#1001=FACE_OUTER_BOUND('',#1000,.T.);
#1002=ADVANCED_FACE('',(#1001),#981,.T.);
#1003=CARTESIAN_POINT($,(0,117.3,2.7));
#1004=DIRECTION($,(0,-1,0));
#1005=DIRECTION($,(0,0,-1));
#1006=AXIS2_PLACEMENT_3D($,#1003,#1004,#1005);
#1007=CYLINDRICAL_SURFACE($,#1006,2.7);
#1008=ORIENTED_EDGE($,$,$,#966,.F.);
#1009=CARTESIAN_POINT($,(0,2.7,2.7));
#1010=DIRECTION($,(0,-1,0));
#1011=DIRECTION($,(-1,0,-0));
#1012=AXIS2_PLACEMENT_3D($,#1009,#1010,#1011);
#1013=CIRCLE($,#1012,2.7);
#1014=TRIMMED_CURVE($,#1013,(PARAMETER_VALUE(0)),(PARAMETER_VALUE(1.5707963267949)),.T.,.PARAMETER.);
#1015=EDGE_CURVE($,#953,#257,#1014,.T.);
#1016=ORIENTED_EDGE($,$,$,#1015,.T.);
#1017=ORIENTED_EDGE($,$,$,#264,.T.);
#1018=CARTESIAN_POINT($,(0,117.3,2.7));
#1019=DIRECTION($,(-0,1,-0));
#1020=DIRECTION($,(0,0,-1));
#1021=AXIS2_PLACEMENT_3D($,#1018,#1019,#1020);
#1022=CIRCLE($,#1021,2.7);
#1023=TRIMMED_CURVE($,#1022,(PARAMETER_VALUE(0)),(PARAMETER_VALUE(1.5707963267949)),.T.,.PARAMETER.);
#1024=EDGE_CURVE($,#259,#961,#1023,.T.);
#1025=ORIENTED_EDGE($,$,$,#1024,.T.);
#1026=EDGE_LOOP($,(#1008,#1016,#1017,#1025));
#1027=FACE_OUTER_BOUND('',#1026,.T.);
#1028=ADVANCED_FACE('',(#1027),#1007,.F.);
#1029=CARTESIAN_POINT($,(2.7,-3.9,40.1));
#1030=DIRECTION($,(0,0,1));
#1031=DIRECTION($,(1,0,0));
#1032=AXIS2_PLACEMENT_3D($,#1029,#1030,#1031);
#1033=PLANE($,#1032);
#1034=CARTESIAN_POINT($,(2.7,-3.9,40.1));
#1035=VERTEX_POINT($,#1034);
#1036=CARTESIAN_POINT($,(177.9,-3.9,40.1));
#1037=VERTEX_POINT($,#1036);
#1038=CARTESIAN_POINT($,(2.7,-3.9,40.1));
#1039=DIRECTION($,(1,0,0));
#1040=VECTOR($,#1039,1);
#1041=LINE($,#1038,#1040);
#1042=EDGE_CURVE($,#1035,#1037,#1041,.T.);
#1043=ORIENTED_EDGE($,$,$,#1042,.T.);
#1044=CARTESIAN_POINT($,(177.9,-13.9,40.1));
#1045=VERTEX_POINT($,#1044);
#1046=CARTESIAN_POINT($,(177.9,-3.9,40.1));
#1047=DIRECTION($,(0,-1,0));
#1048=VECTOR($,#1047,1);
#1049=LINE($,#1046,#1048);
#1050=EDGE_CURVE($,#1037,#1045,#1049,.T.);
#1051=ORIENTED_EDGE($,$,$,#1050,.T.);
#1052=CARTESIAN_POINT($,(2.7,-13.9,40.1));
#1053=VERTEX_POINT($,#1052);
#1054=CARTESIAN_POINT($,(177.9,-13.9,40.1));
#1055=DIRECTION($,(-1,0,0));
#1056=VECTOR($,#1055,1);
#1057=LINE($,#1054,#1056);
#1058=EDGE_CURVE($,#1045,#1053,#1057,.T.);
#1059=ORIENTED_EDGE($,$,$,#1058,.T.);
#1060=CARTESIAN_POINT($,(2.7,-13.9,40.1));
#1061=DIRECTION($,(0,1,0));
#1062=VECTOR($,#1061,1);
#1063=LINE($,#1060,#1062);
#1064=EDGE_CURVE($,#1053,#1035,#1063,.T.);
#1065=ORIENTED_EDGE($,$,$,#1064,.T.);
#1066=EDGE_LOOP($,(#1043,#1051,#1059,#1065));
#1067=FACE_OUTER_BOUND('',#1066,.T.);
#1068=ADVANCED_FACE('',(#1067),#1033,.T.);
#1069=CARTESIAN_POINT($,(2.7,-3.9,38.9));
#1070=DIRECTION($,(-0,-0,-1));
#1071=DIRECTION($,(1,0,0));
#1072=AXIS2_PLACEMENT_3D($,#1069,#1070,#1071);
#1073=PLANE($,#1072);
#1074=CARTESIAN_POINT($,(2.7,-13.9,38.9));
#1075=VERTEX_POINT($,#1074);
#1076=CARTESIAN_POINT($,(177.9,-13.9,38.9));
#1077=VERTEX_POINT($,#1076);
#1078=CARTESIAN_POINT($,(2.7,-13.9,38.9));
#1079=DIRECTION($,(1,0,0));
#1080=VECTOR($,#1079,1);
#1081=LINE($,#1078,#1080);
#1082=EDGE_CURVE($,#1075,#1077,#1081,.T.);
#1083=ORIENTED_EDGE($,$,$,#1082,.T.);
#1084=CARTESIAN_POINT($,(177.9,-3.9,38.9));
#1085=VERTEX_POINT($,#1084);
#1086=CARTESIAN_POINT($,(177.9,-13.9,38.9));
#1087=DIRECTION($,(0,1,0));
#1088=VECTOR($,#1087,1);
#1089=LINE($,#1086,#1088);
#1090=EDGE_CURVE($,#1077,#1085,#1089,.T.);
#1091=ORIENTED_EDGE($,$,$,#1090,.T.);
#1092=CARTESIAN_POINT($,(2.69999999999999,-3.9,38.9));
#1093=VERTEX_POINT($,#1092);
#1094=CARTESIAN_POINT($,(177.9,-3.9,38.9));
#1095=DIRECTION($,(-1,0,0));
#1096=VECTOR($,#1095,1);
#1097=LINE($,#1094,#1096);
#1098=EDGE_CURVE($,#1085,#1093,#1097,.T.);
#1099=ORIENTED_EDGE($,$,$,#1098,.T.);
#1100=CARTESIAN_POINT($,(2.69999999999999,-3.9,38.9));
#1101=DIRECTION($,(0,-1,0));
#1102=VECTOR($,#1101,1);
#1103=LINE($,#1100,#1102);
#1104=EDGE_CURVE($,#1093,#1075,#1103,.T.);
#1105=ORIENTED_EDGE($,$,$,#1104,.T.);
#1106=EDGE_LOOP($,(#1083,#1091,#1099,#1105));
#1107=FACE_OUTER_BOUND('',#1106,.T.);
#1108=ADVANCED_FACE('',(#1107),#1073,.F.);
#1109=CARTESIAN_POINT($,(2.7,-3.9,37.7));
#1110=DIRECTION($,(1,0,0));
#1111=DIRECTION($,(0,1,0));
#1112=AXIS2_PLACEMENT_3D($,#1109,#1110,#1111);
#1113=CYLINDRICAL_SURFACE($,#1112,2.4);
#1114=ORIENTED_EDGE($,$,$,#530,.F.);
#1115=CARTESIAN_POINT($,(177.9,-3.9,37.7));
#1116=DIRECTION($,(1,0,0));
#1117=DIRECTION($,(0,1,0));
#1118=AXIS2_PLACEMENT_3D($,#1115,#1116,#1117);
#1119=CIRCLE($,#1118,2.4);
#1120=TRIMMED_CURVE($,#1119,(PARAMETER_VALUE(0)),(PARAMETER_VALUE(1.5707963267949)),.T.,.PARAMETER.);
#1121=EDGE_CURVE($,#517,#1037,#1120,.T.);
#1122=ORIENTED_EDGE($,$,$,#1121,.T.);
#1123=ORIENTED_EDGE($,$,$,#1042,.F.);
#1124=CARTESIAN_POINT($,(2.7,-3.9,37.7));
#1125=DIRECTION($,(-1,-0,-0));
#1126=DIRECTION($,(0,0,1));
#1127=AXIS2_PLACEMENT_3D($,#1124,#1125,#1126);
#1128=CIRCLE($,#1127,2.4);
#1129=TRIMMED_CURVE($,#1128,(PARAMETER_VALUE(0)),(PARAMETER_VALUE(1.5707963267949)),.T.,.PARAMETER.);
#1130=EDGE_CURVE($,#1035,#525,#1129,.T.);
#1131=ORIENTED_EDGE($,$,$,#1130,.T.);
#1132=EDGE_LOOP($,(#1114,#1122,#1123,#1131));
#1133=FACE_OUTER_BOUND('',#1132,.T.);
#1134=ADVANCED_FACE('',(#1133),#1113,.T.);
#1135=CARTESIAN_POINT($,(2.7,-3.9,37.7));
#1136=DIRECTION($,(1,0,0));
#1137=DIRECTION($,(0,1,0));
#1138=AXIS2_PLACEMENT_3D($,#1135,#1136,#1137);
#1139=CYLINDRICAL_SURFACE($,#1138,1.2);
#1140=ORIENTED_EDGE($,$,$,#1098,.F.);
#1141=CARTESIAN_POINT($,(177.9,-3.9,37.7));
#1142=DIRECTION($,(-1,-0,-0));
#1143=DIRECTION($,(0,0,1));
#1144=AXIS2_PLACEMENT_3D($,#1141,#1142,#1143);
#1145=CIRCLE($,#1144,1.2);
#1146=TRIMMED_CURVE($,#1145,(PARAMETER_VALUE(0)),(PARAMETER_VALUE(1.5707963267949)),.T.,.PARAMETER.);
#1147=EDGE_CURVE($,#1085,#549,#1146,.T.);
#1148=ORIENTED_EDGE($,$,$,#1147,.T.);
#1149=ORIENTED_EDGE($,$,$,#554,.F.);
#1150=CARTESIAN_POINT($,(2.7,-3.9,37.7));
#1151=DIRECTION($,(1,0,0));
#1152=DIRECTION($,(0,1,0));
#1153=AXIS2_PLACEMENT_3D($,#1150,#1151,#1152);
#1154=CIRCLE($,#1153,1.2);
#1155=TRIMMED_CURVE($,#1154,(PARAMETER_VALUE(0)),(PARAMETER_VALUE(1.5707963267949)),.T.,.PARAMETER.);
#1156=EDGE_CURVE($,#547,#1093,#1155,.T.);
#1157=ORIENTED_EDGE($,$,$,#1156,.T.);
#1158=EDGE_LOOP($,(#1140,#1148,#1149,#1157));
#1159=FACE_OUTER_BOUND('',#1158,.T.);
#1160=ADVANCED_FACE('',(#1159),#1139,.F.);
#1161=CARTESIAN_POINT($,(0,0,1.2));
#1162=DIRECTION($,(-0,1,0));
#1163=DIRECTION($,(1,0,0));
#1164=AXIS2_PLACEMENT_3D($,#1161,#1162,#1163);
#1165=PLANE($,#1164);
#1166=ORIENTED_EDGE($,$,$,#14,.T.);
#1167=CARTESIAN_POINT($,(2.7,0,1.2));
#1168=DIRECTION($,(0,0,-1));
#1169=VECTOR($,#1168,1);
#1170=LINE($,#1167,#1169);
#1171=EDGE_CURVE($,#9,#331,#1170,.T.);
#1172=ORIENTED_EDGE($,$,$,#1171,.T.);
#1173=ORIENTED_EDGE($,$,$,#344,.T.);
#1174=CARTESIAN_POINT($,(0,0,0));
#1175=DIRECTION($,(0,0,1));
#1176=VECTOR($,#1175,1);
#1177=LINE($,#1174,#1176);
#1178=EDGE_CURVE($,#339,#7,#1177,.T.);
#1179=ORIENTED_EDGE($,$,$,#1178,.T.);
#1180=EDGE_LOOP($,(#1166,#1172,#1173,#1179));
#1181=FACE_OUTER_BOUND('',#1180,.T.);
#1182=ADVANCED_FACE('',(#1181),#1165,.T.);
#1183=CARTESIAN_POINT($,(177.9,0,1.2));
#1184=DIRECTION($,(-0,1,0));
#1185=DIRECTION($,(1,0,0));
#1186=AXIS2_PLACEMENT_3D($,#1183,#1184,#1185);
#1187=PLANE($,#1186);
#1188=ORIENTED_EDGE($,$,$,#30,.T.);
#1189=CARTESIAN_POINT($,(180,0,1.2));
#1190=DIRECTION($,(0,0,-1));
#1191=VECTOR($,#1190,1);
#1192=LINE($,#1189,#1191);
#1193=EDGE_CURVE($,#25,#315,#1192,.T.);
#1194=ORIENTED_EDGE($,$,$,#1193,.T.);
#1195=ORIENTED_EDGE($,$,$,#328,.T.);
#1196=CARTESIAN_POINT($,(177.9,0,0));
#1197=DIRECTION($,(0,0,1));
#1198=VECTOR($,#1197,1);
#1199=LINE($,#1196,#1198);
#1200=EDGE_CURVE($,#323,#17,#1199,.T.);
#1201=ORIENTED_EDGE($,$,$,#1200,.T.);
#1202=EDGE_LOOP($,(#1188,#1194,#1195,#1201));
#1203=FACE_OUTER_BOUND('',#1202,.T.);
#1204=ADVANCED_FACE('',(#1203),#1187,.T.);
#1205=CARTESIAN_POINT($,(180,0,1.2));
#1206=DIRECTION($,(-1,0,0));
#1207=DIRECTION($,(0,1,0));
#1208=AXIS2_PLACEMENT_3D($,#1205,#1206,#1207);
#1209=PLANE($,#1208);
#1210=ORIENTED_EDGE($,$,$,#38,.T.);
#1211=CARTESIAN_POINT($,(180,2.1,1.2));
#1212=DIRECTION($,(0,0,-1));
#1213=VECTOR($,#1212,1);
#1214=LINE($,#1211,#1213);
#1215=EDGE_CURVE($,#33,#307,#1214,.T.);
#1216=ORIENTED_EDGE($,$,$,#1215,.T.);
#1217=ORIENTED_EDGE($,$,$,#320,.T.);
#1218=ORIENTED_EDGE($,$,$,#1193,.F.);
#1219=EDGE_LOOP($,(#1210,#1216,#1217,#1218));
#1220=FACE_OUTER_BOUND('',#1219,.T.);
#1221=ADVANCED_FACE('',(#1220),#1209,.T.);
#1222=CARTESIAN_POINT($,(180,117.3,1.2));
#1223=DIRECTION($,(-1,0,0));
#1224=DIRECTION($,(0,1,0));
#1225=AXIS2_PLACEMENT_3D($,#1222,#1223,#1224);
#1226=PLANE($,#1225);
#1227=ORIENTED_EDGE($,$,$,#54,.T.);
#1228=CARTESIAN_POINT($,(180,120,1.2));
#1229=DIRECTION($,(0,0,-1));
#1230=VECTOR($,#1229,1);
#1231=LINE($,#1228,#1230);
#1232=EDGE_CURVE($,#49,#291,#1231,.T.);
#1233=ORIENTED_EDGE($,$,$,#1232,.T.);
#1234=ORIENTED_EDGE($,$,$,#304,.T.);
#1235=CARTESIAN_POINT($,(180,117.3,0));
#1236=DIRECTION($,(0,0,1));
#1237=VECTOR($,#1236,1);
#1238=LINE($,#1235,#1237);
#1239=EDGE_CURVE($,#299,#41,#1238,.T.);
#1240=ORIENTED_EDGE($,$,$,#1239,.T.);
#1241=EDGE_LOOP($,(#1227,#1233,#1234,#1240));
#1242=FACE_OUTER_BOUND('',#1241,.T.);
#1243=ADVANCED_FACE('',(#1242),#1226,.T.);
#1244=CARTESIAN_POINT($,(180,120,1.2));
#1245=DIRECTION($,(-0,-1,-0));
#1246=DIRECTION($,(-1,0,0));
#1247=AXIS2_PLACEMENT_3D($,#1244,#1245,#1246);
#1248=PLANE($,#1247);
#1249=ORIENTED_EDGE($,$,$,#62,.T.);
#1250=CARTESIAN_POINT($,(177.3,120,1.2));
#1251=DIRECTION($,(0,0,-1));
#1252=VECTOR($,#1251,1);
#1253=LINE($,#1250,#1252);
#1254=EDGE_CURVE($,#57,#283,#1253,.T.);
#1255=ORIENTED_EDGE($,$,$,#1254,.T.);
#1256=ORIENTED_EDGE($,$,$,#296,.T.);
#1257=ORIENTED_EDGE($,$,$,#1232,.F.);
#1258=EDGE_LOOP($,(#1249,#1255,#1256,#1257));
#1259=FACE_OUTER_BOUND('',#1258,.T.);
#1260=ADVANCED_FACE('',(#1259),#1248,.T.);
#1261=CARTESIAN_POINT($,(2.7,120,1.2));
#1262=DIRECTION($,(-0,-1,-0));
#1263=DIRECTION($,(-1,0,0));
#1264=AXIS2_PLACEMENT_3D($,#1261,#1262,#1263);
#1265=PLANE($,#1264);
#1266=ORIENTED_EDGE($,$,$,#78,.T.);
#1267=CARTESIAN_POINT($,(0,120,1.2));
#1268=DIRECTION($,(0,0,-1));
#1269=VECTOR($,#1268,1);
#1270=LINE($,#1267,#1269);
#1271=EDGE_CURVE($,#73,#267,#1270,.T.);
#1272=ORIENTED_EDGE($,$,$,#1271,.T.);
#1273=ORIENTED_EDGE($,$,$,#280,.T.);
#1274=CARTESIAN_POINT($,(2.7,120,0));
#1275=DIRECTION($,(0,0,1));
#1276=VECTOR($,#1275,1);
#1277=LINE($,#1274,#1276);
#1278=EDGE_CURVE($,#275,#65,#1277,.T.);
#1279=ORIENTED_EDGE($,$,$,#1278,.T.);
#1280=EDGE_LOOP($,(#1266,#1272,#1273,#1279));
#1281=FACE_OUTER_BOUND('',#1280,.T.);
#1282=ADVANCED_FACE('',(#1281),#1265,.T.);
#1283=CARTESIAN_POINT($,(0,120,1.2));
#1284=DIRECTION($,(1,0,0));
#1285=DIRECTION($,(0,-1,0));
#1286=AXIS2_PLACEMENT_3D($,#1283,#1284,#1285);
#1287=PLANE($,#1286);
#1288=ORIENTED_EDGE($,$,$,#86,.T.);
#1289=CARTESIAN_POINT($,(0,117.3,1.2));
#1290=DIRECTION($,(0,0,-1));
#1291=VECTOR($,#1290,1);
#1292=LINE($,#1289,#1291);
#1293=EDGE_CURVE($,#81,#259,#1292,.T.);
#1294=ORIENTED_EDGE($,$,$,#1293,.T.);
#1295=ORIENTED_EDGE($,$,$,#272,.T.);
#1296=ORIENTED_EDGE($,$,$,#1271,.F.);
#1297=EDGE_LOOP($,(#1288,#1294,#1295,#1296));
#1298=FACE_OUTER_BOUND('',#1297,.T.);
#1299=ADVANCED_FACE('',(#1298),#1287,.T.);
#1300=CARTESIAN_POINT($,(0,2.7,1.2));
#1301=DIRECTION($,(1,0,0));
#1302=DIRECTION($,(0,-1,0));
#1303=AXIS2_PLACEMENT_3D($,#1300,#1301,#1302);
#1304=PLANE($,#1303);
#1305=ORIENTED_EDGE($,$,$,#100,.T.);
#1306=ORIENTED_EDGE($,$,$,#1178,.F.);
#1307=ORIENTED_EDGE($,$,$,#350,.T.);
#1308=CARTESIAN_POINT($,(0,2.7,0));
#1309=DIRECTION($,(0,0,1));
#1310=VECTOR($,#1309,1);
#1311=LINE($,#1308,#1310);
#1312=EDGE_CURVE($,#257,#89,#1311,.T.);
#1313=ORIENTED_EDGE($,$,$,#1312,.T.);
#1314=EDGE_LOOP($,(#1305,#1306,#1307,#1313));
#1315=FACE_OUTER_BOUND('',#1314,.T.);
#1316=ADVANCED_FACE('',(#1315),#1304,.T.);
#1317=CARTESIAN_POINT($,(177.9,-1.5,2.7));
#1318=DIRECTION($,(1,0,0));
#1319=DIRECTION($,(0,-0,1));
#1320=AXIS2_PLACEMENT_3D($,#1317,#1318,#1319);
#1321=PLANE($,#1320);
#1322=ORIENTED_EDGE($,$,$,#522,.T.);
#1323=CARTESIAN_POINT($,(177.9,-1.5,37.7));
#1324=DIRECTION($,(0,-1,0));
#1325=VECTOR($,#1324,1);
#1326=LINE($,#1323,#1325);
#1327=EDGE_CURVE($,#517,#549,#1326,.T.);
#1328=ORIENTED_EDGE($,$,$,#1327,.T.);
#1329=ORIENTED_EDGE($,$,$,#562,.T.);
#1330=CARTESIAN_POINT($,(177.9,-2.7,2.7));
#1331=DIRECTION($,(0,1,0));
#1332=VECTOR($,#1331,1);
#1333=LINE($,#1330,#1332);
#1334=EDGE_CURVE($,#557,#509,#1333,.T.);
#1335=ORIENTED_EDGE($,$,$,#1334,.T.);
#1336=EDGE_LOOP($,(#1322,#1328,#1329,#1335));
#1337=FACE_OUTER_BOUND('',#1336,.T.);
#1338=ADVANCED_FACE('',(#1337),#1321,.T.);
#1339=CARTESIAN_POINT($,(2.7,-1.5,37.7));
#1340=DIRECTION($,(-1,-0,-0));
#1341=DIRECTION($,(0,0,-1));
#1342=AXIS2_PLACEMENT_3D($,#1339,#1340,#1341);
#1343=PLANE($,#1342);
#1344=ORIENTED_EDGE($,$,$,#536,.T.);
#1345=CARTESIAN_POINT($,(2.7,-1.5,2.7));
#1346=DIRECTION($,(0,-1,0));
#1347=VECTOR($,#1346,1);
#1348=LINE($,#1345,#1347);
#1349=EDGE_CURVE($,#507,#565,#1348,.T.);
#1350=ORIENTED_EDGE($,$,$,#1349,.T.);
#1351=ORIENTED_EDGE($,$,$,#576,.T.);
#1352=CARTESIAN_POINT($,(2.7,-2.7,37.7));
#1353=DIRECTION($,(0,1,0));
#1354=VECTOR($,#1353,1);
#1355=LINE($,#1352,#1354);
#1356=EDGE_CURVE($,#547,#525,#1355,.T.);
#1357=ORIENTED_EDGE($,$,$,#1356,.T.);
#1358=EDGE_LOOP($,(#1344,#1350,#1351,#1357));
#1359=FACE_OUTER_BOUND('',#1358,.T.);
#1360=ADVANCED_FACE('',(#1359),#1343,.T.);
#1361=CARTESIAN_POINT($,(177.9,0,1.2));
#1362=DIRECTION($,(1,0,0));
#1363=DIRECTION($,(0,-0.707106781186548,0.707106781186547));
#1364=AXIS2_PLACEMENT_3D($,#1361,#1362,#1363);
#1365=PLANE($,#1364);
#1366=ORIENTED_EDGE($,$,$,#593,.T.);
#1367=ORIENTED_EDGE($,$,$,#1334,.F.);
#1368=ORIENTED_EDGE($,$,$,#619,.T.);
#1369=ORIENTED_EDGE($,$,$,#1200,.T.);
#1370=EDGE_LOOP($,(#1366,#1367,#1368,#1369));
#1371=FACE_OUTER_BOUND('',#1370,.T.);
#1372=ADVANCED_FACE('',(#1371),#1365,.T.);
#1373=CARTESIAN_POINT($,(2.7,-1.5,2.7));
#1374=DIRECTION($,(-1,-0,-0));
#1375=DIRECTION($,(0,0.707106781186548,-0.707106781186547));
#1376=AXIS2_PLACEMENT_3D($,#1373,#1374,#1375);
#1377=PLANE($,#1376);
#1378=ORIENTED_EDGE($,$,$,#602,.T.);
#1379=ORIENTED_EDGE($,$,$,#1171,.T.);
#1380=ORIENTED_EDGE($,$,$,#628,.T.);
#1381=ORIENTED_EDGE($,$,$,#1349,.F.);
#1382=EDGE_LOOP($,(#1378,#1379,#1380,#1381));
#1383=FACE_OUTER_BOUND('',#1382,.T.);
#1384=ADVANCED_FACE('',(#1383),#1377,.T.);
#1385=CARTESIAN_POINT($,(181.5,117.3,2.7));
#1386=DIRECTION($,(0,1,0));
#1387=DIRECTION($,(0,0,1));
#1388=AXIS2_PLACEMENT_3D($,#1385,#1386,#1387);
#1389=PLANE($,#1388);
#1390=ORIENTED_EDGE($,$,$,#654,.T.);
#1391=CARTESIAN_POINT($,(181.5,117.3,37.7));
#1392=DIRECTION($,(1,0,0));
#1393=VECTOR($,#1392,1);
#1394=LINE($,#1391,#1393);
#1395=EDGE_CURVE($,#649,#681,#1394,.T.);
#1396=ORIENTED_EDGE($,$,$,#1395,.T.);
#1397=ORIENTED_EDGE($,$,$,#694,.T.);
#1398=CARTESIAN_POINT($,(182.7,117.3,2.7));
#1399=DIRECTION($,(-1,0,0));
#1400=VECTOR($,#1399,1);
#1401=LINE($,#1398,#1400);
#1402=EDGE_CURVE($,#689,#641,#1401,.T.);
#1403=ORIENTED_EDGE($,$,$,#1402,.T.);
#1404=EDGE_LOOP($,(#1390,#1396,#1397,#1403));
#1405=FACE_OUTER_BOUND('',#1404,.T.);
#1406=ADVANCED_FACE('',(#1405),#1389,.T.);
#1407=CARTESIAN_POINT($,(181.5,117.3,37.7));
#1408=DIRECTION($,(-0,0,1));
#1409=DIRECTION($,(0,-1,0));
#1410=AXIS2_PLACEMENT_3D($,#1407,#1408,#1409);
#1411=PLANE($,#1410);
#1412=ORIENTED_EDGE($,$,$,#662,.T.);
#1413=CARTESIAN_POINT($,(181.5,2.1,37.7));
#1414=DIRECTION($,(1,0,0));
#1415=VECTOR($,#1414,1);
#1416=LINE($,#1413,#1415);
#1417=EDGE_CURVE($,#657,#679,#1416,.T.);
#1418=ORIENTED_EDGE($,$,$,#1417,.T.);
#1419=ORIENTED_EDGE($,$,$,#686,.T.);
#1420=ORIENTED_EDGE($,$,$,#1395,.F.);
#1421=EDGE_LOOP($,(#1412,#1418,#1419,#1420));
#1422=FACE_OUTER_BOUND('',#1421,.T.);
#1423=ADVANCED_FACE('',(#1422),#1411,.T.);
#1424=CARTESIAN_POINT($,(181.5,2.1,37.7));
#1425=DIRECTION($,(0,-1,0));
#1426=DIRECTION($,(0,0,-1));
#1427=AXIS2_PLACEMENT_3D($,#1424,#1425,#1426);
#1428=PLANE($,#1427);
#1429=ORIENTED_EDGE($,$,$,#668,.T.);
#1430=CARTESIAN_POINT($,(181.5,2.1,2.7));
#1431=DIRECTION($,(1,0,0));
#1432=VECTOR($,#1431,1);
#1433=LINE($,#1430,#1432);
#1434=EDGE_CURVE($,#639,#697,#1433,.T.);
#1435=ORIENTED_EDGE($,$,$,#1434,.T.);
#1436=ORIENTED_EDGE($,$,$,#708,.T.);
#1437=ORIENTED_EDGE($,$,$,#1417,.F.);
#1438=EDGE_LOOP($,(#1429,#1435,#1436,#1437));
#1439=FACE_OUTER_BOUND('',#1438,.T.);
#1440=ADVANCED_FACE('',(#1439),#1428,.T.);
#1441=CARTESIAN_POINT($,(180,117.3,1.2));
#1442=DIRECTION($,(-0,1,0));
#1443=DIRECTION($,(0.707106781186548,0,0.707106781186547));
#1444=AXIS2_PLACEMENT_3D($,#1441,#1442,#1443);
#1445=PLANE($,#1444);
#1446=ORIENTED_EDGE($,$,$,#725,.T.);
#1447=ORIENTED_EDGE($,$,$,#1402,.F.);
#1448=ORIENTED_EDGE($,$,$,#751,.T.);
#1449=ORIENTED_EDGE($,$,$,#1239,.T.);
#1450=EDGE_LOOP($,(#1446,#1447,#1448,#1449));
#1451=FACE_OUTER_BOUND('',#1450,.T.);
#1452=ADVANCED_FACE('',(#1451),#1445,.T.);
#1453=CARTESIAN_POINT($,(181.5,2.1,2.7));
#1454=DIRECTION($,(0,-1,-0));
#1455=DIRECTION($,(-0.707106781186548,0,-0.707106781186547));
#1456=AXIS2_PLACEMENT_3D($,#1453,#1454,#1455);
#1457=PLANE($,#1456);
#1458=ORIENTED_EDGE($,$,$,#734,.T.);
#1459=ORIENTED_EDGE($,$,$,#1215,.T.);
#1460=ORIENTED_EDGE($,$,$,#760,.T.);
#1461=ORIENTED_EDGE($,$,$,#1434,.F.);
#1462=EDGE_LOOP($,(#1458,#1459,#1460,#1461));
#1463=FACE_OUTER_BOUND('',#1462,.T.);
#1464=ADVANCED_FACE('',(#1463),#1457,.T.);
#1465=CARTESIAN_POINT($,(2.7,121.5,2.7));
#1466=DIRECTION($,(-1,0,0));
#1467=DIRECTION($,(0,0,1));
#1468=AXIS2_PLACEMENT_3D($,#1465,#1466,#1467);
#1469=PLANE($,#1468);
#1470=ORIENTED_EDGE($,$,$,#786,.T.);
#1471=CARTESIAN_POINT($,(2.7,121.5,37.7));
#1472=DIRECTION($,(0,1,0));
#1473=VECTOR($,#1472,1);
#1474=LINE($,#1471,#1473);
#1475=EDGE_CURVE($,#781,#813,#1474,.T.);
#1476=ORIENTED_EDGE($,$,$,#1475,.T.);
#1477=ORIENTED_EDGE($,$,$,#826,.T.);
#1478=CARTESIAN_POINT($,(2.7,122.7,2.7));
#1479=DIRECTION($,(0,-1,0));
#1480=VECTOR($,#1479,1);
#1481=LINE($,#1478,#1480);
#1482=EDGE_CURVE($,#821,#773,#1481,.T.);
#1483=ORIENTED_EDGE($,$,$,#1482,.T.);
#1484=EDGE_LOOP($,(#1470,#1476,#1477,#1483));
#1485=FACE_OUTER_BOUND('',#1484,.T.);
#1486=ADVANCED_FACE('',(#1485),#1469,.T.);
#1487=CARTESIAN_POINT($,(2.7,121.5,37.7));
#1488=DIRECTION($,(0,0,1));
#1489=DIRECTION($,(1,0,0));
#1490=AXIS2_PLACEMENT_3D($,#1487,#1488,#1489);
#1491=PLANE($,#1490);
#1492=ORIENTED_EDGE($,$,$,#794,.T.);
#1493=CARTESIAN_POINT($,(177.3,121.5,37.7));
#1494=DIRECTION($,(0,1,0));
#1495=VECTOR($,#1494,1);
#1496=LINE($,#1493,#1495);
#1497=EDGE_CURVE($,#789,#811,#1496,.T.);
#1498=ORIENTED_EDGE($,$,$,#1497,.T.);
#1499=ORIENTED_EDGE($,$,$,#818,.T.);
#1500=ORIENTED_EDGE($,$,$,#1475,.F.);
#1501=EDGE_LOOP($,(#1492,#1498,#1499,#1500));
#1502=FACE_OUTER_BOUND('',#1501,.T.);
#1503=ADVANCED_FACE('',(#1502),#1491,.T.);
#1504=CARTESIAN_POINT($,(177.3,121.5,37.7));
#1505=DIRECTION($,(1,-0,0));
#1506=DIRECTION($,(0,0,-1));
#1507=AXIS2_PLACEMENT_3D($,#1504,#1505,#1506);
#1508=PLANE($,#1507);
#1509=ORIENTED_EDGE($,$,$,#800,.T.);
#1510=CARTESIAN_POINT($,(177.3,121.5,2.7));
#1511=DIRECTION($,(0,1,0));
#1512=VECTOR($,#1511,1);
#1513=LINE($,#1510,#1512);
#1514=EDGE_CURVE($,#771,#829,#1513,.T.);
#1515=ORIENTED_EDGE($,$,$,#1514,.T.);
#1516=ORIENTED_EDGE($,$,$,#840,.T.);
#1517=ORIENTED_EDGE($,$,$,#1497,.F.);
#1518=EDGE_LOOP($,(#1509,#1515,#1516,#1517));
#1519=FACE_OUTER_BOUND('',#1518,.T.);
#1520=ADVANCED_FACE('',(#1519),#1508,.T.);
#1521=CARTESIAN_POINT($,(2.7,120,1.2));
#1522=DIRECTION($,(-1,0,0));
#1523=DIRECTION($,(0,0.707106781186548,0.707106781186547));
#1524=AXIS2_PLACEMENT_3D($,#1521,#1522,#1523);
#1525=PLANE($,#1524);
#1526=ORIENTED_EDGE($,$,$,#857,.T.);
#1527=ORIENTED_EDGE($,$,$,#1482,.F.);
#1528=ORIENTED_EDGE($,$,$,#883,.T.);
#1529=ORIENTED_EDGE($,$,$,#1278,.T.);
#1530=EDGE_LOOP($,(#1526,#1527,#1528,#1529));
#1531=FACE_OUTER_BOUND('',#1530,.T.);
#1532=ADVANCED_FACE('',(#1531),#1525,.T.);
#1533=CARTESIAN_POINT($,(177.3,121.5,2.7));
#1534=DIRECTION($,(1,-0,0));
#1535=DIRECTION($,(0,-0.707106781186548,-0.707106781186547));
#1536=AXIS2_PLACEMENT_3D($,#1533,#1534,#1535);
#1537=PLANE($,#1536);
#1538=ORIENTED_EDGE($,$,$,#866,.T.);
#1539=ORIENTED_EDGE($,$,$,#1254,.T.);
#1540=ORIENTED_EDGE($,$,$,#892,.T.);
#1541=ORIENTED_EDGE($,$,$,#1514,.F.);
#1542=EDGE_LOOP($,(#1538,#1539,#1540,#1541));
#1543=FACE_OUTER_BOUND('',#1542,.T.);
#1544=ADVANCED_FACE('',(#1543),#1537,.T.);
#1545=CARTESIAN_POINT($,(-1.5,2.7,2.7));
#1546=DIRECTION($,(0,-1,0));
#1547=DIRECTION($,(-0,0,1));
#1548=AXIS2_PLACEMENT_3D($,#1545,#1546,#1547);
#1549=PLANE($,#1548);
#1550=ORIENTED_EDGE($,$,$,#918,.T.);
#1551=CARTESIAN_POINT($,(-1.5,2.7,37.7));
#1552=DIRECTION($,(-1,0,0));
#1553=VECTOR($,#1552,1);
#1554=LINE($,#1551,#1553);
#1555=EDGE_CURVE($,#913,#945,#1554,.T.);
#1556=ORIENTED_EDGE($,$,$,#1555,.T.);
#1557=ORIENTED_EDGE($,$,$,#958,.T.);
#1558=CARTESIAN_POINT($,(-2.7,2.7,2.7));
#1559=DIRECTION($,(1,0,0));
#1560=VECTOR($,#1559,1);
#1561=LINE($,#1558,#1560);
#1562=EDGE_CURVE($,#953,#905,#1561,.T.);
#1563=ORIENTED_EDGE($,$,$,#1562,.T.);
#1564=EDGE_LOOP($,(#1550,#1556,#1557,#1563));
#1565=FACE_OUTER_BOUND('',#1564,.T.);
#1566=ADVANCED_FACE('',(#1565),#1549,.T.);
#1567=CARTESIAN_POINT($,(-1.5,2.7,37.7));
#1568=DIRECTION($,(0,-0,1));
#1569=DIRECTION($,(0,1,0));
#1570=AXIS2_PLACEMENT_3D($,#1567,#1568,#1569);
#1571=PLANE($,#1570);
#1572=ORIENTED_EDGE($,$,$,#926,.T.);
#1573=CARTESIAN_POINT($,(-1.5,117.3,37.7));
#1574=DIRECTION($,(-1,0,0));
#1575=VECTOR($,#1574,1);
#1576=LINE($,#1573,#1575);
#1577=EDGE_CURVE($,#921,#943,#1576,.T.);
#1578=ORIENTED_EDGE($,$,$,#1577,.T.);
#1579=ORIENTED_EDGE($,$,$,#950,.T.);
#1580=ORIENTED_EDGE($,$,$,#1555,.F.);
#1581=EDGE_LOOP($,(#1572,#1578,#1579,#1580));
#1582=FACE_OUTER_BOUND('',#1581,.T.);
#1583=ADVANCED_FACE('',(#1582),#1571,.T.);
#1584=CARTESIAN_POINT($,(-1.5,117.3,37.7));
#1585=DIRECTION($,(0,1,0));
#1586=DIRECTION($,(0,0,-1));
#1587=AXIS2_PLACEMENT_3D($,#1584,#1585,#1586);
#1588=PLANE($,#1587);
#1589=ORIENTED_EDGE($,$,$,#932,.T.);
#1590=CARTESIAN_POINT($,(-1.5,117.3,2.7));
#1591=DIRECTION($,(-1,0,0));
#1592=VECTOR($,#1591,1);
#1593=LINE($,#1590,#1592);
#1594=EDGE_CURVE($,#903,#961,#1593,.T.);
#1595=ORIENTED_EDGE($,$,$,#1594,.T.);
#1596=ORIENTED_EDGE($,$,$,#972,.T.);
#1597=ORIENTED_EDGE($,$,$,#1577,.F.);
#1598=EDGE_LOOP($,(#1589,#1595,#1596,#1597));
#1599=FACE_OUTER_BOUND('',#1598,.T.);
#1600=ADVANCED_FACE('',(#1599),#1588,.T.);
#1601=CARTESIAN_POINT($,(0,2.7,1.2));
#1602=DIRECTION($,(-0,-1,-0));
#1603=DIRECTION($,(-0.707106781186548,0,0.707106781186547));
#1604=AXIS2_PLACEMENT_3D($,#1601,#1602,#1603);
#1605=PLANE($,#1604);
#1606=ORIENTED_EDGE($,$,$,#989,.T.);
#1607=ORIENTED_EDGE($,$,$,#1562,.F.);
#1608=ORIENTED_EDGE($,$,$,#1015,.T.);
#1609=ORIENTED_EDGE($,$,$,#1312,.T.);
#1610=EDGE_LOOP($,(#1606,#1607,#1608,#1609));
#1611=FACE_OUTER_BOUND('',#1610,.T.);
#1612=ADVANCED_FACE('',(#1611),#1605,.T.);
#1613=CARTESIAN_POINT($,(-1.5,117.3,2.7));
#1614=DIRECTION($,(0,1,0));
#1615=DIRECTION($,(0.707106781186548,0,-0.707106781186547));
#1616=AXIS2_PLACEMENT_3D($,#1613,#1614,#1615);
#1617=PLANE($,#1616);
#1618=ORIENTED_EDGE($,$,$,#998,.T.);
#1619=ORIENTED_EDGE($,$,$,#1293,.T.);
#1620=ORIENTED_EDGE($,$,$,#1024,.T.);
#1621=ORIENTED_EDGE($,$,$,#1594,.F.);
#1622=EDGE_LOOP($,(#1618,#1619,#1620,#1621));
#1623=FACE_OUTER_BOUND('',#1622,.T.);
#1624=ADVANCED_FACE('',(#1623),#1617,.T.);
#1625=CARTESIAN_POINT($,(177.9,-3.9,40.1));
#1626=DIRECTION($,(1,0,0));
#1627=DIRECTION($,(0,-1,0));
#1628=AXIS2_PLACEMENT_3D($,#1625,#1626,#1627);
#1629=PLANE($,#1628);
#1630=ORIENTED_EDGE($,$,$,#1050,.T.);
#1631=CARTESIAN_POINT($,(177.9,-13.9,40.1));
#1632=DIRECTION($,(0,0,-1));
#1633=VECTOR($,#1632,1);
#1634=LINE($,#1631,#1633);
#1635=EDGE_CURVE($,#1045,#1077,#1634,.T.);
#1636=ORIENTED_EDGE($,$,$,#1635,.T.);
#1637=ORIENTED_EDGE($,$,$,#1090,.T.);
#1638=CARTESIAN_POINT($,(177.9,-3.9,38.9));
#1639=DIRECTION($,(0,0,1));
#1640=VECTOR($,#1639,1);
#1641=LINE($,#1638,#1640);
#1642=EDGE_CURVE($,#1085,#1037,#1641,.T.);
#1643=ORIENTED_EDGE($,$,$,#1642,.T.);
#1644=EDGE_LOOP($,(#1630,#1636,#1637,#1643));
#1645=FACE_OUTER_BOUND('',#1644,.T.);
#1646=ADVANCED_FACE('',(#1645),#1629,.T.);
#1647=CARTESIAN_POINT($,(177.9,-13.9,40.1));
#1648=DIRECTION($,(-0,-1,-0));
#1649=DIRECTION($,(-1,0,0));
#1650=AXIS2_PLACEMENT_3D($,#1647,#1648,#1649);
#1651=PLANE($,#1650);
#1652=ORIENTED_EDGE($,$,$,#1058,.T.);
#1653=CARTESIAN_POINT($,(2.7,-13.9,40.1));
#1654=DIRECTION($,(0,0,-1));
#1655=VECTOR($,#1654,1);
#1656=LINE($,#1653,#1655);
#1657=EDGE_CURVE($,#1053,#1075,#1656,.T.);
#1658=ORIENTED_EDGE($,$,$,#1657,.T.);
#1659=ORIENTED_EDGE($,$,$,#1082,.T.);
#1660=ORIENTED_EDGE($,$,$,#1635,.F.);
#1661=EDGE_LOOP($,(#1652,#1658,#1659,#1660));
#1662=FACE_OUTER_BOUND('',#1661,.T.);
#1663=ADVANCED_FACE('',(#1662),#1651,.T.);
#1664=CARTESIAN_POINT($,(2.7,-13.9,40.1));
#1665=DIRECTION($,(-1,0,0));
#1666=DIRECTION($,(0,1,0));
#1667=AXIS2_PLACEMENT_3D($,#1664,#1665,#1666);
#1668=PLANE($,#1667);
#1669=ORIENTED_EDGE($,$,$,#1064,.T.);
#1670=CARTESIAN_POINT($,(2.7,-3.9,40.1));
#1671=DIRECTION($,(0,0,-1));
#1672=VECTOR($,#1671,1);
#1673=LINE($,#1670,#1672);
#1674=EDGE_CURVE($,#1035,#1093,#1673,.T.);
#1675=ORIENTED_EDGE($,$,$,#1674,.T.);
#1676=ORIENTED_EDGE($,$,$,#1104,.T.);
#1677=ORIENTED_EDGE($,$,$,#1657,.F.);
#1678=EDGE_LOOP($,(#1669,#1675,#1676,#1677));
#1679=FACE_OUTER_BOUND('',#1678,.T.);
#1680=ADVANCED_FACE('',(#1679),#1668,.T.);
#1681=CARTESIAN_POINT($,(177.9,-1.5,37.7));
#1682=DIRECTION($,(1,0,0));
#1683=DIRECTION($,(0,-0.707106781186548,0.707106781186547));
#1684=AXIS2_PLACEMENT_3D($,#1681,#1682,#1683);
#1685=PLANE($,#1684);
#1686=ORIENTED_EDGE($,$,$,#1121,.T.);
#1687=ORIENTED_EDGE($,$,$,#1642,.F.);
#1688=ORIENTED_EDGE($,$,$,#1147,.T.);
#1689=ORIENTED_EDGE($,$,$,#1327,.F.);
#1690=EDGE_LOOP($,(#1686,#1687,#1688,#1689));
#1691=FACE_OUTER_BOUND('',#1690,.T.);
#1692=ADVANCED_FACE('',(#1691),#1685,.T.);
#1693=CARTESIAN_POINT($,(2.7,-3.9,40.1));
#1694=DIRECTION($,(-1,0,0));
#1695=DIRECTION($,(0,0.707106781186548,-0.707106781186547));
#1696=AXIS2_PLACEMENT_3D($,#1693,#1694,#1695);
#1697=PLANE($,#1696);
#1698=ORIENTED_EDGE($,$,$,#1130,.T.);
#1699=ORIENTED_EDGE($,$,$,#1356,.F.);
#1700=ORIENTED_EDGE($,$,$,#1156,.T.);
#1701=ORIENTED_EDGE($,$,$,#1674,.F.);
#1702=EDGE_LOOP($,(#1698,#1699,#1700,#1701));
#1703=FACE_OUTER_BOUND('',#1702,.T.);
#1704=ADVANCED_FACE('',(#1703),#1697,.T.);
#1705=CARTESIAN_POINT($,(15,15,0));
#1706=DIRECTION($,(0,0,1));
#1707=DIRECTION($,(1,0,0));
#1708=AXIS2_PLACEMENT_3D($,#1705,#1706,#1707);
#1709=CYLINDRICAL_SURFACE($,#1708,2);
#1710=ORIENTED_EDGE($,$,$,#111,.T.);
#1711=EDGE_LOOP($,(#1710));
#1712=FACE_OUTER_BOUND('',#1711,.T.);
#1713=ORIENTED_EDGE($,$,$,#361,.T.);
#1714=EDGE_LOOP($,(#1713));
#1715=FACE_BOUND('',#1714,.T.);
#1716=ADVANCED_FACE('',(#1712,#1715),#1709,.F.);
#1717=CARTESIAN_POINT($,(165,15,0));
#1718=DIRECTION($,(0,0,1));
#1719=DIRECTION($,(1,0,0));
#1720=AXIS2_PLACEMENT_3D($,#1717,#1718,#1719);
#1721=CYLINDRICAL_SURFACE($,#1720,2);
#1722=ORIENTED_EDGE($,$,$,#122,.T.);
#1723=EDGE_LOOP($,(#1722));
#1724=FACE_OUTER_BOUND('',#1723,.T.);
#1725=ORIENTED_EDGE($,$,$,#372,.T.);
#1726=EDGE_LOOP($,(#1725));
#1727=FACE_BOUND('',#1726,.T.);
#1728=ADVANCED_FACE('',(#1724,#1727),#1721,.F.);
#1729=CARTESIAN_POINT($,(15,105,0));
#1730=DIRECTION($,(0,0,1));
#1731=DIRECTION($,(1,0,0));
#1732=AXIS2_PLACEMENT_3D($,#1729,#1730,#1731);
#1733=CYLINDRICAL_SURFACE($,#1732,2);
#1734=ORIENTED_EDGE($,$,$,#133,.T.);
#1735=EDGE_LOOP($,(#1734));
#1736=FACE_OUTER_BOUND('',#1735,.T.);
#1737=ORIENTED_EDGE($,$,$,#383,.T.);
#1738=EDGE_LOOP($,(#1737));
#1739=FACE_BOUND('',#1738,.T.);
#1740=ADVANCED_FACE('',(#1736,#1739),#1733,.F.);
#1741=CARTESIAN_POINT($,(165,105,0));
#1742=DIRECTION($,(0,0,1));
#1743=DIRECTION($,(1,0,0));
#1744=AXIS2_PLACEMENT_3D($,#1741,#1742,#1743);
#1745=CYLINDRICAL_SURFACE($,#1744,2);
#1746=ORIENTED_EDGE($,$,$,#144,.T.);
#1747=EDGE_LOOP($,(#1746));
#1748=FACE_OUTER_BOUND('',#1747,.T.);
#1749=ORIENTED_EDGE($,$,$,#394,.T.);
#1750=EDGE_LOOP($,(#1749));
#1751=FACE_BOUND('',#1750,.T.);
#1752=ADVANCED_FACE('',(#1748,#1751),#1745,.F.);
#1753=CARTESIAN_POINT($,(39.5,57,1.2));
#1754=DIRECTION($,(-0,1,0));
#1755=DIRECTION($,(1,0,0));
#1756=AXIS2_PLACEMENT_3D($,#1753,#1754,#1755);
#1757=PLANE($,#1756);
#1758=ORIENTED_EDGE($,$,$,#172,.T.);
#1759=CARTESIAN_POINT($,(84.5,57,1.2));
#1760=DIRECTION($,(0,0,-1));
#1761=VECTOR($,#1760,1);
#1762=LINE($,#1759,#1761);
#1763=EDGE_CURVE($,#159,#401,#1762,.T.);
#1764=ORIENTED_EDGE($,$,$,#1763,.T.);
#1765=ORIENTED_EDGE($,$,$,#406,.F.);
#1766=CARTESIAN_POINT($,(39.5,57,0));
#1767=DIRECTION($,(0,0,1));
#1768=VECTOR($,#1767,1);
#1769=LINE($,#1766,#1768);
#1770=EDGE_CURVE($,#399,#167,#1769,.T.);
#1771=ORIENTED_EDGE($,$,$,#1770,.T.);
#1772=EDGE_LOOP($,(#1758,#1764,#1765,#1771));
#1773=FACE_OUTER_BOUND('',#1772,.T.);
#1774=ADVANCED_FACE('',(#1773),#1757,.T.);
#1775=CARTESIAN_POINT($,(84.5,57,1.2));
#1776=DIRECTION($,(-1,0,0));
#1777=DIRECTION($,(0,1,0));
#1778=AXIS2_PLACEMENT_3D($,#1775,#1776,#1777);
#1779=PLANE($,#1778);
#1780=ORIENTED_EDGE($,$,$,#164,.T.);
#1781=CARTESIAN_POINT($,(84.5,63,1.2));
#1782=DIRECTION($,(0,0,-1));
#1783=VECTOR($,#1782,1);
#1784=LINE($,#1781,#1783);
#1785=EDGE_CURVE($,#149,#409,#1784,.T.);
#1786=ORIENTED_EDGE($,$,$,#1785,.T.);
#1787=ORIENTED_EDGE($,$,$,#414,.F.);
#1788=ORIENTED_EDGE($,$,$,#1763,.F.);
#1789=EDGE_LOOP($,(#1780,#1786,#1787,#1788));
#1790=FACE_OUTER_BOUND('',#1789,.T.);
#1791=ADVANCED_FACE('',(#1790),#1779,.T.);
#1792=CARTESIAN_POINT($,(84.5,63,1.2));
#1793=DIRECTION($,(-0,-1,-0));
#1794=DIRECTION($,(-1,0,0));
#1795=AXIS2_PLACEMENT_3D($,#1792,#1793,#1794);
#1796=PLANE($,#1795);
#1797=ORIENTED_EDGE($,$,$,#156,.T.);
#1798=CARTESIAN_POINT($,(39.5,63,1.2));
#1799=DIRECTION($,(0,0,-1));
#1800=VECTOR($,#1799,1);
#1801=LINE($,#1798,#1800);
#1802=EDGE_CURVE($,#151,#417,#1801,.T.);
#1803=ORIENTED_EDGE($,$,$,#1802,.T.);
#1804=ORIENTED_EDGE($,$,$,#422,.F.);
#1805=ORIENTED_EDGE($,$,$,#1785,.F.);
#1806=EDGE_LOOP($,(#1797,#1803,#1804,#1805));
#1807=FACE_OUTER_BOUND('',#1806,.T.);
#1808=ADVANCED_FACE('',(#1807),#1796,.T.);
#1809=CARTESIAN_POINT($,(39.5,63,1.2));
#1810=DIRECTION($,(1,0,0));
#1811=DIRECTION($,(0,-1,0));
#1812=AXIS2_PLACEMENT_3D($,#1809,#1810,#1811);
#1813=PLANE($,#1812);
#1814=ORIENTED_EDGE($,$,$,#178,.T.);
#1815=ORIENTED_EDGE($,$,$,#1770,.F.);
#1816=ORIENTED_EDGE($,$,$,#428,.F.);
#1817=ORIENTED_EDGE($,$,$,#1802,.F.);
#1818=EDGE_LOOP($,(#1814,#1815,#1816,#1817));
#1819=FACE_OUTER_BOUND('',#1818,.T.);
#1820=ADVANCED_FACE('',(#1819),#1813,.T.);
#1821=CARTESIAN_POINT($,(67.5,57,1.2));
#1822=DIRECTION($,(-0,1,0));
#1823=DIRECTION($,(1,0,0));
#1824=AXIS2_PLACEMENT_3D($,#1821,#1822,#1823);
#1825=PLANE($,#1824);
#1826=ORIENTED_EDGE($,$,$,#206,.T.);
#1827=CARTESIAN_POINT($,(112.5,57,1.2));
#1828=DIRECTION($,(0,0,-1));
#1829=VECTOR($,#1828,1);
#1830=LINE($,#1827,#1829);
#1831=EDGE_CURVE($,#193,#435,#1830,.T.);
#1832=ORIENTED_EDGE($,$,$,#1831,.T.);
#1833=ORIENTED_EDGE($,$,$,#440,.F.);
#1834=CARTESIAN_POINT($,(67.5,57,0));
#1835=DIRECTION($,(0,0,1));
#1836=VECTOR($,#1835,1);
#1837=LINE($,#1834,#1836);
#1838=EDGE_CURVE($,#433,#201,#1837,.T.);
#1839=ORIENTED_EDGE($,$,$,#1838,.T.);
#1840=EDGE_LOOP($,(#1826,#1832,#1833,#1839));
#1841=FACE_OUTER_BOUND('',#1840,.T.);
#1842=ADVANCED_FACE('',(#1841),#1825,.T.);
#1843=CARTESIAN_POINT($,(112.5,57,1.2));
#1844=DIRECTION($,(-1,0,0));
#1845=DIRECTION($,(0,1,0));
#1846=AXIS2_PLACEMENT_3D($,#1843,#1844,#1845);
#1847=PLANE($,#1846);
#1848=ORIENTED_EDGE($,$,$,#198,.T.);
#1849=CARTESIAN_POINT($,(112.5,63,1.2));
#1850=DIRECTION($,(0,0,-1));
#1851=VECTOR($,#1850,1);
#1852=LINE($,#1849,#1851);
#1853=EDGE_CURVE($,#183,#443,#1852,.T.);
#1854=ORIENTED_EDGE($,$,$,#1853,.T.);
#1855=ORIENTED_EDGE($,$,$,#448,.F.);
#1856=ORIENTED_EDGE($,$,$,#1831,.F.);
#1857=EDGE_LOOP($,(#1848,#1854,#1855,#1856));
#1858=FACE_OUTER_BOUND('',#1857,.T.);
#1859=ADVANCED_FACE('',(#1858),#1847,.T.);
#1860=CARTESIAN_POINT($,(112.5,63,1.2));
#1861=DIRECTION($,(-0,-1,-0));
#1862=DIRECTION($,(-1,0,0));
#1863=AXIS2_PLACEMENT_3D($,#1860,#1861,#1862);
#1864=PLANE($,#1863);
#1865=ORIENTED_EDGE($,$,$,#190,.T.);
#1866=CARTESIAN_POINT($,(67.5,63,1.2));
#1867=DIRECTION($,(0,0,-1));
#1868=VECTOR($,#1867,1);
#1869=LINE($,#1866,#1868);
#1870=EDGE_CURVE($,#185,#451,#1869,.T.);
#1871=ORIENTED_EDGE($,$,$,#1870,.T.);
#1872=ORIENTED_EDGE($,$,$,#456,.F.);
#1873=ORIENTED_EDGE($,$,$,#1853,.F.);
#1874=EDGE_LOOP($,(#1865,#1871,#1872,#1873));
#1875=FACE_OUTER_BOUND('',#1874,.T.);
#1876=ADVANCED_FACE('',(#1875),#1864,.T.);
#1877=CARTESIAN_POINT($,(67.5,63,1.2));
#1878=DIRECTION($,(1,0,0));
#1879=DIRECTION($,(0,-1,0));
#1880=AXIS2_PLACEMENT_3D($,#1877,#1878,#1879);
#1881=PLANE($,#1880);
#1882=ORIENTED_EDGE($,$,$,#212,.T.);
#1883=ORIENTED_EDGE($,$,$,#1838,.F.);
#1884=ORIENTED_EDGE($,$,$,#462,.F.);
#1885=ORIENTED_EDGE($,$,$,#1870,.F.);
#1886=EDGE_LOOP($,(#1882,#1883,#1884,#1885));
#1887=FACE_OUTER_BOUND('',#1886,.T.);
#1888=ADVANCED_FACE('',(#1887),#1881,.T.);
#1889=CARTESIAN_POINT($,(95.5,57,1.2));
#1890=DIRECTION($,(-0,1,0));
#1891=DIRECTION($,(1,0,0));
#1892=AXIS2_PLACEMENT_3D($,#1889,#1890,#1891);
#1893=PLANE($,#1892);
#1894=ORIENTED_EDGE($,$,$,#240,.T.);
#1895=CARTESIAN_POINT($,(140.5,57,1.2));
#1896=DIRECTION($,(0,0,-1));
#1897=VECTOR($,#1896,1);
#1898=LINE($,#1895,#1897);
#1899=EDGE_CURVE($,#227,#469,#1898,.T.);
#1900=ORIENTED_EDGE($,$,$,#1899,.T.);
#1901=ORIENTED_EDGE($,$,$,#474,.F.);
#1902=CARTESIAN_POINT($,(95.5,57,0));
#1903=DIRECTION($,(0,0,1));
#1904=VECTOR($,#1903,1);
#1905=LINE($,#1902,#1904);
#1906=EDGE_CURVE($,#467,#235,#1905,.T.);
#1907=ORIENTED_EDGE($,$,$,#1906,.T.);
#1908=EDGE_LOOP($,(#1894,#1900,#1901,#1907));
#1909=FACE_OUTER_BOUND('',#1908,.T.);
#1910=ADVANCED_FACE('',(#1909),#1893,.T.);
#1911=CARTESIAN_POINT($,(140.5,57,1.2));
#1912=DIRECTION($,(-1,0,0));
#1913=DIRECTION($,(0,1,0));
#1914=AXIS2_PLACEMENT_3D($,#1911,#1912,#1913);
#1915=PLANE($,#1914);
#1916=ORIENTED_EDGE($,$,$,#232,.T.);
#1917=CARTESIAN_POINT($,(140.5,63,1.2));
#1918=DIRECTION($,(0,0,-1));
#1919=VECTOR($,#1918,1);
#1920=LINE($,#1917,#1919);
#1921=EDGE_CURVE($,#217,#477,#1920,.T.);
#1922=ORIENTED_EDGE($,$,$,#1921,.T.);
#1923=ORIENTED_EDGE($,$,$,#482,.F.);
#1924=ORIENTED_EDGE($,$,$,#1899,.F.);
#1925=EDGE_LOOP($,(#1916,#1922,#1923,#1924));
#1926=FACE_OUTER_BOUND('',#1925,.T.);
#1927=ADVANCED_FACE('',(#1926),#1915,.T.);
#1928=CARTESIAN_POINT($,(140.5,63,1.2));
#1929=DIRECTION($,(-0,-1,-0));
#1930=DIRECTION($,(-1,0,0));
#1931=AXIS2_PLACEMENT_3D($,#1928,#1929,#1930);
#1932=PLANE($,#1931);
#1933=ORIENTED_EDGE($,$,$,#224,.T.);
#1934=CARTESIAN_POINT($,(95.5,63,1.2));
#1935=DIRECTION($,(0,0,-1));
#1936=VECTOR($,#1935,1);
#1937=LINE($,#1934,#1936);
#1938=EDGE_CURVE($,#219,#485,#1937,.T.);
#1939=ORIENTED_EDGE($,$,$,#1938,.T.);
#1940=ORIENTED_EDGE($,$,$,#490,.F.);
#1941=ORIENTED_EDGE($,$,$,#1921,.F.);
#1942=EDGE_LOOP($,(#1933,#1939,#1940,#1941));
#1943=FACE_OUTER_BOUND('',#1942,.T.);
#1944=ADVANCED_FACE('',(#1943),#1932,.T.);
#1945=CARTESIAN_POINT($,(95.5,63,1.2));
#1946=DIRECTION($,(1,0,0));
#1947=DIRECTION($,(0,-1,0));
#1948=AXIS2_PLACEMENT_3D($,#1945,#1946,#1947);
#1949=PLANE($,#1948);
#1950=ORIENTED_EDGE($,$,$,#246,.T.);
#1951=ORIENTED_EDGE($,$,$,#1906,.F.);
#1952=ORIENTED_EDGE($,$,$,#496,.F.);
#1953=ORIENTED_EDGE($,$,$,#1938,.F.);
#1954=EDGE_LOOP($,(#1950,#1951,#1952,#1953));
#1955=FACE_OUTER_BOUND('',#1954,.T.);
#1956=ADVANCED_FACE('',(#1955),#1949,.T.);
#1957=CLOSED_SHELL($,(#250,#500,#540,#580,#606,#632,#672,#712,#738,#764,#804,#844,#870,#896,#936,#976,#1002,#1028,#1068,#1108,#1134,#1160,#1182,#1204,#1221,#1243,#1260,#1282,#1299,#1316,#1338,#1360,#1372,#1384,#1406,#1423,#1440,#1452,#1464,#1486,#1503,#1520,#1532,#1544,#1566,#1583,#1600,#1612,#1624,#1646,#1663,#1680,#1692,#1704,#1716,#1728,#1740,#1752,#1774,#1791,#1808,#1820,#1842,#1859,#1876,#1888,#1910,#1927,#1944,#1956));
#1958=MANIFOLD_SOLID_BREP('AetherisBody',#1957);
#1959=APPLICATION_CONTEXT('mechanical design');
#1960=PRODUCT_CONTEXT('',#1959,'mechanical');
#1961=PRODUCT('AETHERIS','AetherisBody','',(#1960));
#1962=PRODUCT_DEFINITION_FORMATION('','',#1961);
#1963=PRODUCT_DEFINITION_CONTEXT('design',#1959,'design');
#1964=PRODUCT_DEFINITION('','',#1962,#1963);
#1965=PRODUCT_DEFINITION_SHAPE('','',#1964);
#1966=(LENGTH_UNIT()NAMED_UNIT(*)SI_UNIT(.MILLI.,.METRE.));
#1967=(NAMED_UNIT(*)PLANE_ANGLE_UNIT()SI_UNIT($,.RADIAN.));
#1968=(NAMED_UNIT(*)SI_UNIT($,.STERADIAN.)SOLID_ANGLE_UNIT());
#1969=(GEOMETRIC_REPRESENTATION_CONTEXT(3)GLOBAL_UNIT_ASSIGNED_CONTEXT((#1966,#1967,#1968))REPRESENTATION_CONTEXT('3','3D'));
#1970=SHAPE_REPRESENTATION('AetherisBody',(#1958),#1969);
#1971=SHAPE_DEFINITION_REPRESENTATION(#1965,#1970);
ENDSEC;
END-ISO-10303-21;
