ISO-10303-21;
HEADER;
FILE_DESCRIPTION(('Aetheris AP242 subset export'),'2;1');
FILE_NAME('aetheris_export.step','1970-01-01T00:00:00',('Aetheris'),('Aetheris'),'Aetheris.Kernel','Aetheris.Kernel','');
FILE_SCHEMA(('AP242_MANAGED_MODEL_BASED_3D_ENGINEERING_MIM_LF'));
ENDSEC;
DATA;
#1=CARTESIAN_POINT($,(0,0,0));
#2=DIRECTION($,(0,0,-1));
#3=DIRECTION($,(1,0,0));
#4=AXIS2_PLACEMENT_3D($,#1,#2,#3);
#5=PLANE($,#4);
#6=CARTESIAN_POINT($,(50.847875838897,10,0));
#7=VERTEX_POINT($,#6);
#8=CARTESIAN_POINT($,(226.047875838897,10,-0));
#9=VERTEX_POINT($,#8);
#10=CARTESIAN_POINT($,(50.847875838897,10,0));
#11=DIRECTION($,(1,0,0));
#12=VECTOR($,#11,1);
#13=LINE($,#10,#12);
#14=EDGE_CURVE($,#7,#9,#13,.T.);
#15=ORIENTED_EDGE($,$,$,#14,.T.);
#16=CARTESIAN_POINT($,(226.047875838897,20,0));
#17=VERTEX_POINT($,#16);
#18=CARTESIAN_POINT($,(226.047875838897,10,-0));
#19=DIRECTION($,(0,1,0));
#20=VECTOR($,#19,1);
#21=LINE($,#18,#20);
#22=EDGE_CURVE($,#9,#17,#21,.T.);
#23=ORIENTED_EDGE($,$,$,#22,.T.);
#24=CARTESIAN_POINT($,(226.047875838897,22.6766369408585,0));
#25=VERTEX_POINT($,#24);
#26=CARTESIAN_POINT($,(226.047875838897,20,0));
#27=DIRECTION($,(0,1,0));
#28=VECTOR($,#27,1);
#29=LINE($,#26,#28);
#30=EDGE_CURVE($,#17,#25,#29,.T.);
#31=ORIENTED_EDGE($,$,$,#30,.T.);
#32=CARTESIAN_POINT($,(226.047875838897,57.6766369408585,0));
#33=VERTEX_POINT($,#32);
#34=CARTESIAN_POINT($,(226.047875838897,22.6766369408585,0));
#35=DIRECTION($,(0,1,0));
#36=VECTOR($,#35,1);
#37=LINE($,#34,#36);
#38=EDGE_CURVE($,#25,#33,#37,.T.);
#39=ORIENTED_EDGE($,$,$,#38,.T.);
#40=CARTESIAN_POINT($,(226.047875838897,60.8245127797555,0));
#41=VERTEX_POINT($,#40);
#42=CARTESIAN_POINT($,(226.047875838897,57.6766369408585,0));
#43=DIRECTION($,(0,1,0));
#44=VECTOR($,#43,1);
#45=LINE($,#42,#44);
#46=EDGE_CURVE($,#33,#41,#45,.T.);
#47=ORIENTED_EDGE($,$,$,#46,.T.);
#48=CARTESIAN_POINT($,(228.147875838897,60.8245127797555,-0));
#49=VERTEX_POINT($,#48);
#50=CARTESIAN_POINT($,(226.047875838897,60.8245127797555,0));
#51=DIRECTION($,(1,0,0));
#52=VECTOR($,#51,1);
#53=LINE($,#50,#52);
#54=EDGE_CURVE($,#41,#49,#53,.T.);
#55=ORIENTED_EDGE($,$,$,#54,.T.);
#56=CARTESIAN_POINT($,(228.147875838897,62.9245127797555,0));
#57=VERTEX_POINT($,#56);
#58=CARTESIAN_POINT($,(228.147875838897,60.8245127797555,-0));
#59=DIRECTION($,(0,1,0));
#60=VECTOR($,#59,1);
#61=LINE($,#58,#60);
#62=EDGE_CURVE($,#49,#57,#61,.T.);
#63=ORIENTED_EDGE($,$,$,#62,.T.);
#64=CARTESIAN_POINT($,(231.295751677794,62.9245127797555,0));
#65=VERTEX_POINT($,#64);
#66=CARTESIAN_POINT($,(228.147875838897,62.9245127797555,0));
#67=DIRECTION($,(1,0,0));
#68=VECTOR($,#67,1);
#69=LINE($,#66,#68);
#70=EDGE_CURVE($,#57,#65,#69,.T.);
#71=ORIENTED_EDGE($,$,$,#70,.T.);
#72=CARTESIAN_POINT($,(266.295751677794,62.9245127797555,-0));
#73=VERTEX_POINT($,#72);
#74=CARTESIAN_POINT($,(231.295751677794,62.9245127797555,0));
#75=DIRECTION($,(1,0,0));
#76=VECTOR($,#75,1);
#77=LINE($,#74,#76);
#78=EDGE_CURVE($,#65,#73,#77,.T.);
#79=ORIENTED_EDGE($,$,$,#78,.T.);
#80=CARTESIAN_POINT($,(266.295751677794,178.124512779755,-0));
#81=VERTEX_POINT($,#80);
#82=CARTESIAN_POINT($,(266.295751677794,62.9245127797555,-0));
#83=DIRECTION($,(0,1,0));
#84=VECTOR($,#83,1);
#85=LINE($,#82,#84);
#86=EDGE_CURVE($,#73,#81,#85,.T.);
#87=ORIENTED_EDGE($,$,$,#86,.T.);
#88=CARTESIAN_POINT($,(231.295751677794,178.124512779755,0));
#89=VERTEX_POINT($,#88);
#90=CARTESIAN_POINT($,(266.295751677794,178.124512779755,-0));
#91=DIRECTION($,(-1,0,0));
#92=VECTOR($,#91,1);
#93=LINE($,#90,#92);
#94=EDGE_CURVE($,#81,#89,#93,.T.);
#95=ORIENTED_EDGE($,$,$,#94,.T.);
#96=CARTESIAN_POINT($,(228.147875838897,178.124512779755,0));
#97=VERTEX_POINT($,#96);
#98=CARTESIAN_POINT($,(231.295751677794,178.124512779755,0));
#99=DIRECTION($,(-1,0,0));
#100=VECTOR($,#99,1);
#101=LINE($,#98,#100);
#102=EDGE_CURVE($,#89,#97,#101,.T.);
#103=ORIENTED_EDGE($,$,$,#102,.T.);
#104=CARTESIAN_POINT($,(228.147875838897,180.824512779755,-0));
#105=VERTEX_POINT($,#104);
#106=CARTESIAN_POINT($,(228.147875838897,178.124512779755,0));
#107=DIRECTION($,(0,1,0));
#108=VECTOR($,#107,1);
#109=LINE($,#106,#108);
#110=EDGE_CURVE($,#97,#105,#109,.T.);
#111=ORIENTED_EDGE($,$,$,#110,.T.);
#112=CARTESIAN_POINT($,(225.447875838897,180.824512779755,0));
#113=VERTEX_POINT($,#112);
#114=CARTESIAN_POINT($,(228.147875838897,180.824512779755,-0));
#115=DIRECTION($,(-1,0,0));
#116=VECTOR($,#115,1);
#117=LINE($,#114,#116);
#118=EDGE_CURVE($,#105,#113,#117,.T.);
#119=ORIENTED_EDGE($,$,$,#118,.T.);
#120=CARTESIAN_POINT($,(225.447875838897,183.972388618652,0));
#121=VERTEX_POINT($,#120);
#122=CARTESIAN_POINT($,(225.447875838897,180.824512779755,0));
#123=DIRECTION($,(0,1,0));
#124=VECTOR($,#123,1);
#125=LINE($,#122,#124);
#126=EDGE_CURVE($,#113,#121,#125,.T.);
#127=ORIENTED_EDGE($,$,$,#126,.T.);
#128=CARTESIAN_POINT($,(225.447875838897,218.972388618652,-0));
#129=VERTEX_POINT($,#128);
#130=CARTESIAN_POINT($,(225.447875838897,183.972388618652,0));
#131=DIRECTION($,(0,1,0));
#132=VECTOR($,#131,1);
#133=LINE($,#130,#132);
#134=EDGE_CURVE($,#121,#129,#133,.T.);
#135=ORIENTED_EDGE($,$,$,#134,.T.);
#136=CARTESIAN_POINT($,(50.847875838897,218.972388618652,-0));
#137=VERTEX_POINT($,#136);
#138=CARTESIAN_POINT($,(225.447875838897,218.972388618652,-0));
#139=DIRECTION($,(-1,0,0));
#140=VECTOR($,#139,1);
#141=LINE($,#138,#140);
#142=EDGE_CURVE($,#129,#137,#141,.T.);
#143=ORIENTED_EDGE($,$,$,#142,.T.);
#144=CARTESIAN_POINT($,(50.847875838897,183.972388618652,0));
#145=VERTEX_POINT($,#144);
#146=CARTESIAN_POINT($,(50.847875838897,218.972388618652,-0));
#147=DIRECTION($,(0,-1,0));
#148=VECTOR($,#147,1);
#149=LINE($,#146,#148);
#150=EDGE_CURVE($,#137,#145,#149,.T.);
#151=ORIENTED_EDGE($,$,$,#150,.T.);
#152=CARTESIAN_POINT($,(50.847875838897,180.824512779755,0));
#153=VERTEX_POINT($,#152);
#154=CARTESIAN_POINT($,(50.847875838897,183.972388618652,0));
#155=DIRECTION($,(0,-1,0));
#156=VECTOR($,#155,1);
#157=LINE($,#154,#156);
#158=EDGE_CURVE($,#145,#153,#157,.T.);
#159=ORIENTED_EDGE($,$,$,#158,.T.);
#160=CARTESIAN_POINT($,(48.147875838897,180.824512779755,-0));
#161=VERTEX_POINT($,#160);
#162=CARTESIAN_POINT($,(50.847875838897,180.824512779755,0));
#163=DIRECTION($,(-1,0,0));
#164=VECTOR($,#163,1);
#165=LINE($,#162,#164);
#166=EDGE_CURVE($,#153,#161,#165,.T.);
#167=ORIENTED_EDGE($,$,$,#166,.T.);
#168=CARTESIAN_POINT($,(48.147875838897,178.124512779755,0));
#169=VERTEX_POINT($,#168);
#170=CARTESIAN_POINT($,(48.147875838897,180.824512779755,-0));
#171=DIRECTION($,(0,-1,0));
#172=VECTOR($,#171,1);
#173=LINE($,#170,#172);
#174=EDGE_CURVE($,#161,#169,#173,.T.);
#175=ORIENTED_EDGE($,$,$,#174,.T.);
#176=CARTESIAN_POINT($,(45,178.124512779755,0));
#177=VERTEX_POINT($,#176);
#178=CARTESIAN_POINT($,(48.147875838897,178.124512779755,0));
#179=DIRECTION($,(-1,0,0));
#180=VECTOR($,#179,1);
#181=LINE($,#178,#180);
#182=EDGE_CURVE($,#169,#177,#181,.T.);
#183=ORIENTED_EDGE($,$,$,#182,.T.);
#184=CARTESIAN_POINT($,(10,178.124512779755,-0));
#185=VERTEX_POINT($,#184);
#186=CARTESIAN_POINT($,(45,178.124512779755,0));
#187=DIRECTION($,(-1,0,0));
#188=VECTOR($,#187,1);
#189=LINE($,#186,#188);
#190=EDGE_CURVE($,#177,#185,#189,.T.);
#191=ORIENTED_EDGE($,$,$,#190,.T.);
#192=CARTESIAN_POINT($,(10,63.5245127797555,-0));
#193=VERTEX_POINT($,#192);
#194=CARTESIAN_POINT($,(10,178.124512779755,-0));
#195=DIRECTION($,(0,-1,0));
#196=VECTOR($,#195,1);
#197=LINE($,#194,#196);
#198=EDGE_CURVE($,#185,#193,#197,.T.);
#199=ORIENTED_EDGE($,$,$,#198,.T.);
#200=CARTESIAN_POINT($,(45,63.5245127797555,0));
#201=VERTEX_POINT($,#200);
#202=CARTESIAN_POINT($,(10,63.5245127797555,-0));
#203=DIRECTION($,(1,0,0));
#204=VECTOR($,#203,1);
#205=LINE($,#202,#204);
#206=EDGE_CURVE($,#193,#201,#205,.T.);
#207=ORIENTED_EDGE($,$,$,#206,.T.);
#208=CARTESIAN_POINT($,(48.147875838897,63.5245127797555,0));
#209=VERTEX_POINT($,#208);
#210=CARTESIAN_POINT($,(45,63.5245127797555,0));
#211=DIRECTION($,(1,0,0));
#212=VECTOR($,#211,1);
#213=LINE($,#210,#212);
#214=EDGE_CURVE($,#201,#209,#213,.T.);
#215=ORIENTED_EDGE($,$,$,#214,.T.);
#216=CARTESIAN_POINT($,(48.147875838897,60.8245127797555,-0));
#217=VERTEX_POINT($,#216);
#218=CARTESIAN_POINT($,(48.147875838897,63.5245127797555,0));
#219=DIRECTION($,(0,-1,0));
#220=VECTOR($,#219,1);
#221=LINE($,#218,#220);
#222=EDGE_CURVE($,#209,#217,#221,.T.);
#223=ORIENTED_EDGE($,$,$,#222,.T.);
#224=CARTESIAN_POINT($,(50.847875838897,60.8245127797555,0));
#225=VERTEX_POINT($,#224);
#226=CARTESIAN_POINT($,(48.147875838897,60.8245127797555,-0));
#227=DIRECTION($,(1,0,0));
#228=VECTOR($,#227,1);
#229=LINE($,#226,#228);
#230=EDGE_CURVE($,#217,#225,#229,.T.);
#231=ORIENTED_EDGE($,$,$,#230,.T.);
#232=CARTESIAN_POINT($,(50.847875838897,57.6766369408585,0));
#233=VERTEX_POINT($,#232);
#234=CARTESIAN_POINT($,(50.847875838897,60.8245127797555,0));
#235=DIRECTION($,(0,-1,0));
#236=VECTOR($,#235,1);
#237=LINE($,#234,#236);
#238=EDGE_CURVE($,#225,#233,#237,.T.);
#239=ORIENTED_EDGE($,$,$,#238,.T.);
#240=CARTESIAN_POINT($,(50.847875838897,22.6766369408585,0));
#241=VERTEX_POINT($,#240);
#242=CARTESIAN_POINT($,(50.847875838897,57.6766369408585,0));
#243=DIRECTION($,(0,-1,0));
#244=VECTOR($,#243,1);
#245=LINE($,#242,#244);
#246=EDGE_CURVE($,#233,#241,#245,.T.);
#247=ORIENTED_EDGE($,$,$,#246,.T.);
#248=CARTESIAN_POINT($,(50.847875838897,20,0));
#249=VERTEX_POINT($,#248);
#250=CARTESIAN_POINT($,(50.847875838897,22.6766369408585,0));
#251=DIRECTION($,(0,-1,0));
#252=VECTOR($,#251,1);
#253=LINE($,#250,#252);
#254=EDGE_CURVE($,#241,#249,#253,.T.);
#255=ORIENTED_EDGE($,$,$,#254,.T.);
#256=CARTESIAN_POINT($,(50.847875838897,20,0));
#257=DIRECTION($,(0,-1,0));
#258=VECTOR($,#257,1);
#259=LINE($,#256,#258);
#260=EDGE_CURVE($,#249,#7,#259,.T.);
#261=ORIENTED_EDGE($,$,$,#260,.T.);
#262=EDGE_LOOP($,(#15,#23,#31,#39,#47,#55,#63,#71,#79,#87,#95,#103,#111,#119,#127,#135,#143,#151,#159,#167,#175,#183,#191,#199,#207,#215,#223,#231,#239,#247,#255,#261));
#263=FACE_OUTER_BOUND('',#262,.T.);
#264=CARTESIAN_POINT($,(61.147875838897,75.8245127797555,0));
#265=VERTEX_POINT($,#264);
#266=CARTESIAN_POINT($,(65.147875838897,75.8245127797555,0));
#267=VERTEX_POINT($,#266);
#268=CARTESIAN_POINT($,(63.147875838897,75.8245127797555,0));
#269=DIRECTION($,(0,0,1));
#270=DIRECTION($,(1,0,0));
#271=AXIS2_PLACEMENT_3D($,#268,#269,#270);
#272=CIRCLE($,#271,2);
#273=TRIMMED_CURVE($,#272,(PARAMETER_VALUE(3.14159265358979)),(PARAMETER_VALUE(6.28318530717959)),.T.,.PARAMETER.);
#274=EDGE_CURVE($,#265,#267,#273,.T.);
#275=ORIENTED_EDGE($,$,$,#274,.T.);
#276=ORIENTED_EDGE($,$,$,#274,.F.);
#277=EDGE_LOOP($,(#275,#276));
#278=FACE_BOUND('',#277,.T.);
#279=CARTESIAN_POINT($,(211.147875838897,75.8245127797555,0));
#280=VERTEX_POINT($,#279);
#281=CARTESIAN_POINT($,(215.147875838897,75.8245127797555,0));
#282=VERTEX_POINT($,#281);
#283=CARTESIAN_POINT($,(213.147875838897,75.8245127797555,0));
#284=DIRECTION($,(0,0,1));
#285=DIRECTION($,(1,0,0));
#286=AXIS2_PLACEMENT_3D($,#283,#284,#285);
#287=CIRCLE($,#286,2);
#288=TRIMMED_CURVE($,#287,(PARAMETER_VALUE(3.14159265358979)),(PARAMETER_VALUE(6.28318530717959)),.T.,.PARAMETER.);
#289=EDGE_CURVE($,#280,#282,#288,.T.);
#290=ORIENTED_EDGE($,$,$,#289,.T.);
#291=ORIENTED_EDGE($,$,$,#289,.F.);
#292=EDGE_LOOP($,(#290,#291));
#293=FACE_BOUND('',#292,.T.);
#294=CARTESIAN_POINT($,(61.147875838897,165.824512779755,0));
#295=VERTEX_POINT($,#294);
#296=CARTESIAN_POINT($,(65.147875838897,165.824512779755,0));
#297=VERTEX_POINT($,#296);
#298=CARTESIAN_POINT($,(63.147875838897,165.824512779755,0));
#299=DIRECTION($,(0,0,1));
#300=DIRECTION($,(1,0,0));
#301=AXIS2_PLACEMENT_3D($,#298,#299,#300);
#302=CIRCLE($,#301,2);
#303=TRIMMED_CURVE($,#302,(PARAMETER_VALUE(3.14159265358979)),(PARAMETER_VALUE(6.28318530717959)),.T.,.PARAMETER.);
#304=EDGE_CURVE($,#295,#297,#303,.T.);
#305=ORIENTED_EDGE($,$,$,#304,.T.);
#306=ORIENTED_EDGE($,$,$,#304,.F.);
#307=EDGE_LOOP($,(#305,#306));
#308=FACE_BOUND('',#307,.T.);
#309=CARTESIAN_POINT($,(211.147875838897,165.824512779755,0));
#310=VERTEX_POINT($,#309);
#311=CARTESIAN_POINT($,(215.147875838897,165.824512779755,0));
#312=VERTEX_POINT($,#311);
#313=CARTESIAN_POINT($,(213.147875838897,165.824512779755,0));
#314=DIRECTION($,(0,0,1));
#315=DIRECTION($,(1,0,0));
#316=AXIS2_PLACEMENT_3D($,#313,#314,#315);
#317=CIRCLE($,#316,2);
#318=TRIMMED_CURVE($,#317,(PARAMETER_VALUE(3.14159265358979)),(PARAMETER_VALUE(6.28318530717959)),.T.,.PARAMETER.);
#319=EDGE_CURVE($,#310,#312,#318,.T.);
#320=ORIENTED_EDGE($,$,$,#319,.T.);
#321=ORIENTED_EDGE($,$,$,#319,.F.);
#322=EDGE_LOOP($,(#320,#321));
#323=FACE_BOUND('',#322,.T.);
#324=CARTESIAN_POINT($,(132.647875838897,117.824512779755,0));
#325=VERTEX_POINT($,#324);
#326=CARTESIAN_POINT($,(143.647875838897,117.824512779755,0));
#327=VERTEX_POINT($,#326);
#328=CARTESIAN_POINT($,(132.647875838897,117.824512779755,0));
#329=DIRECTION($,(1,0,0));
#330=VECTOR($,#329,1);
#331=LINE($,#328,#330);
#332=EDGE_CURVE($,#325,#327,#331,.T.);
#333=ORIENTED_EDGE($,$,$,#332,.F.);
#334=CARTESIAN_POINT($,(115.647875838897,117.824512779755,0));
#335=VERTEX_POINT($,#334);
#336=CARTESIAN_POINT($,(115.647875838897,117.824512779755,0));
#337=DIRECTION($,(1,0,0));
#338=VECTOR($,#337,1);
#339=LINE($,#336,#338);
#340=EDGE_CURVE($,#335,#325,#339,.T.);
#341=ORIENTED_EDGE($,$,$,#340,.F.);
#342=CARTESIAN_POINT($,(87.647875838897,117.824512779755,-0));
#343=VERTEX_POINT($,#342);
#344=CARTESIAN_POINT($,(87.647875838897,117.824512779755,-0));
#345=DIRECTION($,(1,0,0));
#346=VECTOR($,#345,1);
#347=LINE($,#344,#346);
#348=EDGE_CURVE($,#343,#335,#347,.T.);
#349=ORIENTED_EDGE($,$,$,#348,.F.);
#350=CARTESIAN_POINT($,(87.647875838897,123.824512779755,-0));
#351=VERTEX_POINT($,#350);
#352=CARTESIAN_POINT($,(87.647875838897,123.824512779755,-0));
#353=DIRECTION($,(0,-1,0));
#354=VECTOR($,#353,1);
#355=LINE($,#352,#354);
#356=EDGE_CURVE($,#351,#343,#355,.T.);
#357=ORIENTED_EDGE($,$,$,#356,.F.);
#358=CARTESIAN_POINT($,(115.647875838897,123.824512779755,0));
#359=VERTEX_POINT($,#358);
#360=CARTESIAN_POINT($,(115.647875838897,123.824512779755,0));
#361=DIRECTION($,(-1,0,0));
#362=VECTOR($,#361,1);
#363=LINE($,#360,#362);
#364=EDGE_CURVE($,#359,#351,#363,.T.);
#365=ORIENTED_EDGE($,$,$,#364,.F.);
#366=CARTESIAN_POINT($,(132.647875838897,123.824512779755,0));
#367=VERTEX_POINT($,#366);
#368=CARTESIAN_POINT($,(132.647875838897,123.824512779755,0));
#369=DIRECTION($,(-1,0,0));
#370=VECTOR($,#369,1);
#371=LINE($,#368,#370);
#372=EDGE_CURVE($,#367,#359,#371,.T.);
#373=ORIENTED_EDGE($,$,$,#372,.F.);
#374=CARTESIAN_POINT($,(143.647875838897,123.824512779755,0));
#375=VERTEX_POINT($,#374);
#376=CARTESIAN_POINT($,(143.647875838897,123.824512779755,0));
#377=DIRECTION($,(-1,0,0));
#378=VECTOR($,#377,1);
#379=LINE($,#376,#378);
#380=EDGE_CURVE($,#375,#367,#379,.T.);
#381=ORIENTED_EDGE($,$,$,#380,.F.);
#382=CARTESIAN_POINT($,(160.647875838897,123.824512779755,0));
#383=VERTEX_POINT($,#382);
#384=CARTESIAN_POINT($,(160.647875838897,123.824512779755,0));
#385=DIRECTION($,(-1,0,0));
#386=VECTOR($,#385,1);
#387=LINE($,#384,#386);
#388=EDGE_CURVE($,#383,#375,#387,.T.);
#389=ORIENTED_EDGE($,$,$,#388,.F.);
#390=CARTESIAN_POINT($,(188.647875838897,123.824512779755,-0));
#391=VERTEX_POINT($,#390);
#392=CARTESIAN_POINT($,(188.647875838897,123.824512779755,-0));
#393=DIRECTION($,(-1,0,0));
#394=VECTOR($,#393,1);
#395=LINE($,#392,#394);
#396=EDGE_CURVE($,#391,#383,#395,.T.);
#397=ORIENTED_EDGE($,$,$,#396,.F.);
#398=CARTESIAN_POINT($,(188.647875838897,117.824512779755,-0));
#399=VERTEX_POINT($,#398);
#400=CARTESIAN_POINT($,(188.647875838897,117.824512779755,-0));
#401=DIRECTION($,(0,1,0));
#402=VECTOR($,#401,1);
#403=LINE($,#400,#402);
#404=EDGE_CURVE($,#399,#391,#403,.T.);
#405=ORIENTED_EDGE($,$,$,#404,.F.);
#406=CARTESIAN_POINT($,(160.647875838897,117.824512779755,0));
#407=VERTEX_POINT($,#406);
#408=CARTESIAN_POINT($,(160.647875838897,117.824512779755,0));
#409=DIRECTION($,(1,0,0));
#410=VECTOR($,#409,1);
#411=LINE($,#408,#410);
#412=EDGE_CURVE($,#407,#399,#411,.T.);
#413=ORIENTED_EDGE($,$,$,#412,.F.);
#414=CARTESIAN_POINT($,(143.647875838897,117.824512779755,0));
#415=DIRECTION($,(1,0,0));
#416=VECTOR($,#415,1);
#417=LINE($,#414,#416);
#418=EDGE_CURVE($,#327,#407,#417,.T.);
#419=ORIENTED_EDGE($,$,$,#418,.F.);
#420=EDGE_LOOP($,(#333,#341,#349,#357,#365,#373,#381,#389,#397,#405,#413,#419));
#421=FACE_BOUND('',#420,.T.);
#422=ADVANCED_FACE('',(#263,#278,#293,#308,#323,#421),#5,.T.);
#423=CARTESIAN_POINT($,(0,0,1.2));
#424=DIRECTION($,(0,0,1));
#425=DIRECTION($,(1,0,0));
#426=AXIS2_PLACEMENT_3D($,#423,#424,#425);
#427=PLANE($,#426);
#428=CARTESIAN_POINT($,(50.847875838897,10,1.2));
#429=VERTEX_POINT($,#428);
#430=CARTESIAN_POINT($,(226.047875838897,10,1.2));
#431=VERTEX_POINT($,#430);
#432=CARTESIAN_POINT($,(50.847875838897,10,1.2));
#433=DIRECTION($,(1,0,0));
#434=VECTOR($,#433,1);
#435=LINE($,#432,#434);
#436=EDGE_CURVE($,#429,#431,#435,.T.);
#437=ORIENTED_EDGE($,$,$,#436,.T.);
#438=CARTESIAN_POINT($,(226.047875838897,20,1.2));
#439=VERTEX_POINT($,#438);
#440=CARTESIAN_POINT($,(226.047875838897,10,1.2));
#441=DIRECTION($,(0,1,0));
#442=VECTOR($,#441,1);
#443=LINE($,#440,#442);
#444=EDGE_CURVE($,#431,#439,#443,.T.);
#445=ORIENTED_EDGE($,$,$,#444,.T.);
#446=CARTESIAN_POINT($,(226.047875838897,22.6766369408585,1.2));
#447=VERTEX_POINT($,#446);
#448=CARTESIAN_POINT($,(226.047875838897,20,1.2));
#449=DIRECTION($,(0,1,0));
#450=VECTOR($,#449,1);
#451=LINE($,#448,#450);
#452=EDGE_CURVE($,#439,#447,#451,.T.);
#453=ORIENTED_EDGE($,$,$,#452,.T.);
#454=CARTESIAN_POINT($,(226.047875838897,57.6766369408585,1.2));
#455=VERTEX_POINT($,#454);
#456=CARTESIAN_POINT($,(226.047875838897,22.6766369408585,1.2));
#457=DIRECTION($,(0,1,0));
#458=VECTOR($,#457,1);
#459=LINE($,#456,#458);
#460=EDGE_CURVE($,#447,#455,#459,.T.);
#461=ORIENTED_EDGE($,$,$,#460,.T.);
#462=CARTESIAN_POINT($,(226.047875838897,60.8245127797555,1.2));
#463=VERTEX_POINT($,#462);
#464=CARTESIAN_POINT($,(226.047875838897,57.6766369408585,1.2));
#465=DIRECTION($,(0,1,0));
#466=VECTOR($,#465,1);
#467=LINE($,#464,#466);
#468=EDGE_CURVE($,#455,#463,#467,.T.);
#469=ORIENTED_EDGE($,$,$,#468,.T.);
#470=CARTESIAN_POINT($,(228.147875838897,60.8245127797555,1.2));
#471=VERTEX_POINT($,#470);
#472=CARTESIAN_POINT($,(226.047875838897,60.8245127797555,1.2));
#473=DIRECTION($,(1,0,0));
#474=VECTOR($,#473,1);
#475=LINE($,#472,#474);
#476=EDGE_CURVE($,#463,#471,#475,.T.);
#477=ORIENTED_EDGE($,$,$,#476,.T.);
#478=CARTESIAN_POINT($,(228.147875838897,62.9245127797555,1.2));
#479=VERTEX_POINT($,#478);
#480=CARTESIAN_POINT($,(228.147875838897,60.8245127797555,1.2));
#481=DIRECTION($,(0,1,0));
#482=VECTOR($,#481,1);
#483=LINE($,#480,#482);
#484=EDGE_CURVE($,#471,#479,#483,.T.);
#485=ORIENTED_EDGE($,$,$,#484,.T.);
#486=CARTESIAN_POINT($,(231.295751677794,62.9245127797555,1.2));
#487=VERTEX_POINT($,#486);
#488=CARTESIAN_POINT($,(228.147875838897,62.9245127797555,1.2));
#489=DIRECTION($,(1,0,0));
#490=VECTOR($,#489,1);
#491=LINE($,#488,#490);
#492=EDGE_CURVE($,#479,#487,#491,.T.);
#493=ORIENTED_EDGE($,$,$,#492,.T.);
#494=CARTESIAN_POINT($,(266.295751677794,62.9245127797555,1.2));
#495=VERTEX_POINT($,#494);
#496=CARTESIAN_POINT($,(231.295751677794,62.9245127797555,1.2));
#497=DIRECTION($,(1,0,0));
#498=VECTOR($,#497,1);
#499=LINE($,#496,#498);
#500=EDGE_CURVE($,#487,#495,#499,.T.);
#501=ORIENTED_EDGE($,$,$,#500,.T.);
#502=CARTESIAN_POINT($,(266.295751677794,178.124512779755,1.2));
#503=VERTEX_POINT($,#502);
#504=CARTESIAN_POINT($,(266.295751677794,62.9245127797555,1.2));
#505=DIRECTION($,(0,1,0));
#506=VECTOR($,#505,1);
#507=LINE($,#504,#506);
#508=EDGE_CURVE($,#495,#503,#507,.T.);
#509=ORIENTED_EDGE($,$,$,#508,.T.);
#510=CARTESIAN_POINT($,(231.295751677794,178.124512779755,1.2));
#511=VERTEX_POINT($,#510);
#512=CARTESIAN_POINT($,(266.295751677794,178.124512779755,1.2));
#513=DIRECTION($,(-1,0,0));
#514=VECTOR($,#513,1);
#515=LINE($,#512,#514);
#516=EDGE_CURVE($,#503,#511,#515,.T.);
#517=ORIENTED_EDGE($,$,$,#516,.T.);
#518=CARTESIAN_POINT($,(228.147875838897,178.124512779755,1.2));
#519=VERTEX_POINT($,#518);
#520=CARTESIAN_POINT($,(231.295751677794,178.124512779755,1.2));
#521=DIRECTION($,(-1,0,0));
#522=VECTOR($,#521,1);
#523=LINE($,#520,#522);
#524=EDGE_CURVE($,#511,#519,#523,.T.);
#525=ORIENTED_EDGE($,$,$,#524,.T.);
#526=CARTESIAN_POINT($,(228.147875838897,180.824512779755,1.2));
#527=VERTEX_POINT($,#526);
#528=CARTESIAN_POINT($,(228.147875838897,178.124512779755,1.2));
#529=DIRECTION($,(0,1,0));
#530=VECTOR($,#529,1);
#531=LINE($,#528,#530);
#532=EDGE_CURVE($,#519,#527,#531,.T.);
#533=ORIENTED_EDGE($,$,$,#532,.T.);
#534=CARTESIAN_POINT($,(225.447875838897,180.824512779755,1.2));
#535=VERTEX_POINT($,#534);
#536=CARTESIAN_POINT($,(228.147875838897,180.824512779755,1.2));
#537=DIRECTION($,(-1,0,0));
#538=VECTOR($,#537,1);
#539=LINE($,#536,#538);
#540=EDGE_CURVE($,#527,#535,#539,.T.);
#541=ORIENTED_EDGE($,$,$,#540,.T.);
#542=CARTESIAN_POINT($,(225.447875838897,183.972388618652,1.2));
#543=VERTEX_POINT($,#542);
#544=CARTESIAN_POINT($,(225.447875838897,180.824512779755,1.2));
#545=DIRECTION($,(0,1,0));
#546=VECTOR($,#545,1);
#547=LINE($,#544,#546);
#548=EDGE_CURVE($,#535,#543,#547,.T.);
#549=ORIENTED_EDGE($,$,$,#548,.T.);
#550=CARTESIAN_POINT($,(225.447875838897,218.972388618652,1.2));
#551=VERTEX_POINT($,#550);
#552=CARTESIAN_POINT($,(225.447875838897,183.972388618652,1.2));
#553=DIRECTION($,(0,1,0));
#554=VECTOR($,#553,1);
#555=LINE($,#552,#554);
#556=EDGE_CURVE($,#543,#551,#555,.T.);
#557=ORIENTED_EDGE($,$,$,#556,.T.);
#558=CARTESIAN_POINT($,(50.847875838897,218.972388618652,1.2));
#559=VERTEX_POINT($,#558);
#560=CARTESIAN_POINT($,(225.447875838897,218.972388618652,1.2));
#561=DIRECTION($,(-1,0,0));
#562=VECTOR($,#561,1);
#563=LINE($,#560,#562);
#564=EDGE_CURVE($,#551,#559,#563,.T.);
#565=ORIENTED_EDGE($,$,$,#564,.T.);
#566=CARTESIAN_POINT($,(50.847875838897,183.972388618652,1.2));
#567=VERTEX_POINT($,#566);
#568=CARTESIAN_POINT($,(50.847875838897,218.972388618652,1.2));
#569=DIRECTION($,(0,-1,0));
#570=VECTOR($,#569,1);
#571=LINE($,#568,#570);
#572=EDGE_CURVE($,#559,#567,#571,.T.);
#573=ORIENTED_EDGE($,$,$,#572,.T.);
#574=CARTESIAN_POINT($,(50.847875838897,180.824512779755,1.2));
#575=VERTEX_POINT($,#574);
#576=CARTESIAN_POINT($,(50.847875838897,183.972388618652,1.2));
#577=DIRECTION($,(0,-1,0));
#578=VECTOR($,#577,1);
#579=LINE($,#576,#578);
#580=EDGE_CURVE($,#567,#575,#579,.T.);
#581=ORIENTED_EDGE($,$,$,#580,.T.);
#582=CARTESIAN_POINT($,(48.147875838897,180.824512779755,1.2));
#583=VERTEX_POINT($,#582);
#584=CARTESIAN_POINT($,(50.847875838897,180.824512779755,1.2));
#585=DIRECTION($,(-1,0,0));
#586=VECTOR($,#585,1);
#587=LINE($,#584,#586);
#588=EDGE_CURVE($,#575,#583,#587,.T.);
#589=ORIENTED_EDGE($,$,$,#588,.T.);
#590=CARTESIAN_POINT($,(48.147875838897,178.124512779755,1.2));
#591=VERTEX_POINT($,#590);
#592=CARTESIAN_POINT($,(48.147875838897,180.824512779755,1.2));
#593=DIRECTION($,(0,-1,0));
#594=VECTOR($,#593,1);
#595=LINE($,#592,#594);
#596=EDGE_CURVE($,#583,#591,#595,.T.);
#597=ORIENTED_EDGE($,$,$,#596,.T.);
#598=CARTESIAN_POINT($,(45,178.124512779755,1.2));
#599=VERTEX_POINT($,#598);
#600=CARTESIAN_POINT($,(48.147875838897,178.124512779755,1.2));
#601=DIRECTION($,(-1,0,0));
#602=VECTOR($,#601,1);
#603=LINE($,#600,#602);
#604=EDGE_CURVE($,#591,#599,#603,.T.);
#605=ORIENTED_EDGE($,$,$,#604,.T.);
#606=CARTESIAN_POINT($,(10,178.124512779755,1.2));
#607=VERTEX_POINT($,#606);
#608=CARTESIAN_POINT($,(45,178.124512779755,1.2));
#609=DIRECTION($,(-1,0,0));
#610=VECTOR($,#609,1);
#611=LINE($,#608,#610);
#612=EDGE_CURVE($,#599,#607,#611,.T.);
#613=ORIENTED_EDGE($,$,$,#612,.T.);
#614=CARTESIAN_POINT($,(10,63.5245127797555,1.2));
#615=VERTEX_POINT($,#614);
#616=CARTESIAN_POINT($,(10,178.124512779755,1.2));
#617=DIRECTION($,(0,-1,0));
#618=VECTOR($,#617,1);
#619=LINE($,#616,#618);
#620=EDGE_CURVE($,#607,#615,#619,.T.);
#621=ORIENTED_EDGE($,$,$,#620,.T.);
#622=CARTESIAN_POINT($,(45,63.5245127797555,1.2));
#623=VERTEX_POINT($,#622);
#624=CARTESIAN_POINT($,(10,63.5245127797555,1.2));
#625=DIRECTION($,(1,0,0));
#626=VECTOR($,#625,1);
#627=LINE($,#624,#626);
#628=EDGE_CURVE($,#615,#623,#627,.T.);
#629=ORIENTED_EDGE($,$,$,#628,.T.);
#630=CARTESIAN_POINT($,(48.147875838897,63.5245127797555,1.2));
#631=VERTEX_POINT($,#630);
#632=CARTESIAN_POINT($,(45,63.5245127797555,1.2));
#633=DIRECTION($,(1,0,0));
#634=VECTOR($,#633,1);
#635=LINE($,#632,#634);
#636=EDGE_CURVE($,#623,#631,#635,.T.);
#637=ORIENTED_EDGE($,$,$,#636,.T.);
#638=CARTESIAN_POINT($,(48.147875838897,60.8245127797555,1.2));
#639=VERTEX_POINT($,#638);
#640=CARTESIAN_POINT($,(48.147875838897,63.5245127797555,1.2));
#641=DIRECTION($,(0,-1,0));
#642=VECTOR($,#641,1);
#643=LINE($,#640,#642);
#644=EDGE_CURVE($,#631,#639,#643,.T.);
#645=ORIENTED_EDGE($,$,$,#644,.T.);
#646=CARTESIAN_POINT($,(50.847875838897,60.8245127797555,1.2));
#647=VERTEX_POINT($,#646);
#648=CARTESIAN_POINT($,(48.147875838897,60.8245127797555,1.2));
#649=DIRECTION($,(1,0,0));
#650=VECTOR($,#649,1);
#651=LINE($,#648,#650);
#652=EDGE_CURVE($,#639,#647,#651,.T.);
#653=ORIENTED_EDGE($,$,$,#652,.T.);
#654=CARTESIAN_POINT($,(50.847875838897,57.6766369408585,1.2));
#655=VERTEX_POINT($,#654);
#656=CARTESIAN_POINT($,(50.847875838897,60.8245127797555,1.2));
#657=DIRECTION($,(0,-1,0));
#658=VECTOR($,#657,1);
#659=LINE($,#656,#658);
#660=EDGE_CURVE($,#647,#655,#659,.T.);
#661=ORIENTED_EDGE($,$,$,#660,.T.);
#662=CARTESIAN_POINT($,(50.847875838897,22.6766369408585,1.2));
#663=VERTEX_POINT($,#662);
#664=CARTESIAN_POINT($,(50.847875838897,57.6766369408585,1.2));
#665=DIRECTION($,(0,-1,0));
#666=VECTOR($,#665,1);
#667=LINE($,#664,#666);
#668=EDGE_CURVE($,#655,#663,#667,.T.);
#669=ORIENTED_EDGE($,$,$,#668,.T.);
#670=CARTESIAN_POINT($,(50.847875838897,20,1.2));
#671=VERTEX_POINT($,#670);
#672=CARTESIAN_POINT($,(50.847875838897,22.6766369408585,1.2));
#673=DIRECTION($,(0,-1,0));
#674=VECTOR($,#673,1);
#675=LINE($,#672,#674);
#676=EDGE_CURVE($,#663,#671,#675,.T.);
#677=ORIENTED_EDGE($,$,$,#676,.T.);
#678=CARTESIAN_POINT($,(50.847875838897,20,1.2));
#679=DIRECTION($,(0,-1,0));
#680=VECTOR($,#679,1);
#681=LINE($,#678,#680);
#682=EDGE_CURVE($,#671,#429,#681,.T.);
#683=ORIENTED_EDGE($,$,$,#682,.T.);
#684=EDGE_LOOP($,(#437,#445,#453,#461,#469,#477,#485,#493,#501,#509,#517,#525,#533,#541,#549,#557,#565,#573,#581,#589,#597,#605,#613,#621,#629,#637,#645,#653,#661,#669,#677,#683));
#685=FACE_OUTER_BOUND('',#684,.T.);
#686=CARTESIAN_POINT($,(61.147875838897,75.8245127797555,1.2));
#687=VERTEX_POINT($,#686);
#688=CARTESIAN_POINT($,(65.147875838897,75.8245127797555,1.2));
#689=VERTEX_POINT($,#688);
#690=CARTESIAN_POINT($,(63.147875838897,75.8245127797555,1.2));
#691=DIRECTION($,(0,0,1));
#692=DIRECTION($,(1,0,0));
#693=AXIS2_PLACEMENT_3D($,#690,#691,#692);
#694=CIRCLE($,#693,2);
#695=TRIMMED_CURVE($,#694,(PARAMETER_VALUE(3.14159265358979)),(PARAMETER_VALUE(6.28318530717959)),.T.,.PARAMETER.);
#696=EDGE_CURVE($,#687,#689,#695,.T.);
#697=ORIENTED_EDGE($,$,$,#696,.T.);
#698=ORIENTED_EDGE($,$,$,#696,.F.);
#699=EDGE_LOOP($,(#697,#698));
#700=FACE_BOUND('',#699,.T.);
#701=CARTESIAN_POINT($,(211.147875838897,75.8245127797555,1.2));
#702=VERTEX_POINT($,#701);
#703=CARTESIAN_POINT($,(215.147875838897,75.8245127797555,1.2));
#704=VERTEX_POINT($,#703);
#705=CARTESIAN_POINT($,(213.147875838897,75.8245127797555,1.2));
#706=DIRECTION($,(0,0,1));
#707=DIRECTION($,(1,0,0));
#708=AXIS2_PLACEMENT_3D($,#705,#706,#707);
#709=CIRCLE($,#708,2);
#710=TRIMMED_CURVE($,#709,(PARAMETER_VALUE(3.14159265358979)),(PARAMETER_VALUE(6.28318530717959)),.T.,.PARAMETER.);
#711=EDGE_CURVE($,#702,#704,#710,.T.);
#712=ORIENTED_EDGE($,$,$,#711,.T.);
#713=ORIENTED_EDGE($,$,$,#711,.F.);
#714=EDGE_LOOP($,(#712,#713));
#715=FACE_BOUND('',#714,.T.);
#716=CARTESIAN_POINT($,(61.147875838897,165.824512779755,1.2));
#717=VERTEX_POINT($,#716);
#718=CARTESIAN_POINT($,(65.147875838897,165.824512779755,1.2));
#719=VERTEX_POINT($,#718);
#720=CARTESIAN_POINT($,(63.147875838897,165.824512779755,1.2));
#721=DIRECTION($,(0,0,1));
#722=DIRECTION($,(1,0,0));
#723=AXIS2_PLACEMENT_3D($,#720,#721,#722);
#724=CIRCLE($,#723,2);
#725=TRIMMED_CURVE($,#724,(PARAMETER_VALUE(3.14159265358979)),(PARAMETER_VALUE(6.28318530717959)),.T.,.PARAMETER.);
#726=EDGE_CURVE($,#717,#719,#725,.T.);
#727=ORIENTED_EDGE($,$,$,#726,.T.);
#728=ORIENTED_EDGE($,$,$,#726,.F.);
#729=EDGE_LOOP($,(#727,#728));
#730=FACE_BOUND('',#729,.T.);
#731=CARTESIAN_POINT($,(211.147875838897,165.824512779755,1.2));
#732=VERTEX_POINT($,#731);
#733=CARTESIAN_POINT($,(215.147875838897,165.824512779755,1.2));
#734=VERTEX_POINT($,#733);
#735=CARTESIAN_POINT($,(213.147875838897,165.824512779755,1.2));
#736=DIRECTION($,(0,0,1));
#737=DIRECTION($,(1,0,0));
#738=AXIS2_PLACEMENT_3D($,#735,#736,#737);
#739=CIRCLE($,#738,2);
#740=TRIMMED_CURVE($,#739,(PARAMETER_VALUE(3.14159265358979)),(PARAMETER_VALUE(6.28318530717959)),.T.,.PARAMETER.);
#741=EDGE_CURVE($,#732,#734,#740,.T.);
#742=ORIENTED_EDGE($,$,$,#741,.T.);
#743=ORIENTED_EDGE($,$,$,#741,.F.);
#744=EDGE_LOOP($,(#742,#743));
#745=FACE_BOUND('',#744,.T.);
#746=CARTESIAN_POINT($,(132.647875838897,117.824512779755,1.2));
#747=VERTEX_POINT($,#746);
#748=CARTESIAN_POINT($,(143.647875838897,117.824512779755,1.2));
#749=VERTEX_POINT($,#748);
#750=CARTESIAN_POINT($,(132.647875838897,117.824512779755,1.2));
#751=DIRECTION($,(1,0,0));
#752=VECTOR($,#751,1);
#753=LINE($,#750,#752);
#754=EDGE_CURVE($,#747,#749,#753,.T.);
#755=ORIENTED_EDGE($,$,$,#754,.F.);
#756=CARTESIAN_POINT($,(115.647875838897,117.824512779755,1.2));
#757=VERTEX_POINT($,#756);
#758=CARTESIAN_POINT($,(115.647875838897,117.824512779755,1.2));
#759=DIRECTION($,(1,0,0));
#760=VECTOR($,#759,1);
#761=LINE($,#758,#760);
#762=EDGE_CURVE($,#757,#747,#761,.T.);
#763=ORIENTED_EDGE($,$,$,#762,.F.);
#764=CARTESIAN_POINT($,(87.647875838897,117.824512779755,1.2));
#765=VERTEX_POINT($,#764);
#766=CARTESIAN_POINT($,(87.647875838897,117.824512779755,1.2));
#767=DIRECTION($,(1,0,0));
#768=VECTOR($,#767,1);
#769=LINE($,#766,#768);
#770=EDGE_CURVE($,#765,#757,#769,.T.);
#771=ORIENTED_EDGE($,$,$,#770,.F.);
#772=CARTESIAN_POINT($,(87.647875838897,123.824512779755,1.2));
#773=VERTEX_POINT($,#772);
#774=CARTESIAN_POINT($,(87.647875838897,123.824512779755,1.2));
#775=DIRECTION($,(0,-1,0));
#776=VECTOR($,#775,1);
#777=LINE($,#774,#776);
#778=EDGE_CURVE($,#773,#765,#777,.T.);
#779=ORIENTED_EDGE($,$,$,#778,.F.);
#780=CARTESIAN_POINT($,(115.647875838897,123.824512779755,1.2));
#781=VERTEX_POINT($,#780);
#782=CARTESIAN_POINT($,(115.647875838897,123.824512779755,1.2));
#783=DIRECTION($,(-1,0,0));
#784=VECTOR($,#783,1);
#785=LINE($,#782,#784);
#786=EDGE_CURVE($,#781,#773,#785,.T.);
#787=ORIENTED_EDGE($,$,$,#786,.F.);
#788=CARTESIAN_POINT($,(132.647875838897,123.824512779755,1.2));
#789=VERTEX_POINT($,#788);
#790=CARTESIAN_POINT($,(132.647875838897,123.824512779755,1.2));
#791=DIRECTION($,(-1,0,0));
#792=VECTOR($,#791,1);
#793=LINE($,#790,#792);
#794=EDGE_CURVE($,#789,#781,#793,.T.);
#795=ORIENTED_EDGE($,$,$,#794,.F.);
#796=CARTESIAN_POINT($,(143.647875838897,123.824512779755,1.2));
#797=VERTEX_POINT($,#796);
#798=CARTESIAN_POINT($,(143.647875838897,123.824512779755,1.2));
#799=DIRECTION($,(-1,0,0));
#800=VECTOR($,#799,1);
#801=LINE($,#798,#800);
#802=EDGE_CURVE($,#797,#789,#801,.T.);
#803=ORIENTED_EDGE($,$,$,#802,.F.);
#804=CARTESIAN_POINT($,(160.647875838897,123.824512779755,1.2));
#805=VERTEX_POINT($,#804);
#806=CARTESIAN_POINT($,(160.647875838897,123.824512779755,1.2));
#807=DIRECTION($,(-1,0,0));
#808=VECTOR($,#807,1);
#809=LINE($,#806,#808);
#810=EDGE_CURVE($,#805,#797,#809,.T.);
#811=ORIENTED_EDGE($,$,$,#810,.F.);
#812=CARTESIAN_POINT($,(188.647875838897,123.824512779755,1.2));
#813=VERTEX_POINT($,#812);
#814=CARTESIAN_POINT($,(188.647875838897,123.824512779755,1.2));
#815=DIRECTION($,(-1,0,0));
#816=VECTOR($,#815,1);
#817=LINE($,#814,#816);
#818=EDGE_CURVE($,#813,#805,#817,.T.);
#819=ORIENTED_EDGE($,$,$,#818,.F.);
#820=CARTESIAN_POINT($,(188.647875838897,117.824512779755,1.2));
#821=VERTEX_POINT($,#820);
#822=CARTESIAN_POINT($,(188.647875838897,117.824512779755,1.2));
#823=DIRECTION($,(0,1,0));
#824=VECTOR($,#823,1);
#825=LINE($,#822,#824);
#826=EDGE_CURVE($,#821,#813,#825,.T.);
#827=ORIENTED_EDGE($,$,$,#826,.F.);
#828=CARTESIAN_POINT($,(160.647875838897,117.824512779755,1.2));
#829=VERTEX_POINT($,#828);
#830=CARTESIAN_POINT($,(160.647875838897,117.824512779755,1.2));
#831=DIRECTION($,(1,0,0));
#832=VECTOR($,#831,1);
#833=LINE($,#830,#832);
#834=EDGE_CURVE($,#829,#821,#833,.T.);
#835=ORIENTED_EDGE($,$,$,#834,.F.);
#836=CARTESIAN_POINT($,(143.647875838897,117.824512779755,1.2));
#837=DIRECTION($,(1,0,0));
#838=VECTOR($,#837,1);
#839=LINE($,#836,#838);
#840=EDGE_CURVE($,#749,#829,#839,.T.);
#841=ORIENTED_EDGE($,$,$,#840,.F.);
#842=EDGE_LOOP($,(#755,#763,#771,#779,#787,#795,#803,#811,#819,#827,#835,#841));
#843=FACE_BOUND('',#842,.T.);
#844=ADVANCED_FACE('',(#685,#700,#715,#730,#745,#843),#427,.T.);
#845=CARTESIAN_POINT($,(50.847875838897,10,0));
#846=DIRECTION($,(0,-1,0));
#847=DIRECTION($,(0,0,1));
#848=AXIS2_PLACEMENT_3D($,#845,#846,#847);
#849=PLANE($,#848);
#850=ORIENTED_EDGE($,$,$,#14,.T.);
#851=CARTESIAN_POINT($,(226.047875838897,10,-0));
#852=DIRECTION($,(0,0,1));
#853=VECTOR($,#852,1);
#854=LINE($,#851,#853);
#855=EDGE_CURVE($,#9,#431,#854,.T.);
#856=ORIENTED_EDGE($,$,$,#855,.T.);
#857=ORIENTED_EDGE($,$,$,#436,.F.);
#858=CARTESIAN_POINT($,(50.847875838897,10,0));
#859=DIRECTION($,(0,0,1));
#860=VECTOR($,#859,1);
#861=LINE($,#858,#860);
#862=EDGE_CURVE($,#7,#429,#861,.T.);
#863=ORIENTED_EDGE($,$,$,#862,.F.);
#864=EDGE_LOOP($,(#850,#856,#857,#863));
#865=FACE_OUTER_BOUND('',#864,.T.);
#866=ADVANCED_FACE('',(#865),#849,.T.);
#867=CARTESIAN_POINT($,(226.047875838897,10,0));
#868=DIRECTION($,(1,0,0));
#869=DIRECTION($,(0,0,1));
#870=AXIS2_PLACEMENT_3D($,#867,#868,#869);
#871=PLANE($,#870);
#872=ORIENTED_EDGE($,$,$,#22,.T.);
#873=CARTESIAN_POINT($,(226.047875838897,20,0));
#874=DIRECTION($,(0,0,1));
#875=VECTOR($,#874,1);
#876=LINE($,#873,#875);
#877=EDGE_CURVE($,#17,#439,#876,.T.);
#878=ORIENTED_EDGE($,$,$,#877,.T.);
#879=ORIENTED_EDGE($,$,$,#444,.F.);
#880=ORIENTED_EDGE($,$,$,#855,.F.);
#881=EDGE_LOOP($,(#872,#878,#879,#880));
#882=FACE_OUTER_BOUND('',#881,.T.);
#883=ADVANCED_FACE('',(#882),#871,.T.);
#884=CARTESIAN_POINT($,(226.047875838897,20,0));
#885=DIRECTION($,(1,0,0));
#886=DIRECTION($,(0,0,1));
#887=AXIS2_PLACEMENT_3D($,#884,#885,#886);
#888=PLANE($,#887);
#889=ORIENTED_EDGE($,$,$,#30,.T.);
#890=CARTESIAN_POINT($,(226.047875838897,22.6766369408585,0));
#891=DIRECTION($,(0,0,1));
#892=VECTOR($,#891,1);
#893=LINE($,#890,#892);
#894=EDGE_CURVE($,#25,#447,#893,.T.);
#895=ORIENTED_EDGE($,$,$,#894,.T.);
#896=ORIENTED_EDGE($,$,$,#452,.F.);
#897=ORIENTED_EDGE($,$,$,#877,.F.);
#898=EDGE_LOOP($,(#889,#895,#896,#897));
#899=FACE_OUTER_BOUND('',#898,.T.);
#900=ADVANCED_FACE('',(#899),#888,.T.);
#901=CARTESIAN_POINT($,(226.047875838897,22.6766369408585,0));
#902=DIRECTION($,(1,0,0));
#903=DIRECTION($,(0,0,1));
#904=AXIS2_PLACEMENT_3D($,#901,#902,#903);
#905=PLANE($,#904);
#906=ORIENTED_EDGE($,$,$,#38,.T.);
#907=CARTESIAN_POINT($,(226.047875838897,57.6766369408585,0));
#908=DIRECTION($,(0,0,1));
#909=VECTOR($,#908,1);
#910=LINE($,#907,#909);
#911=EDGE_CURVE($,#33,#455,#910,.T.);
#912=ORIENTED_EDGE($,$,$,#911,.T.);
#913=ORIENTED_EDGE($,$,$,#460,.F.);
#914=ORIENTED_EDGE($,$,$,#894,.F.);
#915=EDGE_LOOP($,(#906,#912,#913,#914));
#916=FACE_OUTER_BOUND('',#915,.T.);
#917=ADVANCED_FACE('',(#916),#905,.T.);
#918=CARTESIAN_POINT($,(226.047875838897,57.6766369408585,0));
#919=DIRECTION($,(1,0,0));
#920=DIRECTION($,(0,0,1));
#921=AXIS2_PLACEMENT_3D($,#918,#919,#920);
#922=PLANE($,#921);
#923=ORIENTED_EDGE($,$,$,#46,.T.);
#924=CARTESIAN_POINT($,(226.047875838897,60.8245127797555,0));
#925=DIRECTION($,(0,0,1));
#926=VECTOR($,#925,1);
#927=LINE($,#924,#926);
#928=EDGE_CURVE($,#41,#463,#927,.T.);
#929=ORIENTED_EDGE($,$,$,#928,.T.);
#930=ORIENTED_EDGE($,$,$,#468,.F.);
#931=ORIENTED_EDGE($,$,$,#911,.F.);
#932=EDGE_LOOP($,(#923,#929,#930,#931));
#933=FACE_OUTER_BOUND('',#932,.T.);
#934=ADVANCED_FACE('',(#933),#922,.T.);
#935=CARTESIAN_POINT($,(226.047875838897,60.8245127797555,0));
#936=DIRECTION($,(0,-1,0));
#937=DIRECTION($,(0,0,1));
#938=AXIS2_PLACEMENT_3D($,#935,#936,#937);
#939=PLANE($,#938);
#940=ORIENTED_EDGE($,$,$,#54,.T.);
#941=CARTESIAN_POINT($,(228.147875838897,60.8245127797555,-0));
#942=DIRECTION($,(0,0,1));
#943=VECTOR($,#942,1);
#944=LINE($,#941,#943);
#945=EDGE_CURVE($,#49,#471,#944,.T.);
#946=ORIENTED_EDGE($,$,$,#945,.T.);
#947=ORIENTED_EDGE($,$,$,#476,.F.);
#948=ORIENTED_EDGE($,$,$,#928,.F.);
#949=EDGE_LOOP($,(#940,#946,#947,#948));
#950=FACE_OUTER_BOUND('',#949,.T.);
#951=ADVANCED_FACE('',(#950),#939,.T.);
#952=CARTESIAN_POINT($,(228.147875838897,60.8245127797555,0));
#953=DIRECTION($,(1,0,0));
#954=DIRECTION($,(0,0,1));
#955=AXIS2_PLACEMENT_3D($,#952,#953,#954);
#956=PLANE($,#955);
#957=ORIENTED_EDGE($,$,$,#62,.T.);
#958=CARTESIAN_POINT($,(228.147875838897,62.9245127797555,0));
#959=DIRECTION($,(0,0,1));
#960=VECTOR($,#959,1);
#961=LINE($,#958,#960);
#962=EDGE_CURVE($,#57,#479,#961,.T.);
#963=ORIENTED_EDGE($,$,$,#962,.T.);
#964=ORIENTED_EDGE($,$,$,#484,.F.);
#965=ORIENTED_EDGE($,$,$,#945,.F.);
#966=EDGE_LOOP($,(#957,#963,#964,#965));
#967=FACE_OUTER_BOUND('',#966,.T.);
#968=ADVANCED_FACE('',(#967),#956,.T.);
#969=CARTESIAN_POINT($,(228.147875838897,62.9245127797555,0));
#970=DIRECTION($,(0,-1,0));
#971=DIRECTION($,(0,0,1));
#972=AXIS2_PLACEMENT_3D($,#969,#970,#971);
#973=PLANE($,#972);
#974=ORIENTED_EDGE($,$,$,#70,.T.);
#975=CARTESIAN_POINT($,(231.295751677794,62.9245127797555,0));
#976=DIRECTION($,(0,0,1));
#977=VECTOR($,#976,1);
#978=LINE($,#975,#977);
#979=EDGE_CURVE($,#65,#487,#978,.T.);
#980=ORIENTED_EDGE($,$,$,#979,.T.);
#981=ORIENTED_EDGE($,$,$,#492,.F.);
#982=ORIENTED_EDGE($,$,$,#962,.F.);
#983=EDGE_LOOP($,(#974,#980,#981,#982));
#984=FACE_OUTER_BOUND('',#983,.T.);
#985=ADVANCED_FACE('',(#984),#973,.T.);
#986=CARTESIAN_POINT($,(231.295751677794,62.9245127797555,0));
#987=DIRECTION($,(0,-1,0));
#988=DIRECTION($,(0,0,1));
#989=AXIS2_PLACEMENT_3D($,#986,#987,#988);
#990=PLANE($,#989);
#991=ORIENTED_EDGE($,$,$,#78,.T.);
#992=CARTESIAN_POINT($,(266.295751677794,62.9245127797555,-0));
#993=DIRECTION($,(0,0,1));
#994=VECTOR($,#993,1);
#995=LINE($,#992,#994);
#996=EDGE_CURVE($,#73,#495,#995,.T.);
#997=ORIENTED_EDGE($,$,$,#996,.T.);
#998=ORIENTED_EDGE($,$,$,#500,.F.);
#999=ORIENTED_EDGE($,$,$,#979,.F.);
#1000=EDGE_LOOP($,(#991,#997,#998,#999));
#1001=FACE_OUTER_BOUND('',#1000,.T.);
#1002=ADVANCED_FACE('',(#1001),#990,.T.);
#1003=CARTESIAN_POINT($,(266.295751677794,62.9245127797555,0));
#1004=DIRECTION($,(1,0,0));
#1005=DIRECTION($,(0,0,1));
#1006=AXIS2_PLACEMENT_3D($,#1003,#1004,#1005);
#1007=PLANE($,#1006);
#1008=ORIENTED_EDGE($,$,$,#86,.T.);
#1009=CARTESIAN_POINT($,(266.295751677794,178.124512779755,-0));
#1010=DIRECTION($,(0,0,1));
#1011=VECTOR($,#1010,1);
#1012=LINE($,#1009,#1011);
#1013=EDGE_CURVE($,#81,#503,#1012,.T.);
#1014=ORIENTED_EDGE($,$,$,#1013,.T.);
#1015=ORIENTED_EDGE($,$,$,#508,.F.);
#1016=ORIENTED_EDGE($,$,$,#996,.F.);
#1017=EDGE_LOOP($,(#1008,#1014,#1015,#1016));
#1018=FACE_OUTER_BOUND('',#1017,.T.);
#1019=ADVANCED_FACE('',(#1018),#1007,.T.);
#1020=CARTESIAN_POINT($,(266.295751677794,178.124512779755,0));
#1021=DIRECTION($,(0,1,0));
#1022=DIRECTION($,(0,0,1));
#1023=AXIS2_PLACEMENT_3D($,#1020,#1021,#1022);
#1024=PLANE($,#1023);
#1025=ORIENTED_EDGE($,$,$,#94,.T.);
#1026=CARTESIAN_POINT($,(231.295751677794,178.124512779755,0));
#1027=DIRECTION($,(0,0,1));
#1028=VECTOR($,#1027,1);
#1029=LINE($,#1026,#1028);
#1030=EDGE_CURVE($,#89,#511,#1029,.T.);
#1031=ORIENTED_EDGE($,$,$,#1030,.T.);
#1032=ORIENTED_EDGE($,$,$,#516,.F.);
#1033=ORIENTED_EDGE($,$,$,#1013,.F.);
#1034=EDGE_LOOP($,(#1025,#1031,#1032,#1033));
#1035=FACE_OUTER_BOUND('',#1034,.T.);
#1036=ADVANCED_FACE('',(#1035),#1024,.T.);
#1037=CARTESIAN_POINT($,(231.295751677794,178.124512779755,0));
#1038=DIRECTION($,(0,1,0));
#1039=DIRECTION($,(0,0,1));
#1040=AXIS2_PLACEMENT_3D($,#1037,#1038,#1039);
#1041=PLANE($,#1040);
#1042=ORIENTED_EDGE($,$,$,#102,.T.);
#1043=CARTESIAN_POINT($,(228.147875838897,178.124512779755,0));
#1044=DIRECTION($,(0,0,1));
#1045=VECTOR($,#1044,1);
#1046=LINE($,#1043,#1045);
#1047=EDGE_CURVE($,#97,#519,#1046,.T.);
#1048=ORIENTED_EDGE($,$,$,#1047,.T.);
#1049=ORIENTED_EDGE($,$,$,#524,.F.);
#1050=ORIENTED_EDGE($,$,$,#1030,.F.);
#1051=EDGE_LOOP($,(#1042,#1048,#1049,#1050));
#1052=FACE_OUTER_BOUND('',#1051,.T.);
#1053=ADVANCED_FACE('',(#1052),#1041,.T.);
#1054=CARTESIAN_POINT($,(228.147875838897,178.124512779755,0));
#1055=DIRECTION($,(1,0,0));
#1056=DIRECTION($,(0,0,1));
#1057=AXIS2_PLACEMENT_3D($,#1054,#1055,#1056);
#1058=PLANE($,#1057);
#1059=ORIENTED_EDGE($,$,$,#110,.T.);
#1060=CARTESIAN_POINT($,(228.147875838897,180.824512779755,-0));
#1061=DIRECTION($,(0,0,1));
#1062=VECTOR($,#1061,1);
#1063=LINE($,#1060,#1062);
#1064=EDGE_CURVE($,#105,#527,#1063,.T.);
#1065=ORIENTED_EDGE($,$,$,#1064,.T.);
#1066=ORIENTED_EDGE($,$,$,#532,.F.);
#1067=ORIENTED_EDGE($,$,$,#1047,.F.);
#1068=EDGE_LOOP($,(#1059,#1065,#1066,#1067));
#1069=FACE_OUTER_BOUND('',#1068,.T.);
#1070=ADVANCED_FACE('',(#1069),#1058,.T.);
#1071=CARTESIAN_POINT($,(228.147875838897,180.824512779755,0));
#1072=DIRECTION($,(0,1,0));
#1073=DIRECTION($,(0,0,1));
#1074=AXIS2_PLACEMENT_3D($,#1071,#1072,#1073);
#1075=PLANE($,#1074);
#1076=ORIENTED_EDGE($,$,$,#118,.T.);
#1077=CARTESIAN_POINT($,(225.447875838897,180.824512779755,0));
#1078=DIRECTION($,(0,0,1));
#1079=VECTOR($,#1078,1);
#1080=LINE($,#1077,#1079);
#1081=EDGE_CURVE($,#113,#535,#1080,.T.);
#1082=ORIENTED_EDGE($,$,$,#1081,.T.);
#1083=ORIENTED_EDGE($,$,$,#540,.F.);
#1084=ORIENTED_EDGE($,$,$,#1064,.F.);
#1085=EDGE_LOOP($,(#1076,#1082,#1083,#1084));
#1086=FACE_OUTER_BOUND('',#1085,.T.);
#1087=ADVANCED_FACE('',(#1086),#1075,.T.);
#1088=CARTESIAN_POINT($,(225.447875838897,180.824512779755,0));
#1089=DIRECTION($,(1,0,0));
#1090=DIRECTION($,(0,0,1));
#1091=AXIS2_PLACEMENT_3D($,#1088,#1089,#1090);
#1092=PLANE($,#1091);
#1093=ORIENTED_EDGE($,$,$,#126,.T.);
#1094=CARTESIAN_POINT($,(225.447875838897,183.972388618652,0));
#1095=DIRECTION($,(0,0,1));
#1096=VECTOR($,#1095,1);
#1097=LINE($,#1094,#1096);
#1098=EDGE_CURVE($,#121,#543,#1097,.T.);
#1099=ORIENTED_EDGE($,$,$,#1098,.T.);
#1100=ORIENTED_EDGE($,$,$,#548,.F.);
#1101=ORIENTED_EDGE($,$,$,#1081,.F.);
#1102=EDGE_LOOP($,(#1093,#1099,#1100,#1101));
#1103=FACE_OUTER_BOUND('',#1102,.T.);
#1104=ADVANCED_FACE('',(#1103),#1092,.T.);
#1105=CARTESIAN_POINT($,(225.447875838897,183.972388618652,0));
#1106=DIRECTION($,(1,0,0));
#1107=DIRECTION($,(0,0,1));
#1108=AXIS2_PLACEMENT_3D($,#1105,#1106,#1107);
#1109=PLANE($,#1108);
#1110=ORIENTED_EDGE($,$,$,#134,.T.);
#1111=CARTESIAN_POINT($,(225.447875838897,218.972388618652,-0));
#1112=DIRECTION($,(0,0,1));
#1113=VECTOR($,#1112,1);
#1114=LINE($,#1111,#1113);
#1115=EDGE_CURVE($,#129,#551,#1114,.T.);
#1116=ORIENTED_EDGE($,$,$,#1115,.T.);
#1117=ORIENTED_EDGE($,$,$,#556,.F.);
#1118=ORIENTED_EDGE($,$,$,#1098,.F.);
#1119=EDGE_LOOP($,(#1110,#1116,#1117,#1118));
#1120=FACE_OUTER_BOUND('',#1119,.T.);
#1121=ADVANCED_FACE('',(#1120),#1109,.T.);
#1122=CARTESIAN_POINT($,(225.447875838897,218.972388618652,0));
#1123=DIRECTION($,(0,1,0));
#1124=DIRECTION($,(0,0,1));
#1125=AXIS2_PLACEMENT_3D($,#1122,#1123,#1124);
#1126=PLANE($,#1125);
#1127=ORIENTED_EDGE($,$,$,#142,.T.);
#1128=CARTESIAN_POINT($,(50.847875838897,218.972388618652,-0));
#1129=DIRECTION($,(0,0,1));
#1130=VECTOR($,#1129,1);
#1131=LINE($,#1128,#1130);
#1132=EDGE_CURVE($,#137,#559,#1131,.T.);
#1133=ORIENTED_EDGE($,$,$,#1132,.T.);
#1134=ORIENTED_EDGE($,$,$,#564,.F.);
#1135=ORIENTED_EDGE($,$,$,#1115,.F.);
#1136=EDGE_LOOP($,(#1127,#1133,#1134,#1135));
#1137=FACE_OUTER_BOUND('',#1136,.T.);
#1138=ADVANCED_FACE('',(#1137),#1126,.T.);
#1139=CARTESIAN_POINT($,(50.847875838897,218.972388618652,0));
#1140=DIRECTION($,(-1,0,0));
#1141=DIRECTION($,(0,0,1));
#1142=AXIS2_PLACEMENT_3D($,#1139,#1140,#1141);
#1143=PLANE($,#1142);
#1144=ORIENTED_EDGE($,$,$,#150,.T.);
#1145=CARTESIAN_POINT($,(50.847875838897,183.972388618652,0));
#1146=DIRECTION($,(0,0,1));
#1147=VECTOR($,#1146,1);
#1148=LINE($,#1145,#1147);
#1149=EDGE_CURVE($,#145,#567,#1148,.T.);
#1150=ORIENTED_EDGE($,$,$,#1149,.T.);
#1151=ORIENTED_EDGE($,$,$,#572,.F.);
#1152=ORIENTED_EDGE($,$,$,#1132,.F.);
#1153=EDGE_LOOP($,(#1144,#1150,#1151,#1152));
#1154=FACE_OUTER_BOUND('',#1153,.T.);
#1155=ADVANCED_FACE('',(#1154),#1143,.T.);
#1156=CARTESIAN_POINT($,(50.847875838897,183.972388618652,0));
#1157=DIRECTION($,(-1,0,0));
#1158=DIRECTION($,(0,0,1));
#1159=AXIS2_PLACEMENT_3D($,#1156,#1157,#1158);
#1160=PLANE($,#1159);
#1161=ORIENTED_EDGE($,$,$,#158,.T.);
#1162=CARTESIAN_POINT($,(50.847875838897,180.824512779755,0));
#1163=DIRECTION($,(0,0,1));
#1164=VECTOR($,#1163,1);
#1165=LINE($,#1162,#1164);
#1166=EDGE_CURVE($,#153,#575,#1165,.T.);
#1167=ORIENTED_EDGE($,$,$,#1166,.T.);
#1168=ORIENTED_EDGE($,$,$,#580,.F.);
#1169=ORIENTED_EDGE($,$,$,#1149,.F.);
#1170=EDGE_LOOP($,(#1161,#1167,#1168,#1169));
#1171=FACE_OUTER_BOUND('',#1170,.T.);
#1172=ADVANCED_FACE('',(#1171),#1160,.T.);
#1173=CARTESIAN_POINT($,(50.847875838897,180.824512779755,0));
#1174=DIRECTION($,(0,1,0));
#1175=DIRECTION($,(0,0,1));
#1176=AXIS2_PLACEMENT_3D($,#1173,#1174,#1175);
#1177=PLANE($,#1176);
#1178=ORIENTED_EDGE($,$,$,#166,.T.);
#1179=CARTESIAN_POINT($,(48.147875838897,180.824512779755,-0));
#1180=DIRECTION($,(0,0,1));
#1181=VECTOR($,#1180,1);
#1182=LINE($,#1179,#1181);
#1183=EDGE_CURVE($,#161,#583,#1182,.T.);
#1184=ORIENTED_EDGE($,$,$,#1183,.T.);
#1185=ORIENTED_EDGE($,$,$,#588,.F.);
#1186=ORIENTED_EDGE($,$,$,#1166,.F.);
#1187=EDGE_LOOP($,(#1178,#1184,#1185,#1186));
#1188=FACE_OUTER_BOUND('',#1187,.T.);
#1189=ADVANCED_FACE('',(#1188),#1177,.T.);
#1190=CARTESIAN_POINT($,(48.147875838897,180.824512779755,0));
#1191=DIRECTION($,(-1,0,0));
#1192=DIRECTION($,(0,0,1));
#1193=AXIS2_PLACEMENT_3D($,#1190,#1191,#1192);
#1194=PLANE($,#1193);
#1195=ORIENTED_EDGE($,$,$,#174,.T.);
#1196=CARTESIAN_POINT($,(48.147875838897,178.124512779755,0));
#1197=DIRECTION($,(0,0,1));
#1198=VECTOR($,#1197,1);
#1199=LINE($,#1196,#1198);
#1200=EDGE_CURVE($,#169,#591,#1199,.T.);
#1201=ORIENTED_EDGE($,$,$,#1200,.T.);
#1202=ORIENTED_EDGE($,$,$,#596,.F.);
#1203=ORIENTED_EDGE($,$,$,#1183,.F.);
#1204=EDGE_LOOP($,(#1195,#1201,#1202,#1203));
#1205=FACE_OUTER_BOUND('',#1204,.T.);
#1206=ADVANCED_FACE('',(#1205),#1194,.T.);
#1207=CARTESIAN_POINT($,(48.147875838897,178.124512779755,0));
#1208=DIRECTION($,(0,1,0));
#1209=DIRECTION($,(0,0,1));
#1210=AXIS2_PLACEMENT_3D($,#1207,#1208,#1209);
#1211=PLANE($,#1210);
#1212=ORIENTED_EDGE($,$,$,#182,.T.);
#1213=CARTESIAN_POINT($,(45,178.124512779755,0));
#1214=DIRECTION($,(0,0,1));
#1215=VECTOR($,#1214,1);
#1216=LINE($,#1213,#1215);
#1217=EDGE_CURVE($,#177,#599,#1216,.T.);
#1218=ORIENTED_EDGE($,$,$,#1217,.T.);
#1219=ORIENTED_EDGE($,$,$,#604,.F.);
#1220=ORIENTED_EDGE($,$,$,#1200,.F.);
#1221=EDGE_LOOP($,(#1212,#1218,#1219,#1220));
#1222=FACE_OUTER_BOUND('',#1221,.T.);
#1223=ADVANCED_FACE('',(#1222),#1211,.T.);
#1224=CARTESIAN_POINT($,(45,178.124512779755,0));
#1225=DIRECTION($,(0,1,0));
#1226=DIRECTION($,(0,0,1));
#1227=AXIS2_PLACEMENT_3D($,#1224,#1225,#1226);
#1228=PLANE($,#1227);
#1229=ORIENTED_EDGE($,$,$,#190,.T.);
#1230=CARTESIAN_POINT($,(10,178.124512779755,-0));
#1231=DIRECTION($,(0,0,1));
#1232=VECTOR($,#1231,1);
#1233=LINE($,#1230,#1232);
#1234=EDGE_CURVE($,#185,#607,#1233,.T.);
#1235=ORIENTED_EDGE($,$,$,#1234,.T.);
#1236=ORIENTED_EDGE($,$,$,#612,.F.);
#1237=ORIENTED_EDGE($,$,$,#1217,.F.);
#1238=EDGE_LOOP($,(#1229,#1235,#1236,#1237));
#1239=FACE_OUTER_BOUND('',#1238,.T.);
#1240=ADVANCED_FACE('',(#1239),#1228,.T.);
#1241=CARTESIAN_POINT($,(10,178.124512779755,0));
#1242=DIRECTION($,(-1,0,0));
#1243=DIRECTION($,(0,0,1));
#1244=AXIS2_PLACEMENT_3D($,#1241,#1242,#1243);
#1245=PLANE($,#1244);
#1246=ORIENTED_EDGE($,$,$,#198,.T.);
#1247=CARTESIAN_POINT($,(10,63.5245127797555,-0));
#1248=DIRECTION($,(0,0,1));
#1249=VECTOR($,#1248,1);
#1250=LINE($,#1247,#1249);
#1251=EDGE_CURVE($,#193,#615,#1250,.T.);
#1252=ORIENTED_EDGE($,$,$,#1251,.T.);
#1253=ORIENTED_EDGE($,$,$,#620,.F.);
#1254=ORIENTED_EDGE($,$,$,#1234,.F.);
#1255=EDGE_LOOP($,(#1246,#1252,#1253,#1254));
#1256=FACE_OUTER_BOUND('',#1255,.T.);
#1257=ADVANCED_FACE('',(#1256),#1245,.T.);
#1258=CARTESIAN_POINT($,(10,63.5245127797555,0));
#1259=DIRECTION($,(0,-1,0));
#1260=DIRECTION($,(0,0,1));
#1261=AXIS2_PLACEMENT_3D($,#1258,#1259,#1260);
#1262=PLANE($,#1261);
#1263=ORIENTED_EDGE($,$,$,#206,.T.);
#1264=CARTESIAN_POINT($,(45,63.5245127797555,0));
#1265=DIRECTION($,(0,0,1));
#1266=VECTOR($,#1265,1);
#1267=LINE($,#1264,#1266);
#1268=EDGE_CURVE($,#201,#623,#1267,.T.);
#1269=ORIENTED_EDGE($,$,$,#1268,.T.);
#1270=ORIENTED_EDGE($,$,$,#628,.F.);
#1271=ORIENTED_EDGE($,$,$,#1251,.F.);
#1272=EDGE_LOOP($,(#1263,#1269,#1270,#1271));
#1273=FACE_OUTER_BOUND('',#1272,.T.);
#1274=ADVANCED_FACE('',(#1273),#1262,.T.);
#1275=CARTESIAN_POINT($,(45,63.5245127797555,0));
#1276=DIRECTION($,(0,-1,0));
#1277=DIRECTION($,(0,0,1));
#1278=AXIS2_PLACEMENT_3D($,#1275,#1276,#1277);
#1279=PLANE($,#1278);
#1280=ORIENTED_EDGE($,$,$,#214,.T.);
#1281=CARTESIAN_POINT($,(48.147875838897,63.5245127797555,0));
#1282=DIRECTION($,(0,0,1));
#1283=VECTOR($,#1282,1);
#1284=LINE($,#1281,#1283);
#1285=EDGE_CURVE($,#209,#631,#1284,.T.);
#1286=ORIENTED_EDGE($,$,$,#1285,.T.);
#1287=ORIENTED_EDGE($,$,$,#636,.F.);
#1288=ORIENTED_EDGE($,$,$,#1268,.F.);
#1289=EDGE_LOOP($,(#1280,#1286,#1287,#1288));
#1290=FACE_OUTER_BOUND('',#1289,.T.);
#1291=ADVANCED_FACE('',(#1290),#1279,.T.);
#1292=CARTESIAN_POINT($,(48.147875838897,63.5245127797555,0));
#1293=DIRECTION($,(-1,0,0));
#1294=DIRECTION($,(0,0,1));
#1295=AXIS2_PLACEMENT_3D($,#1292,#1293,#1294);
#1296=PLANE($,#1295);
#1297=ORIENTED_EDGE($,$,$,#222,.T.);
#1298=CARTESIAN_POINT($,(48.147875838897,60.8245127797555,-0));
#1299=DIRECTION($,(0,0,1));
#1300=VECTOR($,#1299,1);
#1301=LINE($,#1298,#1300);
#1302=EDGE_CURVE($,#217,#639,#1301,.T.);
#1303=ORIENTED_EDGE($,$,$,#1302,.T.);
#1304=ORIENTED_EDGE($,$,$,#644,.F.);
#1305=ORIENTED_EDGE($,$,$,#1285,.F.);
#1306=EDGE_LOOP($,(#1297,#1303,#1304,#1305));
#1307=FACE_OUTER_BOUND('',#1306,.T.);
#1308=ADVANCED_FACE('',(#1307),#1296,.T.);
#1309=CARTESIAN_POINT($,(48.147875838897,60.8245127797555,0));
#1310=DIRECTION($,(0,-1,0));
#1311=DIRECTION($,(0,0,1));
#1312=AXIS2_PLACEMENT_3D($,#1309,#1310,#1311);
#1313=PLANE($,#1312);
#1314=ORIENTED_EDGE($,$,$,#230,.T.);
#1315=CARTESIAN_POINT($,(50.847875838897,60.8245127797555,0));
#1316=DIRECTION($,(0,0,1));
#1317=VECTOR($,#1316,1);
#1318=LINE($,#1315,#1317);
#1319=EDGE_CURVE($,#225,#647,#1318,.T.);
#1320=ORIENTED_EDGE($,$,$,#1319,.T.);
#1321=ORIENTED_EDGE($,$,$,#652,.F.);
#1322=ORIENTED_EDGE($,$,$,#1302,.F.);
#1323=EDGE_LOOP($,(#1314,#1320,#1321,#1322));
#1324=FACE_OUTER_BOUND('',#1323,.T.);
#1325=ADVANCED_FACE('',(#1324),#1313,.T.);
#1326=CARTESIAN_POINT($,(50.847875838897,60.8245127797555,0));
#1327=DIRECTION($,(-1,0,0));
#1328=DIRECTION($,(0,0,1));
#1329=AXIS2_PLACEMENT_3D($,#1326,#1327,#1328);
#1330=PLANE($,#1329);
#1331=ORIENTED_EDGE($,$,$,#238,.T.);
#1332=CARTESIAN_POINT($,(50.847875838897,57.6766369408585,0));
#1333=DIRECTION($,(0,0,1));
#1334=VECTOR($,#1333,1);
#1335=LINE($,#1332,#1334);
#1336=EDGE_CURVE($,#233,#655,#1335,.T.);
#1337=ORIENTED_EDGE($,$,$,#1336,.T.);
#1338=ORIENTED_EDGE($,$,$,#660,.F.);
#1339=ORIENTED_EDGE($,$,$,#1319,.F.);
#1340=EDGE_LOOP($,(#1331,#1337,#1338,#1339));
#1341=FACE_OUTER_BOUND('',#1340,.T.);
#1342=ADVANCED_FACE('',(#1341),#1330,.T.);
#1343=CARTESIAN_POINT($,(50.847875838897,57.6766369408585,0));
#1344=DIRECTION($,(-1,0,0));
#1345=DIRECTION($,(0,0,1));
#1346=AXIS2_PLACEMENT_3D($,#1343,#1344,#1345);
#1347=PLANE($,#1346);
#1348=ORIENTED_EDGE($,$,$,#246,.T.);
#1349=CARTESIAN_POINT($,(50.847875838897,22.6766369408585,0));
#1350=DIRECTION($,(0,0,1));
#1351=VECTOR($,#1350,1);
#1352=LINE($,#1349,#1351);
#1353=EDGE_CURVE($,#241,#663,#1352,.T.);
#1354=ORIENTED_EDGE($,$,$,#1353,.T.);
#1355=ORIENTED_EDGE($,$,$,#668,.F.);
#1356=ORIENTED_EDGE($,$,$,#1336,.F.);
#1357=EDGE_LOOP($,(#1348,#1354,#1355,#1356));
#1358=FACE_OUTER_BOUND('',#1357,.T.);
#1359=ADVANCED_FACE('',(#1358),#1347,.T.);
#1360=CARTESIAN_POINT($,(50.847875838897,22.6766369408585,0));
#1361=DIRECTION($,(-1,0,0));
#1362=DIRECTION($,(0,0,1));
#1363=AXIS2_PLACEMENT_3D($,#1360,#1361,#1362);
#1364=PLANE($,#1363);
#1365=ORIENTED_EDGE($,$,$,#254,.T.);
#1366=CARTESIAN_POINT($,(50.847875838897,20,0));
#1367=DIRECTION($,(0,0,1));
#1368=VECTOR($,#1367,1);
#1369=LINE($,#1366,#1368);
#1370=EDGE_CURVE($,#249,#671,#1369,.T.);
#1371=ORIENTED_EDGE($,$,$,#1370,.T.);
#1372=ORIENTED_EDGE($,$,$,#676,.F.);
#1373=ORIENTED_EDGE($,$,$,#1353,.F.);
#1374=EDGE_LOOP($,(#1365,#1371,#1372,#1373));
#1375=FACE_OUTER_BOUND('',#1374,.T.);
#1376=ADVANCED_FACE('',(#1375),#1364,.T.);
#1377=CARTESIAN_POINT($,(50.847875838897,20,0));
#1378=DIRECTION($,(-1,0,0));
#1379=DIRECTION($,(0,0,1));
#1380=AXIS2_PLACEMENT_3D($,#1377,#1378,#1379);
#1381=PLANE($,#1380);
#1382=ORIENTED_EDGE($,$,$,#260,.T.);
#1383=ORIENTED_EDGE($,$,$,#862,.T.);
#1384=ORIENTED_EDGE($,$,$,#682,.F.);
#1385=ORIENTED_EDGE($,$,$,#1370,.F.);
#1386=EDGE_LOOP($,(#1382,#1383,#1384,#1385));
#1387=FACE_OUTER_BOUND('',#1386,.T.);
#1388=ADVANCED_FACE('',(#1387),#1381,.T.);
#1389=CARTESIAN_POINT($,(63.147875838897,75.8245127797555,0));
#1390=DIRECTION($,(0,0,1));
#1391=DIRECTION($,(1,0,0));
#1392=AXIS2_PLACEMENT_3D($,#1389,#1390,#1391);
#1393=CYLINDRICAL_SURFACE($,#1392,2);
#1394=ORIENTED_EDGE($,$,$,#274,.T.);
#1395=CARTESIAN_POINT($,(65.147875838897,75.8245127797555,0));
#1396=DIRECTION($,(0,0,1));
#1397=VECTOR($,#1396,1);
#1398=LINE($,#1395,#1397);
#1399=EDGE_CURVE($,#267,#689,#1398,.T.);
#1400=ORIENTED_EDGE($,$,$,#1399,.T.);
#1401=ORIENTED_EDGE($,$,$,#696,.F.);
#1402=CARTESIAN_POINT($,(61.147875838897,75.8245127797555,0));
#1403=DIRECTION($,(0,0,1));
#1404=VECTOR($,#1403,1);
#1405=LINE($,#1402,#1404);
#1406=EDGE_CURVE($,#265,#687,#1405,.T.);
#1407=ORIENTED_EDGE($,$,$,#1406,.F.);
#1408=EDGE_LOOP($,(#1394,#1400,#1401,#1407));
#1409=FACE_OUTER_BOUND('',#1408,.T.);
#1410=ADVANCED_FACE('',(#1409),#1393,.F.);
#1411=CARTESIAN_POINT($,(63.147875838897,75.8245127797555,0));
#1412=DIRECTION($,(0,0,1));
#1413=DIRECTION($,(1,0,0));
#1414=AXIS2_PLACEMENT_3D($,#1411,#1412,#1413);
#1415=CYLINDRICAL_SURFACE($,#1414,2);
#1416=ORIENTED_EDGE($,$,$,#274,.F.);
#1417=ORIENTED_EDGE($,$,$,#1406,.T.);
#1418=ORIENTED_EDGE($,$,$,#696,.T.);
#1419=ORIENTED_EDGE($,$,$,#1399,.F.);
#1420=EDGE_LOOP($,(#1416,#1417,#1418,#1419));
#1421=FACE_OUTER_BOUND('',#1420,.T.);
#1422=ADVANCED_FACE('',(#1421),#1415,.F.);
#1423=CARTESIAN_POINT($,(213.147875838897,75.8245127797555,0));
#1424=DIRECTION($,(0,0,1));
#1425=DIRECTION($,(1,0,0));
#1426=AXIS2_PLACEMENT_3D($,#1423,#1424,#1425);
#1427=CYLINDRICAL_SURFACE($,#1426,2);
#1428=ORIENTED_EDGE($,$,$,#289,.T.);
#1429=CARTESIAN_POINT($,(215.147875838897,75.8245127797555,0));
#1430=DIRECTION($,(0,0,1));
#1431=VECTOR($,#1430,1);
#1432=LINE($,#1429,#1431);
#1433=EDGE_CURVE($,#282,#704,#1432,.T.);
#1434=ORIENTED_EDGE($,$,$,#1433,.T.);
#1435=ORIENTED_EDGE($,$,$,#711,.F.);
#1436=CARTESIAN_POINT($,(211.147875838897,75.8245127797555,0));
#1437=DIRECTION($,(0,0,1));
#1438=VECTOR($,#1437,1);
#1439=LINE($,#1436,#1438);
#1440=EDGE_CURVE($,#280,#702,#1439,.T.);
#1441=ORIENTED_EDGE($,$,$,#1440,.F.);
#1442=EDGE_LOOP($,(#1428,#1434,#1435,#1441));
#1443=FACE_OUTER_BOUND('',#1442,.T.);
#1444=ADVANCED_FACE('',(#1443),#1427,.F.);
#1445=CARTESIAN_POINT($,(213.147875838897,75.8245127797555,0));
#1446=DIRECTION($,(0,0,1));
#1447=DIRECTION($,(1,0,0));
#1448=AXIS2_PLACEMENT_3D($,#1445,#1446,#1447);
#1449=CYLINDRICAL_SURFACE($,#1448,2);
#1450=ORIENTED_EDGE($,$,$,#289,.F.);
#1451=ORIENTED_EDGE($,$,$,#1440,.T.);
#1452=ORIENTED_EDGE($,$,$,#711,.T.);
#1453=ORIENTED_EDGE($,$,$,#1433,.F.);
#1454=EDGE_LOOP($,(#1450,#1451,#1452,#1453));
#1455=FACE_OUTER_BOUND('',#1454,.T.);
#1456=ADVANCED_FACE('',(#1455),#1449,.F.);
#1457=CARTESIAN_POINT($,(63.147875838897,165.824512779755,0));
#1458=DIRECTION($,(0,0,1));
#1459=DIRECTION($,(1,0,0));
#1460=AXIS2_PLACEMENT_3D($,#1457,#1458,#1459);
#1461=CYLINDRICAL_SURFACE($,#1460,2);
#1462=ORIENTED_EDGE($,$,$,#304,.T.);
#1463=CARTESIAN_POINT($,(65.147875838897,165.824512779755,0));
#1464=DIRECTION($,(0,0,1));
#1465=VECTOR($,#1464,1);
#1466=LINE($,#1463,#1465);
#1467=EDGE_CURVE($,#297,#719,#1466,.T.);
#1468=ORIENTED_EDGE($,$,$,#1467,.T.);
#1469=ORIENTED_EDGE($,$,$,#726,.F.);
#1470=CARTESIAN_POINT($,(61.147875838897,165.824512779755,0));
#1471=DIRECTION($,(0,0,1));
#1472=VECTOR($,#1471,1);
#1473=LINE($,#1470,#1472);
#1474=EDGE_CURVE($,#295,#717,#1473,.T.);
#1475=ORIENTED_EDGE($,$,$,#1474,.F.);
#1476=EDGE_LOOP($,(#1462,#1468,#1469,#1475));
#1477=FACE_OUTER_BOUND('',#1476,.T.);
#1478=ADVANCED_FACE('',(#1477),#1461,.F.);
#1479=CARTESIAN_POINT($,(63.147875838897,165.824512779755,0));
#1480=DIRECTION($,(0,0,1));
#1481=DIRECTION($,(1,0,0));
#1482=AXIS2_PLACEMENT_3D($,#1479,#1480,#1481);
#1483=CYLINDRICAL_SURFACE($,#1482,2);
#1484=ORIENTED_EDGE($,$,$,#304,.F.);
#1485=ORIENTED_EDGE($,$,$,#1474,.T.);
#1486=ORIENTED_EDGE($,$,$,#726,.T.);
#1487=ORIENTED_EDGE($,$,$,#1467,.F.);
#1488=EDGE_LOOP($,(#1484,#1485,#1486,#1487));
#1489=FACE_OUTER_BOUND('',#1488,.T.);
#1490=ADVANCED_FACE('',(#1489),#1483,.F.);
#1491=CARTESIAN_POINT($,(213.147875838897,165.824512779755,0));
#1492=DIRECTION($,(0,0,1));
#1493=DIRECTION($,(1,0,0));
#1494=AXIS2_PLACEMENT_3D($,#1491,#1492,#1493);
#1495=CYLINDRICAL_SURFACE($,#1494,2);
#1496=ORIENTED_EDGE($,$,$,#319,.T.);
#1497=CARTESIAN_POINT($,(215.147875838897,165.824512779755,0));
#1498=DIRECTION($,(0,0,1));
#1499=VECTOR($,#1498,1);
#1500=LINE($,#1497,#1499);
#1501=EDGE_CURVE($,#312,#734,#1500,.T.);
#1502=ORIENTED_EDGE($,$,$,#1501,.T.);
#1503=ORIENTED_EDGE($,$,$,#741,.F.);
#1504=CARTESIAN_POINT($,(211.147875838897,165.824512779755,0));
#1505=DIRECTION($,(0,0,1));
#1506=VECTOR($,#1505,1);
#1507=LINE($,#1504,#1506);
#1508=EDGE_CURVE($,#310,#732,#1507,.T.);
#1509=ORIENTED_EDGE($,$,$,#1508,.F.);
#1510=EDGE_LOOP($,(#1496,#1502,#1503,#1509));
#1511=FACE_OUTER_BOUND('',#1510,.T.);
#1512=ADVANCED_FACE('',(#1511),#1495,.F.);
#1513=CARTESIAN_POINT($,(213.147875838897,165.824512779755,0));
#1514=DIRECTION($,(0,0,1));
#1515=DIRECTION($,(1,0,0));
#1516=AXIS2_PLACEMENT_3D($,#1513,#1514,#1515);
#1517=CYLINDRICAL_SURFACE($,#1516,2);
#1518=ORIENTED_EDGE($,$,$,#319,.F.);
#1519=ORIENTED_EDGE($,$,$,#1508,.T.);
#1520=ORIENTED_EDGE($,$,$,#741,.T.);
#1521=ORIENTED_EDGE($,$,$,#1501,.F.);
#1522=EDGE_LOOP($,(#1518,#1519,#1520,#1521));
#1523=FACE_OUTER_BOUND('',#1522,.T.);
#1524=ADVANCED_FACE('',(#1523),#1517,.F.);
#1525=CARTESIAN_POINT($,(132.647875838897,117.824512779755,0));
#1526=DIRECTION($,(0,1,0));
#1527=DIRECTION($,(0,0,1));
#1528=AXIS2_PLACEMENT_3D($,#1525,#1526,#1527);
#1529=PLANE($,#1528);
#1530=ORIENTED_EDGE($,$,$,#332,.T.);
#1531=CARTESIAN_POINT($,(143.647875838897,117.824512779755,0));
#1532=DIRECTION($,(0,0,1));
#1533=VECTOR($,#1532,1);
#1534=LINE($,#1531,#1533);
#1535=EDGE_CURVE($,#327,#749,#1534,.T.);
#1536=ORIENTED_EDGE($,$,$,#1535,.T.);
#1537=ORIENTED_EDGE($,$,$,#754,.F.);
#1538=CARTESIAN_POINT($,(132.647875838897,117.824512779755,0));
#1539=DIRECTION($,(0,0,1));
#1540=VECTOR($,#1539,1);
#1541=LINE($,#1538,#1540);
#1542=EDGE_CURVE($,#325,#747,#1541,.T.);
#1543=ORIENTED_EDGE($,$,$,#1542,.F.);
#1544=EDGE_LOOP($,(#1530,#1536,#1537,#1543));
#1545=FACE_OUTER_BOUND('',#1544,.T.);
#1546=ADVANCED_FACE('',(#1545),#1529,.T.);
#1547=CARTESIAN_POINT($,(143.647875838897,117.824512779755,0));
#1548=DIRECTION($,(0,1,0));
#1549=DIRECTION($,(0,0,1));
#1550=AXIS2_PLACEMENT_3D($,#1547,#1548,#1549);
#1551=PLANE($,#1550);
#1552=ORIENTED_EDGE($,$,$,#418,.T.);
#1553=CARTESIAN_POINT($,(160.647875838897,117.824512779755,0));
#1554=DIRECTION($,(0,0,1));
#1555=VECTOR($,#1554,1);
#1556=LINE($,#1553,#1555);
#1557=EDGE_CURVE($,#407,#829,#1556,.T.);
#1558=ORIENTED_EDGE($,$,$,#1557,.T.);
#1559=ORIENTED_EDGE($,$,$,#840,.F.);
#1560=ORIENTED_EDGE($,$,$,#1535,.F.);
#1561=EDGE_LOOP($,(#1552,#1558,#1559,#1560));
#1562=FACE_OUTER_BOUND('',#1561,.T.);
#1563=ADVANCED_FACE('',(#1562),#1551,.T.);
#1564=CARTESIAN_POINT($,(160.647875838897,117.824512779755,0));
#1565=DIRECTION($,(0,1,0));
#1566=DIRECTION($,(0,0,1));
#1567=AXIS2_PLACEMENT_3D($,#1564,#1565,#1566);
#1568=PLANE($,#1567);
#1569=ORIENTED_EDGE($,$,$,#412,.T.);
#1570=CARTESIAN_POINT($,(188.647875838897,117.824512779755,-0));
#1571=DIRECTION($,(0,0,1));
#1572=VECTOR($,#1571,1);
#1573=LINE($,#1570,#1572);
#1574=EDGE_CURVE($,#399,#821,#1573,.T.);
#1575=ORIENTED_EDGE($,$,$,#1574,.T.);
#1576=ORIENTED_EDGE($,$,$,#834,.F.);
#1577=ORIENTED_EDGE($,$,$,#1557,.F.);
#1578=EDGE_LOOP($,(#1569,#1575,#1576,#1577));
#1579=FACE_OUTER_BOUND('',#1578,.T.);
#1580=ADVANCED_FACE('',(#1579),#1568,.T.);
#1581=CARTESIAN_POINT($,(188.647875838897,117.824512779755,0));
#1582=DIRECTION($,(-1,0,0));
#1583=DIRECTION($,(0,0,1));
#1584=AXIS2_PLACEMENT_3D($,#1581,#1582,#1583);
#1585=PLANE($,#1584);
#1586=ORIENTED_EDGE($,$,$,#404,.T.);
#1587=CARTESIAN_POINT($,(188.647875838897,123.824512779755,-0));
#1588=DIRECTION($,(0,0,1));
#1589=VECTOR($,#1588,1);
#1590=LINE($,#1587,#1589);
#1591=EDGE_CURVE($,#391,#813,#1590,.T.);
#1592=ORIENTED_EDGE($,$,$,#1591,.T.);
#1593=ORIENTED_EDGE($,$,$,#826,.F.);
#1594=ORIENTED_EDGE($,$,$,#1574,.F.);
#1595=EDGE_LOOP($,(#1586,#1592,#1593,#1594));
#1596=FACE_OUTER_BOUND('',#1595,.T.);
#1597=ADVANCED_FACE('',(#1596),#1585,.T.);
#1598=CARTESIAN_POINT($,(188.647875838897,123.824512779755,0));
#1599=DIRECTION($,(0,-1,0));
#1600=DIRECTION($,(0,0,1));
#1601=AXIS2_PLACEMENT_3D($,#1598,#1599,#1600);
#1602=PLANE($,#1601);
#1603=ORIENTED_EDGE($,$,$,#396,.T.);
#1604=CARTESIAN_POINT($,(160.647875838897,123.824512779755,0));
#1605=DIRECTION($,(0,0,1));
#1606=VECTOR($,#1605,1);
#1607=LINE($,#1604,#1606);
#1608=EDGE_CURVE($,#383,#805,#1607,.T.);
#1609=ORIENTED_EDGE($,$,$,#1608,.T.);
#1610=ORIENTED_EDGE($,$,$,#818,.F.);
#1611=ORIENTED_EDGE($,$,$,#1591,.F.);
#1612=EDGE_LOOP($,(#1603,#1609,#1610,#1611));
#1613=FACE_OUTER_BOUND('',#1612,.T.);
#1614=ADVANCED_FACE('',(#1613),#1602,.T.);
#1615=CARTESIAN_POINT($,(160.647875838897,123.824512779755,0));
#1616=DIRECTION($,(0,-1,0));
#1617=DIRECTION($,(0,0,1));
#1618=AXIS2_PLACEMENT_3D($,#1615,#1616,#1617);
#1619=PLANE($,#1618);
#1620=ORIENTED_EDGE($,$,$,#388,.T.);
#1621=CARTESIAN_POINT($,(143.647875838897,123.824512779755,0));
#1622=DIRECTION($,(0,0,1));
#1623=VECTOR($,#1622,1);
#1624=LINE($,#1621,#1623);
#1625=EDGE_CURVE($,#375,#797,#1624,.T.);
#1626=ORIENTED_EDGE($,$,$,#1625,.T.);
#1627=ORIENTED_EDGE($,$,$,#810,.F.);
#1628=ORIENTED_EDGE($,$,$,#1608,.F.);
#1629=EDGE_LOOP($,(#1620,#1626,#1627,#1628));
#1630=FACE_OUTER_BOUND('',#1629,.T.);
#1631=ADVANCED_FACE('',(#1630),#1619,.T.);
#1632=CARTESIAN_POINT($,(143.647875838897,123.824512779755,0));
#1633=DIRECTION($,(0,-1,0));
#1634=DIRECTION($,(0,0,1));
#1635=AXIS2_PLACEMENT_3D($,#1632,#1633,#1634);
#1636=PLANE($,#1635);
#1637=ORIENTED_EDGE($,$,$,#380,.T.);
#1638=CARTESIAN_POINT($,(132.647875838897,123.824512779755,0));
#1639=DIRECTION($,(0,0,1));
#1640=VECTOR($,#1639,1);
#1641=LINE($,#1638,#1640);
#1642=EDGE_CURVE($,#367,#789,#1641,.T.);
#1643=ORIENTED_EDGE($,$,$,#1642,.T.);
#1644=ORIENTED_EDGE($,$,$,#802,.F.);
#1645=ORIENTED_EDGE($,$,$,#1625,.F.);
#1646=EDGE_LOOP($,(#1637,#1643,#1644,#1645));
#1647=FACE_OUTER_BOUND('',#1646,.T.);
#1648=ADVANCED_FACE('',(#1647),#1636,.T.);
#1649=CARTESIAN_POINT($,(132.647875838897,123.824512779755,0));
#1650=DIRECTION($,(0,-1,0));
#1651=DIRECTION($,(0,0,1));
#1652=AXIS2_PLACEMENT_3D($,#1649,#1650,#1651);
#1653=PLANE($,#1652);
#1654=ORIENTED_EDGE($,$,$,#372,.T.);
#1655=CARTESIAN_POINT($,(115.647875838897,123.824512779755,0));
#1656=DIRECTION($,(0,0,1));
#1657=VECTOR($,#1656,1);
#1658=LINE($,#1655,#1657);
#1659=EDGE_CURVE($,#359,#781,#1658,.T.);
#1660=ORIENTED_EDGE($,$,$,#1659,.T.);
#1661=ORIENTED_EDGE($,$,$,#794,.F.);
#1662=ORIENTED_EDGE($,$,$,#1642,.F.);
#1663=EDGE_LOOP($,(#1654,#1660,#1661,#1662));
#1664=FACE_OUTER_BOUND('',#1663,.T.);
#1665=ADVANCED_FACE('',(#1664),#1653,.T.);
#1666=CARTESIAN_POINT($,(115.647875838897,123.824512779755,0));
#1667=DIRECTION($,(0,-1,0));
#1668=DIRECTION($,(0,0,1));
#1669=AXIS2_PLACEMENT_3D($,#1666,#1667,#1668);
#1670=PLANE($,#1669);
#1671=ORIENTED_EDGE($,$,$,#364,.T.);
#1672=CARTESIAN_POINT($,(87.647875838897,123.824512779755,-0));
#1673=DIRECTION($,(0,0,1));
#1674=VECTOR($,#1673,1);
#1675=LINE($,#1672,#1674);
#1676=EDGE_CURVE($,#351,#773,#1675,.T.);
#1677=ORIENTED_EDGE($,$,$,#1676,.T.);
#1678=ORIENTED_EDGE($,$,$,#786,.F.);
#1679=ORIENTED_EDGE($,$,$,#1659,.F.);
#1680=EDGE_LOOP($,(#1671,#1677,#1678,#1679));
#1681=FACE_OUTER_BOUND('',#1680,.T.);
#1682=ADVANCED_FACE('',(#1681),#1670,.T.);
#1683=CARTESIAN_POINT($,(87.647875838897,123.824512779755,0));
#1684=DIRECTION($,(1,0,0));
#1685=DIRECTION($,(0,0,1));
#1686=AXIS2_PLACEMENT_3D($,#1683,#1684,#1685);
#1687=PLANE($,#1686);
#1688=ORIENTED_EDGE($,$,$,#356,.T.);
#1689=CARTESIAN_POINT($,(87.647875838897,117.824512779755,-0));
#1690=DIRECTION($,(0,0,1));
#1691=VECTOR($,#1690,1);
#1692=LINE($,#1689,#1691);
#1693=EDGE_CURVE($,#343,#765,#1692,.T.);
#1694=ORIENTED_EDGE($,$,$,#1693,.T.);
#1695=ORIENTED_EDGE($,$,$,#778,.F.);
#1696=ORIENTED_EDGE($,$,$,#1676,.F.);
#1697=EDGE_LOOP($,(#1688,#1694,#1695,#1696));
#1698=FACE_OUTER_BOUND('',#1697,.T.);
#1699=ADVANCED_FACE('',(#1698),#1687,.T.);
#1700=CARTESIAN_POINT($,(87.647875838897,117.824512779755,0));
#1701=DIRECTION($,(0,1,0));
#1702=DIRECTION($,(0,0,1));
#1703=AXIS2_PLACEMENT_3D($,#1700,#1701,#1702);
#1704=PLANE($,#1703);
#1705=ORIENTED_EDGE($,$,$,#348,.T.);
#1706=CARTESIAN_POINT($,(115.647875838897,117.824512779755,0));
#1707=DIRECTION($,(0,0,1));
#1708=VECTOR($,#1707,1);
#1709=LINE($,#1706,#1708);
#1710=EDGE_CURVE($,#335,#757,#1709,.T.);
#1711=ORIENTED_EDGE($,$,$,#1710,.T.);
#1712=ORIENTED_EDGE($,$,$,#770,.F.);
#1713=ORIENTED_EDGE($,$,$,#1693,.F.);
#1714=EDGE_LOOP($,(#1705,#1711,#1712,#1713));
#1715=FACE_OUTER_BOUND('',#1714,.T.);
#1716=ADVANCED_FACE('',(#1715),#1704,.T.);
#1717=CARTESIAN_POINT($,(115.647875838897,117.824512779755,0));
#1718=DIRECTION($,(0,1,0));
#1719=DIRECTION($,(0,0,1));
#1720=AXIS2_PLACEMENT_3D($,#1717,#1718,#1719);
#1721=PLANE($,#1720);
#1722=ORIENTED_EDGE($,$,$,#340,.T.);
#1723=ORIENTED_EDGE($,$,$,#1542,.T.);
#1724=ORIENTED_EDGE($,$,$,#762,.F.);
#1725=ORIENTED_EDGE($,$,$,#1710,.F.);
#1726=EDGE_LOOP($,(#1722,#1723,#1724,#1725));
#1727=FACE_OUTER_BOUND('',#1726,.T.);
#1728=ADVANCED_FACE('',(#1727),#1721,.T.);
#1729=CLOSED_SHELL($,(#422,#844,#866,#883,#900,#917,#934,#951,#968,#985,#1002,#1019,#1036,#1053,#1070,#1087,#1104,#1121,#1138,#1155,#1172,#1189,#1206,#1223,#1240,#1257,#1274,#1291,#1308,#1325,#1342,#1359,#1376,#1388,#1410,#1422,#1444,#1456,#1478,#1490,#1512,#1524,#1546,#1563,#1580,#1597,#1614,#1631,#1648,#1665,#1682,#1699,#1716,#1728));
#1730=MANIFOLD_SOLID_BREP('sheetmetal-PsuEnclosure flat pattern',#1729);
#1731=APPLICATION_CONTEXT('mechanical design');
#1732=PRODUCT_CONTEXT('',#1731,'mechanical');
#1733=PRODUCT('sheetmetal_PsuEnclosure_flat','sheetmetal-PsuEnclosure flat pattern','',(#1732));
#1734=PRODUCT_DEFINITION_FORMATION('','',#1733);
#1735=PRODUCT_DEFINITION_CONTEXT('design',#1731,'design');
#1736=PRODUCT_DEFINITION('','',#1734,#1735);
#1737=PRODUCT_DEFINITION_SHAPE('','',#1736);
#1738=(LENGTH_UNIT()NAMED_UNIT(*)SI_UNIT(.MILLI.,.METRE.));
#1739=(NAMED_UNIT(*)PLANE_ANGLE_UNIT()SI_UNIT($,.RADIAN.));
#1740=(NAMED_UNIT(*)SI_UNIT($,.STERADIAN.)SOLID_ANGLE_UNIT());
#1741=(GEOMETRIC_REPRESENTATION_CONTEXT(3)GLOBAL_UNIT_ASSIGNED_CONTEXT((#1738,#1739,#1740))REPRESENTATION_CONTEXT('3','3D'));
#1742=SHAPE_REPRESENTATION('sheetmetal-PsuEnclosure flat pattern',(#1730),#1741);
#1743=SHAPE_DEFINITION_REPRESENTATION(#1737,#1742);
ENDSEC;
END-ISO-10303-21;
