ISO-10303-21;
HEADER;
FILE_DESCRIPTION(('Aetheris AP242 assembly product structure'),'2;1');
FILE_NAME('aetheris_assembly.step','1970-01-01T00:00:00',('Aetheris'),('Aetheris'),'Aetheris.Kernel','Aetheris.Kernel','');
FILE_SCHEMA(('AP242_MANAGED_MODEL_BASED_3D_ENGINEERING_MIM_LF'));
ENDSEC;
DATA;
#1=CARTESIAN_POINT($,(0,0,0));
#2=DIRECTION($,(0,0,-1));
#3=DIRECTION($,(1,0,0));
#4=AXIS2_PLACEMENT_3D($,#1,#2,#3);
#5=PLANE($,#4);
#6=CARTESIAN_POINT($,(-10,-10,-0));
#7=VERTEX_POINT($,#6);
#8=CARTESIAN_POINT($,(10,-10,-0));
#9=VERTEX_POINT($,#8);
#10=CARTESIAN_POINT($,(-10,-10,-0));
#11=DIRECTION($,(1,0,0));
#12=VECTOR($,#11,1);
#13=LINE($,#10,#12);
#14=EDGE_CURVE($,#7,#9,#13,.T.);
#15=ORIENTED_EDGE($,$,$,#14,.T.);
#16=CARTESIAN_POINT($,(10,10,-0));
#17=VERTEX_POINT($,#16);
#18=CARTESIAN_POINT($,(10,-10,-0));
#19=DIRECTION($,(0,1,0));
#20=VECTOR($,#19,1);
#21=LINE($,#18,#20);
#22=EDGE_CURVE($,#9,#17,#21,.T.);
#23=ORIENTED_EDGE($,$,$,#22,.T.);
#24=CARTESIAN_POINT($,(-10,10,-0));
#25=VERTEX_POINT($,#24);
#26=CARTESIAN_POINT($,(10,10,-0));
#27=DIRECTION($,(-1,0,0));
#28=VECTOR($,#27,1);
#29=LINE($,#26,#28);
#30=EDGE_CURVE($,#17,#25,#29,.T.);
#31=ORIENTED_EDGE($,$,$,#30,.T.);
#32=CARTESIAN_POINT($,(-10,10,-0));
#33=DIRECTION($,(0,-1,0));
#34=VECTOR($,#33,1);
#35=LINE($,#32,#34);
#36=EDGE_CURVE($,#25,#7,#35,.T.);
#37=ORIENTED_EDGE($,$,$,#36,.T.);
#38=EDGE_LOOP($,(#15,#23,#31,#37));
#39=FACE_OUTER_BOUND('',#38,.T.);
#40=ADVANCED_FACE('',(#39),#5,.T.);
#41=CARTESIAN_POINT($,(0,0,10));
#42=DIRECTION($,(0,0,1));
#43=DIRECTION($,(1,0,0));
#44=AXIS2_PLACEMENT_3D($,#41,#42,#43);
#45=PLANE($,#44);
#46=CARTESIAN_POINT($,(-9,9,10));
#47=VERTEX_POINT($,#46);
#48=CARTESIAN_POINT($,(-9,-9,10));
#49=VERTEX_POINT($,#48);
#50=CARTESIAN_POINT($,(-9,9,10));
#51=DIRECTION($,(0,-1,0));
#52=VECTOR($,#51,1);
#53=LINE($,#50,#52);
#54=EDGE_CURVE($,#47,#49,#53,.T.);
#55=ORIENTED_EDGE($,$,$,#54,.F.);
#56=CARTESIAN_POINT($,(9,9,10));
#57=VERTEX_POINT($,#56);
#58=CARTESIAN_POINT($,(9,9,10));
#59=DIRECTION($,(-1,0,0));
#60=VECTOR($,#59,1);
#61=LINE($,#58,#60);
#62=EDGE_CURVE($,#57,#47,#61,.T.);
#63=ORIENTED_EDGE($,$,$,#62,.F.);
#64=CARTESIAN_POINT($,(9,-9,10));
#65=VERTEX_POINT($,#64);
#66=CARTESIAN_POINT($,(9,-9,10));
#67=DIRECTION($,(0,1,0));
#68=VECTOR($,#67,1);
#69=LINE($,#66,#68);
#70=EDGE_CURVE($,#65,#57,#69,.T.);
#71=ORIENTED_EDGE($,$,$,#70,.F.);
#72=CARTESIAN_POINT($,(-9,-9,10));
#73=DIRECTION($,(1,0,0));
#74=VECTOR($,#73,1);
#75=LINE($,#72,#74);
#76=EDGE_CURVE($,#49,#65,#75,.T.);
#77=ORIENTED_EDGE($,$,$,#76,.F.);
#78=EDGE_LOOP($,(#55,#63,#71,#77));
#79=FACE_OUTER_BOUND('',#78,.T.);
#80=ADVANCED_FACE('',(#79),#45,.T.);
#81=CARTESIAN_POINT($,(-10,-10,0));
#82=DIRECTION($,(0,-1,0));
#83=DIRECTION($,(1,0,0));
#84=AXIS2_PLACEMENT_3D($,#81,#82,#83);
#85=PLANE($,#84);
#86=ORIENTED_EDGE($,$,$,#14,.T.);
#87=CARTESIAN_POINT($,(10,-10,9));
#88=VERTEX_POINT($,#87);
#89=CARTESIAN_POINT($,(10,-10,-0));
#90=DIRECTION($,(0,0,1));
#91=VECTOR($,#90,1);
#92=LINE($,#89,#91);
#93=EDGE_CURVE($,#9,#88,#92,.T.);
#94=ORIENTED_EDGE($,$,$,#93,.T.);
#95=CARTESIAN_POINT($,(-10,-10,9));
#96=VERTEX_POINT($,#95);
#97=CARTESIAN_POINT($,(-10,-10,9));
#98=DIRECTION($,(1,0,0));
#99=VECTOR($,#98,1);
#100=LINE($,#97,#99);
#101=EDGE_CURVE($,#96,#88,#100,.T.);
#102=ORIENTED_EDGE($,$,$,#101,.F.);
#103=CARTESIAN_POINT($,(-10,-10,-0));
#104=DIRECTION($,(0,0,1));
#105=VECTOR($,#104,1);
#106=LINE($,#103,#105);
#107=EDGE_CURVE($,#7,#96,#106,.T.);
#108=ORIENTED_EDGE($,$,$,#107,.F.);
#109=EDGE_LOOP($,(#86,#94,#102,#108));
#110=FACE_OUTER_BOUND('',#109,.T.);
#111=ADVANCED_FACE('',(#110),#85,.T.);
#112=CARTESIAN_POINT($,(10,-10,0));
#113=DIRECTION($,(1,0,0));
#114=DIRECTION($,(0,1,0));
#115=AXIS2_PLACEMENT_3D($,#112,#113,#114);
#116=PLANE($,#115);
#117=ORIENTED_EDGE($,$,$,#22,.T.);
#118=CARTESIAN_POINT($,(10,10,9));
#119=VERTEX_POINT($,#118);
#120=CARTESIAN_POINT($,(10,10,-0));
#121=DIRECTION($,(0,0,1));
#122=VECTOR($,#121,1);
#123=LINE($,#120,#122);
#124=EDGE_CURVE($,#17,#119,#123,.T.);
#125=ORIENTED_EDGE($,$,$,#124,.T.);
#126=CARTESIAN_POINT($,(10,-10,9));
#127=DIRECTION($,(0,1,0));
#128=VECTOR($,#127,1);
#129=LINE($,#126,#128);
#130=EDGE_CURVE($,#88,#119,#129,.T.);
#131=ORIENTED_EDGE($,$,$,#130,.F.);
#132=ORIENTED_EDGE($,$,$,#93,.F.);
#133=EDGE_LOOP($,(#117,#125,#131,#132));
#134=FACE_OUTER_BOUND('',#133,.T.);
#135=ADVANCED_FACE('',(#134),#116,.T.);
#136=CARTESIAN_POINT($,(10,10,0));
#137=DIRECTION($,(0,1,-0));
#138=DIRECTION($,(-1,0,0));
#139=AXIS2_PLACEMENT_3D($,#136,#137,#138);
#140=PLANE($,#139);
#141=ORIENTED_EDGE($,$,$,#30,.T.);
#142=CARTESIAN_POINT($,(-10,10,9));
#143=VERTEX_POINT($,#142);
#144=CARTESIAN_POINT($,(-10,10,-0));
#145=DIRECTION($,(0,0,1));
#146=VECTOR($,#145,1);
#147=LINE($,#144,#146);
#148=EDGE_CURVE($,#25,#143,#147,.T.);
#149=ORIENTED_EDGE($,$,$,#148,.T.);
#150=CARTESIAN_POINT($,(10,10,9));
#151=DIRECTION($,(-1,0,0));
#152=VECTOR($,#151,1);
#153=LINE($,#150,#152);
#154=EDGE_CURVE($,#119,#143,#153,.T.);
#155=ORIENTED_EDGE($,$,$,#154,.F.);
#156=ORIENTED_EDGE($,$,$,#124,.F.);
#157=EDGE_LOOP($,(#141,#149,#155,#156));
#158=FACE_OUTER_BOUND('',#157,.T.);
#159=ADVANCED_FACE('',(#158),#140,.T.);
#160=CARTESIAN_POINT($,(-10,10,0));
#161=DIRECTION($,(-1,0,0));
#162=DIRECTION($,(0,-1,0));
#163=AXIS2_PLACEMENT_3D($,#160,#161,#162);
#164=PLANE($,#163);
#165=ORIENTED_EDGE($,$,$,#36,.T.);
#166=ORIENTED_EDGE($,$,$,#107,.T.);
#167=CARTESIAN_POINT($,(-10,10,9));
#168=DIRECTION($,(0,-1,0));
#169=VECTOR($,#168,1);
#170=LINE($,#167,#169);
#171=EDGE_CURVE($,#143,#96,#170,.T.);
#172=ORIENTED_EDGE($,$,$,#171,.F.);
#173=ORIENTED_EDGE($,$,$,#148,.F.);
#174=EDGE_LOOP($,(#165,#166,#172,#173));
#175=FACE_OUTER_BOUND('',#174,.T.);
#176=ADVANCED_FACE('',(#175),#164,.T.);
#177=CARTESIAN_POINT($,(-10,-10,9));
#178=DIRECTION($,(0,-0.707106781186548,0.707106781186548));
#179=DIRECTION($,(1,0,0));
#180=AXIS2_PLACEMENT_3D($,#177,#178,#179);
#181=PLANE($,#180);
#182=ORIENTED_EDGE($,$,$,#101,.T.);
#183=CARTESIAN_POINT($,(10,-10,9));
#184=DIRECTION($,(-0.577350269189626,0.577350269189626,0.577350269189626));
#185=VECTOR($,#184,1);
#186=LINE($,#183,#185);
#187=EDGE_CURVE($,#88,#65,#186,.T.);
#188=ORIENTED_EDGE($,$,$,#187,.T.);
#189=ORIENTED_EDGE($,$,$,#76,.F.);
#190=CARTESIAN_POINT($,(-10,-10,9));
#191=DIRECTION($,(0.577350269189626,0.577350269189626,0.577350269189626));
#192=VECTOR($,#191,1);
#193=LINE($,#190,#192);
#194=EDGE_CURVE($,#96,#49,#193,.T.);
#195=ORIENTED_EDGE($,$,$,#194,.F.);
#196=EDGE_LOOP($,(#182,#188,#189,#195));
#197=FACE_OUTER_BOUND('',#196,.T.);
#198=ADVANCED_FACE('',(#197),#181,.T.);
#199=CARTESIAN_POINT($,(10,-10,9));
#200=DIRECTION($,(0.707106781186548,-0,0.707106781186548));
#201=DIRECTION($,(0,1,0));
#202=AXIS2_PLACEMENT_3D($,#199,#200,#201);
#203=PLANE($,#202);
#204=ORIENTED_EDGE($,$,$,#130,.T.);
#205=CARTESIAN_POINT($,(10,10,9));
#206=DIRECTION($,(-0.577350269189626,-0.577350269189626,0.577350269189626));
#207=VECTOR($,#206,1);
#208=LINE($,#205,#207);
#209=EDGE_CURVE($,#119,#57,#208,.T.);
#210=ORIENTED_EDGE($,$,$,#209,.T.);
#211=ORIENTED_EDGE($,$,$,#70,.F.);
#212=ORIENTED_EDGE($,$,$,#187,.F.);
#213=EDGE_LOOP($,(#204,#210,#211,#212));
#214=FACE_OUTER_BOUND('',#213,.T.);
#215=ADVANCED_FACE('',(#214),#203,.T.);
#216=CARTESIAN_POINT($,(10,10,9));
#217=DIRECTION($,(0,0.707106781186548,0.707106781186548));
#218=DIRECTION($,(-1,0,0));
#219=AXIS2_PLACEMENT_3D($,#216,#217,#218);
#220=PLANE($,#219);
#221=ORIENTED_EDGE($,$,$,#154,.T.);
#222=CARTESIAN_POINT($,(-10,10,9));
#223=DIRECTION($,(0.577350269189626,-0.577350269189626,0.577350269189626));
#224=VECTOR($,#223,1);
#225=LINE($,#222,#224);
#226=EDGE_CURVE($,#143,#47,#225,.T.);
#227=ORIENTED_EDGE($,$,$,#226,.T.);
#228=ORIENTED_EDGE($,$,$,#62,.F.);
#229=ORIENTED_EDGE($,$,$,#209,.F.);
#230=EDGE_LOOP($,(#221,#227,#228,#229));
#231=FACE_OUTER_BOUND('',#230,.T.);
#232=ADVANCED_FACE('',(#231),#220,.T.);
#233=CARTESIAN_POINT($,(-10,10,9));
#234=DIRECTION($,(-0.707106781186548,0,0.707106781186548));
#235=DIRECTION($,(0,-1,0));
#236=AXIS2_PLACEMENT_3D($,#233,#234,#235);
#237=PLANE($,#236);
#238=ORIENTED_EDGE($,$,$,#171,.T.);
#239=ORIENTED_EDGE($,$,$,#194,.T.);
#240=ORIENTED_EDGE($,$,$,#54,.F.);
#241=ORIENTED_EDGE($,$,$,#226,.F.);
#242=EDGE_LOOP($,(#238,#239,#240,#241));
#243=FACE_OUTER_BOUND('',#242,.T.);
#244=ADVANCED_FACE('',(#243),#237,.T.);
#245=CLOSED_SHELL($,(#40,#80,#111,#135,#159,#176,#198,#215,#232,#244));
#246=MANIFOLD_SOLID_BREP('AssemblyBlock<Spec: HousingSpec>',#245);
#247=APPLICATION_CONTEXT('mechanical design');
#248=PRODUCT_CONTEXT('',#247,'mechanical');
#249=PRODUCT('assembly-definition:2D6E0B6EEEAE5CE1','AssemblyBlock<Spec: HousingSpec>','Aetheris shared assembly definition',(#248));
#250=PRODUCT_DEFINITION_FORMATION('','',#249);
#251=PRODUCT_DEFINITION_CONTEXT('design',#247,'design');
#252=PRODUCT_DEFINITION('','',#250,#251);
#253=PRODUCT_DEFINITION_SHAPE('','',#252);
#254=(LENGTH_UNIT()NAMED_UNIT(*)SI_UNIT(.MILLI.,.METRE.));
#255=(NAMED_UNIT(*)PLANE_ANGLE_UNIT()SI_UNIT($,.RADIAN.));
#256=(NAMED_UNIT(*)SI_UNIT($,.STERADIAN.)SOLID_ANGLE_UNIT());
#257=(GEOMETRIC_REPRESENTATION_CONTEXT(3)GLOBAL_UNIT_ASSIGNED_CONTEXT((#254,#255,#256))REPRESENTATION_CONTEXT('3','3D'));
#258=SHAPE_REPRESENTATION('AssemblyBlock<Spec: HousingSpec>',(#246),#257);
#259=SHAPE_DEFINITION_REPRESENTATION(#253,#258);
#260=CARTESIAN_POINT($,(0,0,0));
#261=DIRECTION($,(0,0,-1));
#262=DIRECTION($,(1,0,0));
#263=AXIS2_PLACEMENT_3D($,#260,#261,#262);
#264=PLANE($,#263);
#265=CARTESIAN_POINT($,(-4,-4,-0));
#266=VERTEX_POINT($,#265);
#267=CARTESIAN_POINT($,(4,-4,-0));
#268=VERTEX_POINT($,#267);
#269=CARTESIAN_POINT($,(-4,-4,-0));
#270=DIRECTION($,(1,0,0));
#271=VECTOR($,#270,1);
#272=LINE($,#269,#271);
#273=EDGE_CURVE($,#266,#268,#272,.T.);
#274=ORIENTED_EDGE($,$,$,#273,.T.);
#275=CARTESIAN_POINT($,(4,4,-0));
#276=VERTEX_POINT($,#275);
#277=CARTESIAN_POINT($,(4,-4,-0));
#278=DIRECTION($,(0,1,0));
#279=VECTOR($,#278,1);
#280=LINE($,#277,#279);
#281=EDGE_CURVE($,#268,#276,#280,.T.);
#282=ORIENTED_EDGE($,$,$,#281,.T.);
#283=CARTESIAN_POINT($,(-4,4,-0));
#284=VERTEX_POINT($,#283);
#285=CARTESIAN_POINT($,(4,4,-0));
#286=DIRECTION($,(-1,0,0));
#287=VECTOR($,#286,1);
#288=LINE($,#285,#287);
#289=EDGE_CURVE($,#276,#284,#288,.T.);
#290=ORIENTED_EDGE($,$,$,#289,.T.);
#291=CARTESIAN_POINT($,(-4,4,-0));
#292=DIRECTION($,(0,-1,0));
#293=VECTOR($,#292,1);
#294=LINE($,#291,#293);
#295=EDGE_CURVE($,#284,#266,#294,.T.);
#296=ORIENTED_EDGE($,$,$,#295,.T.);
#297=EDGE_LOOP($,(#274,#282,#290,#296));
#298=FACE_OUTER_BOUND('',#297,.T.);
#299=ADVANCED_FACE('',(#298),#264,.T.);
#300=CARTESIAN_POINT($,(0,0,10));
#301=DIRECTION($,(0,0,1));
#302=DIRECTION($,(1,0,0));
#303=AXIS2_PLACEMENT_3D($,#300,#301,#302);
#304=PLANE($,#303);
#305=CARTESIAN_POINT($,(-3,3,10));
#306=VERTEX_POINT($,#305);
#307=CARTESIAN_POINT($,(-3,-3,10));
#308=VERTEX_POINT($,#307);
#309=CARTESIAN_POINT($,(-3,3,10));
#310=DIRECTION($,(0,-1,0));
#311=VECTOR($,#310,1);
#312=LINE($,#309,#311);
#313=EDGE_CURVE($,#306,#308,#312,.T.);
#314=ORIENTED_EDGE($,$,$,#313,.F.);
#315=CARTESIAN_POINT($,(3,3,10));
#316=VERTEX_POINT($,#315);
#317=CARTESIAN_POINT($,(3,3,10));
#318=DIRECTION($,(-1,0,0));
#319=VECTOR($,#318,1);
#320=LINE($,#317,#319);
#321=EDGE_CURVE($,#316,#306,#320,.T.);
#322=ORIENTED_EDGE($,$,$,#321,.F.);
#323=CARTESIAN_POINT($,(3,-3,10));
#324=VERTEX_POINT($,#323);
#325=CARTESIAN_POINT($,(3,-3,10));
#326=DIRECTION($,(0,1,0));
#327=VECTOR($,#326,1);
#328=LINE($,#325,#327);
#329=EDGE_CURVE($,#324,#316,#328,.T.);
#330=ORIENTED_EDGE($,$,$,#329,.F.);
#331=CARTESIAN_POINT($,(-3,-3,10));
#332=DIRECTION($,(1,0,0));
#333=VECTOR($,#332,1);
#334=LINE($,#331,#333);
#335=EDGE_CURVE($,#308,#324,#334,.T.);
#336=ORIENTED_EDGE($,$,$,#335,.F.);
#337=EDGE_LOOP($,(#314,#322,#330,#336));
#338=FACE_OUTER_BOUND('',#337,.T.);
#339=ADVANCED_FACE('',(#338),#304,.T.);
#340=CARTESIAN_POINT($,(-4,-4,0));
#341=DIRECTION($,(0,-1,0));
#342=DIRECTION($,(1,0,0));
#343=AXIS2_PLACEMENT_3D($,#340,#341,#342);
#344=PLANE($,#343);
#345=ORIENTED_EDGE($,$,$,#273,.T.);
#346=CARTESIAN_POINT($,(4,-4,9));
#347=VERTEX_POINT($,#346);
#348=CARTESIAN_POINT($,(4,-4,-0));
#349=DIRECTION($,(0,0,1));
#350=VECTOR($,#349,1);
#351=LINE($,#348,#350);
#352=EDGE_CURVE($,#268,#347,#351,.T.);
#353=ORIENTED_EDGE($,$,$,#352,.T.);
#354=CARTESIAN_POINT($,(-4,-4,9));
#355=VERTEX_POINT($,#354);
#356=CARTESIAN_POINT($,(-4,-4,9));
#357=DIRECTION($,(1,0,0));
#358=VECTOR($,#357,1);
#359=LINE($,#356,#358);
#360=EDGE_CURVE($,#355,#347,#359,.T.);
#361=ORIENTED_EDGE($,$,$,#360,.F.);
#362=CARTESIAN_POINT($,(-4,-4,-0));
#363=DIRECTION($,(0,0,1));
#364=VECTOR($,#363,1);
#365=LINE($,#362,#364);
#366=EDGE_CURVE($,#266,#355,#365,.T.);
#367=ORIENTED_EDGE($,$,$,#366,.F.);
#368=EDGE_LOOP($,(#345,#353,#361,#367));
#369=FACE_OUTER_BOUND('',#368,.T.);
#370=ADVANCED_FACE('',(#369),#344,.T.);
#371=CARTESIAN_POINT($,(4,-4,0));
#372=DIRECTION($,(1,0,0));
#373=DIRECTION($,(0,1,0));
#374=AXIS2_PLACEMENT_3D($,#371,#372,#373);
#375=PLANE($,#374);
#376=ORIENTED_EDGE($,$,$,#281,.T.);
#377=CARTESIAN_POINT($,(4,4,9));
#378=VERTEX_POINT($,#377);
#379=CARTESIAN_POINT($,(4,4,-0));
#380=DIRECTION($,(0,0,1));
#381=VECTOR($,#380,1);
#382=LINE($,#379,#381);
#383=EDGE_CURVE($,#276,#378,#382,.T.);
#384=ORIENTED_EDGE($,$,$,#383,.T.);
#385=CARTESIAN_POINT($,(4,-4,9));
#386=DIRECTION($,(0,1,0));
#387=VECTOR($,#386,1);
#388=LINE($,#385,#387);
#389=EDGE_CURVE($,#347,#378,#388,.T.);
#390=ORIENTED_EDGE($,$,$,#389,.F.);
#391=ORIENTED_EDGE($,$,$,#352,.F.);
#392=EDGE_LOOP($,(#376,#384,#390,#391));
#393=FACE_OUTER_BOUND('',#392,.T.);
#394=ADVANCED_FACE('',(#393),#375,.T.);
#395=CARTESIAN_POINT($,(4,4,0));
#396=DIRECTION($,(0,1,-0));
#397=DIRECTION($,(-1,0,0));
#398=AXIS2_PLACEMENT_3D($,#395,#396,#397);
#399=PLANE($,#398);
#400=ORIENTED_EDGE($,$,$,#289,.T.);
#401=CARTESIAN_POINT($,(-4,4,9));
#402=VERTEX_POINT($,#401);
#403=CARTESIAN_POINT($,(-4,4,-0));
#404=DIRECTION($,(0,0,1));
#405=VECTOR($,#404,1);
#406=LINE($,#403,#405);
#407=EDGE_CURVE($,#284,#402,#406,.T.);
#408=ORIENTED_EDGE($,$,$,#407,.T.);
#409=CARTESIAN_POINT($,(4,4,9));
#410=DIRECTION($,(-1,0,0));
#411=VECTOR($,#410,1);
#412=LINE($,#409,#411);
#413=EDGE_CURVE($,#378,#402,#412,.T.);
#414=ORIENTED_EDGE($,$,$,#413,.F.);
#415=ORIENTED_EDGE($,$,$,#383,.F.);
#416=EDGE_LOOP($,(#400,#408,#414,#415));
#417=FACE_OUTER_BOUND('',#416,.T.);
#418=ADVANCED_FACE('',(#417),#399,.T.);
#419=CARTESIAN_POINT($,(-4,4,0));
#420=DIRECTION($,(-1,0,0));
#421=DIRECTION($,(0,-1,0));
#422=AXIS2_PLACEMENT_3D($,#419,#420,#421);
#423=PLANE($,#422);
#424=ORIENTED_EDGE($,$,$,#295,.T.);
#425=ORIENTED_EDGE($,$,$,#366,.T.);
#426=CARTESIAN_POINT($,(-4,4,9));
#427=DIRECTION($,(0,-1,0));
#428=VECTOR($,#427,1);
#429=LINE($,#426,#428);
#430=EDGE_CURVE($,#402,#355,#429,.T.);
#431=ORIENTED_EDGE($,$,$,#430,.F.);
#432=ORIENTED_EDGE($,$,$,#407,.F.);
#433=EDGE_LOOP($,(#424,#425,#431,#432));
#434=FACE_OUTER_BOUND('',#433,.T.);
#435=ADVANCED_FACE('',(#434),#423,.T.);
#436=CARTESIAN_POINT($,(-4,-4,9));
#437=DIRECTION($,(0,-0.707106781186548,0.707106781186548));
#438=DIRECTION($,(1,0,0));
#439=AXIS2_PLACEMENT_3D($,#436,#437,#438);
#440=PLANE($,#439);
#441=ORIENTED_EDGE($,$,$,#360,.T.);
#442=CARTESIAN_POINT($,(4,-4,9));
#443=DIRECTION($,(-0.577350269189626,0.577350269189626,0.577350269189626));
#444=VECTOR($,#443,1);
#445=LINE($,#442,#444);
#446=EDGE_CURVE($,#347,#324,#445,.T.);
#447=ORIENTED_EDGE($,$,$,#446,.T.);
#448=ORIENTED_EDGE($,$,$,#335,.F.);
#449=CARTESIAN_POINT($,(-4,-4,9));
#450=DIRECTION($,(0.577350269189626,0.577350269189626,0.577350269189626));
#451=VECTOR($,#450,1);
#452=LINE($,#449,#451);
#453=EDGE_CURVE($,#355,#308,#452,.T.);
#454=ORIENTED_EDGE($,$,$,#453,.F.);
#455=EDGE_LOOP($,(#441,#447,#448,#454));
#456=FACE_OUTER_BOUND('',#455,.T.);
#457=ADVANCED_FACE('',(#456),#440,.T.);
#458=CARTESIAN_POINT($,(4,-4,9));
#459=DIRECTION($,(0.707106781186548,-0,0.707106781186548));
#460=DIRECTION($,(0,1,0));
#461=AXIS2_PLACEMENT_3D($,#458,#459,#460);
#462=PLANE($,#461);
#463=ORIENTED_EDGE($,$,$,#389,.T.);
#464=CARTESIAN_POINT($,(4,4,9));
#465=DIRECTION($,(-0.577350269189626,-0.577350269189626,0.577350269189626));
#466=VECTOR($,#465,1);
#467=LINE($,#464,#466);
#468=EDGE_CURVE($,#378,#316,#467,.T.);
#469=ORIENTED_EDGE($,$,$,#468,.T.);
#470=ORIENTED_EDGE($,$,$,#329,.F.);
#471=ORIENTED_EDGE($,$,$,#446,.F.);
#472=EDGE_LOOP($,(#463,#469,#470,#471));
#473=FACE_OUTER_BOUND('',#472,.T.);
#474=ADVANCED_FACE('',(#473),#462,.T.);
#475=CARTESIAN_POINT($,(4,4,9));
#476=DIRECTION($,(0,0.707106781186548,0.707106781186548));
#477=DIRECTION($,(-1,0,0));
#478=AXIS2_PLACEMENT_3D($,#475,#476,#477);
#479=PLANE($,#478);
#480=ORIENTED_EDGE($,$,$,#413,.T.);
#481=CARTESIAN_POINT($,(-4,4,9));
#482=DIRECTION($,(0.577350269189626,-0.577350269189626,0.577350269189626));
#483=VECTOR($,#482,1);
#484=LINE($,#481,#483);
#485=EDGE_CURVE($,#402,#306,#484,.T.);
#486=ORIENTED_EDGE($,$,$,#485,.T.);
#487=ORIENTED_EDGE($,$,$,#321,.F.);
#488=ORIENTED_EDGE($,$,$,#468,.F.);
#489=EDGE_LOOP($,(#480,#486,#487,#488));
#490=FACE_OUTER_BOUND('',#489,.T.);
#491=ADVANCED_FACE('',(#490),#479,.T.);
#492=CARTESIAN_POINT($,(-4,4,9));
#493=DIRECTION($,(-0.707106781186548,0,0.707106781186548));
#494=DIRECTION($,(0,-1,0));
#495=AXIS2_PLACEMENT_3D($,#492,#493,#494);
#496=PLANE($,#495);
#497=ORIENTED_EDGE($,$,$,#430,.T.);
#498=ORIENTED_EDGE($,$,$,#453,.T.);
#499=ORIENTED_EDGE($,$,$,#313,.F.);
#500=ORIENTED_EDGE($,$,$,#485,.F.);
#501=EDGE_LOOP($,(#497,#498,#499,#500));
#502=FACE_OUTER_BOUND('',#501,.T.);
#503=ADVANCED_FACE('',(#502),#496,.T.);
#504=CLOSED_SHELL($,(#299,#339,#370,#394,#418,#435,#457,#474,#491,#503));
#505=MANIFOLD_SOLID_BREP('AssemblyBlock<Spec: ShaftSpec>',#504);
#506=APPLICATION_CONTEXT('mechanical design');
#507=PRODUCT_CONTEXT('',#506,'mechanical');
#508=PRODUCT('assembly-definition:589802EEFAB8DBFE','AssemblyBlock<Spec: ShaftSpec>','Aetheris shared assembly definition',(#507));
#509=PRODUCT_DEFINITION_FORMATION('','',#508);
#510=PRODUCT_DEFINITION_CONTEXT('design',#506,'design');
#511=PRODUCT_DEFINITION('','',#509,#510);
#512=PRODUCT_DEFINITION_SHAPE('','',#511);
#513=(LENGTH_UNIT()NAMED_UNIT(*)SI_UNIT(.MILLI.,.METRE.));
#514=(NAMED_UNIT(*)PLANE_ANGLE_UNIT()SI_UNIT($,.RADIAN.));
#515=(NAMED_UNIT(*)SI_UNIT($,.STERADIAN.)SOLID_ANGLE_UNIT());
#516=(GEOMETRIC_REPRESENTATION_CONTEXT(3)GLOBAL_UNIT_ASSIGNED_CONTEXT((#513,#514,#515))REPRESENTATION_CONTEXT('3','3D'));
#517=SHAPE_REPRESENTATION('AssemblyBlock<Spec: ShaftSpec>',(#505),#516);
#518=SHAPE_DEFINITION_REPRESENTATION(#512,#517);
#519=CARTESIAN_POINT($,(0,0,0));
#520=DIRECTION($,(0,0,-1));
#521=DIRECTION($,(1,0,0));
#522=AXIS2_PLACEMENT_3D($,#519,#520,#521);
#523=PLANE($,#522);
#524=CARTESIAN_POINT($,(-3,-3,-0));
#525=VERTEX_POINT($,#524);
#526=CARTESIAN_POINT($,(3,-3,-0));
#527=VERTEX_POINT($,#526);
#528=CARTESIAN_POINT($,(-3,-3,-0));
#529=DIRECTION($,(1,0,0));
#530=VECTOR($,#529,1);
#531=LINE($,#528,#530);
#532=EDGE_CURVE($,#525,#527,#531,.T.);
#533=ORIENTED_EDGE($,$,$,#532,.T.);
#534=CARTESIAN_POINT($,(3,3,-0));
#535=VERTEX_POINT($,#534);
#536=CARTESIAN_POINT($,(3,-3,-0));
#537=DIRECTION($,(0,1,0));
#538=VECTOR($,#537,1);
#539=LINE($,#536,#538);
#540=EDGE_CURVE($,#527,#535,#539,.T.);
#541=ORIENTED_EDGE($,$,$,#540,.T.);
#542=CARTESIAN_POINT($,(-3,3,-0));
#543=VERTEX_POINT($,#542);
#544=CARTESIAN_POINT($,(3,3,-0));
#545=DIRECTION($,(-1,0,0));
#546=VECTOR($,#545,1);
#547=LINE($,#544,#546);
#548=EDGE_CURVE($,#535,#543,#547,.T.);
#549=ORIENTED_EDGE($,$,$,#548,.T.);
#550=CARTESIAN_POINT($,(-3,3,-0));
#551=DIRECTION($,(0,-1,0));
#552=VECTOR($,#551,1);
#553=LINE($,#550,#552);
#554=EDGE_CURVE($,#543,#525,#553,.T.);
#555=ORIENTED_EDGE($,$,$,#554,.T.);
#556=EDGE_LOOP($,(#533,#541,#549,#555));
#557=FACE_OUTER_BOUND('',#556,.T.);
#558=ADVANCED_FACE('',(#557),#523,.T.);
#559=CARTESIAN_POINT($,(0,0,5));
#560=DIRECTION($,(0,0,1));
#561=DIRECTION($,(1,0,0));
#562=AXIS2_PLACEMENT_3D($,#559,#560,#561);
#563=PLANE($,#562);
#564=CARTESIAN_POINT($,(-2,2,5));
#565=VERTEX_POINT($,#564);
#566=CARTESIAN_POINT($,(-2,-2,5));
#567=VERTEX_POINT($,#566);
#568=CARTESIAN_POINT($,(-2,2,5));
#569=DIRECTION($,(0,-1,0));
#570=VECTOR($,#569,1);
#571=LINE($,#568,#570);
#572=EDGE_CURVE($,#565,#567,#571,.T.);
#573=ORIENTED_EDGE($,$,$,#572,.F.);
#574=CARTESIAN_POINT($,(2,2,5));
#575=VERTEX_POINT($,#574);
#576=CARTESIAN_POINT($,(2,2,5));
#577=DIRECTION($,(-1,0,0));
#578=VECTOR($,#577,1);
#579=LINE($,#576,#578);
#580=EDGE_CURVE($,#575,#565,#579,.T.);
#581=ORIENTED_EDGE($,$,$,#580,.F.);
#582=CARTESIAN_POINT($,(2,-2,5));
#583=VERTEX_POINT($,#582);
#584=CARTESIAN_POINT($,(2,-2,5));
#585=DIRECTION($,(0,1,0));
#586=VECTOR($,#585,1);
#587=LINE($,#584,#586);
#588=EDGE_CURVE($,#583,#575,#587,.T.);
#589=ORIENTED_EDGE($,$,$,#588,.F.);
#590=CARTESIAN_POINT($,(-2,-2,5));
#591=DIRECTION($,(1,0,0));
#592=VECTOR($,#591,1);
#593=LINE($,#590,#592);
#594=EDGE_CURVE($,#567,#583,#593,.T.);
#595=ORIENTED_EDGE($,$,$,#594,.F.);
#596=EDGE_LOOP($,(#573,#581,#589,#595));
#597=FACE_OUTER_BOUND('',#596,.T.);
#598=ADVANCED_FACE('',(#597),#563,.T.);
#599=CARTESIAN_POINT($,(-3,-3,0));
#600=DIRECTION($,(0,-1,0));
#601=DIRECTION($,(1,0,0));
#602=AXIS2_PLACEMENT_3D($,#599,#600,#601);
#603=PLANE($,#602);
#604=ORIENTED_EDGE($,$,$,#532,.T.);
#605=CARTESIAN_POINT($,(3,-3,4));
#606=VERTEX_POINT($,#605);
#607=CARTESIAN_POINT($,(3,-3,-0));
#608=DIRECTION($,(0,0,1));
#609=VECTOR($,#608,1);
#610=LINE($,#607,#609);
#611=EDGE_CURVE($,#527,#606,#610,.T.);
#612=ORIENTED_EDGE($,$,$,#611,.T.);
#613=CARTESIAN_POINT($,(-3,-3,4));
#614=VERTEX_POINT($,#613);
#615=CARTESIAN_POINT($,(-3,-3,4));
#616=DIRECTION($,(1,0,0));
#617=VECTOR($,#616,1);
#618=LINE($,#615,#617);
#619=EDGE_CURVE($,#614,#606,#618,.T.);
#620=ORIENTED_EDGE($,$,$,#619,.F.);
#621=CARTESIAN_POINT($,(-3,-3,-0));
#622=DIRECTION($,(0,0,1));
#623=VECTOR($,#622,1);
#624=LINE($,#621,#623);
#625=EDGE_CURVE($,#525,#614,#624,.T.);
#626=ORIENTED_EDGE($,$,$,#625,.F.);
#627=EDGE_LOOP($,(#604,#612,#620,#626));
#628=FACE_OUTER_BOUND('',#627,.T.);
#629=ADVANCED_FACE('',(#628),#603,.T.);
#630=CARTESIAN_POINT($,(3,-3,0));
#631=DIRECTION($,(1,0,0));
#632=DIRECTION($,(0,1,0));
#633=AXIS2_PLACEMENT_3D($,#630,#631,#632);
#634=PLANE($,#633);
#635=ORIENTED_EDGE($,$,$,#540,.T.);
#636=CARTESIAN_POINT($,(3,3,4));
#637=VERTEX_POINT($,#636);
#638=CARTESIAN_POINT($,(3,3,-0));
#639=DIRECTION($,(0,0,1));
#640=VECTOR($,#639,1);
#641=LINE($,#638,#640);
#642=EDGE_CURVE($,#535,#637,#641,.T.);
#643=ORIENTED_EDGE($,$,$,#642,.T.);
#644=CARTESIAN_POINT($,(3,-3,4));
#645=DIRECTION($,(0,1,0));
#646=VECTOR($,#645,1);
#647=LINE($,#644,#646);
#648=EDGE_CURVE($,#606,#637,#647,.T.);
#649=ORIENTED_EDGE($,$,$,#648,.F.);
#650=ORIENTED_EDGE($,$,$,#611,.F.);
#651=EDGE_LOOP($,(#635,#643,#649,#650));
#652=FACE_OUTER_BOUND('',#651,.T.);
#653=ADVANCED_FACE('',(#652),#634,.T.);
#654=CARTESIAN_POINT($,(3,3,0));
#655=DIRECTION($,(0,1,-0));
#656=DIRECTION($,(-1,0,0));
#657=AXIS2_PLACEMENT_3D($,#654,#655,#656);
#658=PLANE($,#657);
#659=ORIENTED_EDGE($,$,$,#548,.T.);
#660=CARTESIAN_POINT($,(-3,3,4));
#661=VERTEX_POINT($,#660);
#662=CARTESIAN_POINT($,(-3,3,-0));
#663=DIRECTION($,(0,0,1));
#664=VECTOR($,#663,1);
#665=LINE($,#662,#664);
#666=EDGE_CURVE($,#543,#661,#665,.T.);
#667=ORIENTED_EDGE($,$,$,#666,.T.);
#668=CARTESIAN_POINT($,(3,3,4));
#669=DIRECTION($,(-1,0,0));
#670=VECTOR($,#669,1);
#671=LINE($,#668,#670);
#672=EDGE_CURVE($,#637,#661,#671,.T.);
#673=ORIENTED_EDGE($,$,$,#672,.F.);
#674=ORIENTED_EDGE($,$,$,#642,.F.);
#675=EDGE_LOOP($,(#659,#667,#673,#674));
#676=FACE_OUTER_BOUND('',#675,.T.);
#677=ADVANCED_FACE('',(#676),#658,.T.);
#678=CARTESIAN_POINT($,(-3,3,0));
#679=DIRECTION($,(-1,0,0));
#680=DIRECTION($,(0,-1,0));
#681=AXIS2_PLACEMENT_3D($,#678,#679,#680);
#682=PLANE($,#681);
#683=ORIENTED_EDGE($,$,$,#554,.T.);
#684=ORIENTED_EDGE($,$,$,#625,.T.);
#685=CARTESIAN_POINT($,(-3,3,4));
#686=DIRECTION($,(0,-1,0));
#687=VECTOR($,#686,1);
#688=LINE($,#685,#687);
#689=EDGE_CURVE($,#661,#614,#688,.T.);
#690=ORIENTED_EDGE($,$,$,#689,.F.);
#691=ORIENTED_EDGE($,$,$,#666,.F.);
#692=EDGE_LOOP($,(#683,#684,#690,#691));
#693=FACE_OUTER_BOUND('',#692,.T.);
#694=ADVANCED_FACE('',(#693),#682,.T.);
#695=CARTESIAN_POINT($,(-3,-3,4));
#696=DIRECTION($,(0,-0.707106781186548,0.707106781186548));
#697=DIRECTION($,(1,0,0));
#698=AXIS2_PLACEMENT_3D($,#695,#696,#697);
#699=PLANE($,#698);
#700=ORIENTED_EDGE($,$,$,#619,.T.);
#701=CARTESIAN_POINT($,(3,-3,4));
#702=DIRECTION($,(-0.577350269189626,0.577350269189626,0.577350269189626));
#703=VECTOR($,#702,1);
#704=LINE($,#701,#703);
#705=EDGE_CURVE($,#606,#583,#704,.T.);
#706=ORIENTED_EDGE($,$,$,#705,.T.);
#707=ORIENTED_EDGE($,$,$,#594,.F.);
#708=CARTESIAN_POINT($,(-3,-3,4));
#709=DIRECTION($,(0.577350269189626,0.577350269189626,0.577350269189626));
#710=VECTOR($,#709,1);
#711=LINE($,#708,#710);
#712=EDGE_CURVE($,#614,#567,#711,.T.);
#713=ORIENTED_EDGE($,$,$,#712,.F.);
#714=EDGE_LOOP($,(#700,#706,#707,#713));
#715=FACE_OUTER_BOUND('',#714,.T.);
#716=ADVANCED_FACE('',(#715),#699,.T.);
#717=CARTESIAN_POINT($,(3,-3,4));
#718=DIRECTION($,(0.707106781186548,-0,0.707106781186548));
#719=DIRECTION($,(0,1,0));
#720=AXIS2_PLACEMENT_3D($,#717,#718,#719);
#721=PLANE($,#720);
#722=ORIENTED_EDGE($,$,$,#648,.T.);
#723=CARTESIAN_POINT($,(3,3,4));
#724=DIRECTION($,(-0.577350269189626,-0.577350269189626,0.577350269189626));
#725=VECTOR($,#724,1);
#726=LINE($,#723,#725);
#727=EDGE_CURVE($,#637,#575,#726,.T.);
#728=ORIENTED_EDGE($,$,$,#727,.T.);
#729=ORIENTED_EDGE($,$,$,#588,.F.);
#730=ORIENTED_EDGE($,$,$,#705,.F.);
#731=EDGE_LOOP($,(#722,#728,#729,#730));
#732=FACE_OUTER_BOUND('',#731,.T.);
#733=ADVANCED_FACE('',(#732),#721,.T.);
#734=CARTESIAN_POINT($,(3,3,4));
#735=DIRECTION($,(0,0.707106781186548,0.707106781186548));
#736=DIRECTION($,(-1,0,0));
#737=AXIS2_PLACEMENT_3D($,#734,#735,#736);
#738=PLANE($,#737);
#739=ORIENTED_EDGE($,$,$,#672,.T.);
#740=CARTESIAN_POINT($,(-3,3,4));
#741=DIRECTION($,(0.577350269189626,-0.577350269189626,0.577350269189626));
#742=VECTOR($,#741,1);
#743=LINE($,#740,#742);
#744=EDGE_CURVE($,#661,#565,#743,.T.);
#745=ORIENTED_EDGE($,$,$,#744,.T.);
#746=ORIENTED_EDGE($,$,$,#580,.F.);
#747=ORIENTED_EDGE($,$,$,#727,.F.);
#748=EDGE_LOOP($,(#739,#745,#746,#747));
#749=FACE_OUTER_BOUND('',#748,.T.);
#750=ADVANCED_FACE('',(#749),#738,.T.);
#751=CARTESIAN_POINT($,(-3,3,4));
#752=DIRECTION($,(-0.707106781186548,0,0.707106781186548));
#753=DIRECTION($,(0,-1,0));
#754=AXIS2_PLACEMENT_3D($,#751,#752,#753);
#755=PLANE($,#754);
#756=ORIENTED_EDGE($,$,$,#689,.T.);
#757=ORIENTED_EDGE($,$,$,#712,.T.);
#758=ORIENTED_EDGE($,$,$,#572,.F.);
#759=ORIENTED_EDGE($,$,$,#744,.F.);
#760=EDGE_LOOP($,(#756,#757,#758,#759));
#761=FACE_OUTER_BOUND('',#760,.T.);
#762=ADVANCED_FACE('',(#761),#755,.T.);
#763=CLOSED_SHELL($,(#558,#598,#629,#653,#677,#694,#716,#733,#750,#762));
#764=MANIFOLD_SOLID_BREP('AssemblyBlock<Spec: SpacerSpec>',#763);
#765=APPLICATION_CONTEXT('mechanical design');
#766=PRODUCT_CONTEXT('',#765,'mechanical');
#767=PRODUCT('assembly-definition:FE4D3B5CEA66AF52','AssemblyBlock<Spec: SpacerSpec>','Aetheris shared assembly definition',(#766));
#768=PRODUCT_DEFINITION_FORMATION('','',#767);
#769=PRODUCT_DEFINITION_CONTEXT('design',#765,'design');
#770=PRODUCT_DEFINITION('','',#768,#769);
#771=PRODUCT_DEFINITION_SHAPE('','',#770);
#772=(LENGTH_UNIT()NAMED_UNIT(*)SI_UNIT(.MILLI.,.METRE.));
#773=(NAMED_UNIT(*)PLANE_ANGLE_UNIT()SI_UNIT($,.RADIAN.));
#774=(NAMED_UNIT(*)SI_UNIT($,.STERADIAN.)SOLID_ANGLE_UNIT());
#775=(GEOMETRIC_REPRESENTATION_CONTEXT(3)GLOBAL_UNIT_ASSIGNED_CONTEXT((#772,#773,#774))REPRESENTATION_CONTEXT('3','3D'));
#776=SHAPE_REPRESENTATION('AssemblyBlock<Spec: SpacerSpec>',(#764),#775);
#777=SHAPE_DEFINITION_REPRESENTATION(#771,#776);
#778=APPLICATION_CONTEXT('mechanical design');
#779=PRODUCT_CONTEXT('',#778,'mechanical');
#780=PRODUCT_DEFINITION_CONTEXT('design',#778,'design');
#781=(LENGTH_UNIT()NAMED_UNIT(*)SI_UNIT(.MILLI.,.METRE.));
#782=(NAMED_UNIT(*)PLANE_ANGLE_UNIT()SI_UNIT($,.RADIAN.));
#783=(NAMED_UNIT(*)SI_UNIT($,.STERADIAN.)SOLID_ANGLE_UNIT());
#784=(GEOMETRIC_REPRESENTATION_CONTEXT(3)GLOBAL_UNIT_ASSIGNED_CONTEXT((#781,#782,#783))REPRESENTATION_CONTEXT('3','3D'));
#785=PRODUCT('assembly-definition:232D83A6D04B59D4','BearingModule<Spec:StandardModuleSpec>','Aetheris reusable assembly definition',(#779));
#786=PRODUCT_DEFINITION_FORMATION('','',#785);
#787=PRODUCT_DEFINITION('assembly-definition:232D83A6D04B59D4','',#786,#780);
#788=PRODUCT_DEFINITION_SHAPE('','',#787);
#789=SHAPE_REPRESENTATION('BearingModule<Spec:StandardModuleSpec>',(),#784);
#790=SHAPE_DEFINITION_REPRESENTATION(#788,#789);
#791=PRODUCT('assembly-instance:Machine','Machine','Aetheris assembly product',(#779));
#792=PRODUCT_DEFINITION_FORMATION('','',#791);
#793=PRODUCT_DEFINITION('assembly-instance:Machine','',#792,#780);
#794=PRODUCT_DEFINITION_SHAPE('','',#793);
#795=SHAPE_REPRESENTATION('Machine',(),#784);
#796=SHAPE_DEFINITION_REPRESENTATION(#794,#795);
#797=CARTESIAN_POINT('',(0.,0.,0.));
#798=AXIS2_PLACEMENT_3D('',#797,$,$);
#799=NEXT_ASSEMBLY_USAGE_OCCURRENCE('assembly-instance:Machine.Frame','Frame','',#793,#252,$);
#800=PRODUCT_DEFINITION_SHAPE('','',#799);
#801=CARTESIAN_POINT('',(0,0,0));
#802=DIRECTION('',(0,0,1));
#803=DIRECTION('',(1,0,0));
#804=AXIS2_PLACEMENT_3D('',#801,#802,#803);
#805=ITEM_DEFINED_TRANSFORMATION('assembly-instance:Machine.Frame','Aetheris rigid occurrence transform',#798,#804);
#806=REPRESENTATION_RELATIONSHIP_WITH_TRANSFORMATION('assembly-instance:Machine.Frame','',#795,#258,#805);
#807=CONTEXT_DEPENDENT_SHAPE_REPRESENTATION(#806,#800);
#808=NEXT_ASSEMBLY_USAGE_OCCURRENCE('assembly-instance:Machine.LeftModule','LeftModule','',#793,#787,$);
#809=PRODUCT_DEFINITION_SHAPE('','',#808);
#810=CARTESIAN_POINT('',(-30,0,0));
#811=DIRECTION('',(0,0,1));
#812=DIRECTION('',(1,0,0));
#813=AXIS2_PLACEMENT_3D('',#810,#811,#812);
#814=ITEM_DEFINED_TRANSFORMATION('assembly-instance:Machine.LeftModule','Aetheris rigid occurrence transform',#798,#813);
#815=REPRESENTATION_RELATIONSHIP_WITH_TRANSFORMATION('assembly-instance:Machine.LeftModule','',#795,#789,#814);
#816=CONTEXT_DEPENDENT_SHAPE_REPRESENTATION(#815,#809);
#817=NEXT_ASSEMBLY_USAGE_OCCURRENCE('definition-usage:assembly-definition:232D83A6D04B59D4|Bearing|assembly-definition:FE4D3B5CEA66AF52|1,0,0,0,0,1,0,0,0,0,1,0,0,30,0,1','Bearing','',#787,#770,$);
#818=PRODUCT_DEFINITION_SHAPE('','',#817);
#819=CARTESIAN_POINT('',(0,30,0));
#820=DIRECTION('',(0,0,1));
#821=DIRECTION('',(1,0,0));
#822=AXIS2_PLACEMENT_3D('',#819,#820,#821);
#823=ITEM_DEFINED_TRANSFORMATION('definition-usage:assembly-definition:232D83A6D04B59D4|Bearing|assembly-definition:FE4D3B5CEA66AF52|1,0,0,0,0,1,0,0,0,0,1,0,0,30,0,1','Aetheris rigid occurrence transform',#798,#822);
#824=REPRESENTATION_RELATIONSHIP_WITH_TRANSFORMATION('definition-usage:assembly-definition:232D83A6D04B59D4|Bearing|assembly-definition:FE4D3B5CEA66AF52|1,0,0,0,0,1,0,0,0,0,1,0,0,30,0,1','',#789,#776,#823);
#825=CONTEXT_DEPENDENT_SHAPE_REPRESENTATION(#824,#818);
#826=NEXT_ASSEMBLY_USAGE_OCCURRENCE('definition-usage:assembly-definition:232D83A6D04B59D4|Housing|assembly-definition:2D6E0B6EEEAE5CE1|1,0,0,0,0,1,0,0,0,0,1,0,0,0,0,1','Housing','',#787,#252,$);
#827=PRODUCT_DEFINITION_SHAPE('','',#826);
#828=CARTESIAN_POINT('',(0,0,0));
#829=DIRECTION('',(0,0,1));
#830=DIRECTION('',(1,0,0));
#831=AXIS2_PLACEMENT_3D('',#828,#829,#830);
#832=ITEM_DEFINED_TRANSFORMATION('definition-usage:assembly-definition:232D83A6D04B59D4|Housing|assembly-definition:2D6E0B6EEEAE5CE1|1,0,0,0,0,1,0,0,0,0,1,0,0,0,0,1','Aetheris rigid occurrence transform',#798,#831);
#833=REPRESENTATION_RELATIONSHIP_WITH_TRANSFORMATION('definition-usage:assembly-definition:232D83A6D04B59D4|Housing|assembly-definition:2D6E0B6EEEAE5CE1|1,0,0,0,0,1,0,0,0,0,1,0,0,0,0,1','',#789,#258,#832);
#834=CONTEXT_DEPENDENT_SHAPE_REPRESENTATION(#833,#827);
#835=NEXT_ASSEMBLY_USAGE_OCCURRENCE('definition-usage:assembly-definition:232D83A6D04B59D4|Shaft|assembly-definition:589802EEFAB8DBFE|1,0,0,0,0,1,0,0,0,0,1,0,0,0,10,1','Shaft','',#787,#511,$);
#836=PRODUCT_DEFINITION_SHAPE('','',#835);
#837=CARTESIAN_POINT('',(0,0,10));
#838=DIRECTION('',(0,0,1));
#839=DIRECTION('',(1,0,0));
#840=AXIS2_PLACEMENT_3D('',#837,#838,#839);
#841=ITEM_DEFINED_TRANSFORMATION('definition-usage:assembly-definition:232D83A6D04B59D4|Shaft|assembly-definition:589802EEFAB8DBFE|1,0,0,0,0,1,0,0,0,0,1,0,0,0,10,1','Aetheris rigid occurrence transform',#798,#840);
#842=REPRESENTATION_RELATIONSHIP_WITH_TRANSFORMATION('definition-usage:assembly-definition:232D83A6D04B59D4|Shaft|assembly-definition:589802EEFAB8DBFE|1,0,0,0,0,1,0,0,0,0,1,0,0,0,10,1','',#789,#517,#841);
#843=CONTEXT_DEPENDENT_SHAPE_REPRESENTATION(#842,#836);
#844=NEXT_ASSEMBLY_USAGE_OCCURRENCE('definition-usage:assembly-definition:232D83A6D04B59D4|Spacer|assembly-definition:FE4D3B5CEA66AF52|1,0,0,0,0,1,0,0,0,0,1,0,0,50,0,1','Spacer','',#787,#770,$);
#845=PRODUCT_DEFINITION_SHAPE('','',#844);
#846=CARTESIAN_POINT('',(0,50,0));
#847=DIRECTION('',(0,0,1));
#848=DIRECTION('',(1,0,0));
#849=AXIS2_PLACEMENT_3D('',#846,#847,#848);
#850=ITEM_DEFINED_TRANSFORMATION('definition-usage:assembly-definition:232D83A6D04B59D4|Spacer|assembly-definition:FE4D3B5CEA66AF52|1,0,0,0,0,1,0,0,0,0,1,0,0,50,0,1','Aetheris rigid occurrence transform',#798,#849);
#851=REPRESENTATION_RELATIONSHIP_WITH_TRANSFORMATION('definition-usage:assembly-definition:232D83A6D04B59D4|Spacer|assembly-definition:FE4D3B5CEA66AF52|1,0,0,0,0,1,0,0,0,0,1,0,0,50,0,1','',#789,#776,#850);
#852=CONTEXT_DEPENDENT_SHAPE_REPRESENTATION(#851,#845);
#853=NEXT_ASSEMBLY_USAGE_OCCURRENCE('assembly-instance:Machine.RightModule','RightModule','',#793,#787,$);
#854=PRODUCT_DEFINITION_SHAPE('','',#853);
#855=CARTESIAN_POINT('',(30,0,0));
#856=DIRECTION('',(0,0,1));
#857=DIRECTION('',(1,0,0));
#858=AXIS2_PLACEMENT_3D('',#855,#856,#857);
#859=ITEM_DEFINED_TRANSFORMATION('assembly-instance:Machine.RightModule','Aetheris rigid occurrence transform',#798,#858);
#860=REPRESENTATION_RELATIONSHIP_WITH_TRANSFORMATION('assembly-instance:Machine.RightModule','',#795,#789,#859);
#861=CONTEXT_DEPENDENT_SHAPE_REPRESENTATION(#860,#854);
ENDSEC;
END-ISO-10303-21;
