ISO-10303-21;
HEADER;
FILE_DESCRIPTION(('Aetheris AP242 subset export'),'2;1');
FILE_NAME('aetheris_export.step','1970-01-01T00:00:00',('Aetheris'),('Aetheris'),'Aetheris.Kernel','Aetheris.Kernel','');
FILE_SCHEMA(('AP242_MANAGED_MODEL_BASED_3D_ENGINEERING_MIM_LF'));
ENDSEC;
DATA;
#1=CARTESIAN_POINT($,(0,6.5,3.75277674973257));
#2=DIRECTION($,(-0,0.5,0.866025403784439));
#3=DIRECTION($,(1,0,0));
#4=AXIS2_PLACEMENT_3D($,#1,#2,#3);
#5=PLANE($,#4);
#6=CARTESIAN_POINT($,(-0,6.5,3.75277674973257));
#7=VERTEX_POINT($,#6);
#8=CARTESIAN_POINT($,(0,0.000000000000001,7.50555349946513));
#9=VERTEX_POINT($,#8);
#10=CARTESIAN_POINT($,(-0,6.5,3.75277674973257));
#11=DIRECTION($,(0,-0.866025403784439,0.5));
#12=VECTOR($,#11,1);
#13=LINE($,#10,#12);
#14=EDGE_CURVE($,#7,#9,#13,.T.);
#15=ORIENTED_EDGE($,$,$,#14,.T.);
#16=CARTESIAN_POINT($,(-4.67955271361447,0,7.50555349946513));
#17=VERTEX_POINT($,#16);
#18=CARTESIAN_POINT($,(0,0.000000000000001,7.50555349946513));
#19=DIRECTION($,(-1,0,0));
#20=VECTOR($,#19,1);
#21=LINE($,#18,#20);
#22=EDGE_CURVE($,#9,#17,#21,.T.);
#23=ORIENTED_EDGE($,$,$,#22,.T.);
#24=CARTESIAN_POINT($,(-4.67955271361447,6.5,3.75277674973257));
#25=VERTEX_POINT($,#24);
#26=CARTESIAN_POINT($,(-8.17944978910712,3.25,5.62916512459885));
#27=DIRECTION($,(-0,-0.5,-0.866025403784439));
#28=DIRECTION($,(1,0,0));
#29=AXIS2_PLACEMENT_3D($,#26,#27,#28);
#30=HYPERBOLA($,#29,3.03099977800749,6.5);
#31=TRIMMED_CURVE($,#30,(PARAMETER_VALUE(-0.549306144334055)),(PARAMETER_VALUE(0.549306144334055)),.T.,.PARAMETER.);
#32=EDGE_CURVE($,#25,#17,#31,.T.);
#33=ORIENTED_EDGE($,$,$,#32,.F.);
#34=CARTESIAN_POINT($,(-0,6.5,3.75277674973257));
#35=DIRECTION($,(-1,0,0));
#36=VECTOR($,#35,1);
#37=LINE($,#34,#36);
#38=EDGE_CURVE($,#7,#25,#37,.T.);
#39=ORIENTED_EDGE($,$,$,#38,.F.);
#40=EDGE_LOOP($,(#15,#23,#33,#39));
#41=FACE_OUTER_BOUND('',#40,.T.);
#42=ADVANCED_FACE('',(#41),#5,.T.);
#43=CARTESIAN_POINT($,(0,0,7.50555349946513));
#44=DIRECTION($,(0,-0.5,0.866025403784439));
#45=DIRECTION($,(1,0,0));
#46=AXIS2_PLACEMENT_3D($,#43,#44,#45);
#47=PLANE($,#46);
#48=CARTESIAN_POINT($,(0,-6.5,3.75277674973257));
#49=VERTEX_POINT($,#48);
#50=CARTESIAN_POINT($,(0,0.000000000000001,7.50555349946513));
#51=DIRECTION($,(0,-0.866025403784439,-0.5));
#52=VECTOR($,#51,1);
#53=LINE($,#50,#52);
#54=EDGE_CURVE($,#9,#49,#53,.T.);
#55=ORIENTED_EDGE($,$,$,#54,.T.);
#56=CARTESIAN_POINT($,(-4.67955271361447,-6.5,3.75277674973257));
#57=VERTEX_POINT($,#56);
#58=CARTESIAN_POINT($,(0,-6.5,3.75277674973257));
#59=DIRECTION($,(-1,0,0));
#60=VECTOR($,#59,1);
#61=LINE($,#58,#60);
#62=EDGE_CURVE($,#49,#57,#61,.T.);
#63=ORIENTED_EDGE($,$,$,#62,.T.);
#64=CARTESIAN_POINT($,(-8.17944978910712,-3.25,5.62916512459885));
#65=DIRECTION($,(-0,0.5,-0.866025403784439));
#66=DIRECTION($,(1,0,0));
#67=AXIS2_PLACEMENT_3D($,#64,#65,#66);
#68=HYPERBOLA($,#67,3.03099977800749,6.5);
#69=TRIMMED_CURVE($,#68,(PARAMETER_VALUE(-0.549306144334055)),(PARAMETER_VALUE(0.549306144334055)),.T.,.PARAMETER.);
#70=EDGE_CURVE($,#17,#57,#69,.T.);
#71=ORIENTED_EDGE($,$,$,#70,.F.);
#72=ORIENTED_EDGE($,$,$,#22,.F.);
#73=EDGE_LOOP($,(#55,#63,#71,#72));
#74=FACE_OUTER_BOUND('',#73,.T.);
#75=ADVANCED_FACE('',(#74),#47,.T.);
#76=CARTESIAN_POINT($,(0,-6.5,3.75277674973257));
#77=DIRECTION($,(0,-1,0));
#78=DIRECTION($,(1,0,0));
#79=AXIS2_PLACEMENT_3D($,#76,#77,#78);
#80=PLANE($,#79);
#81=CARTESIAN_POINT($,(0,-6.5,-3.75277674973256));
#82=VERTEX_POINT($,#81);
#83=CARTESIAN_POINT($,(0,-6.5,3.75277674973257));
#84=DIRECTION($,(0,-0,-1));
#85=VECTOR($,#84,1);
#86=LINE($,#83,#85);
#87=EDGE_CURVE($,#49,#82,#86,.T.);
#88=ORIENTED_EDGE($,$,$,#87,.T.);
#89=CARTESIAN_POINT($,(-4.67955271361447,-6.5,-3.75277674973256));
#90=VERTEX_POINT($,#89);
#91=CARTESIAN_POINT($,(0,-6.5,-3.75277674973256));
#92=DIRECTION($,(-1,0,0));
#93=VECTOR($,#92,1);
#94=LINE($,#91,#93);
#95=EDGE_CURVE($,#82,#90,#94,.T.);
#96=ORIENTED_EDGE($,$,$,#95,.T.);
#97=CARTESIAN_POINT($,(-8.17944978910712,-6.5,0.000000000000001));
#98=DIRECTION($,(-0,1,-0));
#99=DIRECTION($,(1,0,0));
#100=AXIS2_PLACEMENT_3D($,#97,#98,#99);
#101=HYPERBOLA($,#100,3.03099977800749,6.5);
#102=TRIMMED_CURVE($,#101,(PARAMETER_VALUE(-0.549306144334055)),(PARAMETER_VALUE(0.549306144334055)),.T.,.PARAMETER.);
#103=EDGE_CURVE($,#57,#90,#102,.T.);
#104=ORIENTED_EDGE($,$,$,#103,.F.);
#105=ORIENTED_EDGE($,$,$,#62,.F.);
#106=EDGE_LOOP($,(#88,#96,#104,#105));
#107=FACE_OUTER_BOUND('',#106,.T.);
#108=ADVANCED_FACE('',(#107),#80,.T.);
#109=CARTESIAN_POINT($,(0,-6.5,-3.75277674973256));
#110=DIRECTION($,(0,-0.5,-0.866025403784439));
#111=DIRECTION($,(1,0,0));
#112=AXIS2_PLACEMENT_3D($,#109,#110,#111);
#113=PLANE($,#112);
#114=CARTESIAN_POINT($,(0,-0.000000000000002,-7.50555349946513));
#115=VERTEX_POINT($,#114);
#116=CARTESIAN_POINT($,(0,-6.5,-3.75277674973256));
#117=DIRECTION($,(0,0.866025403784439,-0.5));
#118=VECTOR($,#117,1);
#119=LINE($,#116,#118);
#120=EDGE_CURVE($,#82,#115,#119,.T.);
#121=ORIENTED_EDGE($,$,$,#120,.T.);
#122=CARTESIAN_POINT($,(-4.67955271361447,-0.000000000000001,-7.50555349946513));
#123=VERTEX_POINT($,#122);
#124=CARTESIAN_POINT($,(0,-0.000000000000002,-7.50555349946513));
#125=DIRECTION($,(-1,0,0));
#126=VECTOR($,#125,1);
#127=LINE($,#124,#126);
#128=EDGE_CURVE($,#115,#123,#127,.T.);
#129=ORIENTED_EDGE($,$,$,#128,.T.);
#130=CARTESIAN_POINT($,(-8.17944978910712,-3.25,-5.62916512459885));
#131=DIRECTION($,(-0,0.5,0.866025403784438));
#132=DIRECTION($,(1,0,0));
#133=AXIS2_PLACEMENT_3D($,#130,#131,#132);
#134=HYPERBOLA($,#133,3.03099977800749,6.5);
#135=TRIMMED_CURVE($,#134,(PARAMETER_VALUE(-0.549306144334055)),(PARAMETER_VALUE(0.549306144334055)),.T.,.PARAMETER.);
#136=EDGE_CURVE($,#90,#123,#135,.T.);
#137=ORIENTED_EDGE($,$,$,#136,.F.);
#138=ORIENTED_EDGE($,$,$,#95,.F.);
#139=EDGE_LOOP($,(#121,#129,#137,#138));
#140=FACE_OUTER_BOUND('',#139,.T.);
#141=ADVANCED_FACE('',(#140),#113,.T.);
#142=CARTESIAN_POINT($,(0,-0.000000000000001,-7.50555349946513));
#143=DIRECTION($,(0,0.5,-0.866025403784439));
#144=DIRECTION($,(1,0,0));
#145=AXIS2_PLACEMENT_3D($,#142,#143,#144);
#146=PLANE($,#145);
#147=CARTESIAN_POINT($,(0,6.5,-3.75277674973257));
#148=VERTEX_POINT($,#147);
#149=CARTESIAN_POINT($,(0,-0.000000000000002,-7.50555349946513));
#150=DIRECTION($,(0,0.866025403784439,0.5));
#151=VECTOR($,#150,1);
#152=LINE($,#149,#151);
#153=EDGE_CURVE($,#115,#148,#152,.T.);
#154=ORIENTED_EDGE($,$,$,#153,.T.);
#155=CARTESIAN_POINT($,(-4.67955271361447,6.5,-3.75277674973257));
#156=VERTEX_POINT($,#155);
#157=CARTESIAN_POINT($,(0,6.5,-3.75277674973257));
#158=DIRECTION($,(-1,0,0));
#159=VECTOR($,#158,1);
#160=LINE($,#157,#159);
#161=EDGE_CURVE($,#148,#156,#160,.T.);
#162=ORIENTED_EDGE($,$,$,#161,.T.);
#163=CARTESIAN_POINT($,(-8.17944978910712,3.25,-5.62916512459885));
#164=DIRECTION($,(-0,-0.499999999999999,0.866025403784439));
#165=DIRECTION($,(1,0,0));
#166=AXIS2_PLACEMENT_3D($,#163,#164,#165);
#167=HYPERBOLA($,#166,3.03099977800749,6.5);
#168=TRIMMED_CURVE($,#167,(PARAMETER_VALUE(-0.549306144334054)),(PARAMETER_VALUE(0.549306144334055)),.T.,.PARAMETER.);
#169=EDGE_CURVE($,#123,#156,#168,.T.);
#170=ORIENTED_EDGE($,$,$,#169,.F.);
#171=ORIENTED_EDGE($,$,$,#128,.F.);
#172=EDGE_LOOP($,(#154,#162,#170,#171));
#173=FACE_OUTER_BOUND('',#172,.T.);
#174=ADVANCED_FACE('',(#173),#146,.T.);
#175=CARTESIAN_POINT($,(0,6.5,-3.75277674973257));
#176=DIRECTION($,(0,1,-0));
#177=DIRECTION($,(1,0,0));
#178=AXIS2_PLACEMENT_3D($,#175,#176,#177);
#179=PLANE($,#178);
#180=CARTESIAN_POINT($,(0,6.5,-3.75277674973257));
#181=DIRECTION($,(0,0,1));
#182=VECTOR($,#181,1);
#183=LINE($,#180,#182);
#184=EDGE_CURVE($,#148,#7,#183,.T.);
#185=ORIENTED_EDGE($,$,$,#184,.T.);
#186=ORIENTED_EDGE($,$,$,#38,.T.);
#187=CARTESIAN_POINT($,(-8.17944978910712,6.5,-0.000000000000007));
#188=DIRECTION($,(-0,-1,0.000000000000001));
#189=DIRECTION($,(1,0,0));
#190=AXIS2_PLACEMENT_3D($,#187,#188,#189);
#191=HYPERBOLA($,#190,3.03099977800749,6.5);
#192=TRIMMED_CURVE($,#191,(PARAMETER_VALUE(-0.549306144334054)),(PARAMETER_VALUE(0.549306144334056)),.T.,.PARAMETER.);
#193=EDGE_CURVE($,#156,#25,#192,.T.);
#194=ORIENTED_EDGE($,$,$,#193,.F.);
#195=ORIENTED_EDGE($,$,$,#161,.F.);
#196=EDGE_LOOP($,(#185,#186,#194,#195));
#197=FACE_OUTER_BOUND('',#196,.T.);
#198=ADVANCED_FACE('',(#197),#179,.T.);
#199=CARTESIAN_POINT($,(-8.17944978910712,0,0));
#200=DIRECTION($,(1,0,0));
#201=DIRECTION($,(0,1,0));
#202=AXIS2_PLACEMENT_3D($,#199,#200,#201);
#203=CONICAL_SURFACE($,#202,0,1.13446401379631);
#204=CARTESIAN_POINT($,(-5.3,5.34770686836891,3.0875));
#205=VERTEX_POINT($,#204);
#206=CARTESIAN_POINT($,(-5.3,0,6.175));
#207=VERTEX_POINT($,#206);
#208=CARTESIAN_POINT($,(-5.3,0,0));
#209=DIRECTION($,(1,0,0));
#210=DIRECTION($,(0,1,0));
#211=AXIS2_PLACEMENT_3D($,#208,#209,#210);
#212=CIRCLE($,#211,6.175);
#213=TRIMMED_CURVE($,#212,(PARAMETER_VALUE(0.523598775598299)),(PARAMETER_VALUE(1.5707963267949)),.T.,.PARAMETER.);
#214=EDGE_CURVE($,#205,#207,#213,.T.);
#215=ORIENTED_EDGE($,$,$,#214,.T.);
#216=CARTESIAN_POINT($,(-5.3,0,6.175));
#217=DIRECTION($,(0.4226182617407,0,0.90630778703665));
#218=VECTOR($,#217,1);
#219=LINE($,#216,#218);
#220=EDGE_CURVE($,#207,#17,#219,.T.);
#221=ORIENTED_EDGE($,$,$,#220,.T.);
#222=ORIENTED_EDGE($,$,$,#32,.F.);
#223=CARTESIAN_POINT($,(-5.3,5.34770686836891,3.0875));
#224=DIRECTION($,(0.4226182617407,0.784885567221396,0.453153893518325));
#225=VECTOR($,#224,1);
#226=LINE($,#223,#225);
#227=EDGE_CURVE($,#205,#25,#226,.T.);
#228=ORIENTED_EDGE($,$,$,#227,.F.);
#229=EDGE_LOOP($,(#215,#221,#222,#228));
#230=FACE_OUTER_BOUND('',#229,.T.);
#231=ADVANCED_FACE('',(#230),#203,.T.);
#232=CARTESIAN_POINT($,(-5.3,-5.34770686836891,3.0875));
#233=VERTEX_POINT($,#232);
#234=CARTESIAN_POINT($,(-5.3,0,0));
#235=DIRECTION($,(1,0,0));
#236=DIRECTION($,(0,1,0));
#237=AXIS2_PLACEMENT_3D($,#234,#235,#236);
#238=CIRCLE($,#237,6.175);
#239=TRIMMED_CURVE($,#238,(PARAMETER_VALUE(1.5707963267949)),(PARAMETER_VALUE(2.61799387799149)),.T.,.PARAMETER.);
#240=EDGE_CURVE($,#207,#233,#239,.T.);
#241=ORIENTED_EDGE($,$,$,#240,.T.);
#242=CARTESIAN_POINT($,(-5.3,-5.34770686836891,3.0875));
#243=DIRECTION($,(0.4226182617407,-0.784885567221395,0.453153893518325));
#244=VECTOR($,#243,1);
#245=LINE($,#242,#244);
#246=EDGE_CURVE($,#233,#57,#245,.T.);
#247=ORIENTED_EDGE($,$,$,#246,.T.);
#248=ORIENTED_EDGE($,$,$,#70,.F.);
#249=ORIENTED_EDGE($,$,$,#220,.F.);
#250=EDGE_LOOP($,(#241,#247,#248,#249));
#251=FACE_OUTER_BOUND('',#250,.T.);
#252=ADVANCED_FACE('',(#251),#203,.T.);
#253=CARTESIAN_POINT($,(-5.3,-5.34770686836891,-3.0875));
#254=VERTEX_POINT($,#253);
#255=CARTESIAN_POINT($,(-5.3,0,0));
#256=DIRECTION($,(1,0,0));
#257=DIRECTION($,(0,1,0));
#258=AXIS2_PLACEMENT_3D($,#255,#256,#257);
#259=CIRCLE($,#258,6.175);
#260=TRIMMED_CURVE($,#259,(PARAMETER_VALUE(2.61799387799149)),(PARAMETER_VALUE(3.66519142918809)),.T.,.PARAMETER.);
#261=EDGE_CURVE($,#233,#254,#260,.T.);
#262=ORIENTED_EDGE($,$,$,#261,.T.);
#263=CARTESIAN_POINT($,(-5.3,-5.34770686836891,-3.0875));
#264=DIRECTION($,(0.4226182617407,-0.784885567221396,-0.453153893518324));
#265=VECTOR($,#264,1);
#266=LINE($,#263,#265);
#267=EDGE_CURVE($,#254,#90,#266,.T.);
#268=ORIENTED_EDGE($,$,$,#267,.T.);
#269=ORIENTED_EDGE($,$,$,#103,.F.);
#270=ORIENTED_EDGE($,$,$,#246,.F.);
#271=EDGE_LOOP($,(#262,#268,#269,#270));
#272=FACE_OUTER_BOUND('',#271,.T.);
#273=ADVANCED_FACE('',(#272),#203,.T.);
#274=CARTESIAN_POINT($,(-5.3,-0.000000000000001,-6.175));
#275=VERTEX_POINT($,#274);
#276=CARTESIAN_POINT($,(-5.3,0,0));
#277=DIRECTION($,(1,0,0));
#278=DIRECTION($,(0,1,0));
#279=AXIS2_PLACEMENT_3D($,#276,#277,#278);
#280=CIRCLE($,#279,6.175);
#281=TRIMMED_CURVE($,#280,(PARAMETER_VALUE(3.66519142918809)),(PARAMETER_VALUE(4.71238898038469)),.T.,.PARAMETER.);
#282=EDGE_CURVE($,#254,#275,#281,.T.);
#283=ORIENTED_EDGE($,$,$,#282,.T.);
#284=CARTESIAN_POINT($,(-5.3,-0.000000000000001,-6.175));
#285=DIRECTION($,(0.4226182617407,-0,-0.90630778703665));
#286=VECTOR($,#285,1);
#287=LINE($,#284,#286);
#288=EDGE_CURVE($,#275,#123,#287,.T.);
#289=ORIENTED_EDGE($,$,$,#288,.T.);
#290=ORIENTED_EDGE($,$,$,#136,.F.);
#291=ORIENTED_EDGE($,$,$,#267,.F.);
#292=EDGE_LOOP($,(#283,#289,#290,#291));
#293=FACE_OUTER_BOUND('',#292,.T.);
#294=ADVANCED_FACE('',(#293),#203,.T.);
#295=CARTESIAN_POINT($,(-5.3,5.34770686836891,-3.0875));
#296=VERTEX_POINT($,#295);
#297=CARTESIAN_POINT($,(-5.3,0,0));
#298=DIRECTION($,(1,0,0));
#299=DIRECTION($,(0,1,0));
#300=AXIS2_PLACEMENT_3D($,#297,#298,#299);
#301=CIRCLE($,#300,6.175);
#302=TRIMMED_CURVE($,#301,(PARAMETER_VALUE(4.71238898038469)),(PARAMETER_VALUE(5.75958653158129)),.T.,.PARAMETER.);
#303=EDGE_CURVE($,#275,#296,#302,.T.);
#304=ORIENTED_EDGE($,$,$,#303,.T.);
#305=CARTESIAN_POINT($,(-5.3,5.34770686836891,-3.0875));
#306=DIRECTION($,(0.4226182617407,0.784885567221395,-0.453153893518325));
#307=VECTOR($,#306,1);
#308=LINE($,#305,#307);
#309=EDGE_CURVE($,#296,#156,#308,.T.);
#310=ORIENTED_EDGE($,$,$,#309,.T.);
#311=ORIENTED_EDGE($,$,$,#169,.F.);
#312=ORIENTED_EDGE($,$,$,#288,.F.);
#313=EDGE_LOOP($,(#304,#310,#311,#312));
#314=FACE_OUTER_BOUND('',#313,.T.);
#315=ADVANCED_FACE('',(#314),#203,.T.);
#316=CARTESIAN_POINT($,(-5.3,0,0));
#317=DIRECTION($,(1,0,0));
#318=DIRECTION($,(0,1,0));
#319=AXIS2_PLACEMENT_3D($,#316,#317,#318);
#320=CIRCLE($,#319,6.175);
#321=TRIMMED_CURVE($,#320,(PARAMETER_VALUE(5.75958653158129)),(PARAMETER_VALUE(6.80678408277788)),.T.,.PARAMETER.);
#322=EDGE_CURVE($,#296,#205,#321,.T.);
#323=ORIENTED_EDGE($,$,$,#322,.T.);
#324=ORIENTED_EDGE($,$,$,#227,.T.);
#325=ORIENTED_EDGE($,$,$,#193,.F.);
#326=ORIENTED_EDGE($,$,$,#309,.F.);
#327=EDGE_LOOP($,(#323,#324,#325,#326));
#328=FACE_OUTER_BOUND('',#327,.T.);
#329=ADVANCED_FACE('',(#328),#203,.T.);
#330=CARTESIAN_POINT($,(-5.3,0,0));
#331=DIRECTION($,(-1,0,0));
#332=DIRECTION($,(0,1,0));
#333=AXIS2_PLACEMENT_3D($,#330,#331,#332);
#334=PLANE($,#333);
#335=ORIENTED_EDGE($,$,$,#214,.T.);
#336=ORIENTED_EDGE($,$,$,#240,.T.);
#337=ORIENTED_EDGE($,$,$,#261,.T.);
#338=ORIENTED_EDGE($,$,$,#282,.T.);
#339=ORIENTED_EDGE($,$,$,#303,.T.);
#340=ORIENTED_EDGE($,$,$,#322,.T.);
#341=EDGE_LOOP($,(#335,#336,#337,#338,#339,#340));
#342=FACE_OUTER_BOUND('',#341,.T.);
#343=ADVANCED_FACE('',(#342),#334,.T.);
#344=CARTESIAN_POINT($,(0,0,0));
#345=DIRECTION($,(1,0,0));
#346=DIRECTION($,(0,1,0));
#347=AXIS2_PLACEMENT_3D($,#344,#345,#346);
#348=PLANE($,#347);
#349=ORIENTED_EDGE($,$,$,#184,.F.);
#350=ORIENTED_EDGE($,$,$,#153,.F.);
#351=ORIENTED_EDGE($,$,$,#120,.F.);
#352=ORIENTED_EDGE($,$,$,#87,.F.);
#353=ORIENTED_EDGE($,$,$,#54,.F.);
#354=ORIENTED_EDGE($,$,$,#14,.F.);
#355=EDGE_LOOP($,(#349,#350,#351,#352,#353,#354));
#356=FACE_OUTER_BOUND('',#355,.T.);
#357=CARTESIAN_POINT($,(0,4.2,0));
#358=VERTEX_POINT($,#357);
#359=CARTESIAN_POINT($,(0,-4.2,0.000000000000001));
#360=VERTEX_POINT($,#359);
#361=CARTESIAN_POINT($,(0,0,0));
#362=DIRECTION($,(1,0,0));
#363=DIRECTION($,(0,1,0));
#364=AXIS2_PLACEMENT_3D($,#361,#362,#363);
#365=CIRCLE($,#364,4.2);
#366=TRIMMED_CURVE($,#365,(PARAMETER_VALUE(0)),(PARAMETER_VALUE(3.14159265358979)),.T.,.PARAMETER.);
#367=EDGE_CURVE($,#358,#360,#366,.T.);
#368=ORIENTED_EDGE($,$,$,#367,.T.);
#369=CARTESIAN_POINT($,(0,0,0));
#370=DIRECTION($,(1,0,0));
#371=DIRECTION($,(0,1,0));
#372=AXIS2_PLACEMENT_3D($,#369,#370,#371);
#373=CIRCLE($,#372,4.2);
#374=TRIMMED_CURVE($,#373,(PARAMETER_VALUE(3.14159265358979)),(PARAMETER_VALUE(6.28318530717959)),.T.,.PARAMETER.);
#375=EDGE_CURVE($,#360,#358,#374,.T.);
#376=ORIENTED_EDGE($,$,$,#375,.T.);
#377=EDGE_LOOP($,(#368,#376));
#378=FACE_BOUND('',#377,.T.);
#379=ADVANCED_FACE('',(#356,#378),#348,.T.);
#380=CARTESIAN_POINT($,(0.2,0,0));
#381=DIRECTION($,(1,0,0));
#382=DIRECTION($,(0,1,0));
#383=AXIS2_PLACEMENT_3D($,#380,#381,#382);
#384=TOROIDAL_SURFACE($,#383,4.2,0.2);
#385=ORIENTED_EDGE($,$,$,#367,.T.);
#386=CARTESIAN_POINT($,(0.2,-4,0));
#387=VERTEX_POINT($,#386);
#388=CARTESIAN_POINT($,(0.2,-4.2,0));
#389=DIRECTION($,(0,0,-1));
#390=DIRECTION($,(-1,0,0));
#391=AXIS2_PLACEMENT_3D($,#388,#389,#390);
#392=CIRCLE($,#391,0.2);
#393=TRIMMED_CURVE($,#392,(PARAMETER_VALUE(0)),(PARAMETER_VALUE(1.5707963267949)),.T.,.PARAMETER.);
#394=EDGE_CURVE($,#360,#387,#393,.T.);
#395=ORIENTED_EDGE($,$,$,#394,.T.);
#396=CARTESIAN_POINT($,(0.2,4,0));
#397=VERTEX_POINT($,#396);
#398=CARTESIAN_POINT($,(0.2,0,0));
#399=DIRECTION($,(1,0,0));
#400=DIRECTION($,(0,1,0));
#401=AXIS2_PLACEMENT_3D($,#398,#399,#400);
#402=CIRCLE($,#401,4);
#403=TRIMMED_CURVE($,#402,(PARAMETER_VALUE(0)),(PARAMETER_VALUE(3.14159265358979)),.T.,.PARAMETER.);
#404=EDGE_CURVE($,#397,#387,#403,.T.);
#405=ORIENTED_EDGE($,$,$,#404,.F.);
#406=CARTESIAN_POINT($,(0.2,4.2,0));
#407=DIRECTION($,(0,0,1));
#408=DIRECTION($,(-1,0,0));
#409=AXIS2_PLACEMENT_3D($,#406,#407,#408);
#410=CIRCLE($,#409,0.2);
#411=TRIMMED_CURVE($,#410,(PARAMETER_VALUE(0)),(PARAMETER_VALUE(1.5707963267949)),.T.,.PARAMETER.);
#412=EDGE_CURVE($,#358,#397,#411,.T.);
#413=ORIENTED_EDGE($,$,$,#412,.F.);
#414=EDGE_LOOP($,(#385,#395,#405,#413));
#415=FACE_OUTER_BOUND('',#414,.T.);
#416=ADVANCED_FACE('',(#415),#384,.T.);
#417=ORIENTED_EDGE($,$,$,#375,.T.);
#418=ORIENTED_EDGE($,$,$,#412,.T.);
#419=CARTESIAN_POINT($,(0.2,0,0));
#420=DIRECTION($,(1,0,0));
#421=DIRECTION($,(0,1,0));
#422=AXIS2_PLACEMENT_3D($,#419,#420,#421);
#423=CIRCLE($,#422,4);
#424=TRIMMED_CURVE($,#423,(PARAMETER_VALUE(3.14159265358979)),(PARAMETER_VALUE(6.28318530717959)),.T.,.PARAMETER.);
#425=EDGE_CURVE($,#387,#397,#424,.T.);
#426=ORIENTED_EDGE($,$,$,#425,.F.);
#427=ORIENTED_EDGE($,$,$,#394,.F.);
#428=EDGE_LOOP($,(#417,#418,#426,#427));
#429=FACE_OUTER_BOUND('',#428,.T.);
#430=ADVANCED_FACE('',(#429),#384,.T.);
#431=CARTESIAN_POINT($,(0.2,0,0));
#432=DIRECTION($,(1,0,0));
#433=DIRECTION($,(0,1,0));
#434=AXIS2_PLACEMENT_3D($,#431,#432,#433);
#435=CYLINDRICAL_SURFACE($,#434,4);
#436=ORIENTED_EDGE($,$,$,#404,.T.);
#437=CARTESIAN_POINT($,(34.0625,-4,0));
#438=VERTEX_POINT($,#437);
#439=CARTESIAN_POINT($,(0.2,-4,0));
#440=DIRECTION($,(1,0,0));
#441=VECTOR($,#440,1);
#442=LINE($,#439,#441);
#443=EDGE_CURVE($,#387,#438,#442,.T.);
#444=ORIENTED_EDGE($,$,$,#443,.T.);
#445=CARTESIAN_POINT($,(34.0625,4,0));
#446=VERTEX_POINT($,#445);
#447=CARTESIAN_POINT($,(34.0625,0,0));
#448=DIRECTION($,(1,0,0));
#449=DIRECTION($,(0,1,0));
#450=AXIS2_PLACEMENT_3D($,#447,#448,#449);
#451=CIRCLE($,#450,4);
#452=TRIMMED_CURVE($,#451,(PARAMETER_VALUE(0)),(PARAMETER_VALUE(3.14159265358979)),.T.,.PARAMETER.);
#453=EDGE_CURVE($,#446,#438,#452,.T.);
#454=ORIENTED_EDGE($,$,$,#453,.F.);
#455=CARTESIAN_POINT($,(0.2,4,0));
#456=DIRECTION($,(1,0,0));
#457=VECTOR($,#456,1);
#458=LINE($,#455,#457);
#459=EDGE_CURVE($,#397,#446,#458,.T.);
#460=ORIENTED_EDGE($,$,$,#459,.F.);
#461=EDGE_LOOP($,(#436,#444,#454,#460));
#462=FACE_OUTER_BOUND('',#461,.T.);
#463=ADVANCED_FACE('',(#462),#435,.T.);
#464=ORIENTED_EDGE($,$,$,#425,.T.);
#465=ORIENTED_EDGE($,$,$,#459,.T.);
#466=CARTESIAN_POINT($,(34.0625,0,0));
#467=DIRECTION($,(1,0,0));
#468=DIRECTION($,(0,1,0));
#469=AXIS2_PLACEMENT_3D($,#466,#467,#468);
#470=CIRCLE($,#469,4);
#471=TRIMMED_CURVE($,#470,(PARAMETER_VALUE(3.14159265358979)),(PARAMETER_VALUE(6.28318530717959)),.T.,.PARAMETER.);
#472=EDGE_CURVE($,#438,#446,#471,.T.);
#473=ORIENTED_EDGE($,$,$,#472,.F.);
#474=ORIENTED_EDGE($,$,$,#443,.F.);
#475=EDGE_LOOP($,(#464,#465,#473,#474));
#476=FACE_OUTER_BOUND('',#475,.T.);
#477=ADVANCED_FACE('',(#476),#435,.T.);
#478=CARTESIAN_POINT($,(38.0625,0,0));
#479=DIRECTION($,(-1,0,0));
#480=DIRECTION($,(0,1,0));
#481=AXIS2_PLACEMENT_3D($,#478,#479,#480);
#482=CONICAL_SURFACE($,#481,0,0.785398163397448);
#483=ORIENTED_EDGE($,$,$,#453,.T.);
#484=CARTESIAN_POINT($,(35,-3.0625,0));
#485=VERTEX_POINT($,#484);
#486=CARTESIAN_POINT($,(34.0625,-4,0));
#487=DIRECTION($,(0.707106781186548,0.707106781186548,0));
#488=VECTOR($,#487,1);
#489=LINE($,#486,#488);
#490=EDGE_CURVE($,#438,#485,#489,.T.);
#491=ORIENTED_EDGE($,$,$,#490,.T.);
#492=CARTESIAN_POINT($,(35,3.0625,0));
#493=VERTEX_POINT($,#492);
#494=CARTESIAN_POINT($,(35,0,0));
#495=DIRECTION($,(1,0,0));
#496=DIRECTION($,(0,1,0));
#497=AXIS2_PLACEMENT_3D($,#494,#495,#496);
#498=CIRCLE($,#497,3.0625);
#499=TRIMMED_CURVE($,#498,(PARAMETER_VALUE(0)),(PARAMETER_VALUE(3.14159265358979)),.T.,.PARAMETER.);
#500=EDGE_CURVE($,#493,#485,#499,.T.);
#501=ORIENTED_EDGE($,$,$,#500,.F.);
#502=CARTESIAN_POINT($,(34.0625,4,0));
#503=DIRECTION($,(0.707106781186548,-0.707106781186548,0));
#504=VECTOR($,#503,1);
#505=LINE($,#502,#504);
#506=EDGE_CURVE($,#446,#493,#505,.T.);
#507=ORIENTED_EDGE($,$,$,#506,.F.);
#508=EDGE_LOOP($,(#483,#491,#501,#507));
#509=FACE_OUTER_BOUND('',#508,.T.);
#510=ADVANCED_FACE('',(#509),#482,.T.);
#511=ORIENTED_EDGE($,$,$,#472,.T.);
#512=ORIENTED_EDGE($,$,$,#506,.T.);
#513=CARTESIAN_POINT($,(35,0,0));
#514=DIRECTION($,(1,0,0));
#515=DIRECTION($,(0,1,0));
#516=AXIS2_PLACEMENT_3D($,#513,#514,#515);
#517=CIRCLE($,#516,3.0625);
#518=TRIMMED_CURVE($,#517,(PARAMETER_VALUE(3.14159265358979)),(PARAMETER_VALUE(6.28318530717959)),.T.,.PARAMETER.);
#519=EDGE_CURVE($,#485,#493,#518,.T.);
#520=ORIENTED_EDGE($,$,$,#519,.F.);
#521=ORIENTED_EDGE($,$,$,#490,.F.);
#522=EDGE_LOOP($,(#511,#512,#520,#521));
#523=FACE_OUTER_BOUND('',#522,.T.);
#524=ADVANCED_FACE('',(#523),#482,.T.);
#525=CARTESIAN_POINT($,(35,0,0));
#526=DIRECTION($,(1,0,0));
#527=DIRECTION($,(0,1,0));
#528=AXIS2_PLACEMENT_3D($,#525,#526,#527);
#529=PLANE($,#528);
#530=ORIENTED_EDGE($,$,$,#519,.F.);
#531=ORIENTED_EDGE($,$,$,#500,.F.);
#532=EDGE_LOOP($,(#530,#531));
#533=FACE_OUTER_BOUND('',#532,.T.);
#534=ADVANCED_FACE('',(#533),#529,.T.);
#535=CLOSED_SHELL($,(#42,#75,#108,#141,#174,#198,#231,#252,#273,#294,#315,#329,#343,#379,#416,#430,#463,#477,#510,#524,#534));
#536=MANIFOLD_SOLID_BREP('AetherisBody',#535);
#537=APPLICATION_CONTEXT('mechanical design');
#538=PRODUCT_CONTEXT('',#537,'mechanical');
#539=PRODUCT('AETHERIS','AetherisBody','',(#538));
#540=PRODUCT_DEFINITION_FORMATION('','',#539);
#541=PRODUCT_DEFINITION_CONTEXT('design',#537,'design');
#542=PRODUCT_DEFINITION('','',#540,#541);
#543=PRODUCT_DEFINITION_SHAPE('','',#542);
#544=(LENGTH_UNIT()NAMED_UNIT(*)SI_UNIT(.MILLI.,.METRE.));
#545=(NAMED_UNIT(*)PLANE_ANGLE_UNIT()SI_UNIT($,.RADIAN.));
#546=(NAMED_UNIT(*)SI_UNIT($,.STERADIAN.)SOLID_ANGLE_UNIT());
#547=(GEOMETRIC_REPRESENTATION_CONTEXT(3)GLOBAL_UNIT_ASSIGNED_CONTEXT((#544,#545,#546))REPRESENTATION_CONTEXT('3','3D'));
#548=SHAPE_REPRESENTATION('AetherisBody',(#536),#547);
#549=SHAPE_DEFINITION_REPRESENTATION(#543,#548);
ENDSEC;
END-ISO-10303-21;
