ISO-10303-21;
HEADER;
FILE_DESCRIPTION(('Aetheris AP242 subset export'),'2;1');
FILE_NAME('aetheris_export.step','1970-01-01T00:00:00',('Aetheris'),('Aetheris'),'Aetheris.Kernel','Aetheris.Kernel','');
FILE_SCHEMA(('AP242_MANAGED_MODEL_BASED_3D_ENGINEERING_MIM_LF'));
ENDSEC;
DATA;
#1=CARTESIAN_POINT($,(0,0,-550));
#2=DIRECTION($,(0,0,1));
#3=DIRECTION($,(1,0,0));
#4=AXIS2_PLACEMENT_3D($,#1,#2,#3);
#5=CONICAL_SURFACE($,#4,0,0.0996686524912);
#6=CARTESIAN_POINT($,(55,0,0));
#7=VERTEX_POINT($,#6);
#8=CARTESIAN_POINT($,(0,0,0));
#9=DIRECTION($,(0,0,1));
#10=DIRECTION($,(1,0,0));
#11=AXIS2_PLACEMENT_3D($,#8,#9,#10);
#12=CIRCLE($,#11,55);
#13=EDGE_CURVE($,#7,#7,#12,.T.);
#14=ORIENTED_EDGE($,$,$,#13,.T.);
#15=EDGE_LOOP($,(#14));
#16=FACE_OUTER_BOUND('',#15,.T.);
#17=CARTESIAN_POINT($,(57,0,20));
#18=VERTEX_POINT($,#17);
#19=CARTESIAN_POINT($,(0,0,20));
#20=DIRECTION($,(0,0,1));
#21=DIRECTION($,(1,0,0));
#22=AXIS2_PLACEMENT_3D($,#19,#20,#21);
#23=CIRCLE($,#22,57);
#24=EDGE_CURVE($,#18,#18,#23,.T.);
#25=ORIENTED_EDGE($,$,$,#24,.F.);
#26=EDGE_LOOP($,(#25));
#27=FACE_BOUND('',#26,.T.);
#28=ADVANCED_FACE('',(#16,#27),#5,.T.);
#29=CARTESIAN_POINT($,(0,0,-527.890273633534));
#30=DIRECTION($,(0,0,1));
#31=DIRECTION($,(1,0,0));
#32=AXIS2_PLACEMENT_3D($,#29,#30,#31);
#33=CONICAL_SURFACE($,#32,0,0.0996686524912);
#34=CARTESIAN_POINT($,(53.0090273633534,0,2.2));
#35=VERTEX_POINT($,#34);
#36=CARTESIAN_POINT($,(0,0,2.2));
#37=DIRECTION($,(0,0,1));
#38=DIRECTION($,(1,0,0));
#39=AXIS2_PLACEMENT_3D($,#36,#37,#38);
#40=CIRCLE($,#39,53.0090273633534);
#41=EDGE_CURVE($,#35,#35,#40,.T.);
#42=ORIENTED_EDGE($,$,$,#41,.T.);
#43=EDGE_LOOP($,(#42));
#44=FACE_OUTER_BOUND('',#43,.T.);
#45=CARTESIAN_POINT($,(54.7890273633534,0,20));
#46=VERTEX_POINT($,#45);
#47=CARTESIAN_POINT($,(0,0,20));
#48=DIRECTION($,(0,0,1));
#49=DIRECTION($,(1,0,0));
#50=AXIS2_PLACEMENT_3D($,#47,#48,#49);
#51=CIRCLE($,#50,54.7890273633534);
#52=EDGE_CURVE($,#46,#46,#51,.T.);
#53=ORIENTED_EDGE($,$,$,#52,.F.);
#54=EDGE_LOOP($,(#53));
#55=FACE_BOUND('',#54,.T.);
#56=ADVANCED_FACE('',(#44,#55),#33,.F.);
#57=CARTESIAN_POINT($,(0,0,0));
#58=DIRECTION($,(0,0,-1));
#59=DIRECTION($,(1,0,0));
#60=AXIS2_PLACEMENT_3D($,#57,#58,#59);
#61=PLANE($,#60);
#62=ORIENTED_EDGE($,$,$,#13,.F.);
#63=EDGE_LOOP($,(#62));
#64=FACE_OUTER_BOUND('',#63,.T.);
#65=ADVANCED_FACE('',(#64),#61,.T.);
#66=CARTESIAN_POINT($,(0,0,20));
#67=DIRECTION($,(0,0,1));
#68=DIRECTION($,(1,0,0));
#69=AXIS2_PLACEMENT_3D($,#66,#67,#68);
#70=PLANE($,#69);
#71=ORIENTED_EDGE($,$,$,#24,.T.);
#72=EDGE_LOOP($,(#71));
#73=FACE_OUTER_BOUND('',#72,.T.);
#74=ORIENTED_EDGE($,$,$,#52,.F.);
#75=EDGE_LOOP($,(#74));
#76=FACE_BOUND('',#75,.T.);
#77=ADVANCED_FACE('',(#73,#76),#70,.T.);
#78=CARTESIAN_POINT($,(0,0,2.2));
#79=DIRECTION($,(0,0,1));
#80=DIRECTION($,(1,0,0));
#81=AXIS2_PLACEMENT_3D($,#78,#79,#80);
#82=PLANE($,#81);
#83=ORIENTED_EDGE($,$,$,#41,.T.);
#84=EDGE_LOOP($,(#83));
#85=FACE_OUTER_BOUND('',#84,.T.);
#86=CARTESIAN_POINT($,(21.8727145158007,23.4283494344111,2.2));
#87=VERTEX_POINT($,#86);
#88=CARTESIAN_POINT($,(-23.4283494344111,-21.8727145158007,2.2));
#89=VERTEX_POINT($,#88);
#90=CARTESIAN_POINT($,(21.8727145158007,23.4283494344111,2.2));
#91=DIRECTION($,(-0.7071067811865,-0.7071067811865,0));
#92=VECTOR($,#91,1);
#93=LINE($,#90,#92);
#94=EDGE_CURVE($,#87,#89,#93,.T.);
#95=ORIENTED_EDGE($,$,$,#94,.F.);
#96=CARTESIAN_POINT($,(21.6773504548328,23.9,2.2));
#97=VERTEX_POINT($,#96);
#98=CARTESIAN_POINT($,(25,25,2.2));
#99=DIRECTION($,(0,0,1));
#100=DIRECTION($,(-0.9493284414764,-0.3142857142857,0));
#101=AXIS2_PLACEMENT_3D($,#98,#99,#100);
#102=CIRCLE($,#101,3.5);
#103=TRIMMED_CURVE($,#102,(PARAMETER_VALUE(0)),(PARAMETER_VALUE(0.145989866072)),.T.,.PARAMETER.);
#104=EDGE_CURVE($,#97,#87,#103,.T.);
#105=ORIENTED_EDGE($,$,$,#104,.F.);
#106=CARTESIAN_POINT($,(-21.6773504548328,23.9,2.2));
#107=VERTEX_POINT($,#106);
#108=CARTESIAN_POINT($,(21.6773504548328,23.9,2.2));
#109=DIRECTION($,(-1,0,0));
#110=VECTOR($,#109,1);
#111=LINE($,#108,#110);
#112=EDGE_CURVE($,#97,#107,#111,.T.);
#113=ORIENTED_EDGE($,$,$,#112,.T.);
#114=CARTESIAN_POINT($,(-21.6773504548328,26.1,2.2));
#115=VERTEX_POINT($,#114);
#116=CARTESIAN_POINT($,(-25,25,2.2));
#117=DIRECTION($,(0,0,1));
#118=DIRECTION($,(0.9493284414764,0.3142857142857,0));
#119=AXIS2_PLACEMENT_3D($,#116,#117,#118);
#120=CIRCLE($,#119,3.5);
#121=TRIMMED_CURVE($,#120,(PARAMETER_VALUE(0)),(PARAMETER_VALUE(5.6437770098541)),.T.,.PARAMETER.);
#122=EDGE_CURVE($,#115,#107,#121,.T.);
#123=ORIENTED_EDGE($,$,$,#122,.F.);
#124=CARTESIAN_POINT($,(21.6773504548328,26.1,2.2));
#125=VERTEX_POINT($,#124);
#126=CARTESIAN_POINT($,(21.6773504548328,26.1,2.2));
#127=DIRECTION($,(-1,0,0));
#128=VECTOR($,#127,1);
#129=LINE($,#126,#128);
#130=EDGE_CURVE($,#125,#115,#129,.T.);
#131=ORIENTED_EDGE($,$,$,#130,.F.);
#132=CARTESIAN_POINT($,(26.1,21.6773504548328,2.2));
#133=VERTEX_POINT($,#132);
#134=CARTESIAN_POINT($,(25,25,2.2));
#135=DIRECTION($,(0,0,1));
#136=DIRECTION($,(0.3142857142857,-0.9493284414764,0));
#137=AXIS2_PLACEMENT_3D($,#134,#135,#136);
#138=CIRCLE($,#137,3.5);
#139=TRIMMED_CURVE($,#138,(PARAMETER_VALUE(0)),(PARAMETER_VALUE(4.0729806830592)),.T.,.PARAMETER.);
#140=EDGE_CURVE($,#133,#125,#139,.T.);
#141=ORIENTED_EDGE($,$,$,#140,.F.);
#142=CARTESIAN_POINT($,(26.1,-21.6773504548328,2.2));
#143=VERTEX_POINT($,#142);
#144=CARTESIAN_POINT($,(26.1,21.6773504548328,2.2));
#145=DIRECTION($,(0,-1,0));
#146=VECTOR($,#145,1);
#147=LINE($,#144,#146);
#148=EDGE_CURVE($,#133,#143,#147,.T.);
#149=ORIENTED_EDGE($,$,$,#148,.T.);
#150=CARTESIAN_POINT($,(23.9,-21.6773504548328,2.2));
#151=VERTEX_POINT($,#150);
#152=CARTESIAN_POINT($,(25,-25,2.2));
#153=DIRECTION($,(0,0,1));
#154=DIRECTION($,(-0.3142857142857,0.9493284414764,0));
#155=AXIS2_PLACEMENT_3D($,#152,#153,#154);
#156=CIRCLE($,#155,3.5);
#157=TRIMMED_CURVE($,#156,(PARAMETER_VALUE(0)),(PARAMETER_VALUE(5.6437770098541)),.T.,.PARAMETER.);
#158=EDGE_CURVE($,#151,#143,#157,.T.);
#159=ORIENTED_EDGE($,$,$,#158,.F.);
#160=CARTESIAN_POINT($,(23.9,21.6773504548328,2.2));
#161=VERTEX_POINT($,#160);
#162=CARTESIAN_POINT($,(23.9,21.6773504548328,2.2));
#163=DIRECTION($,(0,-1,0));
#164=VECTOR($,#163,1);
#165=LINE($,#162,#164);
#166=EDGE_CURVE($,#161,#151,#165,.T.);
#167=ORIENTED_EDGE($,$,$,#166,.F.);
#168=CARTESIAN_POINT($,(23.4283494344111,21.8727145158007,2.2));
#169=VERTEX_POINT($,#168);
#170=CARTESIAN_POINT($,(25,25,2.2));
#171=DIRECTION($,(0,0,1));
#172=DIRECTION($,(-0.4490430187397,-0.8935101383427,0));
#173=AXIS2_PLACEMENT_3D($,#170,#171,#172);
#174=CIRCLE($,#173,3.5);
#175=TRIMMED_CURVE($,#174,(PARAMETER_VALUE(0)),(PARAMETER_VALUE(0.145989866072)),.T.,.PARAMETER.);
#176=EDGE_CURVE($,#169,#161,#175,.T.);
#177=ORIENTED_EDGE($,$,$,#176,.F.);
#178=CARTESIAN_POINT($,(-21.8727145158007,-23.4283494344111,2.2));
#179=VERTEX_POINT($,#178);
#180=CARTESIAN_POINT($,(23.4283494344111,21.8727145158007,2.2));
#181=DIRECTION($,(-0.7071067811865,-0.7071067811865,0));
#182=VECTOR($,#181,1);
#183=LINE($,#180,#182);
#184=EDGE_CURVE($,#169,#179,#183,.T.);
#185=ORIENTED_EDGE($,$,$,#184,.T.);
#186=CARTESIAN_POINT($,(-25,-25,2.2));
#187=DIRECTION($,(0,0,1));
#188=DIRECTION($,(0.4490430187397,0.8935101383427,0));
#189=AXIS2_PLACEMENT_3D($,#186,#187,#188);
#190=CIRCLE($,#189,3.5);
#191=TRIMMED_CURVE($,#190,(PARAMETER_VALUE(0)),(PARAMETER_VALUE(5.6437770098541)),.T.,.PARAMETER.);
#192=EDGE_CURVE($,#89,#179,#191,.T.);
#193=ORIENTED_EDGE($,$,$,#192,.F.);
#194=EDGE_LOOP($,(#95,#105,#113,#123,#131,#141,#149,#159,#167,#177,#185,#193));
#195=FACE_BOUND('',#194,.T.);
#196=ADVANCED_FACE('',(#85,#195),#82,.T.);
#197=CARTESIAN_POINT($,(-25,-25,2.2));
#198=DIRECTION($,(0,0,1));
#199=DIRECTION($,(1,0,0));
#200=AXIS2_PLACEMENT_3D($,#197,#198,#199);
#201=CYLINDRICAL_SURFACE($,#200,3.5);
#202=ORIENTED_EDGE($,$,$,#192,.T.);
#203=CARTESIAN_POINT($,(-21.8727145158007,-23.4283494344111,7.2));
#204=VERTEX_POINT($,#203);
#205=CARTESIAN_POINT($,(-21.8727145158007,-23.4283494344111,2.2));
#206=DIRECTION($,(0,0,1));
#207=VECTOR($,#206,1);
#208=LINE($,#205,#207);
#209=EDGE_CURVE($,#179,#204,#208,.T.);
#210=ORIENTED_EDGE($,$,$,#209,.T.);
#211=CARTESIAN_POINT($,(-23.4283494344111,-21.8727145158007,7.2));
#212=VERTEX_POINT($,#211);
#213=CARTESIAN_POINT($,(-25,-25,7.2));
#214=DIRECTION($,(0,0,1));
#215=DIRECTION($,(0.4490430187397,0.8935101383427,0));
#216=AXIS2_PLACEMENT_3D($,#213,#214,#215);
#217=CIRCLE($,#216,3.5);
#218=TRIMMED_CURVE($,#217,(PARAMETER_VALUE(0)),(PARAMETER_VALUE(5.6437770098541)),.T.,.PARAMETER.);
#219=EDGE_CURVE($,#212,#204,#218,.T.);
#220=ORIENTED_EDGE($,$,$,#219,.F.);
#221=CARTESIAN_POINT($,(-23.4283494344111,-21.8727145158007,2.2));
#222=DIRECTION($,(0,0,1));
#223=VECTOR($,#222,1);
#224=LINE($,#221,#223);
#225=EDGE_CURVE($,#89,#212,#224,.T.);
#226=ORIENTED_EDGE($,$,$,#225,.F.);
#227=EDGE_LOOP($,(#202,#210,#220,#226));
#228=FACE_OUTER_BOUND('',#227,.T.);
#229=ADVANCED_FACE('',(#228),#201,.T.);
#230=CARTESIAN_POINT($,(-25,-25,2.2));
#231=DIRECTION($,(0,0,1));
#232=DIRECTION($,(1,0,0));
#233=AXIS2_PLACEMENT_3D($,#230,#231,#232);
#234=CYLINDRICAL_SURFACE($,#233,3.5);
#235=ORIENTED_EDGE($,$,$,#219,.T.);
#236=CARTESIAN_POINT($,(-25,-25,7.2));
#237=DIRECTION($,(0,0,1));
#238=DIRECTION($,(0.8935101383427,0.4490430187397,0));
#239=AXIS2_PLACEMENT_3D($,#236,#237,#238);
#240=CIRCLE($,#239,3.5);
#241=TRIMMED_CURVE($,#240,(PARAMETER_VALUE(0)),(PARAMETER_VALUE(0.6394082973255)),.T.,.PARAMETER.);
#242=EDGE_CURVE($,#204,#212,#241,.T.);
#243=ORIENTED_EDGE($,$,$,#242,.T.);
#244=EDGE_LOOP($,(#235,#243));
#245=FACE_OUTER_BOUND('',#244,.T.);
#246=CARTESIAN_POINT($,(-21.5,-25,10.2));
#247=VERTEX_POINT($,#246);
#248=CARTESIAN_POINT($,(-25,-25,10.2));
#249=DIRECTION($,(0,0,1));
#250=DIRECTION($,(1,0,0));
#251=AXIS2_PLACEMENT_3D($,#248,#249,#250);
#252=CIRCLE($,#251,3.5);
#253=EDGE_CURVE($,#247,#247,#252,.T.);
#254=ORIENTED_EDGE($,$,$,#253,.F.);
#255=EDGE_LOOP($,(#254));
#256=FACE_BOUND('',#255,.T.);
#257=ADVANCED_FACE('',(#245,#256),#234,.T.);
#258=CARTESIAN_POINT($,(-25,-25,2.2));
#259=DIRECTION($,(0,0,1));
#260=DIRECTION($,(1,0,0));
#261=AXIS2_PLACEMENT_3D($,#258,#259,#260);
#262=CYLINDRICAL_SURFACE($,#261,1.5);
#263=CARTESIAN_POINT($,(-23.5,-25,2.2));
#264=VERTEX_POINT($,#263);
#265=CARTESIAN_POINT($,(-25,-25,2.2));
#266=DIRECTION($,(0,0,1));
#267=DIRECTION($,(1,0,0));
#268=AXIS2_PLACEMENT_3D($,#265,#266,#267);
#269=CIRCLE($,#268,1.5);
#270=EDGE_CURVE($,#264,#264,#269,.T.);
#271=ORIENTED_EDGE($,$,$,#270,.T.);
#272=EDGE_LOOP($,(#271));
#273=FACE_OUTER_BOUND('',#272,.T.);
#274=CARTESIAN_POINT($,(-23.5,-25,10.2));
#275=VERTEX_POINT($,#274);
#276=CARTESIAN_POINT($,(-25,-25,10.2));
#277=DIRECTION($,(0,0,1));
#278=DIRECTION($,(1,0,0));
#279=AXIS2_PLACEMENT_3D($,#276,#277,#278);
#280=CIRCLE($,#279,1.5);
#281=EDGE_CURVE($,#275,#275,#280,.T.);
#282=ORIENTED_EDGE($,$,$,#281,.F.);
#283=EDGE_LOOP($,(#282));
#284=FACE_BOUND('',#283,.T.);
#285=ADVANCED_FACE('',(#273,#284),#262,.F.);
#286=CARTESIAN_POINT($,(-25,-25,10.2));
#287=DIRECTION($,(0,0,1));
#288=DIRECTION($,(1,0,0));
#289=AXIS2_PLACEMENT_3D($,#286,#287,#288);
#290=PLANE($,#289);
#291=ORIENTED_EDGE($,$,$,#253,.T.);
#292=EDGE_LOOP($,(#291));
#293=FACE_OUTER_BOUND('',#292,.T.);
#294=ORIENTED_EDGE($,$,$,#281,.F.);
#295=EDGE_LOOP($,(#294));
#296=FACE_BOUND('',#295,.T.);
#297=ADVANCED_FACE('',(#293,#296),#290,.T.);
#298=CARTESIAN_POINT($,(-25,-25,2.2));
#299=DIRECTION($,(0,0,1));
#300=DIRECTION($,(1,0,0));
#301=AXIS2_PLACEMENT_3D($,#298,#299,#300);
#302=PLANE($,#301);
#303=ORIENTED_EDGE($,$,$,#270,.T.);
#304=EDGE_LOOP($,(#303));
#305=FACE_OUTER_BOUND('',#304,.T.);
#306=ADVANCED_FACE('',(#305),#302,.T.);
#307=CARTESIAN_POINT($,(25,-25,2.2));
#308=DIRECTION($,(0,0,1));
#309=DIRECTION($,(1,0,0));
#310=AXIS2_PLACEMENT_3D($,#307,#308,#309);
#311=CYLINDRICAL_SURFACE($,#310,3.5);
#312=ORIENTED_EDGE($,$,$,#158,.T.);
#313=CARTESIAN_POINT($,(26.1,-21.6773504548328,7.2));
#314=VERTEX_POINT($,#313);
#315=CARTESIAN_POINT($,(26.1,-21.6773504548328,2.2));
#316=DIRECTION($,(0,0,1));
#317=VECTOR($,#316,1);
#318=LINE($,#315,#317);
#319=EDGE_CURVE($,#143,#314,#318,.T.);
#320=ORIENTED_EDGE($,$,$,#319,.T.);
#321=CARTESIAN_POINT($,(23.9,-21.6773504548328,7.2));
#322=VERTEX_POINT($,#321);
#323=CARTESIAN_POINT($,(25,-25,7.2));
#324=DIRECTION($,(0,0,1));
#325=DIRECTION($,(-0.3142857142857,0.9493284414764,0));
#326=AXIS2_PLACEMENT_3D($,#323,#324,#325);
#327=CIRCLE($,#326,3.5);
#328=TRIMMED_CURVE($,#327,(PARAMETER_VALUE(0)),(PARAMETER_VALUE(5.6437770098541)),.T.,.PARAMETER.);
#329=EDGE_CURVE($,#322,#314,#328,.T.);
#330=ORIENTED_EDGE($,$,$,#329,.F.);
#331=CARTESIAN_POINT($,(23.9,-21.6773504548328,2.2));
#332=DIRECTION($,(0,0,1));
#333=VECTOR($,#332,1);
#334=LINE($,#331,#333);
#335=EDGE_CURVE($,#151,#322,#334,.T.);
#336=ORIENTED_EDGE($,$,$,#335,.F.);
#337=EDGE_LOOP($,(#312,#320,#330,#336));
#338=FACE_OUTER_BOUND('',#337,.T.);
#339=ADVANCED_FACE('',(#338),#311,.T.);
#340=CARTESIAN_POINT($,(25,-25,2.2));
#341=DIRECTION($,(0,0,1));
#342=DIRECTION($,(1,0,0));
#343=AXIS2_PLACEMENT_3D($,#340,#341,#342);
#344=CYLINDRICAL_SURFACE($,#343,3.5);
#345=ORIENTED_EDGE($,$,$,#329,.T.);
#346=CARTESIAN_POINT($,(25,-25,7.2));
#347=DIRECTION($,(0,0,1));
#348=DIRECTION($,(0.3142857142857,0.9493284414764,0));
#349=AXIS2_PLACEMENT_3D($,#346,#347,#348);
#350=CIRCLE($,#349,3.5);
#351=TRIMMED_CURVE($,#350,(PARAMETER_VALUE(0)),(PARAMETER_VALUE(0.6394082973255)),.T.,.PARAMETER.);
#352=EDGE_CURVE($,#314,#322,#351,.T.);
#353=ORIENTED_EDGE($,$,$,#352,.T.);
#354=EDGE_LOOP($,(#345,#353));
#355=FACE_OUTER_BOUND('',#354,.T.);
#356=CARTESIAN_POINT($,(28.5,-25,10.2));
#357=VERTEX_POINT($,#356);
#358=CARTESIAN_POINT($,(25,-25,10.2));
#359=DIRECTION($,(0,0,1));
#360=DIRECTION($,(1,0,0));
#361=AXIS2_PLACEMENT_3D($,#358,#359,#360);
#362=CIRCLE($,#361,3.5);
#363=EDGE_CURVE($,#357,#357,#362,.T.);
#364=ORIENTED_EDGE($,$,$,#363,.F.);
#365=EDGE_LOOP($,(#364));
#366=FACE_BOUND('',#365,.T.);
#367=ADVANCED_FACE('',(#355,#366),#344,.T.);
#368=CARTESIAN_POINT($,(25,-25,2.2));
#369=DIRECTION($,(0,0,1));
#370=DIRECTION($,(1,0,0));
#371=AXIS2_PLACEMENT_3D($,#368,#369,#370);
#372=CYLINDRICAL_SURFACE($,#371,1.5);
#373=CARTESIAN_POINT($,(26.5,-25,2.2));
#374=VERTEX_POINT($,#373);
#375=CARTESIAN_POINT($,(25,-25,2.2));
#376=DIRECTION($,(0,0,1));
#377=DIRECTION($,(1,0,0));
#378=AXIS2_PLACEMENT_3D($,#375,#376,#377);
#379=CIRCLE($,#378,1.5);
#380=EDGE_CURVE($,#374,#374,#379,.T.);
#381=ORIENTED_EDGE($,$,$,#380,.T.);
#382=EDGE_LOOP($,(#381));
#383=FACE_OUTER_BOUND('',#382,.T.);
#384=CARTESIAN_POINT($,(26.5,-25,10.2));
#385=VERTEX_POINT($,#384);
#386=CARTESIAN_POINT($,(25,-25,10.2));
#387=DIRECTION($,(0,0,1));
#388=DIRECTION($,(1,0,0));
#389=AXIS2_PLACEMENT_3D($,#386,#387,#388);
#390=CIRCLE($,#389,1.5);
#391=EDGE_CURVE($,#385,#385,#390,.T.);
#392=ORIENTED_EDGE($,$,$,#391,.F.);
#393=EDGE_LOOP($,(#392));
#394=FACE_BOUND('',#393,.T.);
#395=ADVANCED_FACE('',(#383,#394),#372,.F.);
#396=CARTESIAN_POINT($,(25,-25,10.2));
#397=DIRECTION($,(0,0,1));
#398=DIRECTION($,(1,0,0));
#399=AXIS2_PLACEMENT_3D($,#396,#397,#398);
#400=PLANE($,#399);
#401=ORIENTED_EDGE($,$,$,#363,.T.);
#402=EDGE_LOOP($,(#401));
#403=FACE_OUTER_BOUND('',#402,.T.);
#404=ORIENTED_EDGE($,$,$,#391,.F.);
#405=EDGE_LOOP($,(#404));
#406=FACE_BOUND('',#405,.T.);
#407=ADVANCED_FACE('',(#403,#406),#400,.T.);
#408=CARTESIAN_POINT($,(25,-25,2.2));
#409=DIRECTION($,(0,0,1));
#410=DIRECTION($,(1,0,0));
#411=AXIS2_PLACEMENT_3D($,#408,#409,#410);
#412=PLANE($,#411);
#413=ORIENTED_EDGE($,$,$,#380,.T.);
#414=EDGE_LOOP($,(#413));
#415=FACE_OUTER_BOUND('',#414,.T.);
#416=ADVANCED_FACE('',(#415),#412,.T.);
#417=CARTESIAN_POINT($,(25,25,2.2));
#418=DIRECTION($,(0,0,1));
#419=DIRECTION($,(1,0,0));
#420=AXIS2_PLACEMENT_3D($,#417,#418,#419);
#421=CYLINDRICAL_SURFACE($,#420,3.5);
#422=ORIENTED_EDGE($,$,$,#104,.T.);
#423=CARTESIAN_POINT($,(21.8727145158007,23.4283494344111,7.2));
#424=VERTEX_POINT($,#423);
#425=CARTESIAN_POINT($,(21.8727145158007,23.4283494344111,2.2));
#426=DIRECTION($,(0,0,1));
#427=VECTOR($,#426,1);
#428=LINE($,#425,#427);
#429=EDGE_CURVE($,#87,#424,#428,.T.);
#430=ORIENTED_EDGE($,$,$,#429,.T.);
#431=CARTESIAN_POINT($,(21.6773504548328,23.9,7.2));
#432=VERTEX_POINT($,#431);
#433=CARTESIAN_POINT($,(25,25,7.2));
#434=DIRECTION($,(0,0,1));
#435=DIRECTION($,(-0.9493284414764,-0.3142857142857,0));
#436=AXIS2_PLACEMENT_3D($,#433,#434,#435);
#437=CIRCLE($,#436,3.5);
#438=TRIMMED_CURVE($,#437,(PARAMETER_VALUE(0)),(PARAMETER_VALUE(0.145989866072)),.T.,.PARAMETER.);
#439=EDGE_CURVE($,#432,#424,#438,.T.);
#440=ORIENTED_EDGE($,$,$,#439,.F.);
#441=CARTESIAN_POINT($,(21.6773504548328,23.9,2.2));
#442=DIRECTION($,(0,0,1));
#443=VECTOR($,#442,1);
#444=LINE($,#441,#443);
#445=EDGE_CURVE($,#97,#432,#444,.T.);
#446=ORIENTED_EDGE($,$,$,#445,.F.);
#447=EDGE_LOOP($,(#422,#430,#440,#446));
#448=FACE_OUTER_BOUND('',#447,.T.);
#449=ADVANCED_FACE('',(#448),#421,.T.);
#450=CARTESIAN_POINT($,(25,25,2.2));
#451=DIRECTION($,(0,0,1));
#452=DIRECTION($,(1,0,0));
#453=AXIS2_PLACEMENT_3D($,#450,#451,#452);
#454=CYLINDRICAL_SURFACE($,#453,3.5);
#455=ORIENTED_EDGE($,$,$,#176,.T.);
#456=CARTESIAN_POINT($,(23.9,21.6773504548328,7.2));
#457=VERTEX_POINT($,#456);
#458=CARTESIAN_POINT($,(23.9,21.6773504548328,2.2));
#459=DIRECTION($,(0,0,1));
#460=VECTOR($,#459,1);
#461=LINE($,#458,#460);
#462=EDGE_CURVE($,#161,#457,#461,.T.);
#463=ORIENTED_EDGE($,$,$,#462,.T.);
#464=CARTESIAN_POINT($,(23.4283494344111,21.8727145158007,7.2));
#465=VERTEX_POINT($,#464);
#466=CARTESIAN_POINT($,(25,25,7.2));
#467=DIRECTION($,(0,0,1));
#468=DIRECTION($,(-0.4490430187397,-0.8935101383427,0));
#469=AXIS2_PLACEMENT_3D($,#466,#467,#468);
#470=CIRCLE($,#469,3.5);
#471=TRIMMED_CURVE($,#470,(PARAMETER_VALUE(0)),(PARAMETER_VALUE(0.145989866072)),.T.,.PARAMETER.);
#472=EDGE_CURVE($,#465,#457,#471,.T.);
#473=ORIENTED_EDGE($,$,$,#472,.F.);
#474=CARTESIAN_POINT($,(23.4283494344111,21.8727145158007,2.2));
#475=DIRECTION($,(0,0,1));
#476=VECTOR($,#475,1);
#477=LINE($,#474,#476);
#478=EDGE_CURVE($,#169,#465,#477,.T.);
#479=ORIENTED_EDGE($,$,$,#478,.F.);
#480=EDGE_LOOP($,(#455,#463,#473,#479));
#481=FACE_OUTER_BOUND('',#480,.T.);
#482=ADVANCED_FACE('',(#481),#454,.T.);
#483=CARTESIAN_POINT($,(25,25,2.2));
#484=DIRECTION($,(0,0,1));
#485=DIRECTION($,(1,0,0));
#486=AXIS2_PLACEMENT_3D($,#483,#484,#485);
#487=CYLINDRICAL_SURFACE($,#486,3.5);
#488=ORIENTED_EDGE($,$,$,#140,.T.);
#489=CARTESIAN_POINT($,(21.6773504548328,26.1,7.2));
#490=VERTEX_POINT($,#489);
#491=CARTESIAN_POINT($,(21.6773504548328,26.1,2.2));
#492=DIRECTION($,(0,0,1));
#493=VECTOR($,#492,1);
#494=LINE($,#491,#493);
#495=EDGE_CURVE($,#125,#490,#494,.T.);
#496=ORIENTED_EDGE($,$,$,#495,.T.);
#497=CARTESIAN_POINT($,(26.1,21.6773504548328,7.2));
#498=VERTEX_POINT($,#497);
#499=CARTESIAN_POINT($,(25,25,7.2));
#500=DIRECTION($,(0,0,1));
#501=DIRECTION($,(0.3142857142857,-0.9493284414764,0));
#502=AXIS2_PLACEMENT_3D($,#499,#500,#501);
#503=CIRCLE($,#502,3.5);
#504=TRIMMED_CURVE($,#503,(PARAMETER_VALUE(0)),(PARAMETER_VALUE(4.0729806830592)),.T.,.PARAMETER.);
#505=EDGE_CURVE($,#498,#490,#504,.T.);
#506=ORIENTED_EDGE($,$,$,#505,.F.);
#507=CARTESIAN_POINT($,(26.1,21.6773504548328,2.2));
#508=DIRECTION($,(0,0,1));
#509=VECTOR($,#508,1);
#510=LINE($,#507,#509);
#511=EDGE_CURVE($,#133,#498,#510,.T.);
#512=ORIENTED_EDGE($,$,$,#511,.F.);
#513=EDGE_LOOP($,(#488,#496,#506,#512));
#514=FACE_OUTER_BOUND('',#513,.T.);
#515=ADVANCED_FACE('',(#514),#487,.T.);
#516=CARTESIAN_POINT($,(25,25,2.2));
#517=DIRECTION($,(0,0,1));
#518=DIRECTION($,(1,0,0));
#519=AXIS2_PLACEMENT_3D($,#516,#517,#518);
#520=CYLINDRICAL_SURFACE($,#519,3.5);
#521=ORIENTED_EDGE($,$,$,#439,.T.);
#522=CARTESIAN_POINT($,(25,25,7.2));
#523=DIRECTION($,(0,0,1));
#524=DIRECTION($,(-0.8935101383427,-0.4490430187397,0));
#525=AXIS2_PLACEMENT_3D($,#522,#523,#524);
#526=CIRCLE($,#525,3.5);
#527=TRIMMED_CURVE($,#526,(PARAMETER_VALUE(0)),(PARAMETER_VALUE(0.6394082973255)),.T.,.PARAMETER.);
#528=EDGE_CURVE($,#424,#465,#527,.T.);
#529=ORIENTED_EDGE($,$,$,#528,.T.);
#530=ORIENTED_EDGE($,$,$,#472,.T.);
#531=CARTESIAN_POINT($,(25,25,7.2));
#532=DIRECTION($,(0,0,1));
#533=DIRECTION($,(-0.3142857142857,-0.9493284414764,0));
#534=AXIS2_PLACEMENT_3D($,#531,#532,#533);
#535=CIRCLE($,#534,3.5);
#536=TRIMMED_CURVE($,#535,(PARAMETER_VALUE(0)),(PARAMETER_VALUE(0.6394082973255)),.T.,.PARAMETER.);
#537=EDGE_CURVE($,#457,#498,#536,.T.);
#538=ORIENTED_EDGE($,$,$,#537,.T.);
#539=ORIENTED_EDGE($,$,$,#505,.T.);
#540=CARTESIAN_POINT($,(25,25,7.2));
#541=DIRECTION($,(0,0,1));
#542=DIRECTION($,(-0.9493284414764,0.3142857142857,0));
#543=AXIS2_PLACEMENT_3D($,#540,#541,#542);
#544=CIRCLE($,#543,3.5);
#545=TRIMMED_CURVE($,#544,(PARAMETER_VALUE(0)),(PARAMETER_VALUE(0.6394082973255)),.T.,.PARAMETER.);
#546=EDGE_CURVE($,#490,#432,#545,.T.);
#547=ORIENTED_EDGE($,$,$,#546,.T.);
#548=EDGE_LOOP($,(#521,#529,#530,#538,#539,#547));
#549=FACE_OUTER_BOUND('',#548,.T.);
#550=CARTESIAN_POINT($,(28.5,25,10.2));
#551=VERTEX_POINT($,#550);
#552=CARTESIAN_POINT($,(25,25,10.2));
#553=DIRECTION($,(0,0,1));
#554=DIRECTION($,(1,0,0));
#555=AXIS2_PLACEMENT_3D($,#552,#553,#554);
#556=CIRCLE($,#555,3.5);
#557=EDGE_CURVE($,#551,#551,#556,.T.);
#558=ORIENTED_EDGE($,$,$,#557,.F.);
#559=EDGE_LOOP($,(#558));
#560=FACE_BOUND('',#559,.T.);
#561=ADVANCED_FACE('',(#549,#560),#520,.T.);
#562=CARTESIAN_POINT($,(25,25,2.2));
#563=DIRECTION($,(0,0,1));
#564=DIRECTION($,(1,0,0));
#565=AXIS2_PLACEMENT_3D($,#562,#563,#564);
#566=CYLINDRICAL_SURFACE($,#565,1.5);
#567=CARTESIAN_POINT($,(26.5,25,2.2));
#568=VERTEX_POINT($,#567);
#569=CARTESIAN_POINT($,(25,25,2.2));
#570=DIRECTION($,(0,0,1));
#571=DIRECTION($,(1,0,0));
#572=AXIS2_PLACEMENT_3D($,#569,#570,#571);
#573=CIRCLE($,#572,1.5);
#574=EDGE_CURVE($,#568,#568,#573,.T.);
#575=ORIENTED_EDGE($,$,$,#574,.T.);
#576=EDGE_LOOP($,(#575));
#577=FACE_OUTER_BOUND('',#576,.T.);
#578=CARTESIAN_POINT($,(26.5,25,10.2));
#579=VERTEX_POINT($,#578);
#580=CARTESIAN_POINT($,(25,25,10.2));
#581=DIRECTION($,(0,0,1));
#582=DIRECTION($,(1,0,0));
#583=AXIS2_PLACEMENT_3D($,#580,#581,#582);
#584=CIRCLE($,#583,1.5);
#585=EDGE_CURVE($,#579,#579,#584,.T.);
#586=ORIENTED_EDGE($,$,$,#585,.F.);
#587=EDGE_LOOP($,(#586));
#588=FACE_BOUND('',#587,.T.);
#589=ADVANCED_FACE('',(#577,#588),#566,.F.);
#590=CARTESIAN_POINT($,(25,25,10.2));
#591=DIRECTION($,(0,0,1));
#592=DIRECTION($,(1,0,0));
#593=AXIS2_PLACEMENT_3D($,#590,#591,#592);
#594=PLANE($,#593);
#595=ORIENTED_EDGE($,$,$,#557,.T.);
#596=EDGE_LOOP($,(#595));
#597=FACE_OUTER_BOUND('',#596,.T.);
#598=ORIENTED_EDGE($,$,$,#585,.F.);
#599=EDGE_LOOP($,(#598));
#600=FACE_BOUND('',#599,.T.);
#601=ADVANCED_FACE('',(#597,#600),#594,.T.);
#602=CARTESIAN_POINT($,(25,25,2.2));
#603=DIRECTION($,(0,0,1));
#604=DIRECTION($,(1,0,0));
#605=AXIS2_PLACEMENT_3D($,#602,#603,#604);
#606=PLANE($,#605);
#607=ORIENTED_EDGE($,$,$,#574,.T.);
#608=EDGE_LOOP($,(#607));
#609=FACE_OUTER_BOUND('',#608,.T.);
#610=ADVANCED_FACE('',(#609),#606,.T.);
#611=CARTESIAN_POINT($,(-25,25,2.2));
#612=DIRECTION($,(0,0,1));
#613=DIRECTION($,(1,0,0));
#614=AXIS2_PLACEMENT_3D($,#611,#612,#613);
#615=CYLINDRICAL_SURFACE($,#614,3.5);
#616=ORIENTED_EDGE($,$,$,#122,.T.);
#617=CARTESIAN_POINT($,(-21.6773504548328,23.9,7.2));
#618=VERTEX_POINT($,#617);
#619=CARTESIAN_POINT($,(-21.6773504548328,23.9,2.2));
#620=DIRECTION($,(0,0,1));
#621=VECTOR($,#620,1);
#622=LINE($,#619,#621);
#623=EDGE_CURVE($,#107,#618,#622,.T.);
#624=ORIENTED_EDGE($,$,$,#623,.T.);
#625=CARTESIAN_POINT($,(-21.6773504548328,26.1,7.2));
#626=VERTEX_POINT($,#625);
#627=CARTESIAN_POINT($,(-25,25,7.2));
#628=DIRECTION($,(0,0,1));
#629=DIRECTION($,(0.9493284414764,0.3142857142857,0));
#630=AXIS2_PLACEMENT_3D($,#627,#628,#629);
#631=CIRCLE($,#630,3.5);
#632=TRIMMED_CURVE($,#631,(PARAMETER_VALUE(0)),(PARAMETER_VALUE(5.6437770098541)),.T.,.PARAMETER.);
#633=EDGE_CURVE($,#626,#618,#632,.T.);
#634=ORIENTED_EDGE($,$,$,#633,.F.);
#635=CARTESIAN_POINT($,(-21.6773504548328,26.1,2.2));
#636=DIRECTION($,(0,0,1));
#637=VECTOR($,#636,1);
#638=LINE($,#635,#637);
#639=EDGE_CURVE($,#115,#626,#638,.T.);
#640=ORIENTED_EDGE($,$,$,#639,.F.);
#641=EDGE_LOOP($,(#616,#624,#634,#640));
#642=FACE_OUTER_BOUND('',#641,.T.);
#643=ADVANCED_FACE('',(#642),#615,.T.);
#644=CARTESIAN_POINT($,(-25,25,2.2));
#645=DIRECTION($,(0,0,1));
#646=DIRECTION($,(1,0,0));
#647=AXIS2_PLACEMENT_3D($,#644,#645,#646);
#648=CYLINDRICAL_SURFACE($,#647,3.5);
#649=ORIENTED_EDGE($,$,$,#633,.T.);
#650=CARTESIAN_POINT($,(-25,25,7.2));
#651=DIRECTION($,(0,0,1));
#652=DIRECTION($,(0.9493284414764,-0.3142857142857,0));
#653=AXIS2_PLACEMENT_3D($,#650,#651,#652);
#654=CIRCLE($,#653,3.5);
#655=TRIMMED_CURVE($,#654,(PARAMETER_VALUE(0)),(PARAMETER_VALUE(0.6394082973255)),.T.,.PARAMETER.);
#656=EDGE_CURVE($,#618,#626,#655,.T.);
#657=ORIENTED_EDGE($,$,$,#656,.T.);
#658=EDGE_LOOP($,(#649,#657));
#659=FACE_OUTER_BOUND('',#658,.T.);
#660=CARTESIAN_POINT($,(-21.5,25,10.2));
#661=VERTEX_POINT($,#660);
#662=CARTESIAN_POINT($,(-25,25,10.2));
#663=DIRECTION($,(0,0,1));
#664=DIRECTION($,(1,0,0));
#665=AXIS2_PLACEMENT_3D($,#662,#663,#664);
#666=CIRCLE($,#665,3.5);
#667=EDGE_CURVE($,#661,#661,#666,.T.);
#668=ORIENTED_EDGE($,$,$,#667,.F.);
#669=EDGE_LOOP($,(#668));
#670=FACE_BOUND('',#669,.T.);
#671=ADVANCED_FACE('',(#659,#670),#648,.T.);
#672=CARTESIAN_POINT($,(-25,25,2.2));
#673=DIRECTION($,(0,0,1));
#674=DIRECTION($,(1,0,0));
#675=AXIS2_PLACEMENT_3D($,#672,#673,#674);
#676=CYLINDRICAL_SURFACE($,#675,1.5);
#677=CARTESIAN_POINT($,(-23.5,25,2.2));
#678=VERTEX_POINT($,#677);
#679=CARTESIAN_POINT($,(-25,25,2.2));
#680=DIRECTION($,(0,0,1));
#681=DIRECTION($,(1,0,0));
#682=AXIS2_PLACEMENT_3D($,#679,#680,#681);
#683=CIRCLE($,#682,1.5);
#684=EDGE_CURVE($,#678,#678,#683,.T.);
#685=ORIENTED_EDGE($,$,$,#684,.T.);
#686=EDGE_LOOP($,(#685));
#687=FACE_OUTER_BOUND('',#686,.T.);
#688=CARTESIAN_POINT($,(-23.5,25,10.2));
#689=VERTEX_POINT($,#688);
#690=CARTESIAN_POINT($,(-25,25,10.2));
#691=DIRECTION($,(0,0,1));
#692=DIRECTION($,(1,0,0));
#693=AXIS2_PLACEMENT_3D($,#690,#691,#692);
#694=CIRCLE($,#693,1.5);
#695=EDGE_CURVE($,#689,#689,#694,.T.);
#696=ORIENTED_EDGE($,$,$,#695,.F.);
#697=EDGE_LOOP($,(#696));
#698=FACE_BOUND('',#697,.T.);
#699=ADVANCED_FACE('',(#687,#698),#676,.F.);
#700=CARTESIAN_POINT($,(-25,25,10.2));
#701=DIRECTION($,(0,0,1));
#702=DIRECTION($,(1,0,0));
#703=AXIS2_PLACEMENT_3D($,#700,#701,#702);
#704=PLANE($,#703);
#705=ORIENTED_EDGE($,$,$,#667,.T.);
#706=EDGE_LOOP($,(#705));
#707=FACE_OUTER_BOUND('',#706,.T.);
#708=ORIENTED_EDGE($,$,$,#695,.F.);
#709=EDGE_LOOP($,(#708));
#710=FACE_BOUND('',#709,.T.);
#711=ADVANCED_FACE('',(#707,#710),#704,.T.);
#712=CARTESIAN_POINT($,(-25,25,2.2));
#713=DIRECTION($,(0,0,1));
#714=DIRECTION($,(1,0,0));
#715=AXIS2_PLACEMENT_3D($,#712,#713,#714);
#716=PLANE($,#715);
#717=ORIENTED_EDGE($,$,$,#684,.T.);
#718=EDGE_LOOP($,(#717));
#719=FACE_OUTER_BOUND('',#718,.T.);
#720=ADVANCED_FACE('',(#719),#716,.T.);
#721=CARTESIAN_POINT($,(23.4283494344111,21.8727145158007,2.2));
#722=DIRECTION($,(-0.7071067811865,0.7071067811865,0));
#723=DIRECTION($,(0.7071067811865,0.7071067811865,0));
#724=AXIS2_PLACEMENT_3D($,#721,#722,#723);
#725=PLANE($,#724);
#726=ORIENTED_EDGE($,$,$,#184,.T.);
#727=ORIENTED_EDGE($,$,$,#209,.T.);
#728=CARTESIAN_POINT($,(23.4283494344111,21.8727145158007,7.2));
#729=DIRECTION($,(-0.7071067811865,-0.7071067811865,0));
#730=VECTOR($,#729,1);
#731=LINE($,#728,#730);
#732=EDGE_CURVE($,#465,#204,#731,.T.);
#733=ORIENTED_EDGE($,$,$,#732,.F.);
#734=ORIENTED_EDGE($,$,$,#478,.F.);
#735=EDGE_LOOP($,(#726,#727,#733,#734));
#736=FACE_OUTER_BOUND('',#735,.T.);
#737=ADVANCED_FACE('',(#736),#725,.T.);
#738=CARTESIAN_POINT($,(21.8727145158007,23.4283494344111,2.2));
#739=DIRECTION($,(-0.7071067811865,0.7071067811865,0));
#740=DIRECTION($,(0.7071067811865,0.7071067811865,0));
#741=AXIS2_PLACEMENT_3D($,#738,#739,#740);
#742=PLANE($,#741);
#743=ORIENTED_EDGE($,$,$,#94,.T.);
#744=ORIENTED_EDGE($,$,$,#225,.T.);
#745=CARTESIAN_POINT($,(21.8727145158007,23.4283494344111,7.2));
#746=DIRECTION($,(-0.7071067811865,-0.7071067811865,0));
#747=VECTOR($,#746,1);
#748=LINE($,#745,#747);
#749=EDGE_CURVE($,#424,#212,#748,.T.);
#750=ORIENTED_EDGE($,$,$,#749,.F.);
#751=ORIENTED_EDGE($,$,$,#429,.F.);
#752=EDGE_LOOP($,(#743,#744,#750,#751));
#753=FACE_OUTER_BOUND('',#752,.T.);
#754=ADVANCED_FACE('',(#753),#742,.T.);
#755=CARTESIAN_POINT($,(23.4283494344111,21.8727145158007,7.2));
#756=DIRECTION($,(0,0,1));
#757=DIRECTION($,(1,0,0));
#758=AXIS2_PLACEMENT_3D($,#755,#756,#757);
#759=PLANE($,#758);
#760=ORIENTED_EDGE($,$,$,#732,.T.);
#761=ORIENTED_EDGE($,$,$,#242,.T.);
#762=ORIENTED_EDGE($,$,$,#749,.F.);
#763=ORIENTED_EDGE($,$,$,#528,.T.);
#764=EDGE_LOOP($,(#760,#761,#762,#763));
#765=FACE_OUTER_BOUND('',#764,.T.);
#766=ADVANCED_FACE('',(#765),#759,.T.);
#767=CARTESIAN_POINT($,(26.1,21.6773504548328,2.2));
#768=DIRECTION($,(-1,0,0));
#769=DIRECTION($,(0,1,0));
#770=AXIS2_PLACEMENT_3D($,#767,#768,#769);
#771=PLANE($,#770);
#772=ORIENTED_EDGE($,$,$,#148,.T.);
#773=ORIENTED_EDGE($,$,$,#319,.T.);
#774=CARTESIAN_POINT($,(26.1,21.6773504548328,7.2));
#775=DIRECTION($,(0,-1,0));
#776=VECTOR($,#775,1);
#777=LINE($,#774,#776);
#778=EDGE_CURVE($,#498,#314,#777,.T.);
#779=ORIENTED_EDGE($,$,$,#778,.F.);
#780=ORIENTED_EDGE($,$,$,#511,.F.);
#781=EDGE_LOOP($,(#772,#773,#779,#780));
#782=FACE_OUTER_BOUND('',#781,.T.);
#783=ADVANCED_FACE('',(#782),#771,.T.);
#784=CARTESIAN_POINT($,(23.9,21.6773504548328,2.2));
#785=DIRECTION($,(-1,0,0));
#786=DIRECTION($,(0,1,0));
#787=AXIS2_PLACEMENT_3D($,#784,#785,#786);
#788=PLANE($,#787);
#789=ORIENTED_EDGE($,$,$,#166,.T.);
#790=ORIENTED_EDGE($,$,$,#335,.T.);
#791=CARTESIAN_POINT($,(23.9,21.6773504548328,7.2));
#792=DIRECTION($,(0,-1,0));
#793=VECTOR($,#792,1);
#794=LINE($,#791,#793);
#795=EDGE_CURVE($,#457,#322,#794,.T.);
#796=ORIENTED_EDGE($,$,$,#795,.F.);
#797=ORIENTED_EDGE($,$,$,#462,.F.);
#798=EDGE_LOOP($,(#789,#790,#796,#797));
#799=FACE_OUTER_BOUND('',#798,.T.);
#800=ADVANCED_FACE('',(#799),#788,.T.);
#801=CARTESIAN_POINT($,(26.1,21.6773504548328,7.2));
#802=DIRECTION($,(0,0,1));
#803=DIRECTION($,(1,0,0));
#804=AXIS2_PLACEMENT_3D($,#801,#802,#803);
#805=PLANE($,#804);
#806=ORIENTED_EDGE($,$,$,#778,.T.);
#807=ORIENTED_EDGE($,$,$,#352,.T.);
#808=ORIENTED_EDGE($,$,$,#795,.F.);
#809=ORIENTED_EDGE($,$,$,#537,.T.);
#810=EDGE_LOOP($,(#806,#807,#808,#809));
#811=FACE_OUTER_BOUND('',#810,.T.);
#812=ADVANCED_FACE('',(#811),#805,.T.);
#813=CARTESIAN_POINT($,(21.6773504548328,23.9,2.2));
#814=DIRECTION($,(0,1,-0));
#815=DIRECTION($,(1,0,0));
#816=AXIS2_PLACEMENT_3D($,#813,#814,#815);
#817=PLANE($,#816);
#818=ORIENTED_EDGE($,$,$,#112,.T.);
#819=ORIENTED_EDGE($,$,$,#623,.T.);
#820=CARTESIAN_POINT($,(21.6773504548328,23.9,7.2));
#821=DIRECTION($,(-1,0,0));
#822=VECTOR($,#821,1);
#823=LINE($,#820,#822);
#824=EDGE_CURVE($,#432,#618,#823,.T.);
#825=ORIENTED_EDGE($,$,$,#824,.F.);
#826=ORIENTED_EDGE($,$,$,#445,.F.);
#827=EDGE_LOOP($,(#818,#819,#825,#826));
#828=FACE_OUTER_BOUND('',#827,.T.);
#829=ADVANCED_FACE('',(#828),#817,.T.);
#830=CARTESIAN_POINT($,(21.6773504548328,26.1,2.2));
#831=DIRECTION($,(0,1,-0));
#832=DIRECTION($,(1,0,0));
#833=AXIS2_PLACEMENT_3D($,#830,#831,#832);
#834=PLANE($,#833);
#835=ORIENTED_EDGE($,$,$,#130,.T.);
#836=ORIENTED_EDGE($,$,$,#639,.T.);
#837=CARTESIAN_POINT($,(21.6773504548328,26.1,7.2));
#838=DIRECTION($,(-1,0,0));
#839=VECTOR($,#838,1);
#840=LINE($,#837,#839);
#841=EDGE_CURVE($,#490,#626,#840,.T.);
#842=ORIENTED_EDGE($,$,$,#841,.F.);
#843=ORIENTED_EDGE($,$,$,#495,.F.);
#844=EDGE_LOOP($,(#835,#836,#842,#843));
#845=FACE_OUTER_BOUND('',#844,.T.);
#846=ADVANCED_FACE('',(#845),#834,.T.);
#847=CARTESIAN_POINT($,(21.6773504548328,23.9,7.2));
#848=DIRECTION($,(0,0,1));
#849=DIRECTION($,(1,0,0));
#850=AXIS2_PLACEMENT_3D($,#847,#848,#849);
#851=PLANE($,#850);
#852=ORIENTED_EDGE($,$,$,#824,.T.);
#853=ORIENTED_EDGE($,$,$,#656,.T.);
#854=ORIENTED_EDGE($,$,$,#841,.F.);
#855=ORIENTED_EDGE($,$,$,#546,.T.);
#856=EDGE_LOOP($,(#852,#853,#854,#855));
#857=FACE_OUTER_BOUND('',#856,.T.);
#858=ADVANCED_FACE('',(#857),#851,.T.);
#859=CLOSED_SHELL($,(#28,#56,#65,#77,#196,#229,#257,#285,#297,#306,#339,#367,#395,#407,#416,#449,#482,#515,#561,#589,#601,#610,#643,#671,#699,#711,#720,#737,#754,#766,#783,#800,#812,#829,#846,#858));
#860=MANIFOLD_SOLID_BREP('MoldX0ElectronicsEnclosureHalf',#859);
#861=APPLICATION_CONTEXT('mechanical design');
#862=PRODUCT_CONTEXT('',#861,'mechanical');
#863=PRODUCT('AETHERIS','MoldX0ElectronicsEnclosureHalf','',(#862));
#864=PRODUCT_DEFINITION_FORMATION('','',#863);
#865=PRODUCT_DEFINITION_CONTEXT('design',#861,'design');
#866=PRODUCT_DEFINITION('','',#864,#865);
#867=PRODUCT_DEFINITION_SHAPE('','',#866);
#868=(LENGTH_UNIT()NAMED_UNIT(*)SI_UNIT(.MILLI.,.METRE.));
#869=(NAMED_UNIT(*)PLANE_ANGLE_UNIT()SI_UNIT($,.RADIAN.));
#870=(NAMED_UNIT(*)SI_UNIT($,.STERADIAN.)SOLID_ANGLE_UNIT());
#871=(GEOMETRIC_REPRESENTATION_CONTEXT(3)GLOBAL_UNIT_ASSIGNED_CONTEXT((#868,#869,#870))REPRESENTATION_CONTEXT('3','3D'));
#872=SHAPE_REPRESENTATION('MoldX0ElectronicsEnclosureHalf',(#860),#871);
#873=SHAPE_DEFINITION_REPRESENTATION(#867,#872);
#874=SHAPE_ASPECT('firmament-note:plastic-shell:EnclosureHalf','semantic note target=EnclosureHalf.ExteriorDesignSurface',#867,.F.);
#875=PROPERTY_DEFINITION('note:plastic-shell:EnclosureHalf','First-class molded plastic product definition; wall=2.2 mm, tooling=(0,0,1), parting=MainParting, draft=3 deg; gate, ejection, and reinforcement intent retained.',#874);
#876=SHAPE_ASPECT('firmament-note:gate:MainGate','semantic note target=TopAnnularRim',#867,.F.);
#877=PROPERTY_DEFINITION('note:gate:MainGate','Edge gate at (0,57,20); geometric flow proxy only.',#876);
#878=SHAPE_ASPECT('firmament-note:standoff:PcbA','semantic note target=Standoff:PcbA',#867,.F.);
#879=PROPERTY_DEFINITION('note:standoff:PcbA','Pcb support at (-25,-25,2.2); exact analytic annular feature with retained core hole.',#878);
#880=SHAPE_ASPECT('firmament-geometric-target:Standoff:PcbA','semantic geometry binding target=Standoff:PcbA',#867,.T.);
#881=GEOMETRIC_ITEM_SPECIFIC_USAGE('firmament semantic target','target=Standoff:PcbA',#880,#872,#229);
#882=GEOMETRIC_ITEM_SPECIFIC_USAGE('firmament semantic target','target=Standoff:PcbA',#880,#872,#257);
#883=GEOMETRIC_ITEM_SPECIFIC_USAGE('firmament semantic target','target=Standoff:PcbA',#880,#872,#285);
#884=GEOMETRIC_ITEM_SPECIFIC_USAGE('firmament semantic target','target=Standoff:PcbA',#880,#872,#297);
#885=GEOMETRIC_ITEM_SPECIFIC_USAGE('firmament semantic target','target=Standoff:PcbA',#880,#872,#306);
#886=SHAPE_ASPECT('firmament-note:standoff:PcbB','semantic note target=Standoff:PcbB',#867,.F.);
#887=PROPERTY_DEFINITION('note:standoff:PcbB','Pcb support at (25,-25,2.2); exact analytic annular feature with retained core hole.',#886);
#888=SHAPE_ASPECT('firmament-geometric-target:Standoff:PcbB','semantic geometry binding target=Standoff:PcbB',#867,.T.);
#889=GEOMETRIC_ITEM_SPECIFIC_USAGE('firmament semantic target','target=Standoff:PcbB',#888,#872,#339);
#890=GEOMETRIC_ITEM_SPECIFIC_USAGE('firmament semantic target','target=Standoff:PcbB',#888,#872,#367);
#891=GEOMETRIC_ITEM_SPECIFIC_USAGE('firmament semantic target','target=Standoff:PcbB',#888,#872,#395);
#892=GEOMETRIC_ITEM_SPECIFIC_USAGE('firmament semantic target','target=Standoff:PcbB',#888,#872,#407);
#893=GEOMETRIC_ITEM_SPECIFIC_USAGE('firmament semantic target','target=Standoff:PcbB',#888,#872,#416);
#894=SHAPE_ASPECT('firmament-note:standoff:PcbC','semantic note target=Standoff:PcbC',#867,.F.);
#895=PROPERTY_DEFINITION('note:standoff:PcbC','Pcb support at (25,25,2.2); exact analytic annular feature with retained core hole.',#894);
#896=SHAPE_ASPECT('firmament-geometric-target:Standoff:PcbC','semantic geometry binding target=Standoff:PcbC',#867,.T.);
#897=GEOMETRIC_ITEM_SPECIFIC_USAGE('firmament semantic target','target=Standoff:PcbC',#896,#872,#449);
#898=GEOMETRIC_ITEM_SPECIFIC_USAGE('firmament semantic target','target=Standoff:PcbC',#896,#872,#482);
#899=GEOMETRIC_ITEM_SPECIFIC_USAGE('firmament semantic target','target=Standoff:PcbC',#896,#872,#515);
#900=GEOMETRIC_ITEM_SPECIFIC_USAGE('firmament semantic target','target=Standoff:PcbC',#896,#872,#561);
#901=GEOMETRIC_ITEM_SPECIFIC_USAGE('firmament semantic target','target=Standoff:PcbC',#896,#872,#589);
#902=GEOMETRIC_ITEM_SPECIFIC_USAGE('firmament semantic target','target=Standoff:PcbC',#896,#872,#601);
#903=GEOMETRIC_ITEM_SPECIFIC_USAGE('firmament semantic target','target=Standoff:PcbC',#896,#872,#610);
#904=SHAPE_ASPECT('firmament-note:standoff:PcbD','semantic note target=Standoff:PcbD',#867,.F.);
#905=PROPERTY_DEFINITION('note:standoff:PcbD','Pcb support at (-25,25,2.2); exact analytic annular feature with retained core hole.',#904);
#906=SHAPE_ASPECT('firmament-geometric-target:Standoff:PcbD','semantic geometry binding target=Standoff:PcbD',#867,.T.);
#907=GEOMETRIC_ITEM_SPECIFIC_USAGE('firmament semantic target','target=Standoff:PcbD',#906,#872,#643);
#908=GEOMETRIC_ITEM_SPECIFIC_USAGE('firmament semantic target','target=Standoff:PcbD',#906,#872,#671);
#909=GEOMETRIC_ITEM_SPECIFIC_USAGE('firmament semantic target','target=Standoff:PcbD',#906,#872,#699);
#910=GEOMETRIC_ITEM_SPECIFIC_USAGE('firmament semantic target','target=Standoff:PcbD',#906,#872,#711);
#911=GEOMETRIC_ITEM_SPECIFIC_USAGE('firmament semantic target','target=Standoff:PcbD',#906,#872,#720);
#912=SHAPE_ASPECT('firmament-note:ejector-pin:E1','semantic note target=InnerBottom',#867,.F.);
#913=PROPERTY_DEFINITION('note:ejector-pin:E1','Tooling contact diameter 4 mm; not a product hole.',#912);
#914=SHAPE_ASPECT('firmament-note:ejector-pin:E2','semantic note target=InnerBottom',#867,.F.);
#915=PROPERTY_DEFINITION('note:ejector-pin:E2','Tooling contact diameter 4 mm; not a product hole.',#914);
#916=SHAPE_ASPECT('firmament-note:ejector-pin:E3','semantic note target=InnerBottom',#867,.F.);
#917=PROPERTY_DEFINITION('note:ejector-pin:E3','Tooling contact diameter 4 mm; not a product hole.',#916);
#918=SHAPE_ASPECT('firmament-note:ejector-pin:E4','semantic note target=InnerBottom',#867,.F.);
#919=PROPERTY_DEFINITION('note:ejector-pin:E4','Tooling contact diameter 4 mm; not a product hole.',#918);
#920=SHAPE_ASPECT('firmament-note:autorib:PcbSupportNetwork','semantic note target=AutoRib:PcbSupportNetwork',#867,.F.);
#921=PROPERTY_DEFINITION('note:autorib:PcbSupportNetwork','Selected network gate-oriented-fan; physically grafted as constant-shell-thickness B-rep walls with flat tops and explicitly reported zero release draft; see judgment evidence sidecar.',#920);
#922=SHAPE_ASPECT('firmament-geometric-target:AutoRib:PcbSupportNetwork','semantic geometry binding target=AutoRib:PcbSupportNetwork',#867,.T.);
#923=GEOMETRIC_ITEM_SPECIFIC_USAGE('firmament semantic target','target=AutoRib:PcbSupportNetwork',#922,#872,#737);
#924=GEOMETRIC_ITEM_SPECIFIC_USAGE('firmament semantic target','target=AutoRib:PcbSupportNetwork',#922,#872,#754);
#925=GEOMETRIC_ITEM_SPECIFIC_USAGE('firmament semantic target','target=AutoRib:PcbSupportNetwork',#922,#872,#766);
#926=GEOMETRIC_ITEM_SPECIFIC_USAGE('firmament semantic target','target=AutoRib:PcbSupportNetwork',#922,#872,#783);
#927=GEOMETRIC_ITEM_SPECIFIC_USAGE('firmament semantic target','target=AutoRib:PcbSupportNetwork',#922,#872,#800);
#928=GEOMETRIC_ITEM_SPECIFIC_USAGE('firmament semantic target','target=AutoRib:PcbSupportNetwork',#922,#872,#812);
#929=GEOMETRIC_ITEM_SPECIFIC_USAGE('firmament semantic target','target=AutoRib:PcbSupportNetwork',#922,#872,#829);
#930=GEOMETRIC_ITEM_SPECIFIC_USAGE('firmament semantic target','target=AutoRib:PcbSupportNetwork',#922,#872,#846);
#931=GEOMETRIC_ITEM_SPECIFIC_USAGE('firmament semantic target','target=AutoRib:PcbSupportNetwork',#922,#872,#858);
ENDSEC;
END-ISO-10303-21;
