ISO-10303-21;
HEADER;
FILE_DESCRIPTION(('Aetheris AP242 subset export'),'2;1');
FILE_NAME('aetheris_export.step','1970-01-01T00:00:00',('Aetheris'),('Aetheris'),'Aetheris.Kernel','Aetheris.Kernel','');
FILE_SCHEMA(('AP242_MANAGED_MODEL_BASED_3D_ENGINEERING_MIM_LF'));
ENDSEC;
DATA;
#1=CARTESIAN_POINT($,(-40,-30,12));
#2=CARTESIAN_POINT($,(-40,-22.5,9));
#3=CARTESIAN_POINT($,(-40,-15,6));
#4=CARTESIAN_POINT($,(-40,-7.5,3));
#5=CARTESIAN_POINT($,(-40,0,-0));
#6=CARTESIAN_POINT($,(-40,7.5,-3));
#7=CARTESIAN_POINT($,(-40,15,-6));
#8=CARTESIAN_POINT($,(-40,22.5,-9));
#9=CARTESIAN_POINT($,(-40,30,-12));
#10=CARTESIAN_POINT($,(-30,-30,9));
#11=CARTESIAN_POINT($,(-30,-22.5,6.75));
#12=CARTESIAN_POINT($,(-30,-15,4.5));
#13=CARTESIAN_POINT($,(-30,-7.5,2.25));
#14=CARTESIAN_POINT($,(-30,0,-0));
#15=CARTESIAN_POINT($,(-30,7.5,-2.25));
#16=CARTESIAN_POINT($,(-30,15,-4.5));
#17=CARTESIAN_POINT($,(-30,22.5,-6.75));
#18=CARTESIAN_POINT($,(-30,30,-9));
#19=CARTESIAN_POINT($,(-20,-30,6));
#20=CARTESIAN_POINT($,(-20,-22.5,4.5));
#21=CARTESIAN_POINT($,(-20,-15,3));
#22=CARTESIAN_POINT($,(-20,-7.5,1.5));
#23=CARTESIAN_POINT($,(-20,0,-0));
#24=CARTESIAN_POINT($,(-20,7.5,-1.5));
#25=CARTESIAN_POINT($,(-20,15,-3));
#26=CARTESIAN_POINT($,(-20,22.5,-4.5));
#27=CARTESIAN_POINT($,(-20,30,-6));
#28=CARTESIAN_POINT($,(-10,-30,3));
#29=CARTESIAN_POINT($,(-10,-22.5,2.25));
#30=CARTESIAN_POINT($,(-10,-15,1.5));
#31=CARTESIAN_POINT($,(-10,-7.5,0.75));
#32=CARTESIAN_POINT($,(-10,0,-0));
#33=CARTESIAN_POINT($,(-10,7.5,-0.75));
#34=CARTESIAN_POINT($,(-10,15,-1.5));
#35=CARTESIAN_POINT($,(-10,22.5,-2.25));
#36=CARTESIAN_POINT($,(-10,30,-3));
#37=CARTESIAN_POINT($,(0,-30,-0));
#38=CARTESIAN_POINT($,(0,-22.5,-0));
#39=CARTESIAN_POINT($,(0,-15,-0));
#40=CARTESIAN_POINT($,(0,-7.5,-0));
#41=CARTESIAN_POINT($,(0,0,0));
#42=CARTESIAN_POINT($,(0,7.5,0));
#43=CARTESIAN_POINT($,(0,15,0));
#44=CARTESIAN_POINT($,(0,22.5,0));
#45=CARTESIAN_POINT($,(0,30,0));
#46=CARTESIAN_POINT($,(10,-30,-3));
#47=CARTESIAN_POINT($,(10,-22.5,-2.25));
#48=CARTESIAN_POINT($,(10,-15,-1.5));
#49=CARTESIAN_POINT($,(10,-7.5,-0.75));
#50=CARTESIAN_POINT($,(10,0,0));
#51=CARTESIAN_POINT($,(10,7.5,0.75));
#52=CARTESIAN_POINT($,(10,15,1.5));
#53=CARTESIAN_POINT($,(10,22.5,2.25));
#54=CARTESIAN_POINT($,(10,30,3));
#55=CARTESIAN_POINT($,(20,-30,-6));
#56=CARTESIAN_POINT($,(20,-22.5,-4.5));
#57=CARTESIAN_POINT($,(20,-15,-3));
#58=CARTESIAN_POINT($,(20,-7.5,-1.5));
#59=CARTESIAN_POINT($,(20,0,0));
#60=CARTESIAN_POINT($,(20,7.5,1.5));
#61=CARTESIAN_POINT($,(20,15,3));
#62=CARTESIAN_POINT($,(20,22.5,4.5));
#63=CARTESIAN_POINT($,(20,30,6));
#64=CARTESIAN_POINT($,(30,-30,-9));
#65=CARTESIAN_POINT($,(30,-22.5,-6.75));
#66=CARTESIAN_POINT($,(30,-15,-4.5));
#67=CARTESIAN_POINT($,(30,-7.5,-2.25));
#68=CARTESIAN_POINT($,(30,0,0));
#69=CARTESIAN_POINT($,(30,7.5,2.25));
#70=CARTESIAN_POINT($,(30,15,4.5));
#71=CARTESIAN_POINT($,(30,22.5,6.75));
#72=CARTESIAN_POINT($,(30,30,9));
#73=CARTESIAN_POINT($,(40,-30,-12));
#74=CARTESIAN_POINT($,(40,-22.5,-9));
#75=CARTESIAN_POINT($,(40,-15,-6));
#76=CARTESIAN_POINT($,(40,-7.5,-3));
#77=CARTESIAN_POINT($,(40,0,0));
#78=CARTESIAN_POINT($,(40,7.5,3));
#79=CARTESIAN_POINT($,(40,15,6));
#80=CARTESIAN_POINT($,(40,22.5,9));
#81=CARTESIAN_POINT($,(40,30,12));
#82=B_SPLINE_SURFACE_WITH_KNOTS($,1,1,((#1,#2,#3,#4,#5,#6,#7,#8,#9),(#10,#11,#12,#13,#14,#15,#16,#17,#18),(#19,#20,#21,#22,#23,#24,#25,#26,#27),(#28,#29,#30,#31,#32,#33,#34,#35,#36),(#37,#38,#39,#40,#41,#42,#43,#44,#45),(#46,#47,#48,#49,#50,#51,#52,#53,#54),(#55,#56,#57,#58,#59,#60,#61,#62,#63),(#64,#65,#66,#67,#68,#69,#70,#71,#72),(#73,#74,#75,#76,#77,#78,#79,#80,#81)),.SURFACE_OF_LINEAR_EXTRUSION.,.F.,.F.,.F.,(2,1,1,1,1,1,1,1,2),(2,1,1,1,1,1,1,1,2),(0,0.125,0.25,0.375,0.5,0.625,0.75,0.875,1),(0,0.125,0.25,0.375,0.5,0.625,0.75,0.875,1),.UNSPECIFIED.);
#83=CARTESIAN_POINT($,(-40,-30,12));
#84=VERTEX_POINT($,#83);
#85=CARTESIAN_POINT($,(40,-30,-12));
#86=VERTEX_POINT($,#85);
#87=CARTESIAN_POINT($,(-40,-30,12));
#88=CARTESIAN_POINT($,(-30,-30,9));
#89=CARTESIAN_POINT($,(-20,-30,6));
#90=CARTESIAN_POINT($,(-10,-30,3));
#91=CARTESIAN_POINT($,(0,-30,-0));
#92=CARTESIAN_POINT($,(10,-30,-3));
#93=CARTESIAN_POINT($,(20,-30,-6));
#94=CARTESIAN_POINT($,(30,-30,-9));
#95=CARTESIAN_POINT($,(40,-30,-12));
#96=B_SPLINE_CURVE_WITH_KNOTS($,1,(#87,#88,#89,#90,#91,#92,#93,#94,#95),.UNSPECIFIED.,.F.,.F.,(2,1,1,1,1,1,1,1,2),(0,0.125,0.25,0.375,0.5,0.625,0.75,0.875,1),.UNSPECIFIED.);
#97=EDGE_CURVE($,#84,#86,#96,.T.);
#98=ORIENTED_EDGE($,$,$,#97,.T.);
#99=CARTESIAN_POINT($,(40,30,12));
#100=VERTEX_POINT($,#99);
#101=CARTESIAN_POINT($,(40,-30,-12));
#102=CARTESIAN_POINT($,(40,-22.5,-9));
#103=CARTESIAN_POINT($,(40,-15,-6));
#104=CARTESIAN_POINT($,(40,-7.5,-3));
#105=CARTESIAN_POINT($,(40,0,0));
#106=CARTESIAN_POINT($,(40,7.5,3));
#107=CARTESIAN_POINT($,(40,15,6));
#108=CARTESIAN_POINT($,(40,22.5,9));
#109=CARTESIAN_POINT($,(40,30,12));
#110=B_SPLINE_CURVE_WITH_KNOTS($,1,(#101,#102,#103,#104,#105,#106,#107,#108,#109),.UNSPECIFIED.,.F.,.F.,(2,1,1,1,1,1,1,1,2),(0,0.125,0.25,0.375,0.5,0.625,0.75,0.875,1),.UNSPECIFIED.);
#111=EDGE_CURVE($,#86,#100,#110,.T.);
#112=ORIENTED_EDGE($,$,$,#111,.T.);
#113=CARTESIAN_POINT($,(-40,30,-12));
#114=VERTEX_POINT($,#113);
#115=CARTESIAN_POINT($,(40,30,12));
#116=CARTESIAN_POINT($,(30,30,9));
#117=CARTESIAN_POINT($,(20,30,6));
#118=CARTESIAN_POINT($,(10,30,3));
#119=CARTESIAN_POINT($,(0,30,0));
#120=CARTESIAN_POINT($,(-10,30,-3));
#121=CARTESIAN_POINT($,(-20,30,-6));
#122=CARTESIAN_POINT($,(-30,30,-9));
#123=CARTESIAN_POINT($,(-40,30,-12));
#124=B_SPLINE_CURVE_WITH_KNOTS($,1,(#115,#116,#117,#118,#119,#120,#121,#122,#123),.UNSPECIFIED.,.F.,.F.,(2,1,1,1,1,1,1,1,2),(0,0.125,0.25,0.375,0.5,0.625,0.75,0.875,1),.UNSPECIFIED.);
#125=EDGE_CURVE($,#100,#114,#124,.T.);
#126=ORIENTED_EDGE($,$,$,#125,.T.);
#127=CARTESIAN_POINT($,(-40,30,-12));
#128=CARTESIAN_POINT($,(-40,22.5,-9));
#129=CARTESIAN_POINT($,(-40,15,-6));
#130=CARTESIAN_POINT($,(-40,7.5,-3));
#131=CARTESIAN_POINT($,(-40,0,-0));
#132=CARTESIAN_POINT($,(-40,-7.5,3));
#133=CARTESIAN_POINT($,(-40,-15,6));
#134=CARTESIAN_POINT($,(-40,-22.5,9));
#135=CARTESIAN_POINT($,(-40,-30,12));
#136=B_SPLINE_CURVE_WITH_KNOTS($,1,(#127,#128,#129,#130,#131,#132,#133,#134,#135),.UNSPECIFIED.,.F.,.F.,(2,1,1,1,1,1,1,1,2),(0,0.125,0.25,0.375,0.5,0.625,0.75,0.875,1),.UNSPECIFIED.);
#137=EDGE_CURVE($,#114,#84,#136,.T.);
#138=ORIENTED_EDGE($,$,$,#137,.T.);
#139=EDGE_LOOP($,(#98,#112,#126,#138));
#140=FACE_OUTER_BOUND('',#139,.T.);
#141=ADVANCED_FACE('',(#140),#82,.F.);
#142=CARTESIAN_POINT($,(-40,-30,13));
#143=CARTESIAN_POINT($,(-40,-22.5,10));
#144=CARTESIAN_POINT($,(-40,-15,7));
#145=CARTESIAN_POINT($,(-40,-7.5,4));
#146=CARTESIAN_POINT($,(-40,0,1));
#147=CARTESIAN_POINT($,(-40,7.5,-2));
#148=CARTESIAN_POINT($,(-40,15,-5));
#149=CARTESIAN_POINT($,(-40,22.5,-8));
#150=CARTESIAN_POINT($,(-40,30,-11));
#151=CARTESIAN_POINT($,(-30,-30,10));
#152=CARTESIAN_POINT($,(-30,-22.5,7.75));
#153=CARTESIAN_POINT($,(-30,-15,5.5));
#154=CARTESIAN_POINT($,(-30,-7.5,3.25));
#155=CARTESIAN_POINT($,(-30,0,1));
#156=CARTESIAN_POINT($,(-30,7.5,-1.25));
#157=CARTESIAN_POINT($,(-30,15,-3.5));
#158=CARTESIAN_POINT($,(-30,22.5,-5.75));
#159=CARTESIAN_POINT($,(-30,30,-8));
#160=CARTESIAN_POINT($,(-20,-30,7));
#161=CARTESIAN_POINT($,(-20,-22.5,5.5));
#162=CARTESIAN_POINT($,(-20,-15,4));
#163=CARTESIAN_POINT($,(-20,-7.5,2.5));
#164=CARTESIAN_POINT($,(-20,0,1));
#165=CARTESIAN_POINT($,(-20,7.5,-0.5));
#166=CARTESIAN_POINT($,(-20,15,-2));
#167=CARTESIAN_POINT($,(-20,22.5,-3.5));
#168=CARTESIAN_POINT($,(-20,30,-5));
#169=CARTESIAN_POINT($,(-10,-30,4));
#170=CARTESIAN_POINT($,(-10,-22.5,3.25));
#171=CARTESIAN_POINT($,(-10,-15,2.5));
#172=CARTESIAN_POINT($,(-10,-7.5,1.75));
#173=CARTESIAN_POINT($,(-10,0,1));
#174=CARTESIAN_POINT($,(-10,7.5,0.25));
#175=CARTESIAN_POINT($,(-10,15,-0.5));
#176=CARTESIAN_POINT($,(-10,22.5,-1.25));
#177=CARTESIAN_POINT($,(-10,30,-2));
#178=CARTESIAN_POINT($,(0,-30,1));
#179=CARTESIAN_POINT($,(0,-22.5,1));
#180=CARTESIAN_POINT($,(0,-15,1));
#181=CARTESIAN_POINT($,(0,-7.5,1));
#182=CARTESIAN_POINT($,(0,0,1));
#183=CARTESIAN_POINT($,(0,7.5,1));
#184=CARTESIAN_POINT($,(0,15,1));
#185=CARTESIAN_POINT($,(0,22.5,1));
#186=CARTESIAN_POINT($,(0,30,1));
#187=CARTESIAN_POINT($,(10,-30,-2));
#188=CARTESIAN_POINT($,(10,-22.5,-1.25));
#189=CARTESIAN_POINT($,(10,-15,-0.5));
#190=CARTESIAN_POINT($,(10,-7.5,0.25));
#191=CARTESIAN_POINT($,(10,0,1));
#192=CARTESIAN_POINT($,(10,7.5,1.75));
#193=CARTESIAN_POINT($,(10,15,2.5));
#194=CARTESIAN_POINT($,(10,22.5,3.25));
#195=CARTESIAN_POINT($,(10,30,4));
#196=CARTESIAN_POINT($,(20,-30,-5));
#197=CARTESIAN_POINT($,(20,-22.5,-3.5));
#198=CARTESIAN_POINT($,(20,-15,-2));
#199=CARTESIAN_POINT($,(20,-7.5,-0.5));
#200=CARTESIAN_POINT($,(20,0,1));
#201=CARTESIAN_POINT($,(20,7.5,2.5));
#202=CARTESIAN_POINT($,(20,15,4));
#203=CARTESIAN_POINT($,(20,22.5,5.5));
#204=CARTESIAN_POINT($,(20,30,7));
#205=CARTESIAN_POINT($,(30,-30,-8));
#206=CARTESIAN_POINT($,(30,-22.5,-5.75));
#207=CARTESIAN_POINT($,(30,-15,-3.5));
#208=CARTESIAN_POINT($,(30,-7.5,-1.25));
#209=CARTESIAN_POINT($,(30,0,1));
#210=CARTESIAN_POINT($,(30,7.5,3.25));
#211=CARTESIAN_POINT($,(30,15,5.5));
#212=CARTESIAN_POINT($,(30,22.5,7.75));
#213=CARTESIAN_POINT($,(30,30,10));
#214=CARTESIAN_POINT($,(40,-30,-11));
#215=CARTESIAN_POINT($,(40,-22.5,-8));
#216=CARTESIAN_POINT($,(40,-15,-5));
#217=CARTESIAN_POINT($,(40,-7.5,-2));
#218=CARTESIAN_POINT($,(40,0,1));
#219=CARTESIAN_POINT($,(40,7.5,4));
#220=CARTESIAN_POINT($,(40,15,7));
#221=CARTESIAN_POINT($,(40,22.5,10));
#222=CARTESIAN_POINT($,(40,30,13));
#223=B_SPLINE_SURFACE_WITH_KNOTS($,1,1,((#142,#143,#144,#145,#146,#147,#148,#149,#150),(#151,#152,#153,#154,#155,#156,#157,#158,#159),(#160,#161,#162,#163,#164,#165,#166,#167,#168),(#169,#170,#171,#172,#173,#174,#175,#176,#177),(#178,#179,#180,#181,#182,#183,#184,#185,#186),(#187,#188,#189,#190,#191,#192,#193,#194,#195),(#196,#197,#198,#199,#200,#201,#202,#203,#204),(#205,#206,#207,#208,#209,#210,#211,#212,#213),(#214,#215,#216,#217,#218,#219,#220,#221,#222)),.SURFACE_OF_LINEAR_EXTRUSION.,.F.,.F.,.F.,(2,1,1,1,1,1,1,1,2),(2,1,1,1,1,1,1,1,2),(0,0.125,0.25,0.375,0.5,0.625,0.75,0.875,1),(0,0.125,0.25,0.375,0.5,0.625,0.75,0.875,1),.UNSPECIFIED.);
#224=CARTESIAN_POINT($,(-40,30,-11));
#225=VERTEX_POINT($,#224);
#226=CARTESIAN_POINT($,(-40,-30,13));
#227=VERTEX_POINT($,#226);
#228=CARTESIAN_POINT($,(-40,30,-11));
#229=CARTESIAN_POINT($,(-40,22.5,-8));
#230=CARTESIAN_POINT($,(-40,15,-5));
#231=CARTESIAN_POINT($,(-40,7.5,-2));
#232=CARTESIAN_POINT($,(-40,0,1));
#233=CARTESIAN_POINT($,(-40,-7.5,4));
#234=CARTESIAN_POINT($,(-40,-15,7));
#235=CARTESIAN_POINT($,(-40,-22.5,10));
#236=CARTESIAN_POINT($,(-40,-30,13));
#237=B_SPLINE_CURVE_WITH_KNOTS($,1,(#228,#229,#230,#231,#232,#233,#234,#235,#236),.UNSPECIFIED.,.F.,.F.,(2,1,1,1,1,1,1,1,2),(0,0.125,0.25,0.375,0.5,0.625,0.75,0.875,1),.UNSPECIFIED.);
#238=EDGE_CURVE($,#225,#227,#237,.T.);
#239=ORIENTED_EDGE($,$,$,#238,.F.);
#240=CARTESIAN_POINT($,(40,30,13));
#241=VERTEX_POINT($,#240);
#242=CARTESIAN_POINT($,(40,30,13));
#243=CARTESIAN_POINT($,(30,30,10));
#244=CARTESIAN_POINT($,(20,30,7));
#245=CARTESIAN_POINT($,(10,30,4));
#246=CARTESIAN_POINT($,(0,30,1));
#247=CARTESIAN_POINT($,(-10,30,-2));
#248=CARTESIAN_POINT($,(-20,30,-5));
#249=CARTESIAN_POINT($,(-30,30,-8));
#250=CARTESIAN_POINT($,(-40,30,-11));
#251=B_SPLINE_CURVE_WITH_KNOTS($,1,(#242,#243,#244,#245,#246,#247,#248,#249,#250),.UNSPECIFIED.,.F.,.F.,(2,1,1,1,1,1,1,1,2),(0,0.125,0.25,0.375,0.5,0.625,0.75,0.875,1),.UNSPECIFIED.);
#252=EDGE_CURVE($,#241,#225,#251,.T.);
#253=ORIENTED_EDGE($,$,$,#252,.F.);
#254=CARTESIAN_POINT($,(40,-30,-11));
#255=VERTEX_POINT($,#254);
#256=CARTESIAN_POINT($,(40,-30,-11));
#257=CARTESIAN_POINT($,(40,-22.5,-8));
#258=CARTESIAN_POINT($,(40,-15,-5));
#259=CARTESIAN_POINT($,(40,-7.5,-2));
#260=CARTESIAN_POINT($,(40,0,1));
#261=CARTESIAN_POINT($,(40,7.5,4));
#262=CARTESIAN_POINT($,(40,15,7));
#263=CARTESIAN_POINT($,(40,22.5,10));
#264=CARTESIAN_POINT($,(40,30,13));
#265=B_SPLINE_CURVE_WITH_KNOTS($,1,(#256,#257,#258,#259,#260,#261,#262,#263,#264),.UNSPECIFIED.,.F.,.F.,(2,1,1,1,1,1,1,1,2),(0,0.125,0.25,0.375,0.5,0.625,0.75,0.875,1),.UNSPECIFIED.);
#266=EDGE_CURVE($,#255,#241,#265,.T.);
#267=ORIENTED_EDGE($,$,$,#266,.F.);
#268=CARTESIAN_POINT($,(-40,-30,13));
#269=CARTESIAN_POINT($,(-30,-30,10));
#270=CARTESIAN_POINT($,(-20,-30,7));
#271=CARTESIAN_POINT($,(-10,-30,4));
#272=CARTESIAN_POINT($,(0,-30,1));
#273=CARTESIAN_POINT($,(10,-30,-2));
#274=CARTESIAN_POINT($,(20,-30,-5));
#275=CARTESIAN_POINT($,(30,-30,-8));
#276=CARTESIAN_POINT($,(40,-30,-11));
#277=B_SPLINE_CURVE_WITH_KNOTS($,1,(#268,#269,#270,#271,#272,#273,#274,#275,#276),.UNSPECIFIED.,.F.,.F.,(2,1,1,1,1,1,1,1,2),(0,0.125,0.25,0.375,0.5,0.625,0.75,0.875,1),.UNSPECIFIED.);
#278=EDGE_CURVE($,#227,#255,#277,.T.);
#279=ORIENTED_EDGE($,$,$,#278,.F.);
#280=EDGE_LOOP($,(#239,#253,#267,#279));
#281=FACE_OUTER_BOUND('',#280,.T.);
#282=ADVANCED_FACE('',(#281),#223,.T.);
#283=CARTESIAN_POINT($,(-40,-30,12));
#284=CARTESIAN_POINT($,(-40,-30,13));
#285=CARTESIAN_POINT($,(-30,-30,9));
#286=CARTESIAN_POINT($,(-30,-30,10));
#287=CARTESIAN_POINT($,(-20,-30,6));
#288=CARTESIAN_POINT($,(-20,-30,7));
#289=CARTESIAN_POINT($,(-10,-30,3));
#290=CARTESIAN_POINT($,(-10,-30,4));
#291=CARTESIAN_POINT($,(0,-30,-0));
#292=CARTESIAN_POINT($,(0,-30,1));
#293=CARTESIAN_POINT($,(10,-30,-3));
#294=CARTESIAN_POINT($,(10,-30,-2));
#295=CARTESIAN_POINT($,(20,-30,-6));
#296=CARTESIAN_POINT($,(20,-30,-5));
#297=CARTESIAN_POINT($,(30,-30,-9));
#298=CARTESIAN_POINT($,(30,-30,-8));
#299=CARTESIAN_POINT($,(40,-30,-12));
#300=CARTESIAN_POINT($,(40,-30,-11));
#301=B_SPLINE_SURFACE_WITH_KNOTS($,1,1,((#283,#284),(#285,#286),(#287,#288),(#289,#290),(#291,#292),(#293,#294),(#295,#296),(#297,#298),(#299,#300)),.RULED_SURFACE.,.F.,.F.,.F.,(2,1,1,1,1,1,1,1,2),(2,2),(0,0.125,0.25,0.375,0.5,0.625,0.75,0.875,1),(0,1),.UNSPECIFIED.);
#302=ORIENTED_EDGE($,$,$,#97,.T.);
#303=CARTESIAN_POINT($,(40,-30,-12));
#304=DIRECTION($,(0,0,1));
#305=VECTOR($,#304,1);
#306=LINE($,#303,#305);
#307=EDGE_CURVE($,#86,#255,#306,.T.);
#308=ORIENTED_EDGE($,$,$,#307,.T.);
#309=ORIENTED_EDGE($,$,$,#278,.F.);
#310=CARTESIAN_POINT($,(-40,-30,12));
#311=DIRECTION($,(0,0,1));
#312=VECTOR($,#311,1);
#313=LINE($,#310,#312);
#314=EDGE_CURVE($,#84,#227,#313,.T.);
#315=ORIENTED_EDGE($,$,$,#314,.F.);
#316=EDGE_LOOP($,(#302,#308,#309,#315));
#317=FACE_OUTER_BOUND('',#316,.T.);
#318=ADVANCED_FACE('',(#317),#301,.T.);
#319=CARTESIAN_POINT($,(40,-30,-12));
#320=CARTESIAN_POINT($,(40,-30,-11));
#321=CARTESIAN_POINT($,(40,-22.5,-9));
#322=CARTESIAN_POINT($,(40,-22.5,-8));
#323=CARTESIAN_POINT($,(40,-15,-6));
#324=CARTESIAN_POINT($,(40,-15,-5));
#325=CARTESIAN_POINT($,(40,-7.5,-3));
#326=CARTESIAN_POINT($,(40,-7.5,-2));
#327=CARTESIAN_POINT($,(40,0,0));
#328=CARTESIAN_POINT($,(40,0,1));
#329=CARTESIAN_POINT($,(40,7.5,3));
#330=CARTESIAN_POINT($,(40,7.5,4));
#331=CARTESIAN_POINT($,(40,15,6));
#332=CARTESIAN_POINT($,(40,15,7));
#333=CARTESIAN_POINT($,(40,22.5,9));
#334=CARTESIAN_POINT($,(40,22.5,10));
#335=CARTESIAN_POINT($,(40,30,12));
#336=CARTESIAN_POINT($,(40,30,13));
#337=B_SPLINE_SURFACE_WITH_KNOTS($,1,1,((#319,#320),(#321,#322),(#323,#324),(#325,#326),(#327,#328),(#329,#330),(#331,#332),(#333,#334),(#335,#336)),.RULED_SURFACE.,.F.,.F.,.F.,(2,1,1,1,1,1,1,1,2),(2,2),(0,0.125,0.25,0.375,0.5,0.625,0.75,0.875,1),(0,1),.UNSPECIFIED.);
#338=ORIENTED_EDGE($,$,$,#111,.T.);
#339=CARTESIAN_POINT($,(40,30,12));
#340=DIRECTION($,(0,0,1));
#341=VECTOR($,#340,1);
#342=LINE($,#339,#341);
#343=EDGE_CURVE($,#100,#241,#342,.T.);
#344=ORIENTED_EDGE($,$,$,#343,.T.);
#345=ORIENTED_EDGE($,$,$,#266,.F.);
#346=ORIENTED_EDGE($,$,$,#307,.F.);
#347=EDGE_LOOP($,(#338,#344,#345,#346));
#348=FACE_OUTER_BOUND('',#347,.T.);
#349=ADVANCED_FACE('',(#348),#337,.T.);
#350=CARTESIAN_POINT($,(40,30,12));
#351=CARTESIAN_POINT($,(40,30,13));
#352=CARTESIAN_POINT($,(30,30,9));
#353=CARTESIAN_POINT($,(30,30,10));
#354=CARTESIAN_POINT($,(20,30,6));
#355=CARTESIAN_POINT($,(20,30,7));
#356=CARTESIAN_POINT($,(10,30,3));
#357=CARTESIAN_POINT($,(10,30,4));
#358=CARTESIAN_POINT($,(0,30,0));
#359=CARTESIAN_POINT($,(0,30,1));
#360=CARTESIAN_POINT($,(-10,30,-3));
#361=CARTESIAN_POINT($,(-10,30,-2));
#362=CARTESIAN_POINT($,(-20,30,-6));
#363=CARTESIAN_POINT($,(-20,30,-5));
#364=CARTESIAN_POINT($,(-30,30,-9));
#365=CARTESIAN_POINT($,(-30,30,-8));
#366=CARTESIAN_POINT($,(-40,30,-12));
#367=CARTESIAN_POINT($,(-40,30,-11));
#368=B_SPLINE_SURFACE_WITH_KNOTS($,1,1,((#350,#351),(#352,#353),(#354,#355),(#356,#357),(#358,#359),(#360,#361),(#362,#363),(#364,#365),(#366,#367)),.RULED_SURFACE.,.F.,.F.,.F.,(2,1,1,1,1,1,1,1,2),(2,2),(0,0.125,0.25,0.375,0.5,0.625,0.75,0.875,1),(0,1),.UNSPECIFIED.);
#369=ORIENTED_EDGE($,$,$,#125,.T.);
#370=CARTESIAN_POINT($,(-40,30,-12));
#371=DIRECTION($,(0,0,1));
#372=VECTOR($,#371,1);
#373=LINE($,#370,#372);
#374=EDGE_CURVE($,#114,#225,#373,.T.);
#375=ORIENTED_EDGE($,$,$,#374,.T.);
#376=ORIENTED_EDGE($,$,$,#252,.F.);
#377=ORIENTED_EDGE($,$,$,#343,.F.);
#378=EDGE_LOOP($,(#369,#375,#376,#377));
#379=FACE_OUTER_BOUND('',#378,.T.);
#380=ADVANCED_FACE('',(#379),#368,.T.);
#381=CARTESIAN_POINT($,(-40,30,-12));
#382=CARTESIAN_POINT($,(-40,30,-11));
#383=CARTESIAN_POINT($,(-40,22.5,-9));
#384=CARTESIAN_POINT($,(-40,22.5,-8));
#385=CARTESIAN_POINT($,(-40,15,-6));
#386=CARTESIAN_POINT($,(-40,15,-5));
#387=CARTESIAN_POINT($,(-40,7.5,-3));
#388=CARTESIAN_POINT($,(-40,7.5,-2));
#389=CARTESIAN_POINT($,(-40,0,-0));
#390=CARTESIAN_POINT($,(-40,0,1));
#391=CARTESIAN_POINT($,(-40,-7.5,3));
#392=CARTESIAN_POINT($,(-40,-7.5,4));
#393=CARTESIAN_POINT($,(-40,-15,6));
#394=CARTESIAN_POINT($,(-40,-15,7));
#395=CARTESIAN_POINT($,(-40,-22.5,9));
#396=CARTESIAN_POINT($,(-40,-22.5,10));
#397=CARTESIAN_POINT($,(-40,-30,12));
#398=CARTESIAN_POINT($,(-40,-30,13));
#399=B_SPLINE_SURFACE_WITH_KNOTS($,1,1,((#381,#382),(#383,#384),(#385,#386),(#387,#388),(#389,#390),(#391,#392),(#393,#394),(#395,#396),(#397,#398)),.RULED_SURFACE.,.F.,.F.,.F.,(2,1,1,1,1,1,1,1,2),(2,2),(0,0.125,0.25,0.375,0.5,0.625,0.75,0.875,1),(0,1),.UNSPECIFIED.);
#400=ORIENTED_EDGE($,$,$,#137,.T.);
#401=ORIENTED_EDGE($,$,$,#314,.T.);
#402=ORIENTED_EDGE($,$,$,#238,.F.);
#403=ORIENTED_EDGE($,$,$,#374,.F.);
#404=EDGE_LOOP($,(#400,#401,#402,#403));
#405=FACE_OUTER_BOUND('',#404,.T.);
#406=ADVANCED_FACE('',(#405),#399,.T.);
#407=CLOSED_SHELL($,(#141,#282,#318,#349,#380,#406));
#408=MANIFOLD_SOLID_BREP('AetherisBody',#407);
#409=APPLICATION_CONTEXT('mechanical design');
#410=PRODUCT_CONTEXT('',#409,'mechanical');
#411=PRODUCT('AETHERIS','AetherisBody','',(#410));
#412=PRODUCT_DEFINITION_FORMATION('','',#411);
#413=PRODUCT_DEFINITION_CONTEXT('design',#409,'design');
#414=PRODUCT_DEFINITION('','',#412,#413);
#415=PRODUCT_DEFINITION_SHAPE('','',#414);
#416=(LENGTH_UNIT()NAMED_UNIT(*)SI_UNIT(.MILLI.,.METRE.));
#417=(NAMED_UNIT(*)PLANE_ANGLE_UNIT()SI_UNIT($,.RADIAN.));
#418=(NAMED_UNIT(*)SI_UNIT($,.STERADIAN.)SOLID_ANGLE_UNIT());
#419=(GEOMETRIC_REPRESENTATION_CONTEXT(3)GLOBAL_UNIT_ASSIGNED_CONTEXT((#416,#417,#418))REPRESENTATION_CONTEXT('3','3D'));
#420=SHAPE_REPRESENTATION('AetherisBody',(#408),#419);
#421=SHAPE_DEFINITION_REPRESENTATION(#415,#420);
ENDSEC;
END-ISO-10303-21;
