ISO-10303-21;
HEADER;
FILE_DESCRIPTION(('Aetheris AP242 subset export'),'2;1');
FILE_NAME('aetheris_export.step','1970-01-01T00:00:00',('Aetheris'),('Aetheris'),'Aetheris.Kernel','Aetheris.Kernel','');
FILE_SCHEMA(('AP242_MANAGED_MODEL_BASED_3D_ENGINEERING_MIM_LF'));
ENDSEC;
DATA;
#1=CARTESIAN_POINT($,(-241.3,58.08726,78.105));
#2=DIRECTION($,(0,0,1));
#3=DIRECTION($,(1,0,0));
#4=AXIS2_PLACEMENT_3D($,#1,#2,#3);
#5=PLANE($,#4);
#6=CARTESIAN_POINT($,(-241.3,58.08726,78.105));
#7=VERTEX_POINT($,#6);
#8=CARTESIAN_POINT($,(-233.045,58.08726,78.105));
#9=VERTEX_POINT($,#8);
#10=CARTESIAN_POINT($,(-241.3,58.08726,78.105));
#11=DIRECTION($,(1,0,0));
#12=VECTOR($,#11,1);
#13=LINE($,#10,#12);
#14=EDGE_CURVE($,#7,#9,#13,.T.);
#15=ORIENTED_EDGE($,$,$,#14,.T.);
#16=CARTESIAN_POINT($,(-8.255,58.08726,78.105));
#17=VERTEX_POINT($,#16);
#18=CARTESIAN_POINT($,(-233.045,58.08726,78.105));
#19=DIRECTION($,(1,0,0));
#20=VECTOR($,#19,1);
#21=LINE($,#18,#20);
#22=EDGE_CURVE($,#9,#17,#21,.T.);
#23=ORIENTED_EDGE($,$,$,#22,.T.);
#24=CARTESIAN_POINT($,(0,58.08726,78.105));
#25=VERTEX_POINT($,#24);
#26=CARTESIAN_POINT($,(-8.255,58.08726,78.105));
#27=DIRECTION($,(1,0,0));
#28=VECTOR($,#27,1);
#29=LINE($,#26,#28);
#30=EDGE_CURVE($,#17,#25,#29,.T.);
#31=ORIENTED_EDGE($,$,$,#30,.T.);
#32=CARTESIAN_POINT($,(0,66.34226,78.105));
#33=VERTEX_POINT($,#32);
#34=CARTESIAN_POINT($,(0,58.08726,78.105));
#35=DIRECTION($,(0,1,0));
#36=VECTOR($,#35,1);
#37=LINE($,#34,#36);
#38=EDGE_CURVE($,#25,#33,#37,.T.);
#39=ORIENTED_EDGE($,$,$,#38,.T.);
#40=CARTESIAN_POINT($,(0,418.13226,78.105));
#41=VERTEX_POINT($,#40);
#42=CARTESIAN_POINT($,(0,66.34226,78.105));
#43=DIRECTION($,(0,1,0));
#44=VECTOR($,#43,1);
#45=LINE($,#42,#44);
#46=EDGE_CURVE($,#33,#41,#45,.T.);
#47=ORIENTED_EDGE($,$,$,#46,.T.);
#48=CARTESIAN_POINT($,(0,426.38726,78.105));
#49=VERTEX_POINT($,#48);
#50=CARTESIAN_POINT($,(0,418.13226,78.105));
#51=DIRECTION($,(0,1,0));
#52=VECTOR($,#51,1);
#53=LINE($,#50,#52);
#54=EDGE_CURVE($,#41,#49,#53,.T.);
#55=ORIENTED_EDGE($,$,$,#54,.T.);
#56=CARTESIAN_POINT($,(-8.255,426.38726,78.105));
#57=VERTEX_POINT($,#56);
#58=CARTESIAN_POINT($,(0,426.38726,78.105));
#59=DIRECTION($,(-1,0,0));
#60=VECTOR($,#59,1);
#61=LINE($,#58,#60);
#62=EDGE_CURVE($,#49,#57,#61,.T.);
#63=ORIENTED_EDGE($,$,$,#62,.T.);
#64=CARTESIAN_POINT($,(-233.045,426.38726,78.105));
#65=VERTEX_POINT($,#64);
#66=CARTESIAN_POINT($,(-8.255,426.38726,78.105));
#67=DIRECTION($,(-1,0,0));
#68=VECTOR($,#67,1);
#69=LINE($,#66,#68);
#70=EDGE_CURVE($,#57,#65,#69,.T.);
#71=ORIENTED_EDGE($,$,$,#70,.T.);
#72=CARTESIAN_POINT($,(-241.3,426.38726,78.105));
#73=VERTEX_POINT($,#72);
#74=CARTESIAN_POINT($,(-233.045,426.38726,78.105));
#75=DIRECTION($,(-1,0,0));
#76=VECTOR($,#75,1);
#77=LINE($,#74,#76);
#78=EDGE_CURVE($,#65,#73,#77,.T.);
#79=ORIENTED_EDGE($,$,$,#78,.T.);
#80=CARTESIAN_POINT($,(-241.3,418.13226,78.105));
#81=VERTEX_POINT($,#80);
#82=CARTESIAN_POINT($,(-241.3,426.38726,78.105));
#83=DIRECTION($,(0,-1,0));
#84=VECTOR($,#83,1);
#85=LINE($,#82,#84);
#86=EDGE_CURVE($,#73,#81,#85,.T.);
#87=ORIENTED_EDGE($,$,$,#86,.T.);
#88=CARTESIAN_POINT($,(-241.3,66.34226,78.105));
#89=VERTEX_POINT($,#88);
#90=CARTESIAN_POINT($,(-241.3,418.13226,78.105));
#91=DIRECTION($,(0,-1,0));
#92=VECTOR($,#91,1);
#93=LINE($,#90,#92);
#94=EDGE_CURVE($,#81,#89,#93,.T.);
#95=ORIENTED_EDGE($,$,$,#94,.T.);
#96=CARTESIAN_POINT($,(-241.3,66.34226,78.105));
#97=DIRECTION($,(0,-1,0));
#98=VECTOR($,#97,1);
#99=LINE($,#96,#98);
#100=EDGE_CURVE($,#89,#7,#99,.T.);
#101=ORIENTED_EDGE($,$,$,#100,.T.);
#102=EDGE_LOOP($,(#15,#23,#31,#39,#47,#55,#63,#71,#79,#87,#95,#101));
#103=FACE_OUTER_BOUND('',#102,.T.);
#104=CARTESIAN_POINT($,(-116.9924,210.9724,78.105));
#105=VERTEX_POINT($,#104);
#106=CARTESIAN_POINT($,(-136.0424,210.9724,78.105));
#107=VERTEX_POINT($,#106);
#108=CARTESIAN_POINT($,(-116.9924,210.9724,78.105));
#109=DIRECTION($,(-1,0,0));
#110=VECTOR($,#109,1);
#111=LINE($,#108,#110);
#112=EDGE_CURVE($,#105,#107,#111,.T.);
#113=ORIENTED_EDGE($,$,$,#112,.F.);
#114=CARTESIAN_POINT($,(-116.9924,122.0724,78.105));
#115=VERTEX_POINT($,#114);
#116=CARTESIAN_POINT($,(-116.9924,122.0724,78.105));
#117=DIRECTION($,(0,1,0));
#118=VECTOR($,#117,1);
#119=LINE($,#116,#118);
#120=EDGE_CURVE($,#115,#105,#119,.T.);
#121=ORIENTED_EDGE($,$,$,#120,.F.);
#122=CARTESIAN_POINT($,(-136.0424,122.0724,78.105));
#123=VERTEX_POINT($,#122);
#124=CARTESIAN_POINT($,(-136.0424,122.0724,78.105));
#125=DIRECTION($,(1,0,0));
#126=VECTOR($,#125,1);
#127=LINE($,#124,#126);
#128=EDGE_CURVE($,#123,#115,#127,.T.);
#129=ORIENTED_EDGE($,$,$,#128,.F.);
#130=CARTESIAN_POINT($,(-136.0424,210.9724,78.105));
#131=DIRECTION($,(0,-1,0));
#132=VECTOR($,#131,1);
#133=LINE($,#130,#132);
#134=EDGE_CURVE($,#107,#123,#133,.T.);
#135=ORIENTED_EDGE($,$,$,#134,.F.);
#136=EDGE_LOOP($,(#113,#121,#129,#135));
#137=FACE_BOUND('',#136,.T.);
#138=CARTESIAN_POINT($,(-180.4924,210.9724,78.105));
#139=VERTEX_POINT($,#138);
#140=CARTESIAN_POINT($,(-199.5424,210.9724,78.105));
#141=VERTEX_POINT($,#140);
#142=CARTESIAN_POINT($,(-180.4924,210.9724,78.105));
#143=DIRECTION($,(-1,0,0));
#144=VECTOR($,#143,1);
#145=LINE($,#142,#144);
#146=EDGE_CURVE($,#139,#141,#145,.T.);
#147=ORIENTED_EDGE($,$,$,#146,.F.);
#148=CARTESIAN_POINT($,(-180.4924,122.0724,78.105));
#149=VERTEX_POINT($,#148);
#150=CARTESIAN_POINT($,(-180.4924,122.0724,78.105));
#151=DIRECTION($,(0,1,0));
#152=VECTOR($,#151,1);
#153=LINE($,#150,#152);
#154=EDGE_CURVE($,#149,#139,#153,.T.);
#155=ORIENTED_EDGE($,$,$,#154,.F.);
#156=CARTESIAN_POINT($,(-199.5424,122.0724,78.105));
#157=VERTEX_POINT($,#156);
#158=CARTESIAN_POINT($,(-199.5424,122.0724,78.105));
#159=DIRECTION($,(1,0,0));
#160=VECTOR($,#159,1);
#161=LINE($,#158,#160);
#162=EDGE_CURVE($,#157,#149,#161,.T.);
#163=ORIENTED_EDGE($,$,$,#162,.F.);
#164=CARTESIAN_POINT($,(-199.5424,210.9724,78.105));
#165=DIRECTION($,(0,-1,0));
#166=VECTOR($,#165,1);
#167=LINE($,#164,#166);
#168=EDGE_CURVE($,#141,#157,#167,.T.);
#169=ORIENTED_EDGE($,$,$,#168,.F.);
#170=EDGE_LOOP($,(#147,#155,#163,#169));
#171=FACE_BOUND('',#170,.T.);
#172=ADVANCED_FACE('',(#103,#137,#171),#5,.T.);
#173=CARTESIAN_POINT($,(-241.3,58.08726,76.2));
#174=DIRECTION($,(-0,-0,-1));
#175=DIRECTION($,(1,0,0));
#176=AXIS2_PLACEMENT_3D($,#173,#174,#175);
#177=PLANE($,#176);
#178=CARTESIAN_POINT($,(-241.3,66.34226,76.2));
#179=VERTEX_POINT($,#178);
#180=CARTESIAN_POINT($,(-241.3,418.13226,76.2));
#181=VERTEX_POINT($,#180);
#182=CARTESIAN_POINT($,(-241.3,66.34226,76.2));
#183=DIRECTION($,(0,1,0));
#184=VECTOR($,#183,1);
#185=LINE($,#182,#184);
#186=EDGE_CURVE($,#179,#181,#185,.T.);
#187=ORIENTED_EDGE($,$,$,#186,.T.);
#188=CARTESIAN_POINT($,(-241.3,426.38726,76.2));
#189=VERTEX_POINT($,#188);
#190=CARTESIAN_POINT($,(-241.3,418.13226,76.2));
#191=DIRECTION($,(0,1,0));
#192=VECTOR($,#191,1);
#193=LINE($,#190,#192);
#194=EDGE_CURVE($,#181,#189,#193,.T.);
#195=ORIENTED_EDGE($,$,$,#194,.T.);
#196=CARTESIAN_POINT($,(-233.045,426.38726,76.2));
#197=VERTEX_POINT($,#196);
#198=CARTESIAN_POINT($,(-241.3,426.38726,76.2));
#199=DIRECTION($,(1,0,0));
#200=VECTOR($,#199,1);
#201=LINE($,#198,#200);
#202=EDGE_CURVE($,#189,#197,#201,.T.);
#203=ORIENTED_EDGE($,$,$,#202,.T.);
#204=CARTESIAN_POINT($,(-8.255,426.38726,76.2));
#205=VERTEX_POINT($,#204);
#206=CARTESIAN_POINT($,(-233.045,426.38726,76.2));
#207=DIRECTION($,(1,0,0));
#208=VECTOR($,#207,1);
#209=LINE($,#206,#208);
#210=EDGE_CURVE($,#197,#205,#209,.T.);
#211=ORIENTED_EDGE($,$,$,#210,.T.);
#212=CARTESIAN_POINT($,(-0,426.38726,76.2));
#213=VERTEX_POINT($,#212);
#214=CARTESIAN_POINT($,(-8.255,426.38726,76.2));
#215=DIRECTION($,(1,0,0));
#216=VECTOR($,#215,1);
#217=LINE($,#214,#216);
#218=EDGE_CURVE($,#205,#213,#217,.T.);
#219=ORIENTED_EDGE($,$,$,#218,.T.);
#220=CARTESIAN_POINT($,(0,418.13226,76.2));
#221=VERTEX_POINT($,#220);
#222=CARTESIAN_POINT($,(-0,426.38726,76.2));
#223=DIRECTION($,(0,-1,0));
#224=VECTOR($,#223,1);
#225=LINE($,#222,#224);
#226=EDGE_CURVE($,#213,#221,#225,.T.);
#227=ORIENTED_EDGE($,$,$,#226,.T.);
#228=CARTESIAN_POINT($,(0,66.34226,76.2));
#229=VERTEX_POINT($,#228);
#230=CARTESIAN_POINT($,(0,418.13226,76.2));
#231=DIRECTION($,(0,-1,0));
#232=VECTOR($,#231,1);
#233=LINE($,#230,#232);
#234=EDGE_CURVE($,#221,#229,#233,.T.);
#235=ORIENTED_EDGE($,$,$,#234,.T.);
#236=CARTESIAN_POINT($,(-0,58.08726,76.2));
#237=VERTEX_POINT($,#236);
#238=CARTESIAN_POINT($,(0,66.34226,76.2));
#239=DIRECTION($,(0,-1,0));
#240=VECTOR($,#239,1);
#241=LINE($,#238,#240);
#242=EDGE_CURVE($,#229,#237,#241,.T.);
#243=ORIENTED_EDGE($,$,$,#242,.T.);
#244=CARTESIAN_POINT($,(-8.255,58.08726,76.2));
#245=VERTEX_POINT($,#244);
#246=CARTESIAN_POINT($,(-0,58.08726,76.2));
#247=DIRECTION($,(-1,0,0));
#248=VECTOR($,#247,1);
#249=LINE($,#246,#248);
#250=EDGE_CURVE($,#237,#245,#249,.T.);
#251=ORIENTED_EDGE($,$,$,#250,.T.);
#252=CARTESIAN_POINT($,(-233.045,58.08726,76.2));
#253=VERTEX_POINT($,#252);
#254=CARTESIAN_POINT($,(-8.255,58.08726,76.2));
#255=DIRECTION($,(-1,0,0));
#256=VECTOR($,#255,1);
#257=LINE($,#254,#256);
#258=EDGE_CURVE($,#245,#253,#257,.T.);
#259=ORIENTED_EDGE($,$,$,#258,.T.);
#260=CARTESIAN_POINT($,(-241.3,58.08726,76.2));
#261=VERTEX_POINT($,#260);
#262=CARTESIAN_POINT($,(-233.045,58.08726,76.2));
#263=DIRECTION($,(-1,0,0));
#264=VECTOR($,#263,1);
#265=LINE($,#262,#264);
#266=EDGE_CURVE($,#253,#261,#265,.T.);
#267=ORIENTED_EDGE($,$,$,#266,.T.);
#268=CARTESIAN_POINT($,(-241.3,58.08726,76.2));
#269=DIRECTION($,(0,1,0));
#270=VECTOR($,#269,1);
#271=LINE($,#268,#270);
#272=EDGE_CURVE($,#261,#179,#271,.T.);
#273=ORIENTED_EDGE($,$,$,#272,.T.);
#274=EDGE_LOOP($,(#187,#195,#203,#211,#219,#227,#235,#243,#251,#259,#267,#273));
#275=FACE_OUTER_BOUND('',#274,.T.);
#276=CARTESIAN_POINT($,(-136.0424,122.0724,76.2));
#277=VERTEX_POINT($,#276);
#278=CARTESIAN_POINT($,(-116.9924,122.0724,76.2));
#279=VERTEX_POINT($,#278);
#280=CARTESIAN_POINT($,(-136.0424,122.0724,76.2));
#281=DIRECTION($,(1,0,0));
#282=VECTOR($,#281,1);
#283=LINE($,#280,#282);
#284=EDGE_CURVE($,#277,#279,#283,.T.);
#285=ORIENTED_EDGE($,$,$,#284,.T.);
#286=CARTESIAN_POINT($,(-116.9924,210.9724,76.2));
#287=VERTEX_POINT($,#286);
#288=CARTESIAN_POINT($,(-116.9924,122.0724,76.2));
#289=DIRECTION($,(0,1,0));
#290=VECTOR($,#289,1);
#291=LINE($,#288,#290);
#292=EDGE_CURVE($,#279,#287,#291,.T.);
#293=ORIENTED_EDGE($,$,$,#292,.T.);
#294=CARTESIAN_POINT($,(-136.0424,210.9724,76.2));
#295=VERTEX_POINT($,#294);
#296=CARTESIAN_POINT($,(-116.9924,210.9724,76.2));
#297=DIRECTION($,(-1,0,0));
#298=VECTOR($,#297,1);
#299=LINE($,#296,#298);
#300=EDGE_CURVE($,#287,#295,#299,.T.);
#301=ORIENTED_EDGE($,$,$,#300,.T.);
#302=CARTESIAN_POINT($,(-136.0424,210.9724,76.2));
#303=DIRECTION($,(0,-1,0));
#304=VECTOR($,#303,1);
#305=LINE($,#302,#304);
#306=EDGE_CURVE($,#295,#277,#305,.T.);
#307=ORIENTED_EDGE($,$,$,#306,.T.);
#308=EDGE_LOOP($,(#285,#293,#301,#307));
#309=FACE_BOUND('',#308,.T.);
#310=CARTESIAN_POINT($,(-199.5424,122.0724,76.2));
#311=VERTEX_POINT($,#310);
#312=CARTESIAN_POINT($,(-180.4924,122.0724,76.2));
#313=VERTEX_POINT($,#312);
#314=CARTESIAN_POINT($,(-199.5424,122.0724,76.2));
#315=DIRECTION($,(1,0,0));
#316=VECTOR($,#315,1);
#317=LINE($,#314,#316);
#318=EDGE_CURVE($,#311,#313,#317,.T.);
#319=ORIENTED_EDGE($,$,$,#318,.T.);
#320=CARTESIAN_POINT($,(-180.4924,210.9724,76.2));
#321=VERTEX_POINT($,#320);
#322=CARTESIAN_POINT($,(-180.4924,122.0724,76.2));
#323=DIRECTION($,(0,1,0));
#324=VECTOR($,#323,1);
#325=LINE($,#322,#324);
#326=EDGE_CURVE($,#313,#321,#325,.T.);
#327=ORIENTED_EDGE($,$,$,#326,.T.);
#328=CARTESIAN_POINT($,(-199.5424,210.9724,76.2));
#329=VERTEX_POINT($,#328);
#330=CARTESIAN_POINT($,(-180.4924,210.9724,76.2));
#331=DIRECTION($,(-1,0,0));
#332=VECTOR($,#331,1);
#333=LINE($,#330,#332);
#334=EDGE_CURVE($,#321,#329,#333,.T.);
#335=ORIENTED_EDGE($,$,$,#334,.T.);
#336=CARTESIAN_POINT($,(-199.5424,210.9724,76.2));
#337=DIRECTION($,(0,-1,0));
#338=VECTOR($,#337,1);
#339=LINE($,#336,#338);
#340=EDGE_CURVE($,#329,#311,#339,.T.);
#341=ORIENTED_EDGE($,$,$,#340,.T.);
#342=EDGE_LOOP($,(#319,#327,#335,#341));
#343=FACE_BOUND('',#342,.T.);
#344=ADVANCED_FACE('',(#275,#309,#343),#177,.F.);
#345=CARTESIAN_POINT($,(-233.045,49.83226,69.85));
#346=DIRECTION($,(0,-1,0));
#347=DIRECTION($,(1,0,0));
#348=AXIS2_PLACEMENT_3D($,#345,#346,#347);
#349=PLANE($,#348);
#350=CARTESIAN_POINT($,(-233.045,49.83226,69.85));
#351=VERTEX_POINT($,#350);
#352=CARTESIAN_POINT($,(-8.255,49.83226,69.85));
#353=VERTEX_POINT($,#352);
#354=CARTESIAN_POINT($,(-233.045,49.83226,69.85));
#355=DIRECTION($,(1,0,0));
#356=VECTOR($,#355,1);
#357=LINE($,#354,#356);
#358=EDGE_CURVE($,#351,#353,#357,.T.);
#359=ORIENTED_EDGE($,$,$,#358,.T.);
#360=CARTESIAN_POINT($,(-8.255,49.83226,8.25746000000001));
#361=VERTEX_POINT($,#360);
#362=CARTESIAN_POINT($,(-8.255,49.83226,69.85));
#363=DIRECTION($,(0,-0,-1));
#364=VECTOR($,#363,1);
#365=LINE($,#362,#364);
#366=EDGE_CURVE($,#353,#361,#365,.T.);
#367=ORIENTED_EDGE($,$,$,#366,.T.);
#368=CARTESIAN_POINT($,(-233.045,49.83226,8.25746000000001));
#369=VERTEX_POINT($,#368);
#370=CARTESIAN_POINT($,(-8.255,49.83226,8.25746000000001));
#371=DIRECTION($,(-1,0,0));
#372=VECTOR($,#371,1);
#373=LINE($,#370,#372);
#374=EDGE_CURVE($,#361,#369,#373,.T.);
#375=ORIENTED_EDGE($,$,$,#374,.T.);
#376=CARTESIAN_POINT($,(-233.045,49.83226,8.25746000000001));
#377=DIRECTION($,(0,0,1));
#378=VECTOR($,#377,1);
#379=LINE($,#376,#378);
#380=EDGE_CURVE($,#369,#351,#379,.T.);
#381=ORIENTED_EDGE($,$,$,#380,.T.);
#382=EDGE_LOOP($,(#359,#367,#375,#381));
#383=FACE_OUTER_BOUND('',#382,.T.);
#384=ADVANCED_FACE('',(#383),#349,.T.);
#385=CARTESIAN_POINT($,(-233.045,51.73726,69.85));
#386=DIRECTION($,(-0,1,-0));
#387=DIRECTION($,(1,0,0));
#388=AXIS2_PLACEMENT_3D($,#385,#386,#387);
#389=PLANE($,#388);
#390=CARTESIAN_POINT($,(-233.045,51.73726,8.25746000000001));
#391=VERTEX_POINT($,#390);
#392=CARTESIAN_POINT($,(-8.255,51.73726,8.25746000000001));
#393=VERTEX_POINT($,#392);
#394=CARTESIAN_POINT($,(-233.045,51.73726,8.25746000000001));
#395=DIRECTION($,(1,0,0));
#396=VECTOR($,#395,1);
#397=LINE($,#394,#396);
#398=EDGE_CURVE($,#391,#393,#397,.T.);
#399=ORIENTED_EDGE($,$,$,#398,.T.);
#400=CARTESIAN_POINT($,(-8.255,51.73726,69.85));
#401=VERTEX_POINT($,#400);
#402=CARTESIAN_POINT($,(-8.255,51.73726,8.25746000000001));
#403=DIRECTION($,(0,0,1));
#404=VECTOR($,#403,1);
#405=LINE($,#402,#404);
#406=EDGE_CURVE($,#393,#401,#405,.T.);
#407=ORIENTED_EDGE($,$,$,#406,.T.);
#408=CARTESIAN_POINT($,(-233.045,51.73726,69.85));
#409=VERTEX_POINT($,#408);
#410=CARTESIAN_POINT($,(-8.255,51.73726,69.85));
#411=DIRECTION($,(-1,0,0));
#412=VECTOR($,#411,1);
#413=LINE($,#410,#412);
#414=EDGE_CURVE($,#401,#409,#413,.T.);
#415=ORIENTED_EDGE($,$,$,#414,.T.);
#416=CARTESIAN_POINT($,(-233.045,51.73726,69.85));
#417=DIRECTION($,(0,-0,-1));
#418=VECTOR($,#417,1);
#419=LINE($,#416,#418);
#420=EDGE_CURVE($,#409,#391,#419,.T.);
#421=ORIENTED_EDGE($,$,$,#420,.T.);
#422=EDGE_LOOP($,(#399,#407,#415,#421));
#423=FACE_OUTER_BOUND('',#422,.T.);
#424=ADVANCED_FACE('',(#423),#389,.F.);
#425=CARTESIAN_POINT($,(-233.045,58.08726,69.85));
#426=DIRECTION($,(1,0,0));
#427=DIRECTION($,(0,0,1));
#428=AXIS2_PLACEMENT_3D($,#425,#426,#427);
#429=CYLINDRICAL_SURFACE($,#428,8.255);
#430=ORIENTED_EDGE($,$,$,#22,.T.);
#431=CARTESIAN_POINT($,(-8.255,58.08726,69.85));
#432=DIRECTION($,(1,0,0));
#433=DIRECTION($,(0,0,1));
#434=AXIS2_PLACEMENT_3D($,#431,#432,#433);
#435=CIRCLE($,#434,8.255);
#436=TRIMMED_CURVE($,#435,(PARAMETER_VALUE(0)),(PARAMETER_VALUE(1.5707963267949)),.T.,.PARAMETER.);
#437=EDGE_CURVE($,#17,#353,#436,.T.);
#438=ORIENTED_EDGE($,$,$,#437,.T.);
#439=ORIENTED_EDGE($,$,$,#358,.F.);
#440=CARTESIAN_POINT($,(-233.045,58.08726,69.85));
#441=DIRECTION($,(-1,-0,-0));
#442=DIRECTION($,(0,-1,0));
#443=AXIS2_PLACEMENT_3D($,#440,#441,#442);
#444=CIRCLE($,#443,8.255);
#445=TRIMMED_CURVE($,#444,(PARAMETER_VALUE(0)),(PARAMETER_VALUE(1.5707963267949)),.T.,.PARAMETER.);
#446=EDGE_CURVE($,#351,#9,#445,.T.);
#447=ORIENTED_EDGE($,$,$,#446,.T.);
#448=EDGE_LOOP($,(#430,#438,#439,#447));
#449=FACE_OUTER_BOUND('',#448,.T.);
#450=ADVANCED_FACE('',(#449),#429,.T.);
#451=CARTESIAN_POINT($,(-233.045,58.08726,69.85));
#452=DIRECTION($,(1,0,0));
#453=DIRECTION($,(0,0,1));
#454=AXIS2_PLACEMENT_3D($,#451,#452,#453);
#455=CYLINDRICAL_SURFACE($,#454,6.34999999999999);
#456=ORIENTED_EDGE($,$,$,#414,.F.);
#457=CARTESIAN_POINT($,(-8.255,58.08726,69.85));
#458=DIRECTION($,(-1,-0,-0));
#459=DIRECTION($,(0,-1,0));
#460=AXIS2_PLACEMENT_3D($,#457,#458,#459);
#461=CIRCLE($,#460,6.35);
#462=TRIMMED_CURVE($,#461,(PARAMETER_VALUE(0)),(PARAMETER_VALUE(1.5707963267949)),.T.,.PARAMETER.);
#463=EDGE_CURVE($,#401,#245,#462,.T.);
#464=ORIENTED_EDGE($,$,$,#463,.T.);
#465=ORIENTED_EDGE($,$,$,#258,.T.);
#466=CARTESIAN_POINT($,(-233.045,58.08726,69.85));
#467=DIRECTION($,(1,0,0));
#468=DIRECTION($,(0,0,1));
#469=AXIS2_PLACEMENT_3D($,#466,#467,#468);
#470=CIRCLE($,#469,6.34999999999999);
#471=TRIMMED_CURVE($,#470,(PARAMETER_VALUE(0)),(PARAMETER_VALUE(1.5707963267949)),.T.,.PARAMETER.);
#472=EDGE_CURVE($,#253,#409,#471,.T.);
#473=ORIENTED_EDGE($,$,$,#472,.T.);
#474=EDGE_LOOP($,(#456,#464,#465,#473));
#475=FACE_OUTER_BOUND('',#474,.T.);
#476=ADVANCED_FACE('',(#475),#455,.F.);
#477=CARTESIAN_POINT($,(-8.255,434.64226,69.85));
#478=DIRECTION($,(0,1,0));
#479=DIRECTION($,(-1,0,0));
#480=AXIS2_PLACEMENT_3D($,#477,#478,#479);
#481=PLANE($,#480);
#482=CARTESIAN_POINT($,(-8.255,434.64226,69.85));
#483=VERTEX_POINT($,#482);
#484=CARTESIAN_POINT($,(-233.045,434.64226,69.85));
#485=VERTEX_POINT($,#484);
#486=CARTESIAN_POINT($,(-8.255,434.64226,69.85));
#487=DIRECTION($,(-1,0,0));
#488=VECTOR($,#487,1);
#489=LINE($,#486,#488);
#490=EDGE_CURVE($,#483,#485,#489,.T.);
#491=ORIENTED_EDGE($,$,$,#490,.T.);
#492=CARTESIAN_POINT($,(-233.045,434.64226,8.25746000000001));
#493=VERTEX_POINT($,#492);
#494=CARTESIAN_POINT($,(-233.045,434.64226,69.85));
#495=DIRECTION($,(0,0,-1));
#496=VECTOR($,#495,1);
#497=LINE($,#494,#496);
#498=EDGE_CURVE($,#485,#493,#497,.T.);
#499=ORIENTED_EDGE($,$,$,#498,.T.);
#500=CARTESIAN_POINT($,(-8.255,434.64226,8.25746000000001));
#501=VERTEX_POINT($,#500);
#502=CARTESIAN_POINT($,(-233.045,434.64226,8.25746000000001));
#503=DIRECTION($,(1,0,0));
#504=VECTOR($,#503,1);
#505=LINE($,#502,#504);
#506=EDGE_CURVE($,#493,#501,#505,.T.);
#507=ORIENTED_EDGE($,$,$,#506,.T.);
#508=CARTESIAN_POINT($,(-8.255,434.64226,8.25746000000001));
#509=DIRECTION($,(0,0,1));
#510=VECTOR($,#509,1);
#511=LINE($,#508,#510);
#512=EDGE_CURVE($,#501,#483,#511,.T.);
#513=ORIENTED_EDGE($,$,$,#512,.T.);
#514=EDGE_LOOP($,(#491,#499,#507,#513));
#515=FACE_OUTER_BOUND('',#514,.T.);
#516=ADVANCED_FACE('',(#515),#481,.T.);
#517=CARTESIAN_POINT($,(-8.255,432.73726,69.85));
#518=DIRECTION($,(-0,-1,-0));
#519=DIRECTION($,(-1,0,0));
#520=AXIS2_PLACEMENT_3D($,#517,#518,#519);
#521=PLANE($,#520);
#522=CARTESIAN_POINT($,(-8.255,432.73726,8.25746000000001));
#523=VERTEX_POINT($,#522);
#524=CARTESIAN_POINT($,(-233.045,432.73726,8.25746000000001));
#525=VERTEX_POINT($,#524);
#526=CARTESIAN_POINT($,(-8.255,432.73726,8.25746000000001));
#527=DIRECTION($,(-1,0,0));
#528=VECTOR($,#527,1);
#529=LINE($,#526,#528);
#530=EDGE_CURVE($,#523,#525,#529,.T.);
#531=ORIENTED_EDGE($,$,$,#530,.T.);
#532=CARTESIAN_POINT($,(-233.045,432.73726,69.85));
#533=VERTEX_POINT($,#532);
#534=CARTESIAN_POINT($,(-233.045,432.73726,8.25746000000001));
#535=DIRECTION($,(0,0,1));
#536=VECTOR($,#535,1);
#537=LINE($,#534,#536);
#538=EDGE_CURVE($,#525,#533,#537,.T.);
#539=ORIENTED_EDGE($,$,$,#538,.T.);
#540=CARTESIAN_POINT($,(-8.255,432.73726,69.85));
#541=VERTEX_POINT($,#540);
#542=CARTESIAN_POINT($,(-233.045,432.73726,69.85));
#543=DIRECTION($,(1,0,0));
#544=VECTOR($,#543,1);
#545=LINE($,#542,#544);
#546=EDGE_CURVE($,#533,#541,#545,.T.);
#547=ORIENTED_EDGE($,$,$,#546,.T.);
#548=CARTESIAN_POINT($,(-8.255,432.73726,69.85));
#549=DIRECTION($,(0,0,-1));
#550=VECTOR($,#549,1);
#551=LINE($,#548,#550);
#552=EDGE_CURVE($,#541,#523,#551,.T.);
#553=ORIENTED_EDGE($,$,$,#552,.T.);
#554=EDGE_LOOP($,(#531,#539,#547,#553));
#555=FACE_OUTER_BOUND('',#554,.T.);
#556=ADVANCED_FACE('',(#555),#521,.F.);
#557=CARTESIAN_POINT($,(-8.255,426.38726,69.85));
#558=DIRECTION($,(-1,0,0));
#559=DIRECTION($,(0,0,1));
#560=AXIS2_PLACEMENT_3D($,#557,#558,#559);
#561=CYLINDRICAL_SURFACE($,#560,8.255);
#562=ORIENTED_EDGE($,$,$,#70,.T.);
#563=CARTESIAN_POINT($,(-233.045,426.38726,69.85));
#564=DIRECTION($,(-1,0,0));
#565=DIRECTION($,(0,0,1));
#566=AXIS2_PLACEMENT_3D($,#563,#564,#565);
#567=CIRCLE($,#566,8.255);
#568=TRIMMED_CURVE($,#567,(PARAMETER_VALUE(0)),(PARAMETER_VALUE(1.5707963267949)),.T.,.PARAMETER.);
#569=EDGE_CURVE($,#65,#485,#568,.T.);
#570=ORIENTED_EDGE($,$,$,#569,.T.);
#571=ORIENTED_EDGE($,$,$,#490,.F.);
#572=CARTESIAN_POINT($,(-8.255,426.38726,69.85));
#573=DIRECTION($,(1,-0,-0));
#574=DIRECTION($,(0,1,0));
#575=AXIS2_PLACEMENT_3D($,#572,#573,#574);
#576=CIRCLE($,#575,8.255);
#577=TRIMMED_CURVE($,#576,(PARAMETER_VALUE(0)),(PARAMETER_VALUE(1.5707963267949)),.T.,.PARAMETER.);
#578=EDGE_CURVE($,#483,#57,#577,.T.);
#579=ORIENTED_EDGE($,$,$,#578,.T.);
#580=EDGE_LOOP($,(#562,#570,#571,#579));
#581=FACE_OUTER_BOUND('',#580,.T.);
#582=ADVANCED_FACE('',(#581),#561,.T.);
#583=CARTESIAN_POINT($,(-8.255,426.38726,69.85));
#584=DIRECTION($,(-1,0,0));
#585=DIRECTION($,(0,0,1));
#586=AXIS2_PLACEMENT_3D($,#583,#584,#585);
#587=CYLINDRICAL_SURFACE($,#586,6.34999999999999);
#588=ORIENTED_EDGE($,$,$,#546,.F.);
#589=CARTESIAN_POINT($,(-233.045,426.38726,69.85));
#590=DIRECTION($,(1,-0,-0));
#591=DIRECTION($,(0,1,0));
#592=AXIS2_PLACEMENT_3D($,#589,#590,#591);
#593=CIRCLE($,#592,6.35000000000002);
#594=TRIMMED_CURVE($,#593,(PARAMETER_VALUE(0)),(PARAMETER_VALUE(1.5707963267949)),.T.,.PARAMETER.);
#595=EDGE_CURVE($,#533,#197,#594,.T.);
#596=ORIENTED_EDGE($,$,$,#595,.T.);
#597=ORIENTED_EDGE($,$,$,#210,.T.);
#598=CARTESIAN_POINT($,(-8.255,426.38726,69.85));
#599=DIRECTION($,(-1,0,0));
#600=DIRECTION($,(0,0,1));
#601=AXIS2_PLACEMENT_3D($,#598,#599,#600);
#602=CIRCLE($,#601,6.34999999999999);
#603=TRIMMED_CURVE($,#602,(PARAMETER_VALUE(0)),(PARAMETER_VALUE(1.5707963267949)),.T.,.PARAMETER.);
#604=EDGE_CURVE($,#205,#541,#603,.T.);
#605=ORIENTED_EDGE($,$,$,#604,.T.);
#606=EDGE_LOOP($,(#588,#596,#597,#605));
#607=FACE_OUTER_BOUND('',#606,.T.);
#608=ADVANCED_FACE('',(#607),#587,.F.);
#609=CARTESIAN_POINT($,(-247.65,418.13226,84.455));
#610=DIRECTION($,(1,0,0));
#611=DIRECTION($,(0,-1,0));
#612=AXIS2_PLACEMENT_3D($,#609,#610,#611);
#613=PLANE($,#612);
#614=CARTESIAN_POINT($,(-247.65,418.13226,84.455));
#615=VERTEX_POINT($,#614);
#616=CARTESIAN_POINT($,(-247.65,66.34226,84.455));
#617=VERTEX_POINT($,#616);
#618=CARTESIAN_POINT($,(-247.65,418.13226,84.455));
#619=DIRECTION($,(0,-1,0));
#620=VECTOR($,#619,1);
#621=LINE($,#618,#620);
#622=EDGE_CURVE($,#615,#617,#621,.T.);
#623=ORIENTED_EDGE($,$,$,#622,.T.);
#624=CARTESIAN_POINT($,(-247.65,66.34226,128.905));
#625=VERTEX_POINT($,#624);
#626=CARTESIAN_POINT($,(-247.65,66.34226,84.455));
#627=DIRECTION($,(0,0,1));
#628=VECTOR($,#627,1);
#629=LINE($,#626,#628);
#630=EDGE_CURVE($,#617,#625,#629,.T.);
#631=ORIENTED_EDGE($,$,$,#630,.T.);
#632=CARTESIAN_POINT($,(-247.65,418.13226,128.905));
#633=VERTEX_POINT($,#632);
#634=CARTESIAN_POINT($,(-247.65,66.34226,128.905));
#635=DIRECTION($,(0,1,0));
#636=VECTOR($,#635,1);
#637=LINE($,#634,#636);
#638=EDGE_CURVE($,#625,#633,#637,.T.);
#639=ORIENTED_EDGE($,$,$,#638,.T.);
#640=CARTESIAN_POINT($,(-247.65,418.13226,128.905));
#641=DIRECTION($,(0,0,-1));
#642=VECTOR($,#641,1);
#643=LINE($,#640,#642);
#644=EDGE_CURVE($,#633,#615,#643,.T.);
#645=ORIENTED_EDGE($,$,$,#644,.T.);
#646=EDGE_LOOP($,(#623,#631,#639,#645));
#647=FACE_OUTER_BOUND('',#646,.T.);
#648=ADVANCED_FACE('',(#647),#613,.T.);
#649=CARTESIAN_POINT($,(-249.555,418.13226,84.455));
#650=DIRECTION($,(-1,-0,-0));
#651=DIRECTION($,(0,-1,0));
#652=AXIS2_PLACEMENT_3D($,#649,#650,#651);
#653=PLANE($,#652);
#654=CARTESIAN_POINT($,(-249.555,418.13226,128.905));
#655=VERTEX_POINT($,#654);
#656=CARTESIAN_POINT($,(-249.555,66.34226,128.905));
#657=VERTEX_POINT($,#656);
#658=CARTESIAN_POINT($,(-249.555,418.13226,128.905));
#659=DIRECTION($,(0,-1,0));
#660=VECTOR($,#659,1);
#661=LINE($,#658,#660);
#662=EDGE_CURVE($,#655,#657,#661,.T.);
#663=ORIENTED_EDGE($,$,$,#662,.T.);
#664=CARTESIAN_POINT($,(-249.555,66.34226,84.455));
#665=VERTEX_POINT($,#664);
#666=CARTESIAN_POINT($,(-249.555,66.34226,128.905));
#667=DIRECTION($,(0,0,-1));
#668=VECTOR($,#667,1);
#669=LINE($,#666,#668);
#670=EDGE_CURVE($,#657,#665,#669,.T.);
#671=ORIENTED_EDGE($,$,$,#670,.T.);
#672=CARTESIAN_POINT($,(-249.555,418.13226,84.455));
#673=VERTEX_POINT($,#672);
#674=CARTESIAN_POINT($,(-249.555,66.34226,84.455));
#675=DIRECTION($,(0,1,0));
#676=VECTOR($,#675,1);
#677=LINE($,#674,#676);
#678=EDGE_CURVE($,#665,#673,#677,.T.);
#679=ORIENTED_EDGE($,$,$,#678,.T.);
#680=CARTESIAN_POINT($,(-249.555,418.13226,84.455));
#681=DIRECTION($,(0,0,1));
#682=VECTOR($,#681,1);
#683=LINE($,#680,#682);
#684=EDGE_CURVE($,#673,#655,#683,.T.);
#685=ORIENTED_EDGE($,$,$,#684,.T.);
#686=EDGE_LOOP($,(#663,#671,#679,#685));
#687=FACE_OUTER_BOUND('',#686,.T.);
#688=ADVANCED_FACE('',(#687),#653,.F.);
#689=CARTESIAN_POINT($,(-241.3,418.13226,84.455));
#690=DIRECTION($,(0,-1,0));
#691=DIRECTION($,(0,0,-1));
#692=AXIS2_PLACEMENT_3D($,#689,#690,#691);
#693=CYLINDRICAL_SURFACE($,#692,6.34999999999999);
#694=ORIENTED_EDGE($,$,$,#94,.T.);
#695=CARTESIAN_POINT($,(-241.3,66.34226,84.455));
#696=DIRECTION($,(-0,1,-0));
#697=DIRECTION($,(0,0,-1));
#698=AXIS2_PLACEMENT_3D($,#695,#696,#697);
#699=CIRCLE($,#698,6.34999999999999);
#700=TRIMMED_CURVE($,#699,(PARAMETER_VALUE(0)),(PARAMETER_VALUE(1.5707963267949)),.T.,.PARAMETER.);
#701=EDGE_CURVE($,#89,#617,#700,.T.);
#702=ORIENTED_EDGE($,$,$,#701,.T.);
#703=ORIENTED_EDGE($,$,$,#622,.F.);
#704=CARTESIAN_POINT($,(-241.3,418.13226,84.455));
#705=DIRECTION($,(0,-1,0));
#706=DIRECTION($,(-1,0,0));
#707=AXIS2_PLACEMENT_3D($,#704,#705,#706);
#708=CIRCLE($,#707,6.35000000000002);
#709=TRIMMED_CURVE($,#708,(PARAMETER_VALUE(0)),(PARAMETER_VALUE(1.5707963267949)),.T.,.PARAMETER.);
#710=EDGE_CURVE($,#615,#81,#709,.T.);
#711=ORIENTED_EDGE($,$,$,#710,.T.);
#712=EDGE_LOOP($,(#694,#702,#703,#711));
#713=FACE_OUTER_BOUND('',#712,.T.);
#714=ADVANCED_FACE('',(#713),#693,.T.);
#715=CARTESIAN_POINT($,(-241.3,418.13226,84.455));
#716=DIRECTION($,(0,-1,0));
#717=DIRECTION($,(0,0,-1));
#718=AXIS2_PLACEMENT_3D($,#715,#716,#717);
#719=CYLINDRICAL_SURFACE($,#718,8.255);
#720=ORIENTED_EDGE($,$,$,#678,.F.);
#721=CARTESIAN_POINT($,(-241.3,66.34226,84.455));
#722=DIRECTION($,(0,-1,0));
#723=DIRECTION($,(-1,0,0));
#724=AXIS2_PLACEMENT_3D($,#721,#722,#723);
#725=CIRCLE($,#724,8.255);
#726=TRIMMED_CURVE($,#725,(PARAMETER_VALUE(0)),(PARAMETER_VALUE(1.5707963267949)),.T.,.PARAMETER.);
#727=EDGE_CURVE($,#665,#179,#726,.T.);
#728=ORIENTED_EDGE($,$,$,#727,.T.);
#729=ORIENTED_EDGE($,$,$,#186,.T.);
#730=CARTESIAN_POINT($,(-241.3,418.13226,84.455));
#731=DIRECTION($,(-0,1,-0));
#732=DIRECTION($,(0,0,-1));
#733=AXIS2_PLACEMENT_3D($,#730,#731,#732);
#734=CIRCLE($,#733,8.255);
#735=TRIMMED_CURVE($,#734,(PARAMETER_VALUE(0)),(PARAMETER_VALUE(1.5707963267949)),.T.,.PARAMETER.);
#736=EDGE_CURVE($,#181,#673,#735,.T.);
#737=ORIENTED_EDGE($,$,$,#736,.T.);
#738=EDGE_LOOP($,(#720,#728,#729,#737));
#739=FACE_OUTER_BOUND('',#738,.T.);
#740=ADVANCED_FACE('',(#739),#719,.F.);
#741=CARTESIAN_POINT($,(6.35,66.34226,84.455));
#742=DIRECTION($,(-1,0,0));
#743=DIRECTION($,(0,1,0));
#744=AXIS2_PLACEMENT_3D($,#741,#742,#743);
#745=PLANE($,#744);
#746=CARTESIAN_POINT($,(6.35,66.34226,84.455));
#747=VERTEX_POINT($,#746);
#748=CARTESIAN_POINT($,(6.35,418.13226,84.455));
#749=VERTEX_POINT($,#748);
#750=CARTESIAN_POINT($,(6.35,66.34226,84.455));
#751=DIRECTION($,(0,1,0));
#752=VECTOR($,#751,1);
#753=LINE($,#750,#752);
#754=EDGE_CURVE($,#747,#749,#753,.T.);
#755=ORIENTED_EDGE($,$,$,#754,.T.);
#756=CARTESIAN_POINT($,(6.35,418.13226,113.56594));
#757=VERTEX_POINT($,#756);
#758=CARTESIAN_POINT($,(6.35,418.13226,84.455));
#759=DIRECTION($,(0,0,1));
#760=VECTOR($,#759,1);
#761=LINE($,#758,#760);
#762=EDGE_CURVE($,#749,#757,#761,.T.);
#763=ORIENTED_EDGE($,$,$,#762,.T.);
#764=CARTESIAN_POINT($,(6.35,66.34226,113.56594));
#765=VERTEX_POINT($,#764);
#766=CARTESIAN_POINT($,(6.35,418.13226,113.56594));
#767=DIRECTION($,(0,-1,0));
#768=VECTOR($,#767,1);
#769=LINE($,#766,#768);
#770=EDGE_CURVE($,#757,#765,#769,.T.);
#771=ORIENTED_EDGE($,$,$,#770,.T.);
#772=CARTESIAN_POINT($,(6.35,66.34226,113.56594));
#773=DIRECTION($,(-0,0,-1));
#774=VECTOR($,#773,1);
#775=LINE($,#772,#774);
#776=EDGE_CURVE($,#765,#747,#775,.T.);
#777=ORIENTED_EDGE($,$,$,#776,.T.);
#778=EDGE_LOOP($,(#755,#763,#771,#777));
#779=FACE_OUTER_BOUND('',#778,.T.);
#780=ADVANCED_FACE('',(#779),#745,.T.);
#781=CARTESIAN_POINT($,(8.255,66.34226,84.455));
#782=DIRECTION($,(1,-0,-0));
#783=DIRECTION($,(0,1,0));
#784=AXIS2_PLACEMENT_3D($,#781,#782,#783);
#785=PLANE($,#784);
#786=CARTESIAN_POINT($,(8.255,66.34226,113.56594));
#787=VERTEX_POINT($,#786);
#788=CARTESIAN_POINT($,(8.255,418.13226,113.56594));
#789=VERTEX_POINT($,#788);
#790=CARTESIAN_POINT($,(8.255,66.34226,113.56594));
#791=DIRECTION($,(0,1,0));
#792=VECTOR($,#791,1);
#793=LINE($,#790,#792);
#794=EDGE_CURVE($,#787,#789,#793,.T.);
#795=ORIENTED_EDGE($,$,$,#794,.T.);
#796=CARTESIAN_POINT($,(8.255,418.13226,84.455));
#797=VERTEX_POINT($,#796);
#798=CARTESIAN_POINT($,(8.255,418.13226,113.56594));
#799=DIRECTION($,(-0,0,-1));
#800=VECTOR($,#799,1);
#801=LINE($,#798,#800);
#802=EDGE_CURVE($,#789,#797,#801,.T.);
#803=ORIENTED_EDGE($,$,$,#802,.T.);
#804=CARTESIAN_POINT($,(8.255,66.34226,84.455));
#805=VERTEX_POINT($,#804);
#806=CARTESIAN_POINT($,(8.255,418.13226,84.455));
#807=DIRECTION($,(0,-1,0));
#808=VECTOR($,#807,1);
#809=LINE($,#806,#808);
#810=EDGE_CURVE($,#797,#805,#809,.T.);
#811=ORIENTED_EDGE($,$,$,#810,.T.);
#812=CARTESIAN_POINT($,(8.255,66.34226,84.455));
#813=DIRECTION($,(0,0,1));
#814=VECTOR($,#813,1);
#815=LINE($,#812,#814);
#816=EDGE_CURVE($,#805,#787,#815,.T.);
#817=ORIENTED_EDGE($,$,$,#816,.T.);
#818=EDGE_LOOP($,(#795,#803,#811,#817));
#819=FACE_OUTER_BOUND('',#818,.T.);
#820=ADVANCED_FACE('',(#819),#785,.F.);
#821=CARTESIAN_POINT($,(0,66.34226,84.455));
#822=DIRECTION($,(0,1,0));
#823=DIRECTION($,(0,0,-1));
#824=AXIS2_PLACEMENT_3D($,#821,#822,#823);
#825=CYLINDRICAL_SURFACE($,#824,6.34999999999999);
#826=ORIENTED_EDGE($,$,$,#46,.T.);
#827=CARTESIAN_POINT($,(0,418.13226,84.455));
#828=DIRECTION($,(-0,-1,-0));
#829=DIRECTION($,(0,0,-1));
#830=AXIS2_PLACEMENT_3D($,#827,#828,#829);
#831=CIRCLE($,#830,6.34999999999999);
#832=TRIMMED_CURVE($,#831,(PARAMETER_VALUE(0)),(PARAMETER_VALUE(1.5707963267949)),.T.,.PARAMETER.);
#833=EDGE_CURVE($,#41,#749,#832,.T.);
#834=ORIENTED_EDGE($,$,$,#833,.T.);
#835=ORIENTED_EDGE($,$,$,#754,.F.);
#836=CARTESIAN_POINT($,(0,66.34226,84.455));
#837=DIRECTION($,(0,1,0));
#838=DIRECTION($,(1,0,0));
#839=AXIS2_PLACEMENT_3D($,#836,#837,#838);
#840=CIRCLE($,#839,6.35);
#841=TRIMMED_CURVE($,#840,(PARAMETER_VALUE(0)),(PARAMETER_VALUE(1.5707963267949)),.T.,.PARAMETER.);
#842=EDGE_CURVE($,#747,#33,#841,.T.);
#843=ORIENTED_EDGE($,$,$,#842,.T.);
#844=EDGE_LOOP($,(#826,#834,#835,#843));
#845=FACE_OUTER_BOUND('',#844,.T.);
#846=ADVANCED_FACE('',(#845),#825,.T.);
#847=CARTESIAN_POINT($,(0,66.34226,84.455));
#848=DIRECTION($,(0,1,0));
#849=DIRECTION($,(0,0,-1));
#850=AXIS2_PLACEMENT_3D($,#847,#848,#849);
#851=CYLINDRICAL_SURFACE($,#850,8.255);
#852=ORIENTED_EDGE($,$,$,#810,.F.);
#853=CARTESIAN_POINT($,(0,418.13226,84.455));
#854=DIRECTION($,(0,1,0));
#855=DIRECTION($,(1,0,0));
#856=AXIS2_PLACEMENT_3D($,#853,#854,#855);
#857=CIRCLE($,#856,8.255);
#858=TRIMMED_CURVE($,#857,(PARAMETER_VALUE(0)),(PARAMETER_VALUE(1.5707963267949)),.T.,.PARAMETER.);
#859=EDGE_CURVE($,#797,#221,#858,.T.);
#860=ORIENTED_EDGE($,$,$,#859,.T.);
#861=ORIENTED_EDGE($,$,$,#234,.T.);
#862=CARTESIAN_POINT($,(0,66.34226,84.455));
#863=DIRECTION($,(-0,-1,-0));
#864=DIRECTION($,(0,0,-1));
#865=AXIS2_PLACEMENT_3D($,#862,#863,#864);
#866=CIRCLE($,#865,8.255);
#867=TRIMMED_CURVE($,#866,(PARAMETER_VALUE(0)),(PARAMETER_VALUE(1.5707963267949)),.T.,.PARAMETER.);
#868=EDGE_CURVE($,#229,#805,#867,.T.);
#869=ORIENTED_EDGE($,$,$,#868,.T.);
#870=EDGE_LOOP($,(#852,#860,#861,#869));
#871=FACE_OUTER_BOUND('',#870,.T.);
#872=ADVANCED_FACE('',(#871),#851,.F.);
#873=CARTESIAN_POINT($,(-233.045,43.48226,1.90746000000001));
#874=DIRECTION($,(0,0,1));
#875=DIRECTION($,(1,0,0));
#876=AXIS2_PLACEMENT_3D($,#873,#874,#875);
#877=PLANE($,#876);
#878=CARTESIAN_POINT($,(-233.045,43.48226,1.90746000000001));
#879=VERTEX_POINT($,#878);
#880=CARTESIAN_POINT($,(-8.255,43.48226,1.90746000000001));
#881=VERTEX_POINT($,#880);
#882=CARTESIAN_POINT($,(-233.045,43.48226,1.90746000000001));
#883=DIRECTION($,(1,0,0));
#884=VECTOR($,#883,1);
#885=LINE($,#882,#884);
#886=EDGE_CURVE($,#879,#881,#885,.T.);
#887=ORIENTED_EDGE($,$,$,#886,.T.);
#888=CARTESIAN_POINT($,(-8.255,12.70254,1.90746000000001));
#889=VERTEX_POINT($,#888);
#890=CARTESIAN_POINT($,(-8.255,43.48226,1.90746000000001));
#891=DIRECTION($,(0,-1,0));
#892=VECTOR($,#891,1);
#893=LINE($,#890,#892);
#894=EDGE_CURVE($,#881,#889,#893,.T.);
#895=ORIENTED_EDGE($,$,$,#894,.T.);
#896=CARTESIAN_POINT($,(-233.045,12.70254,1.90746000000001));
#897=VERTEX_POINT($,#896);
#898=CARTESIAN_POINT($,(-8.255,12.70254,1.90746000000001));
#899=DIRECTION($,(-1,0,0));
#900=VECTOR($,#899,1);
#901=LINE($,#898,#900);
#902=EDGE_CURVE($,#889,#897,#901,.T.);
#903=ORIENTED_EDGE($,$,$,#902,.T.);
#904=CARTESIAN_POINT($,(-233.045,12.70254,1.90746000000001));
#905=DIRECTION($,(0,1,0));
#906=VECTOR($,#905,1);
#907=LINE($,#904,#906);
#908=EDGE_CURVE($,#897,#879,#907,.T.);
#909=ORIENTED_EDGE($,$,$,#908,.T.);
#910=EDGE_LOOP($,(#887,#895,#903,#909));
#911=FACE_OUTER_BOUND('',#910,.T.);
#912=ADVANCED_FACE('',(#911),#877,.T.);
#913=CARTESIAN_POINT($,(-233.045,43.48226,0.00246000000001));
#914=DIRECTION($,(-0,-0,-1));
#915=DIRECTION($,(1,0,0));
#916=AXIS2_PLACEMENT_3D($,#913,#914,#915);
#917=PLANE($,#916);
#918=CARTESIAN_POINT($,(-233.045,12.70254,0.00246000000001));
#919=VERTEX_POINT($,#918);
#920=CARTESIAN_POINT($,(-8.255,12.70254,0.00246000000001));
#921=VERTEX_POINT($,#920);
#922=CARTESIAN_POINT($,(-233.045,12.70254,0.00246000000001));
#923=DIRECTION($,(1,0,0));
#924=VECTOR($,#923,1);
#925=LINE($,#922,#924);
#926=EDGE_CURVE($,#919,#921,#925,.T.);
#927=ORIENTED_EDGE($,$,$,#926,.T.);
#928=CARTESIAN_POINT($,(-8.255,43.48226,0.00246000000001));
#929=VERTEX_POINT($,#928);
#930=CARTESIAN_POINT($,(-8.255,12.70254,0.00246000000001));
#931=DIRECTION($,(0,1,0));
#932=VECTOR($,#931,1);
#933=LINE($,#930,#932);
#934=EDGE_CURVE($,#921,#929,#933,.T.);
#935=ORIENTED_EDGE($,$,$,#934,.T.);
#936=CARTESIAN_POINT($,(-233.045,43.48226,0.00246000000001));
#937=VERTEX_POINT($,#936);
#938=CARTESIAN_POINT($,(-8.255,43.48226,0.00246000000001));
#939=DIRECTION($,(-1,0,0));
#940=VECTOR($,#939,1);
#941=LINE($,#938,#940);
#942=EDGE_CURVE($,#929,#937,#941,.T.);
#943=ORIENTED_EDGE($,$,$,#942,.T.);
#944=CARTESIAN_POINT($,(-233.045,43.48226,0.00246000000001));
#945=DIRECTION($,(0,-1,0));
#946=VECTOR($,#945,1);
#947=LINE($,#944,#946);
#948=EDGE_CURVE($,#937,#919,#947,.T.);
#949=ORIENTED_EDGE($,$,$,#948,.T.);
#950=EDGE_LOOP($,(#927,#935,#943,#949));
#951=FACE_OUTER_BOUND('',#950,.T.);
#952=ADVANCED_FACE('',(#951),#917,.F.);
#953=CARTESIAN_POINT($,(-233.045,43.48226,8.25746000000001));
#954=DIRECTION($,(1,0,0));
#955=DIRECTION($,(0,1,0));
#956=AXIS2_PLACEMENT_3D($,#953,#954,#955);
#957=CYLINDRICAL_SURFACE($,#956,6.35);
#958=ORIENTED_EDGE($,$,$,#374,.F.);
#959=CARTESIAN_POINT($,(-8.255,43.48226,8.25746000000001));
#960=DIRECTION($,(-1,-0,-0));
#961=DIRECTION($,(0,1,0));
#962=AXIS2_PLACEMENT_3D($,#959,#960,#961);
#963=CIRCLE($,#962,6.35);
#964=TRIMMED_CURVE($,#963,(PARAMETER_VALUE(0)),(PARAMETER_VALUE(1.5707963267949)),.T.,.PARAMETER.);
#965=EDGE_CURVE($,#361,#881,#964,.T.);
#966=ORIENTED_EDGE($,$,$,#965,.T.);
#967=ORIENTED_EDGE($,$,$,#886,.F.);
#968=CARTESIAN_POINT($,(-233.045,43.48226,8.25746000000001));
#969=DIRECTION($,(1,0,0));
#970=DIRECTION($,(0,0.000000000000001,-1));
#971=AXIS2_PLACEMENT_3D($,#968,#969,#970);
#972=CIRCLE($,#971,6.35);
#973=TRIMMED_CURVE($,#972,(PARAMETER_VALUE(0)),(PARAMETER_VALUE(1.5707963267949)),.T.,.PARAMETER.);
#974=EDGE_CURVE($,#879,#369,#973,.T.);
#975=ORIENTED_EDGE($,$,$,#974,.T.);
#976=EDGE_LOOP($,(#958,#966,#967,#975));
#977=FACE_OUTER_BOUND('',#976,.T.);
#978=ADVANCED_FACE('',(#977),#957,.T.);
#979=CARTESIAN_POINT($,(-233.045,43.48226,8.25746000000001));
#980=DIRECTION($,(1,0,0));
#981=DIRECTION($,(0,1,0));
#982=AXIS2_PLACEMENT_3D($,#979,#980,#981);
#983=CYLINDRICAL_SURFACE($,#982,8.255);
#984=ORIENTED_EDGE($,$,$,#942,.F.);
#985=CARTESIAN_POINT($,(-8.255,43.48226,8.25746000000001));
#986=DIRECTION($,(1,0,0));
#987=DIRECTION($,(0,0.000000000000001,-1));
#988=AXIS2_PLACEMENT_3D($,#985,#986,#987);
#989=CIRCLE($,#988,8.255);
#990=TRIMMED_CURVE($,#989,(PARAMETER_VALUE(0)),(PARAMETER_VALUE(1.5707963267949)),.T.,.PARAMETER.);
#991=EDGE_CURVE($,#929,#393,#990,.T.);
#992=ORIENTED_EDGE($,$,$,#991,.T.);
#993=ORIENTED_EDGE($,$,$,#398,.F.);
#994=CARTESIAN_POINT($,(-233.045,43.48226,8.25746000000001));
#995=DIRECTION($,(-1,-0,-0));
#996=DIRECTION($,(0,1,0));
#997=AXIS2_PLACEMENT_3D($,#994,#995,#996);
#998=CIRCLE($,#997,8.255);
#999=TRIMMED_CURVE($,#998,(PARAMETER_VALUE(0)),(PARAMETER_VALUE(1.5707963267949)),.T.,.PARAMETER.);
#1000=EDGE_CURVE($,#391,#937,#999,.T.);
#1001=ORIENTED_EDGE($,$,$,#1000,.T.);
#1002=EDGE_LOOP($,(#984,#992,#993,#1001));
#1003=FACE_OUTER_BOUND('',#1002,.T.);
#1004=ADVANCED_FACE('',(#1003),#983,.F.);
#1005=CARTESIAN_POINT($,(-8.255,440.99226,1.90746000000001));
#1006=DIRECTION($,(0,0,1));
#1007=DIRECTION($,(-1,0,0));
#1008=AXIS2_PLACEMENT_3D($,#1005,#1006,#1007);
#1009=PLANE($,#1008);
#1010=CARTESIAN_POINT($,(-8.255,440.99226,1.90746000000001));
#1011=VERTEX_POINT($,#1010);
#1012=CARTESIAN_POINT($,(-233.045,440.99226,1.90746000000001));
#1013=VERTEX_POINT($,#1012);
#1014=CARTESIAN_POINT($,(-8.255,440.99226,1.90746000000001));
#1015=DIRECTION($,(-1,0,0));
#1016=VECTOR($,#1015,1);
#1017=LINE($,#1014,#1016);
#1018=EDGE_CURVE($,#1011,#1013,#1017,.T.);
#1019=ORIENTED_EDGE($,$,$,#1018,.T.);
#1020=CARTESIAN_POINT($,(-233.045,485.44226,1.90746000000001));
#1021=VERTEX_POINT($,#1020);
#1022=CARTESIAN_POINT($,(-233.045,440.99226,1.90746000000001));
#1023=DIRECTION($,(0,1,0));
#1024=VECTOR($,#1023,1);
#1025=LINE($,#1022,#1024);
#1026=EDGE_CURVE($,#1013,#1021,#1025,.T.);
#1027=ORIENTED_EDGE($,$,$,#1026,.T.);
#1028=CARTESIAN_POINT($,(-8.255,485.44226,1.90746000000001));
#1029=VERTEX_POINT($,#1028);
#1030=CARTESIAN_POINT($,(-233.045,485.44226,1.90746000000001));
#1031=DIRECTION($,(1,0,0));
#1032=VECTOR($,#1031,1);
#1033=LINE($,#1030,#1032);
#1034=EDGE_CURVE($,#1021,#1029,#1033,.T.);
#1035=ORIENTED_EDGE($,$,$,#1034,.T.);
#1036=CARTESIAN_POINT($,(-8.255,485.44226,1.90746000000001));
#1037=DIRECTION($,(0,-1,0));
#1038=VECTOR($,#1037,1);
#1039=LINE($,#1036,#1038);
#1040=EDGE_CURVE($,#1029,#1011,#1039,.T.);
#1041=ORIENTED_EDGE($,$,$,#1040,.T.);
#1042=EDGE_LOOP($,(#1019,#1027,#1035,#1041));
#1043=FACE_OUTER_BOUND('',#1042,.T.);
#1044=ADVANCED_FACE('',(#1043),#1009,.T.);
#1045=CARTESIAN_POINT($,(-8.255,440.99226,0.00246000000001));
#1046=DIRECTION($,(-0,-0,-1));
#1047=DIRECTION($,(-1,0,0));
#1048=AXIS2_PLACEMENT_3D($,#1045,#1046,#1047);
#1049=PLANE($,#1048);
#1050=CARTESIAN_POINT($,(-8.255,485.44226,0.00246000000001));
#1051=VERTEX_POINT($,#1050);
#1052=CARTESIAN_POINT($,(-233.045,485.44226,0.00246000000001));
#1053=VERTEX_POINT($,#1052);
#1054=CARTESIAN_POINT($,(-8.255,485.44226,0.00246000000001));
#1055=DIRECTION($,(-1,0,0));
#1056=VECTOR($,#1055,1);
#1057=LINE($,#1054,#1056);
#1058=EDGE_CURVE($,#1051,#1053,#1057,.T.);
#1059=ORIENTED_EDGE($,$,$,#1058,.T.);
#1060=CARTESIAN_POINT($,(-233.045,440.99226,0.00246000000001));
#1061=VERTEX_POINT($,#1060);
#1062=CARTESIAN_POINT($,(-233.045,485.44226,0.00246000000001));
#1063=DIRECTION($,(0,-1,0));
#1064=VECTOR($,#1063,1);
#1065=LINE($,#1062,#1064);
#1066=EDGE_CURVE($,#1053,#1061,#1065,.T.);
#1067=ORIENTED_EDGE($,$,$,#1066,.T.);
#1068=CARTESIAN_POINT($,(-8.255,440.99226,0.00246000000001));
#1069=VERTEX_POINT($,#1068);
#1070=CARTESIAN_POINT($,(-233.045,440.99226,0.00246000000001));
#1071=DIRECTION($,(1,0,0));
#1072=VECTOR($,#1071,1);
#1073=LINE($,#1070,#1072);
#1074=EDGE_CURVE($,#1061,#1069,#1073,.T.);
#1075=ORIENTED_EDGE($,$,$,#1074,.T.);
#1076=CARTESIAN_POINT($,(-8.255,440.99226,0.00246000000001));
#1077=DIRECTION($,(0,1,0));
#1078=VECTOR($,#1077,1);
#1079=LINE($,#1076,#1078);
#1080=EDGE_CURVE($,#1069,#1051,#1079,.T.);
#1081=ORIENTED_EDGE($,$,$,#1080,.T.);
#1082=EDGE_LOOP($,(#1059,#1067,#1075,#1081));
#1083=FACE_OUTER_BOUND('',#1082,.T.);
#1084=ADVANCED_FACE('',(#1083),#1049,.F.);
#1085=CARTESIAN_POINT($,(-8.255,440.99226,8.25746000000001));
#1086=DIRECTION($,(-1,0,0));
#1087=DIRECTION($,(0,-1,0));
#1088=AXIS2_PLACEMENT_3D($,#1085,#1086,#1087);
#1089=CYLINDRICAL_SURFACE($,#1088,6.35000000000002);
#1090=ORIENTED_EDGE($,$,$,#506,.F.);
#1091=CARTESIAN_POINT($,(-233.045,440.99226,8.25746000000001));
#1092=DIRECTION($,(1,-0,-0));
#1093=DIRECTION($,(0,-1,0));
#1094=AXIS2_PLACEMENT_3D($,#1091,#1092,#1093);
#1095=CIRCLE($,#1094,6.35000000000002);
#1096=TRIMMED_CURVE($,#1095,(PARAMETER_VALUE(0)),(PARAMETER_VALUE(1.5707963267949)),.T.,.PARAMETER.);
#1097=EDGE_CURVE($,#493,#1013,#1096,.T.);
#1098=ORIENTED_EDGE($,$,$,#1097,.T.);
#1099=ORIENTED_EDGE($,$,$,#1018,.F.);
#1100=CARTESIAN_POINT($,(-8.255,440.99226,8.25746000000001));
#1101=DIRECTION($,(-1,0,0));
#1102=DIRECTION($,(0,0,-1));
#1103=AXIS2_PLACEMENT_3D($,#1100,#1101,#1102);
#1104=CIRCLE($,#1103,6.35);
#1105=TRIMMED_CURVE($,#1104,(PARAMETER_VALUE(0)),(PARAMETER_VALUE(1.5707963267949)),.T.,.PARAMETER.);
#1106=EDGE_CURVE($,#1011,#501,#1105,.T.);
#1107=ORIENTED_EDGE($,$,$,#1106,.T.);
#1108=EDGE_LOOP($,(#1090,#1098,#1099,#1107));
#1109=FACE_OUTER_BOUND('',#1108,.T.);
#1110=ADVANCED_FACE('',(#1109),#1089,.T.);
#1111=CARTESIAN_POINT($,(-8.255,440.99226,8.25746000000001));
#1112=DIRECTION($,(-1,0,0));
#1113=DIRECTION($,(0,-1,0));
#1114=AXIS2_PLACEMENT_3D($,#1111,#1112,#1113);
#1115=CYLINDRICAL_SURFACE($,#1114,8.255);
#1116=ORIENTED_EDGE($,$,$,#1074,.F.);
#1117=CARTESIAN_POINT($,(-233.045,440.99226,8.25746000000001));
#1118=DIRECTION($,(-1,0,0));
#1119=DIRECTION($,(0,0,-1));
#1120=AXIS2_PLACEMENT_3D($,#1117,#1118,#1119);
#1121=CIRCLE($,#1120,8.255);
#1122=TRIMMED_CURVE($,#1121,(PARAMETER_VALUE(0)),(PARAMETER_VALUE(1.5707963267949)),.T.,.PARAMETER.);
#1123=EDGE_CURVE($,#1061,#525,#1122,.T.);
#1124=ORIENTED_EDGE($,$,$,#1123,.T.);
#1125=ORIENTED_EDGE($,$,$,#530,.F.);
#1126=CARTESIAN_POINT($,(-8.255,440.99226,8.25746000000001));
#1127=DIRECTION($,(1,-0,-0));
#1128=DIRECTION($,(0,-1,0));
#1129=AXIS2_PLACEMENT_3D($,#1126,#1127,#1128);
#1130=CIRCLE($,#1129,8.255);
#1131=TRIMMED_CURVE($,#1130,(PARAMETER_VALUE(0)),(PARAMETER_VALUE(1.5707963267949)),.T.,.PARAMETER.);
#1132=EDGE_CURVE($,#523,#1069,#1131,.T.);
#1133=ORIENTED_EDGE($,$,$,#1132,.T.);
#1134=EDGE_LOOP($,(#1116,#1124,#1125,#1133));
#1135=FACE_OUTER_BOUND('',#1134,.T.);
#1136=ADVANCED_FACE('',(#1135),#1115,.F.);
#1137=CARTESIAN_POINT($,(8.76783352130505,66.34226,119.403106478695));
#1138=DIRECTION($,(-0.707106781186548,0,0.707106781186548));
#1139=DIRECTION($,(0,1,0));
#1140=AXIS2_PLACEMENT_3D($,#1137,#1138,#1139);
#1141=PLANE($,#1140);
#1142=CARTESIAN_POINT($,(8.76783352130505,66.34226,119.403106478695));
#1143=VERTEX_POINT($,#1142);
#1144=CARTESIAN_POINT($,(8.76783352130505,418.13226,119.403106478695));
#1145=VERTEX_POINT($,#1144);
#1146=CARTESIAN_POINT($,(8.76783352130505,66.34226,119.403106478695));
#1147=DIRECTION($,(0,1,0));
#1148=VECTOR($,#1147,1);
#1149=LINE($,#1146,#1148);
#1150=EDGE_CURVE($,#1143,#1145,#1149,.T.);
#1151=ORIENTED_EDGE($,$,$,#1150,.T.);
#1152=CARTESIAN_POINT($,(43.0724119037892,418.13226,153.707684861179));
#1153=VERTEX_POINT($,#1152);
#1154=CARTESIAN_POINT($,(8.76783352130505,418.13226,119.403106478695));
#1155=DIRECTION($,(0.707106781186548,0,0.707106781186548));
#1156=VECTOR($,#1155,1);
#1157=LINE($,#1154,#1156);
#1158=EDGE_CURVE($,#1145,#1153,#1157,.T.);
#1159=ORIENTED_EDGE($,$,$,#1158,.T.);
#1160=CARTESIAN_POINT($,(43.0724119037892,66.34226,153.707684861179));
#1161=VERTEX_POINT($,#1160);
#1162=CARTESIAN_POINT($,(43.0724119037892,418.13226,153.707684861179));
#1163=DIRECTION($,(0,-1,0));
#1164=VECTOR($,#1163,1);
#1165=LINE($,#1162,#1164);
#1166=EDGE_CURVE($,#1153,#1161,#1165,.T.);
#1167=ORIENTED_EDGE($,$,$,#1166,.T.);
#1168=CARTESIAN_POINT($,(43.0724119037892,66.34226,153.707684861179));
#1169=DIRECTION($,(-0.707106781186548,0,-0.707106781186548));
#1170=VECTOR($,#1169,1);
#1171=LINE($,#1168,#1170);
#1172=EDGE_CURVE($,#1161,#1143,#1171,.T.);
#1173=ORIENTED_EDGE($,$,$,#1172,.T.);
#1174=EDGE_LOOP($,(#1151,#1159,#1167,#1173));
#1175=FACE_OUTER_BOUND('',#1174,.T.);
#1176=ADVANCED_FACE('',(#1175),#1141,.T.);
#1177=CARTESIAN_POINT($,(10.1148719394654,66.34226,118.056068060535));
#1178=DIRECTION($,(0.707106781186548,-0,-0.707106781186548));
#1179=DIRECTION($,(0,1,0));
#1180=AXIS2_PLACEMENT_3D($,#1177,#1178,#1179);
#1181=PLANE($,#1180);
#1182=CARTESIAN_POINT($,(44.4194503219496,66.34226,152.360646443019));
#1183=VERTEX_POINT($,#1182);
#1184=CARTESIAN_POINT($,(44.4194503219496,418.13226,152.360646443019));
#1185=VERTEX_POINT($,#1184);
#1186=CARTESIAN_POINT($,(44.4194503219496,66.34226,152.360646443019));
#1187=DIRECTION($,(0,1,0));
#1188=VECTOR($,#1187,1);
#1189=LINE($,#1186,#1188);
#1190=EDGE_CURVE($,#1183,#1185,#1189,.T.);
#1191=ORIENTED_EDGE($,$,$,#1190,.T.);
#1192=CARTESIAN_POINT($,(10.1148719394654,418.13226,118.056068060535));
#1193=VERTEX_POINT($,#1192);
#1194=CARTESIAN_POINT($,(44.4194503219496,418.13226,152.360646443019));
#1195=DIRECTION($,(-0.707106781186547,0,-0.707106781186548));
#1196=VECTOR($,#1195,1);
#1197=LINE($,#1194,#1196);
#1198=EDGE_CURVE($,#1185,#1193,#1197,.T.);
#1199=ORIENTED_EDGE($,$,$,#1198,.T.);
#1200=CARTESIAN_POINT($,(10.1148719394654,66.34226,118.056068060535));
#1201=VERTEX_POINT($,#1200);
#1202=CARTESIAN_POINT($,(10.1148719394654,418.13226,118.056068060535));
#1203=DIRECTION($,(0,-1,0));
#1204=VECTOR($,#1203,1);
#1205=LINE($,#1202,#1204);
#1206=EDGE_CURVE($,#1193,#1201,#1205,.T.);
#1207=ORIENTED_EDGE($,$,$,#1206,.T.);
#1208=CARTESIAN_POINT($,(10.1148719394654,66.34226,118.056068060535));
#1209=DIRECTION($,(0.707106781186547,0,0.707106781186548));
#1210=VECTOR($,#1209,1);
#1211=LINE($,#1208,#1210);
#1212=EDGE_CURVE($,#1201,#1183,#1211,.T.);
#1213=ORIENTED_EDGE($,$,$,#1212,.T.);
#1214=EDGE_LOOP($,(#1191,#1199,#1207,#1213));
#1215=FACE_OUTER_BOUND('',#1214,.T.);
#1216=ADVANCED_FACE('',(#1215),#1181,.F.);
#1217=CARTESIAN_POINT($,(14.605,66.34226,113.56594));
#1218=DIRECTION($,(0,1,0));
#1219=DIRECTION($,(-1,0,0));
#1220=AXIS2_PLACEMENT_3D($,#1217,#1218,#1219);
#1221=CYLINDRICAL_SURFACE($,#1220,8.255);
#1222=ORIENTED_EDGE($,$,$,#770,.F.);
#1223=CARTESIAN_POINT($,(14.605,418.13226,113.56594));
#1224=DIRECTION($,(0,1,0));
#1225=DIRECTION($,(-1,0,0));
#1226=AXIS2_PLACEMENT_3D($,#1223,#1224,#1225);
#1227=CIRCLE($,#1226,8.255);
#1228=TRIMMED_CURVE($,#1227,(PARAMETER_VALUE(0)),(PARAMETER_VALUE(0.785398163397449)),.T.,.PARAMETER.);
#1229=EDGE_CURVE($,#757,#1145,#1228,.T.);
#1230=ORIENTED_EDGE($,$,$,#1229,.T.);
#1231=ORIENTED_EDGE($,$,$,#1150,.F.);
#1232=CARTESIAN_POINT($,(14.605,66.34226,113.56594));
#1233=DIRECTION($,(-0,-1,-0));
#1234=DIRECTION($,(-0.707106781186547,0,0.707106781186548));
#1235=AXIS2_PLACEMENT_3D($,#1232,#1233,#1234);
#1236=CIRCLE($,#1235,8.255);
#1237=TRIMMED_CURVE($,#1236,(PARAMETER_VALUE(0)),(PARAMETER_VALUE(0.785398163397449)),.T.,.PARAMETER.);
#1238=EDGE_CURVE($,#1143,#765,#1237,.T.);
#1239=ORIENTED_EDGE($,$,$,#1238,.T.);
#1240=EDGE_LOOP($,(#1222,#1230,#1231,#1239));
#1241=FACE_OUTER_BOUND('',#1240,.T.);
#1242=ADVANCED_FACE('',(#1241),#1221,.T.);
#1243=CARTESIAN_POINT($,(14.605,66.34226,113.56594));
#1244=DIRECTION($,(0,1,0));
#1245=DIRECTION($,(-1,0,0));
#1246=AXIS2_PLACEMENT_3D($,#1243,#1244,#1245);
#1247=CYLINDRICAL_SURFACE($,#1246,6.35);
#1248=ORIENTED_EDGE($,$,$,#1206,.F.);
#1249=CARTESIAN_POINT($,(14.605,418.13226,113.56594));
#1250=DIRECTION($,(-0,-1,-0));
#1251=DIRECTION($,(-0.707106781186547,0,0.707106781186548));
#1252=AXIS2_PLACEMENT_3D($,#1249,#1250,#1251);
#1253=CIRCLE($,#1252,6.35000000000001);
#1254=TRIMMED_CURVE($,#1253,(PARAMETER_VALUE(0)),(PARAMETER_VALUE(0.78539816339745)),.T.,.PARAMETER.);
#1255=EDGE_CURVE($,#1193,#789,#1254,.T.);
#1256=ORIENTED_EDGE($,$,$,#1255,.T.);
#1257=ORIENTED_EDGE($,$,$,#794,.F.);
#1258=CARTESIAN_POINT($,(14.605,66.34226,113.56594));
#1259=DIRECTION($,(0,1,0));
#1260=DIRECTION($,(-1,0,0));
#1261=AXIS2_PLACEMENT_3D($,#1258,#1259,#1260);
#1262=CIRCLE($,#1261,6.35);
#1263=TRIMMED_CURVE($,#1262,(PARAMETER_VALUE(0)),(PARAMETER_VALUE(0.78539816339745)),.T.,.PARAMETER.);
#1264=EDGE_CURVE($,#787,#1201,#1263,.T.);
#1265=ORIENTED_EDGE($,$,$,#1264,.T.);
#1266=EDGE_LOOP($,(#1248,#1256,#1257,#1265));
#1267=FACE_OUTER_BOUND('',#1266,.T.);
#1268=ADVANCED_FACE('',(#1267),#1247,.F.);
#1269=CARTESIAN_POINT($,(-241.3,58.08726,78.105));
#1270=DIRECTION($,(-0,1,0));
#1271=DIRECTION($,(1,0,0));
#1272=AXIS2_PLACEMENT_3D($,#1269,#1270,#1271);
#1273=PLANE($,#1272);
#1274=ORIENTED_EDGE($,$,$,#14,.T.);
#1275=CARTESIAN_POINT($,(-233.045,58.08726,78.105));
#1276=DIRECTION($,(0,0,-1));
#1277=VECTOR($,#1276,1);
#1278=LINE($,#1275,#1277);
#1279=EDGE_CURVE($,#9,#253,#1278,.T.);
#1280=ORIENTED_EDGE($,$,$,#1279,.T.);
#1281=ORIENTED_EDGE($,$,$,#266,.T.);
#1282=CARTESIAN_POINT($,(-241.3,58.08726,76.2));
#1283=DIRECTION($,(0,0,1));
#1284=VECTOR($,#1283,1);
#1285=LINE($,#1282,#1284);
#1286=EDGE_CURVE($,#261,#7,#1285,.T.);
#1287=ORIENTED_EDGE($,$,$,#1286,.T.);
#1288=EDGE_LOOP($,(#1274,#1280,#1281,#1287));
#1289=FACE_OUTER_BOUND('',#1288,.T.);
#1290=ADVANCED_FACE('',(#1289),#1273,.T.);
#1291=CARTESIAN_POINT($,(-8.255,58.08726,78.105));
#1292=DIRECTION($,(-0,1,0));
#1293=DIRECTION($,(1,0,0));
#1294=AXIS2_PLACEMENT_3D($,#1291,#1292,#1293);
#1295=PLANE($,#1294);
#1296=ORIENTED_EDGE($,$,$,#30,.T.);
#1297=CARTESIAN_POINT($,(0,58.08726,78.105));
#1298=DIRECTION($,(0,0,-1));
#1299=VECTOR($,#1298,1);
#1300=LINE($,#1297,#1299);
#1301=EDGE_CURVE($,#25,#237,#1300,.T.);
#1302=ORIENTED_EDGE($,$,$,#1301,.T.);
#1303=ORIENTED_EDGE($,$,$,#250,.T.);
#1304=CARTESIAN_POINT($,(-8.255,58.08726,76.2));
#1305=DIRECTION($,(0,0,1));
#1306=VECTOR($,#1305,1);
#1307=LINE($,#1304,#1306);
#1308=EDGE_CURVE($,#245,#17,#1307,.T.);
#1309=ORIENTED_EDGE($,$,$,#1308,.T.);
#1310=EDGE_LOOP($,(#1296,#1302,#1303,#1309));
#1311=FACE_OUTER_BOUND('',#1310,.T.);
#1312=ADVANCED_FACE('',(#1311),#1295,.T.);
#1313=CARTESIAN_POINT($,(0,58.08726,78.105));
#1314=DIRECTION($,(-1,0,0));
#1315=DIRECTION($,(0,1,0));
#1316=AXIS2_PLACEMENT_3D($,#1313,#1314,#1315);
#1317=PLANE($,#1316);
#1318=ORIENTED_EDGE($,$,$,#38,.T.);
#1319=CARTESIAN_POINT($,(0,66.34226,78.105));
#1320=DIRECTION($,(0,0,-1));
#1321=VECTOR($,#1320,1);
#1322=LINE($,#1319,#1321);
#1323=EDGE_CURVE($,#33,#229,#1322,.T.);
#1324=ORIENTED_EDGE($,$,$,#1323,.T.);
#1325=ORIENTED_EDGE($,$,$,#242,.T.);
#1326=ORIENTED_EDGE($,$,$,#1301,.F.);
#1327=EDGE_LOOP($,(#1318,#1324,#1325,#1326));
#1328=FACE_OUTER_BOUND('',#1327,.T.);
#1329=ADVANCED_FACE('',(#1328),#1317,.T.);
#1330=CARTESIAN_POINT($,(0,418.13226,78.105));
#1331=DIRECTION($,(-1,0,0));
#1332=DIRECTION($,(0,1,0));
#1333=AXIS2_PLACEMENT_3D($,#1330,#1331,#1332);
#1334=PLANE($,#1333);
#1335=ORIENTED_EDGE($,$,$,#54,.T.);
#1336=CARTESIAN_POINT($,(0,426.38726,78.105));
#1337=DIRECTION($,(0,0,-1));
#1338=VECTOR($,#1337,1);
#1339=LINE($,#1336,#1338);
#1340=EDGE_CURVE($,#49,#213,#1339,.T.);
#1341=ORIENTED_EDGE($,$,$,#1340,.T.);
#1342=ORIENTED_EDGE($,$,$,#226,.T.);
#1343=CARTESIAN_POINT($,(0,418.13226,76.2));
#1344=DIRECTION($,(0,0,1));
#1345=VECTOR($,#1344,1);
#1346=LINE($,#1343,#1345);
#1347=EDGE_CURVE($,#221,#41,#1346,.T.);
#1348=ORIENTED_EDGE($,$,$,#1347,.T.);
#1349=EDGE_LOOP($,(#1335,#1341,#1342,#1348));
#1350=FACE_OUTER_BOUND('',#1349,.T.);
#1351=ADVANCED_FACE('',(#1350),#1334,.T.);
#1352=CARTESIAN_POINT($,(0,426.38726,78.105));
#1353=DIRECTION($,(-0,-1,-0));
#1354=DIRECTION($,(-1,0,0));
#1355=AXIS2_PLACEMENT_3D($,#1352,#1353,#1354);
#1356=PLANE($,#1355);
#1357=ORIENTED_EDGE($,$,$,#62,.T.);
#1358=CARTESIAN_POINT($,(-8.255,426.38726,78.105));
#1359=DIRECTION($,(0,0,-1));
#1360=VECTOR($,#1359,1);
#1361=LINE($,#1358,#1360);
#1362=EDGE_CURVE($,#57,#205,#1361,.T.);
#1363=ORIENTED_EDGE($,$,$,#1362,.T.);
#1364=ORIENTED_EDGE($,$,$,#218,.T.);
#1365=ORIENTED_EDGE($,$,$,#1340,.F.);
#1366=EDGE_LOOP($,(#1357,#1363,#1364,#1365));
#1367=FACE_OUTER_BOUND('',#1366,.T.);
#1368=ADVANCED_FACE('',(#1367),#1356,.T.);
#1369=CARTESIAN_POINT($,(-233.045,426.38726,78.105));
#1370=DIRECTION($,(-0,-1,-0));
#1371=DIRECTION($,(-1,0,0));
#1372=AXIS2_PLACEMENT_3D($,#1369,#1370,#1371);
#1373=PLANE($,#1372);
#1374=ORIENTED_EDGE($,$,$,#78,.T.);
#1375=CARTESIAN_POINT($,(-241.3,426.38726,78.105));
#1376=DIRECTION($,(0,0,-1));
#1377=VECTOR($,#1376,1);
#1378=LINE($,#1375,#1377);
#1379=EDGE_CURVE($,#73,#189,#1378,.T.);
#1380=ORIENTED_EDGE($,$,$,#1379,.T.);
#1381=ORIENTED_EDGE($,$,$,#202,.T.);
#1382=CARTESIAN_POINT($,(-233.045,426.38726,76.2));
#1383=DIRECTION($,(0,0,1));
#1384=VECTOR($,#1383,1);
#1385=LINE($,#1382,#1384);
#1386=EDGE_CURVE($,#197,#65,#1385,.T.);
#1387=ORIENTED_EDGE($,$,$,#1386,.T.);
#1388=EDGE_LOOP($,(#1374,#1380,#1381,#1387));
#1389=FACE_OUTER_BOUND('',#1388,.T.);
#1390=ADVANCED_FACE('',(#1389),#1373,.T.);
#1391=CARTESIAN_POINT($,(-241.3,426.38726,78.105));
#1392=DIRECTION($,(1,0,0));
#1393=DIRECTION($,(0,-1,0));
#1394=AXIS2_PLACEMENT_3D($,#1391,#1392,#1393);
#1395=PLANE($,#1394);
#1396=ORIENTED_EDGE($,$,$,#86,.T.);
#1397=CARTESIAN_POINT($,(-241.3,418.13226,78.105));
#1398=DIRECTION($,(0,0,-1));
#1399=VECTOR($,#1398,1);
#1400=LINE($,#1397,#1399);
#1401=EDGE_CURVE($,#81,#181,#1400,.T.);
#1402=ORIENTED_EDGE($,$,$,#1401,.T.);
#1403=ORIENTED_EDGE($,$,$,#194,.T.);
#1404=ORIENTED_EDGE($,$,$,#1379,.F.);
#1405=EDGE_LOOP($,(#1396,#1402,#1403,#1404));
#1406=FACE_OUTER_BOUND('',#1405,.T.);
#1407=ADVANCED_FACE('',(#1406),#1395,.T.);
#1408=CARTESIAN_POINT($,(-241.3,66.34226,78.105));
#1409=DIRECTION($,(1,0,0));
#1410=DIRECTION($,(0,-1,0));
#1411=AXIS2_PLACEMENT_3D($,#1408,#1409,#1410);
#1412=PLANE($,#1411);
#1413=ORIENTED_EDGE($,$,$,#100,.T.);
#1414=ORIENTED_EDGE($,$,$,#1286,.F.);
#1415=ORIENTED_EDGE($,$,$,#272,.T.);
#1416=CARTESIAN_POINT($,(-241.3,66.34226,76.2));
#1417=DIRECTION($,(0,0,1));
#1418=VECTOR($,#1417,1);
#1419=LINE($,#1416,#1418);
#1420=EDGE_CURVE($,#179,#89,#1419,.T.);
#1421=ORIENTED_EDGE($,$,$,#1420,.T.);
#1422=EDGE_LOOP($,(#1413,#1414,#1415,#1421));
#1423=FACE_OUTER_BOUND('',#1422,.T.);
#1424=ADVANCED_FACE('',(#1423),#1412,.T.);
#1425=CARTESIAN_POINT($,(-8.255,49.83226,69.85));
#1426=DIRECTION($,(1,-0,0));
#1427=DIRECTION($,(0,-0,-1));
#1428=AXIS2_PLACEMENT_3D($,#1425,#1426,#1427);
#1429=PLANE($,#1428);
#1430=ORIENTED_EDGE($,$,$,#366,.T.);
#1431=CARTESIAN_POINT($,(-8.255,49.83226,8.25746000000001));
#1432=DIRECTION($,(0,1,0));
#1433=VECTOR($,#1432,1);
#1434=LINE($,#1431,#1433);
#1435=EDGE_CURVE($,#361,#393,#1434,.T.);
#1436=ORIENTED_EDGE($,$,$,#1435,.T.);
#1437=ORIENTED_EDGE($,$,$,#406,.T.);
#1438=CARTESIAN_POINT($,(-8.255,51.73726,69.85));
#1439=DIRECTION($,(0,-1,0));
#1440=VECTOR($,#1439,1);
#1441=LINE($,#1438,#1440);
#1442=EDGE_CURVE($,#401,#353,#1441,.T.);
#1443=ORIENTED_EDGE($,$,$,#1442,.T.);
#1444=EDGE_LOOP($,(#1430,#1436,#1437,#1443));
#1445=FACE_OUTER_BOUND('',#1444,.T.);
#1446=ADVANCED_FACE('',(#1445),#1429,.T.);
#1447=CARTESIAN_POINT($,(-233.045,49.83226,8.25746000000001));
#1448=DIRECTION($,(-1,0,0));
#1449=DIRECTION($,(0,0,1));
#1450=AXIS2_PLACEMENT_3D($,#1447,#1448,#1449);
#1451=PLANE($,#1450);
#1452=ORIENTED_EDGE($,$,$,#380,.T.);
#1453=CARTESIAN_POINT($,(-233.045,49.83226,69.85));
#1454=DIRECTION($,(0,1,0));
#1455=VECTOR($,#1454,1);
#1456=LINE($,#1453,#1455);
#1457=EDGE_CURVE($,#351,#409,#1456,.T.);
#1458=ORIENTED_EDGE($,$,$,#1457,.T.);
#1459=ORIENTED_EDGE($,$,$,#420,.T.);
#1460=CARTESIAN_POINT($,(-233.045,51.73726,8.25746000000001));
#1461=DIRECTION($,(0,-1,0));
#1462=VECTOR($,#1461,1);
#1463=LINE($,#1460,#1462);
#1464=EDGE_CURVE($,#391,#369,#1463,.T.);
#1465=ORIENTED_EDGE($,$,$,#1464,.T.);
#1466=EDGE_LOOP($,(#1452,#1458,#1459,#1465));
#1467=FACE_OUTER_BOUND('',#1466,.T.);
#1468=ADVANCED_FACE('',(#1467),#1451,.T.);
#1469=CARTESIAN_POINT($,(-8.255,58.08726,78.105));
#1470=DIRECTION($,(1,0,0));
#1471=DIRECTION($,(0,-0.707106781186548,-0.707106781186547));
#1472=AXIS2_PLACEMENT_3D($,#1469,#1470,#1471);
#1473=PLANE($,#1472);
#1474=ORIENTED_EDGE($,$,$,#437,.T.);
#1475=ORIENTED_EDGE($,$,$,#1442,.F.);
#1476=ORIENTED_EDGE($,$,$,#463,.T.);
#1477=ORIENTED_EDGE($,$,$,#1308,.T.);
#1478=EDGE_LOOP($,(#1474,#1475,#1476,#1477));
#1479=FACE_OUTER_BOUND('',#1478,.T.);
#1480=ADVANCED_FACE('',(#1479),#1473,.T.);
#1481=CARTESIAN_POINT($,(-233.045,49.83226,69.85));
#1482=DIRECTION($,(-1,0,0));
#1483=DIRECTION($,(0,0.707106781186548,0.707106781186547));
#1484=AXIS2_PLACEMENT_3D($,#1481,#1482,#1483);
#1485=PLANE($,#1484);
#1486=ORIENTED_EDGE($,$,$,#446,.T.);
#1487=ORIENTED_EDGE($,$,$,#1279,.T.);
#1488=ORIENTED_EDGE($,$,$,#472,.T.);
#1489=ORIENTED_EDGE($,$,$,#1457,.F.);
#1490=EDGE_LOOP($,(#1486,#1487,#1488,#1489));
#1491=FACE_OUTER_BOUND('',#1490,.T.);
#1492=ADVANCED_FACE('',(#1491),#1485,.T.);
#1493=CARTESIAN_POINT($,(-233.045,434.64226,69.85));
#1494=DIRECTION($,(-1,-0,-0));
#1495=DIRECTION($,(0,0,-1));
#1496=AXIS2_PLACEMENT_3D($,#1493,#1494,#1495);
#1497=PLANE($,#1496);
#1498=ORIENTED_EDGE($,$,$,#498,.T.);
#1499=CARTESIAN_POINT($,(-233.045,434.64226,8.25746000000001));
#1500=DIRECTION($,(0,-1,0));
#1501=VECTOR($,#1500,1);
#1502=LINE($,#1499,#1501);
#1503=EDGE_CURVE($,#493,#525,#1502,.T.);
#1504=ORIENTED_EDGE($,$,$,#1503,.T.);
#1505=ORIENTED_EDGE($,$,$,#538,.T.);
#1506=CARTESIAN_POINT($,(-233.045,432.73726,69.85));
#1507=DIRECTION($,(0,1,0));
#1508=VECTOR($,#1507,1);
#1509=LINE($,#1506,#1508);
#1510=EDGE_CURVE($,#533,#485,#1509,.T.);
#1511=ORIENTED_EDGE($,$,$,#1510,.T.);
#1512=EDGE_LOOP($,(#1498,#1504,#1505,#1511));
#1513=FACE_OUTER_BOUND('',#1512,.T.);
#1514=ADVANCED_FACE('',(#1513),#1497,.T.);
#1515=CARTESIAN_POINT($,(-8.255,434.64226,8.25746000000001));
#1516=DIRECTION($,(1,0,-0));
#1517=DIRECTION($,(0,0,1));
#1518=AXIS2_PLACEMENT_3D($,#1515,#1516,#1517);
#1519=PLANE($,#1518);
#1520=ORIENTED_EDGE($,$,$,#512,.T.);
#1521=CARTESIAN_POINT($,(-8.255,434.64226,69.85));
#1522=DIRECTION($,(0,-1,0));
#1523=VECTOR($,#1522,1);
#1524=LINE($,#1521,#1523);
#1525=EDGE_CURVE($,#483,#541,#1524,.T.);
#1526=ORIENTED_EDGE($,$,$,#1525,.T.);
#1527=ORIENTED_EDGE($,$,$,#552,.T.);
#1528=CARTESIAN_POINT($,(-8.255,432.73726,8.25746000000001));
#1529=DIRECTION($,(0,1,0));
#1530=VECTOR($,#1529,1);
#1531=LINE($,#1528,#1530);
#1532=EDGE_CURVE($,#523,#501,#1531,.T.);
#1533=ORIENTED_EDGE($,$,$,#1532,.T.);
#1534=EDGE_LOOP($,(#1520,#1526,#1527,#1533));
#1535=FACE_OUTER_BOUND('',#1534,.T.);
#1536=ADVANCED_FACE('',(#1535),#1519,.T.);
#1537=CARTESIAN_POINT($,(-233.045,426.38726,78.105));
#1538=DIRECTION($,(-1,0,0));
#1539=DIRECTION($,(0,0.707106781186548,-0.707106781186548));
#1540=AXIS2_PLACEMENT_3D($,#1537,#1538,#1539);
#1541=PLANE($,#1540);
#1542=ORIENTED_EDGE($,$,$,#569,.T.);
#1543=ORIENTED_EDGE($,$,$,#1510,.F.);
#1544=ORIENTED_EDGE($,$,$,#595,.T.);
#1545=ORIENTED_EDGE($,$,$,#1386,.T.);
#1546=EDGE_LOOP($,(#1542,#1543,#1544,#1545));
#1547=FACE_OUTER_BOUND('',#1546,.T.);
#1548=ADVANCED_FACE('',(#1547),#1541,.T.);
#1549=CARTESIAN_POINT($,(-8.255,434.64226,69.85));
#1550=DIRECTION($,(1,0,0));
#1551=DIRECTION($,(0,-0.707106781186548,0.707106781186548));
#1552=AXIS2_PLACEMENT_3D($,#1549,#1550,#1551);
#1553=PLANE($,#1552);
#1554=ORIENTED_EDGE($,$,$,#578,.T.);
#1555=ORIENTED_EDGE($,$,$,#1362,.T.);
#1556=ORIENTED_EDGE($,$,$,#604,.T.);
#1557=ORIENTED_EDGE($,$,$,#1525,.F.);
#1558=EDGE_LOOP($,(#1554,#1555,#1556,#1557));
#1559=FACE_OUTER_BOUND('',#1558,.T.);
#1560=ADVANCED_FACE('',(#1559),#1553,.T.);
#1561=CARTESIAN_POINT($,(-247.65,66.34226,84.455));
#1562=DIRECTION($,(0,-1,0));
#1563=DIRECTION($,(0,0,1));
#1564=AXIS2_PLACEMENT_3D($,#1561,#1562,#1563);
#1565=PLANE($,#1564);
#1566=ORIENTED_EDGE($,$,$,#630,.T.);
#1567=CARTESIAN_POINT($,(-247.65,66.34226,128.905));
#1568=DIRECTION($,(-1,0,0));
#1569=VECTOR($,#1568,1);
#1570=LINE($,#1567,#1569);
#1571=EDGE_CURVE($,#625,#657,#1570,.T.);
#1572=ORIENTED_EDGE($,$,$,#1571,.T.);
#1573=ORIENTED_EDGE($,$,$,#670,.T.);
#1574=CARTESIAN_POINT($,(-249.555,66.34226,84.455));
#1575=DIRECTION($,(1,0,0));
#1576=VECTOR($,#1575,1);
#1577=LINE($,#1574,#1576);
#1578=EDGE_CURVE($,#665,#617,#1577,.T.);
#1579=ORIENTED_EDGE($,$,$,#1578,.T.);
#1580=EDGE_LOOP($,(#1566,#1572,#1573,#1579));
#1581=FACE_OUTER_BOUND('',#1580,.T.);
#1582=ADVANCED_FACE('',(#1581),#1565,.T.);
#1583=CARTESIAN_POINT($,(-247.65,66.34226,128.905));
#1584=DIRECTION($,(0,-0,1));
#1585=DIRECTION($,(0,1,0));
#1586=AXIS2_PLACEMENT_3D($,#1583,#1584,#1585);
#1587=PLANE($,#1586);
#1588=ORIENTED_EDGE($,$,$,#638,.T.);
#1589=CARTESIAN_POINT($,(-247.65,418.13226,128.905));
#1590=DIRECTION($,(-1,0,0));
#1591=VECTOR($,#1590,1);
#1592=LINE($,#1589,#1591);
#1593=EDGE_CURVE($,#633,#655,#1592,.T.);
#1594=ORIENTED_EDGE($,$,$,#1593,.T.);
#1595=ORIENTED_EDGE($,$,$,#662,.T.);
#1596=ORIENTED_EDGE($,$,$,#1571,.F.);
#1597=EDGE_LOOP($,(#1588,#1594,#1595,#1596));
#1598=FACE_OUTER_BOUND('',#1597,.T.);
#1599=ADVANCED_FACE('',(#1598),#1587,.T.);
#1600=CARTESIAN_POINT($,(-247.65,418.13226,128.905));
#1601=DIRECTION($,(0,1,0));
#1602=DIRECTION($,(0,0,-1));
#1603=AXIS2_PLACEMENT_3D($,#1600,#1601,#1602);
#1604=PLANE($,#1603);
#1605=ORIENTED_EDGE($,$,$,#644,.T.);
#1606=CARTESIAN_POINT($,(-247.65,418.13226,84.455));
#1607=DIRECTION($,(-1,0,0));
#1608=VECTOR($,#1607,1);
#1609=LINE($,#1606,#1608);
#1610=EDGE_CURVE($,#615,#673,#1609,.T.);
#1611=ORIENTED_EDGE($,$,$,#1610,.T.);
#1612=ORIENTED_EDGE($,$,$,#684,.T.);
#1613=ORIENTED_EDGE($,$,$,#1593,.F.);
#1614=EDGE_LOOP($,(#1605,#1611,#1612,#1613));
#1615=FACE_OUTER_BOUND('',#1614,.T.);
#1616=ADVANCED_FACE('',(#1615),#1604,.T.);
#1617=CARTESIAN_POINT($,(-241.3,66.34226,78.105));
#1618=DIRECTION($,(-0,-1,-0));
#1619=DIRECTION($,(-0.707106781186549,0,0.707106781186546));
#1620=AXIS2_PLACEMENT_3D($,#1617,#1618,#1619);
#1621=PLANE($,#1620);
#1622=ORIENTED_EDGE($,$,$,#701,.T.);
#1623=ORIENTED_EDGE($,$,$,#1578,.F.);
#1624=ORIENTED_EDGE($,$,$,#727,.T.);
#1625=ORIENTED_EDGE($,$,$,#1420,.T.);
#1626=EDGE_LOOP($,(#1622,#1623,#1624,#1625));
#1627=FACE_OUTER_BOUND('',#1626,.T.);
#1628=ADVANCED_FACE('',(#1627),#1621,.T.);
#1629=CARTESIAN_POINT($,(-247.65,418.13226,84.455));
#1630=DIRECTION($,(0,1,0));
#1631=DIRECTION($,(0.707106781186549,0,-0.707106781186546));
#1632=AXIS2_PLACEMENT_3D($,#1629,#1630,#1631);
#1633=PLANE($,#1632);
#1634=ORIENTED_EDGE($,$,$,#710,.T.);
#1635=ORIENTED_EDGE($,$,$,#1401,.T.);
#1636=ORIENTED_EDGE($,$,$,#736,.T.);
#1637=ORIENTED_EDGE($,$,$,#1610,.F.);
#1638=EDGE_LOOP($,(#1634,#1635,#1636,#1637));
#1639=FACE_OUTER_BOUND('',#1638,.T.);
#1640=ADVANCED_FACE('',(#1639),#1633,.T.);
#1641=CARTESIAN_POINT($,(6.35,418.13226,84.455));
#1642=DIRECTION($,(0,1,0));
#1643=DIRECTION($,(0,0,1));
#1644=AXIS2_PLACEMENT_3D($,#1641,#1642,#1643);
#1645=PLANE($,#1644);
#1646=ORIENTED_EDGE($,$,$,#762,.T.);
#1647=CARTESIAN_POINT($,(6.35,418.13226,113.56594));
#1648=DIRECTION($,(1,0,0));
#1649=VECTOR($,#1648,1);
#1650=LINE($,#1647,#1649);
#1651=EDGE_CURVE($,#757,#789,#1650,.T.);
#1652=ORIENTED_EDGE($,$,$,#1651,.T.);
#1653=ORIENTED_EDGE($,$,$,#802,.T.);
#1654=CARTESIAN_POINT($,(8.255,418.13226,84.455));
#1655=DIRECTION($,(-1,0,0));
#1656=VECTOR($,#1655,1);
#1657=LINE($,#1654,#1656);
#1658=EDGE_CURVE($,#797,#749,#1657,.T.);
#1659=ORIENTED_EDGE($,$,$,#1658,.T.);
#1660=EDGE_LOOP($,(#1646,#1652,#1653,#1659));
#1661=FACE_OUTER_BOUND('',#1660,.T.);
#1662=ADVANCED_FACE('',(#1661),#1645,.T.);
#1663=CARTESIAN_POINT($,(6.35,66.34226,113.56594));
#1664=DIRECTION($,(0,-1,-0));
#1665=DIRECTION($,(-0,0,-1));
#1666=AXIS2_PLACEMENT_3D($,#1663,#1664,#1665);
#1667=PLANE($,#1666);
#1668=ORIENTED_EDGE($,$,$,#776,.T.);
#1669=CARTESIAN_POINT($,(6.35,66.34226,84.455));
#1670=DIRECTION($,(1,0,0));
#1671=VECTOR($,#1670,1);
#1672=LINE($,#1669,#1671);
#1673=EDGE_CURVE($,#747,#805,#1672,.T.);
#1674=ORIENTED_EDGE($,$,$,#1673,.T.);
#1675=ORIENTED_EDGE($,$,$,#816,.T.);
#1676=CARTESIAN_POINT($,(8.255,66.34226,113.56594));
#1677=DIRECTION($,(-1,0,0));
#1678=VECTOR($,#1677,1);
#1679=LINE($,#1676,#1678);
#1680=EDGE_CURVE($,#787,#765,#1679,.T.);
#1681=ORIENTED_EDGE($,$,$,#1680,.T.);
#1682=EDGE_LOOP($,(#1668,#1674,#1675,#1681));
#1683=FACE_OUTER_BOUND('',#1682,.T.);
#1684=ADVANCED_FACE('',(#1683),#1667,.T.);
#1685=CARTESIAN_POINT($,(0,418.13226,78.105));
#1686=DIRECTION($,(-0,1,0));
#1687=DIRECTION($,(0.707106781186548,0,0.707106781186547));
#1688=AXIS2_PLACEMENT_3D($,#1685,#1686,#1687);
#1689=PLANE($,#1688);
#1690=ORIENTED_EDGE($,$,$,#833,.T.);
#1691=ORIENTED_EDGE($,$,$,#1658,.F.);
#1692=ORIENTED_EDGE($,$,$,#859,.T.);
#1693=ORIENTED_EDGE($,$,$,#1347,.T.);
#1694=EDGE_LOOP($,(#1690,#1691,#1692,#1693));
#1695=FACE_OUTER_BOUND('',#1694,.T.);
#1696=ADVANCED_FACE('',(#1695),#1689,.T.);
#1697=CARTESIAN_POINT($,(6.35,66.34226,84.455));
#1698=DIRECTION($,(0,-1,-0));
#1699=DIRECTION($,(-0.707106781186548,0,-0.707106781186547));
#1700=AXIS2_PLACEMENT_3D($,#1697,#1698,#1699);
#1701=PLANE($,#1700);
#1702=ORIENTED_EDGE($,$,$,#842,.T.);
#1703=ORIENTED_EDGE($,$,$,#1323,.T.);
#1704=ORIENTED_EDGE($,$,$,#868,.T.);
#1705=ORIENTED_EDGE($,$,$,#1673,.F.);
#1706=EDGE_LOOP($,(#1702,#1703,#1704,#1705));
#1707=FACE_OUTER_BOUND('',#1706,.T.);
#1708=ADVANCED_FACE('',(#1707),#1701,.T.);
#1709=CARTESIAN_POINT($,(-8.255,43.48226,1.90746000000001));
#1710=DIRECTION($,(1,0,0));
#1711=DIRECTION($,(0,-1,0));
#1712=AXIS2_PLACEMENT_3D($,#1709,#1710,#1711);
#1713=PLANE($,#1712);
#1714=ORIENTED_EDGE($,$,$,#894,.T.);
#1715=CARTESIAN_POINT($,(-8.255,12.70254,1.90746000000001));
#1716=DIRECTION($,(0,0,-1));
#1717=VECTOR($,#1716,1);
#1718=LINE($,#1715,#1717);
#1719=EDGE_CURVE($,#889,#921,#1718,.T.);
#1720=ORIENTED_EDGE($,$,$,#1719,.T.);
#1721=ORIENTED_EDGE($,$,$,#934,.T.);
#1722=CARTESIAN_POINT($,(-8.255,43.48226,0.00246000000001));
#1723=DIRECTION($,(0,0,1));
#1724=VECTOR($,#1723,1);
#1725=LINE($,#1722,#1724);
#1726=EDGE_CURVE($,#929,#881,#1725,.T.);
#1727=ORIENTED_EDGE($,$,$,#1726,.T.);
#1728=EDGE_LOOP($,(#1714,#1720,#1721,#1727));
#1729=FACE_OUTER_BOUND('',#1728,.T.);
#1730=ADVANCED_FACE('',(#1729),#1713,.T.);
#1731=CARTESIAN_POINT($,(-8.255,12.70254,1.90746000000001));
#1732=DIRECTION($,(-0,-1,-0));
#1733=DIRECTION($,(-1,0,0));
#1734=AXIS2_PLACEMENT_3D($,#1731,#1732,#1733);
#1735=PLANE($,#1734);
#1736=ORIENTED_EDGE($,$,$,#902,.T.);
#1737=CARTESIAN_POINT($,(-233.045,12.70254,1.90746000000001));
#1738=DIRECTION($,(0,0,-1));
#1739=VECTOR($,#1738,1);
#1740=LINE($,#1737,#1739);
#1741=EDGE_CURVE($,#897,#919,#1740,.T.);
#1742=ORIENTED_EDGE($,$,$,#1741,.T.);
#1743=ORIENTED_EDGE($,$,$,#926,.T.);
#1744=ORIENTED_EDGE($,$,$,#1719,.F.);
#1745=EDGE_LOOP($,(#1736,#1742,#1743,#1744));
#1746=FACE_OUTER_BOUND('',#1745,.T.);
#1747=ADVANCED_FACE('',(#1746),#1735,.T.);
#1748=CARTESIAN_POINT($,(-233.045,12.70254,1.90746000000001));
#1749=DIRECTION($,(-1,0,0));
#1750=DIRECTION($,(0,1,0));
#1751=AXIS2_PLACEMENT_3D($,#1748,#1749,#1750);
#1752=PLANE($,#1751);
#1753=ORIENTED_EDGE($,$,$,#908,.T.);
#1754=CARTESIAN_POINT($,(-233.045,43.48226,1.90746000000001));
#1755=DIRECTION($,(0,0,-1));
#1756=VECTOR($,#1755,1);
#1757=LINE($,#1754,#1756);
#1758=EDGE_CURVE($,#879,#937,#1757,.T.);
#1759=ORIENTED_EDGE($,$,$,#1758,.T.);
#1760=ORIENTED_EDGE($,$,$,#948,.T.);
#1761=ORIENTED_EDGE($,$,$,#1741,.F.);
#1762=EDGE_LOOP($,(#1753,#1759,#1760,#1761));
#1763=FACE_OUTER_BOUND('',#1762,.T.);
#1764=ADVANCED_FACE('',(#1763),#1752,.T.);
#1765=CARTESIAN_POINT($,(-8.255,49.83226,8.25746000000001));
#1766=DIRECTION($,(1,-0,0));
#1767=DIRECTION($,(0,-0.707106781186547,-0.707106781186548));
#1768=AXIS2_PLACEMENT_3D($,#1765,#1766,#1767);
#1769=PLANE($,#1768);
#1770=ORIENTED_EDGE($,$,$,#965,.T.);
#1771=ORIENTED_EDGE($,$,$,#1726,.F.);
#1772=ORIENTED_EDGE($,$,$,#991,.T.);
#1773=ORIENTED_EDGE($,$,$,#1435,.F.);
#1774=EDGE_LOOP($,(#1770,#1771,#1772,#1773));
#1775=FACE_OUTER_BOUND('',#1774,.T.);
#1776=ADVANCED_FACE('',(#1775),#1769,.T.);
#1777=CARTESIAN_POINT($,(-233.045,43.48226,1.90746000000001));
#1778=DIRECTION($,(-1,0,0));
#1779=DIRECTION($,(0,0.707106781186547,0.707106781186548));
#1780=AXIS2_PLACEMENT_3D($,#1777,#1778,#1779);
#1781=PLANE($,#1780);
#1782=ORIENTED_EDGE($,$,$,#974,.T.);
#1783=ORIENTED_EDGE($,$,$,#1464,.F.);
#1784=ORIENTED_EDGE($,$,$,#1000,.T.);
#1785=ORIENTED_EDGE($,$,$,#1758,.F.);
#1786=EDGE_LOOP($,(#1782,#1783,#1784,#1785));
#1787=FACE_OUTER_BOUND('',#1786,.T.);
#1788=ADVANCED_FACE('',(#1787),#1781,.T.);
#1789=CARTESIAN_POINT($,(-233.045,440.99226,1.90746000000001));
#1790=DIRECTION($,(-1,0,0));
#1791=DIRECTION($,(0,1,0));
#1792=AXIS2_PLACEMENT_3D($,#1789,#1790,#1791);
#1793=PLANE($,#1792);
#1794=ORIENTED_EDGE($,$,$,#1026,.T.);
#1795=CARTESIAN_POINT($,(-233.045,485.44226,1.90746000000001));
#1796=DIRECTION($,(0,0,-1));
#1797=VECTOR($,#1796,1);
#1798=LINE($,#1795,#1797);
#1799=EDGE_CURVE($,#1021,#1053,#1798,.T.);
#1800=ORIENTED_EDGE($,$,$,#1799,.T.);
#1801=ORIENTED_EDGE($,$,$,#1066,.T.);
#1802=CARTESIAN_POINT($,(-233.045,440.99226,0.00246000000001));
#1803=DIRECTION($,(0,0,1));
#1804=VECTOR($,#1803,1);
#1805=LINE($,#1802,#1804);
#1806=EDGE_CURVE($,#1061,#1013,#1805,.T.);
#1807=ORIENTED_EDGE($,$,$,#1806,.T.);
#1808=EDGE_LOOP($,(#1794,#1800,#1801,#1807));
#1809=FACE_OUTER_BOUND('',#1808,.T.);
#1810=ADVANCED_FACE('',(#1809),#1793,.T.);
#1811=CARTESIAN_POINT($,(-233.045,485.44226,1.90746000000001));
#1812=DIRECTION($,(-0,1,0));
#1813=DIRECTION($,(1,0,0));
#1814=AXIS2_PLACEMENT_3D($,#1811,#1812,#1813);
#1815=PLANE($,#1814);
#1816=ORIENTED_EDGE($,$,$,#1034,.T.);
#1817=CARTESIAN_POINT($,(-8.255,485.44226,1.90746000000001));
#1818=DIRECTION($,(0,0,-1));
#1819=VECTOR($,#1818,1);
#1820=LINE($,#1817,#1819);
#1821=EDGE_CURVE($,#1029,#1051,#1820,.T.);
#1822=ORIENTED_EDGE($,$,$,#1821,.T.);
#1823=ORIENTED_EDGE($,$,$,#1058,.T.);
#1824=ORIENTED_EDGE($,$,$,#1799,.F.);
#1825=EDGE_LOOP($,(#1816,#1822,#1823,#1824));
#1826=FACE_OUTER_BOUND('',#1825,.T.);
#1827=ADVANCED_FACE('',(#1826),#1815,.T.);
#1828=CARTESIAN_POINT($,(-8.255,485.44226,1.90746000000001));
#1829=DIRECTION($,(1,0,0));
#1830=DIRECTION($,(0,-1,0));
#1831=AXIS2_PLACEMENT_3D($,#1828,#1829,#1830);
#1832=PLANE($,#1831);
#1833=ORIENTED_EDGE($,$,$,#1040,.T.);
#1834=CARTESIAN_POINT($,(-8.255,440.99226,1.90746000000001));
#1835=DIRECTION($,(0,0,-1));
#1836=VECTOR($,#1835,1);
#1837=LINE($,#1834,#1836);
#1838=EDGE_CURVE($,#1011,#1069,#1837,.T.);
#1839=ORIENTED_EDGE($,$,$,#1838,.T.);
#1840=ORIENTED_EDGE($,$,$,#1080,.T.);
#1841=ORIENTED_EDGE($,$,$,#1821,.F.);
#1842=EDGE_LOOP($,(#1833,#1839,#1840,#1841));
#1843=FACE_OUTER_BOUND('',#1842,.T.);
#1844=ADVANCED_FACE('',(#1843),#1832,.T.);
#1845=CARTESIAN_POINT($,(-233.045,434.64226,8.25746000000001));
#1846=DIRECTION($,(-1,-0,-0));
#1847=DIRECTION($,(0,0.707106781186549,-0.707106781186546));
#1848=AXIS2_PLACEMENT_3D($,#1845,#1846,#1847);
#1849=PLANE($,#1848);
#1850=ORIENTED_EDGE($,$,$,#1097,.T.);
#1851=ORIENTED_EDGE($,$,$,#1806,.F.);
#1852=ORIENTED_EDGE($,$,$,#1123,.T.);
#1853=ORIENTED_EDGE($,$,$,#1503,.F.);
#1854=EDGE_LOOP($,(#1850,#1851,#1852,#1853));
#1855=FACE_OUTER_BOUND('',#1854,.T.);
#1856=ADVANCED_FACE('',(#1855),#1849,.T.);
#1857=CARTESIAN_POINT($,(-8.255,440.99226,1.90746000000001));
#1858=DIRECTION($,(1,0,0));
#1859=DIRECTION($,(0,-0.707106781186549,0.707106781186546));
#1860=AXIS2_PLACEMENT_3D($,#1857,#1858,#1859);
#1861=PLANE($,#1860);
#1862=ORIENTED_EDGE($,$,$,#1106,.T.);
#1863=ORIENTED_EDGE($,$,$,#1532,.F.);
#1864=ORIENTED_EDGE($,$,$,#1132,.T.);
#1865=ORIENTED_EDGE($,$,$,#1838,.F.);
#1866=EDGE_LOOP($,(#1862,#1863,#1864,#1865));
#1867=FACE_OUTER_BOUND('',#1866,.T.);
#1868=ADVANCED_FACE('',(#1867),#1861,.T.);
#1869=CARTESIAN_POINT($,(8.76783352130505,418.13226,119.403106478695));
#1870=DIRECTION($,(-0,1,0));
#1871=DIRECTION($,(0.707106781186548,0,0.707106781186548));
#1872=AXIS2_PLACEMENT_3D($,#1869,#1870,#1871);
#1873=PLANE($,#1872);
#1874=ORIENTED_EDGE($,$,$,#1158,.T.);
#1875=CARTESIAN_POINT($,(43.0724119037892,418.13226,153.707684861179));
#1876=DIRECTION($,(0.707106781186548,0,-0.707106781186548));
#1877=VECTOR($,#1876,1);
#1878=LINE($,#1875,#1877);
#1879=EDGE_CURVE($,#1153,#1185,#1878,.T.);
#1880=ORIENTED_EDGE($,$,$,#1879,.T.);
#1881=ORIENTED_EDGE($,$,$,#1198,.T.);
#1882=CARTESIAN_POINT($,(10.1148719394654,418.13226,118.056068060535));
#1883=DIRECTION($,(-0.707106781186549,0,0.707106781186546));
#1884=VECTOR($,#1883,1);
#1885=LINE($,#1882,#1884);
#1886=EDGE_CURVE($,#1193,#1145,#1885,.T.);
#1887=ORIENTED_EDGE($,$,$,#1886,.T.);
#1888=EDGE_LOOP($,(#1874,#1880,#1881,#1887));
#1889=FACE_OUTER_BOUND('',#1888,.T.);
#1890=ADVANCED_FACE('',(#1889),#1873,.T.);
#1891=CARTESIAN_POINT($,(43.0724119037892,418.13226,153.707684861179));
#1892=DIRECTION($,(0.707106781186548,0,0.707106781186548));
#1893=DIRECTION($,(0,-1,0));
#1894=AXIS2_PLACEMENT_3D($,#1891,#1892,#1893);
#1895=PLANE($,#1894);
#1896=ORIENTED_EDGE($,$,$,#1166,.T.);
#1897=CARTESIAN_POINT($,(43.0724119037892,66.34226,153.707684861179));
#1898=DIRECTION($,(0.707106781186548,0,-0.707106781186548));
#1899=VECTOR($,#1898,1);
#1900=LINE($,#1897,#1899);
#1901=EDGE_CURVE($,#1161,#1183,#1900,.T.);
#1902=ORIENTED_EDGE($,$,$,#1901,.T.);
#1903=ORIENTED_EDGE($,$,$,#1190,.T.);
#1904=ORIENTED_EDGE($,$,$,#1879,.F.);
#1905=EDGE_LOOP($,(#1896,#1902,#1903,#1904));
#1906=FACE_OUTER_BOUND('',#1905,.T.);
#1907=ADVANCED_FACE('',(#1906),#1895,.T.);
#1908=CARTESIAN_POINT($,(43.0724119037892,66.34226,153.707684861179));
#1909=DIRECTION($,(0,-1,-0));
#1910=DIRECTION($,(-0.707106781186548,0,-0.707106781186548));
#1911=AXIS2_PLACEMENT_3D($,#1908,#1909,#1910);
#1912=PLANE($,#1911);
#1913=ORIENTED_EDGE($,$,$,#1172,.T.);
#1914=CARTESIAN_POINT($,(8.76783352130505,66.34226,119.403106478695));
#1915=DIRECTION($,(0.707106781186549,0,-0.707106781186546));
#1916=VECTOR($,#1915,1);
#1917=LINE($,#1914,#1916);
#1918=EDGE_CURVE($,#1143,#1201,#1917,.T.);
#1919=ORIENTED_EDGE($,$,$,#1918,.T.);
#1920=ORIENTED_EDGE($,$,$,#1212,.T.);
#1921=ORIENTED_EDGE($,$,$,#1901,.F.);
#1922=EDGE_LOOP($,(#1913,#1919,#1920,#1921));
#1923=FACE_OUTER_BOUND('',#1922,.T.);
#1924=ADVANCED_FACE('',(#1923),#1912,.T.);
#1925=CARTESIAN_POINT($,(6.35,418.13226,113.56594));
#1926=DIRECTION($,(0,1,0));
#1927=DIRECTION($,(0.382683432365089,0,0.923879532511287));
#1928=AXIS2_PLACEMENT_3D($,#1925,#1926,#1927);
#1929=PLANE($,#1928);
#1930=ORIENTED_EDGE($,$,$,#1229,.T.);
#1931=ORIENTED_EDGE($,$,$,#1886,.F.);
#1932=ORIENTED_EDGE($,$,$,#1255,.T.);
#1933=ORIENTED_EDGE($,$,$,#1651,.F.);
#1934=EDGE_LOOP($,(#1930,#1931,#1932,#1933));
#1935=FACE_OUTER_BOUND('',#1934,.T.);
#1936=ADVANCED_FACE('',(#1935),#1929,.T.);
#1937=CARTESIAN_POINT($,(8.76783352130505,66.34226,119.403106478695));
#1938=DIRECTION($,(0,-1,-0));
#1939=DIRECTION($,(-0.382683432365089,0,-0.923879532511287));
#1940=AXIS2_PLACEMENT_3D($,#1937,#1938,#1939);
#1941=PLANE($,#1940);
#1942=ORIENTED_EDGE($,$,$,#1238,.T.);
#1943=ORIENTED_EDGE($,$,$,#1680,.F.);
#1944=ORIENTED_EDGE($,$,$,#1264,.T.);
#1945=ORIENTED_EDGE($,$,$,#1918,.F.);
#1946=EDGE_LOOP($,(#1942,#1943,#1944,#1945));
#1947=FACE_OUTER_BOUND('',#1946,.T.);
#1948=ADVANCED_FACE('',(#1947),#1941,.T.);
#1949=CARTESIAN_POINT($,(-136.0424,122.0724,78.105));
#1950=DIRECTION($,(-0,1,0));
#1951=DIRECTION($,(1,0,0));
#1952=AXIS2_PLACEMENT_3D($,#1949,#1950,#1951);
#1953=PLANE($,#1952);
#1954=ORIENTED_EDGE($,$,$,#128,.T.);
#1955=CARTESIAN_POINT($,(-116.9924,122.0724,78.105));
#1956=DIRECTION($,(0,0,-1));
#1957=VECTOR($,#1956,1);
#1958=LINE($,#1955,#1957);
#1959=EDGE_CURVE($,#115,#279,#1958,.T.);
#1960=ORIENTED_EDGE($,$,$,#1959,.T.);
#1961=ORIENTED_EDGE($,$,$,#284,.F.);
#1962=CARTESIAN_POINT($,(-136.0424,122.0724,76.2));
#1963=DIRECTION($,(0,0,1));
#1964=VECTOR($,#1963,1);
#1965=LINE($,#1962,#1964);
#1966=EDGE_CURVE($,#277,#123,#1965,.T.);
#1967=ORIENTED_EDGE($,$,$,#1966,.T.);
#1968=EDGE_LOOP($,(#1954,#1960,#1961,#1967));
#1969=FACE_OUTER_BOUND('',#1968,.T.);
#1970=ADVANCED_FACE('',(#1969),#1953,.T.);
#1971=CARTESIAN_POINT($,(-116.9924,122.0724,78.105));
#1972=DIRECTION($,(-1,0,0));
#1973=DIRECTION($,(0,1,0));
#1974=AXIS2_PLACEMENT_3D($,#1971,#1972,#1973);
#1975=PLANE($,#1974);
#1976=ORIENTED_EDGE($,$,$,#120,.T.);
#1977=CARTESIAN_POINT($,(-116.9924,210.9724,78.105));
#1978=DIRECTION($,(0,0,-1));
#1979=VECTOR($,#1978,1);
#1980=LINE($,#1977,#1979);
#1981=EDGE_CURVE($,#105,#287,#1980,.T.);
#1982=ORIENTED_EDGE($,$,$,#1981,.T.);
#1983=ORIENTED_EDGE($,$,$,#292,.F.);
#1984=ORIENTED_EDGE($,$,$,#1959,.F.);
#1985=EDGE_LOOP($,(#1976,#1982,#1983,#1984));
#1986=FACE_OUTER_BOUND('',#1985,.T.);
#1987=ADVANCED_FACE('',(#1986),#1975,.T.);
#1988=CARTESIAN_POINT($,(-116.9924,210.9724,78.105));
#1989=DIRECTION($,(-0,-1,-0));
#1990=DIRECTION($,(-1,0,0));
#1991=AXIS2_PLACEMENT_3D($,#1988,#1989,#1990);
#1992=PLANE($,#1991);
#1993=ORIENTED_EDGE($,$,$,#112,.T.);
#1994=CARTESIAN_POINT($,(-136.0424,210.9724,78.105));
#1995=DIRECTION($,(0,0,-1));
#1996=VECTOR($,#1995,1);
#1997=LINE($,#1994,#1996);
#1998=EDGE_CURVE($,#107,#295,#1997,.T.);
#1999=ORIENTED_EDGE($,$,$,#1998,.T.);
#2000=ORIENTED_EDGE($,$,$,#300,.F.);
#2001=ORIENTED_EDGE($,$,$,#1981,.F.);
#2002=EDGE_LOOP($,(#1993,#1999,#2000,#2001));
#2003=FACE_OUTER_BOUND('',#2002,.T.);
#2004=ADVANCED_FACE('',(#2003),#1992,.T.);
#2005=CARTESIAN_POINT($,(-136.0424,210.9724,78.105));
#2006=DIRECTION($,(1,0,0));
#2007=DIRECTION($,(0,-1,0));
#2008=AXIS2_PLACEMENT_3D($,#2005,#2006,#2007);
#2009=PLANE($,#2008);
#2010=ORIENTED_EDGE($,$,$,#134,.T.);
#2011=ORIENTED_EDGE($,$,$,#1966,.F.);
#2012=ORIENTED_EDGE($,$,$,#306,.F.);
#2013=ORIENTED_EDGE($,$,$,#1998,.F.);
#2014=EDGE_LOOP($,(#2010,#2011,#2012,#2013));
#2015=FACE_OUTER_BOUND('',#2014,.T.);
#2016=ADVANCED_FACE('',(#2015),#2009,.T.);
#2017=CARTESIAN_POINT($,(-199.5424,122.0724,78.105));
#2018=DIRECTION($,(-0,1,0));
#2019=DIRECTION($,(1,0,0));
#2020=AXIS2_PLACEMENT_3D($,#2017,#2018,#2019);
#2021=PLANE($,#2020);
#2022=ORIENTED_EDGE($,$,$,#162,.T.);
#2023=CARTESIAN_POINT($,(-180.4924,122.0724,78.105));
#2024=DIRECTION($,(0,0,-1));
#2025=VECTOR($,#2024,1);
#2026=LINE($,#2023,#2025);
#2027=EDGE_CURVE($,#149,#313,#2026,.T.);
#2028=ORIENTED_EDGE($,$,$,#2027,.T.);
#2029=ORIENTED_EDGE($,$,$,#318,.F.);
#2030=CARTESIAN_POINT($,(-199.5424,122.0724,76.2));
#2031=DIRECTION($,(0,0,1));
#2032=VECTOR($,#2031,1);
#2033=LINE($,#2030,#2032);
#2034=EDGE_CURVE($,#311,#157,#2033,.T.);
#2035=ORIENTED_EDGE($,$,$,#2034,.T.);
#2036=EDGE_LOOP($,(#2022,#2028,#2029,#2035));
#2037=FACE_OUTER_BOUND('',#2036,.T.);
#2038=ADVANCED_FACE('',(#2037),#2021,.T.);
#2039=CARTESIAN_POINT($,(-180.4924,122.0724,78.105));
#2040=DIRECTION($,(-1,0,0));
#2041=DIRECTION($,(0,1,0));
#2042=AXIS2_PLACEMENT_3D($,#2039,#2040,#2041);
#2043=PLANE($,#2042);
#2044=ORIENTED_EDGE($,$,$,#154,.T.);
#2045=CARTESIAN_POINT($,(-180.4924,210.9724,78.105));
#2046=DIRECTION($,(0,0,-1));
#2047=VECTOR($,#2046,1);
#2048=LINE($,#2045,#2047);
#2049=EDGE_CURVE($,#139,#321,#2048,.T.);
#2050=ORIENTED_EDGE($,$,$,#2049,.T.);
#2051=ORIENTED_EDGE($,$,$,#326,.F.);
#2052=ORIENTED_EDGE($,$,$,#2027,.F.);
#2053=EDGE_LOOP($,(#2044,#2050,#2051,#2052));
#2054=FACE_OUTER_BOUND('',#2053,.T.);
#2055=ADVANCED_FACE('',(#2054),#2043,.T.);
#2056=CARTESIAN_POINT($,(-180.4924,210.9724,78.105));
#2057=DIRECTION($,(-0,-1,-0));
#2058=DIRECTION($,(-1,0,0));
#2059=AXIS2_PLACEMENT_3D($,#2056,#2057,#2058);
#2060=PLANE($,#2059);
#2061=ORIENTED_EDGE($,$,$,#146,.T.);
#2062=CARTESIAN_POINT($,(-199.5424,210.9724,78.105));
#2063=DIRECTION($,(0,0,-1));
#2064=VECTOR($,#2063,1);
#2065=LINE($,#2062,#2064);
#2066=EDGE_CURVE($,#141,#329,#2065,.T.);
#2067=ORIENTED_EDGE($,$,$,#2066,.T.);
#2068=ORIENTED_EDGE($,$,$,#334,.F.);
#2069=ORIENTED_EDGE($,$,$,#2049,.F.);
#2070=EDGE_LOOP($,(#2061,#2067,#2068,#2069));
#2071=FACE_OUTER_BOUND('',#2070,.T.);
#2072=ADVANCED_FACE('',(#2071),#2060,.T.);
#2073=CARTESIAN_POINT($,(-199.5424,210.9724,78.105));
#2074=DIRECTION($,(1,0,0));
#2075=DIRECTION($,(0,-1,0));
#2076=AXIS2_PLACEMENT_3D($,#2073,#2074,#2075);
#2077=PLANE($,#2076);
#2078=ORIENTED_EDGE($,$,$,#168,.T.);
#2079=ORIENTED_EDGE($,$,$,#2034,.F.);
#2080=ORIENTED_EDGE($,$,$,#340,.F.);
#2081=ORIENTED_EDGE($,$,$,#2066,.F.);
#2082=EDGE_LOOP($,(#2078,#2079,#2080,#2081));
#2083=FACE_OUTER_BOUND('',#2082,.T.);
#2084=ADVANCED_FACE('',(#2083),#2077,.T.);
#2085=CLOSED_SHELL($,(#172,#344,#384,#424,#450,#476,#516,#556,#582,#608,#648,#688,#714,#740,#780,#820,#846,#872,#912,#952,#978,#1004,#1044,#1084,#1110,#1136,#1176,#1216,#1242,#1268,#1290,#1312,#1329,#1351,#1368,#1390,#1407,#1424,#1446,#1468,#1480,#1492,#1514,#1536,#1548,#1560,#1582,#1599,#1616,#1628,#1640,#1662,#1684,#1696,#1708,#1730,#1747,#1764,#1776,#1788,#1810,#1827,#1844,#1856,#1868,#1890,#1907,#1924,#1936,#1948,#1970,#1987,#2004,#2016,#2038,#2055,#2072,#2084));
#2086=MANIFOLD_SOLID_BREP('AetherisBody',#2085);
#2087=APPLICATION_CONTEXT('mechanical design');
#2088=PRODUCT_CONTEXT('',#2087,'mechanical');
#2089=PRODUCT('AETHERIS','AetherisBody','',(#2088));
#2090=PRODUCT_DEFINITION_FORMATION('','',#2089);
#2091=PRODUCT_DEFINITION_CONTEXT('design',#2087,'design');
#2092=PRODUCT_DEFINITION('','',#2090,#2091);
#2093=PRODUCT_DEFINITION_SHAPE('','',#2092);
#2094=(LENGTH_UNIT()NAMED_UNIT(*)SI_UNIT(.MILLI.,.METRE.));
#2095=(NAMED_UNIT(*)PLANE_ANGLE_UNIT()SI_UNIT($,.RADIAN.));
#2096=(NAMED_UNIT(*)SI_UNIT($,.STERADIAN.)SOLID_ANGLE_UNIT());
#2097=(GEOMETRIC_REPRESENTATION_CONTEXT(3)GLOBAL_UNIT_ASSIGNED_CONTEXT((#2094,#2095,#2096))REPRESENTATION_CONTEXT('3','3D'));
#2098=SHAPE_REPRESENTATION('AetherisBody',(#2086),#2097);
#2099=SHAPE_DEFINITION_REPRESENTATION(#2093,#2098);
ENDSEC;
END-ISO-10303-21;
