ISO-10303-21;
HEADER;
FILE_DESCRIPTION(('Aetheris AP242 subset export'),'2;1');
FILE_NAME('aetheris_export.step','1970-01-01T00:00:00',('Aetheris'),('Aetheris'),'Aetheris.Kernel','Aetheris.Kernel','');
FILE_SCHEMA(('AP242_MANAGED_MODEL_BASED_3D_ENGINEERING_MIM_LF'));
ENDSEC;
DATA;
#1=CARTESIAN_POINT($,(28.5629544196512,0,0.43));
#2=DIRECTION($,(0,0,1));
#3=DIRECTION($,(1,0,0));
#4=AXIS2_PLACEMENT_3D($,#1,#2,#3);
#5=PLANE($,#4);
#6=CARTESIAN_POINT($,(-22.6967890466351,-0.790706626643001,0.43));
#7=VERTEX_POINT($,#6);
#8=CARTESIAN_POINT($,(-22.91186007575,-1.0057776557578,0.43));
#9=VERTEX_POINT($,#8);
#10=CARTESIAN_POINT($,(-22.6967890466351,-0.790706626643001,0.43));
#11=CARTESIAN_POINT($,(-22.6967890466351,-0.90839744800498,0.43));
#12=CARTESIAN_POINT($,(-22.792003953054,-1.0057776557578,0.43));
#13=CARTESIAN_POINT($,(-22.91186007575,-1.0057776557578,0.43));
#14=B_SPLINE_CURVE_WITH_KNOTS($,3,(#10,#11,#12,#13),.UNSPECIFIED.,.F.,.F.,(4,4),(0,1),.UNSPECIFIED.);
#15=EDGE_CURVE($,#7,#9,#14,.T.);
#16=ORIENTED_EDGE($,$,$,#15,.F.);
#17=CARTESIAN_POINT($,(-22.69678904663,2.10525122072255,0.43));
#18=VERTEX_POINT($,#17);
#19=CARTESIAN_POINT($,(-22.69678904663,2.10525122072255,0.43));
#20=DIRECTION($,(0,-1,0));
#21=VECTOR($,#20,1);
#22=LINE($,#19,#21);
#23=EDGE_CURVE($,#18,#7,#22,.T.);
#24=ORIENTED_EDGE($,$,$,#23,.F.);
#25=CARTESIAN_POINT($,(-23.2511991556222,2.09393397913029,0.43));
#26=VERTEX_POINT($,#25);
#27=CARTESIAN_POINT($,(-23.2511991556222,2.09393397913029,0.43));
#28=CARTESIAN_POINT($,(-23.2390347661581,2.23383404212968,0.43));
#29=CARTESIAN_POINT($,(-22.9810532735693,2.45597664389638,0.43));
#30=CARTESIAN_POINT($,(-22.7151656731426,2.24853955382437,0.43));
#31=CARTESIAN_POINT($,(-22.696789046631,2.10525122072255,0.43));
#32=B_SPLINE_CURVE_WITH_KNOTS($,3,(#27,#28,#29,#30,#31),.UNSPECIFIED.,.F.,.F.,(4,1,4),(0,0.5,1),.UNSPECIFIED.);
#33=EDGE_CURVE($,#26,#18,#32,.T.);
#34=ORIENTED_EDGE($,$,$,#33,.F.);
#35=CARTESIAN_POINT($,(-23.25119915562,0.312074709029422,0.43));
#36=VERTEX_POINT($,#35);
#37=CARTESIAN_POINT($,(-23.25119915562,0.312074709029422,0.43));
#38=DIRECTION($,(0,1,0));
#39=VECTOR($,#38,1);
#40=LINE($,#37,#39);
#41=EDGE_CURVE($,#36,#26,#40,.T.);
#42=ORIENTED_EDGE($,$,$,#41,.F.);
#43=CARTESIAN_POINT($,(-25.0386833642589,0.244373353071,0.43));
#44=VERTEX_POINT($,#43);
#45=CARTESIAN_POINT($,(-25.0386833642589,0.244373353071,0.43));
#46=CARTESIAN_POINT($,(-25.0386833642589,-0.262399869649305,0.43));
#47=CARTESIAN_POINT($,(-24.0938557256643,-1.07137969588485,0.43));
#48=CARTESIAN_POINT($,(-23.2127420199247,-0.194879028296196,0.43));
#49=CARTESIAN_POINT($,(-23.2511991556283,0.312074709029422,0.43));
#50=B_SPLINE_CURVE_WITH_KNOTS($,3,(#45,#46,#47,#48,#49),.UNSPECIFIED.,.F.,.F.,(4,1,4),(0,0.5,1),.UNSPECIFIED.);
#51=EDGE_CURVE($,#44,#36,#50,.T.);
#52=ORIENTED_EDGE($,$,$,#51,.F.);
#53=CARTESIAN_POINT($,(-25.03868336425,5.284385640362,0.43));
#54=VERTEX_POINT($,#53);
#55=CARTESIAN_POINT($,(-25.03868336425,5.284385640362,0.43));
#56=DIRECTION($,(0,-1,0));
#57=VECTOR($,#56,1);
#58=LINE($,#55,#57);
#59=EDGE_CURVE($,#54,#44,#58,.T.);
#60=ORIENTED_EDGE($,$,$,#59,.F.);
#61=CARTESIAN_POINT($,(-24.41643717024,5.284385640362,0.43));
#62=VERTEX_POINT($,#61);
#63=CARTESIAN_POINT($,(-24.41643717024,5.284385640362,0.43));
#64=DIRECTION($,(-1,0,0));
#65=VECTOR($,#64,1);
#66=LINE($,#63,#65);
#67=EDGE_CURVE($,#62,#54,#66,.T.);
#68=ORIENTED_EDGE($,$,$,#67,.F.);
#69=CARTESIAN_POINT($,(-24.41643717024,4.02271529634,0.43));
#70=VERTEX_POINT($,#69);
#71=CARTESIAN_POINT($,(-24.41643717024,4.02271529634,0.43));
#72=DIRECTION($,(0,1,0));
#73=VECTOR($,#72,1);
#74=LINE($,#71,#73);
#75=EDGE_CURVE($,#70,#62,#74,.T.);
#76=ORIENTED_EDGE($,$,$,#75,.F.);
#77=CARTESIAN_POINT($,(-22.08592745874,4.02271529634,0.43));
#78=VERTEX_POINT($,#77);
#79=CARTESIAN_POINT($,(-22.08592745874,4.02271529634,0.43));
#80=DIRECTION($,(-1,0,0));
#81=VECTOR($,#80,1);
#82=LINE($,#79,#81);
#83=EDGE_CURVE($,#78,#70,#82,.T.);
#84=ORIENTED_EDGE($,$,$,#83,.F.);
#85=CARTESIAN_POINT($,(-22.08592745874,3.411988437517,0.43));
#86=VERTEX_POINT($,#85);
#87=CARTESIAN_POINT($,(-22.08592745874,3.411988437517,0.43));
#88=DIRECTION($,(0,1,0));
#89=VECTOR($,#88,1);
#90=LINE($,#87,#89);
#91=EDGE_CURVE($,#86,#78,#90,.T.);
#92=ORIENTED_EDGE($,$,$,#91,.F.);
#93=CARTESIAN_POINT($,(-24.41643717024,3.411988437517,0.43));
#94=VERTEX_POINT($,#93);
#95=CARTESIAN_POINT($,(-24.41643717024,3.411988437517,0.43));
#96=DIRECTION($,(1,0,0));
#97=VECTOR($,#96,1);
#98=LINE($,#95,#97);
#99=EDGE_CURVE($,#94,#86,#98,.T.);
#100=ORIENTED_EDGE($,$,$,#99,.F.);
#101=CARTESIAN_POINT($,(-24.41643717024,0.323391950621934,0.43));
#102=VERTEX_POINT($,#101);
#103=CARTESIAN_POINT($,(-24.41643717024,0.323391950621934,0.43));
#104=DIRECTION($,(0,1,0));
#105=VECTOR($,#104,1);
#106=LINE($,#103,#105);
#107=EDGE_CURVE($,#102,#94,#106,.T.);
#108=ORIENTED_EDGE($,$,$,#107,.F.);
#109=CARTESIAN_POINT($,(-23.8620944257801,0.300757467436,0.43));
#110=VERTEX_POINT($,#109);
#111=CARTESIAN_POINT($,(-23.8620944257801,0.300757467436,0.43));
#112=CARTESIAN_POINT($,(-23.8620944257801,0.145210182628104,0.43));
#113=CARTESIAN_POINT($,(-24.1563229308683,-0.107878062070404,0.43));
#114=CARTESIAN_POINT($,(-24.4294779776262,0.163966513959277,0.43));
#115=CARTESIAN_POINT($,(-24.4164371702382,0.323391950621934,0.43));
#116=B_SPLINE_CURVE_WITH_KNOTS($,3,(#111,#112,#113,#114,#115),.UNSPECIFIED.,.F.,.F.,(4,1,4),(0,0.5,1),.UNSPECIFIED.);
#117=EDGE_CURVE($,#110,#102,#116,.T.);
#118=ORIENTED_EDGE($,$,$,#117,.F.);
#119=CARTESIAN_POINT($,(-23.86209442578,2.19578915346615,0.43));
#120=VERTEX_POINT($,#119);
#121=CARTESIAN_POINT($,(-23.86209442578,2.19578915346615,0.43));
#122=DIRECTION($,(0,-1,0));
#123=VECTOR($,#122,1);
#124=LINE($,#121,#123);
#125=EDGE_CURVE($,#120,#110,#124,.T.);
#126=ORIENTED_EDGE($,$,$,#125,.F.);
#127=CARTESIAN_POINT($,(-22.0859274587413,2.1957891534671,0.43));
#128=VERTEX_POINT($,#127);
#129=CARTESIAN_POINT($,(-22.0859274587413,2.1957891534671,0.43));
#130=CARTESIAN_POINT($,(-22.1553289722001,2.63160667823813,0.43));
#131=CARTESIAN_POINT($,(-22.9741289416983,3.2749326320641,0.43));
#132=CARTESIAN_POINT($,(-23.7924569134453,2.63308866963127,0.43));
#133=CARTESIAN_POINT($,(-23.8620944257789,2.19578915346615,0.43));
#134=B_SPLINE_CURVE_WITH_KNOTS($,3,(#129,#130,#131,#132,#133),.UNSPECIFIED.,.F.,.F.,(4,1,4),(0,0.5,1),.UNSPECIFIED.);
#135=EDGE_CURVE($,#128,#120,#134,.T.);
#136=ORIENTED_EDGE($,$,$,#135,.F.);
#137=CARTESIAN_POINT($,(-22.08592745874,-0.7964326119727,0.43));
#138=VERTEX_POINT($,#137);
#139=CARTESIAN_POINT($,(-22.08592745874,-0.7964326119727,0.43));
#140=DIRECTION($,(0,1,0));
#141=VECTOR($,#140,1);
#142=LINE($,#139,#141);
#143=EDGE_CURVE($,#138,#128,#142,.T.);
#144=ORIENTED_EDGE($,$,$,#143,.F.);
#145=CARTESIAN_POINT($,(-22.911860075743,-1.6223652289774,0.43));
#146=VERTEX_POINT($,#145);
#147=CARTESIAN_POINT($,(-22.911860075743,-1.6223652289774,0.43));
#148=CARTESIAN_POINT($,(-22.4587330063918,-1.6223652289774,0.43));
#149=CARTESIAN_POINT($,(-22.0859274587453,-1.25557745227796,0.43));
#150=CARTESIAN_POINT($,(-22.0859274587453,-0.7964326119727,0.43));
#151=B_SPLINE_CURVE_WITH_KNOTS($,3,(#147,#148,#149,#150),.UNSPECIFIED.,.F.,.F.,(4,4),(0,1),.UNSPECIFIED.);
#152=EDGE_CURVE($,#146,#138,#151,.T.);
#153=ORIENTED_EDGE($,$,$,#152,.F.);
#154=CARTESIAN_POINT($,(-25.03868336425,-1.622365228977,0.43));
#155=VERTEX_POINT($,#154);
#156=CARTESIAN_POINT($,(-25.03868336425,-1.622365228977,0.43));
#157=DIRECTION($,(1,0,0));
#158=VECTOR($,#157,1);
#159=LINE($,#156,#158);
#160=EDGE_CURVE($,#155,#146,#159,.T.);
#161=ORIENTED_EDGE($,$,$,#160,.F.);
#162=CARTESIAN_POINT($,(-25.03868336425,-1.005777655758,0.43));
#163=VERTEX_POINT($,#162);
#164=CARTESIAN_POINT($,(-25.03868336425,-1.005777655758,0.43));
#165=DIRECTION($,(0,-1,0));
#166=VECTOR($,#165,1);
#167=LINE($,#164,#166);
#168=EDGE_CURVE($,#163,#155,#167,.T.);
#169=ORIENTED_EDGE($,$,$,#168,.F.);
#170=CARTESIAN_POINT($,(-22.91186007575,-1.0057776557578,0.43));
#171=DIRECTION($,(-1,0,0));
#172=VECTOR($,#171,1);
#173=LINE($,#170,#172);
#174=EDGE_CURVE($,#9,#163,#173,.T.);
#175=ORIENTED_EDGE($,$,$,#174,.F.);
#176=EDGE_LOOP($,(#16,#24,#34,#42,#52,#60,#68,#76,#84,#92,#100,#108,#118,#126,#136,#144,#153,#161,#169,#175));
#177=FACE_OUTER_BOUND('',#176,.T.);
#178=CARTESIAN_POINT($,(28.4903311621418,0,0.43));
#179=VERTEX_POINT($,#178);
#180=CARTESIAN_POINT($,(0,0,0.43));
#181=DIRECTION($,(0,0,1));
#182=DIRECTION($,(1,0,0));
#183=AXIS2_PLACEMENT_3D($,#180,#181,#182);
#184=CIRCLE($,#183,28.4903311621418);
#185=EDGE_CURVE($,#179,#179,#184,.T.);
#186=ORIENTED_EDGE($,$,$,#185,.T.);
#187=EDGE_LOOP($,(#186));
#188=FACE_BOUND('',#187,.T.);
#189=CARTESIAN_POINT($,(19.0096688378582,0,0.43));
#190=VERTEX_POINT($,#189);
#191=CARTESIAN_POINT($,(0,0,0.43));
#192=DIRECTION($,(0,0,1));
#193=DIRECTION($,(1,0,0));
#194=AXIS2_PLACEMENT_3D($,#191,#192,#193);
#195=CIRCLE($,#194,19.0096688378582);
#196=EDGE_CURVE($,#190,#190,#195,.T.);
#197=ORIENTED_EDGE($,$,$,#196,.F.);
#198=EDGE_LOOP($,(#197));
#199=FACE_BOUND('',#198,.T.);
#200=CARTESIAN_POINT($,(-25.03868336425,-2.018266591133,0.43));
#201=VERTEX_POINT($,#200);
#202=CARTESIAN_POINT($,(-22.77827822098,-2.018266591133,0.43));
#203=VERTEX_POINT($,#202);
#204=CARTESIAN_POINT($,(-25.03868336425,-2.018266591133,0.43));
#205=DIRECTION($,(1,0,0));
#206=VECTOR($,#205,1);
#207=LINE($,#204,#206);
#208=EDGE_CURVE($,#201,#203,#207,.T.);
#209=ORIENTED_EDGE($,$,$,#208,.T.);
#210=CARTESIAN_POINT($,(-22.3456566886085,-3.2511616972482,0.43));
#211=VERTEX_POINT($,#210);
#212=CARTESIAN_POINT($,(-22.77827822098,-2.018266591133,0.43));
#213=CARTESIAN_POINT($,(-22.4846481694251,-2.018266591133,0.43));
#214=CARTESIAN_POINT($,(-21.9497262801295,-2.42001140049582,0.43));
#215=CARTESIAN_POINT($,(-22.1158212060238,-3.06721420099702,0.43));
#216=CARTESIAN_POINT($,(-22.3456566886085,-3.2511616972482,0.43));
#217=B_SPLINE_CURVE_WITH_KNOTS($,3,(#212,#213,#214,#215,#216),.UNSPECIFIED.,.F.,.F.,(4,1,4),(0,0.5,1),.UNSPECIFIED.);
#218=EDGE_CURVE($,#203,#211,#217,.T.);
#219=ORIENTED_EDGE($,$,$,#218,.T.);
#220=CARTESIAN_POINT($,(-24.3711682038683,-5.11477489774685,0.43));
#221=VERTEX_POINT($,#220);
#222=CARTESIAN_POINT($,(-22.3456566886085,-3.2511616972482,0.43));
#223=DIRECTION($,(-0.7359051952605,-0.677084591161699,0));
#224=VECTOR($,#223,1);
#225=LINE($,#222,#224);
#226=EDGE_CURVE($,#211,#221,#225,.T.);
#227=ORIENTED_EDGE($,$,$,#226,.T.);
#228=CARTESIAN_POINT($,(-24.299211833566,-5.2992561851097,0.43));
#229=VERTEX_POINT($,#228);
#230=CARTESIAN_POINT($,(-24.3711682038686,-5.11477489774655,0.43));
#231=CARTESIAN_POINT($,(-24.441899395999,-5.17985257434885,0.43));
#232=CARTESIAN_POINT($,(-24.3967468882405,-5.2992561851097,0.43));
#233=CARTESIAN_POINT($,(-24.299211833566,-5.2992561851097,0.43));
#234=B_SPLINE_CURVE_WITH_KNOTS($,3,(#230,#231,#232,#233),.UNSPECIFIED.,.F.,.F.,(4,4),(0,1),.UNSPECIFIED.);
#235=EDGE_CURVE($,#221,#229,#234,.T.);
#236=ORIENTED_EDGE($,$,$,#235,.T.);
#237=CARTESIAN_POINT($,(-22.08592745874,-5.299256185109,0.43));
#238=VERTEX_POINT($,#237);
#239=CARTESIAN_POINT($,(-24.299211833566,-5.2992561851097,0.43));
#240=DIRECTION($,(1,0,0));
#241=VECTOR($,#240,1);
#242=LINE($,#239,#241);
#243=EDGE_CURVE($,#229,#238,#242,.T.);
#244=ORIENTED_EDGE($,$,$,#243,.T.);
#245=CARTESIAN_POINT($,(-22.08592745874,-5.909983043932,0.43));
#246=VERTEX_POINT($,#245);
#247=CARTESIAN_POINT($,(-22.08592745874,-5.299256185109,0.43));
#248=DIRECTION($,(0,-1,0));
#249=VECTOR($,#248,1);
#250=LINE($,#247,#249);
#251=EDGE_CURVE($,#238,#246,#250,.T.);
#252=ORIENTED_EDGE($,$,$,#251,.F.);
#253=CARTESIAN_POINT($,(-24.48003998912,-5.909983043932,0.43));
#254=VERTEX_POINT($,#253);
#255=CARTESIAN_POINT($,(-22.08592745874,-5.909983043932,0.43));
#256=DIRECTION($,(-1,0,0));
#257=VECTOR($,#256,1);
#258=LINE($,#255,#257);
#259=EDGE_CURVE($,#246,#254,#258,.T.);
#260=ORIENTED_EDGE($,$,$,#259,.F.);
#261=CARTESIAN_POINT($,(-24.9158640819338,-4.79675762556196,0.43));
#262=VERTEX_POINT($,#261);
#263=CARTESIAN_POINT($,(-24.48003998912,-5.90998304393241,0.43));
#264=CARTESIAN_POINT($,(-24.7438544809487,-5.90998304393241,0.43));
#265=CARTESIAN_POINT($,(-25.2285830827397,-5.56095680362701,0.43));
#266=CARTESIAN_POINT($,(-25.1101336404368,-4.97640371033074,0.43));
#267=CARTESIAN_POINT($,(-24.9158640819338,-4.79675762556196,0.43));
#268=B_SPLINE_CURVE_WITH_KNOTS($,3,(#263,#264,#265,#266,#267),.UNSPECIFIED.,.F.,.F.,(4,1,4),(0,0.5,1),.UNSPECIFIED.);
#269=EDGE_CURVE($,#254,#262,#268,.T.);
#270=ORIENTED_EDGE($,$,$,#269,.T.);
#271=CARTESIAN_POINT($,(-22.7307407714095,-2.7761175906665,0.43));
#272=VERTEX_POINT($,#271);
#273=CARTESIAN_POINT($,(-24.9158640819338,-4.79675762556196,0.43));
#274=DIRECTION($,(0.734199762876041,0.678933507931937,0));
#275=VECTOR($,#274,1);
#276=LINE($,#273,#275);
#277=EDGE_CURVE($,#262,#272,#276,.T.);
#278=ORIENTED_EDGE($,$,$,#277,.T.);
#279=CARTESIAN_POINT($,(-22.7929856001702,-2.63485416435243,0.43));
#280=VERTEX_POINT($,#279);
#281=CARTESIAN_POINT($,(-22.7307407714096,-2.77611759066639,0.43));
#282=CARTESIAN_POINT($,(-22.6741532786701,-2.72378967271845,0.43));
#283=CARTESIAN_POINT($,(-22.7150257376442,-2.62830899683094,0.43));
#284=CARTESIAN_POINT($,(-22.7929856001702,-2.63485416435243,0.43));
#285=B_SPLINE_CURVE_WITH_KNOTS($,3,(#281,#282,#283,#284),.UNSPECIFIED.,.F.,.F.,(4,4),(0,1),.UNSPECIFIED.);
#286=EDGE_CURVE($,#272,#280,#285,.T.);
#287=ORIENTED_EDGE($,$,$,#286,.T.);
#288=CARTESIAN_POINT($,(-25.03868336425,-2.634854164353,0.43));
#289=VERTEX_POINT($,#288);
#290=CARTESIAN_POINT($,(-22.7929856001702,-2.63485416435243,0.43));
#291=DIRECTION($,(-1,-0.000000000000254,0));
#292=VECTOR($,#291,1);
#293=LINE($,#290,#292);
#294=EDGE_CURVE($,#280,#289,#293,.T.);
#295=ORIENTED_EDGE($,$,$,#294,.F.);
#296=CARTESIAN_POINT($,(-25.03868336425,-2.634854164353,0.43));
#297=DIRECTION($,(0,1,0));
#298=VECTOR($,#297,1);
#299=LINE($,#296,#298);
#300=EDGE_CURVE($,#289,#201,#299,.T.);
#301=ORIENTED_EDGE($,$,$,#300,.T.);
#302=EDGE_LOOP($,(#209,#219,#227,#236,#244,#252,#260,#270,#278,#287,#295,#301));
#303=FACE_BOUND('',#302,.T.);
#304=ADVANCED_FACE('',(#177,#188,#199,#303),#5,.T.);
#305=CARTESIAN_POINT($,(16,0,-1.5));
#306=DIRECTION($,(0,0,-1));
#307=DIRECTION($,(-1,0,0));
#308=AXIS2_PLACEMENT_3D($,#305,#306,#307);
#309=PLANE($,#308);
#310=CARTESIAN_POINT($,(-31.5,0,-1.5));
#311=VERTEX_POINT($,#310);
#312=CARTESIAN_POINT($,(0,0,-1.5));
#313=DIRECTION($,(0,0,-1));
#314=DIRECTION($,(-1,0,0));
#315=AXIS2_PLACEMENT_3D($,#312,#313,#314);
#316=CIRCLE($,#315,31.5);
#317=EDGE_CURVE($,#311,#311,#316,.T.);
#318=ORIENTED_EDGE($,$,$,#317,.T.);
#319=EDGE_LOOP($,(#318));
#320=FACE_OUTER_BOUND('',#319,.T.);
#321=CARTESIAN_POINT($,(-16,0,-1.5));
#322=VERTEX_POINT($,#321);
#323=CARTESIAN_POINT($,(0,0,-1.5));
#324=DIRECTION($,(0,0,-1));
#325=DIRECTION($,(-1,0,0));
#326=AXIS2_PLACEMENT_3D($,#323,#324,#325);
#327=CIRCLE($,#326,16);
#328=EDGE_CURVE($,#322,#322,#327,.T.);
#329=ORIENTED_EDGE($,$,$,#328,.F.);
#330=EDGE_LOOP($,(#329));
#331=FACE_BOUND('',#330,.T.);
#332=ADVANCED_FACE('',(#320,#331),#309,.T.);
#333=CARTESIAN_POINT($,(0,0,0));
#334=DIRECTION($,(0,0,-1));
#335=DIRECTION($,(-1,0,0));
#336=AXIS2_PLACEMENT_3D($,#333,#334,#335);
#337=CYLINDRICAL_SURFACE($,#336,31.5);
#338=CARTESIAN_POINT($,(-31.5,0,0));
#339=VERTEX_POINT($,#338);
#340=CARTESIAN_POINT($,(0,0,-0));
#341=DIRECTION($,(0,0,-1));
#342=DIRECTION($,(-1,0,0));
#343=AXIS2_PLACEMENT_3D($,#340,#341,#342);
#344=CIRCLE($,#343,31.5);
#345=EDGE_CURVE($,#339,#339,#344,.T.);
#346=ORIENTED_EDGE($,$,$,#345,.T.);
#347=EDGE_LOOP($,(#346));
#348=FACE_OUTER_BOUND('',#347,.T.);
#349=ORIENTED_EDGE($,$,$,#317,.F.);
#350=EDGE_LOOP($,(#349));
#351=FACE_BOUND('',#350,.T.);
#352=ADVANCED_FACE('',(#348,#351),#337,.T.);
#353=CARTESIAN_POINT($,(0,0,0));
#354=DIRECTION($,(0,0,-1));
#355=DIRECTION($,(-1,0,0));
#356=AXIS2_PLACEMENT_3D($,#353,#354,#355);
#357=TOROIDAL_SURFACE($,#356,30,1.5);
#358=CARTESIAN_POINT($,(-28.584685464508,0,0.496874999999987));
#359=VERTEX_POINT($,#358);
#360=CARTESIAN_POINT($,(0,0,0.496874999999987));
#361=DIRECTION($,(0,0,-1));
#362=DIRECTION($,(-1,0,0));
#363=AXIS2_PLACEMENT_3D($,#360,#361,#362);
#364=CIRCLE($,#363,28.584685464508);
#365=EDGE_CURVE($,#359,#359,#364,.T.);
#366=ORIENTED_EDGE($,$,$,#365,.T.);
#367=EDGE_LOOP($,(#366));
#368=FACE_OUTER_BOUND('',#367,.T.);
#369=ORIENTED_EDGE($,$,$,#345,.F.);
#370=EDGE_LOOP($,(#369));
#371=FACE_BOUND('',#370,.T.);
#372=ADVANCED_FACE('',(#368,#371),#357,.T.);
#373=CARTESIAN_POINT($,(0,0,0));
#374=DIRECTION($,(0,0,-1));
#375=DIRECTION($,(-1,0,0));
#376=AXIS2_PLACEMENT_3D($,#373,#374,#375);
#377=TOROIDAL_SURFACE($,#376,17.5,1.5);
#378=CARTESIAN_POINT($,(-18.915314535492,0,0.496874999999997));
#379=VERTEX_POINT($,#378);
#380=CARTESIAN_POINT($,(0,0,0.496874999999997));
#381=DIRECTION($,(0,0,-1));
#382=DIRECTION($,(-1,0,0));
#383=AXIS2_PLACEMENT_3D($,#380,#381,#382);
#384=CIRCLE($,#383,18.915314535492);
#385=EDGE_CURVE($,#379,#379,#384,.T.);
#386=ORIENTED_EDGE($,$,$,#385,.F.);
#387=EDGE_LOOP($,(#386));
#388=FACE_OUTER_BOUND('',#387,.T.);
#389=CARTESIAN_POINT($,(-16,0,0.000000000000001));
#390=VERTEX_POINT($,#389);
#391=CARTESIAN_POINT($,(0,0,0.000000000000001));
#392=DIRECTION($,(0,0,-1));
#393=DIRECTION($,(-1,0,0));
#394=AXIS2_PLACEMENT_3D($,#391,#392,#393);
#395=CIRCLE($,#394,16);
#396=EDGE_CURVE($,#390,#390,#395,.T.);
#397=ORIENTED_EDGE($,$,$,#396,.T.);
#398=EDGE_LOOP($,(#397));
#399=FACE_BOUND('',#398,.T.);
#400=ADVANCED_FACE('',(#388,#399),#377,.T.);
#401=CARTESIAN_POINT($,(0,0,0));
#402=DIRECTION($,(0,0,-1));
#403=DIRECTION($,(-1,0,0));
#404=AXIS2_PLACEMENT_3D($,#401,#402,#403);
#405=CYLINDRICAL_SURFACE($,#404,16);
#406=ORIENTED_EDGE($,$,$,#328,.T.);
#407=EDGE_LOOP($,(#406));
#408=FACE_OUTER_BOUND('',#407,.T.);
#409=ORIENTED_EDGE($,$,$,#396,.F.);
#410=EDGE_LOOP($,(#409));
#411=FACE_BOUND('',#410,.T.);
#412=ADVANCED_FACE('',(#408,#411),#405,.F.);
#413=CARTESIAN_POINT($,(0,0,0.53));
#414=DIRECTION($,(0,0,-1));
#415=DIRECTION($,(-1,0,0));
#416=AXIS2_PLACEMENT_3D($,#413,#414,#415);
#417=TOROIDAL_SURFACE($,#416,28.4903311621418,0.1);
#418=ORIENTED_EDGE($,$,$,#185,.F.);
#419=EDGE_LOOP($,(#418));
#420=FACE_OUTER_BOUND('',#419,.T.);
#421=ORIENTED_EDGE($,$,$,#365,.F.);
#422=EDGE_LOOP($,(#421));
#423=FACE_BOUND('',#422,.T.);
#424=ADVANCED_FACE('',(#420,#423),#417,.F.);
#425=CARTESIAN_POINT($,(0,0,0.53));
#426=DIRECTION($,(0,0,1));
#427=DIRECTION($,(1,0,0));
#428=AXIS2_PLACEMENT_3D($,#425,#426,#427);
#429=TOROIDAL_SURFACE($,#428,19.0096688378582,0.1);
#430=ORIENTED_EDGE($,$,$,#385,.T.);
#431=EDGE_LOOP($,(#430));
#432=FACE_OUTER_BOUND('',#431,.T.);
#433=ORIENTED_EDGE($,$,$,#196,.T.);
#434=EDGE_LOOP($,(#433));
#435=FACE_BOUND('',#434,.T.);
#436=ADVANCED_FACE('',(#432,#435),#429,.F.);
#437=CARTESIAN_POINT($,(-24.299211833566,-5.299256185109,0.325));
#438=DIRECTION($,(0,-1,0));
#439=DIRECTION($,(0,0,-1));
#440=AXIS2_PLACEMENT_3D($,#437,#438,#439);
#441=PLANE($,#440);
#442=ORIENTED_EDGE($,$,$,#243,.F.);
#443=CARTESIAN_POINT($,(-24.299211833566,-5.299256185109,0.325));
#444=VERTEX_POINT($,#443);
#445=CARTESIAN_POINT($,(-24.299211833566,-5.2992561851097,0.43));
#446=DIRECTION($,(0,0.000000000006666,-1));
#447=VECTOR($,#446,1);
#448=LINE($,#445,#447);
#449=EDGE_CURVE($,#229,#444,#448,.T.);
#450=ORIENTED_EDGE($,$,$,#449,.F.);
#451=CARTESIAN_POINT($,(-22.08592745874,-5.299256185109,0.325));
#452=VERTEX_POINT($,#451);
#453=CARTESIAN_POINT($,(-22.08592745874,-5.299256185109,0.325));
#454=DIRECTION($,(-1,0,0));
#455=VECTOR($,#454,1);
#456=LINE($,#453,#455);
#457=EDGE_CURVE($,#452,#444,#456,.T.);
#458=ORIENTED_EDGE($,$,$,#457,.T.);
#459=CARTESIAN_POINT($,(-22.08592745874,-5.299256185109,0.43));
#460=DIRECTION($,(0,0,-1));
#461=VECTOR($,#460,1);
#462=LINE($,#459,#461);
#463=EDGE_CURVE($,#238,#452,#462,.T.);
#464=ORIENTED_EDGE($,$,$,#463,.T.);
#465=EDGE_LOOP($,(#442,#450,#458,#464));
#466=FACE_OUTER_BOUND('',#465,.T.);
#467=ADVANCED_FACE('',(#466),#441,.T.);
#468=CARTESIAN_POINT($,(-22.08592745874,-5.2992561851088,0.325));
#469=DIRECTION($,(-1,0,0));
#470=DIRECTION($,(0,0,1));
#471=AXIS2_PLACEMENT_3D($,#468,#469,#470);
#472=PLANE($,#471);
#473=ORIENTED_EDGE($,$,$,#251,.T.);
#474=ORIENTED_EDGE($,$,$,#463,.F.);
#475=CARTESIAN_POINT($,(-22.08592745874,-5.909983043932,0.325));
#476=VERTEX_POINT($,#475);
#477=CARTESIAN_POINT($,(-22.08592745874,-5.909983043932,0.325));
#478=DIRECTION($,(0,1,0));
#479=VECTOR($,#478,1);
#480=LINE($,#477,#479);
#481=EDGE_CURVE($,#476,#452,#480,.T.);
#482=ORIENTED_EDGE($,$,$,#481,.T.);
#483=CARTESIAN_POINT($,(-22.08592745874,-5.909983043932,0.43));
#484=DIRECTION($,(0,0,-1));
#485=VECTOR($,#484,1);
#486=LINE($,#483,#485);
#487=EDGE_CURVE($,#246,#476,#486,.T.);
#488=ORIENTED_EDGE($,$,$,#487,.T.);
#489=EDGE_LOOP($,(#473,#474,#482,#488));
#490=FACE_OUTER_BOUND('',#489,.T.);
#491=ADVANCED_FACE('',(#490),#472,.T.);
#492=CARTESIAN_POINT($,(-22.08592745874,-5.909983043932,0.325));
#493=DIRECTION($,(0,1,0));
#494=DIRECTION($,(0,0,1));
#495=AXIS2_PLACEMENT_3D($,#492,#493,#494);
#496=PLANE($,#495);
#497=ORIENTED_EDGE($,$,$,#259,.T.);
#498=ORIENTED_EDGE($,$,$,#487,.F.);
#499=CARTESIAN_POINT($,(-24.48003998912,-5.909983043932,0.325));
#500=VERTEX_POINT($,#499);
#501=CARTESIAN_POINT($,(-24.48003998912,-5.909983043932,0.325));
#502=DIRECTION($,(1,0,0));
#503=VECTOR($,#502,1);
#504=LINE($,#501,#503);
#505=EDGE_CURVE($,#500,#476,#504,.T.);
#506=ORIENTED_EDGE($,$,$,#505,.T.);
#507=CARTESIAN_POINT($,(-24.48003998912,-5.909983043932,0.43));
#508=DIRECTION($,(0,0,-1));
#509=VECTOR($,#508,1);
#510=LINE($,#507,#509);
#511=EDGE_CURVE($,#254,#500,#510,.T.);
#512=ORIENTED_EDGE($,$,$,#511,.T.);
#513=EDGE_LOOP($,(#497,#498,#506,#512));
#514=FACE_OUTER_BOUND('',#513,.T.);
#515=ADVANCED_FACE('',(#514),#496,.T.);
#516=CARTESIAN_POINT($,(-24.48003998912,-5.26805848472001,0.325));
#517=DIRECTION($,(0,0,1));
#518=DIRECTION($,(1,0,0));
#519=AXIS2_PLACEMENT_3D($,#516,#517,#518);
#520=CYLINDRICAL_SURFACE($,#519,0.6419245592124);
#521=ORIENTED_EDGE($,$,$,#269,.F.);
#522=ORIENTED_EDGE($,$,$,#511,.F.);
#523=CARTESIAN_POINT($,(-24.9158640819338,-4.796757625562,0.325));
#524=VERTEX_POINT($,#523);
#525=CARTESIAN_POINT($,(-24.48003998912,-5.26805848472001,0.325));
#526=DIRECTION($,(0,0,-1));
#527=DIRECTION($,(-0.678933507931937,0.734199762876041,0));
#528=AXIS2_PLACEMENT_3D($,#525,#526,#527);
#529=CIRCLE($,#528,0.6419245592124);
#530=EDGE_CURVE($,#524,#500,#529,.T.);
#531=ORIENTED_EDGE($,$,$,#530,.T.);
#532=CARTESIAN_POINT($,(-24.9158640819338,-4.79675762556196,0.43));
#533=DIRECTION($,(0.000000000000271,-0.000000000000288,-1));
#534=VECTOR($,#533,1);
#535=LINE($,#532,#534);
#536=EDGE_CURVE($,#262,#524,#535,.T.);
#537=ORIENTED_EDGE($,$,$,#536,.T.);
#538=EDGE_LOOP($,(#521,#522,#531,#537));
#539=FACE_OUTER_BOUND('',#538,.T.);
#540=ADVANCED_FACE('',(#539),#520,.F.);
#541=CARTESIAN_POINT($,(-24.9158640819348,-4.79675762556196,0.325));
#542=DIRECTION($,(0.678933507931938,-0.73419976287604,0));
#543=DIRECTION($,(0.73419976287604,0.678933507931938,0));
#544=AXIS2_PLACEMENT_3D($,#541,#542,#543);
#545=PLANE($,#544);
#546=ORIENTED_EDGE($,$,$,#277,.F.);
#547=ORIENTED_EDGE($,$,$,#536,.F.);
#548=CARTESIAN_POINT($,(-22.73074077141,-2.776117590666,0.325));
#549=VERTEX_POINT($,#548);
#550=CARTESIAN_POINT($,(-22.73074077141,-2.776117590666,0.325));
#551=DIRECTION($,(-0.734199762875876,-0.678933507932116,0));
#552=VECTOR($,#551,1);
#553=LINE($,#550,#552);
#554=EDGE_CURVE($,#549,#524,#553,.T.);
#555=ORIENTED_EDGE($,$,$,#554,.T.);
#556=CARTESIAN_POINT($,(-22.7307407714095,-2.7761175906665,0.43));
#557=DIRECTION($,(-0.000000000000271,0.000000000000165,-1));
#558=VECTOR($,#557,1);
#559=LINE($,#556,#558);
#560=EDGE_CURVE($,#272,#549,#559,.T.);
#561=ORIENTED_EDGE($,$,$,#560,.T.);
#562=EDGE_LOOP($,(#546,#547,#555,#561));
#563=FACE_OUTER_BOUND('',#562,.T.);
#564=ADVANCED_FACE('',(#563),#545,.T.);
#565=CARTESIAN_POINT($,(-22.78615696448,-2.716190432354,0.325));
#566=DIRECTION($,(0,0,1));
#567=DIRECTION($,(1,0,0));
#568=AXIS2_PLACEMENT_3D($,#565,#566,#567);
#569=CYLINDRICAL_SURFACE($,#568,0.0816224157803);
#570=ORIENTED_EDGE($,$,$,#286,.F.);
#571=ORIENTED_EDGE($,$,$,#560,.F.);
#572=CARTESIAN_POINT($,(-22.7929856001702,-2.63485416435243,0.325));
#573=VERTEX_POINT($,#572);
#574=CARTESIAN_POINT($,(-22.78615696448,-2.716190432354,0.325));
#575=DIRECTION($,(0,0,1));
#576=DIRECTION($,(-0.08366127888839,0.99649425006608,0));
#577=AXIS2_PLACEMENT_3D($,#574,#575,#576);
#578=CIRCLE($,#577,0.0816224157803);
#579=EDGE_CURVE($,#573,#549,#578,.T.);
#580=ORIENTED_EDGE($,$,$,#579,.T.);
#581=CARTESIAN_POINT($,(-22.7929856001702,-2.63485416435243,0.43));
#582=DIRECTION($,(0,-0.00000000000003,-1));
#583=VECTOR($,#582,1);
#584=LINE($,#581,#583);
#585=EDGE_CURVE($,#280,#573,#584,.T.);
#586=ORIENTED_EDGE($,$,$,#585,.T.);
#587=EDGE_LOOP($,(#570,#571,#580,#586));
#588=FACE_OUTER_BOUND('',#587,.T.);
#589=ADVANCED_FACE('',(#588),#569,.T.);
#590=CARTESIAN_POINT($,(-22.792985600168,-2.634854164353,0.325));
#591=DIRECTION($,(0,1,0));
#592=DIRECTION($,(0,0,1));
#593=AXIS2_PLACEMENT_3D($,#590,#591,#592);
#594=PLANE($,#593);
#595=ORIENTED_EDGE($,$,$,#294,.T.);
#596=ORIENTED_EDGE($,$,$,#585,.F.);
#597=CARTESIAN_POINT($,(-25.03868336425,-2.634854164353,0.325));
#598=VERTEX_POINT($,#597);
#599=CARTESIAN_POINT($,(-25.03868336425,-2.634854164353,0.325));
#600=DIRECTION($,(1,0.000000000000252,0));
#601=VECTOR($,#600,1);
#602=LINE($,#599,#601);
#603=EDGE_CURVE($,#598,#573,#602,.T.);
#604=ORIENTED_EDGE($,$,$,#603,.T.);
#605=CARTESIAN_POINT($,(-25.03868336425,-2.634854164353,0.43));
#606=DIRECTION($,(0,0,-1));
#607=VECTOR($,#606,1);
#608=LINE($,#605,#607);
#609=EDGE_CURVE($,#289,#598,#608,.T.);
#610=ORIENTED_EDGE($,$,$,#609,.T.);
#611=EDGE_LOOP($,(#595,#596,#604,#610));
#612=FACE_OUTER_BOUND('',#611,.T.);
#613=ADVANCED_FACE('',(#612),#594,.T.);
#614=CARTESIAN_POINT($,(-25.03868336425,-2.6348541643526,0.325));
#615=DIRECTION($,(1,0,0));
#616=DIRECTION($,(0,0,-1));
#617=AXIS2_PLACEMENT_3D($,#614,#615,#616);
#618=PLANE($,#617);
#619=ORIENTED_EDGE($,$,$,#300,.F.);
#620=ORIENTED_EDGE($,$,$,#609,.F.);
#621=CARTESIAN_POINT($,(-25.03868336425,-2.018266591133,0.325));
#622=VERTEX_POINT($,#621);
#623=CARTESIAN_POINT($,(-25.03868336425,-2.018266591133,0.325));
#624=DIRECTION($,(0,-1,0));
#625=VECTOR($,#624,1);
#626=LINE($,#623,#625);
#627=EDGE_CURVE($,#622,#598,#626,.T.);
#628=ORIENTED_EDGE($,$,$,#627,.T.);
#629=CARTESIAN_POINT($,(-25.03868336425,-2.018266591133,0.43));
#630=DIRECTION($,(0,0,-1));
#631=VECTOR($,#630,1);
#632=LINE($,#629,#631);
#633=EDGE_CURVE($,#201,#622,#632,.T.);
#634=ORIENTED_EDGE($,$,$,#633,.T.);
#635=EDGE_LOOP($,(#619,#620,#628,#634));
#636=FACE_OUTER_BOUND('',#635,.T.);
#637=ADVANCED_FACE('',(#636),#618,.T.);
#638=CARTESIAN_POINT($,(-25.038683364255,-2.018266591133,0.325));
#639=DIRECTION($,(0,-1,0));
#640=DIRECTION($,(0,0,-1));
#641=AXIS2_PLACEMENT_3D($,#638,#639,#640);
#642=PLANE($,#641);
#643=ORIENTED_EDGE($,$,$,#208,.F.);
#644=ORIENTED_EDGE($,$,$,#633,.F.);
#645=CARTESIAN_POINT($,(-22.77827822098,-2.018266591133,0.325));
#646=VERTEX_POINT($,#645);
#647=CARTESIAN_POINT($,(-22.77827822098,-2.018266591133,0.325));
#648=DIRECTION($,(-1,0,0));
#649=VECTOR($,#648,1);
#650=LINE($,#647,#649);
#651=EDGE_CURVE($,#646,#622,#650,.T.);
#652=ORIENTED_EDGE($,$,$,#651,.T.);
#653=CARTESIAN_POINT($,(-22.77827822098,-2.018266591133,0.43));
#654=DIRECTION($,(0,0,-1));
#655=VECTOR($,#654,1);
#656=LINE($,#653,#655);
#657=EDGE_CURVE($,#203,#646,#656,.T.);
#658=ORIENTED_EDGE($,$,$,#657,.T.);
#659=EDGE_LOOP($,(#643,#644,#652,#658));
#660=FACE_OUTER_BOUND('',#659,.T.);
#661=ADVANCED_FACE('',(#660),#642,.T.);
#662=CARTESIAN_POINT($,(-22.77827822098,-2.71061735337,0.325));
#663=DIRECTION($,(0,0,1));
#664=DIRECTION($,(1,0,0));
#665=AXIS2_PLACEMENT_3D($,#662,#663,#664);
#666=CYLINDRICAL_SURFACE($,#665,0.692350762237);
#667=ORIENTED_EDGE($,$,$,#218,.F.);
#668=ORIENTED_EDGE($,$,$,#657,.F.);
#669=CARTESIAN_POINT($,(-22.3456566886085,-3.25116169724818,0.325));
#670=VERTEX_POINT($,#669);
#671=CARTESIAN_POINT($,(-22.77827822098,-2.71061735337,0.325));
#672=DIRECTION($,(0,0,-1));
#673=DIRECTION($,(0.624858895184375,-0.780737703142971,0));
#674=AXIS2_PLACEMENT_3D($,#671,#672,#673);
#675=CIRCLE($,#674,0.692350762237);
#676=EDGE_CURVE($,#670,#646,#675,.T.);
#677=ORIENTED_EDGE($,$,$,#676,.T.);
#678=CARTESIAN_POINT($,(-22.3456566886085,-3.2511616972482,0.43));
#679=DIRECTION($,(-0.000000000000102,0.000000000000123,-1));
#680=VECTOR($,#679,1);
#681=LINE($,#678,#680);
#682=EDGE_CURVE($,#211,#670,#681,.T.);
#683=ORIENTED_EDGE($,$,$,#682,.T.);
#684=EDGE_LOOP($,(#667,#668,#677,#683));
#685=FACE_OUTER_BOUND('',#684,.T.);
#686=ADVANCED_FACE('',(#685),#666,.F.);
#687=CARTESIAN_POINT($,(-22.3456566886123,-3.25116169724827,0.325));
#688=DIRECTION($,(-0.6770845911617,0.7359051952605,0));
#689=DIRECTION($,(-0.7359051952605,-0.6770845911617,0));
#690=AXIS2_PLACEMENT_3D($,#687,#688,#689);
#691=PLANE($,#690);
#692=ORIENTED_EDGE($,$,$,#226,.F.);
#693=ORIENTED_EDGE($,$,$,#682,.F.);
#694=CARTESIAN_POINT($,(-24.37116820387,-5.11477489774499,0.325));
#695=VERTEX_POINT($,#694);
#696=CARTESIAN_POINT($,(-24.37116820387,-5.11477489774499,0.325));
#697=DIRECTION($,(0.735905195261116,0.677084591161029,0));
#698=VECTOR($,#697,1);
#699=LINE($,#696,#698);
#700=EDGE_CURVE($,#695,#670,#699,.T.);
#701=ORIENTED_EDGE($,$,$,#700,.T.);
#702=CARTESIAN_POINT($,(-24.3711682038683,-5.11477489774685,0.43));
#703=DIRECTION($,(-0.000000000000169,0.000000000000245,-1));
#704=VECTOR($,#703,1);
#705=LINE($,#702,#704);
#706=EDGE_CURVE($,#221,#695,#705,.T.);
#707=ORIENTED_EDGE($,$,$,#706,.T.);
#708=EDGE_LOOP($,(#692,#693,#701,#707));
#709=FACE_OUTER_BOUND('',#708,.T.);
#710=ADVANCED_FACE('',(#709),#691,.T.);
#711=CARTESIAN_POINT($,(-24.29921183357,-5.192982358712,0.325));
#712=DIRECTION($,(0,0,1));
#713=DIRECTION($,(1,0,0));
#714=AXIS2_PLACEMENT_3D($,#711,#712,#713);
#715=CYLINDRICAL_SURFACE($,#714,0.1062738263977);
#716=ORIENTED_EDGE($,$,$,#235,.F.);
#717=ORIENTED_EDGE($,$,$,#706,.F.);
#718=CARTESIAN_POINT($,(-24.29921183357,-5.192982358712,0.325));
#719=DIRECTION($,(0,0,1));
#720=DIRECTION($,(-0,-1,0));
#721=AXIS2_PLACEMENT_3D($,#718,#719,#720);
#722=CIRCLE($,#721,0.1062738263977);
#723=EDGE_CURVE($,#444,#695,#722,.T.);
#724=ORIENTED_EDGE($,$,$,#723,.T.);
#725=ORIENTED_EDGE($,$,$,#449,.T.);
#726=EDGE_LOOP($,(#716,#717,#724,#725));
#727=FACE_OUTER_BOUND('',#726,.T.);
#728=ADVANCED_FACE('',(#727),#715,.T.);
#729=CARTESIAN_POINT($,(-24.48003998912,-5.26805848472001,0.325));
#730=DIRECTION($,(0,0,-1));
#731=DIRECTION($,(-1,0,0));
#732=AXIS2_PLACEMENT_3D($,#729,#730,#731);
#733=PLANE($,#732);
#734=ORIENTED_EDGE($,$,$,#457,.F.);
#735=ORIENTED_EDGE($,$,$,#723,.F.);
#736=ORIENTED_EDGE($,$,$,#700,.F.);
#737=ORIENTED_EDGE($,$,$,#676,.F.);
#738=ORIENTED_EDGE($,$,$,#651,.F.);
#739=ORIENTED_EDGE($,$,$,#627,.F.);
#740=ORIENTED_EDGE($,$,$,#603,.F.);
#741=ORIENTED_EDGE($,$,$,#579,.F.);
#742=ORIENTED_EDGE($,$,$,#554,.F.);
#743=ORIENTED_EDGE($,$,$,#530,.F.);
#744=ORIENTED_EDGE($,$,$,#505,.F.);
#745=ORIENTED_EDGE($,$,$,#481,.F.);
#746=EDGE_LOOP($,(#734,#735,#736,#737,#738,#739,#740,#741,#742,#743,#744,#745));
#747=FACE_OUTER_BOUND('',#746,.T.);
#748=ADVANCED_FACE('',(#747),#733,.F.);
#749=CARTESIAN_POINT($,(-25.03868336425,-1.005777655758,0.325));
#750=DIRECTION($,(-1,0,0));
#751=DIRECTION($,(0,0,1));
#752=AXIS2_PLACEMENT_3D($,#749,#750,#751);
#753=PLANE($,#752);
#754=ORIENTED_EDGE($,$,$,#168,.T.);
#755=CARTESIAN_POINT($,(-25.03868336425,-1.622365228977,0.325));
#756=VERTEX_POINT($,#755);
#757=CARTESIAN_POINT($,(-25.03868336425,-1.622365228977,0.43));
#758=DIRECTION($,(0,0,-1));
#759=VECTOR($,#758,1);
#760=LINE($,#757,#759);
#761=EDGE_CURVE($,#155,#756,#760,.T.);
#762=ORIENTED_EDGE($,$,$,#761,.F.);
#763=CARTESIAN_POINT($,(-25.03868336425,-1.005777655758,0.325));
#764=VERTEX_POINT($,#763);
#765=CARTESIAN_POINT($,(-25.03868336425,-1.622365228977,0.325));
#766=DIRECTION($,(0,1,0));
#767=VECTOR($,#766,1);
#768=LINE($,#765,#767);
#769=EDGE_CURVE($,#756,#764,#768,.T.);
#770=ORIENTED_EDGE($,$,$,#769,.F.);
#771=CARTESIAN_POINT($,(-25.03868336425,-1.005777655758,0.43));
#772=DIRECTION($,(0,0,-1));
#773=VECTOR($,#772,1);
#774=LINE($,#771,#773);
#775=EDGE_CURVE($,#163,#764,#774,.T.);
#776=ORIENTED_EDGE($,$,$,#775,.T.);
#777=EDGE_LOOP($,(#754,#762,#770,#776));
#778=FACE_OUTER_BOUND('',#777,.T.);
#779=ADVANCED_FACE('',(#778),#753,.F.);
#780=CARTESIAN_POINT($,(-25.03868336425,-1.622365228977,0.325));
#781=DIRECTION($,(0,-1,0));
#782=DIRECTION($,(0,0,-1));
#783=AXIS2_PLACEMENT_3D($,#780,#781,#782);
#784=PLANE($,#783);
#785=ORIENTED_EDGE($,$,$,#160,.T.);
#786=CARTESIAN_POINT($,(-22.911860075743,-1.622365228977,0.325));
#787=VERTEX_POINT($,#786);
#788=CARTESIAN_POINT($,(-22.911860075743,-1.6223652289774,0.43));
#789=DIRECTION($,(0,0.000000000003809,-1));
#790=VECTOR($,#789,1);
#791=LINE($,#788,#790);
#792=EDGE_CURVE($,#146,#787,#791,.T.);
#793=ORIENTED_EDGE($,$,$,#792,.F.);
#794=CARTESIAN_POINT($,(-22.911860075743,-1.622365228977,0.325));
#795=DIRECTION($,(-1,0,0));
#796=VECTOR($,#795,1);
#797=LINE($,#794,#796);
#798=EDGE_CURVE($,#787,#756,#797,.T.);
#799=ORIENTED_EDGE($,$,$,#798,.F.);
#800=ORIENTED_EDGE($,$,$,#761,.T.);
#801=EDGE_LOOP($,(#785,#793,#799,#800));
#802=FACE_OUTER_BOUND('',#801,.T.);
#803=ADVANCED_FACE('',(#802),#784,.F.);
#804=CARTESIAN_POINT($,(-22.91186007575,-0.796432611972701,0.325));
#805=DIRECTION($,(0,0,1));
#806=DIRECTION($,(1,0,0));
#807=AXIS2_PLACEMENT_3D($,#804,#805,#806);
#808=CYLINDRICAL_SURFACE($,#807,0.8259326170047);
#809=ORIENTED_EDGE($,$,$,#152,.T.);
#810=CARTESIAN_POINT($,(-22.0859274587453,-0.7964326119727,0.325));
#811=VERTEX_POINT($,#810);
#812=CARTESIAN_POINT($,(-22.08592745874,-0.7964326119727,0.43));
#813=DIRECTION($,(-0.000000000050482,0,-1));
#814=VECTOR($,#813,1);
#815=LINE($,#812,#814);
#816=EDGE_CURVE($,#138,#811,#815,.T.);
#817=ORIENTED_EDGE($,$,$,#816,.F.);
#818=CARTESIAN_POINT($,(-22.91186007575,-0.796432611972701,0.325));
#819=DIRECTION($,(0,0,1));
#820=DIRECTION($,(-0,-1,0));
#821=AXIS2_PLACEMENT_3D($,#818,#819,#820);
#822=CIRCLE($,#821,0.8259326170047);
#823=EDGE_CURVE($,#811,#787,#822,.T.);
#824=ORIENTED_EDGE($,$,$,#823,.F.);
#825=ORIENTED_EDGE($,$,$,#792,.T.);
#826=EDGE_LOOP($,(#809,#817,#824,#825));
#827=FACE_OUTER_BOUND('',#826,.T.);
#828=ADVANCED_FACE('',(#827),#808,.F.);
#829=CARTESIAN_POINT($,(-22.08592745874,-0.7964326119727,0.325));
#830=DIRECTION($,(1,0,0));
#831=DIRECTION($,(0,0,-1));
#832=AXIS2_PLACEMENT_3D($,#829,#830,#831);
#833=PLANE($,#832);
#834=ORIENTED_EDGE($,$,$,#143,.T.);
#835=CARTESIAN_POINT($,(-22.08592745874,2.1957891534673,0.325));
#836=VERTEX_POINT($,#835);
#837=CARTESIAN_POINT($,(-22.0859274587413,2.1957891534671,0.43));
#838=DIRECTION($,(0.000000000012384,0.000000000001907,-1));
#839=VECTOR($,#838,1);
#840=LINE($,#837,#839);
#841=EDGE_CURVE($,#128,#836,#840,.T.);
#842=ORIENTED_EDGE($,$,$,#841,.F.);
#843=CARTESIAN_POINT($,(-22.08592745874,2.1957891534673,0.325));
#844=DIRECTION($,(-0.000000000001771,-1,0));
#845=VECTOR($,#844,1);
#846=LINE($,#843,#845);
#847=EDGE_CURVE($,#836,#811,#846,.T.);
#848=ORIENTED_EDGE($,$,$,#847,.F.);
#849=ORIENTED_EDGE($,$,$,#816,.T.);
#850=EDGE_LOOP($,(#834,#842,#848,#849));
#851=FACE_OUTER_BOUND('',#850,.T.);
#852=ADVANCED_FACE('',(#851),#833,.F.);
#853=CARTESIAN_POINT($,(-22.97401094226,2.054366805051,0.325));
#854=DIRECTION($,(0,0,1));
#855=DIRECTION($,(1,0,0));
#856=AXIS2_PLACEMENT_3D($,#853,#854,#855);
#857=CYLINDRICAL_SURFACE($,#856,0.8992733479484);
#858=ORIENTED_EDGE($,$,$,#135,.T.);
#859=CARTESIAN_POINT($,(-23.8620944257789,2.19578915346615,0.325));
#860=VERTEX_POINT($,#859);
#861=CARTESIAN_POINT($,(-23.86209442578,2.19578915346615,0.43));
#862=DIRECTION($,(0.000000000010489,0,-1));
#863=VECTOR($,#862,1);
#864=LINE($,#861,#863);
#865=EDGE_CURVE($,#120,#860,#864,.T.);
#866=ORIENTED_EDGE($,$,$,#865,.F.);
#867=CARTESIAN_POINT($,(-22.97401094226,2.054366805051,0.325));
#868=DIRECTION($,(0,0,1));
#869=DIRECTION($,(0.987556770747024,0.157262915373304,0));
#870=AXIS2_PLACEMENT_3D($,#867,#868,#869);
#871=CIRCLE($,#870,0.8992733479484);
#872=EDGE_CURVE($,#860,#836,#871,.T.);
#873=ORIENTED_EDGE($,$,$,#872,.F.);
#874=ORIENTED_EDGE($,$,$,#841,.T.);
#875=EDGE_LOOP($,(#858,#866,#873,#874));
#876=FACE_OUTER_BOUND('',#875,.T.);
#877=ADVANCED_FACE('',(#876),#857,.F.);
#878=CARTESIAN_POINT($,(-23.86209442578,2.195789153467,0.325));
#879=DIRECTION($,(-1,0,0));
#880=DIRECTION($,(0,0,1));
#881=AXIS2_PLACEMENT_3D($,#878,#879,#880);
#882=PLANE($,#881);
#883=ORIENTED_EDGE($,$,$,#125,.T.);
#884=CARTESIAN_POINT($,(-23.86209442578,0.300757467436,0.325));
#885=VERTEX_POINT($,#884);
#886=CARTESIAN_POINT($,(-23.8620944257801,0.300757467436,0.43));
#887=DIRECTION($,(0.000000000000947,0,-1));
#888=VECTOR($,#887,1);
#889=LINE($,#886,#888);
#890=EDGE_CURVE($,#110,#885,#889,.T.);
#891=ORIENTED_EDGE($,$,$,#890,.F.);
#892=CARTESIAN_POINT($,(-23.86209442578,0.300757467436,0.325));
#893=DIRECTION($,(0.000000000000581,1,0));
#894=VECTOR($,#893,1);
#895=LINE($,#892,#894);
#896=EDGE_CURVE($,#885,#860,#895,.T.);
#897=ORIENTED_EDGE($,$,$,#896,.F.);
#898=ORIENTED_EDGE($,$,$,#865,.T.);
#899=EDGE_LOOP($,(#883,#891,#897,#898));
#900=FACE_OUTER_BOUND('',#899,.T.);
#901=ADVANCED_FACE('',(#900),#882,.F.);
#902=CARTESIAN_POINT($,(-24.13972789464,0.3007574674361,0.325));
#903=DIRECTION($,(0,0,1));
#904=DIRECTION($,(1,0,0));
#905=AXIS2_PLACEMENT_3D($,#902,#903,#904);
#906=CYLINDRICAL_SURFACE($,#905,0.2776334688599);
#907=ORIENTED_EDGE($,$,$,#117,.T.);
#908=CARTESIAN_POINT($,(-24.4164371702382,0.323391950621934,0.325));
#909=VERTEX_POINT($,#908);
#910=CARTESIAN_POINT($,(-24.41643717024,0.323391950621934,0.43));
#911=DIRECTION($,(0.000000000017121,0,-1));
#912=VECTOR($,#911,1);
#913=LINE($,#910,#912);
#914=EDGE_CURVE($,#102,#909,#913,.T.);
#915=ORIENTED_EDGE($,$,$,#914,.F.);
#916=CARTESIAN_POINT($,(-24.13972789464,0.3007574674361,0.325));
#917=DIRECTION($,(0,0,-1));
#918=DIRECTION($,(1,0,0));
#919=AXIS2_PLACEMENT_3D($,#916,#917,#918);
#920=CIRCLE($,#919,0.2776334688599);
#921=EDGE_CURVE($,#909,#885,#920,.T.);
#922=ORIENTED_EDGE($,$,$,#921,.F.);
#923=ORIENTED_EDGE($,$,$,#890,.T.);
#924=EDGE_LOOP($,(#907,#915,#922,#923));
#925=FACE_OUTER_BOUND('',#924,.T.);
#926=ADVANCED_FACE('',(#925),#906,.T.);
#927=CARTESIAN_POINT($,(-24.41643717024,0.3233919506221,0.325));
#928=DIRECTION($,(1,0,0));
#929=DIRECTION($,(0,0,-1));
#930=AXIS2_PLACEMENT_3D($,#927,#928,#929);
#931=PLANE($,#930);
#932=ORIENTED_EDGE($,$,$,#107,.T.);
#933=CARTESIAN_POINT($,(-24.41643717024,3.411988437517,0.325));
#934=VERTEX_POINT($,#933);
#935=CARTESIAN_POINT($,(-24.41643717024,3.411988437517,0.43));
#936=DIRECTION($,(0,0,-1));
#937=VECTOR($,#936,1);
#938=LINE($,#935,#937);
#939=EDGE_CURVE($,#94,#934,#938,.T.);
#940=ORIENTED_EDGE($,$,$,#939,.F.);
#941=CARTESIAN_POINT($,(-24.41643717024,3.411988437517,0.325));
#942=DIRECTION($,(0.000000000000582,-1,0));
#943=VECTOR($,#942,1);
#944=LINE($,#941,#943);
#945=EDGE_CURVE($,#934,#909,#944,.T.);
#946=ORIENTED_EDGE($,$,$,#945,.F.);
#947=ORIENTED_EDGE($,$,$,#914,.T.);
#948=EDGE_LOOP($,(#932,#940,#946,#947));
#949=FACE_OUTER_BOUND('',#948,.T.);
#950=ADVANCED_FACE('',(#949),#931,.F.);
#951=CARTESIAN_POINT($,(-24.41643717024,3.411988437517,0.325));
#952=DIRECTION($,(0,-1,0));
#953=DIRECTION($,(0,0,-1));
#954=AXIS2_PLACEMENT_3D($,#951,#952,#953);
#955=PLANE($,#954);
#956=ORIENTED_EDGE($,$,$,#99,.T.);
#957=CARTESIAN_POINT($,(-22.08592745874,3.411988437517,0.325));
#958=VERTEX_POINT($,#957);
#959=CARTESIAN_POINT($,(-22.08592745874,3.411988437517,0.43));
#960=DIRECTION($,(0,0,-1));
#961=VECTOR($,#960,1);
#962=LINE($,#959,#961);
#963=EDGE_CURVE($,#86,#958,#962,.T.);
#964=ORIENTED_EDGE($,$,$,#963,.F.);
#965=CARTESIAN_POINT($,(-22.08592745874,3.411988437517,0.325));
#966=DIRECTION($,(-1,0,0));
#967=VECTOR($,#966,1);
#968=LINE($,#965,#967);
#969=EDGE_CURVE($,#958,#934,#968,.T.);
#970=ORIENTED_EDGE($,$,$,#969,.F.);
#971=ORIENTED_EDGE($,$,$,#939,.T.);
#972=EDGE_LOOP($,(#956,#964,#970,#971));
#973=FACE_OUTER_BOUND('',#972,.T.);
#974=ADVANCED_FACE('',(#973),#955,.F.);
#975=CARTESIAN_POINT($,(-22.08592745874,3.411988437517,0.325));
#976=DIRECTION($,(1,0,0));
#977=DIRECTION($,(0,0,-1));
#978=AXIS2_PLACEMENT_3D($,#975,#976,#977);
#979=PLANE($,#978);
#980=ORIENTED_EDGE($,$,$,#91,.T.);
#981=CARTESIAN_POINT($,(-22.08592745874,4.02271529634,0.325));
#982=VERTEX_POINT($,#981);
#983=CARTESIAN_POINT($,(-22.08592745874,4.02271529634,0.43));
#984=DIRECTION($,(0,0,-1));
#985=VECTOR($,#984,1);
#986=LINE($,#983,#985);
#987=EDGE_CURVE($,#78,#982,#986,.T.);
#988=ORIENTED_EDGE($,$,$,#987,.F.);
#989=CARTESIAN_POINT($,(-22.08592745874,4.02271529634,0.325));
#990=DIRECTION($,(0,-1,0));
#991=VECTOR($,#990,1);
#992=LINE($,#989,#991);
#993=EDGE_CURVE($,#982,#958,#992,.T.);
#994=ORIENTED_EDGE($,$,$,#993,.F.);
#995=ORIENTED_EDGE($,$,$,#963,.T.);
#996=EDGE_LOOP($,(#980,#988,#994,#995));
#997=FACE_OUTER_BOUND('',#996,.T.);
#998=ADVANCED_FACE('',(#997),#979,.F.);
#999=CARTESIAN_POINT($,(-22.08592745874,4.02271529634,0.325));
#1000=DIRECTION($,(0,1,0));
#1001=DIRECTION($,(0,0,1));
#1002=AXIS2_PLACEMENT_3D($,#999,#1000,#1001);
#1003=PLANE($,#1002);
#1004=ORIENTED_EDGE($,$,$,#83,.T.);
#1005=CARTESIAN_POINT($,(-24.41643717024,4.02271529634,0.325));
#1006=VERTEX_POINT($,#1005);
#1007=CARTESIAN_POINT($,(-24.41643717024,4.02271529634,0.43));
#1008=DIRECTION($,(0,0,-1));
#1009=VECTOR($,#1008,1);
#1010=LINE($,#1007,#1009);
#1011=EDGE_CURVE($,#70,#1006,#1010,.T.);
#1012=ORIENTED_EDGE($,$,$,#1011,.F.);
#1013=CARTESIAN_POINT($,(-24.41643717024,4.02271529634,0.325));
#1014=DIRECTION($,(1,0,0));
#1015=VECTOR($,#1014,1);
#1016=LINE($,#1013,#1015);
#1017=EDGE_CURVE($,#1006,#982,#1016,.T.);
#1018=ORIENTED_EDGE($,$,$,#1017,.F.);
#1019=ORIENTED_EDGE($,$,$,#987,.T.);
#1020=EDGE_LOOP($,(#1004,#1012,#1018,#1019));
#1021=FACE_OUTER_BOUND('',#1020,.T.);
#1022=ADVANCED_FACE('',(#1021),#1003,.F.);
#1023=CARTESIAN_POINT($,(-24.41643717024,4.02271529634,0.325));
#1024=DIRECTION($,(1,0,0));
#1025=DIRECTION($,(0,0,-1));
#1026=AXIS2_PLACEMENT_3D($,#1023,#1024,#1025);
#1027=PLANE($,#1026);
#1028=ORIENTED_EDGE($,$,$,#75,.T.);
#1029=CARTESIAN_POINT($,(-24.41643717024,5.284385640362,0.325));
#1030=VERTEX_POINT($,#1029);
#1031=CARTESIAN_POINT($,(-24.41643717024,5.284385640362,0.43));
#1032=DIRECTION($,(0,0,-1));
#1033=VECTOR($,#1032,1);
#1034=LINE($,#1031,#1033);
#1035=EDGE_CURVE($,#62,#1030,#1034,.T.);
#1036=ORIENTED_EDGE($,$,$,#1035,.F.);
#1037=CARTESIAN_POINT($,(-24.41643717024,5.284385640362,0.325));
#1038=DIRECTION($,(0,-1,0));
#1039=VECTOR($,#1038,1);
#1040=LINE($,#1037,#1039);
#1041=EDGE_CURVE($,#1030,#1006,#1040,.T.);
#1042=ORIENTED_EDGE($,$,$,#1041,.F.);
#1043=ORIENTED_EDGE($,$,$,#1011,.T.);
#1044=EDGE_LOOP($,(#1028,#1036,#1042,#1043));
#1045=FACE_OUTER_BOUND('',#1044,.T.);
#1046=ADVANCED_FACE('',(#1045),#1027,.F.);
#1047=CARTESIAN_POINT($,(-24.41643717024,5.284385640362,0.325));
#1048=DIRECTION($,(0,1,0));
#1049=DIRECTION($,(0,0,1));
#1050=AXIS2_PLACEMENT_3D($,#1047,#1048,#1049);
#1051=PLANE($,#1050);
#1052=ORIENTED_EDGE($,$,$,#67,.T.);
#1053=CARTESIAN_POINT($,(-25.03868336425,5.284385640362,0.325));
#1054=VERTEX_POINT($,#1053);
#1055=CARTESIAN_POINT($,(-25.03868336425,5.284385640362,0.43));
#1056=DIRECTION($,(0,0,-1));
#1057=VECTOR($,#1056,1);
#1058=LINE($,#1055,#1057);
#1059=EDGE_CURVE($,#54,#1054,#1058,.T.);
#1060=ORIENTED_EDGE($,$,$,#1059,.F.);
#1061=CARTESIAN_POINT($,(-25.03868336425,5.284385640362,0.325));
#1062=DIRECTION($,(1,0,0));
#1063=VECTOR($,#1062,1);
#1064=LINE($,#1061,#1063);
#1065=EDGE_CURVE($,#1054,#1030,#1064,.T.);
#1066=ORIENTED_EDGE($,$,$,#1065,.F.);
#1067=ORIENTED_EDGE($,$,$,#1035,.T.);
#1068=EDGE_LOOP($,(#1052,#1060,#1066,#1067));
#1069=FACE_OUTER_BOUND('',#1068,.T.);
#1070=ADVANCED_FACE('',(#1069),#1051,.F.);
#1071=CARTESIAN_POINT($,(-25.03868336425,5.284385640362,0.325));
#1072=DIRECTION($,(-1,0,0));
#1073=DIRECTION($,(0,0,1));
#1074=AXIS2_PLACEMENT_3D($,#1071,#1072,#1073);
#1075=PLANE($,#1074);
#1076=ORIENTED_EDGE($,$,$,#59,.T.);
#1077=CARTESIAN_POINT($,(-25.03868336425,0.244373353071,0.325));
#1078=VERTEX_POINT($,#1077);
#1079=CARTESIAN_POINT($,(-25.0386833642589,0.244373353071,0.43));
#1080=DIRECTION($,(0.000000000084758,0,-1));
#1081=VECTOR($,#1080,1);
#1082=LINE($,#1079,#1081);
#1083=EDGE_CURVE($,#44,#1078,#1082,.T.);
#1084=ORIENTED_EDGE($,$,$,#1083,.F.);
#1085=CARTESIAN_POINT($,(-25.03868336425,0.244373353071,0.325));
#1086=DIRECTION($,(0,1,0));
#1087=VECTOR($,#1086,1);
#1088=LINE($,#1085,#1087);
#1089=EDGE_CURVE($,#1078,#1054,#1088,.T.);
#1090=ORIENTED_EDGE($,$,$,#1089,.F.);
#1091=ORIENTED_EDGE($,$,$,#1059,.T.);
#1092=EDGE_LOOP($,(#1076,#1084,#1090,#1091));
#1093=FACE_OUTER_BOUND('',#1092,.T.);
#1094=ADVANCED_FACE('',(#1093),#1075,.F.);
#1095=CARTESIAN_POINT($,(-24.1436591581,0.244373353071,0.325));
#1096=DIRECTION($,(0,0,1));
#1097=DIRECTION($,(1,0,0));
#1098=AXIS2_PLACEMENT_3D($,#1095,#1096,#1097);
#1099=CYLINDRICAL_SURFACE($,#1098,0.8950242061589);
#1100=ORIENTED_EDGE($,$,$,#51,.T.);
#1101=CARTESIAN_POINT($,(-23.2511991556283,0.312074709029422,0.325));
#1102=VERTEX_POINT($,#1101);
#1103=CARTESIAN_POINT($,(-23.25119915562,0.312074709029422,0.43));
#1104=DIRECTION($,(-0.000000000079039,0,-1));
#1105=VECTOR($,#1104,1);
#1106=LINE($,#1103,#1105);
#1107=EDGE_CURVE($,#36,#1102,#1106,.T.);
#1108=ORIENTED_EDGE($,$,$,#1107,.F.);
#1109=CARTESIAN_POINT($,(-24.1436591581,0.244373353071,0.325));
#1110=DIRECTION($,(0,0,1));
#1111=DIRECTION($,(-1,0,0));
#1112=AXIS2_PLACEMENT_3D($,#1109,#1110,#1111);
#1113=CIRCLE($,#1112,0.8950242061589);
#1114=EDGE_CURVE($,#1102,#1078,#1113,.T.);
#1115=ORIENTED_EDGE($,$,$,#1114,.F.);
#1116=ORIENTED_EDGE($,$,$,#1083,.T.);
#1117=EDGE_LOOP($,(#1100,#1108,#1115,#1116));
#1118=FACE_OUTER_BOUND('',#1117,.T.);
#1119=ADVANCED_FACE('',(#1118),#1099,.F.);
#1120=CARTESIAN_POINT($,(-23.25119915562,0.3120747090291,0.325));
#1121=DIRECTION($,(1,0,0));
#1122=DIRECTION($,(0,0,-1));
#1123=AXIS2_PLACEMENT_3D($,#1120,#1121,#1122);
#1124=PLANE($,#1123);
#1125=ORIENTED_EDGE($,$,$,#41,.T.);
#1126=CARTESIAN_POINT($,(-23.25119915562,2.0939339791301,0.325));
#1127=VERTEX_POINT($,#1126);
#1128=CARTESIAN_POINT($,(-23.2511991556222,2.09393397913029,0.43));
#1129=DIRECTION($,(0.000000000020944,-0.00000000000181,-1));
#1130=VECTOR($,#1129,1);
#1131=LINE($,#1128,#1130);
#1132=EDGE_CURVE($,#26,#1127,#1131,.T.);
#1133=ORIENTED_EDGE($,$,$,#1132,.F.);
#1134=CARTESIAN_POINT($,(-23.25119915562,2.0939339791301,0.325));
#1135=DIRECTION($,(-0.000000000004658,-1,0));
#1136=VECTOR($,#1135,1);
#1137=LINE($,#1134,#1136);
#1138=EDGE_CURVE($,#1127,#1102,#1137,.T.);
#1139=ORIENTED_EDGE($,$,$,#1138,.F.);
#1140=ORIENTED_EDGE($,$,$,#1107,.T.);
#1141=EDGE_LOOP($,(#1125,#1133,#1139,#1140));
#1142=FACE_OUTER_BOUND('',#1141,.T.);
#1143=ADVANCED_FACE('',(#1142),#1124,.F.);
#1144=CARTESIAN_POINT($,(-22.97338549049,2.069777924096,0.325));
#1145=DIRECTION($,(0,0,1));
#1146=DIRECTION($,(1,0,0));
#1147=AXIS2_PLACEMENT_3D($,#1144,#1145,#1146);
#1148=CYLINDRICAL_SURFACE($,#1147,0.2788618789455);
#1149=ORIENTED_EDGE($,$,$,#33,.T.);
#1150=CARTESIAN_POINT($,(-22.696789046631,2.10525122072255,0.325));
#1151=VERTEX_POINT($,#1150);
#1152=CARTESIAN_POINT($,(-22.69678904663,2.10525122072255,0.43));
#1153=DIRECTION($,(-0.000000000009542,0,-1));
#1154=VECTOR($,#1153,1);
#1155=LINE($,#1152,#1154);
#1156=EDGE_CURVE($,#18,#1151,#1155,.T.);
#1157=ORIENTED_EDGE($,$,$,#1156,.F.);
#1158=CARTESIAN_POINT($,(-22.97338549049,2.069777924096,0.325));
#1159=DIRECTION($,(0,0,-1));
#1160=DIRECTION($,(-0.9962411003714,0.08662372614234,0));
#1161=AXIS2_PLACEMENT_3D($,#1158,#1159,#1160);
#1162=CIRCLE($,#1161,0.2788618789455);
#1163=EDGE_CURVE($,#1151,#1127,#1162,.T.);
#1164=ORIENTED_EDGE($,$,$,#1163,.F.);
#1165=ORIENTED_EDGE($,$,$,#1132,.T.);
#1166=EDGE_LOOP($,(#1149,#1157,#1164,#1165));
#1167=FACE_OUTER_BOUND('',#1166,.T.);
#1168=ADVANCED_FACE('',(#1167),#1148,.T.);
#1169=CARTESIAN_POINT($,(-22.69678904663,2.105251220723,0.325));
#1170=DIRECTION($,(-1,0,0));
#1171=DIRECTION($,(0,0,1));
#1172=AXIS2_PLACEMENT_3D($,#1169,#1170,#1171);
#1173=PLANE($,#1172);
#1174=ORIENTED_EDGE($,$,$,#23,.T.);
#1175=CARTESIAN_POINT($,(-22.69678904663,-0.790706626643001,0.325));
#1176=VERTEX_POINT($,#1175);
#1177=CARTESIAN_POINT($,(-22.6967890466351,-0.790706626643001,0.43));
#1178=DIRECTION($,(0.000000000048588,0,-1));
#1179=VECTOR($,#1178,1);
#1180=LINE($,#1177,#1179);
#1181=EDGE_CURVE($,#7,#1176,#1180,.T.);
#1182=ORIENTED_EDGE($,$,$,#1181,.F.);
#1183=CARTESIAN_POINT($,(-22.69678904663,-0.790706626643001,0.325));
#1184=DIRECTION($,(-0.000000000000346,1,0));
#1185=VECTOR($,#1184,1);
#1186=LINE($,#1183,#1185);
#1187=EDGE_CURVE($,#1176,#1151,#1186,.T.);
#1188=ORIENTED_EDGE($,$,$,#1187,.F.);
#1189=ORIENTED_EDGE($,$,$,#1156,.T.);
#1190=EDGE_LOOP($,(#1174,#1182,#1188,#1189));
#1191=FACE_OUTER_BOUND('',#1190,.T.);
#1192=ADVANCED_FACE('',(#1191),#1173,.F.);
#1193=CARTESIAN_POINT($,(-22.91186007575,-0.7907066266429,0.325));
#1194=DIRECTION($,(0,0,1));
#1195=DIRECTION($,(1,0,0));
#1196=AXIS2_PLACEMENT_3D($,#1193,#1194,#1195);
#1197=CYLINDRICAL_SURFACE($,#1196,0.2150710291149);
#1198=ORIENTED_EDGE($,$,$,#15,.T.);
#1199=CARTESIAN_POINT($,(-22.91186007575,-1.0057776557578,0.325));
#1200=VERTEX_POINT($,#1199);
#1201=CARTESIAN_POINT($,(-22.91186007575,-1.0057776557578,0.43));
#1202=DIRECTION($,(0,0,-1));
#1203=VECTOR($,#1202,1);
#1204=LINE($,#1201,#1203);
#1205=EDGE_CURVE($,#9,#1200,#1204,.T.);
#1206=ORIENTED_EDGE($,$,$,#1205,.F.);
#1207=CARTESIAN_POINT($,(-22.91186007575,-0.7907066266429,0.325));
#1208=DIRECTION($,(0,0,-1));
#1209=DIRECTION($,(1,0,0));
#1210=AXIS2_PLACEMENT_3D($,#1207,#1208,#1209);
#1211=CIRCLE($,#1210,0.2150710291149);
#1212=EDGE_CURVE($,#1200,#1176,#1211,.T.);
#1213=ORIENTED_EDGE($,$,$,#1212,.F.);
#1214=ORIENTED_EDGE($,$,$,#1181,.T.);
#1215=EDGE_LOOP($,(#1198,#1206,#1213,#1214));
#1216=FACE_OUTER_BOUND('',#1215,.T.);
#1217=ADVANCED_FACE('',(#1216),#1197,.T.);
#1218=CARTESIAN_POINT($,(-22.91186007575,-1.005777655758,0.325));
#1219=DIRECTION($,(0,1,0));
#1220=DIRECTION($,(0,0,1));
#1221=AXIS2_PLACEMENT_3D($,#1218,#1219,#1220);
#1222=PLANE($,#1221);
#1223=ORIENTED_EDGE($,$,$,#174,.T.);
#1224=ORIENTED_EDGE($,$,$,#775,.F.);
#1225=CARTESIAN_POINT($,(-25.03868336425,-1.005777655758,0.325));
#1226=DIRECTION($,(1,0.000000000000094,0));
#1227=VECTOR($,#1226,1);
#1228=LINE($,#1225,#1227);
#1229=EDGE_CURVE($,#764,#1200,#1228,.T.);
#1230=ORIENTED_EDGE($,$,$,#1229,.F.);
#1231=ORIENTED_EDGE($,$,$,#1205,.T.);
#1232=EDGE_LOOP($,(#1223,#1224,#1230,#1231));
#1233=FACE_OUTER_BOUND('',#1232,.T.);
#1234=ADVANCED_FACE('',(#1233),#1222,.F.);
#1235=CARTESIAN_POINT($,(-22.91186007575,-0.796432611972701,0.325));
#1236=DIRECTION($,(0,0,1));
#1237=DIRECTION($,(1,0,0));
#1238=AXIS2_PLACEMENT_3D($,#1235,#1236,#1237);
#1239=PLANE($,#1238);
#1240=ORIENTED_EDGE($,$,$,#769,.T.);
#1241=ORIENTED_EDGE($,$,$,#798,.T.);
#1242=ORIENTED_EDGE($,$,$,#823,.T.);
#1243=ORIENTED_EDGE($,$,$,#847,.T.);
#1244=ORIENTED_EDGE($,$,$,#872,.T.);
#1245=ORIENTED_EDGE($,$,$,#896,.T.);
#1246=ORIENTED_EDGE($,$,$,#921,.T.);
#1247=ORIENTED_EDGE($,$,$,#945,.T.);
#1248=ORIENTED_EDGE($,$,$,#969,.T.);
#1249=ORIENTED_EDGE($,$,$,#993,.T.);
#1250=ORIENTED_EDGE($,$,$,#1017,.T.);
#1251=ORIENTED_EDGE($,$,$,#1041,.T.);
#1252=ORIENTED_EDGE($,$,$,#1065,.T.);
#1253=ORIENTED_EDGE($,$,$,#1089,.T.);
#1254=ORIENTED_EDGE($,$,$,#1114,.T.);
#1255=ORIENTED_EDGE($,$,$,#1138,.T.);
#1256=ORIENTED_EDGE($,$,$,#1163,.T.);
#1257=ORIENTED_EDGE($,$,$,#1187,.T.);
#1258=ORIENTED_EDGE($,$,$,#1212,.T.);
#1259=ORIENTED_EDGE($,$,$,#1229,.T.);
#1260=EDGE_LOOP($,(#1240,#1241,#1242,#1243,#1244,#1245,#1246,#1247,#1248,#1249,#1250,#1251,#1252,#1253,#1254,#1255,#1256,#1257,#1258,#1259));
#1261=FACE_OUTER_BOUND('',#1260,.T.);
#1262=ADVANCED_FACE('',(#1261),#1239,.T.);
#1263=CLOSED_SHELL($,(#304,#332,#352,#372,#400,#412,#424,#436,#467,#491,#515,#540,#564,#589,#613,#637,#661,#686,#710,#728,#748,#779,#803,#828,#852,#877,#901,#926,#950,#974,#998,#1022,#1046,#1070,#1094,#1119,#1143,#1168,#1192,#1217,#1234,#1262));
#1264=MANIFOLD_SOLID_BREP('ftc11',#1263);
#1265=APPLICATION_CONTEXT('mechanical design');
#1266=PRODUCT_CONTEXT('',#1265,'mechanical');
#1267=PRODUCT('AETHERIS','ftc11','',(#1266));
#1268=PRODUCT_DEFINITION_FORMATION('','',#1267);
#1269=PRODUCT_DEFINITION_CONTEXT('design',#1265,'design');
#1270=PRODUCT_DEFINITION('','',#1268,#1269);
#1271=PRODUCT_DEFINITION_SHAPE('','',#1270);
#1272=(LENGTH_UNIT()NAMED_UNIT(*)SI_UNIT(.MILLI.,.METRE.));
#1273=(NAMED_UNIT(*)PLANE_ANGLE_UNIT()SI_UNIT($,.RADIAN.));
#1274=(NAMED_UNIT(*)SI_UNIT($,.STERADIAN.)SOLID_ANGLE_UNIT());
#1275=(GEOMETRIC_REPRESENTATION_CONTEXT(3)GLOBAL_UNIT_ASSIGNED_CONTEXT((#1272,#1273,#1274))REPRESENTATION_CONTEXT('3','3D'));
#1276=SHAPE_ASPECT('firmament-feature:ftc11.demoInnerDiameter','supported cylinder through-hole feature',#1271,.FALSE.);
#1277=PROPERTY_DEFINITION('diameter:ftc11.demoInnerDiameter','auto-derived semantic PMI diameter',#1276);
#1278=MEASURE_REPRESENTATION_ITEM('diameter',32.2,#1272);
#1279=SHAPE_DIMENSION_REPRESENTATION('diameter:ftc11.demoInnerDiameter',(#1278),#1275);
#1280=PROPERTY_DEFINITION_REPRESENTATION(#1277,#1279);
#1281=SHAPE_REPRESENTATION('ftc11',(#1264),#1275);
#1282=SHAPE_DEFINITION_REPRESENTATION(#1271,#1281);
ENDSEC;
END-ISO-10303-21;
