ISO-10303-21;
HEADER;
FILE_DESCRIPTION(('Aetheris AP242 assembly product structure'),'2;1');
FILE_NAME('aetheris_assembly.step','1970-01-01T00:00:00',('Aetheris'),('Aetheris'),'Aetheris.Kernel','Aetheris.Kernel','');
FILE_SCHEMA(('AP242_MANAGED_MODEL_BASED_3D_ENGINEERING_MIM_LF'));
ENDSEC;
DATA;
#1=CARTESIAN_POINT($,(0,0,0));
#2=DIRECTION($,(0,0,-1));
#3=DIRECTION($,(1,0,0));
#4=AXIS2_PLACEMENT_3D($,#1,#2,#3);
#5=PLANE($,#4);
#6=CARTESIAN_POINT($,(-6,-6,-0));
#7=VERTEX_POINT($,#6);
#8=CARTESIAN_POINT($,(6,-6,-0));
#9=VERTEX_POINT($,#8);
#10=CARTESIAN_POINT($,(-6,-6,-0));
#11=DIRECTION($,(1,0,0));
#12=VECTOR($,#11,1);
#13=LINE($,#10,#12);
#14=EDGE_CURVE($,#7,#9,#13,.T.);
#15=ORIENTED_EDGE($,$,$,#14,.T.);
#16=CARTESIAN_POINT($,(6,6,-0));
#17=VERTEX_POINT($,#16);
#18=CARTESIAN_POINT($,(6,-6,-0));
#19=DIRECTION($,(0,1,0));
#20=VECTOR($,#19,1);
#21=LINE($,#18,#20);
#22=EDGE_CURVE($,#9,#17,#21,.T.);
#23=ORIENTED_EDGE($,$,$,#22,.T.);
#24=CARTESIAN_POINT($,(-6,6,-0));
#25=VERTEX_POINT($,#24);
#26=CARTESIAN_POINT($,(6,6,-0));
#27=DIRECTION($,(-1,0,0));
#28=VECTOR($,#27,1);
#29=LINE($,#26,#28);
#30=EDGE_CURVE($,#17,#25,#29,.T.);
#31=ORIENTED_EDGE($,$,$,#30,.T.);
#32=CARTESIAN_POINT($,(-6,6,-0));
#33=DIRECTION($,(0,-1,0));
#34=VECTOR($,#33,1);
#35=LINE($,#32,#34);
#36=EDGE_CURVE($,#25,#7,#35,.T.);
#37=ORIENTED_EDGE($,$,$,#36,.T.);
#38=EDGE_LOOP($,(#15,#23,#31,#37));
#39=FACE_OUTER_BOUND('',#38,.T.);
#40=ADVANCED_FACE('',(#39),#5,.T.);
#41=CARTESIAN_POINT($,(0,0,8));
#42=DIRECTION($,(0,0,1));
#43=DIRECTION($,(1,0,0));
#44=AXIS2_PLACEMENT_3D($,#41,#42,#43);
#45=PLANE($,#44);
#46=CARTESIAN_POINT($,(-5,5,8));
#47=VERTEX_POINT($,#46);
#48=CARTESIAN_POINT($,(-5,-5,8));
#49=VERTEX_POINT($,#48);
#50=CARTESIAN_POINT($,(-5,5,8));
#51=DIRECTION($,(0,-1,0));
#52=VECTOR($,#51,1);
#53=LINE($,#50,#52);
#54=EDGE_CURVE($,#47,#49,#53,.T.);
#55=ORIENTED_EDGE($,$,$,#54,.F.);
#56=CARTESIAN_POINT($,(5,5,8));
#57=VERTEX_POINT($,#56);
#58=CARTESIAN_POINT($,(5,5,8));
#59=DIRECTION($,(-1,0,0));
#60=VECTOR($,#59,1);
#61=LINE($,#58,#60);
#62=EDGE_CURVE($,#57,#47,#61,.T.);
#63=ORIENTED_EDGE($,$,$,#62,.F.);
#64=CARTESIAN_POINT($,(5,-5,8));
#65=VERTEX_POINT($,#64);
#66=CARTESIAN_POINT($,(5,-5,8));
#67=DIRECTION($,(0,1,0));
#68=VECTOR($,#67,1);
#69=LINE($,#66,#68);
#70=EDGE_CURVE($,#65,#57,#69,.T.);
#71=ORIENTED_EDGE($,$,$,#70,.F.);
#72=CARTESIAN_POINT($,(-5,-5,8));
#73=DIRECTION($,(1,0,0));
#74=VECTOR($,#73,1);
#75=LINE($,#72,#74);
#76=EDGE_CURVE($,#49,#65,#75,.T.);
#77=ORIENTED_EDGE($,$,$,#76,.F.);
#78=EDGE_LOOP($,(#55,#63,#71,#77));
#79=FACE_OUTER_BOUND('',#78,.T.);
#80=ADVANCED_FACE('',(#79),#45,.T.);
#81=CARTESIAN_POINT($,(-6,-6,0));
#82=DIRECTION($,(0,-1,0));
#83=DIRECTION($,(1,0,0));
#84=AXIS2_PLACEMENT_3D($,#81,#82,#83);
#85=PLANE($,#84);
#86=ORIENTED_EDGE($,$,$,#14,.T.);
#87=CARTESIAN_POINT($,(6,-6,7));
#88=VERTEX_POINT($,#87);
#89=CARTESIAN_POINT($,(6,-6,-0));
#90=DIRECTION($,(0,0,1));
#91=VECTOR($,#90,1);
#92=LINE($,#89,#91);
#93=EDGE_CURVE($,#9,#88,#92,.T.);
#94=ORIENTED_EDGE($,$,$,#93,.T.);
#95=CARTESIAN_POINT($,(-6,-6,7));
#96=VERTEX_POINT($,#95);
#97=CARTESIAN_POINT($,(-6,-6,7));
#98=DIRECTION($,(1,0,0));
#99=VECTOR($,#98,1);
#100=LINE($,#97,#99);
#101=EDGE_CURVE($,#96,#88,#100,.T.);
#102=ORIENTED_EDGE($,$,$,#101,.F.);
#103=CARTESIAN_POINT($,(-6,-6,-0));
#104=DIRECTION($,(0,0,1));
#105=VECTOR($,#104,1);
#106=LINE($,#103,#105);
#107=EDGE_CURVE($,#7,#96,#106,.T.);
#108=ORIENTED_EDGE($,$,$,#107,.F.);
#109=EDGE_LOOP($,(#86,#94,#102,#108));
#110=FACE_OUTER_BOUND('',#109,.T.);
#111=ADVANCED_FACE('',(#110),#85,.T.);
#112=CARTESIAN_POINT($,(6,-6,0));
#113=DIRECTION($,(1,0,0));
#114=DIRECTION($,(0,1,0));
#115=AXIS2_PLACEMENT_3D($,#112,#113,#114);
#116=PLANE($,#115);
#117=ORIENTED_EDGE($,$,$,#22,.T.);
#118=CARTESIAN_POINT($,(6,6,7));
#119=VERTEX_POINT($,#118);
#120=CARTESIAN_POINT($,(6,6,-0));
#121=DIRECTION($,(0,0,1));
#122=VECTOR($,#121,1);
#123=LINE($,#120,#122);
#124=EDGE_CURVE($,#17,#119,#123,.T.);
#125=ORIENTED_EDGE($,$,$,#124,.T.);
#126=CARTESIAN_POINT($,(6,-6,7));
#127=DIRECTION($,(0,1,0));
#128=VECTOR($,#127,1);
#129=LINE($,#126,#128);
#130=EDGE_CURVE($,#88,#119,#129,.T.);
#131=ORIENTED_EDGE($,$,$,#130,.F.);
#132=ORIENTED_EDGE($,$,$,#93,.F.);
#133=EDGE_LOOP($,(#117,#125,#131,#132));
#134=FACE_OUTER_BOUND('',#133,.T.);
#135=ADVANCED_FACE('',(#134),#116,.T.);
#136=CARTESIAN_POINT($,(6,6,0));
#137=DIRECTION($,(0,1,-0));
#138=DIRECTION($,(-1,0,0));
#139=AXIS2_PLACEMENT_3D($,#136,#137,#138);
#140=PLANE($,#139);
#141=ORIENTED_EDGE($,$,$,#30,.T.);
#142=CARTESIAN_POINT($,(-6,6,7));
#143=VERTEX_POINT($,#142);
#144=CARTESIAN_POINT($,(-6,6,-0));
#145=DIRECTION($,(0,0,1));
#146=VECTOR($,#145,1);
#147=LINE($,#144,#146);
#148=EDGE_CURVE($,#25,#143,#147,.T.);
#149=ORIENTED_EDGE($,$,$,#148,.T.);
#150=CARTESIAN_POINT($,(6,6,7));
#151=DIRECTION($,(-1,0,0));
#152=VECTOR($,#151,1);
#153=LINE($,#150,#152);
#154=EDGE_CURVE($,#119,#143,#153,.T.);
#155=ORIENTED_EDGE($,$,$,#154,.F.);
#156=ORIENTED_EDGE($,$,$,#124,.F.);
#157=EDGE_LOOP($,(#141,#149,#155,#156));
#158=FACE_OUTER_BOUND('',#157,.T.);
#159=ADVANCED_FACE('',(#158),#140,.T.);
#160=CARTESIAN_POINT($,(-6,6,0));
#161=DIRECTION($,(-1,0,0));
#162=DIRECTION($,(0,-1,0));
#163=AXIS2_PLACEMENT_3D($,#160,#161,#162);
#164=PLANE($,#163);
#165=ORIENTED_EDGE($,$,$,#36,.T.);
#166=ORIENTED_EDGE($,$,$,#107,.T.);
#167=CARTESIAN_POINT($,(-6,6,7));
#168=DIRECTION($,(0,-1,0));
#169=VECTOR($,#168,1);
#170=LINE($,#167,#169);
#171=EDGE_CURVE($,#143,#96,#170,.T.);
#172=ORIENTED_EDGE($,$,$,#171,.F.);
#173=ORIENTED_EDGE($,$,$,#148,.F.);
#174=EDGE_LOOP($,(#165,#166,#172,#173));
#175=FACE_OUTER_BOUND('',#174,.T.);
#176=ADVANCED_FACE('',(#175),#164,.T.);
#177=CARTESIAN_POINT($,(-6,-6,7));
#178=DIRECTION($,(0,-0.707106781186548,0.707106781186548));
#179=DIRECTION($,(1,0,0));
#180=AXIS2_PLACEMENT_3D($,#177,#178,#179);
#181=PLANE($,#180);
#182=ORIENTED_EDGE($,$,$,#101,.T.);
#183=CARTESIAN_POINT($,(6,-6,7));
#184=DIRECTION($,(-0.577350269189626,0.577350269189626,0.577350269189626));
#185=VECTOR($,#184,1);
#186=LINE($,#183,#185);
#187=EDGE_CURVE($,#88,#65,#186,.T.);
#188=ORIENTED_EDGE($,$,$,#187,.T.);
#189=ORIENTED_EDGE($,$,$,#76,.F.);
#190=CARTESIAN_POINT($,(-6,-6,7));
#191=DIRECTION($,(0.577350269189626,0.577350269189626,0.577350269189626));
#192=VECTOR($,#191,1);
#193=LINE($,#190,#192);
#194=EDGE_CURVE($,#96,#49,#193,.T.);
#195=ORIENTED_EDGE($,$,$,#194,.F.);
#196=EDGE_LOOP($,(#182,#188,#189,#195));
#197=FACE_OUTER_BOUND('',#196,.T.);
#198=ADVANCED_FACE('',(#197),#181,.T.);
#199=CARTESIAN_POINT($,(6,-6,7));
#200=DIRECTION($,(0.707106781186548,-0,0.707106781186548));
#201=DIRECTION($,(0,1,0));
#202=AXIS2_PLACEMENT_3D($,#199,#200,#201);
#203=PLANE($,#202);
#204=ORIENTED_EDGE($,$,$,#130,.T.);
#205=CARTESIAN_POINT($,(6,6,7));
#206=DIRECTION($,(-0.577350269189626,-0.577350269189626,0.577350269189626));
#207=VECTOR($,#206,1);
#208=LINE($,#205,#207);
#209=EDGE_CURVE($,#119,#57,#208,.T.);
#210=ORIENTED_EDGE($,$,$,#209,.T.);
#211=ORIENTED_EDGE($,$,$,#70,.F.);
#212=ORIENTED_EDGE($,$,$,#187,.F.);
#213=EDGE_LOOP($,(#204,#210,#211,#212));
#214=FACE_OUTER_BOUND('',#213,.T.);
#215=ADVANCED_FACE('',(#214),#203,.T.);
#216=CARTESIAN_POINT($,(6,6,7));
#217=DIRECTION($,(0,0.707106781186548,0.707106781186548));
#218=DIRECTION($,(-1,0,0));
#219=AXIS2_PLACEMENT_3D($,#216,#217,#218);
#220=PLANE($,#219);
#221=ORIENTED_EDGE($,$,$,#154,.T.);
#222=CARTESIAN_POINT($,(-6,6,7));
#223=DIRECTION($,(0.577350269189626,-0.577350269189626,0.577350269189626));
#224=VECTOR($,#223,1);
#225=LINE($,#222,#224);
#226=EDGE_CURVE($,#143,#47,#225,.T.);
#227=ORIENTED_EDGE($,$,$,#226,.T.);
#228=ORIENTED_EDGE($,$,$,#62,.F.);
#229=ORIENTED_EDGE($,$,$,#209,.F.);
#230=EDGE_LOOP($,(#221,#227,#228,#229));
#231=FACE_OUTER_BOUND('',#230,.T.);
#232=ADVANCED_FACE('',(#231),#220,.T.);
#233=CARTESIAN_POINT($,(-6,6,7));
#234=DIRECTION($,(-0.707106781186548,0,0.707106781186548));
#235=DIRECTION($,(0,-1,0));
#236=AXIS2_PLACEMENT_3D($,#233,#234,#235);
#237=PLANE($,#236);
#238=ORIENTED_EDGE($,$,$,#171,.T.);
#239=ORIENTED_EDGE($,$,$,#194,.T.);
#240=ORIENTED_EDGE($,$,$,#54,.F.);
#241=ORIENTED_EDGE($,$,$,#226,.F.);
#242=EDGE_LOOP($,(#238,#239,#240,#241));
#243=FACE_OUTER_BOUND('',#242,.T.);
#244=ADVANCED_FACE('',(#243),#237,.T.);
#245=CLOSED_SHELL($,(#40,#80,#111,#135,#159,#176,#198,#215,#232,#244));
#246=MANIFOLD_SOLID_BREP('AssemblyBlock<Spec: MovingSpec>',#245);
#247=APPLICATION_CONTEXT('mechanical design');
#248=PRODUCT_CONTEXT('',#247,'mechanical');
#249=PRODUCT('assembly-definition:ACEEA9A33404DBC3','AssemblyBlock<Spec: MovingSpec>','Aetheris shared assembly definition',(#248));
#250=PRODUCT_DEFINITION_FORMATION('','',#249);
#251=PRODUCT_DEFINITION_CONTEXT('design',#247,'design');
#252=PRODUCT_DEFINITION('','',#250,#251);
#253=PRODUCT_DEFINITION_SHAPE('','',#252);
#254=(LENGTH_UNIT()NAMED_UNIT(*)SI_UNIT(.MILLI.,.METRE.));
#255=(NAMED_UNIT(*)PLANE_ANGLE_UNIT()SI_UNIT($,.RADIAN.));
#256=(NAMED_UNIT(*)SI_UNIT($,.STERADIAN.)SOLID_ANGLE_UNIT());
#257=(GEOMETRIC_REPRESENTATION_CONTEXT(3)GLOBAL_UNIT_ASSIGNED_CONTEXT((#254,#255,#256))REPRESENTATION_CONTEXT('3','3D'));
#258=SHAPE_REPRESENTATION('AssemblyBlock<Spec: MovingSpec>',(#246),#257);
#259=SHAPE_DEFINITION_REPRESENTATION(#253,#258);
#260=CARTESIAN_POINT($,(0,0,0));
#261=DIRECTION($,(0,0,-1));
#262=DIRECTION($,(1,0,0));
#263=AXIS2_PLACEMENT_3D($,#260,#261,#262);
#264=PLANE($,#263);
#265=CARTESIAN_POINT($,(-10,-10,-0));
#266=VERTEX_POINT($,#265);
#267=CARTESIAN_POINT($,(10,-10,-0));
#268=VERTEX_POINT($,#267);
#269=CARTESIAN_POINT($,(-10,-10,-0));
#270=DIRECTION($,(1,0,0));
#271=VECTOR($,#270,1);
#272=LINE($,#269,#271);
#273=EDGE_CURVE($,#266,#268,#272,.T.);
#274=ORIENTED_EDGE($,$,$,#273,.T.);
#275=CARTESIAN_POINT($,(10,10,-0));
#276=VERTEX_POINT($,#275);
#277=CARTESIAN_POINT($,(10,-10,-0));
#278=DIRECTION($,(0,1,0));
#279=VECTOR($,#278,1);
#280=LINE($,#277,#279);
#281=EDGE_CURVE($,#268,#276,#280,.T.);
#282=ORIENTED_EDGE($,$,$,#281,.T.);
#283=CARTESIAN_POINT($,(-10,10,-0));
#284=VERTEX_POINT($,#283);
#285=CARTESIAN_POINT($,(10,10,-0));
#286=DIRECTION($,(-1,0,0));
#287=VECTOR($,#286,1);
#288=LINE($,#285,#287);
#289=EDGE_CURVE($,#276,#284,#288,.T.);
#290=ORIENTED_EDGE($,$,$,#289,.T.);
#291=CARTESIAN_POINT($,(-10,10,-0));
#292=DIRECTION($,(0,-1,0));
#293=VECTOR($,#292,1);
#294=LINE($,#291,#293);
#295=EDGE_CURVE($,#284,#266,#294,.T.);
#296=ORIENTED_EDGE($,$,$,#295,.T.);
#297=EDGE_LOOP($,(#274,#282,#290,#296));
#298=FACE_OUTER_BOUND('',#297,.T.);
#299=ADVANCED_FACE('',(#298),#264,.T.);
#300=CARTESIAN_POINT($,(0,0,10));
#301=DIRECTION($,(0,0,1));
#302=DIRECTION($,(1,0,0));
#303=AXIS2_PLACEMENT_3D($,#300,#301,#302);
#304=PLANE($,#303);
#305=CARTESIAN_POINT($,(-9,9,10));
#306=VERTEX_POINT($,#305);
#307=CARTESIAN_POINT($,(-9,-9,10));
#308=VERTEX_POINT($,#307);
#309=CARTESIAN_POINT($,(-9,9,10));
#310=DIRECTION($,(0,-1,0));
#311=VECTOR($,#310,1);
#312=LINE($,#309,#311);
#313=EDGE_CURVE($,#306,#308,#312,.T.);
#314=ORIENTED_EDGE($,$,$,#313,.F.);
#315=CARTESIAN_POINT($,(9,9,10));
#316=VERTEX_POINT($,#315);
#317=CARTESIAN_POINT($,(9,9,10));
#318=DIRECTION($,(-1,0,0));
#319=VECTOR($,#318,1);
#320=LINE($,#317,#319);
#321=EDGE_CURVE($,#316,#306,#320,.T.);
#322=ORIENTED_EDGE($,$,$,#321,.F.);
#323=CARTESIAN_POINT($,(9,-9,10));
#324=VERTEX_POINT($,#323);
#325=CARTESIAN_POINT($,(9,-9,10));
#326=DIRECTION($,(0,1,0));
#327=VECTOR($,#326,1);
#328=LINE($,#325,#327);
#329=EDGE_CURVE($,#324,#316,#328,.T.);
#330=ORIENTED_EDGE($,$,$,#329,.F.);
#331=CARTESIAN_POINT($,(-9,-9,10));
#332=DIRECTION($,(1,0,0));
#333=VECTOR($,#332,1);
#334=LINE($,#331,#333);
#335=EDGE_CURVE($,#308,#324,#334,.T.);
#336=ORIENTED_EDGE($,$,$,#335,.F.);
#337=EDGE_LOOP($,(#314,#322,#330,#336));
#338=FACE_OUTER_BOUND('',#337,.T.);
#339=ADVANCED_FACE('',(#338),#304,.T.);
#340=CARTESIAN_POINT($,(-10,-10,0));
#341=DIRECTION($,(0,-1,0));
#342=DIRECTION($,(1,0,0));
#343=AXIS2_PLACEMENT_3D($,#340,#341,#342);
#344=PLANE($,#343);
#345=ORIENTED_EDGE($,$,$,#273,.T.);
#346=CARTESIAN_POINT($,(10,-10,9));
#347=VERTEX_POINT($,#346);
#348=CARTESIAN_POINT($,(10,-10,-0));
#349=DIRECTION($,(0,0,1));
#350=VECTOR($,#349,1);
#351=LINE($,#348,#350);
#352=EDGE_CURVE($,#268,#347,#351,.T.);
#353=ORIENTED_EDGE($,$,$,#352,.T.);
#354=CARTESIAN_POINT($,(-10,-10,9));
#355=VERTEX_POINT($,#354);
#356=CARTESIAN_POINT($,(-10,-10,9));
#357=DIRECTION($,(1,0,0));
#358=VECTOR($,#357,1);
#359=LINE($,#356,#358);
#360=EDGE_CURVE($,#355,#347,#359,.T.);
#361=ORIENTED_EDGE($,$,$,#360,.F.);
#362=CARTESIAN_POINT($,(-10,-10,-0));
#363=DIRECTION($,(0,0,1));
#364=VECTOR($,#363,1);
#365=LINE($,#362,#364);
#366=EDGE_CURVE($,#266,#355,#365,.T.);
#367=ORIENTED_EDGE($,$,$,#366,.F.);
#368=EDGE_LOOP($,(#345,#353,#361,#367));
#369=FACE_OUTER_BOUND('',#368,.T.);
#370=ADVANCED_FACE('',(#369),#344,.T.);
#371=CARTESIAN_POINT($,(10,-10,0));
#372=DIRECTION($,(1,0,0));
#373=DIRECTION($,(0,1,0));
#374=AXIS2_PLACEMENT_3D($,#371,#372,#373);
#375=PLANE($,#374);
#376=ORIENTED_EDGE($,$,$,#281,.T.);
#377=CARTESIAN_POINT($,(10,10,9));
#378=VERTEX_POINT($,#377);
#379=CARTESIAN_POINT($,(10,10,-0));
#380=DIRECTION($,(0,0,1));
#381=VECTOR($,#380,1);
#382=LINE($,#379,#381);
#383=EDGE_CURVE($,#276,#378,#382,.T.);
#384=ORIENTED_EDGE($,$,$,#383,.T.);
#385=CARTESIAN_POINT($,(10,-10,9));
#386=DIRECTION($,(0,1,0));
#387=VECTOR($,#386,1);
#388=LINE($,#385,#387);
#389=EDGE_CURVE($,#347,#378,#388,.T.);
#390=ORIENTED_EDGE($,$,$,#389,.F.);
#391=ORIENTED_EDGE($,$,$,#352,.F.);
#392=EDGE_LOOP($,(#376,#384,#390,#391));
#393=FACE_OUTER_BOUND('',#392,.T.);
#394=ADVANCED_FACE('',(#393),#375,.T.);
#395=CARTESIAN_POINT($,(10,10,0));
#396=DIRECTION($,(0,1,-0));
#397=DIRECTION($,(-1,0,0));
#398=AXIS2_PLACEMENT_3D($,#395,#396,#397);
#399=PLANE($,#398);
#400=ORIENTED_EDGE($,$,$,#289,.T.);
#401=CARTESIAN_POINT($,(-10,10,9));
#402=VERTEX_POINT($,#401);
#403=CARTESIAN_POINT($,(-10,10,-0));
#404=DIRECTION($,(0,0,1));
#405=VECTOR($,#404,1);
#406=LINE($,#403,#405);
#407=EDGE_CURVE($,#284,#402,#406,.T.);
#408=ORIENTED_EDGE($,$,$,#407,.T.);
#409=CARTESIAN_POINT($,(10,10,9));
#410=DIRECTION($,(-1,0,0));
#411=VECTOR($,#410,1);
#412=LINE($,#409,#411);
#413=EDGE_CURVE($,#378,#402,#412,.T.);
#414=ORIENTED_EDGE($,$,$,#413,.F.);
#415=ORIENTED_EDGE($,$,$,#383,.F.);
#416=EDGE_LOOP($,(#400,#408,#414,#415));
#417=FACE_OUTER_BOUND('',#416,.T.);
#418=ADVANCED_FACE('',(#417),#399,.T.);
#419=CARTESIAN_POINT($,(-10,10,0));
#420=DIRECTION($,(-1,0,0));
#421=DIRECTION($,(0,-1,0));
#422=AXIS2_PLACEMENT_3D($,#419,#420,#421);
#423=PLANE($,#422);
#424=ORIENTED_EDGE($,$,$,#295,.T.);
#425=ORIENTED_EDGE($,$,$,#366,.T.);
#426=CARTESIAN_POINT($,(-10,10,9));
#427=DIRECTION($,(0,-1,0));
#428=VECTOR($,#427,1);
#429=LINE($,#426,#428);
#430=EDGE_CURVE($,#402,#355,#429,.T.);
#431=ORIENTED_EDGE($,$,$,#430,.F.);
#432=ORIENTED_EDGE($,$,$,#407,.F.);
#433=EDGE_LOOP($,(#424,#425,#431,#432));
#434=FACE_OUTER_BOUND('',#433,.T.);
#435=ADVANCED_FACE('',(#434),#423,.T.);
#436=CARTESIAN_POINT($,(-10,-10,9));
#437=DIRECTION($,(0,-0.707106781186548,0.707106781186548));
#438=DIRECTION($,(1,0,0));
#439=AXIS2_PLACEMENT_3D($,#436,#437,#438);
#440=PLANE($,#439);
#441=ORIENTED_EDGE($,$,$,#360,.T.);
#442=CARTESIAN_POINT($,(10,-10,9));
#443=DIRECTION($,(-0.577350269189626,0.577350269189626,0.577350269189626));
#444=VECTOR($,#443,1);
#445=LINE($,#442,#444);
#446=EDGE_CURVE($,#347,#324,#445,.T.);
#447=ORIENTED_EDGE($,$,$,#446,.T.);
#448=ORIENTED_EDGE($,$,$,#335,.F.);
#449=CARTESIAN_POINT($,(-10,-10,9));
#450=DIRECTION($,(0.577350269189626,0.577350269189626,0.577350269189626));
#451=VECTOR($,#450,1);
#452=LINE($,#449,#451);
#453=EDGE_CURVE($,#355,#308,#452,.T.);
#454=ORIENTED_EDGE($,$,$,#453,.F.);
#455=EDGE_LOOP($,(#441,#447,#448,#454));
#456=FACE_OUTER_BOUND('',#455,.T.);
#457=ADVANCED_FACE('',(#456),#440,.T.);
#458=CARTESIAN_POINT($,(10,-10,9));
#459=DIRECTION($,(0.707106781186548,-0,0.707106781186548));
#460=DIRECTION($,(0,1,0));
#461=AXIS2_PLACEMENT_3D($,#458,#459,#460);
#462=PLANE($,#461);
#463=ORIENTED_EDGE($,$,$,#389,.T.);
#464=CARTESIAN_POINT($,(10,10,9));
#465=DIRECTION($,(-0.577350269189626,-0.577350269189626,0.577350269189626));
#466=VECTOR($,#465,1);
#467=LINE($,#464,#466);
#468=EDGE_CURVE($,#378,#316,#467,.T.);
#469=ORIENTED_EDGE($,$,$,#468,.T.);
#470=ORIENTED_EDGE($,$,$,#329,.F.);
#471=ORIENTED_EDGE($,$,$,#446,.F.);
#472=EDGE_LOOP($,(#463,#469,#470,#471));
#473=FACE_OUTER_BOUND('',#472,.T.);
#474=ADVANCED_FACE('',(#473),#462,.T.);
#475=CARTESIAN_POINT($,(10,10,9));
#476=DIRECTION($,(0,0.707106781186548,0.707106781186548));
#477=DIRECTION($,(-1,0,0));
#478=AXIS2_PLACEMENT_3D($,#475,#476,#477);
#479=PLANE($,#478);
#480=ORIENTED_EDGE($,$,$,#413,.T.);
#481=CARTESIAN_POINT($,(-10,10,9));
#482=DIRECTION($,(0.577350269189626,-0.577350269189626,0.577350269189626));
#483=VECTOR($,#482,1);
#484=LINE($,#481,#483);
#485=EDGE_CURVE($,#402,#306,#484,.T.);
#486=ORIENTED_EDGE($,$,$,#485,.T.);
#487=ORIENTED_EDGE($,$,$,#321,.F.);
#488=ORIENTED_EDGE($,$,$,#468,.F.);
#489=EDGE_LOOP($,(#480,#486,#487,#488));
#490=FACE_OUTER_BOUND('',#489,.T.);
#491=ADVANCED_FACE('',(#490),#479,.T.);
#492=CARTESIAN_POINT($,(-10,10,9));
#493=DIRECTION($,(-0.707106781186548,0,0.707106781186548));
#494=DIRECTION($,(0,-1,0));
#495=AXIS2_PLACEMENT_3D($,#492,#493,#494);
#496=PLANE($,#495);
#497=ORIENTED_EDGE($,$,$,#430,.T.);
#498=ORIENTED_EDGE($,$,$,#453,.T.);
#499=ORIENTED_EDGE($,$,$,#313,.F.);
#500=ORIENTED_EDGE($,$,$,#485,.F.);
#501=EDGE_LOOP($,(#497,#498,#499,#500));
#502=FACE_OUTER_BOUND('',#501,.T.);
#503=ADVANCED_FACE('',(#502),#496,.T.);
#504=CLOSED_SHELL($,(#299,#339,#370,#394,#418,#435,#457,#474,#491,#503));
#505=MANIFOLD_SOLID_BREP('AssemblyBlock<Spec: FixedSpec>',#504);
#506=APPLICATION_CONTEXT('mechanical design');
#507=PRODUCT_CONTEXT('',#506,'mechanical');
#508=PRODUCT('assembly-definition:BDBDA1A577822F80','AssemblyBlock<Spec: FixedSpec>','Aetheris shared assembly definition',(#507));
#509=PRODUCT_DEFINITION_FORMATION('','',#508);
#510=PRODUCT_DEFINITION_CONTEXT('design',#506,'design');
#511=PRODUCT_DEFINITION('','',#509,#510);
#512=PRODUCT_DEFINITION_SHAPE('','',#511);
#513=(LENGTH_UNIT()NAMED_UNIT(*)SI_UNIT(.MILLI.,.METRE.));
#514=(NAMED_UNIT(*)PLANE_ANGLE_UNIT()SI_UNIT($,.RADIAN.));
#515=(NAMED_UNIT(*)SI_UNIT($,.STERADIAN.)SOLID_ANGLE_UNIT());
#516=(GEOMETRIC_REPRESENTATION_CONTEXT(3)GLOBAL_UNIT_ASSIGNED_CONTEXT((#513,#514,#515))REPRESENTATION_CONTEXT('3','3D'));
#517=SHAPE_REPRESENTATION('AssemblyBlock<Spec: FixedSpec>',(#505),#516);
#518=SHAPE_DEFINITION_REPRESENTATION(#512,#517);
#519=APPLICATION_CONTEXT('mechanical design');
#520=PRODUCT_CONTEXT('',#519,'mechanical');
#521=PRODUCT_DEFINITION_CONTEXT('design',#519,'design');
#522=(LENGTH_UNIT()NAMED_UNIT(*)SI_UNIT(.MILLI.,.METRE.));
#523=(NAMED_UNIT(*)PLANE_ANGLE_UNIT()SI_UNIT($,.RADIAN.));
#524=(NAMED_UNIT(*)SI_UNIT($,.STERADIAN.)SOLID_ANGLE_UNIT());
#525=(GEOMETRIC_REPRESENTATION_CONTEXT(3)GLOBAL_UNIT_ASSIGNED_CONTEXT((#522,#523,#524))REPRESENTATION_CONTEXT('3','3D'));
#526=PRODUCT('assembly-instance:TemplateBlockPair','TemplateBlockPair','Aetheris assembly product',(#520));
#527=PRODUCT_DEFINITION_FORMATION('','',#526);
#528=PRODUCT_DEFINITION('assembly-instance:TemplateBlockPair','',#527,#521);
#529=PRODUCT_DEFINITION_SHAPE('','',#528);
#530=SHAPE_REPRESENTATION('TemplateBlockPair',(),#525);
#531=SHAPE_DEFINITION_REPRESENTATION(#529,#530);
#532=CARTESIAN_POINT('',(0.,0.,0.));
#533=AXIS2_PLACEMENT_3D('',#532,$,$);
#534=NEXT_ASSEMBLY_USAGE_OCCURRENCE('assembly-instance:TemplateBlockPair.Fixed','Fixed','',#528,#511,$);
#535=PRODUCT_DEFINITION_SHAPE('','',#534);
#536=CARTESIAN_POINT('',(0,0,0));
#537=DIRECTION('',(0,0,1));
#538=DIRECTION('',(1,0,0));
#539=AXIS2_PLACEMENT_3D('',#536,#537,#538);
#540=ITEM_DEFINED_TRANSFORMATION('assembly-instance:TemplateBlockPair.Fixed','Aetheris rigid occurrence transform',#533,#539);
#541=REPRESENTATION_RELATIONSHIP_WITH_TRANSFORMATION('assembly-instance:TemplateBlockPair.Fixed','',#530,#517,#540);
#542=CONTEXT_DEPENDENT_SHAPE_REPRESENTATION(#541,#535);
#543=NEXT_ASSEMBLY_USAGE_OCCURRENCE('assembly-instance:TemplateBlockPair.Moving','Moving','',#528,#252,$);
#544=PRODUCT_DEFINITION_SHAPE('','',#543);
#545=CARTESIAN_POINT('',(0,0,10));
#546=DIRECTION('',(0,0,1));
#547=DIRECTION('',(1,0,0));
#548=AXIS2_PLACEMENT_3D('',#545,#546,#547);
#549=ITEM_DEFINED_TRANSFORMATION('assembly-instance:TemplateBlockPair.Moving','Aetheris rigid occurrence transform',#533,#548);
#550=REPRESENTATION_RELATIONSHIP_WITH_TRANSFORMATION('assembly-instance:TemplateBlockPair.Moving','',#530,#258,#549);
#551=CONTEXT_DEPENDENT_SHAPE_REPRESENTATION(#550,#544);
ENDSEC;
END-ISO-10303-21;
