ISO-10303-21;
HEADER;
FILE_DESCRIPTION(('Aetheris AP242 subset export'),'2;1');
FILE_NAME('aetheris_export.step','1970-01-01T00:00:00',('Aetheris'),('Aetheris'),'Aetheris.Kernel','Aetheris.Kernel','');
FILE_SCHEMA(('AP242_MANAGED_MODEL_BASED_3D_ENGINEERING_MIM_LF'));
ENDSEC;
DATA;
#1=CARTESIAN_POINT($,(-30,-20,0));
#2=CARTESIAN_POINT($,(-31.1458333333333,-16.7303240740741,1.8744212962963));
#3=CARTESIAN_POINT($,(-32.0833333333333,-13.4259259259259,3.49537037037037));
#4=CARTESIAN_POINT($,(-32.8125,-10.09375,4.859375));
#5=CARTESIAN_POINT($,(-33.3333333333333,-6.74074074074074,5.96296296296296));
#6=CARTESIAN_POINT($,(-33.6458333333333,-3.37384259259259,6.80266203703704));
#7=CARTESIAN_POINT($,(-33.75,0,7.375));
#8=CARTESIAN_POINT($,(-33.6458333333333,3.37384259259259,7.67650462962963));
#9=CARTESIAN_POINT($,(-33.3333333333333,6.74074074074074,7.70370370370371));
#10=CARTESIAN_POINT($,(-32.8125,10.09375,7.453125));
#11=CARTESIAN_POINT($,(-32.0833333333333,13.4259259259259,6.92129629629629));
#12=CARTESIAN_POINT($,(-31.1458333333333,16.7303240740741,6.10474537037037));
#13=CARTESIAN_POINT($,(-30,20,5));
#14=CARTESIAN_POINT($,(-25,-20,0));
#15=CARTESIAN_POINT($,(-26.1458333333333,-16.7303240740741,1.8744212962963));
#16=CARTESIAN_POINT($,(-27.0833333333333,-13.4259259259259,3.49537037037037));
#17=CARTESIAN_POINT($,(-27.8125,-10.09375,4.859375));
#18=CARTESIAN_POINT($,(-28.3333333333333,-6.74074074074074,5.96296296296296));
#19=CARTESIAN_POINT($,(-28.6458333333333,-3.37384259259259,6.80266203703704));
#20=CARTESIAN_POINT($,(-28.75,0.000000000000001,7.375));
#21=CARTESIAN_POINT($,(-28.6458333333333,3.3738425925926,7.67650462962963));
#22=CARTESIAN_POINT($,(-28.3333333333333,6.74074074074074,7.7037037037037));
#23=CARTESIAN_POINT($,(-27.8125,10.09375,7.453125));
#24=CARTESIAN_POINT($,(-27.0833333333333,13.4259259259259,6.9212962962963));
#25=CARTESIAN_POINT($,(-26.1458333333333,16.7303240740741,6.10474537037037));
#26=CARTESIAN_POINT($,(-25,20,5));
#27=CARTESIAN_POINT($,(-20,-20,0));
#28=CARTESIAN_POINT($,(-21.1458333333333,-16.7303240740741,1.8744212962963));
#29=CARTESIAN_POINT($,(-22.0833333333333,-13.4259259259259,3.49537037037037));
#30=CARTESIAN_POINT($,(-22.8125,-10.09375,4.859375));
#31=CARTESIAN_POINT($,(-23.3333333333333,-6.74074074074074,5.96296296296296));
#32=CARTESIAN_POINT($,(-23.6458333333333,-3.37384259259259,6.80266203703704));
#33=CARTESIAN_POINT($,(-23.75,-0,7.375));
#34=CARTESIAN_POINT($,(-23.6458333333333,3.3738425925926,7.67650462962963));
#35=CARTESIAN_POINT($,(-23.3333333333333,6.74074074074074,7.70370370370371));
#36=CARTESIAN_POINT($,(-22.8125,10.09375,7.453125));
#37=CARTESIAN_POINT($,(-22.0833333333333,13.4259259259259,6.9212962962963));
#38=CARTESIAN_POINT($,(-21.1458333333333,16.7303240740741,6.10474537037037));
#39=CARTESIAN_POINT($,(-20,20,5));
#40=CARTESIAN_POINT($,(-15,-20,0));
#41=CARTESIAN_POINT($,(-16.1458333333333,-16.7303240740741,1.8744212962963));
#42=CARTESIAN_POINT($,(-17.0833333333333,-13.4259259259259,3.49537037037037));
#43=CARTESIAN_POINT($,(-17.8125,-10.09375,4.859375));
#44=CARTESIAN_POINT($,(-18.3333333333333,-6.74074074074074,5.96296296296296));
#45=CARTESIAN_POINT($,(-18.6458333333333,-3.37384259259259,6.80266203703704));
#46=CARTESIAN_POINT($,(-18.75,0,7.375));
#47=CARTESIAN_POINT($,(-18.6458333333333,3.3738425925926,7.67650462962963));
#48=CARTESIAN_POINT($,(-18.3333333333333,6.74074074074074,7.7037037037037));
#49=CARTESIAN_POINT($,(-17.8125,10.09375,7.453125));
#50=CARTESIAN_POINT($,(-17.0833333333333,13.4259259259259,6.9212962962963));
#51=CARTESIAN_POINT($,(-16.1458333333333,16.7303240740741,6.10474537037037));
#52=CARTESIAN_POINT($,(-15,20,5));
#53=CARTESIAN_POINT($,(-10,-20,0));
#54=CARTESIAN_POINT($,(-11.1458333333333,-16.7303240740741,1.8744212962963));
#55=CARTESIAN_POINT($,(-12.0833333333333,-13.4259259259259,3.49537037037037));
#56=CARTESIAN_POINT($,(-12.8125,-10.09375,4.859375));
#57=CARTESIAN_POINT($,(-13.3333333333333,-6.74074074074074,5.96296296296296));
#58=CARTESIAN_POINT($,(-13.6458333333333,-3.37384259259259,6.80266203703704));
#59=CARTESIAN_POINT($,(-13.75,-0.000000000000001,7.375));
#60=CARTESIAN_POINT($,(-13.6458333333333,3.37384259259259,7.67650462962963));
#61=CARTESIAN_POINT($,(-13.3333333333333,6.74074074074074,7.7037037037037));
#62=CARTESIAN_POINT($,(-12.8125,10.09375,7.453125));
#63=CARTESIAN_POINT($,(-12.0833333333333,13.4259259259259,6.92129629629629));
#64=CARTESIAN_POINT($,(-11.1458333333333,16.7303240740741,6.10474537037037));
#65=CARTESIAN_POINT($,(-10,20,5));
#66=CARTESIAN_POINT($,(-5,-20,0));
#67=CARTESIAN_POINT($,(-6.14583333333333,-16.7303240740741,1.8744212962963));
#68=CARTESIAN_POINT($,(-7.08333333333333,-13.4259259259259,3.49537037037037));
#69=CARTESIAN_POINT($,(-7.8125,-10.09375,4.859375));
#70=CARTESIAN_POINT($,(-8.33333333333334,-6.74074074074074,5.96296296296296));
#71=CARTESIAN_POINT($,(-8.64583333333334,-3.37384259259259,6.80266203703704));
#72=CARTESIAN_POINT($,(-8.75,0.000000000000001,7.375));
#73=CARTESIAN_POINT($,(-8.64583333333334,3.3738425925926,7.67650462962963));
#74=CARTESIAN_POINT($,(-8.33333333333334,6.74074074074074,7.7037037037037));
#75=CARTESIAN_POINT($,(-7.8125,10.09375,7.453125));
#76=CARTESIAN_POINT($,(-7.08333333333333,13.4259259259259,6.92129629629629));
#77=CARTESIAN_POINT($,(-6.14583333333333,16.7303240740741,6.10474537037037));
#78=CARTESIAN_POINT($,(-5,20,5));
#79=CARTESIAN_POINT($,(0,-20,0));
#80=CARTESIAN_POINT($,(-1.14583333333333,-16.7303240740741,1.8744212962963));
#81=CARTESIAN_POINT($,(-2.08333333333334,-13.4259259259259,3.49537037037037));
#82=CARTESIAN_POINT($,(-2.8125,-10.09375,4.859375));
#83=CARTESIAN_POINT($,(-3.33333333333333,-6.74074074074074,5.96296296296296));
#84=CARTESIAN_POINT($,(-3.64583333333334,-3.37384259259259,6.80266203703704));
#85=CARTESIAN_POINT($,(-3.75,0,7.375));
#86=CARTESIAN_POINT($,(-3.64583333333333,3.3738425925926,7.67650462962963));
#87=CARTESIAN_POINT($,(-3.33333333333333,6.74074074074074,7.70370370370371));
#88=CARTESIAN_POINT($,(-2.8125,10.09375,7.453125));
#89=CARTESIAN_POINT($,(-2.08333333333334,13.4259259259259,6.92129629629629));
#90=CARTESIAN_POINT($,(-1.14583333333334,16.7303240740741,6.10474537037037));
#91=CARTESIAN_POINT($,(0,20,5));
#92=CARTESIAN_POINT($,(5,-20,0));
#93=CARTESIAN_POINT($,(3.85416666666667,-16.7303240740741,1.8744212962963));
#94=CARTESIAN_POINT($,(2.91666666666666,-13.4259259259259,3.49537037037037));
#95=CARTESIAN_POINT($,(2.1875,-10.09375,4.859375));
#96=CARTESIAN_POINT($,(1.66666666666667,-6.74074074074074,5.96296296296296));
#97=CARTESIAN_POINT($,(1.35416666666667,-3.37384259259259,6.80266203703704));
#98=CARTESIAN_POINT($,(1.25,0,7.375));
#99=CARTESIAN_POINT($,(1.35416666666667,3.37384259259259,7.67650462962963));
#100=CARTESIAN_POINT($,(1.66666666666667,6.74074074074074,7.70370370370371));
#101=CARTESIAN_POINT($,(2.1875,10.09375,7.453125));
#102=CARTESIAN_POINT($,(2.91666666666666,13.4259259259259,6.92129629629629));
#103=CARTESIAN_POINT($,(3.85416666666666,16.7303240740741,6.10474537037037));
#104=CARTESIAN_POINT($,(5,20,5));
#105=CARTESIAN_POINT($,(10,-20,0));
#106=CARTESIAN_POINT($,(8.85416666666667,-16.7303240740741,1.8744212962963));
#107=CARTESIAN_POINT($,(7.91666666666666,-13.4259259259259,3.49537037037037));
#108=CARTESIAN_POINT($,(7.1875,-10.09375,4.859375));
#109=CARTESIAN_POINT($,(6.66666666666667,-6.74074074074074,5.96296296296296));
#110=CARTESIAN_POINT($,(6.35416666666667,-3.37384259259259,6.80266203703704));
#111=CARTESIAN_POINT($,(6.25,0,7.375));
#112=CARTESIAN_POINT($,(6.35416666666667,3.3738425925926,7.67650462962963));
#113=CARTESIAN_POINT($,(6.66666666666667,6.74074074074074,7.7037037037037));
#114=CARTESIAN_POINT($,(7.1875,10.09375,7.453125));
#115=CARTESIAN_POINT($,(7.91666666666666,13.4259259259259,6.92129629629629));
#116=CARTESIAN_POINT($,(8.85416666666666,16.7303240740741,6.10474537037037));
#117=CARTESIAN_POINT($,(10,20,5));
#118=CARTESIAN_POINT($,(15,-20,0));
#119=CARTESIAN_POINT($,(13.8541666666667,-16.7303240740741,1.8744212962963));
#120=CARTESIAN_POINT($,(12.9166666666667,-13.4259259259259,3.49537037037037));
#121=CARTESIAN_POINT($,(12.1875,-10.09375,4.859375));
#122=CARTESIAN_POINT($,(11.6666666666667,-6.74074074074074,5.96296296296296));
#123=CARTESIAN_POINT($,(11.3541666666667,-3.37384259259259,6.80266203703704));
#124=CARTESIAN_POINT($,(11.25,0,7.375));
#125=CARTESIAN_POINT($,(11.3541666666667,3.3738425925926,7.67650462962963));
#126=CARTESIAN_POINT($,(11.6666666666667,6.74074074074074,7.70370370370371));
#127=CARTESIAN_POINT($,(12.1875,10.09375,7.453125));
#128=CARTESIAN_POINT($,(12.9166666666667,13.4259259259259,6.92129629629629));
#129=CARTESIAN_POINT($,(13.8541666666667,16.7303240740741,6.10474537037037));
#130=CARTESIAN_POINT($,(15,20,5));
#131=CARTESIAN_POINT($,(20,-20,0));
#132=CARTESIAN_POINT($,(18.8541666666667,-16.7303240740741,1.8744212962963));
#133=CARTESIAN_POINT($,(17.9166666666667,-13.4259259259259,3.49537037037037));
#134=CARTESIAN_POINT($,(17.1875,-10.09375,4.859375));
#135=CARTESIAN_POINT($,(16.6666666666667,-6.74074074074074,5.96296296296296));
#136=CARTESIAN_POINT($,(16.3541666666667,-3.37384259259259,6.80266203703704));
#137=CARTESIAN_POINT($,(16.25,0,7.375));
#138=CARTESIAN_POINT($,(16.3541666666667,3.37384259259259,7.67650462962963));
#139=CARTESIAN_POINT($,(16.6666666666667,6.74074074074074,7.70370370370371));
#140=CARTESIAN_POINT($,(17.1875,10.09375,7.453125));
#141=CARTESIAN_POINT($,(17.9166666666667,13.4259259259259,6.92129629629629));
#142=CARTESIAN_POINT($,(18.8541666666667,16.7303240740741,6.10474537037037));
#143=CARTESIAN_POINT($,(20,20,5));
#144=CARTESIAN_POINT($,(25,-20,0));
#145=CARTESIAN_POINT($,(23.8541666666667,-16.7303240740741,1.8744212962963));
#146=CARTESIAN_POINT($,(22.9166666666667,-13.4259259259259,3.49537037037037));
#147=CARTESIAN_POINT($,(22.1875,-10.09375,4.859375));
#148=CARTESIAN_POINT($,(21.6666666666667,-6.74074074074074,5.96296296296296));
#149=CARTESIAN_POINT($,(21.3541666666667,-3.37384259259259,6.80266203703704));
#150=CARTESIAN_POINT($,(21.25,0,7.375));
#151=CARTESIAN_POINT($,(21.3541666666667,3.3738425925926,7.67650462962963));
#152=CARTESIAN_POINT($,(21.6666666666667,6.74074074074074,7.70370370370371));
#153=CARTESIAN_POINT($,(22.1875,10.09375,7.453125));
#154=CARTESIAN_POINT($,(22.9166666666667,13.4259259259259,6.92129629629629));
#155=CARTESIAN_POINT($,(23.8541666666667,16.7303240740741,6.10474537037037));
#156=CARTESIAN_POINT($,(25,20,5));
#157=CARTESIAN_POINT($,(30,-20,0));
#158=CARTESIAN_POINT($,(28.8541666666667,-16.7303240740741,1.8744212962963));
#159=CARTESIAN_POINT($,(27.9166666666667,-13.4259259259259,3.49537037037037));
#160=CARTESIAN_POINT($,(27.1875,-10.09375,4.859375));
#161=CARTESIAN_POINT($,(26.6666666666667,-6.74074074074074,5.96296296296296));
#162=CARTESIAN_POINT($,(26.3541666666667,-3.37384259259259,6.80266203703704));
#163=CARTESIAN_POINT($,(26.25,0,7.375));
#164=CARTESIAN_POINT($,(26.3541666666667,3.37384259259259,7.67650462962963));
#165=CARTESIAN_POINT($,(26.6666666666667,6.74074074074074,7.70370370370371));
#166=CARTESIAN_POINT($,(27.1875,10.09375,7.453125));
#167=CARTESIAN_POINT($,(27.9166666666667,13.4259259259259,6.92129629629629));
#168=CARTESIAN_POINT($,(28.8541666666667,16.7303240740741,6.10474537037037));
#169=CARTESIAN_POINT($,(30,20,5));
#170=B_SPLINE_SURFACE_WITH_KNOTS($,1,1,((#1,#2,#3,#4,#5,#6,#7,#8,#9,#10,#11,#12,#13),(#14,#15,#16,#17,#18,#19,#20,#21,#22,#23,#24,#25,#26),(#27,#28,#29,#30,#31,#32,#33,#34,#35,#36,#37,#38,#39),(#40,#41,#42,#43,#44,#45,#46,#47,#48,#49,#50,#51,#52),(#53,#54,#55,#56,#57,#58,#59,#60,#61,#62,#63,#64,#65),(#66,#67,#68,#69,#70,#71,#72,#73,#74,#75,#76,#77,#78),(#79,#80,#81,#82,#83,#84,#85,#86,#87,#88,#89,#90,#91),(#92,#93,#94,#95,#96,#97,#98,#99,#100,#101,#102,#103,#104),(#105,#106,#107,#108,#109,#110,#111,#112,#113,#114,#115,#116,#117),(#118,#119,#120,#121,#122,#123,#124,#125,#126,#127,#128,#129,#130),(#131,#132,#133,#134,#135,#136,#137,#138,#139,#140,#141,#142,#143),(#144,#145,#146,#147,#148,#149,#150,#151,#152,#153,#154,#155,#156),(#157,#158,#159,#160,#161,#162,#163,#164,#165,#166,#167,#168,#169)),.UNSPECIFIED.,.F.,.F.,.F.,(2,1,1,1,1,1,1,1,1,1,1,1,2),(2,1,1,1,1,1,1,1,1,1,1,1,2),(0,0.083333333333333,0.166666666666667,0.25,0.333333333333333,0.416666666666667,0.5,0.583333333333333,0.666666666666667,0.75,0.833333333333333,0.916666666666667,1),(0,0.083333333333333,0.166666666666667,0.25,0.333333333333333,0.416666666666667,0.5,0.583333333333333,0.666666666666667,0.75,0.833333333333333,0.916666666666667,1),.UNSPECIFIED.);
#171=CARTESIAN_POINT($,(-30,-20,0));
#172=VERTEX_POINT($,#171);
#173=CARTESIAN_POINT($,(30,-20,0));
#174=VERTEX_POINT($,#173);
#175=CARTESIAN_POINT($,(-30,-20,0));
#176=CARTESIAN_POINT($,(-25,-20,0));
#177=CARTESIAN_POINT($,(-20,-20,0));
#178=CARTESIAN_POINT($,(-15,-20,0));
#179=CARTESIAN_POINT($,(-10,-20,0));
#180=CARTESIAN_POINT($,(-5,-20,0));
#181=CARTESIAN_POINT($,(0,-20,0));
#182=CARTESIAN_POINT($,(5,-20,0));
#183=CARTESIAN_POINT($,(10,-20,0));
#184=CARTESIAN_POINT($,(15,-20,0));
#185=CARTESIAN_POINT($,(20,-20,0));
#186=CARTESIAN_POINT($,(25,-20,0));
#187=CARTESIAN_POINT($,(30,-20,0));
#188=B_SPLINE_CURVE_WITH_KNOTS($,1,(#175,#176,#177,#178,#179,#180,#181,#182,#183,#184,#185,#186,#187),.UNSPECIFIED.,.F.,.F.,(2,1,1,1,1,1,1,1,1,1,1,1,2),(0,0.083333333333333,0.166666666666667,0.25,0.333333333333333,0.416666666666667,0.5,0.583333333333333,0.666666666666667,0.75,0.833333333333333,0.916666666666667,1),.UNSPECIFIED.);
#189=EDGE_CURVE($,#172,#174,#188,.T.);
#190=ORIENTED_EDGE($,$,$,#189,.T.);
#191=CARTESIAN_POINT($,(30,20,5));
#192=VERTEX_POINT($,#191);
#193=CARTESIAN_POINT($,(30,-20,0));
#194=CARTESIAN_POINT($,(28.8541666666667,-16.7303240740741,1.8744212962963));
#195=CARTESIAN_POINT($,(27.9166666666667,-13.4259259259259,3.49537037037037));
#196=CARTESIAN_POINT($,(27.1875,-10.09375,4.859375));
#197=CARTESIAN_POINT($,(26.6666666666667,-6.74074074074074,5.96296296296296));
#198=CARTESIAN_POINT($,(26.3541666666667,-3.37384259259259,6.80266203703704));
#199=CARTESIAN_POINT($,(26.25,0,7.375));
#200=CARTESIAN_POINT($,(26.3541666666667,3.37384259259259,7.67650462962963));
#201=CARTESIAN_POINT($,(26.6666666666667,6.74074074074074,7.70370370370371));
#202=CARTESIAN_POINT($,(27.1875,10.09375,7.453125));
#203=CARTESIAN_POINT($,(27.9166666666667,13.4259259259259,6.92129629629629));
#204=CARTESIAN_POINT($,(28.8541666666667,16.7303240740741,6.10474537037037));
#205=CARTESIAN_POINT($,(30,20,5));
#206=B_SPLINE_CURVE_WITH_KNOTS($,1,(#193,#194,#195,#196,#197,#198,#199,#200,#201,#202,#203,#204,#205),.UNSPECIFIED.,.F.,.F.,(2,1,1,1,1,1,1,1,1,1,1,1,2),(0,0.083333333333333,0.166666666666667,0.25,0.333333333333333,0.416666666666667,0.5,0.583333333333333,0.666666666666667,0.75,0.833333333333333,0.916666666666667,1),.UNSPECIFIED.);
#207=EDGE_CURVE($,#174,#192,#206,.T.);
#208=ORIENTED_EDGE($,$,$,#207,.T.);
#209=CARTESIAN_POINT($,(-30,20,5));
#210=VERTEX_POINT($,#209);
#211=CARTESIAN_POINT($,(30,20,5));
#212=CARTESIAN_POINT($,(25,20,5));
#213=CARTESIAN_POINT($,(20,20,5));
#214=CARTESIAN_POINT($,(15,20,5));
#215=CARTESIAN_POINT($,(10,20,5));
#216=CARTESIAN_POINT($,(5,20,5));
#217=CARTESIAN_POINT($,(0,20,5));
#218=CARTESIAN_POINT($,(-5,20,5));
#219=CARTESIAN_POINT($,(-10,20,5));
#220=CARTESIAN_POINT($,(-15,20,5));
#221=CARTESIAN_POINT($,(-20,20,5));
#222=CARTESIAN_POINT($,(-25,20,5));
#223=CARTESIAN_POINT($,(-30,20,5));
#224=B_SPLINE_CURVE_WITH_KNOTS($,1,(#211,#212,#213,#214,#215,#216,#217,#218,#219,#220,#221,#222,#223),.UNSPECIFIED.,.F.,.F.,(2,1,1,1,1,1,1,1,1,1,1,1,2),(0,0.083333333333333,0.166666666666667,0.25,0.333333333333333,0.416666666666667,0.5,0.583333333333333,0.666666666666667,0.75,0.833333333333333,0.916666666666667,1),.UNSPECIFIED.);
#225=EDGE_CURVE($,#192,#210,#224,.T.);
#226=ORIENTED_EDGE($,$,$,#225,.T.);
#227=CARTESIAN_POINT($,(-30,20,5));
#228=CARTESIAN_POINT($,(-31.1458333333333,16.7303240740741,6.10474537037037));
#229=CARTESIAN_POINT($,(-32.0833333333333,13.4259259259259,6.92129629629629));
#230=CARTESIAN_POINT($,(-32.8125,10.09375,7.453125));
#231=CARTESIAN_POINT($,(-33.3333333333333,6.74074074074074,7.70370370370371));
#232=CARTESIAN_POINT($,(-33.6458333333333,3.37384259259259,7.67650462962963));
#233=CARTESIAN_POINT($,(-33.75,0,7.375));
#234=CARTESIAN_POINT($,(-33.6458333333333,-3.37384259259259,6.80266203703704));
#235=CARTESIAN_POINT($,(-33.3333333333333,-6.74074074074074,5.96296296296296));
#236=CARTESIAN_POINT($,(-32.8125,-10.09375,4.859375));
#237=CARTESIAN_POINT($,(-32.0833333333333,-13.4259259259259,3.49537037037037));
#238=CARTESIAN_POINT($,(-31.1458333333333,-16.7303240740741,1.8744212962963));
#239=CARTESIAN_POINT($,(-30,-20,0));
#240=B_SPLINE_CURVE_WITH_KNOTS($,1,(#227,#228,#229,#230,#231,#232,#233,#234,#235,#236,#237,#238,#239),.UNSPECIFIED.,.F.,.F.,(2,1,1,1,1,1,1,1,1,1,1,1,2),(0,0.083333333333333,0.166666666666667,0.25,0.333333333333333,0.416666666666667,0.5,0.583333333333333,0.666666666666667,0.75,0.833333333333333,0.916666666666667,1),.UNSPECIFIED.);
#241=EDGE_CURVE($,#210,#172,#240,.T.);
#242=ORIENTED_EDGE($,$,$,#241,.T.);
#243=EDGE_LOOP($,(#190,#208,#226,#242));
#244=FACE_OUTER_BOUND('',#243,.T.);
#245=ADVANCED_FACE('',(#244),#170,.F.);
#246=CARTESIAN_POINT($,(-30,-20,1));
#247=CARTESIAN_POINT($,(-31.1458333333333,-16.7303240740741,2.8744212962963));
#248=CARTESIAN_POINT($,(-32.0833333333333,-13.4259259259259,4.49537037037037));
#249=CARTESIAN_POINT($,(-32.8125,-10.09375,5.859375));
#250=CARTESIAN_POINT($,(-33.3333333333333,-6.74074074074074,6.96296296296296));
#251=CARTESIAN_POINT($,(-33.6458333333333,-3.37384259259259,7.80266203703704));
#252=CARTESIAN_POINT($,(-33.75,0,8.375));
#253=CARTESIAN_POINT($,(-33.6458333333333,3.37384259259259,8.67650462962963));
#254=CARTESIAN_POINT($,(-33.3333333333333,6.74074074074074,8.70370370370371));
#255=CARTESIAN_POINT($,(-32.8125,10.09375,8.453125));
#256=CARTESIAN_POINT($,(-32.0833333333333,13.4259259259259,7.92129629629629));
#257=CARTESIAN_POINT($,(-31.1458333333333,16.7303240740741,7.10474537037037));
#258=CARTESIAN_POINT($,(-30,20,6));
#259=CARTESIAN_POINT($,(-25,-20,1));
#260=CARTESIAN_POINT($,(-26.1458333333333,-16.7303240740741,2.8744212962963));
#261=CARTESIAN_POINT($,(-27.0833333333333,-13.4259259259259,4.49537037037037));
#262=CARTESIAN_POINT($,(-27.8125,-10.09375,5.859375));
#263=CARTESIAN_POINT($,(-28.3333333333333,-6.74074074074074,6.96296296296296));
#264=CARTESIAN_POINT($,(-28.6458333333333,-3.37384259259259,7.80266203703704));
#265=CARTESIAN_POINT($,(-28.75,0.000000000000001,8.375));
#266=CARTESIAN_POINT($,(-28.6458333333333,3.3738425925926,8.67650462962963));
#267=CARTESIAN_POINT($,(-28.3333333333333,6.74074074074074,8.7037037037037));
#268=CARTESIAN_POINT($,(-27.8125,10.09375,8.453125));
#269=CARTESIAN_POINT($,(-27.0833333333333,13.4259259259259,7.9212962962963));
#270=CARTESIAN_POINT($,(-26.1458333333333,16.7303240740741,7.10474537037037));
#271=CARTESIAN_POINT($,(-25,20,6));
#272=CARTESIAN_POINT($,(-20,-20,1));
#273=CARTESIAN_POINT($,(-21.1458333333333,-16.7303240740741,2.8744212962963));
#274=CARTESIAN_POINT($,(-22.0833333333333,-13.4259259259259,4.49537037037037));
#275=CARTESIAN_POINT($,(-22.8125,-10.09375,5.859375));
#276=CARTESIAN_POINT($,(-23.3333333333333,-6.74074074074074,6.96296296296296));
#277=CARTESIAN_POINT($,(-23.6458333333333,-3.37384259259259,7.80266203703704));
#278=CARTESIAN_POINT($,(-23.75,-0,8.375));
#279=CARTESIAN_POINT($,(-23.6458333333333,3.3738425925926,8.67650462962963));
#280=CARTESIAN_POINT($,(-23.3333333333333,6.74074074074074,8.70370370370371));
#281=CARTESIAN_POINT($,(-22.8125,10.09375,8.453125));
#282=CARTESIAN_POINT($,(-22.0833333333333,13.4259259259259,7.9212962962963));
#283=CARTESIAN_POINT($,(-21.1458333333333,16.7303240740741,7.10474537037037));
#284=CARTESIAN_POINT($,(-20,20,6));
#285=CARTESIAN_POINT($,(-15,-20,1));
#286=CARTESIAN_POINT($,(-16.1458333333333,-16.7303240740741,2.8744212962963));
#287=CARTESIAN_POINT($,(-17.0833333333333,-13.4259259259259,4.49537037037037));
#288=CARTESIAN_POINT($,(-17.8125,-10.09375,5.859375));
#289=CARTESIAN_POINT($,(-18.3333333333333,-6.74074074074074,6.96296296296296));
#290=CARTESIAN_POINT($,(-18.6458333333333,-3.37384259259259,7.80266203703704));
#291=CARTESIAN_POINT($,(-18.75,0,8.375));
#292=CARTESIAN_POINT($,(-18.6458333333333,3.3738425925926,8.67650462962963));
#293=CARTESIAN_POINT($,(-18.3333333333333,6.74074074074074,8.7037037037037));
#294=CARTESIAN_POINT($,(-17.8125,10.09375,8.453125));
#295=CARTESIAN_POINT($,(-17.0833333333333,13.4259259259259,7.9212962962963));
#296=CARTESIAN_POINT($,(-16.1458333333333,16.7303240740741,7.10474537037037));
#297=CARTESIAN_POINT($,(-15,20,6));
#298=CARTESIAN_POINT($,(-10,-20,1));
#299=CARTESIAN_POINT($,(-11.1458333333333,-16.7303240740741,2.8744212962963));
#300=CARTESIAN_POINT($,(-12.0833333333333,-13.4259259259259,4.49537037037037));
#301=CARTESIAN_POINT($,(-12.8125,-10.09375,5.859375));
#302=CARTESIAN_POINT($,(-13.3333333333333,-6.74074074074074,6.96296296296296));
#303=CARTESIAN_POINT($,(-13.6458333333333,-3.37384259259259,7.80266203703704));
#304=CARTESIAN_POINT($,(-13.75,-0.000000000000001,8.375));
#305=CARTESIAN_POINT($,(-13.6458333333333,3.37384259259259,8.67650462962963));
#306=CARTESIAN_POINT($,(-13.3333333333333,6.74074074074074,8.7037037037037));
#307=CARTESIAN_POINT($,(-12.8125,10.09375,8.453125));
#308=CARTESIAN_POINT($,(-12.0833333333333,13.4259259259259,7.92129629629629));
#309=CARTESIAN_POINT($,(-11.1458333333333,16.7303240740741,7.10474537037037));
#310=CARTESIAN_POINT($,(-10,20,6));
#311=CARTESIAN_POINT($,(-5,-20,1));
#312=CARTESIAN_POINT($,(-6.14583333333333,-16.7303240740741,2.8744212962963));
#313=CARTESIAN_POINT($,(-7.08333333333333,-13.4259259259259,4.49537037037037));
#314=CARTESIAN_POINT($,(-7.8125,-10.09375,5.859375));
#315=CARTESIAN_POINT($,(-8.33333333333334,-6.74074074074074,6.96296296296296));
#316=CARTESIAN_POINT($,(-8.64583333333334,-3.37384259259259,7.80266203703704));
#317=CARTESIAN_POINT($,(-8.75,0.000000000000001,8.375));
#318=CARTESIAN_POINT($,(-8.64583333333334,3.3738425925926,8.67650462962963));
#319=CARTESIAN_POINT($,(-8.33333333333334,6.74074074074074,8.7037037037037));
#320=CARTESIAN_POINT($,(-7.8125,10.09375,8.453125));
#321=CARTESIAN_POINT($,(-7.08333333333333,13.4259259259259,7.92129629629629));
#322=CARTESIAN_POINT($,(-6.14583333333333,16.7303240740741,7.10474537037037));
#323=CARTESIAN_POINT($,(-5,20,6));
#324=CARTESIAN_POINT($,(0,-20,1));
#325=CARTESIAN_POINT($,(-1.14583333333333,-16.7303240740741,2.8744212962963));
#326=CARTESIAN_POINT($,(-2.08333333333334,-13.4259259259259,4.49537037037037));
#327=CARTESIAN_POINT($,(-2.8125,-10.09375,5.859375));
#328=CARTESIAN_POINT($,(-3.33333333333333,-6.74074074074074,6.96296296296296));
#329=CARTESIAN_POINT($,(-3.64583333333334,-3.37384259259259,7.80266203703704));
#330=CARTESIAN_POINT($,(-3.75,0,8.375));
#331=CARTESIAN_POINT($,(-3.64583333333333,3.3738425925926,8.67650462962963));
#332=CARTESIAN_POINT($,(-3.33333333333333,6.74074074074074,8.70370370370371));
#333=CARTESIAN_POINT($,(-2.8125,10.09375,8.453125));
#334=CARTESIAN_POINT($,(-2.08333333333334,13.4259259259259,7.92129629629629));
#335=CARTESIAN_POINT($,(-1.14583333333334,16.7303240740741,7.10474537037037));
#336=CARTESIAN_POINT($,(0,20,6));
#337=CARTESIAN_POINT($,(5,-20,1));
#338=CARTESIAN_POINT($,(3.85416666666667,-16.7303240740741,2.8744212962963));
#339=CARTESIAN_POINT($,(2.91666666666666,-13.4259259259259,4.49537037037037));
#340=CARTESIAN_POINT($,(2.1875,-10.09375,5.859375));
#341=CARTESIAN_POINT($,(1.66666666666667,-6.74074074074074,6.96296296296296));
#342=CARTESIAN_POINT($,(1.35416666666667,-3.37384259259259,7.80266203703704));
#343=CARTESIAN_POINT($,(1.25,0,8.375));
#344=CARTESIAN_POINT($,(1.35416666666667,3.37384259259259,8.67650462962963));
#345=CARTESIAN_POINT($,(1.66666666666667,6.74074074074074,8.70370370370371));
#346=CARTESIAN_POINT($,(2.1875,10.09375,8.453125));
#347=CARTESIAN_POINT($,(2.91666666666666,13.4259259259259,7.92129629629629));
#348=CARTESIAN_POINT($,(3.85416666666666,16.7303240740741,7.10474537037037));
#349=CARTESIAN_POINT($,(5,20,6));
#350=CARTESIAN_POINT($,(10,-20,1));
#351=CARTESIAN_POINT($,(8.85416666666667,-16.7303240740741,2.8744212962963));
#352=CARTESIAN_POINT($,(7.91666666666666,-13.4259259259259,4.49537037037037));
#353=CARTESIAN_POINT($,(7.1875,-10.09375,5.859375));
#354=CARTESIAN_POINT($,(6.66666666666667,-6.74074074074074,6.96296296296296));
#355=CARTESIAN_POINT($,(6.35416666666667,-3.37384259259259,7.80266203703704));
#356=CARTESIAN_POINT($,(6.25,0,8.375));
#357=CARTESIAN_POINT($,(6.35416666666667,3.3738425925926,8.67650462962963));
#358=CARTESIAN_POINT($,(6.66666666666667,6.74074074074074,8.7037037037037));
#359=CARTESIAN_POINT($,(7.1875,10.09375,8.453125));
#360=CARTESIAN_POINT($,(7.91666666666666,13.4259259259259,7.92129629629629));
#361=CARTESIAN_POINT($,(8.85416666666666,16.7303240740741,7.10474537037037));
#362=CARTESIAN_POINT($,(10,20,6));
#363=CARTESIAN_POINT($,(15,-20,1));
#364=CARTESIAN_POINT($,(13.8541666666667,-16.7303240740741,2.8744212962963));
#365=CARTESIAN_POINT($,(12.9166666666667,-13.4259259259259,4.49537037037037));
#366=CARTESIAN_POINT($,(12.1875,-10.09375,5.859375));
#367=CARTESIAN_POINT($,(11.6666666666667,-6.74074074074074,6.96296296296296));
#368=CARTESIAN_POINT($,(11.3541666666667,-3.37384259259259,7.80266203703704));
#369=CARTESIAN_POINT($,(11.25,0,8.375));
#370=CARTESIAN_POINT($,(11.3541666666667,3.3738425925926,8.67650462962963));
#371=CARTESIAN_POINT($,(11.6666666666667,6.74074074074074,8.70370370370371));
#372=CARTESIAN_POINT($,(12.1875,10.09375,8.453125));
#373=CARTESIAN_POINT($,(12.9166666666667,13.4259259259259,7.92129629629629));
#374=CARTESIAN_POINT($,(13.8541666666667,16.7303240740741,7.10474537037037));
#375=CARTESIAN_POINT($,(15,20,6));
#376=CARTESIAN_POINT($,(20,-20,1));
#377=CARTESIAN_POINT($,(18.8541666666667,-16.7303240740741,2.8744212962963));
#378=CARTESIAN_POINT($,(17.9166666666667,-13.4259259259259,4.49537037037037));
#379=CARTESIAN_POINT($,(17.1875,-10.09375,5.859375));
#380=CARTESIAN_POINT($,(16.6666666666667,-6.74074074074074,6.96296296296296));
#381=CARTESIAN_POINT($,(16.3541666666667,-3.37384259259259,7.80266203703704));
#382=CARTESIAN_POINT($,(16.25,0,8.375));
#383=CARTESIAN_POINT($,(16.3541666666667,3.37384259259259,8.67650462962963));
#384=CARTESIAN_POINT($,(16.6666666666667,6.74074074074074,8.70370370370371));
#385=CARTESIAN_POINT($,(17.1875,10.09375,8.453125));
#386=CARTESIAN_POINT($,(17.9166666666667,13.4259259259259,7.92129629629629));
#387=CARTESIAN_POINT($,(18.8541666666667,16.7303240740741,7.10474537037037));
#388=CARTESIAN_POINT($,(20,20,6));
#389=CARTESIAN_POINT($,(25,-20,1));
#390=CARTESIAN_POINT($,(23.8541666666667,-16.7303240740741,2.8744212962963));
#391=CARTESIAN_POINT($,(22.9166666666667,-13.4259259259259,4.49537037037037));
#392=CARTESIAN_POINT($,(22.1875,-10.09375,5.859375));
#393=CARTESIAN_POINT($,(21.6666666666667,-6.74074074074074,6.96296296296296));
#394=CARTESIAN_POINT($,(21.3541666666667,-3.37384259259259,7.80266203703704));
#395=CARTESIAN_POINT($,(21.25,0,8.375));
#396=CARTESIAN_POINT($,(21.3541666666667,3.3738425925926,8.67650462962963));
#397=CARTESIAN_POINT($,(21.6666666666667,6.74074074074074,8.70370370370371));
#398=CARTESIAN_POINT($,(22.1875,10.09375,8.453125));
#399=CARTESIAN_POINT($,(22.9166666666667,13.4259259259259,7.92129629629629));
#400=CARTESIAN_POINT($,(23.8541666666667,16.7303240740741,7.10474537037037));
#401=CARTESIAN_POINT($,(25,20,6));
#402=CARTESIAN_POINT($,(30,-20,1));
#403=CARTESIAN_POINT($,(28.8541666666667,-16.7303240740741,2.8744212962963));
#404=CARTESIAN_POINT($,(27.9166666666667,-13.4259259259259,4.49537037037037));
#405=CARTESIAN_POINT($,(27.1875,-10.09375,5.859375));
#406=CARTESIAN_POINT($,(26.6666666666667,-6.74074074074074,6.96296296296296));
#407=CARTESIAN_POINT($,(26.3541666666667,-3.37384259259259,7.80266203703704));
#408=CARTESIAN_POINT($,(26.25,0,8.375));
#409=CARTESIAN_POINT($,(26.3541666666667,3.37384259259259,8.67650462962963));
#410=CARTESIAN_POINT($,(26.6666666666667,6.74074074074074,8.70370370370371));
#411=CARTESIAN_POINT($,(27.1875,10.09375,8.453125));
#412=CARTESIAN_POINT($,(27.9166666666667,13.4259259259259,7.92129629629629));
#413=CARTESIAN_POINT($,(28.8541666666667,16.7303240740741,7.10474537037037));
#414=CARTESIAN_POINT($,(30,20,6));
#415=B_SPLINE_SURFACE_WITH_KNOTS($,1,1,((#246,#247,#248,#249,#250,#251,#252,#253,#254,#255,#256,#257,#258),(#259,#260,#261,#262,#263,#264,#265,#266,#267,#268,#269,#270,#271),(#272,#273,#274,#275,#276,#277,#278,#279,#280,#281,#282,#283,#284),(#285,#286,#287,#288,#289,#290,#291,#292,#293,#294,#295,#296,#297),(#298,#299,#300,#301,#302,#303,#304,#305,#306,#307,#308,#309,#310),(#311,#312,#313,#314,#315,#316,#317,#318,#319,#320,#321,#322,#323),(#324,#325,#326,#327,#328,#329,#330,#331,#332,#333,#334,#335,#336),(#337,#338,#339,#340,#341,#342,#343,#344,#345,#346,#347,#348,#349),(#350,#351,#352,#353,#354,#355,#356,#357,#358,#359,#360,#361,#362),(#363,#364,#365,#366,#367,#368,#369,#370,#371,#372,#373,#374,#375),(#376,#377,#378,#379,#380,#381,#382,#383,#384,#385,#386,#387,#388),(#389,#390,#391,#392,#393,#394,#395,#396,#397,#398,#399,#400,#401),(#402,#403,#404,#405,#406,#407,#408,#409,#410,#411,#412,#413,#414)),.UNSPECIFIED.,.F.,.F.,.F.,(2,1,1,1,1,1,1,1,1,1,1,1,2),(2,1,1,1,1,1,1,1,1,1,1,1,2),(0,0.083333333333333,0.166666666666667,0.25,0.333333333333333,0.416666666666667,0.5,0.583333333333333,0.666666666666667,0.75,0.833333333333333,0.916666666666667,1),(0,0.083333333333333,0.166666666666667,0.25,0.333333333333333,0.416666666666667,0.5,0.583333333333333,0.666666666666667,0.75,0.833333333333333,0.916666666666667,1),.UNSPECIFIED.);
#416=CARTESIAN_POINT($,(-30,20,6));
#417=VERTEX_POINT($,#416);
#418=CARTESIAN_POINT($,(-30,-20,1));
#419=VERTEX_POINT($,#418);
#420=CARTESIAN_POINT($,(-30,20,6));
#421=CARTESIAN_POINT($,(-31.1458333333333,16.7303240740741,7.10474537037037));
#422=CARTESIAN_POINT($,(-32.0833333333333,13.4259259259259,7.92129629629629));
#423=CARTESIAN_POINT($,(-32.8125,10.09375,8.453125));
#424=CARTESIAN_POINT($,(-33.3333333333333,6.74074074074074,8.70370370370371));
#425=CARTESIAN_POINT($,(-33.6458333333333,3.37384259259259,8.67650462962963));
#426=CARTESIAN_POINT($,(-33.75,0,8.375));
#427=CARTESIAN_POINT($,(-33.6458333333333,-3.37384259259259,7.80266203703704));
#428=CARTESIAN_POINT($,(-33.3333333333333,-6.74074074074074,6.96296296296296));
#429=CARTESIAN_POINT($,(-32.8125,-10.09375,5.859375));
#430=CARTESIAN_POINT($,(-32.0833333333333,-13.4259259259259,4.49537037037037));
#431=CARTESIAN_POINT($,(-31.1458333333333,-16.7303240740741,2.8744212962963));
#432=CARTESIAN_POINT($,(-30,-20,1));
#433=B_SPLINE_CURVE_WITH_KNOTS($,1,(#420,#421,#422,#423,#424,#425,#426,#427,#428,#429,#430,#431,#432),.UNSPECIFIED.,.F.,.F.,(2,1,1,1,1,1,1,1,1,1,1,1,2),(0,0.083333333333333,0.166666666666667,0.25,0.333333333333333,0.416666666666667,0.5,0.583333333333333,0.666666666666667,0.75,0.833333333333333,0.916666666666667,1),.UNSPECIFIED.);
#434=EDGE_CURVE($,#417,#419,#433,.T.);
#435=ORIENTED_EDGE($,$,$,#434,.F.);
#436=CARTESIAN_POINT($,(30,20,6));
#437=VERTEX_POINT($,#436);
#438=CARTESIAN_POINT($,(30,20,6));
#439=CARTESIAN_POINT($,(25,20,6));
#440=CARTESIAN_POINT($,(20,20,6));
#441=CARTESIAN_POINT($,(15,20,6));
#442=CARTESIAN_POINT($,(10,20,6));
#443=CARTESIAN_POINT($,(5,20,6));
#444=CARTESIAN_POINT($,(0,20,6));
#445=CARTESIAN_POINT($,(-5,20,6));
#446=CARTESIAN_POINT($,(-10,20,6));
#447=CARTESIAN_POINT($,(-15,20,6));
#448=CARTESIAN_POINT($,(-20,20,6));
#449=CARTESIAN_POINT($,(-25,20,6));
#450=CARTESIAN_POINT($,(-30,20,6));
#451=B_SPLINE_CURVE_WITH_KNOTS($,1,(#438,#439,#440,#441,#442,#443,#444,#445,#446,#447,#448,#449,#450),.UNSPECIFIED.,.F.,.F.,(2,1,1,1,1,1,1,1,1,1,1,1,2),(0,0.083333333333333,0.166666666666667,0.25,0.333333333333333,0.416666666666667,0.5,0.583333333333333,0.666666666666667,0.75,0.833333333333333,0.916666666666667,1),.UNSPECIFIED.);
#452=EDGE_CURVE($,#437,#417,#451,.T.);
#453=ORIENTED_EDGE($,$,$,#452,.F.);
#454=CARTESIAN_POINT($,(30,-20,1));
#455=VERTEX_POINT($,#454);
#456=CARTESIAN_POINT($,(30,-20,1));
#457=CARTESIAN_POINT($,(28.8541666666667,-16.7303240740741,2.8744212962963));
#458=CARTESIAN_POINT($,(27.9166666666667,-13.4259259259259,4.49537037037037));
#459=CARTESIAN_POINT($,(27.1875,-10.09375,5.859375));
#460=CARTESIAN_POINT($,(26.6666666666667,-6.74074074074074,6.96296296296296));
#461=CARTESIAN_POINT($,(26.3541666666667,-3.37384259259259,7.80266203703704));
#462=CARTESIAN_POINT($,(26.25,0,8.375));
#463=CARTESIAN_POINT($,(26.3541666666667,3.37384259259259,8.67650462962963));
#464=CARTESIAN_POINT($,(26.6666666666667,6.74074074074074,8.70370370370371));
#465=CARTESIAN_POINT($,(27.1875,10.09375,8.453125));
#466=CARTESIAN_POINT($,(27.9166666666667,13.4259259259259,7.92129629629629));
#467=CARTESIAN_POINT($,(28.8541666666667,16.7303240740741,7.10474537037037));
#468=CARTESIAN_POINT($,(30,20,6));
#469=B_SPLINE_CURVE_WITH_KNOTS($,1,(#456,#457,#458,#459,#460,#461,#462,#463,#464,#465,#466,#467,#468),.UNSPECIFIED.,.F.,.F.,(2,1,1,1,1,1,1,1,1,1,1,1,2),(0,0.083333333333333,0.166666666666667,0.25,0.333333333333333,0.416666666666667,0.5,0.583333333333333,0.666666666666667,0.75,0.833333333333333,0.916666666666667,1),.UNSPECIFIED.);
#470=EDGE_CURVE($,#455,#437,#469,.T.);
#471=ORIENTED_EDGE($,$,$,#470,.F.);
#472=CARTESIAN_POINT($,(-30,-20,1));
#473=CARTESIAN_POINT($,(-25,-20,1));
#474=CARTESIAN_POINT($,(-20,-20,1));
#475=CARTESIAN_POINT($,(-15,-20,1));
#476=CARTESIAN_POINT($,(-10,-20,1));
#477=CARTESIAN_POINT($,(-5,-20,1));
#478=CARTESIAN_POINT($,(0,-20,1));
#479=CARTESIAN_POINT($,(5,-20,1));
#480=CARTESIAN_POINT($,(10,-20,1));
#481=CARTESIAN_POINT($,(15,-20,1));
#482=CARTESIAN_POINT($,(20,-20,1));
#483=CARTESIAN_POINT($,(25,-20,1));
#484=CARTESIAN_POINT($,(30,-20,1));
#485=B_SPLINE_CURVE_WITH_KNOTS($,1,(#472,#473,#474,#475,#476,#477,#478,#479,#480,#481,#482,#483,#484),.UNSPECIFIED.,.F.,.F.,(2,1,1,1,1,1,1,1,1,1,1,1,2),(0,0.083333333333333,0.166666666666667,0.25,0.333333333333333,0.416666666666667,0.5,0.583333333333333,0.666666666666667,0.75,0.833333333333333,0.916666666666667,1),.UNSPECIFIED.);
#486=EDGE_CURVE($,#419,#455,#485,.T.);
#487=ORIENTED_EDGE($,$,$,#486,.F.);
#488=EDGE_LOOP($,(#435,#453,#471,#487));
#489=FACE_OUTER_BOUND('',#488,.T.);
#490=ADVANCED_FACE('',(#489),#415,.T.);
#491=CARTESIAN_POINT($,(-30,-20,0));
#492=CARTESIAN_POINT($,(-30,-20,1));
#493=CARTESIAN_POINT($,(-25,-20,0));
#494=CARTESIAN_POINT($,(-25,-20,1));
#495=CARTESIAN_POINT($,(-20,-20,0));
#496=CARTESIAN_POINT($,(-20,-20,1));
#497=CARTESIAN_POINT($,(-15,-20,0));
#498=CARTESIAN_POINT($,(-15,-20,1));
#499=CARTESIAN_POINT($,(-10,-20,0));
#500=CARTESIAN_POINT($,(-10,-20,1));
#501=CARTESIAN_POINT($,(-5,-20,0));
#502=CARTESIAN_POINT($,(-5,-20,1));
#503=CARTESIAN_POINT($,(0,-20,0));
#504=CARTESIAN_POINT($,(0,-20,1));
#505=CARTESIAN_POINT($,(5,-20,0));
#506=CARTESIAN_POINT($,(5,-20,1));
#507=CARTESIAN_POINT($,(10,-20,0));
#508=CARTESIAN_POINT($,(10,-20,1));
#509=CARTESIAN_POINT($,(15,-20,0));
#510=CARTESIAN_POINT($,(15,-20,1));
#511=CARTESIAN_POINT($,(20,-20,0));
#512=CARTESIAN_POINT($,(20,-20,1));
#513=CARTESIAN_POINT($,(25,-20,0));
#514=CARTESIAN_POINT($,(25,-20,1));
#515=CARTESIAN_POINT($,(30,-20,0));
#516=CARTESIAN_POINT($,(30,-20,1));
#517=B_SPLINE_SURFACE_WITH_KNOTS($,1,1,((#491,#492),(#493,#494),(#495,#496),(#497,#498),(#499,#500),(#501,#502),(#503,#504),(#505,#506),(#507,#508),(#509,#510),(#511,#512),(#513,#514),(#515,#516)),.RULED_SURFACE.,.F.,.F.,.F.,(2,1,1,1,1,1,1,1,1,1,1,1,2),(2,2),(0,0.083333333333333,0.166666666666667,0.25,0.333333333333333,0.416666666666667,0.5,0.583333333333333,0.666666666666667,0.75,0.833333333333333,0.916666666666667,1),(0,1),.UNSPECIFIED.);
#518=ORIENTED_EDGE($,$,$,#189,.T.);
#519=CARTESIAN_POINT($,(30,-20,0));
#520=DIRECTION($,(0,0,1));
#521=VECTOR($,#520,1);
#522=LINE($,#519,#521);
#523=EDGE_CURVE($,#174,#455,#522,.T.);
#524=ORIENTED_EDGE($,$,$,#523,.T.);
#525=ORIENTED_EDGE($,$,$,#486,.F.);
#526=CARTESIAN_POINT($,(-30,-20,0));
#527=DIRECTION($,(0,0,1));
#528=VECTOR($,#527,1);
#529=LINE($,#526,#528);
#530=EDGE_CURVE($,#172,#419,#529,.T.);
#531=ORIENTED_EDGE($,$,$,#530,.F.);
#532=EDGE_LOOP($,(#518,#524,#525,#531));
#533=FACE_OUTER_BOUND('',#532,.T.);
#534=ADVANCED_FACE('',(#533),#517,.T.);
#535=CARTESIAN_POINT($,(30,-20,0));
#536=CARTESIAN_POINT($,(30,-20,1));
#537=CARTESIAN_POINT($,(28.8541666666667,-16.7303240740741,1.8744212962963));
#538=CARTESIAN_POINT($,(28.8541666666667,-16.7303240740741,2.8744212962963));
#539=CARTESIAN_POINT($,(27.9166666666667,-13.4259259259259,3.49537037037037));
#540=CARTESIAN_POINT($,(27.9166666666667,-13.4259259259259,4.49537037037037));
#541=CARTESIAN_POINT($,(27.1875,-10.09375,4.859375));
#542=CARTESIAN_POINT($,(27.1875,-10.09375,5.859375));
#543=CARTESIAN_POINT($,(26.6666666666667,-6.74074074074074,5.96296296296296));
#544=CARTESIAN_POINT($,(26.6666666666667,-6.74074074074074,6.96296296296296));
#545=CARTESIAN_POINT($,(26.3541666666667,-3.37384259259259,6.80266203703704));
#546=CARTESIAN_POINT($,(26.3541666666667,-3.37384259259259,7.80266203703704));
#547=CARTESIAN_POINT($,(26.25,0,7.375));
#548=CARTESIAN_POINT($,(26.25,0,8.375));
#549=CARTESIAN_POINT($,(26.3541666666667,3.37384259259259,7.67650462962963));
#550=CARTESIAN_POINT($,(26.3541666666667,3.37384259259259,8.67650462962963));
#551=CARTESIAN_POINT($,(26.6666666666667,6.74074074074074,7.70370370370371));
#552=CARTESIAN_POINT($,(26.6666666666667,6.74074074074074,8.70370370370371));
#553=CARTESIAN_POINT($,(27.1875,10.09375,7.453125));
#554=CARTESIAN_POINT($,(27.1875,10.09375,8.453125));
#555=CARTESIAN_POINT($,(27.9166666666667,13.4259259259259,6.92129629629629));
#556=CARTESIAN_POINT($,(27.9166666666667,13.4259259259259,7.92129629629629));
#557=CARTESIAN_POINT($,(28.8541666666667,16.7303240740741,6.10474537037037));
#558=CARTESIAN_POINT($,(28.8541666666667,16.7303240740741,7.10474537037037));
#559=CARTESIAN_POINT($,(30,20,5));
#560=CARTESIAN_POINT($,(30,20,6));
#561=B_SPLINE_SURFACE_WITH_KNOTS($,1,1,((#535,#536),(#537,#538),(#539,#540),(#541,#542),(#543,#544),(#545,#546),(#547,#548),(#549,#550),(#551,#552),(#553,#554),(#555,#556),(#557,#558),(#559,#560)),.RULED_SURFACE.,.F.,.F.,.F.,(2,1,1,1,1,1,1,1,1,1,1,1,2),(2,2),(0,0.083333333333333,0.166666666666667,0.25,0.333333333333333,0.416666666666667,0.5,0.583333333333333,0.666666666666667,0.75,0.833333333333333,0.916666666666667,1),(0,1),.UNSPECIFIED.);
#562=ORIENTED_EDGE($,$,$,#207,.T.);
#563=CARTESIAN_POINT($,(30,20,5));
#564=DIRECTION($,(0,0,1));
#565=VECTOR($,#564,1);
#566=LINE($,#563,#565);
#567=EDGE_CURVE($,#192,#437,#566,.T.);
#568=ORIENTED_EDGE($,$,$,#567,.T.);
#569=ORIENTED_EDGE($,$,$,#470,.F.);
#570=ORIENTED_EDGE($,$,$,#523,.F.);
#571=EDGE_LOOP($,(#562,#568,#569,#570));
#572=FACE_OUTER_BOUND('',#571,.T.);
#573=ADVANCED_FACE('',(#572),#561,.T.);
#574=CARTESIAN_POINT($,(30,20,5));
#575=CARTESIAN_POINT($,(30,20,6));
#576=CARTESIAN_POINT($,(25,20,5));
#577=CARTESIAN_POINT($,(25,20,6));
#578=CARTESIAN_POINT($,(20,20,5));
#579=CARTESIAN_POINT($,(20,20,6));
#580=CARTESIAN_POINT($,(15,20,5));
#581=CARTESIAN_POINT($,(15,20,6));
#582=CARTESIAN_POINT($,(10,20,5));
#583=CARTESIAN_POINT($,(10,20,6));
#584=CARTESIAN_POINT($,(5,20,5));
#585=CARTESIAN_POINT($,(5,20,6));
#586=CARTESIAN_POINT($,(0,20,5));
#587=CARTESIAN_POINT($,(0,20,6));
#588=CARTESIAN_POINT($,(-5,20,5));
#589=CARTESIAN_POINT($,(-5,20,6));
#590=CARTESIAN_POINT($,(-10,20,5));
#591=CARTESIAN_POINT($,(-10,20,6));
#592=CARTESIAN_POINT($,(-15,20,5));
#593=CARTESIAN_POINT($,(-15,20,6));
#594=CARTESIAN_POINT($,(-20,20,5));
#595=CARTESIAN_POINT($,(-20,20,6));
#596=CARTESIAN_POINT($,(-25,20,5));
#597=CARTESIAN_POINT($,(-25,20,6));
#598=CARTESIAN_POINT($,(-30,20,5));
#599=CARTESIAN_POINT($,(-30,20,6));
#600=B_SPLINE_SURFACE_WITH_KNOTS($,1,1,((#574,#575),(#576,#577),(#578,#579),(#580,#581),(#582,#583),(#584,#585),(#586,#587),(#588,#589),(#590,#591),(#592,#593),(#594,#595),(#596,#597),(#598,#599)),.RULED_SURFACE.,.F.,.F.,.F.,(2,1,1,1,1,1,1,1,1,1,1,1,2),(2,2),(0,0.083333333333333,0.166666666666667,0.25,0.333333333333333,0.416666666666667,0.5,0.583333333333333,0.666666666666667,0.75,0.833333333333333,0.916666666666667,1),(0,1),.UNSPECIFIED.);
#601=ORIENTED_EDGE($,$,$,#225,.T.);
#602=CARTESIAN_POINT($,(-30,20,5));
#603=DIRECTION($,(0,0,1));
#604=VECTOR($,#603,1);
#605=LINE($,#602,#604);
#606=EDGE_CURVE($,#210,#417,#605,.T.);
#607=ORIENTED_EDGE($,$,$,#606,.T.);
#608=ORIENTED_EDGE($,$,$,#452,.F.);
#609=ORIENTED_EDGE($,$,$,#567,.F.);
#610=EDGE_LOOP($,(#601,#607,#608,#609));
#611=FACE_OUTER_BOUND('',#610,.T.);
#612=ADVANCED_FACE('',(#611),#600,.T.);
#613=CARTESIAN_POINT($,(-30,20,5));
#614=CARTESIAN_POINT($,(-30,20,6));
#615=CARTESIAN_POINT($,(-31.1458333333333,16.7303240740741,6.10474537037037));
#616=CARTESIAN_POINT($,(-31.1458333333333,16.7303240740741,7.10474537037037));
#617=CARTESIAN_POINT($,(-32.0833333333333,13.4259259259259,6.92129629629629));
#618=CARTESIAN_POINT($,(-32.0833333333333,13.4259259259259,7.92129629629629));
#619=CARTESIAN_POINT($,(-32.8125,10.09375,7.453125));
#620=CARTESIAN_POINT($,(-32.8125,10.09375,8.453125));
#621=CARTESIAN_POINT($,(-33.3333333333333,6.74074074074074,7.70370370370371));
#622=CARTESIAN_POINT($,(-33.3333333333333,6.74074074074074,8.70370370370371));
#623=CARTESIAN_POINT($,(-33.6458333333333,3.37384259259259,7.67650462962963));
#624=CARTESIAN_POINT($,(-33.6458333333333,3.37384259259259,8.67650462962963));
#625=CARTESIAN_POINT($,(-33.75,0,7.375));
#626=CARTESIAN_POINT($,(-33.75,0,8.375));
#627=CARTESIAN_POINT($,(-33.6458333333333,-3.37384259259259,6.80266203703704));
#628=CARTESIAN_POINT($,(-33.6458333333333,-3.37384259259259,7.80266203703704));
#629=CARTESIAN_POINT($,(-33.3333333333333,-6.74074074074074,5.96296296296296));
#630=CARTESIAN_POINT($,(-33.3333333333333,-6.74074074074074,6.96296296296296));
#631=CARTESIAN_POINT($,(-32.8125,-10.09375,4.859375));
#632=CARTESIAN_POINT($,(-32.8125,-10.09375,5.859375));
#633=CARTESIAN_POINT($,(-32.0833333333333,-13.4259259259259,3.49537037037037));
#634=CARTESIAN_POINT($,(-32.0833333333333,-13.4259259259259,4.49537037037037));
#635=CARTESIAN_POINT($,(-31.1458333333333,-16.7303240740741,1.8744212962963));
#636=CARTESIAN_POINT($,(-31.1458333333333,-16.7303240740741,2.8744212962963));
#637=CARTESIAN_POINT($,(-30,-20,0));
#638=CARTESIAN_POINT($,(-30,-20,1));
#639=B_SPLINE_SURFACE_WITH_KNOTS($,1,1,((#613,#614),(#615,#616),(#617,#618),(#619,#620),(#621,#622),(#623,#624),(#625,#626),(#627,#628),(#629,#630),(#631,#632),(#633,#634),(#635,#636),(#637,#638)),.RULED_SURFACE.,.F.,.F.,.F.,(2,1,1,1,1,1,1,1,1,1,1,1,2),(2,2),(0,0.083333333333333,0.166666666666667,0.25,0.333333333333333,0.416666666666667,0.5,0.583333333333333,0.666666666666667,0.75,0.833333333333333,0.916666666666667,1),(0,1),.UNSPECIFIED.);
#640=ORIENTED_EDGE($,$,$,#241,.T.);
#641=ORIENTED_EDGE($,$,$,#530,.T.);
#642=ORIENTED_EDGE($,$,$,#434,.F.);
#643=ORIENTED_EDGE($,$,$,#606,.F.);
#644=EDGE_LOOP($,(#640,#641,#642,#643));
#645=FACE_OUTER_BOUND('',#644,.T.);
#646=ADVANCED_FACE('',(#645),#639,.T.);
#647=CLOSED_SHELL($,(#245,#490,#534,#573,#612,#646));
#648=MANIFOLD_SOLID_BREP('AetherisBody',#647);
#649=APPLICATION_CONTEXT('mechanical design');
#650=PRODUCT_CONTEXT('',#649,'mechanical');
#651=PRODUCT('AETHERIS','AetherisBody','',(#650));
#652=PRODUCT_DEFINITION_FORMATION('','',#651);
#653=PRODUCT_DEFINITION_CONTEXT('design',#649,'design');
#654=PRODUCT_DEFINITION('','',#652,#653);
#655=PRODUCT_DEFINITION_SHAPE('','',#654);
#656=(LENGTH_UNIT()NAMED_UNIT(*)SI_UNIT(.MILLI.,.METRE.));
#657=(NAMED_UNIT(*)PLANE_ANGLE_UNIT()SI_UNIT($,.RADIAN.));
#658=(NAMED_UNIT(*)SI_UNIT($,.STERADIAN.)SOLID_ANGLE_UNIT());
#659=(GEOMETRIC_REPRESENTATION_CONTEXT(3)GLOBAL_UNIT_ASSIGNED_CONTEXT((#656,#657,#658))REPRESENTATION_CONTEXT('3','3D'));
#660=SHAPE_REPRESENTATION('AetherisBody',(#648),#659);
#661=SHAPE_DEFINITION_REPRESENTATION(#655,#660);
ENDSEC;
END-ISO-10303-21;
