ISO-10303-21;
HEADER;
FILE_DESCRIPTION(('Aetheris AP242 subset export'),'2;1');
FILE_NAME('aetheris_export.step','1970-01-01T00:00:00',('Aetheris'),('Aetheris'),'Aetheris.Kernel','Aetheris.Kernel','');
FILE_SCHEMA(('AP242_MANAGED_MODEL_BASED_3D_ENGINEERING_MIM_LF'));
ENDSEC;
DATA;
#1=CARTESIAN_POINT($,(0,0,0));
#2=DIRECTION($,(-0,-0,-1));
#3=DIRECTION($,(1,0,0));
#4=AXIS2_PLACEMENT_3D($,#1,#2,#3);
#5=PLANE($,#4);
#6=CARTESIAN_POINT($,(0,0,0));
#7=VERTEX_POINT($,#6);
#8=CARTESIAN_POINT($,(420,-0,-0));
#9=VERTEX_POINT($,#8);
#10=CARTESIAN_POINT($,(0,0,0));
#11=DIRECTION($,(1,0,0));
#12=VECTOR($,#11,1);
#13=LINE($,#10,#12);
#14=EDGE_CURVE($,#7,#9,#13,.T.);
#15=ORIENTED_EDGE($,$,$,#14,.T.);
#16=CARTESIAN_POINT($,(420,100,-0));
#17=VERTEX_POINT($,#16);
#18=CARTESIAN_POINT($,(420,-0,-0));
#19=DIRECTION($,(0,1,0));
#20=VECTOR($,#19,1);
#21=LINE($,#18,#20);
#22=EDGE_CURVE($,#9,#17,#21,.T.);
#23=ORIENTED_EDGE($,$,$,#22,.T.);
#24=CARTESIAN_POINT($,(400,100,-0));
#25=VERTEX_POINT($,#24);
#26=CARTESIAN_POINT($,(420,100,-0));
#27=DIRECTION($,(-1,0,0));
#28=VECTOR($,#27,1);
#29=LINE($,#26,#28);
#30=EDGE_CURVE($,#17,#25,#29,.T.);
#31=ORIENTED_EDGE($,$,$,#30,.T.);
#32=CARTESIAN_POINT($,(400,60,0));
#33=VERTEX_POINT($,#32);
#34=CARTESIAN_POINT($,(400,100,-0));
#35=DIRECTION($,(0,-1,0));
#36=VECTOR($,#35,1);
#37=LINE($,#34,#36);
#38=EDGE_CURVE($,#25,#33,#37,.T.);
#39=ORIENTED_EDGE($,$,$,#38,.T.);
#40=CARTESIAN_POINT($,(360,60,0));
#41=VERTEX_POINT($,#40);
#42=CARTESIAN_POINT($,(400,60,0));
#43=DIRECTION($,(-1,0,0));
#44=VECTOR($,#43,1);
#45=LINE($,#42,#44);
#46=EDGE_CURVE($,#33,#41,#45,.T.);
#47=ORIENTED_EDGE($,$,$,#46,.T.);
#48=CARTESIAN_POINT($,(358,62,0));
#49=VERTEX_POINT($,#48);
#50=CARTESIAN_POINT($,(360,62,0));
#51=DIRECTION($,(0,0,1));
#52=DIRECTION($,(1,0,0));
#53=AXIS2_PLACEMENT_3D($,#50,#51,#52);
#54=CIRCLE($,#53,2);
#55=TRIMMED_CURVE($,#54,(PARAMETER_VALUE(-3.1415926535898)),(PARAMETER_VALUE(-1.5707963267949)),.T.,.PARAMETER.);
#56=EDGE_CURVE($,#41,#49,#55,.F.);
#57=ORIENTED_EDGE($,$,$,#56,.T.);
#58=CARTESIAN_POINT($,(358,100,-0));
#59=VERTEX_POINT($,#58);
#60=CARTESIAN_POINT($,(358,62,0));
#61=DIRECTION($,(0,1,0));
#62=VECTOR($,#61,1);
#63=LINE($,#60,#62);
#64=EDGE_CURVE($,#49,#59,#63,.T.);
#65=ORIENTED_EDGE($,$,$,#64,.T.);
#66=CARTESIAN_POINT($,(316,100,0));
#67=VERTEX_POINT($,#66);
#68=CARTESIAN_POINT($,(358,100,-0));
#69=DIRECTION($,(-1,0,0));
#70=VECTOR($,#69,1);
#71=LINE($,#68,#70);
#72=EDGE_CURVE($,#59,#67,#71,.T.);
#73=ORIENTED_EDGE($,$,$,#72,.T.);
#74=CARTESIAN_POINT($,(312,96,0));
#75=VERTEX_POINT($,#74);
#76=CARTESIAN_POINT($,(316,96,0));
#77=DIRECTION($,(0,0,1));
#78=DIRECTION($,(1,0,0));
#79=AXIS2_PLACEMENT_3D($,#76,#77,#78);
#80=CIRCLE($,#79,4);
#81=TRIMMED_CURVE($,#80,(PARAMETER_VALUE(1.5707963267949)),(PARAMETER_VALUE(3.1415926535898)),.T.,.PARAMETER.);
#82=EDGE_CURVE($,#67,#75,#81,.T.);
#83=ORIENTED_EDGE($,$,$,#82,.T.);
#84=CARTESIAN_POINT($,(312,64,0));
#85=VERTEX_POINT($,#84);
#86=CARTESIAN_POINT($,(312,96,0));
#87=DIRECTION($,(0,-1,0));
#88=VECTOR($,#87,1);
#89=LINE($,#86,#88);
#90=EDGE_CURVE($,#75,#85,#89,.T.);
#91=ORIENTED_EDGE($,$,$,#90,.T.);
#92=CARTESIAN_POINT($,(308,60,0));
#93=VERTEX_POINT($,#92);
#94=CARTESIAN_POINT($,(308,64,0));
#95=DIRECTION($,(0,0,1));
#96=DIRECTION($,(1,0,0));
#97=AXIS2_PLACEMENT_3D($,#94,#95,#96);
#98=CIRCLE($,#97,4);
#99=TRIMMED_CURVE($,#98,(PARAMETER_VALUE(-1.5707963267949)),(PARAMETER_VALUE(0)),.T.,.PARAMETER.);
#100=EDGE_CURVE($,#85,#93,#99,.F.);
#101=ORIENTED_EDGE($,$,$,#100,.T.);
#102=CARTESIAN_POINT($,(268,60,0));
#103=VERTEX_POINT($,#102);
#104=CARTESIAN_POINT($,(308,60,0));
#105=DIRECTION($,(-1,0,0));
#106=VECTOR($,#105,1);
#107=LINE($,#104,#106);
#108=EDGE_CURVE($,#93,#103,#107,.T.);
#109=ORIENTED_EDGE($,$,$,#108,.T.);
#110=CARTESIAN_POINT($,(260,68,0));
#111=VERTEX_POINT($,#110);
#112=CARTESIAN_POINT($,(268,68,0));
#113=DIRECTION($,(0,0,1));
#114=DIRECTION($,(1,0,0));
#115=AXIS2_PLACEMENT_3D($,#112,#113,#114);
#116=CIRCLE($,#115,8);
#117=TRIMMED_CURVE($,#116,(PARAMETER_VALUE(-3.1415926535898)),(PARAMETER_VALUE(-1.5707963267949)),.T.,.PARAMETER.);
#118=EDGE_CURVE($,#103,#111,#117,.F.);
#119=ORIENTED_EDGE($,$,$,#118,.T.);
#120=CARTESIAN_POINT($,(260,92,0));
#121=VERTEX_POINT($,#120);
#122=CARTESIAN_POINT($,(260,68,0));
#123=DIRECTION($,(0,1,0));
#124=VECTOR($,#123,1);
#125=LINE($,#122,#124);
#126=EDGE_CURVE($,#111,#121,#125,.T.);
#127=ORIENTED_EDGE($,$,$,#126,.T.);
#128=CARTESIAN_POINT($,(252,100,0));
#129=VERTEX_POINT($,#128);
#130=CARTESIAN_POINT($,(252,92,0));
#131=DIRECTION($,(0,0,1));
#132=DIRECTION($,(1,0,0));
#133=AXIS2_PLACEMENT_3D($,#130,#131,#132);
#134=CIRCLE($,#133,8);
#135=TRIMMED_CURVE($,#134,(PARAMETER_VALUE(0)),(PARAMETER_VALUE(1.5707963267949)),.T.,.PARAMETER.);
#136=EDGE_CURVE($,#121,#129,#135,.T.);
#137=ORIENTED_EDGE($,$,$,#136,.T.);
#138=CARTESIAN_POINT($,(-0,100,-0));
#139=VERTEX_POINT($,#138);
#140=CARTESIAN_POINT($,(252,100,0));
#141=DIRECTION($,(-1,0,0));
#142=VECTOR($,#141,1);
#143=LINE($,#140,#142);
#144=EDGE_CURVE($,#129,#139,#143,.T.);
#145=ORIENTED_EDGE($,$,$,#144,.T.);
#146=CARTESIAN_POINT($,(-0,100,-0));
#147=DIRECTION($,(0,-1,0));
#148=VECTOR($,#147,1);
#149=LINE($,#146,#148);
#150=EDGE_CURVE($,#139,#7,#149,.T.);
#151=ORIENTED_EDGE($,$,$,#150,.T.);
#152=EDGE_LOOP($,(#15,#23,#31,#39,#47,#57,#65,#73,#83,#91,#101,#109,#119,#127,#137,#145,#151));
#153=FACE_OUTER_BOUND('',#152,.T.);
#154=ADVANCED_FACE('',(#153),#5,.T.);
#155=CARTESIAN_POINT($,(0,0,24));
#156=DIRECTION($,(0,0,1));
#157=DIRECTION($,(1,0,0));
#158=AXIS2_PLACEMENT_3D($,#155,#156,#157);
#159=PLANE($,#158);
#160=CARTESIAN_POINT($,(-0,-0,24));
#161=VERTEX_POINT($,#160);
#162=CARTESIAN_POINT($,(420,0,24));
#163=VERTEX_POINT($,#162);
#164=CARTESIAN_POINT($,(-0,-0,24));
#165=DIRECTION($,(1,0,0));
#166=VECTOR($,#165,1);
#167=LINE($,#164,#166);
#168=EDGE_CURVE($,#161,#163,#167,.T.);
#169=ORIENTED_EDGE($,$,$,#168,.T.);
#170=CARTESIAN_POINT($,(420,100,24));
#171=VERTEX_POINT($,#170);
#172=CARTESIAN_POINT($,(420,0,24));
#173=DIRECTION($,(0,1,0));
#174=VECTOR($,#173,1);
#175=LINE($,#172,#174);
#176=EDGE_CURVE($,#163,#171,#175,.T.);
#177=ORIENTED_EDGE($,$,$,#176,.T.);
#178=CARTESIAN_POINT($,(400,100,24));
#179=VERTEX_POINT($,#178);
#180=CARTESIAN_POINT($,(420,100,24));
#181=DIRECTION($,(-1,0,0));
#182=VECTOR($,#181,1);
#183=LINE($,#180,#182);
#184=EDGE_CURVE($,#171,#179,#183,.T.);
#185=ORIENTED_EDGE($,$,$,#184,.T.);
#186=CARTESIAN_POINT($,(400,60,24));
#187=VERTEX_POINT($,#186);
#188=CARTESIAN_POINT($,(400,100,24));
#189=DIRECTION($,(0,-1,0));
#190=VECTOR($,#189,1);
#191=LINE($,#188,#190);
#192=EDGE_CURVE($,#179,#187,#191,.T.);
#193=ORIENTED_EDGE($,$,$,#192,.T.);
#194=CARTESIAN_POINT($,(360,60,24));
#195=VERTEX_POINT($,#194);
#196=CARTESIAN_POINT($,(400,60,24));
#197=DIRECTION($,(-1,0,0));
#198=VECTOR($,#197,1);
#199=LINE($,#196,#198);
#200=EDGE_CURVE($,#187,#195,#199,.T.);
#201=ORIENTED_EDGE($,$,$,#200,.T.);
#202=CARTESIAN_POINT($,(358,62,24));
#203=VERTEX_POINT($,#202);
#204=CARTESIAN_POINT($,(360,62,24));
#205=DIRECTION($,(0,0,1));
#206=DIRECTION($,(1,0,0));
#207=AXIS2_PLACEMENT_3D($,#204,#205,#206);
#208=CIRCLE($,#207,2);
#209=TRIMMED_CURVE($,#208,(PARAMETER_VALUE(-3.1415926535898)),(PARAMETER_VALUE(-1.5707963267949)),.T.,.PARAMETER.);
#210=EDGE_CURVE($,#195,#203,#209,.F.);
#211=ORIENTED_EDGE($,$,$,#210,.T.);
#212=CARTESIAN_POINT($,(358,100,24));
#213=VERTEX_POINT($,#212);
#214=CARTESIAN_POINT($,(358,62,24));
#215=DIRECTION($,(0,1,0));
#216=VECTOR($,#215,1);
#217=LINE($,#214,#216);
#218=EDGE_CURVE($,#203,#213,#217,.T.);
#219=ORIENTED_EDGE($,$,$,#218,.T.);
#220=CARTESIAN_POINT($,(316,100,24));
#221=VERTEX_POINT($,#220);
#222=CARTESIAN_POINT($,(358,100,24));
#223=DIRECTION($,(-1,0,0));
#224=VECTOR($,#223,1);
#225=LINE($,#222,#224);
#226=EDGE_CURVE($,#213,#221,#225,.T.);
#227=ORIENTED_EDGE($,$,$,#226,.T.);
#228=CARTESIAN_POINT($,(312,96,24));
#229=VERTEX_POINT($,#228);
#230=CARTESIAN_POINT($,(316,96,24));
#231=DIRECTION($,(0,0,1));
#232=DIRECTION($,(1,0,0));
#233=AXIS2_PLACEMENT_3D($,#230,#231,#232);
#234=CIRCLE($,#233,4);
#235=TRIMMED_CURVE($,#234,(PARAMETER_VALUE(1.5707963267949)),(PARAMETER_VALUE(3.1415926535898)),.T.,.PARAMETER.);
#236=EDGE_CURVE($,#221,#229,#235,.T.);
#237=ORIENTED_EDGE($,$,$,#236,.T.);
#238=CARTESIAN_POINT($,(312,64,24));
#239=VERTEX_POINT($,#238);
#240=CARTESIAN_POINT($,(312,96,24));
#241=DIRECTION($,(0,-1,0));
#242=VECTOR($,#241,1);
#243=LINE($,#240,#242);
#244=EDGE_CURVE($,#229,#239,#243,.T.);
#245=ORIENTED_EDGE($,$,$,#244,.T.);
#246=CARTESIAN_POINT($,(308,60,24));
#247=VERTEX_POINT($,#246);
#248=CARTESIAN_POINT($,(308,64,24));
#249=DIRECTION($,(0,0,1));
#250=DIRECTION($,(1,0,0));
#251=AXIS2_PLACEMENT_3D($,#248,#249,#250);
#252=CIRCLE($,#251,4);
#253=TRIMMED_CURVE($,#252,(PARAMETER_VALUE(-1.5707963267949)),(PARAMETER_VALUE(0)),.T.,.PARAMETER.);
#254=EDGE_CURVE($,#239,#247,#253,.F.);
#255=ORIENTED_EDGE($,$,$,#254,.T.);
#256=CARTESIAN_POINT($,(268,60,24));
#257=VERTEX_POINT($,#256);
#258=CARTESIAN_POINT($,(308,60,24));
#259=DIRECTION($,(-1,0,0));
#260=VECTOR($,#259,1);
#261=LINE($,#258,#260);
#262=EDGE_CURVE($,#247,#257,#261,.T.);
#263=ORIENTED_EDGE($,$,$,#262,.T.);
#264=CARTESIAN_POINT($,(260,68,24));
#265=VERTEX_POINT($,#264);
#266=CARTESIAN_POINT($,(268,68,24));
#267=DIRECTION($,(0,0,1));
#268=DIRECTION($,(1,0,0));
#269=AXIS2_PLACEMENT_3D($,#266,#267,#268);
#270=CIRCLE($,#269,8);
#271=TRIMMED_CURVE($,#270,(PARAMETER_VALUE(-3.1415926535898)),(PARAMETER_VALUE(-1.5707963267949)),.T.,.PARAMETER.);
#272=EDGE_CURVE($,#257,#265,#271,.F.);
#273=ORIENTED_EDGE($,$,$,#272,.T.);
#274=CARTESIAN_POINT($,(260,92,24));
#275=VERTEX_POINT($,#274);
#276=CARTESIAN_POINT($,(260,68,24));
#277=DIRECTION($,(0,1,0));
#278=VECTOR($,#277,1);
#279=LINE($,#276,#278);
#280=EDGE_CURVE($,#265,#275,#279,.T.);
#281=ORIENTED_EDGE($,$,$,#280,.T.);
#282=CARTESIAN_POINT($,(252,100,24));
#283=VERTEX_POINT($,#282);
#284=CARTESIAN_POINT($,(252,92,24));
#285=DIRECTION($,(0,0,1));
#286=DIRECTION($,(1,0,0));
#287=AXIS2_PLACEMENT_3D($,#284,#285,#286);
#288=CIRCLE($,#287,8);
#289=TRIMMED_CURVE($,#288,(PARAMETER_VALUE(0)),(PARAMETER_VALUE(1.5707963267949)),.T.,.PARAMETER.);
#290=EDGE_CURVE($,#275,#283,#289,.T.);
#291=ORIENTED_EDGE($,$,$,#290,.T.);
#292=CARTESIAN_POINT($,(0,100,24));
#293=VERTEX_POINT($,#292);
#294=CARTESIAN_POINT($,(252,100,24));
#295=DIRECTION($,(-1,0,0));
#296=VECTOR($,#295,1);
#297=LINE($,#294,#296);
#298=EDGE_CURVE($,#283,#293,#297,.T.);
#299=ORIENTED_EDGE($,$,$,#298,.T.);
#300=CARTESIAN_POINT($,(0,100,24));
#301=DIRECTION($,(0,-1,0));
#302=VECTOR($,#301,1);
#303=LINE($,#300,#302);
#304=EDGE_CURVE($,#293,#161,#303,.T.);
#305=ORIENTED_EDGE($,$,$,#304,.T.);
#306=EDGE_LOOP($,(#169,#177,#185,#193,#201,#211,#219,#227,#237,#245,#255,#263,#273,#281,#291,#299,#305));
#307=FACE_OUTER_BOUND('',#306,.T.);
#308=ADVANCED_FACE('',(#307),#159,.T.);
#309=CARTESIAN_POINT($,(0,0,0));
#310=DIRECTION($,(0,-1,0));
#311=DIRECTION($,(0,0,1));
#312=AXIS2_PLACEMENT_3D($,#309,#310,#311);
#313=PLANE($,#312);
#314=ORIENTED_EDGE($,$,$,#14,.T.);
#315=CARTESIAN_POINT($,(420,-0,-0));
#316=DIRECTION($,(0,0,1));
#317=VECTOR($,#316,1);
#318=LINE($,#315,#317);
#319=EDGE_CURVE($,#9,#163,#318,.T.);
#320=ORIENTED_EDGE($,$,$,#319,.T.);
#321=ORIENTED_EDGE($,$,$,#168,.F.);
#322=CARTESIAN_POINT($,(0,0,0));
#323=DIRECTION($,(0,0,1));
#324=VECTOR($,#323,1);
#325=LINE($,#322,#324);
#326=EDGE_CURVE($,#7,#161,#325,.T.);
#327=ORIENTED_EDGE($,$,$,#326,.F.);
#328=EDGE_LOOP($,(#314,#320,#321,#327));
#329=FACE_OUTER_BOUND('',#328,.T.);
#330=ADVANCED_FACE('',(#329),#313,.T.);
#331=CARTESIAN_POINT($,(420,0,0));
#332=DIRECTION($,(1,0,0));
#333=DIRECTION($,(0,0,1));
#334=AXIS2_PLACEMENT_3D($,#331,#332,#333);
#335=PLANE($,#334);
#336=ORIENTED_EDGE($,$,$,#22,.T.);
#337=CARTESIAN_POINT($,(420,100,-0));
#338=DIRECTION($,(0,0,1));
#339=VECTOR($,#338,1);
#340=LINE($,#337,#339);
#341=EDGE_CURVE($,#17,#171,#340,.T.);
#342=ORIENTED_EDGE($,$,$,#341,.T.);
#343=ORIENTED_EDGE($,$,$,#176,.F.);
#344=ORIENTED_EDGE($,$,$,#319,.F.);
#345=EDGE_LOOP($,(#336,#342,#343,#344));
#346=FACE_OUTER_BOUND('',#345,.T.);
#347=ADVANCED_FACE('',(#346),#335,.T.);
#348=CARTESIAN_POINT($,(420,100,0));
#349=DIRECTION($,(0,1,0));
#350=DIRECTION($,(0,0,1));
#351=AXIS2_PLACEMENT_3D($,#348,#349,#350);
#352=PLANE($,#351);
#353=ORIENTED_EDGE($,$,$,#30,.T.);
#354=CARTESIAN_POINT($,(400,100,-0));
#355=DIRECTION($,(0,0,1));
#356=VECTOR($,#355,1);
#357=LINE($,#354,#356);
#358=EDGE_CURVE($,#25,#179,#357,.T.);
#359=ORIENTED_EDGE($,$,$,#358,.T.);
#360=ORIENTED_EDGE($,$,$,#184,.F.);
#361=ORIENTED_EDGE($,$,$,#341,.F.);
#362=EDGE_LOOP($,(#353,#359,#360,#361));
#363=FACE_OUTER_BOUND('',#362,.T.);
#364=ADVANCED_FACE('',(#363),#352,.T.);
#365=CARTESIAN_POINT($,(400,100,0));
#366=DIRECTION($,(-1,0,0));
#367=DIRECTION($,(0,0,1));
#368=AXIS2_PLACEMENT_3D($,#365,#366,#367);
#369=PLANE($,#368);
#370=ORIENTED_EDGE($,$,$,#38,.T.);
#371=CARTESIAN_POINT($,(400,60,0));
#372=DIRECTION($,(0,0,1));
#373=VECTOR($,#372,1);
#374=LINE($,#371,#373);
#375=EDGE_CURVE($,#33,#187,#374,.T.);
#376=ORIENTED_EDGE($,$,$,#375,.T.);
#377=ORIENTED_EDGE($,$,$,#192,.F.);
#378=ORIENTED_EDGE($,$,$,#358,.F.);
#379=EDGE_LOOP($,(#370,#376,#377,#378));
#380=FACE_OUTER_BOUND('',#379,.T.);
#381=ADVANCED_FACE('',(#380),#369,.T.);
#382=CARTESIAN_POINT($,(400,60,0));
#383=DIRECTION($,(0,1,0));
#384=DIRECTION($,(0,0,1));
#385=AXIS2_PLACEMENT_3D($,#382,#383,#384);
#386=PLANE($,#385);
#387=ORIENTED_EDGE($,$,$,#46,.T.);
#388=CARTESIAN_POINT($,(360,60,0));
#389=DIRECTION($,(0,0,1));
#390=VECTOR($,#389,1);
#391=LINE($,#388,#390);
#392=EDGE_CURVE($,#41,#195,#391,.T.);
#393=ORIENTED_EDGE($,$,$,#392,.T.);
#394=ORIENTED_EDGE($,$,$,#200,.F.);
#395=ORIENTED_EDGE($,$,$,#375,.F.);
#396=EDGE_LOOP($,(#387,#393,#394,#395));
#397=FACE_OUTER_BOUND('',#396,.T.);
#398=ADVANCED_FACE('',(#397),#386,.T.);
#399=CARTESIAN_POINT($,(360,62,0));
#400=DIRECTION($,(0,0,1));
#401=DIRECTION($,(1,0,0));
#402=AXIS2_PLACEMENT_3D($,#399,#400,#401);
#403=CYLINDRICAL_SURFACE($,#402,2);
#404=ORIENTED_EDGE($,$,$,#56,.T.);
#405=CARTESIAN_POINT($,(358,62,0));
#406=DIRECTION($,(0,0,1));
#407=VECTOR($,#406,1);
#408=LINE($,#405,#407);
#409=EDGE_CURVE($,#49,#203,#408,.T.);
#410=ORIENTED_EDGE($,$,$,#409,.T.);
#411=ORIENTED_EDGE($,$,$,#210,.F.);
#412=ORIENTED_EDGE($,$,$,#392,.F.);
#413=EDGE_LOOP($,(#404,#410,#411,#412));
#414=FACE_OUTER_BOUND('',#413,.T.);
#415=ADVANCED_FACE('',(#414),#403,.T.);
#416=CARTESIAN_POINT($,(358,62,0));
#417=DIRECTION($,(1,0,0));
#418=DIRECTION($,(0,0,1));
#419=AXIS2_PLACEMENT_3D($,#416,#417,#418);
#420=PLANE($,#419);
#421=ORIENTED_EDGE($,$,$,#64,.T.);
#422=CARTESIAN_POINT($,(358,100,-0));
#423=DIRECTION($,(0,0,1));
#424=VECTOR($,#423,1);
#425=LINE($,#422,#424);
#426=EDGE_CURVE($,#59,#213,#425,.T.);
#427=ORIENTED_EDGE($,$,$,#426,.T.);
#428=ORIENTED_EDGE($,$,$,#218,.F.);
#429=ORIENTED_EDGE($,$,$,#409,.F.);
#430=EDGE_LOOP($,(#421,#427,#428,#429));
#431=FACE_OUTER_BOUND('',#430,.T.);
#432=ADVANCED_FACE('',(#431),#420,.T.);
#433=CARTESIAN_POINT($,(358,100,0));
#434=DIRECTION($,(0,1,0));
#435=DIRECTION($,(0,0,1));
#436=AXIS2_PLACEMENT_3D($,#433,#434,#435);
#437=PLANE($,#436);
#438=ORIENTED_EDGE($,$,$,#72,.T.);
#439=CARTESIAN_POINT($,(316,100,0));
#440=DIRECTION($,(0,0,1));
#441=VECTOR($,#440,1);
#442=LINE($,#439,#441);
#443=EDGE_CURVE($,#67,#221,#442,.T.);
#444=ORIENTED_EDGE($,$,$,#443,.T.);
#445=ORIENTED_EDGE($,$,$,#226,.F.);
#446=ORIENTED_EDGE($,$,$,#426,.F.);
#447=EDGE_LOOP($,(#438,#444,#445,#446));
#448=FACE_OUTER_BOUND('',#447,.T.);
#449=ADVANCED_FACE('',(#448),#437,.T.);
#450=CARTESIAN_POINT($,(316,96,0));
#451=DIRECTION($,(0,0,1));
#452=DIRECTION($,(1,0,0));
#453=AXIS2_PLACEMENT_3D($,#450,#451,#452);
#454=CYLINDRICAL_SURFACE($,#453,4);
#455=ORIENTED_EDGE($,$,$,#82,.T.);
#456=CARTESIAN_POINT($,(312,96,0));
#457=DIRECTION($,(0,0,1));
#458=VECTOR($,#457,1);
#459=LINE($,#456,#458);
#460=EDGE_CURVE($,#75,#229,#459,.T.);
#461=ORIENTED_EDGE($,$,$,#460,.T.);
#462=ORIENTED_EDGE($,$,$,#236,.F.);
#463=ORIENTED_EDGE($,$,$,#443,.F.);
#464=EDGE_LOOP($,(#455,#461,#462,#463));
#465=FACE_OUTER_BOUND('',#464,.T.);
#466=ADVANCED_FACE('',(#465),#454,.T.);
#467=CARTESIAN_POINT($,(312,96,0));
#468=DIRECTION($,(-1,0,0));
#469=DIRECTION($,(0,0,1));
#470=AXIS2_PLACEMENT_3D($,#467,#468,#469);
#471=PLANE($,#470);
#472=ORIENTED_EDGE($,$,$,#90,.T.);
#473=CARTESIAN_POINT($,(312,64,0));
#474=DIRECTION($,(0,0,1));
#475=VECTOR($,#474,1);
#476=LINE($,#473,#475);
#477=EDGE_CURVE($,#85,#239,#476,.T.);
#478=ORIENTED_EDGE($,$,$,#477,.T.);
#479=ORIENTED_EDGE($,$,$,#244,.F.);
#480=ORIENTED_EDGE($,$,$,#460,.F.);
#481=EDGE_LOOP($,(#472,#478,#479,#480));
#482=FACE_OUTER_BOUND('',#481,.T.);
#483=ADVANCED_FACE('',(#482),#471,.T.);
#484=CARTESIAN_POINT($,(308,64,0));
#485=DIRECTION($,(0,0,1));
#486=DIRECTION($,(1,0,0));
#487=AXIS2_PLACEMENT_3D($,#484,#485,#486);
#488=CYLINDRICAL_SURFACE($,#487,4);
#489=ORIENTED_EDGE($,$,$,#100,.T.);
#490=CARTESIAN_POINT($,(308,60,0));
#491=DIRECTION($,(0,0,1));
#492=VECTOR($,#491,1);
#493=LINE($,#490,#492);
#494=EDGE_CURVE($,#93,#247,#493,.T.);
#495=ORIENTED_EDGE($,$,$,#494,.T.);
#496=ORIENTED_EDGE($,$,$,#254,.F.);
#497=ORIENTED_EDGE($,$,$,#477,.F.);
#498=EDGE_LOOP($,(#489,#495,#496,#497));
#499=FACE_OUTER_BOUND('',#498,.T.);
#500=ADVANCED_FACE('',(#499),#488,.T.);
#501=CARTESIAN_POINT($,(308,60,0));
#502=DIRECTION($,(0,1,0));
#503=DIRECTION($,(0,0,1));
#504=AXIS2_PLACEMENT_3D($,#501,#502,#503);
#505=PLANE($,#504);
#506=ORIENTED_EDGE($,$,$,#108,.T.);
#507=CARTESIAN_POINT($,(268,60,0));
#508=DIRECTION($,(0,0,1));
#509=VECTOR($,#508,1);
#510=LINE($,#507,#509);
#511=EDGE_CURVE($,#103,#257,#510,.T.);
#512=ORIENTED_EDGE($,$,$,#511,.T.);
#513=ORIENTED_EDGE($,$,$,#262,.F.);
#514=ORIENTED_EDGE($,$,$,#494,.F.);
#515=EDGE_LOOP($,(#506,#512,#513,#514));
#516=FACE_OUTER_BOUND('',#515,.T.);
#517=ADVANCED_FACE('',(#516),#505,.T.);
#518=CARTESIAN_POINT($,(268,68,0));
#519=DIRECTION($,(0,0,1));
#520=DIRECTION($,(1,0,0));
#521=AXIS2_PLACEMENT_3D($,#518,#519,#520);
#522=CYLINDRICAL_SURFACE($,#521,8);
#523=ORIENTED_EDGE($,$,$,#118,.T.);
#524=CARTESIAN_POINT($,(260,68,0));
#525=DIRECTION($,(0,0,1));
#526=VECTOR($,#525,1);
#527=LINE($,#524,#526);
#528=EDGE_CURVE($,#111,#265,#527,.T.);
#529=ORIENTED_EDGE($,$,$,#528,.T.);
#530=ORIENTED_EDGE($,$,$,#272,.F.);
#531=ORIENTED_EDGE($,$,$,#511,.F.);
#532=EDGE_LOOP($,(#523,#529,#530,#531));
#533=FACE_OUTER_BOUND('',#532,.T.);
#534=ADVANCED_FACE('',(#533),#522,.T.);
#535=CARTESIAN_POINT($,(260,68,0));
#536=DIRECTION($,(1,0,0));
#537=DIRECTION($,(0,0,1));
#538=AXIS2_PLACEMENT_3D($,#535,#536,#537);
#539=PLANE($,#538);
#540=ORIENTED_EDGE($,$,$,#126,.T.);
#541=CARTESIAN_POINT($,(260,92,0));
#542=DIRECTION($,(0,0,1));
#543=VECTOR($,#542,1);
#544=LINE($,#541,#543);
#545=EDGE_CURVE($,#121,#275,#544,.T.);
#546=ORIENTED_EDGE($,$,$,#545,.T.);
#547=ORIENTED_EDGE($,$,$,#280,.F.);
#548=ORIENTED_EDGE($,$,$,#528,.F.);
#549=EDGE_LOOP($,(#540,#546,#547,#548));
#550=FACE_OUTER_BOUND('',#549,.T.);
#551=ADVANCED_FACE('',(#550),#539,.T.);
#552=CARTESIAN_POINT($,(252,92,0));
#553=DIRECTION($,(0,0,1));
#554=DIRECTION($,(1,0,0));
#555=AXIS2_PLACEMENT_3D($,#552,#553,#554);
#556=CYLINDRICAL_SURFACE($,#555,8);
#557=ORIENTED_EDGE($,$,$,#136,.T.);
#558=CARTESIAN_POINT($,(252,100,0));
#559=DIRECTION($,(0,0,1));
#560=VECTOR($,#559,1);
#561=LINE($,#558,#560);
#562=EDGE_CURVE($,#129,#283,#561,.T.);
#563=ORIENTED_EDGE($,$,$,#562,.T.);
#564=ORIENTED_EDGE($,$,$,#290,.F.);
#565=ORIENTED_EDGE($,$,$,#545,.F.);
#566=EDGE_LOOP($,(#557,#563,#564,#565));
#567=FACE_OUTER_BOUND('',#566,.T.);
#568=ADVANCED_FACE('',(#567),#556,.T.);
#569=CARTESIAN_POINT($,(252,100,0));
#570=DIRECTION($,(0,1,0));
#571=DIRECTION($,(0,0,1));
#572=AXIS2_PLACEMENT_3D($,#569,#570,#571);
#573=PLANE($,#572);
#574=ORIENTED_EDGE($,$,$,#144,.T.);
#575=CARTESIAN_POINT($,(-0,100,-0));
#576=DIRECTION($,(0,0,1));
#577=VECTOR($,#576,1);
#578=LINE($,#575,#577);
#579=EDGE_CURVE($,#139,#293,#578,.T.);
#580=ORIENTED_EDGE($,$,$,#579,.T.);
#581=ORIENTED_EDGE($,$,$,#298,.F.);
#582=ORIENTED_EDGE($,$,$,#562,.F.);
#583=EDGE_LOOP($,(#574,#580,#581,#582));
#584=FACE_OUTER_BOUND('',#583,.T.);
#585=ADVANCED_FACE('',(#584),#573,.T.);
#586=CARTESIAN_POINT($,(0,100,0));
#587=DIRECTION($,(-1,0,0));
#588=DIRECTION($,(0,0,1));
#589=AXIS2_PLACEMENT_3D($,#586,#587,#588);
#590=PLANE($,#589);
#591=ORIENTED_EDGE($,$,$,#150,.T.);
#592=ORIENTED_EDGE($,$,$,#326,.T.);
#593=ORIENTED_EDGE($,$,$,#304,.F.);
#594=ORIENTED_EDGE($,$,$,#579,.F.);
#595=EDGE_LOOP($,(#591,#592,#593,#594));
#596=FACE_OUTER_BOUND('',#595,.T.);
#597=ADVANCED_FACE('',(#596),#590,.T.);
#598=CLOSED_SHELL($,(#154,#308,#330,#347,#364,#381,#398,#415,#432,#449,#466,#483,#500,#517,#534,#551,#568,#585,#597));
#599=MANIFOLD_SOLID_BREP('AetherisBody',#598);
#600=APPLICATION_CONTEXT('mechanical design');
#601=PRODUCT_CONTEXT('',#600,'mechanical');
#602=PRODUCT('AETHERIS','AetherisBody','',(#601));
#603=PRODUCT_DEFINITION_FORMATION('','',#602);
#604=PRODUCT_DEFINITION_CONTEXT('design',#600,'design');
#605=PRODUCT_DEFINITION('','',#603,#604);
#606=PRODUCT_DEFINITION_SHAPE('','',#605);
#607=(LENGTH_UNIT()NAMED_UNIT(*)SI_UNIT(.MILLI.,.METRE.));
#608=(NAMED_UNIT(*)PLANE_ANGLE_UNIT()SI_UNIT($,.RADIAN.));
#609=(NAMED_UNIT(*)SI_UNIT($,.STERADIAN.)SOLID_ANGLE_UNIT());
#610=(GEOMETRIC_REPRESENTATION_CONTEXT(3)GLOBAL_UNIT_ASSIGNED_CONTEXT((#607,#608,#609))REPRESENTATION_CONTEXT('3','3D'));
#611=SHAPE_REPRESENTATION('AetherisBody',(#599),#610);
#612=SHAPE_DEFINITION_REPRESENTATION(#606,#611);
ENDSEC;
END-ISO-10303-21;
