ISO-10303-21;
HEADER;
FILE_DESCRIPTION(('Aetheris AP242 subset export'),'2;1');
FILE_NAME('aetheris_export.step','1970-01-01T00:00:00',('Aetheris'),('Aetheris'),'Aetheris.Kernel','Aetheris.Kernel','');
FILE_SCHEMA(('AP242_MANAGED_MODEL_BASED_3D_ENGINEERING_MIM_LF'));
ENDSEC;
DATA;
#1=CARTESIAN_POINT($,(0,0,-12.5));
#2=DIRECTION($,(0,0,-1));
#3=DIRECTION($,(1,0,0));
#4=AXIS2_PLACEMENT_3D($,#1,#2,#3);
#5=PLANE($,#4);
#6=CARTESIAN_POINT($,(-34,25,-12.5));
#7=VERTEX_POINT($,#6);
#8=CARTESIAN_POINT($,(34,25,-12.5));
#9=VERTEX_POINT($,#8);
#10=CARTESIAN_POINT($,(-34,25,-12.5));
#11=DIRECTION($,(1,0,0));
#12=VECTOR($,#11,1);
#13=LINE($,#10,#12);
#14=EDGE_CURVE($,#7,#9,#13,.T.);
#15=ORIENTED_EDGE($,$,$,#14,.F.);
#16=CARTESIAN_POINT($,(-40,19,-12.5));
#17=VERTEX_POINT($,#16);
#18=CARTESIAN_POINT($,(-34,19,-12.5));
#19=DIRECTION($,(0,0,-1));
#20=DIRECTION($,(-1,0,0));
#21=AXIS2_PLACEMENT_3D($,#18,#19,#20);
#22=CIRCLE($,#21,6);
#23=TRIMMED_CURVE($,#22,(PARAMETER_VALUE(0)),(PARAMETER_VALUE(1.5707963267949)),.T.,.PARAMETER.);
#24=EDGE_CURVE($,#17,#7,#23,.T.);
#25=ORIENTED_EDGE($,$,$,#24,.F.);
#26=CARTESIAN_POINT($,(-40,-19,-12.5));
#27=VERTEX_POINT($,#26);
#28=CARTESIAN_POINT($,(-40,-19,-12.5));
#29=DIRECTION($,(0,1,0));
#30=VECTOR($,#29,1);
#31=LINE($,#28,#30);
#32=EDGE_CURVE($,#27,#17,#31,.T.);
#33=ORIENTED_EDGE($,$,$,#32,.F.);
#34=CARTESIAN_POINT($,(-34,-25,-12.5));
#35=VERTEX_POINT($,#34);
#36=CARTESIAN_POINT($,(-34,-19,-12.5));
#37=DIRECTION($,(0,0,-1));
#38=DIRECTION($,(0,-1,0));
#39=AXIS2_PLACEMENT_3D($,#36,#37,#38);
#40=CIRCLE($,#39,6);
#41=TRIMMED_CURVE($,#40,(PARAMETER_VALUE(0)),(PARAMETER_VALUE(1.5707963267949)),.T.,.PARAMETER.);
#42=EDGE_CURVE($,#35,#27,#41,.T.);
#43=ORIENTED_EDGE($,$,$,#42,.F.);
#44=CARTESIAN_POINT($,(34,-25,-12.5));
#45=VERTEX_POINT($,#44);
#46=CARTESIAN_POINT($,(34,-25,-12.5));
#47=DIRECTION($,(-1,0,0));
#48=VECTOR($,#47,1);
#49=LINE($,#46,#48);
#50=EDGE_CURVE($,#45,#35,#49,.T.);
#51=ORIENTED_EDGE($,$,$,#50,.F.);
#52=CARTESIAN_POINT($,(40,-19,-12.5));
#53=VERTEX_POINT($,#52);
#54=CARTESIAN_POINT($,(34,-19,-12.5));
#55=DIRECTION($,(0,0,-1));
#56=DIRECTION($,(1,0,0));
#57=AXIS2_PLACEMENT_3D($,#54,#55,#56);
#58=CIRCLE($,#57,6);
#59=TRIMMED_CURVE($,#58,(PARAMETER_VALUE(0)),(PARAMETER_VALUE(1.5707963267949)),.T.,.PARAMETER.);
#60=EDGE_CURVE($,#53,#45,#59,.T.);
#61=ORIENTED_EDGE($,$,$,#60,.F.);
#62=CARTESIAN_POINT($,(40,19,-12.5));
#63=VERTEX_POINT($,#62);
#64=CARTESIAN_POINT($,(40,19,-12.5));
#65=DIRECTION($,(0,-1,0));
#66=VECTOR($,#65,1);
#67=LINE($,#64,#66);
#68=EDGE_CURVE($,#63,#53,#67,.T.);
#69=ORIENTED_EDGE($,$,$,#68,.F.);
#70=CARTESIAN_POINT($,(34,19,-12.5));
#71=DIRECTION($,(0,0,-1));
#72=DIRECTION($,(0,1,0));
#73=AXIS2_PLACEMENT_3D($,#70,#71,#72);
#74=CIRCLE($,#73,6);
#75=TRIMMED_CURVE($,#74,(PARAMETER_VALUE(0)),(PARAMETER_VALUE(1.5707963267949)),.T.,.PARAMETER.);
#76=EDGE_CURVE($,#9,#63,#75,.T.);
#77=ORIENTED_EDGE($,$,$,#76,.F.);
#78=EDGE_LOOP($,(#15,#25,#33,#43,#51,#61,#69,#77));
#79=FACE_OUTER_BOUND('',#78,.T.);
#80=ADVANCED_FACE('',(#79),#5,.T.);
#81=CARTESIAN_POINT($,(0,0,12.5));
#82=DIRECTION($,(0,0,1));
#83=DIRECTION($,(1,0,0));
#84=AXIS2_PLACEMENT_3D($,#81,#82,#83);
#85=PLANE($,#84);
#86=CARTESIAN_POINT($,(34,25,12.5));
#87=VERTEX_POINT($,#86);
#88=CARTESIAN_POINT($,(40,19,12.5));
#89=VERTEX_POINT($,#88);
#90=CARTESIAN_POINT($,(34,19,12.5));
#91=DIRECTION($,(0,0,-1));
#92=DIRECTION($,(0,1,0));
#93=AXIS2_PLACEMENT_3D($,#90,#91,#92);
#94=CIRCLE($,#93,6);
#95=TRIMMED_CURVE($,#94,(PARAMETER_VALUE(0)),(PARAMETER_VALUE(1.5707963267949)),.T.,.PARAMETER.);
#96=EDGE_CURVE($,#87,#89,#95,.T.);
#97=ORIENTED_EDGE($,$,$,#96,.T.);
#98=CARTESIAN_POINT($,(40,-19,12.5));
#99=VERTEX_POINT($,#98);
#100=CARTESIAN_POINT($,(40,19,12.5));
#101=DIRECTION($,(0,-1,0));
#102=VECTOR($,#101,1);
#103=LINE($,#100,#102);
#104=EDGE_CURVE($,#89,#99,#103,.T.);
#105=ORIENTED_EDGE($,$,$,#104,.T.);
#106=CARTESIAN_POINT($,(34,-25,12.5));
#107=VERTEX_POINT($,#106);
#108=CARTESIAN_POINT($,(34,-19,12.5));
#109=DIRECTION($,(0,0,-1));
#110=DIRECTION($,(1,0,0));
#111=AXIS2_PLACEMENT_3D($,#108,#109,#110);
#112=CIRCLE($,#111,6);
#113=TRIMMED_CURVE($,#112,(PARAMETER_VALUE(0)),(PARAMETER_VALUE(1.5707963267949)),.T.,.PARAMETER.);
#114=EDGE_CURVE($,#99,#107,#113,.T.);
#115=ORIENTED_EDGE($,$,$,#114,.T.);
#116=CARTESIAN_POINT($,(-34,-25,12.5));
#117=VERTEX_POINT($,#116);
#118=CARTESIAN_POINT($,(34,-25,12.5));
#119=DIRECTION($,(-1,0,0));
#120=VECTOR($,#119,1);
#121=LINE($,#118,#120);
#122=EDGE_CURVE($,#107,#117,#121,.T.);
#123=ORIENTED_EDGE($,$,$,#122,.T.);
#124=CARTESIAN_POINT($,(-40,-19,12.5));
#125=VERTEX_POINT($,#124);
#126=CARTESIAN_POINT($,(-34,-19,12.5));
#127=DIRECTION($,(0,0,-1));
#128=DIRECTION($,(0,-1,0));
#129=AXIS2_PLACEMENT_3D($,#126,#127,#128);
#130=CIRCLE($,#129,6);
#131=TRIMMED_CURVE($,#130,(PARAMETER_VALUE(0)),(PARAMETER_VALUE(1.5707963267949)),.T.,.PARAMETER.);
#132=EDGE_CURVE($,#117,#125,#131,.T.);
#133=ORIENTED_EDGE($,$,$,#132,.T.);
#134=CARTESIAN_POINT($,(-40,19,12.5));
#135=VERTEX_POINT($,#134);
#136=CARTESIAN_POINT($,(-40,-19,12.5));
#137=DIRECTION($,(0,1,0));
#138=VECTOR($,#137,1);
#139=LINE($,#136,#138);
#140=EDGE_CURVE($,#125,#135,#139,.T.);
#141=ORIENTED_EDGE($,$,$,#140,.T.);
#142=CARTESIAN_POINT($,(-34,25,12.5));
#143=VERTEX_POINT($,#142);
#144=CARTESIAN_POINT($,(-34,19,12.5));
#145=DIRECTION($,(0,0,-1));
#146=DIRECTION($,(-1,0,0));
#147=AXIS2_PLACEMENT_3D($,#144,#145,#146);
#148=CIRCLE($,#147,6);
#149=TRIMMED_CURVE($,#148,(PARAMETER_VALUE(0)),(PARAMETER_VALUE(1.5707963267949)),.T.,.PARAMETER.);
#150=EDGE_CURVE($,#135,#143,#149,.T.);
#151=ORIENTED_EDGE($,$,$,#150,.T.);
#152=CARTESIAN_POINT($,(-34,25,12.5));
#153=DIRECTION($,(1,0,0));
#154=VECTOR($,#153,1);
#155=LINE($,#152,#154);
#156=EDGE_CURVE($,#143,#87,#155,.T.);
#157=ORIENTED_EDGE($,$,$,#156,.T.);
#158=EDGE_LOOP($,(#97,#105,#115,#123,#133,#141,#151,#157));
#159=FACE_OUTER_BOUND('',#158,.T.);
#160=ADVANCED_FACE('',(#159),#85,.T.);
#161=CARTESIAN_POINT($,(34,19,-12.5));
#162=DIRECTION($,(0,0,1));
#163=DIRECTION($,(1,0,0));
#164=AXIS2_PLACEMENT_3D($,#161,#162,#163);
#165=CYLINDRICAL_SURFACE($,#164,6);
#166=ORIENTED_EDGE($,$,$,#76,.T.);
#167=CARTESIAN_POINT($,(40,19,-12.5));
#168=DIRECTION($,(0,0,1));
#169=VECTOR($,#168,1);
#170=LINE($,#167,#169);
#171=EDGE_CURVE($,#63,#89,#170,.T.);
#172=ORIENTED_EDGE($,$,$,#171,.T.);
#173=ORIENTED_EDGE($,$,$,#96,.F.);
#174=CARTESIAN_POINT($,(34,25,-12.5));
#175=DIRECTION($,(0,0,1));
#176=VECTOR($,#175,1);
#177=LINE($,#174,#176);
#178=EDGE_CURVE($,#9,#87,#177,.T.);
#179=ORIENTED_EDGE($,$,$,#178,.F.);
#180=EDGE_LOOP($,(#166,#172,#173,#179));
#181=FACE_OUTER_BOUND('',#180,.T.);
#182=ADVANCED_FACE('',(#181),#165,.T.);
#183=CARTESIAN_POINT($,(40,19,-12.5));
#184=DIRECTION($,(1,0,-0));
#185=DIRECTION($,(0,0,1));
#186=AXIS2_PLACEMENT_3D($,#183,#184,#185);
#187=PLANE($,#186);
#188=ORIENTED_EDGE($,$,$,#68,.T.);
#189=CARTESIAN_POINT($,(40,-19,-12.5));
#190=DIRECTION($,(0,0,1));
#191=VECTOR($,#190,1);
#192=LINE($,#189,#191);
#193=EDGE_CURVE($,#53,#99,#192,.T.);
#194=ORIENTED_EDGE($,$,$,#193,.T.);
#195=ORIENTED_EDGE($,$,$,#104,.F.);
#196=ORIENTED_EDGE($,$,$,#171,.F.);
#197=EDGE_LOOP($,(#188,#194,#195,#196));
#198=FACE_OUTER_BOUND('',#197,.T.);
#199=ADVANCED_FACE('',(#198),#187,.T.);
#200=CARTESIAN_POINT($,(34,-19,-12.5));
#201=DIRECTION($,(0,0,1));
#202=DIRECTION($,(1,0,0));
#203=AXIS2_PLACEMENT_3D($,#200,#201,#202);
#204=CYLINDRICAL_SURFACE($,#203,6);
#205=ORIENTED_EDGE($,$,$,#60,.T.);
#206=CARTESIAN_POINT($,(34,-25,-12.5));
#207=DIRECTION($,(0,0,1));
#208=VECTOR($,#207,1);
#209=LINE($,#206,#208);
#210=EDGE_CURVE($,#45,#107,#209,.T.);
#211=ORIENTED_EDGE($,$,$,#210,.T.);
#212=ORIENTED_EDGE($,$,$,#114,.F.);
#213=ORIENTED_EDGE($,$,$,#193,.F.);
#214=EDGE_LOOP($,(#205,#211,#212,#213));
#215=FACE_OUTER_BOUND('',#214,.T.);
#216=ADVANCED_FACE('',(#215),#204,.T.);
#217=CARTESIAN_POINT($,(34,-25,-12.5));
#218=DIRECTION($,(0,-1,0));
#219=DIRECTION($,(0,0,1));
#220=AXIS2_PLACEMENT_3D($,#217,#218,#219);
#221=PLANE($,#220);
#222=ORIENTED_EDGE($,$,$,#50,.T.);
#223=CARTESIAN_POINT($,(-34,-25,-12.5));
#224=DIRECTION($,(0,0,1));
#225=VECTOR($,#224,1);
#226=LINE($,#223,#225);
#227=EDGE_CURVE($,#35,#117,#226,.T.);
#228=ORIENTED_EDGE($,$,$,#227,.T.);
#229=ORIENTED_EDGE($,$,$,#122,.F.);
#230=ORIENTED_EDGE($,$,$,#210,.F.);
#231=EDGE_LOOP($,(#222,#228,#229,#230));
#232=FACE_OUTER_BOUND('',#231,.T.);
#233=ADVANCED_FACE('',(#232),#221,.T.);
#234=CARTESIAN_POINT($,(-34,-19,-12.5));
#235=DIRECTION($,(0,0,1));
#236=DIRECTION($,(1,0,0));
#237=AXIS2_PLACEMENT_3D($,#234,#235,#236);
#238=CYLINDRICAL_SURFACE($,#237,6);
#239=ORIENTED_EDGE($,$,$,#42,.T.);
#240=CARTESIAN_POINT($,(-40,-19,-12.5));
#241=DIRECTION($,(0,0,1));
#242=VECTOR($,#241,1);
#243=LINE($,#240,#242);
#244=EDGE_CURVE($,#27,#125,#243,.T.);
#245=ORIENTED_EDGE($,$,$,#244,.T.);
#246=ORIENTED_EDGE($,$,$,#132,.F.);
#247=ORIENTED_EDGE($,$,$,#227,.F.);
#248=EDGE_LOOP($,(#239,#245,#246,#247));
#249=FACE_OUTER_BOUND('',#248,.T.);
#250=ADVANCED_FACE('',(#249),#238,.T.);
#251=CARTESIAN_POINT($,(-40,-19,-12.5));
#252=DIRECTION($,(-1,0,0));
#253=DIRECTION($,(0,0,1));
#254=AXIS2_PLACEMENT_3D($,#251,#252,#253);
#255=PLANE($,#254);
#256=ORIENTED_EDGE($,$,$,#32,.T.);
#257=CARTESIAN_POINT($,(-40,19,-12.5));
#258=DIRECTION($,(0,0,1));
#259=VECTOR($,#258,1);
#260=LINE($,#257,#259);
#261=EDGE_CURVE($,#17,#135,#260,.T.);
#262=ORIENTED_EDGE($,$,$,#261,.T.);
#263=ORIENTED_EDGE($,$,$,#140,.F.);
#264=ORIENTED_EDGE($,$,$,#244,.F.);
#265=EDGE_LOOP($,(#256,#262,#263,#264));
#266=FACE_OUTER_BOUND('',#265,.T.);
#267=ADVANCED_FACE('',(#266),#255,.T.);
#268=CARTESIAN_POINT($,(-34,19,-12.5));
#269=DIRECTION($,(0,0,1));
#270=DIRECTION($,(1,0,0));
#271=AXIS2_PLACEMENT_3D($,#268,#269,#270);
#272=CYLINDRICAL_SURFACE($,#271,6);
#273=ORIENTED_EDGE($,$,$,#24,.T.);
#274=CARTESIAN_POINT($,(-34,25,-12.5));
#275=DIRECTION($,(0,0,1));
#276=VECTOR($,#275,1);
#277=LINE($,#274,#276);
#278=EDGE_CURVE($,#7,#143,#277,.T.);
#279=ORIENTED_EDGE($,$,$,#278,.T.);
#280=ORIENTED_EDGE($,$,$,#150,.F.);
#281=ORIENTED_EDGE($,$,$,#261,.F.);
#282=EDGE_LOOP($,(#273,#279,#280,#281));
#283=FACE_OUTER_BOUND('',#282,.T.);
#284=ADVANCED_FACE('',(#283),#272,.T.);
#285=CARTESIAN_POINT($,(-34,25,-12.5));
#286=DIRECTION($,(0,1,0));
#287=DIRECTION($,(0,0,1));
#288=AXIS2_PLACEMENT_3D($,#285,#286,#287);
#289=PLANE($,#288);
#290=ORIENTED_EDGE($,$,$,#14,.T.);
#291=ORIENTED_EDGE($,$,$,#178,.T.);
#292=ORIENTED_EDGE($,$,$,#156,.F.);
#293=ORIENTED_EDGE($,$,$,#278,.F.);
#294=EDGE_LOOP($,(#290,#291,#292,#293));
#295=FACE_OUTER_BOUND('',#294,.T.);
#296=ADVANCED_FACE('',(#295),#289,.T.);
#297=CLOSED_SHELL($,(#80,#160,#182,#199,#216,#233,#250,#267,#284,#296));
#298=MANIFOLD_SOLID_BREP('Base',#297);
#299=APPLICATION_CONTEXT('mechanical design');
#300=PRODUCT_CONTEXT('',#299,'mechanical');
#301=PRODUCT('AETHERIS','Base','',(#300));
#302=PRODUCT_DEFINITION_FORMATION('','',#301);
#303=PRODUCT_DEFINITION_CONTEXT('design',#299,'design');
#304=PRODUCT_DEFINITION('','',#302,#303);
#305=PRODUCT_DEFINITION_SHAPE('','',#304);
#306=(LENGTH_UNIT()NAMED_UNIT(*)SI_UNIT(.MILLI.,.METRE.));
#307=(NAMED_UNIT(*)PLANE_ANGLE_UNIT()SI_UNIT($,.RADIAN.));
#308=(NAMED_UNIT(*)SI_UNIT($,.STERADIAN.)SOLID_ANGLE_UNIT());
#309=(GEOMETRIC_REPRESENTATION_CONTEXT(3)GLOBAL_UNIT_ASSIGNED_CONTEXT((#306,#307,#308))REPRESENTATION_CONTEXT('3','3D'));
#310=SHAPE_REPRESENTATION('Base',(#298),#309);
#311=SHAPE_DEFINITION_REPRESENTATION(#305,#310);
ENDSEC;
END-ISO-10303-21;
