ISO-10303-21;
HEADER;
FILE_DESCRIPTION(('Aetheris AP242 subset export'),'2;1');
FILE_NAME('aetheris_export.step','1970-01-01T00:00:00',('Aetheris'),('Aetheris'),'Aetheris.Kernel','Aetheris.Kernel','');
FILE_SCHEMA(('AP242_MANAGED_MODEL_BASED_3D_ENGINEERING_MIM_LF'));
ENDSEC;
DATA;
#1=CARTESIAN_POINT($,(0,0,-10));
#2=DIRECTION($,(0,0,-1));
#3=DIRECTION($,(1,0,0));
#4=AXIS2_PLACEMENT_3D($,#1,#2,#3);
#5=PLANE($,#4);
#6=CARTESIAN_POINT($,(100,-50,-10));
#7=VERTEX_POINT($,#6);
#8=CARTESIAN_POINT($,(100,50,-10));
#9=VERTEX_POINT($,#8);
#10=CARTESIAN_POINT($,(100,-50,-10));
#11=DIRECTION($,(0,1,0));
#12=VECTOR($,#11,1);
#13=LINE($,#10,#12);
#14=EDGE_CURVE($,#7,#9,#13,.T.);
#15=ORIENTED_EDGE($,$,$,#14,.T.);
#16=CARTESIAN_POINT($,(-100,50,-10));
#17=VERTEX_POINT($,#16);
#18=CARTESIAN_POINT($,(100,50,-10));
#19=DIRECTION($,(-1,0,0));
#20=VECTOR($,#19,1);
#21=LINE($,#18,#20);
#22=EDGE_CURVE($,#9,#17,#21,.T.);
#23=ORIENTED_EDGE($,$,$,#22,.T.);
#24=CARTESIAN_POINT($,(-100,-50,-10));
#25=VERTEX_POINT($,#24);
#26=CARTESIAN_POINT($,(-100,50,-10));
#27=DIRECTION($,(0,-1,0));
#28=VECTOR($,#27,1);
#29=LINE($,#26,#28);
#30=EDGE_CURVE($,#17,#25,#29,.T.);
#31=ORIENTED_EDGE($,$,$,#30,.T.);
#32=CARTESIAN_POINT($,(-100,-50,-10));
#33=DIRECTION($,(1,0,0));
#34=VECTOR($,#33,1);
#35=LINE($,#32,#34);
#36=EDGE_CURVE($,#25,#7,#35,.T.);
#37=ORIENTED_EDGE($,$,$,#36,.T.);
#38=EDGE_LOOP($,(#15,#23,#31,#37));
#39=FACE_OUTER_BOUND('',#38,.T.);
#40=CARTESIAN_POINT($,(42,-25,-10));
#41=VERTEX_POINT($,#40);
#42=CARTESIAN_POINT($,(50,-17,-10));
#43=VERTEX_POINT($,#42);
#44=CARTESIAN_POINT($,(42,-17,-10));
#45=DIRECTION($,(0,0,1));
#46=DIRECTION($,(1,0,0));
#47=AXIS2_PLACEMENT_3D($,#44,#45,#46);
#48=CIRCLE($,#47,8);
#49=TRIMMED_CURVE($,#48,(PARAMETER_VALUE(-1.5707963267949)),(PARAMETER_VALUE(0)),.T.,.PARAMETER.);
#50=EDGE_CURVE($,#41,#43,#49,.T.);
#51=ORIENTED_EDGE($,$,$,#50,.F.);
#52=CARTESIAN_POINT($,(-42,-25,-10));
#53=VERTEX_POINT($,#52);
#54=CARTESIAN_POINT($,(-42,-25,-10));
#55=DIRECTION($,(1,0,0));
#56=VECTOR($,#55,1);
#57=LINE($,#54,#56);
#58=EDGE_CURVE($,#53,#41,#57,.T.);
#59=ORIENTED_EDGE($,$,$,#58,.F.);
#60=CARTESIAN_POINT($,(-50,-17,-10));
#61=VERTEX_POINT($,#60);
#62=CARTESIAN_POINT($,(-42,-17,-10));
#63=DIRECTION($,(0,0,1));
#64=DIRECTION($,(1,0,0));
#65=AXIS2_PLACEMENT_3D($,#62,#63,#64);
#66=CIRCLE($,#65,8);
#67=TRIMMED_CURVE($,#66,(PARAMETER_VALUE(-3.14159265358979)),(PARAMETER_VALUE(-1.5707963267949)),.T.,.PARAMETER.);
#68=EDGE_CURVE($,#61,#53,#67,.T.);
#69=ORIENTED_EDGE($,$,$,#68,.F.);
#70=CARTESIAN_POINT($,(-50,17,-10));
#71=VERTEX_POINT($,#70);
#72=CARTESIAN_POINT($,(-50,17,-10));
#73=DIRECTION($,(0,-1,0));
#74=VECTOR($,#73,1);
#75=LINE($,#72,#74);
#76=EDGE_CURVE($,#71,#61,#75,.T.);
#77=ORIENTED_EDGE($,$,$,#76,.F.);
#78=CARTESIAN_POINT($,(-42,25,-10));
#79=VERTEX_POINT($,#78);
#80=CARTESIAN_POINT($,(-42,17,-10));
#81=DIRECTION($,(0,0,1));
#82=DIRECTION($,(1,0,0));
#83=AXIS2_PLACEMENT_3D($,#80,#81,#82);
#84=CIRCLE($,#83,8);
#85=TRIMMED_CURVE($,#84,(PARAMETER_VALUE(1.5707963267949)),(PARAMETER_VALUE(3.14159265358979)),.T.,.PARAMETER.);
#86=EDGE_CURVE($,#79,#71,#85,.T.);
#87=ORIENTED_EDGE($,$,$,#86,.F.);
#88=CARTESIAN_POINT($,(42,25,-10));
#89=VERTEX_POINT($,#88);
#90=CARTESIAN_POINT($,(42,25,-10));
#91=DIRECTION($,(-1,0,0));
#92=VECTOR($,#91,1);
#93=LINE($,#90,#92);
#94=EDGE_CURVE($,#89,#79,#93,.T.);
#95=ORIENTED_EDGE($,$,$,#94,.F.);
#96=CARTESIAN_POINT($,(50,17,-10));
#97=VERTEX_POINT($,#96);
#98=CARTESIAN_POINT($,(42,17,-10));
#99=DIRECTION($,(0,0,1));
#100=DIRECTION($,(1,0,0));
#101=AXIS2_PLACEMENT_3D($,#98,#99,#100);
#102=CIRCLE($,#101,8);
#103=TRIMMED_CURVE($,#102,(PARAMETER_VALUE(0)),(PARAMETER_VALUE(1.5707963267949)),.T.,.PARAMETER.);
#104=EDGE_CURVE($,#97,#89,#103,.T.);
#105=ORIENTED_EDGE($,$,$,#104,.F.);
#106=CARTESIAN_POINT($,(50,-17,-10));
#107=DIRECTION($,(0,1,0));
#108=VECTOR($,#107,1);
#109=LINE($,#106,#108);
#110=EDGE_CURVE($,#43,#97,#109,.T.);
#111=ORIENTED_EDGE($,$,$,#110,.F.);
#112=EDGE_LOOP($,(#51,#59,#69,#77,#87,#95,#105,#111));
#113=FACE_BOUND('',#112,.T.);
#114=ADVANCED_FACE('',(#39,#113),#5,.T.);
#115=CARTESIAN_POINT($,(0,0,10));
#116=DIRECTION($,(0,0,1));
#117=DIRECTION($,(1,0,0));
#118=AXIS2_PLACEMENT_3D($,#115,#116,#117);
#119=PLANE($,#118);
#120=CARTESIAN_POINT($,(100,-50,10));
#121=VERTEX_POINT($,#120);
#122=CARTESIAN_POINT($,(100,50,10));
#123=VERTEX_POINT($,#122);
#124=CARTESIAN_POINT($,(100,-50,10));
#125=DIRECTION($,(0,1,0));
#126=VECTOR($,#125,1);
#127=LINE($,#124,#126);
#128=EDGE_CURVE($,#121,#123,#127,.T.);
#129=ORIENTED_EDGE($,$,$,#128,.T.);
#130=CARTESIAN_POINT($,(-100,50,10));
#131=VERTEX_POINT($,#130);
#132=CARTESIAN_POINT($,(100,50,10));
#133=DIRECTION($,(-1,0,0));
#134=VECTOR($,#133,1);
#135=LINE($,#132,#134);
#136=EDGE_CURVE($,#123,#131,#135,.T.);
#137=ORIENTED_EDGE($,$,$,#136,.T.);
#138=CARTESIAN_POINT($,(-100,-50,10));
#139=VERTEX_POINT($,#138);
#140=CARTESIAN_POINT($,(-100,50,10));
#141=DIRECTION($,(0,-1,0));
#142=VECTOR($,#141,1);
#143=LINE($,#140,#142);
#144=EDGE_CURVE($,#131,#139,#143,.T.);
#145=ORIENTED_EDGE($,$,$,#144,.T.);
#146=CARTESIAN_POINT($,(-100,-50,10));
#147=DIRECTION($,(1,0,0));
#148=VECTOR($,#147,1);
#149=LINE($,#146,#148);
#150=EDGE_CURVE($,#139,#121,#149,.T.);
#151=ORIENTED_EDGE($,$,$,#150,.T.);
#152=EDGE_LOOP($,(#129,#137,#145,#151));
#153=FACE_OUTER_BOUND('',#152,.T.);
#154=CARTESIAN_POINT($,(42,-25,10));
#155=VERTEX_POINT($,#154);
#156=CARTESIAN_POINT($,(50,-17,10));
#157=VERTEX_POINT($,#156);
#158=CARTESIAN_POINT($,(42,-17,10));
#159=DIRECTION($,(0,0,1));
#160=DIRECTION($,(1,0,0));
#161=AXIS2_PLACEMENT_3D($,#158,#159,#160);
#162=CIRCLE($,#161,8);
#163=TRIMMED_CURVE($,#162,(PARAMETER_VALUE(-1.5707963267949)),(PARAMETER_VALUE(0)),.T.,.PARAMETER.);
#164=EDGE_CURVE($,#155,#157,#163,.T.);
#165=ORIENTED_EDGE($,$,$,#164,.F.);
#166=CARTESIAN_POINT($,(-42,-25,10));
#167=VERTEX_POINT($,#166);
#168=CARTESIAN_POINT($,(-42,-25,10));
#169=DIRECTION($,(1,0,0));
#170=VECTOR($,#169,1);
#171=LINE($,#168,#170);
#172=EDGE_CURVE($,#167,#155,#171,.T.);
#173=ORIENTED_EDGE($,$,$,#172,.F.);
#174=CARTESIAN_POINT($,(-50,-17,10));
#175=VERTEX_POINT($,#174);
#176=CARTESIAN_POINT($,(-42,-17,10));
#177=DIRECTION($,(0,0,1));
#178=DIRECTION($,(1,0,0));
#179=AXIS2_PLACEMENT_3D($,#176,#177,#178);
#180=CIRCLE($,#179,8);
#181=TRIMMED_CURVE($,#180,(PARAMETER_VALUE(-3.14159265358979)),(PARAMETER_VALUE(-1.5707963267949)),.T.,.PARAMETER.);
#182=EDGE_CURVE($,#175,#167,#181,.T.);
#183=ORIENTED_EDGE($,$,$,#182,.F.);
#184=CARTESIAN_POINT($,(-50,17,10));
#185=VERTEX_POINT($,#184);
#186=CARTESIAN_POINT($,(-50,17,10));
#187=DIRECTION($,(0,-1,0));
#188=VECTOR($,#187,1);
#189=LINE($,#186,#188);
#190=EDGE_CURVE($,#185,#175,#189,.T.);
#191=ORIENTED_EDGE($,$,$,#190,.F.);
#192=CARTESIAN_POINT($,(-42,25,10));
#193=VERTEX_POINT($,#192);
#194=CARTESIAN_POINT($,(-42,17,10));
#195=DIRECTION($,(0,0,1));
#196=DIRECTION($,(1,0,0));
#197=AXIS2_PLACEMENT_3D($,#194,#195,#196);
#198=CIRCLE($,#197,8);
#199=TRIMMED_CURVE($,#198,(PARAMETER_VALUE(1.5707963267949)),(PARAMETER_VALUE(3.14159265358979)),.T.,.PARAMETER.);
#200=EDGE_CURVE($,#193,#185,#199,.T.);
#201=ORIENTED_EDGE($,$,$,#200,.F.);
#202=CARTESIAN_POINT($,(42,25,10));
#203=VERTEX_POINT($,#202);
#204=CARTESIAN_POINT($,(42,25,10));
#205=DIRECTION($,(-1,0,0));
#206=VECTOR($,#205,1);
#207=LINE($,#204,#206);
#208=EDGE_CURVE($,#203,#193,#207,.T.);
#209=ORIENTED_EDGE($,$,$,#208,.F.);
#210=CARTESIAN_POINT($,(50,17,10));
#211=VERTEX_POINT($,#210);
#212=CARTESIAN_POINT($,(42,17,10));
#213=DIRECTION($,(0,0,1));
#214=DIRECTION($,(1,0,0));
#215=AXIS2_PLACEMENT_3D($,#212,#213,#214);
#216=CIRCLE($,#215,8);
#217=TRIMMED_CURVE($,#216,(PARAMETER_VALUE(0)),(PARAMETER_VALUE(1.5707963267949)),.T.,.PARAMETER.);
#218=EDGE_CURVE($,#211,#203,#217,.T.);
#219=ORIENTED_EDGE($,$,$,#218,.F.);
#220=CARTESIAN_POINT($,(50,-17,10));
#221=DIRECTION($,(0,1,0));
#222=VECTOR($,#221,1);
#223=LINE($,#220,#222);
#224=EDGE_CURVE($,#157,#211,#223,.T.);
#225=ORIENTED_EDGE($,$,$,#224,.F.);
#226=EDGE_LOOP($,(#165,#173,#183,#191,#201,#209,#219,#225));
#227=FACE_BOUND('',#226,.T.);
#228=ADVANCED_FACE('',(#153,#227),#119,.T.);
#229=CARTESIAN_POINT($,(100,-50,-10));
#230=DIRECTION($,(1,0,0));
#231=DIRECTION($,(0,0,1));
#232=AXIS2_PLACEMENT_3D($,#229,#230,#231);
#233=PLANE($,#232);
#234=ORIENTED_EDGE($,$,$,#14,.T.);
#235=CARTESIAN_POINT($,(100,50,-10));
#236=DIRECTION($,(0,0,1));
#237=VECTOR($,#236,1);
#238=LINE($,#235,#237);
#239=EDGE_CURVE($,#9,#123,#238,.T.);
#240=ORIENTED_EDGE($,$,$,#239,.T.);
#241=ORIENTED_EDGE($,$,$,#128,.F.);
#242=CARTESIAN_POINT($,(100,-50,-10));
#243=DIRECTION($,(0,0,1));
#244=VECTOR($,#243,1);
#245=LINE($,#242,#244);
#246=EDGE_CURVE($,#7,#121,#245,.T.);
#247=ORIENTED_EDGE($,$,$,#246,.F.);
#248=EDGE_LOOP($,(#234,#240,#241,#247));
#249=FACE_OUTER_BOUND('',#248,.T.);
#250=ADVANCED_FACE('',(#249),#233,.T.);
#251=CARTESIAN_POINT($,(100,50,-10));
#252=DIRECTION($,(0,1,0));
#253=DIRECTION($,(0,0,1));
#254=AXIS2_PLACEMENT_3D($,#251,#252,#253);
#255=PLANE($,#254);
#256=ORIENTED_EDGE($,$,$,#22,.T.);
#257=CARTESIAN_POINT($,(-100,50,-10));
#258=DIRECTION($,(0,0,1));
#259=VECTOR($,#258,1);
#260=LINE($,#257,#259);
#261=EDGE_CURVE($,#17,#131,#260,.T.);
#262=ORIENTED_EDGE($,$,$,#261,.T.);
#263=ORIENTED_EDGE($,$,$,#136,.F.);
#264=ORIENTED_EDGE($,$,$,#239,.F.);
#265=EDGE_LOOP($,(#256,#262,#263,#264));
#266=FACE_OUTER_BOUND('',#265,.T.);
#267=ADVANCED_FACE('',(#266),#255,.T.);
#268=CARTESIAN_POINT($,(-100,50,-10));
#269=DIRECTION($,(-1,0,0));
#270=DIRECTION($,(0,0,1));
#271=AXIS2_PLACEMENT_3D($,#268,#269,#270);
#272=PLANE($,#271);
#273=ORIENTED_EDGE($,$,$,#30,.T.);
#274=CARTESIAN_POINT($,(-100,-50,-10));
#275=DIRECTION($,(0,0,1));
#276=VECTOR($,#275,1);
#277=LINE($,#274,#276);
#278=EDGE_CURVE($,#25,#139,#277,.T.);
#279=ORIENTED_EDGE($,$,$,#278,.T.);
#280=ORIENTED_EDGE($,$,$,#144,.F.);
#281=ORIENTED_EDGE($,$,$,#261,.F.);
#282=EDGE_LOOP($,(#273,#279,#280,#281));
#283=FACE_OUTER_BOUND('',#282,.T.);
#284=ADVANCED_FACE('',(#283),#272,.T.);
#285=CARTESIAN_POINT($,(-100,-50,-10));
#286=DIRECTION($,(0,-1,0));
#287=DIRECTION($,(0,0,1));
#288=AXIS2_PLACEMENT_3D($,#285,#286,#287);
#289=PLANE($,#288);
#290=ORIENTED_EDGE($,$,$,#36,.T.);
#291=ORIENTED_EDGE($,$,$,#246,.T.);
#292=ORIENTED_EDGE($,$,$,#150,.F.);
#293=ORIENTED_EDGE($,$,$,#278,.F.);
#294=EDGE_LOOP($,(#290,#291,#292,#293));
#295=FACE_OUTER_BOUND('',#294,.T.);
#296=ADVANCED_FACE('',(#295),#289,.T.);
#297=CARTESIAN_POINT($,(50,-17,-10));
#298=DIRECTION($,(-1,0,0));
#299=DIRECTION($,(0,0,1));
#300=AXIS2_PLACEMENT_3D($,#297,#298,#299);
#301=PLANE($,#300);
#302=ORIENTED_EDGE($,$,$,#110,.T.);
#303=CARTESIAN_POINT($,(50,17,-10));
#304=DIRECTION($,(0,0,1));
#305=VECTOR($,#304,1);
#306=LINE($,#303,#305);
#307=EDGE_CURVE($,#97,#211,#306,.T.);
#308=ORIENTED_EDGE($,$,$,#307,.T.);
#309=ORIENTED_EDGE($,$,$,#224,.F.);
#310=CARTESIAN_POINT($,(50,-17,-10));
#311=DIRECTION($,(0,0,1));
#312=VECTOR($,#311,1);
#313=LINE($,#310,#312);
#314=EDGE_CURVE($,#43,#157,#313,.T.);
#315=ORIENTED_EDGE($,$,$,#314,.F.);
#316=EDGE_LOOP($,(#302,#308,#309,#315));
#317=FACE_OUTER_BOUND('',#316,.T.);
#318=ADVANCED_FACE('',(#317),#301,.T.);
#319=CARTESIAN_POINT($,(42,17,-10));
#320=DIRECTION($,(0,0,1));
#321=DIRECTION($,(1,0,0));
#322=AXIS2_PLACEMENT_3D($,#319,#320,#321);
#323=CYLINDRICAL_SURFACE($,#322,8);
#324=ORIENTED_EDGE($,$,$,#104,.T.);
#325=CARTESIAN_POINT($,(42,25,-10));
#326=DIRECTION($,(0,0,1));
#327=VECTOR($,#326,1);
#328=LINE($,#325,#327);
#329=EDGE_CURVE($,#89,#203,#328,.T.);
#330=ORIENTED_EDGE($,$,$,#329,.T.);
#331=ORIENTED_EDGE($,$,$,#218,.F.);
#332=ORIENTED_EDGE($,$,$,#307,.F.);
#333=EDGE_LOOP($,(#324,#330,#331,#332));
#334=FACE_OUTER_BOUND('',#333,.T.);
#335=ADVANCED_FACE('',(#334),#323,.F.);
#336=CARTESIAN_POINT($,(42,25,-10));
#337=DIRECTION($,(0,-1,0));
#338=DIRECTION($,(0,0,1));
#339=AXIS2_PLACEMENT_3D($,#336,#337,#338);
#340=PLANE($,#339);
#341=ORIENTED_EDGE($,$,$,#94,.T.);
#342=CARTESIAN_POINT($,(-42,25,-10));
#343=DIRECTION($,(0,0,1));
#344=VECTOR($,#343,1);
#345=LINE($,#342,#344);
#346=EDGE_CURVE($,#79,#193,#345,.T.);
#347=ORIENTED_EDGE($,$,$,#346,.T.);
#348=ORIENTED_EDGE($,$,$,#208,.F.);
#349=ORIENTED_EDGE($,$,$,#329,.F.);
#350=EDGE_LOOP($,(#341,#347,#348,#349));
#351=FACE_OUTER_BOUND('',#350,.T.);
#352=ADVANCED_FACE('',(#351),#340,.T.);
#353=CARTESIAN_POINT($,(-42,17,-10));
#354=DIRECTION($,(0,0,1));
#355=DIRECTION($,(1,0,0));
#356=AXIS2_PLACEMENT_3D($,#353,#354,#355);
#357=CYLINDRICAL_SURFACE($,#356,8);
#358=ORIENTED_EDGE($,$,$,#86,.T.);
#359=CARTESIAN_POINT($,(-50,17,-10));
#360=DIRECTION($,(0,0,1));
#361=VECTOR($,#360,1);
#362=LINE($,#359,#361);
#363=EDGE_CURVE($,#71,#185,#362,.T.);
#364=ORIENTED_EDGE($,$,$,#363,.T.);
#365=ORIENTED_EDGE($,$,$,#200,.F.);
#366=ORIENTED_EDGE($,$,$,#346,.F.);
#367=EDGE_LOOP($,(#358,#364,#365,#366));
#368=FACE_OUTER_BOUND('',#367,.T.);
#369=ADVANCED_FACE('',(#368),#357,.F.);
#370=CARTESIAN_POINT($,(-50,17,-10));
#371=DIRECTION($,(1,0,0));
#372=DIRECTION($,(0,0,1));
#373=AXIS2_PLACEMENT_3D($,#370,#371,#372);
#374=PLANE($,#373);
#375=ORIENTED_EDGE($,$,$,#76,.T.);
#376=CARTESIAN_POINT($,(-50,-17,-10));
#377=DIRECTION($,(0,0,1));
#378=VECTOR($,#377,1);
#379=LINE($,#376,#378);
#380=EDGE_CURVE($,#61,#175,#379,.T.);
#381=ORIENTED_EDGE($,$,$,#380,.T.);
#382=ORIENTED_EDGE($,$,$,#190,.F.);
#383=ORIENTED_EDGE($,$,$,#363,.F.);
#384=EDGE_LOOP($,(#375,#381,#382,#383));
#385=FACE_OUTER_BOUND('',#384,.T.);
#386=ADVANCED_FACE('',(#385),#374,.T.);
#387=CARTESIAN_POINT($,(-42,-17,-10));
#388=DIRECTION($,(0,0,1));
#389=DIRECTION($,(1,0,0));
#390=AXIS2_PLACEMENT_3D($,#387,#388,#389);
#391=CYLINDRICAL_SURFACE($,#390,8);
#392=ORIENTED_EDGE($,$,$,#68,.T.);
#393=CARTESIAN_POINT($,(-42,-25,-10));
#394=DIRECTION($,(0,0,1));
#395=VECTOR($,#394,1);
#396=LINE($,#393,#395);
#397=EDGE_CURVE($,#53,#167,#396,.T.);
#398=ORIENTED_EDGE($,$,$,#397,.T.);
#399=ORIENTED_EDGE($,$,$,#182,.F.);
#400=ORIENTED_EDGE($,$,$,#380,.F.);
#401=EDGE_LOOP($,(#392,#398,#399,#400));
#402=FACE_OUTER_BOUND('',#401,.T.);
#403=ADVANCED_FACE('',(#402),#391,.F.);
#404=CARTESIAN_POINT($,(-42,-25,-10));
#405=DIRECTION($,(0,1,0));
#406=DIRECTION($,(0,0,1));
#407=AXIS2_PLACEMENT_3D($,#404,#405,#406);
#408=PLANE($,#407);
#409=ORIENTED_EDGE($,$,$,#58,.T.);
#410=CARTESIAN_POINT($,(42,-25,-10));
#411=DIRECTION($,(0,0,1));
#412=VECTOR($,#411,1);
#413=LINE($,#410,#412);
#414=EDGE_CURVE($,#41,#155,#413,.T.);
#415=ORIENTED_EDGE($,$,$,#414,.T.);
#416=ORIENTED_EDGE($,$,$,#172,.F.);
#417=ORIENTED_EDGE($,$,$,#397,.F.);
#418=EDGE_LOOP($,(#409,#415,#416,#417));
#419=FACE_OUTER_BOUND('',#418,.T.);
#420=ADVANCED_FACE('',(#419),#408,.T.);
#421=CARTESIAN_POINT($,(42,-17,-10));
#422=DIRECTION($,(0,0,1));
#423=DIRECTION($,(1,0,0));
#424=AXIS2_PLACEMENT_3D($,#421,#422,#423);
#425=CYLINDRICAL_SURFACE($,#424,8);
#426=ORIENTED_EDGE($,$,$,#50,.T.);
#427=ORIENTED_EDGE($,$,$,#314,.T.);
#428=ORIENTED_EDGE($,$,$,#164,.F.);
#429=ORIENTED_EDGE($,$,$,#414,.F.);
#430=EDGE_LOOP($,(#426,#427,#428,#429));
#431=FACE_OUTER_BOUND('',#430,.T.);
#432=ADVANCED_FACE('',(#431),#425,.F.);
#433=CLOSED_SHELL($,(#114,#228,#250,#267,#284,#296,#318,#335,#352,#369,#386,#403,#420,#432));
#434=MANIFOLD_SOLID_BREP('AetherisBody',#433);
#435=APPLICATION_CONTEXT('mechanical design');
#436=PRODUCT_CONTEXT('',#435,'mechanical');
#437=PRODUCT('AETHERIS','AetherisBody','',(#436));
#438=PRODUCT_DEFINITION_FORMATION('','',#437);
#439=PRODUCT_DEFINITION_CONTEXT('design',#435,'design');
#440=PRODUCT_DEFINITION('','',#438,#439);
#441=PRODUCT_DEFINITION_SHAPE('','',#440);
#442=(LENGTH_UNIT()NAMED_UNIT(*)SI_UNIT(.MILLI.,.METRE.));
#443=(NAMED_UNIT(*)PLANE_ANGLE_UNIT()SI_UNIT($,.RADIAN.));
#444=(NAMED_UNIT(*)SI_UNIT($,.STERADIAN.)SOLID_ANGLE_UNIT());
#445=(GEOMETRIC_REPRESENTATION_CONTEXT(3)GLOBAL_UNIT_ASSIGNED_CONTEXT((#442,#443,#444))REPRESENTATION_CONTEXT('3','3D'));
#446=SHAPE_REPRESENTATION('AetherisBody',(#434),#445);
#447=SHAPE_DEFINITION_REPRESENTATION(#441,#446);
ENDSEC;
END-ISO-10303-21;
