ISO-10303-21;
HEADER;
FILE_DESCRIPTION(('Aetheris AP242 subset export'),'2;1');
FILE_NAME('aetheris_export.step','1970-01-01T00:00:00',('Aetheris'),('Aetheris'),'Aetheris.Kernel','Aetheris.Kernel','');
FILE_SCHEMA(('AP242_MANAGED_MODEL_BASED_3D_ENGINEERING_MIM_LF'));
ENDSEC;
DATA;
#1=CARTESIAN_POINT($,(0,0,-10));
#2=DIRECTION($,(0,0,-1));
#3=DIRECTION($,(1,0,0));
#4=AXIS2_PLACEMENT_3D($,#1,#2,#3);
#5=PLANE($,#4);
#6=CARTESIAN_POINT($,(100,-50,-10));
#7=VERTEX_POINT($,#6);
#8=CARTESIAN_POINT($,(100,50,-10));
#9=VERTEX_POINT($,#8);
#10=CARTESIAN_POINT($,(100,-50,-10));
#11=DIRECTION($,(0,1,0));
#12=VECTOR($,#11,1);
#13=LINE($,#10,#12);
#14=EDGE_CURVE($,#7,#9,#13,.T.);
#15=ORIENTED_EDGE($,$,$,#14,.T.);
#16=CARTESIAN_POINT($,(-100,50,-10));
#17=VERTEX_POINT($,#16);
#18=CARTESIAN_POINT($,(100,50,-10));
#19=DIRECTION($,(-1,0,0));
#20=VECTOR($,#19,1);
#21=LINE($,#18,#20);
#22=EDGE_CURVE($,#9,#17,#21,.T.);
#23=ORIENTED_EDGE($,$,$,#22,.T.);
#24=CARTESIAN_POINT($,(-100,-50,-10));
#25=VERTEX_POINT($,#24);
#26=CARTESIAN_POINT($,(-100,50,-10));
#27=DIRECTION($,(0,-1,0));
#28=VECTOR($,#27,1);
#29=LINE($,#26,#28);
#30=EDGE_CURVE($,#17,#25,#29,.T.);
#31=ORIENTED_EDGE($,$,$,#30,.T.);
#32=CARTESIAN_POINT($,(-100,-50,-10));
#33=DIRECTION($,(1,0,0));
#34=VECTOR($,#33,1);
#35=LINE($,#32,#34);
#36=EDGE_CURVE($,#25,#7,#35,.T.);
#37=ORIENTED_EDGE($,$,$,#36,.T.);
#38=EDGE_LOOP($,(#15,#23,#31,#37));
#39=FACE_OUTER_BOUND('',#38,.T.);
#40=CARTESIAN_POINT($,(20,-20,-10));
#41=VERTEX_POINT($,#40);
#42=CARTESIAN_POINT($,(20,20,-10));
#43=VERTEX_POINT($,#42);
#44=CARTESIAN_POINT($,(20,0,-10));
#45=DIRECTION($,(0,0,1));
#46=DIRECTION($,(1,0,0));
#47=AXIS2_PLACEMENT_3D($,#44,#45,#46);
#48=CIRCLE($,#47,20);
#49=TRIMMED_CURVE($,#48,(PARAMETER_VALUE(-1.5707963267949)),(PARAMETER_VALUE(1.5707963267949)),.T.,.PARAMETER.);
#50=EDGE_CURVE($,#41,#43,#49,.T.);
#51=ORIENTED_EDGE($,$,$,#50,.F.);
#52=CARTESIAN_POINT($,(-20,-20,-10));
#53=VERTEX_POINT($,#52);
#54=CARTESIAN_POINT($,(-20,-20,-10));
#55=DIRECTION($,(1,0,0));
#56=VECTOR($,#55,1);
#57=LINE($,#54,#56);
#58=EDGE_CURVE($,#53,#41,#57,.T.);
#59=ORIENTED_EDGE($,$,$,#58,.F.);
#60=CARTESIAN_POINT($,(-20,20,-10));
#61=VERTEX_POINT($,#60);
#62=CARTESIAN_POINT($,(-20,0,-10));
#63=DIRECTION($,(0,0,1));
#64=DIRECTION($,(1,0,0));
#65=AXIS2_PLACEMENT_3D($,#62,#63,#64);
#66=CIRCLE($,#65,20);
#67=TRIMMED_CURVE($,#66,(PARAMETER_VALUE(1.5707963267949)),(PARAMETER_VALUE(4.71238898038469)),.T.,.PARAMETER.);
#68=EDGE_CURVE($,#61,#53,#67,.T.);
#69=ORIENTED_EDGE($,$,$,#68,.F.);
#70=CARTESIAN_POINT($,(20,20,-10));
#71=DIRECTION($,(-1,0,0));
#72=VECTOR($,#71,1);
#73=LINE($,#70,#72);
#74=EDGE_CURVE($,#43,#61,#73,.T.);
#75=ORIENTED_EDGE($,$,$,#74,.F.);
#76=EDGE_LOOP($,(#51,#59,#69,#75));
#77=FACE_BOUND('',#76,.T.);
#78=ADVANCED_FACE('',(#39,#77),#5,.T.);
#79=CARTESIAN_POINT($,(0,0,10));
#80=DIRECTION($,(0,0,1));
#81=DIRECTION($,(1,0,0));
#82=AXIS2_PLACEMENT_3D($,#79,#80,#81);
#83=PLANE($,#82);
#84=CARTESIAN_POINT($,(100,-50,10));
#85=VERTEX_POINT($,#84);
#86=CARTESIAN_POINT($,(100,50,10));
#87=VERTEX_POINT($,#86);
#88=CARTESIAN_POINT($,(100,-50,10));
#89=DIRECTION($,(0,1,0));
#90=VECTOR($,#89,1);
#91=LINE($,#88,#90);
#92=EDGE_CURVE($,#85,#87,#91,.T.);
#93=ORIENTED_EDGE($,$,$,#92,.T.);
#94=CARTESIAN_POINT($,(-100,50,10));
#95=VERTEX_POINT($,#94);
#96=CARTESIAN_POINT($,(100,50,10));
#97=DIRECTION($,(-1,0,0));
#98=VECTOR($,#97,1);
#99=LINE($,#96,#98);
#100=EDGE_CURVE($,#87,#95,#99,.T.);
#101=ORIENTED_EDGE($,$,$,#100,.T.);
#102=CARTESIAN_POINT($,(-100,-50,10));
#103=VERTEX_POINT($,#102);
#104=CARTESIAN_POINT($,(-100,50,10));
#105=DIRECTION($,(0,-1,0));
#106=VECTOR($,#105,1);
#107=LINE($,#104,#106);
#108=EDGE_CURVE($,#95,#103,#107,.T.);
#109=ORIENTED_EDGE($,$,$,#108,.T.);
#110=CARTESIAN_POINT($,(-100,-50,10));
#111=DIRECTION($,(1,0,0));
#112=VECTOR($,#111,1);
#113=LINE($,#110,#112);
#114=EDGE_CURVE($,#103,#85,#113,.T.);
#115=ORIENTED_EDGE($,$,$,#114,.T.);
#116=EDGE_LOOP($,(#93,#101,#109,#115));
#117=FACE_OUTER_BOUND('',#116,.T.);
#118=CARTESIAN_POINT($,(20,-20,10));
#119=VERTEX_POINT($,#118);
#120=CARTESIAN_POINT($,(20,20,10));
#121=VERTEX_POINT($,#120);
#122=CARTESIAN_POINT($,(20,0,10));
#123=DIRECTION($,(0,0,1));
#124=DIRECTION($,(1,0,0));
#125=AXIS2_PLACEMENT_3D($,#122,#123,#124);
#126=CIRCLE($,#125,20);
#127=TRIMMED_CURVE($,#126,(PARAMETER_VALUE(-1.5707963267949)),(PARAMETER_VALUE(1.5707963267949)),.T.,.PARAMETER.);
#128=EDGE_CURVE($,#119,#121,#127,.T.);
#129=ORIENTED_EDGE($,$,$,#128,.F.);
#130=CARTESIAN_POINT($,(-20,-20,10));
#131=VERTEX_POINT($,#130);
#132=CARTESIAN_POINT($,(-20,-20,10));
#133=DIRECTION($,(1,0,0));
#134=VECTOR($,#133,1);
#135=LINE($,#132,#134);
#136=EDGE_CURVE($,#131,#119,#135,.T.);
#137=ORIENTED_EDGE($,$,$,#136,.F.);
#138=CARTESIAN_POINT($,(-20,20,10));
#139=VERTEX_POINT($,#138);
#140=CARTESIAN_POINT($,(-20,0,10));
#141=DIRECTION($,(0,0,1));
#142=DIRECTION($,(1,0,0));
#143=AXIS2_PLACEMENT_3D($,#140,#141,#142);
#144=CIRCLE($,#143,20);
#145=TRIMMED_CURVE($,#144,(PARAMETER_VALUE(1.5707963267949)),(PARAMETER_VALUE(4.71238898038469)),.T.,.PARAMETER.);
#146=EDGE_CURVE($,#139,#131,#145,.T.);
#147=ORIENTED_EDGE($,$,$,#146,.F.);
#148=CARTESIAN_POINT($,(20,20,10));
#149=DIRECTION($,(-1,0,0));
#150=VECTOR($,#149,1);
#151=LINE($,#148,#150);
#152=EDGE_CURVE($,#121,#139,#151,.T.);
#153=ORIENTED_EDGE($,$,$,#152,.F.);
#154=EDGE_LOOP($,(#129,#137,#147,#153));
#155=FACE_BOUND('',#154,.T.);
#156=ADVANCED_FACE('',(#117,#155),#83,.T.);
#157=CARTESIAN_POINT($,(100,-50,-10));
#158=DIRECTION($,(1,0,0));
#159=DIRECTION($,(0,0,1));
#160=AXIS2_PLACEMENT_3D($,#157,#158,#159);
#161=PLANE($,#160);
#162=ORIENTED_EDGE($,$,$,#14,.T.);
#163=CARTESIAN_POINT($,(100,50,-10));
#164=DIRECTION($,(0,0,1));
#165=VECTOR($,#164,1);
#166=LINE($,#163,#165);
#167=EDGE_CURVE($,#9,#87,#166,.T.);
#168=ORIENTED_EDGE($,$,$,#167,.T.);
#169=ORIENTED_EDGE($,$,$,#92,.F.);
#170=CARTESIAN_POINT($,(100,-50,-10));
#171=DIRECTION($,(0,0,1));
#172=VECTOR($,#171,1);
#173=LINE($,#170,#172);
#174=EDGE_CURVE($,#7,#85,#173,.T.);
#175=ORIENTED_EDGE($,$,$,#174,.F.);
#176=EDGE_LOOP($,(#162,#168,#169,#175));
#177=FACE_OUTER_BOUND('',#176,.T.);
#178=ADVANCED_FACE('',(#177),#161,.T.);
#179=CARTESIAN_POINT($,(100,50,-10));
#180=DIRECTION($,(0,1,0));
#181=DIRECTION($,(0,0,1));
#182=AXIS2_PLACEMENT_3D($,#179,#180,#181);
#183=PLANE($,#182);
#184=ORIENTED_EDGE($,$,$,#22,.T.);
#185=CARTESIAN_POINT($,(-100,50,-10));
#186=DIRECTION($,(0,0,1));
#187=VECTOR($,#186,1);
#188=LINE($,#185,#187);
#189=EDGE_CURVE($,#17,#95,#188,.T.);
#190=ORIENTED_EDGE($,$,$,#189,.T.);
#191=ORIENTED_EDGE($,$,$,#100,.F.);
#192=ORIENTED_EDGE($,$,$,#167,.F.);
#193=EDGE_LOOP($,(#184,#190,#191,#192));
#194=FACE_OUTER_BOUND('',#193,.T.);
#195=ADVANCED_FACE('',(#194),#183,.T.);
#196=CARTESIAN_POINT($,(-100,50,-10));
#197=DIRECTION($,(-1,0,0));
#198=DIRECTION($,(0,0,1));
#199=AXIS2_PLACEMENT_3D($,#196,#197,#198);
#200=PLANE($,#199);
#201=ORIENTED_EDGE($,$,$,#30,.T.);
#202=CARTESIAN_POINT($,(-100,-50,-10));
#203=DIRECTION($,(0,0,1));
#204=VECTOR($,#203,1);
#205=LINE($,#202,#204);
#206=EDGE_CURVE($,#25,#103,#205,.T.);
#207=ORIENTED_EDGE($,$,$,#206,.T.);
#208=ORIENTED_EDGE($,$,$,#108,.F.);
#209=ORIENTED_EDGE($,$,$,#189,.F.);
#210=EDGE_LOOP($,(#201,#207,#208,#209));
#211=FACE_OUTER_BOUND('',#210,.T.);
#212=ADVANCED_FACE('',(#211),#200,.T.);
#213=CARTESIAN_POINT($,(-100,-50,-10));
#214=DIRECTION($,(0,-1,0));
#215=DIRECTION($,(0,0,1));
#216=AXIS2_PLACEMENT_3D($,#213,#214,#215);
#217=PLANE($,#216);
#218=ORIENTED_EDGE($,$,$,#36,.T.);
#219=ORIENTED_EDGE($,$,$,#174,.T.);
#220=ORIENTED_EDGE($,$,$,#114,.F.);
#221=ORIENTED_EDGE($,$,$,#206,.F.);
#222=EDGE_LOOP($,(#218,#219,#220,#221));
#223=FACE_OUTER_BOUND('',#222,.T.);
#224=ADVANCED_FACE('',(#223),#217,.T.);
#225=CARTESIAN_POINT($,(20,20,-10));
#226=DIRECTION($,(0,-1,0));
#227=DIRECTION($,(0,0,1));
#228=AXIS2_PLACEMENT_3D($,#225,#226,#227);
#229=PLANE($,#228);
#230=ORIENTED_EDGE($,$,$,#74,.T.);
#231=CARTESIAN_POINT($,(-20,20,-10));
#232=DIRECTION($,(0,0,1));
#233=VECTOR($,#232,1);
#234=LINE($,#231,#233);
#235=EDGE_CURVE($,#61,#139,#234,.T.);
#236=ORIENTED_EDGE($,$,$,#235,.T.);
#237=ORIENTED_EDGE($,$,$,#152,.F.);
#238=CARTESIAN_POINT($,(20,20,-10));
#239=DIRECTION($,(0,0,1));
#240=VECTOR($,#239,1);
#241=LINE($,#238,#240);
#242=EDGE_CURVE($,#43,#121,#241,.T.);
#243=ORIENTED_EDGE($,$,$,#242,.F.);
#244=EDGE_LOOP($,(#230,#236,#237,#243));
#245=FACE_OUTER_BOUND('',#244,.T.);
#246=ADVANCED_FACE('',(#245),#229,.T.);
#247=CARTESIAN_POINT($,(-20,0,-10));
#248=DIRECTION($,(0,0,1));
#249=DIRECTION($,(1,0,0));
#250=AXIS2_PLACEMENT_3D($,#247,#248,#249);
#251=CYLINDRICAL_SURFACE($,#250,20);
#252=ORIENTED_EDGE($,$,$,#68,.T.);
#253=CARTESIAN_POINT($,(-20,-20,-10));
#254=DIRECTION($,(0,0,1));
#255=VECTOR($,#254,1);
#256=LINE($,#253,#255);
#257=EDGE_CURVE($,#53,#131,#256,.T.);
#258=ORIENTED_EDGE($,$,$,#257,.T.);
#259=ORIENTED_EDGE($,$,$,#146,.F.);
#260=ORIENTED_EDGE($,$,$,#235,.F.);
#261=EDGE_LOOP($,(#252,#258,#259,#260));
#262=FACE_OUTER_BOUND('',#261,.T.);
#263=ADVANCED_FACE('',(#262),#251,.F.);
#264=CARTESIAN_POINT($,(-20,-20,-10));
#265=DIRECTION($,(0,1,0));
#266=DIRECTION($,(0,0,1));
#267=AXIS2_PLACEMENT_3D($,#264,#265,#266);
#268=PLANE($,#267);
#269=ORIENTED_EDGE($,$,$,#58,.T.);
#270=CARTESIAN_POINT($,(20,-20,-10));
#271=DIRECTION($,(0,0,1));
#272=VECTOR($,#271,1);
#273=LINE($,#270,#272);
#274=EDGE_CURVE($,#41,#119,#273,.T.);
#275=ORIENTED_EDGE($,$,$,#274,.T.);
#276=ORIENTED_EDGE($,$,$,#136,.F.);
#277=ORIENTED_EDGE($,$,$,#257,.F.);
#278=EDGE_LOOP($,(#269,#275,#276,#277));
#279=FACE_OUTER_BOUND('',#278,.T.);
#280=ADVANCED_FACE('',(#279),#268,.T.);
#281=CARTESIAN_POINT($,(20,0,-10));
#282=DIRECTION($,(0,0,1));
#283=DIRECTION($,(1,0,0));
#284=AXIS2_PLACEMENT_3D($,#281,#282,#283);
#285=CYLINDRICAL_SURFACE($,#284,20);
#286=ORIENTED_EDGE($,$,$,#50,.T.);
#287=ORIENTED_EDGE($,$,$,#242,.T.);
#288=ORIENTED_EDGE($,$,$,#128,.F.);
#289=ORIENTED_EDGE($,$,$,#274,.F.);
#290=EDGE_LOOP($,(#286,#287,#288,#289));
#291=FACE_OUTER_BOUND('',#290,.T.);
#292=ADVANCED_FACE('',(#291),#285,.F.);
#293=CLOSED_SHELL($,(#78,#156,#178,#195,#212,#224,#246,#263,#280,#292));
#294=MANIFOLD_SOLID_BREP('AetherisBody',#293);
#295=APPLICATION_CONTEXT('mechanical design');
#296=PRODUCT_CONTEXT('',#295,'mechanical');
#297=PRODUCT('AETHERIS','AetherisBody','',(#296));
#298=PRODUCT_DEFINITION_FORMATION('','',#297);
#299=PRODUCT_DEFINITION_CONTEXT('design',#295,'design');
#300=PRODUCT_DEFINITION('','',#298,#299);
#301=PRODUCT_DEFINITION_SHAPE('','',#300);
#302=(LENGTH_UNIT()NAMED_UNIT(*)SI_UNIT(.MILLI.,.METRE.));
#303=(NAMED_UNIT(*)PLANE_ANGLE_UNIT()SI_UNIT($,.RADIAN.));
#304=(NAMED_UNIT(*)SI_UNIT($,.STERADIAN.)SOLID_ANGLE_UNIT());
#305=(GEOMETRIC_REPRESENTATION_CONTEXT(3)GLOBAL_UNIT_ASSIGNED_CONTEXT((#302,#303,#304))REPRESENTATION_CONTEXT('3','3D'));
#306=SHAPE_REPRESENTATION('AetherisBody',(#294),#305);
#307=SHAPE_DEFINITION_REPRESENTATION(#301,#306);
ENDSEC;
END-ISO-10303-21;
