ISO-10303-21;
HEADER;
FILE_DESCRIPTION(('Aetheris AP242 subset export'),'2;1');
FILE_NAME('aetheris_export.step','1970-01-01T00:00:00',('Aetheris'),('Aetheris'),'Aetheris.Kernel','Aetheris.Kernel','');
FILE_SCHEMA(('AP242_MANAGED_MODEL_BASED_3D_ENGINEERING_MIM_LF'));
ENDSEC;
DATA;
#1=CARTESIAN_POINT($,(-50,0,0));
#2=DIRECTION($,(-1,-0,-0));
#3=DIRECTION($,(0,1,0));
#4=AXIS2_PLACEMENT_3D($,#1,#2,#3);
#5=PLANE($,#4);
#6=CARTESIAN_POINT($,(-50,-30,0));
#7=VERTEX_POINT($,#6);
#8=CARTESIAN_POINT($,(-50,30,-0));
#9=VERTEX_POINT($,#8);
#10=CARTESIAN_POINT($,(-50,-30,0));
#11=DIRECTION($,(0,1,0));
#12=VECTOR($,#11,1);
#13=LINE($,#10,#12);
#14=EDGE_CURVE($,#7,#9,#13,.T.);
#15=ORIENTED_EDGE($,$,$,#14,.T.);
#16=CARTESIAN_POINT($,(-50,30,12));
#17=VERTEX_POINT($,#16);
#18=CARTESIAN_POINT($,(-50,30,-0));
#19=DIRECTION($,(0,0,1));
#20=VECTOR($,#19,1);
#21=LINE($,#18,#20);
#22=EDGE_CURVE($,#9,#17,#21,.T.);
#23=ORIENTED_EDGE($,$,$,#22,.T.);
#24=CARTESIAN_POINT($,(-50,-30,12));
#25=VERTEX_POINT($,#24);
#26=CARTESIAN_POINT($,(-50,30,12));
#27=DIRECTION($,(0,-1,0));
#28=VECTOR($,#27,1);
#29=LINE($,#26,#28);
#30=EDGE_CURVE($,#17,#25,#29,.T.);
#31=ORIENTED_EDGE($,$,$,#30,.T.);
#32=CARTESIAN_POINT($,(-50,-30,12));
#33=DIRECTION($,(0,0,-1));
#34=VECTOR($,#33,1);
#35=LINE($,#32,#34);
#36=EDGE_CURVE($,#25,#7,#35,.T.);
#37=ORIENTED_EDGE($,$,$,#36,.T.);
#38=EDGE_LOOP($,(#15,#23,#31,#37));
#39=FACE_OUTER_BOUND('',#38,.T.);
#40=CARTESIAN_POINT($,(-50,14,6));
#41=VERTEX_POINT($,#40);
#42=CARTESIAN_POINT($,(-50,6,6));
#43=VERTEX_POINT($,#42);
#44=CARTESIAN_POINT($,(-50,10,6));
#45=DIRECTION($,(1,0,0));
#46=DIRECTION($,(0,1,0));
#47=AXIS2_PLACEMENT_3D($,#44,#45,#46);
#48=CIRCLE($,#47,4);
#49=TRIMMED_CURVE($,#48,(PARAMETER_VALUE(-3.14159265358979)),(PARAMETER_VALUE(0)),.T.,.PARAMETER.);
#50=EDGE_CURVE($,#41,#43,#49,.F.);
#51=ORIENTED_EDGE($,$,$,#50,.T.);
#52=CARTESIAN_POINT($,(-50,10,6));
#53=DIRECTION($,(1,0,0));
#54=DIRECTION($,(0,1,0));
#55=AXIS2_PLACEMENT_3D($,#52,#53,#54);
#56=CIRCLE($,#55,4);
#57=TRIMMED_CURVE($,#56,(PARAMETER_VALUE(0)),(PARAMETER_VALUE(3.14159265358979)),.T.,.PARAMETER.);
#58=EDGE_CURVE($,#43,#41,#57,.F.);
#59=ORIENTED_EDGE($,$,$,#58,.T.);
#60=EDGE_LOOP($,(#51,#59));
#61=FACE_BOUND('',#60,.T.);
#62=ADVANCED_FACE('',(#39,#61),#5,.T.);
#63=CARTESIAN_POINT($,(50,0,0));
#64=DIRECTION($,(1,0,0));
#65=DIRECTION($,(0,1,0));
#66=AXIS2_PLACEMENT_3D($,#63,#64,#65);
#67=PLANE($,#66);
#68=CARTESIAN_POINT($,(50,-30,-0));
#69=VERTEX_POINT($,#68);
#70=CARTESIAN_POINT($,(50,30,0));
#71=VERTEX_POINT($,#70);
#72=CARTESIAN_POINT($,(50,-30,-0));
#73=DIRECTION($,(0,1,0));
#74=VECTOR($,#73,1);
#75=LINE($,#72,#74);
#76=EDGE_CURVE($,#69,#71,#75,.T.);
#77=ORIENTED_EDGE($,$,$,#76,.T.);
#78=CARTESIAN_POINT($,(50,30,12));
#79=VERTEX_POINT($,#78);
#80=CARTESIAN_POINT($,(50,30,0));
#81=DIRECTION($,(0,0,1));
#82=VECTOR($,#81,1);
#83=LINE($,#80,#82);
#84=EDGE_CURVE($,#71,#79,#83,.T.);
#85=ORIENTED_EDGE($,$,$,#84,.T.);
#86=CARTESIAN_POINT($,(50,-30,12));
#87=VERTEX_POINT($,#86);
#88=CARTESIAN_POINT($,(50,30,12));
#89=DIRECTION($,(0,-1,0));
#90=VECTOR($,#89,1);
#91=LINE($,#88,#90);
#92=EDGE_CURVE($,#79,#87,#91,.T.);
#93=ORIENTED_EDGE($,$,$,#92,.T.);
#94=CARTESIAN_POINT($,(50,-30,12));
#95=DIRECTION($,(0,0,-1));
#96=VECTOR($,#95,1);
#97=LINE($,#94,#96);
#98=EDGE_CURVE($,#87,#69,#97,.T.);
#99=ORIENTED_EDGE($,$,$,#98,.T.);
#100=EDGE_LOOP($,(#77,#85,#93,#99));
#101=FACE_OUTER_BOUND('',#100,.T.);
#102=CARTESIAN_POINT($,(50,14,6));
#103=VERTEX_POINT($,#102);
#104=CARTESIAN_POINT($,(50,6,6));
#105=VERTEX_POINT($,#104);
#106=CARTESIAN_POINT($,(50,10,6));
#107=DIRECTION($,(1,0,0));
#108=DIRECTION($,(0,1,0));
#109=AXIS2_PLACEMENT_3D($,#106,#107,#108);
#110=CIRCLE($,#109,4);
#111=TRIMMED_CURVE($,#110,(PARAMETER_VALUE(-3.14159265358979)),(PARAMETER_VALUE(0)),.T.,.PARAMETER.);
#112=EDGE_CURVE($,#103,#105,#111,.F.);
#113=ORIENTED_EDGE($,$,$,#112,.T.);
#114=CARTESIAN_POINT($,(50,10,6));
#115=DIRECTION($,(1,0,0));
#116=DIRECTION($,(0,1,0));
#117=AXIS2_PLACEMENT_3D($,#114,#115,#116);
#118=CIRCLE($,#117,4);
#119=TRIMMED_CURVE($,#118,(PARAMETER_VALUE(0)),(PARAMETER_VALUE(3.14159265358979)),.T.,.PARAMETER.);
#120=EDGE_CURVE($,#105,#103,#119,.F.);
#121=ORIENTED_EDGE($,$,$,#120,.T.);
#122=EDGE_LOOP($,(#113,#121));
#123=FACE_BOUND('',#122,.T.);
#124=ADVANCED_FACE('',(#101,#123),#67,.T.);
#125=CARTESIAN_POINT($,(-50,-30,0));
#126=DIRECTION($,(0,0,-1));
#127=DIRECTION($,(1,0,0));
#128=AXIS2_PLACEMENT_3D($,#125,#126,#127);
#129=PLANE($,#128);
#130=ORIENTED_EDGE($,$,$,#14,.T.);
#131=CARTESIAN_POINT($,(-50,30,-0));
#132=DIRECTION($,(1,0,0));
#133=VECTOR($,#132,1);
#134=LINE($,#131,#133);
#135=EDGE_CURVE($,#9,#71,#134,.T.);
#136=ORIENTED_EDGE($,$,$,#135,.T.);
#137=ORIENTED_EDGE($,$,$,#76,.F.);
#138=CARTESIAN_POINT($,(-50,-30,0));
#139=DIRECTION($,(1,0,0));
#140=VECTOR($,#139,1);
#141=LINE($,#138,#140);
#142=EDGE_CURVE($,#7,#69,#141,.T.);
#143=ORIENTED_EDGE($,$,$,#142,.F.);
#144=EDGE_LOOP($,(#130,#136,#137,#143));
#145=FACE_OUTER_BOUND('',#144,.T.);
#146=ADVANCED_FACE('',(#145),#129,.T.);
#147=CARTESIAN_POINT($,(-50,30,0));
#148=DIRECTION($,(0,1,0));
#149=DIRECTION($,(1,0,0));
#150=AXIS2_PLACEMENT_3D($,#147,#148,#149);
#151=PLANE($,#150);
#152=ORIENTED_EDGE($,$,$,#22,.T.);
#153=CARTESIAN_POINT($,(-50,30,12));
#154=DIRECTION($,(1,0,0));
#155=VECTOR($,#154,1);
#156=LINE($,#153,#155);
#157=EDGE_CURVE($,#17,#79,#156,.T.);
#158=ORIENTED_EDGE($,$,$,#157,.T.);
#159=ORIENTED_EDGE($,$,$,#84,.F.);
#160=ORIENTED_EDGE($,$,$,#135,.F.);
#161=EDGE_LOOP($,(#152,#158,#159,#160));
#162=FACE_OUTER_BOUND('',#161,.T.);
#163=ADVANCED_FACE('',(#162),#151,.T.);
#164=CARTESIAN_POINT($,(-50,30,12));
#165=DIRECTION($,(0,0,1));
#166=DIRECTION($,(1,0,0));
#167=AXIS2_PLACEMENT_3D($,#164,#165,#166);
#168=PLANE($,#167);
#169=ORIENTED_EDGE($,$,$,#30,.T.);
#170=CARTESIAN_POINT($,(-50,-30,12));
#171=DIRECTION($,(1,0,0));
#172=VECTOR($,#171,1);
#173=LINE($,#170,#172);
#174=EDGE_CURVE($,#25,#87,#173,.T.);
#175=ORIENTED_EDGE($,$,$,#174,.T.);
#176=ORIENTED_EDGE($,$,$,#92,.F.);
#177=ORIENTED_EDGE($,$,$,#157,.F.);
#178=EDGE_LOOP($,(#169,#175,#176,#177));
#179=FACE_OUTER_BOUND('',#178,.T.);
#180=ADVANCED_FACE('',(#179),#168,.T.);
#181=CARTESIAN_POINT($,(-50,-30,12));
#182=DIRECTION($,(0,-1,0));
#183=DIRECTION($,(1,0,0));
#184=AXIS2_PLACEMENT_3D($,#181,#182,#183);
#185=PLANE($,#184);
#186=ORIENTED_EDGE($,$,$,#36,.T.);
#187=ORIENTED_EDGE($,$,$,#142,.T.);
#188=ORIENTED_EDGE($,$,$,#98,.F.);
#189=ORIENTED_EDGE($,$,$,#174,.F.);
#190=EDGE_LOOP($,(#186,#187,#188,#189));
#191=FACE_OUTER_BOUND('',#190,.T.);
#192=ADVANCED_FACE('',(#191),#185,.T.);
#193=CARTESIAN_POINT($,(-50,10,6));
#194=DIRECTION($,(1,0,0));
#195=DIRECTION($,(0,1,0));
#196=AXIS2_PLACEMENT_3D($,#193,#194,#195);
#197=CYLINDRICAL_SURFACE($,#196,4);
#198=ORIENTED_EDGE($,$,$,#50,.T.);
#199=CARTESIAN_POINT($,(-50,6,6));
#200=DIRECTION($,(1,0,0));
#201=VECTOR($,#200,1);
#202=LINE($,#199,#201);
#203=EDGE_CURVE($,#43,#105,#202,.T.);
#204=ORIENTED_EDGE($,$,$,#203,.T.);
#205=ORIENTED_EDGE($,$,$,#112,.F.);
#206=CARTESIAN_POINT($,(-50,14,6));
#207=DIRECTION($,(1,0,0));
#208=VECTOR($,#207,1);
#209=LINE($,#206,#208);
#210=EDGE_CURVE($,#41,#103,#209,.T.);
#211=ORIENTED_EDGE($,$,$,#210,.F.);
#212=EDGE_LOOP($,(#198,#204,#205,#211));
#213=FACE_OUTER_BOUND('',#212,.T.);
#214=ADVANCED_FACE('',(#213),#197,.F.);
#215=CARTESIAN_POINT($,(-50,10,6));
#216=DIRECTION($,(1,0,0));
#217=DIRECTION($,(0,1,0));
#218=AXIS2_PLACEMENT_3D($,#215,#216,#217);
#219=CYLINDRICAL_SURFACE($,#218,4);
#220=ORIENTED_EDGE($,$,$,#58,.T.);
#221=ORIENTED_EDGE($,$,$,#210,.T.);
#222=ORIENTED_EDGE($,$,$,#120,.F.);
#223=ORIENTED_EDGE($,$,$,#203,.F.);
#224=EDGE_LOOP($,(#220,#221,#222,#223));
#225=FACE_OUTER_BOUND('',#224,.T.);
#226=ADVANCED_FACE('',(#225),#219,.F.);
#227=CLOSED_SHELL($,(#62,#124,#146,#163,#180,#192,#214,#226));
#228=MANIFOLD_SOLID_BREP('AetherisBody',#227);
#229=APPLICATION_CONTEXT('mechanical design');
#230=PRODUCT_CONTEXT('',#229,'mechanical');
#231=PRODUCT('AETHERIS','AetherisBody','',(#230));
#232=PRODUCT_DEFINITION_FORMATION('','',#231);
#233=PRODUCT_DEFINITION_CONTEXT('design',#229,'design');
#234=PRODUCT_DEFINITION('','',#232,#233);
#235=PRODUCT_DEFINITION_SHAPE('','',#234);
#236=(LENGTH_UNIT()NAMED_UNIT(*)SI_UNIT(.MILLI.,.METRE.));
#237=(NAMED_UNIT(*)PLANE_ANGLE_UNIT()SI_UNIT($,.RADIAN.));
#238=(NAMED_UNIT(*)SI_UNIT($,.STERADIAN.)SOLID_ANGLE_UNIT());
#239=(GEOMETRIC_REPRESENTATION_CONTEXT(3)GLOBAL_UNIT_ASSIGNED_CONTEXT((#236,#237,#238))REPRESENTATION_CONTEXT('3','3D'));
#240=SHAPE_REPRESENTATION('AetherisBody',(#228),#239);
#241=SHAPE_DEFINITION_REPRESENTATION(#235,#240);
ENDSEC;
END-ISO-10303-21;
