ISO-10303-21;
HEADER;
FILE_DESCRIPTION(('Aetheris AP242 subset export'),'2;1');
FILE_NAME('aetheris_export.step','1970-01-01T00:00:00',('Aetheris'),('Aetheris'),'Aetheris.Kernel','Aetheris.Kernel','');
FILE_SCHEMA(('AP242_MANAGED_MODEL_BASED_3D_ENGINEERING_MIM_LF'));
ENDSEC;
DATA;
#1=CARTESIAN_POINT($,(0,0,0));
#2=DIRECTION($,(0,0,-1));
#3=DIRECTION($,(1,0,0));
#4=AXIS2_PLACEMENT_3D($,#1,#2,#3);
#5=PLANE($,#4);
#6=CARTESIAN_POINT($,(402.051790441049,133.568740352839,0));
#7=VERTEX_POINT($,#6);
#8=CARTESIAN_POINT($,(402.051790441049,485.358740352839,-0));
#9=VERTEX_POINT($,#8);
#10=CARTESIAN_POINT($,(402.051790441049,133.568740352839,0));
#11=DIRECTION($,(0,1,0));
#12=VECTOR($,#11,1);
#13=LINE($,#10,#12);
#14=EDGE_CURVE($,#7,#9,#13,.T.);
#15=ORIENTED_EDGE($,$,$,#14,.T.);
#16=CARTESIAN_POINT($,(353.537790441049,485.358740352839,0));
#17=VERTEX_POINT($,#16);
#18=CARTESIAN_POINT($,(402.051790441049,485.358740352839,-0));
#19=DIRECTION($,(-1,0,0));
#20=VECTOR($,#19,1);
#21=LINE($,#18,#20);
#22=EDGE_CURVE($,#9,#17,#21,.T.);
#23=ORIENTED_EDGE($,$,$,#22,.T.);
#24=CARTESIAN_POINT($,(347.802420352839,485.358740352839,0));
#25=VERTEX_POINT($,#24);
#26=CARTESIAN_POINT($,(353.537790441049,485.358740352839,0));
#27=DIRECTION($,(-1,0,0));
#28=VECTOR($,#27,1);
#29=LINE($,#26,#28);
#30=EDGE_CURVE($,#17,#25,#29,.T.);
#31=ORIENTED_EDGE($,$,$,#30,.T.);
#32=CARTESIAN_POINT($,(318.691480352839,485.358740352839,0));
#33=VERTEX_POINT($,#32);
#34=CARTESIAN_POINT($,(347.802420352839,485.358740352839,0));
#35=DIRECTION($,(-1,0,0));
#36=VECTOR($,#35,1);
#37=LINE($,#34,#36);
#38=EDGE_CURVE($,#25,#33,#37,.T.);
#39=ORIENTED_EDGE($,$,$,#38,.T.);
#40=CARTESIAN_POINT($,(307.22074017642,485.35874035284,0));
#41=VERTEX_POINT($,#40);
#42=CARTESIAN_POINT($,(318.691480352839,485.358740352839,0));
#43=DIRECTION($,(-1,0,0));
#44=VECTOR($,#43,1);
#45=LINE($,#42,#44);
#46=EDGE_CURVE($,#33,#41,#45,.T.);
#47=ORIENTED_EDGE($,$,$,#46,.T.);
#48=CARTESIAN_POINT($,(307.22074017642,493.613740352839,-0));
#49=VERTEX_POINT($,#48);
#50=CARTESIAN_POINT($,(307.22074017642,485.35874035284,0));
#51=DIRECTION($,(0,1,0));
#52=VECTOR($,#51,1);
#53=LINE($,#50,#52);
#54=EDGE_CURVE($,#41,#49,#53,.T.);
#55=ORIENTED_EDGE($,$,$,#54,.T.);
#56=CARTESIAN_POINT($,(298.96574017642,493.613740352839,0));
#57=VERTEX_POINT($,#56);
#58=CARTESIAN_POINT($,(307.22074017642,493.613740352839,-0));
#59=DIRECTION($,(-1,0,0));
#60=VECTOR($,#59,1);
#61=LINE($,#58,#60);
#62=EDGE_CURVE($,#49,#57,#61,.T.);
#63=ORIENTED_EDGE($,$,$,#62,.T.);
#64=CARTESIAN_POINT($,(298.96574017642,505.084480529259,0));
#65=VERTEX_POINT($,#64);
#66=CARTESIAN_POINT($,(298.96574017642,493.613740352839,0));
#67=DIRECTION($,(0,1,0));
#68=VECTOR($,#67,1);
#69=LINE($,#66,#68);
#70=EDGE_CURVE($,#57,#65,#69,.T.);
#71=ORIENTED_EDGE($,$,$,#70,.T.);
#72=CARTESIAN_POINT($,(298.96574017642,566.677020529259,0));
#73=VERTEX_POINT($,#72);
#74=CARTESIAN_POINT($,(298.96574017642,505.084480529259,0));
#75=DIRECTION($,(0,1,0));
#76=VECTOR($,#75,1);
#77=LINE($,#74,#76);
#78=EDGE_CURVE($,#65,#73,#77,.T.);
#79=ORIENTED_EDGE($,$,$,#78,.T.);
#80=CARTESIAN_POINT($,(298.96574017642,578.147760705679,0));
#81=VERTEX_POINT($,#80);
#82=CARTESIAN_POINT($,(298.96574017642,566.677020529259,0));
#83=DIRECTION($,(0,1,0));
#84=VECTOR($,#83,1);
#85=LINE($,#82,#84);
#86=EDGE_CURVE($,#73,#81,#85,.T.);
#87=ORIENTED_EDGE($,$,$,#86,.T.);
#88=CARTESIAN_POINT($,(298.96574017642,622.597760705679,-0));
#89=VERTEX_POINT($,#88);
#90=CARTESIAN_POINT($,(298.96574017642,578.147760705679,0));
#91=DIRECTION($,(0,1,0));
#92=VECTOR($,#91,1);
#93=LINE($,#90,#92);
#94=EDGE_CURVE($,#81,#89,#93,.T.);
#95=ORIENTED_EDGE($,$,$,#94,.T.);
#96=CARTESIAN_POINT($,(74.1757401764197,622.597760705679,-0));
#97=VERTEX_POINT($,#96);
#98=CARTESIAN_POINT($,(298.96574017642,622.597760705679,-0));
#99=DIRECTION($,(-1,0,0));
#100=VECTOR($,#99,1);
#101=LINE($,#98,#100);
#102=EDGE_CURVE($,#89,#97,#101,.T.);
#103=ORIENTED_EDGE($,$,$,#102,.T.);
#104=CARTESIAN_POINT($,(74.1757401764197,578.147760705679,0));
#105=VERTEX_POINT($,#104);
#106=CARTESIAN_POINT($,(74.1757401764197,622.597760705679,-0));
#107=DIRECTION($,(0,-1,0));
#108=VECTOR($,#107,1);
#109=LINE($,#106,#108);
#110=EDGE_CURVE($,#97,#105,#109,.T.);
#111=ORIENTED_EDGE($,$,$,#110,.T.);
#112=CARTESIAN_POINT($,(74.1757401764197,566.677020529259,0));
#113=VERTEX_POINT($,#112);
#114=CARTESIAN_POINT($,(74.1757401764197,578.147760705679,0));
#115=DIRECTION($,(0,-1,0));
#116=VECTOR($,#115,1);
#117=LINE($,#114,#116);
#118=EDGE_CURVE($,#105,#113,#117,.T.);
#119=ORIENTED_EDGE($,$,$,#118,.T.);
#120=CARTESIAN_POINT($,(74.1757401764197,505.084480529259,0));
#121=VERTEX_POINT($,#120);
#122=CARTESIAN_POINT($,(74.1757401764197,566.677020529259,0));
#123=DIRECTION($,(0,-1,0));
#124=VECTOR($,#123,1);
#125=LINE($,#122,#124);
#126=EDGE_CURVE($,#113,#121,#125,.T.);
#127=ORIENTED_EDGE($,$,$,#126,.T.);
#128=CARTESIAN_POINT($,(74.1757401764197,493.613740352839,0));
#129=VERTEX_POINT($,#128);
#130=CARTESIAN_POINT($,(74.1757401764197,505.084480529259,0));
#131=DIRECTION($,(0,-1,0));
#132=VECTOR($,#131,1);
#133=LINE($,#130,#132);
#134=EDGE_CURVE($,#121,#129,#133,.T.);
#135=ORIENTED_EDGE($,$,$,#134,.T.);
#136=CARTESIAN_POINT($,(65.9207401764197,493.613740352839,-0));
#137=VERTEX_POINT($,#136);
#138=CARTESIAN_POINT($,(74.1757401764197,493.613740352839,0));
#139=DIRECTION($,(-1,0,0));
#140=VECTOR($,#139,1);
#141=LINE($,#138,#140);
#142=EDGE_CURVE($,#129,#137,#141,.T.);
#143=ORIENTED_EDGE($,$,$,#142,.T.);
#144=CARTESIAN_POINT($,(65.9207401764197,485.35874035284,0));
#145=VERTEX_POINT($,#144);
#146=CARTESIAN_POINT($,(65.9207401764197,493.613740352839,-0));
#147=DIRECTION($,(0,-1,0));
#148=VECTOR($,#147,1);
#149=LINE($,#146,#148);
#150=EDGE_CURVE($,#137,#145,#149,.T.);
#151=ORIENTED_EDGE($,$,$,#150,.T.);
#152=CARTESIAN_POINT($,(54.45,485.35874035284,0));
#153=VERTEX_POINT($,#152);
#154=CARTESIAN_POINT($,(65.9207401764197,485.35874035284,0));
#155=DIRECTION($,(-1,0,0));
#156=VECTOR($,#155,1);
#157=LINE($,#154,#156);
#158=EDGE_CURVE($,#145,#153,#157,.T.);
#159=ORIENTED_EDGE($,$,$,#158,.T.);
#160=CARTESIAN_POINT($,(10,485.35874035284,-0));
#161=VERTEX_POINT($,#160);
#162=CARTESIAN_POINT($,(54.45,485.35874035284,0));
#163=DIRECTION($,(-1,0,0));
#164=VECTOR($,#163,1);
#165=LINE($,#162,#164);
#166=EDGE_CURVE($,#153,#161,#165,.T.);
#167=ORIENTED_EDGE($,$,$,#166,.T.);
#168=CARTESIAN_POINT($,(10,133.568740352839,-0));
#169=VERTEX_POINT($,#168);
#170=CARTESIAN_POINT($,(10,485.35874035284,-0));
#171=DIRECTION($,(0,-1,0));
#172=VECTOR($,#171,1);
#173=LINE($,#170,#172);
#174=EDGE_CURVE($,#161,#169,#173,.T.);
#175=ORIENTED_EDGE($,$,$,#174,.T.);
#176=CARTESIAN_POINT($,(54.45,133.568740352839,0));
#177=VERTEX_POINT($,#176);
#178=CARTESIAN_POINT($,(10,133.568740352839,-0));
#179=DIRECTION($,(1,0,0));
#180=VECTOR($,#179,1);
#181=LINE($,#178,#180);
#182=EDGE_CURVE($,#169,#177,#181,.T.);
#183=ORIENTED_EDGE($,$,$,#182,.T.);
#184=CARTESIAN_POINT($,(65.9207401764197,133.568740352839,0));
#185=VERTEX_POINT($,#184);
#186=CARTESIAN_POINT($,(54.45,133.568740352839,0));
#187=DIRECTION($,(1,0,0));
#188=VECTOR($,#187,1);
#189=LINE($,#186,#188);
#190=EDGE_CURVE($,#177,#185,#189,.T.);
#191=ORIENTED_EDGE($,$,$,#190,.T.);
#192=CARTESIAN_POINT($,(65.9207401764197,125.313740352839,-0));
#193=VERTEX_POINT($,#192);
#194=CARTESIAN_POINT($,(65.9207401764197,133.568740352839,0));
#195=DIRECTION($,(0,-1,0));
#196=VECTOR($,#195,1);
#197=LINE($,#194,#196);
#198=EDGE_CURVE($,#185,#193,#197,.T.);
#199=ORIENTED_EDGE($,$,$,#198,.T.);
#200=CARTESIAN_POINT($,(74.1757401764197,125.313740352839,0));
#201=VERTEX_POINT($,#200);
#202=CARTESIAN_POINT($,(65.9207401764197,125.313740352839,-0));
#203=DIRECTION($,(1,0,0));
#204=VECTOR($,#203,1);
#205=LINE($,#202,#204);
#206=EDGE_CURVE($,#193,#201,#205,.T.);
#207=ORIENTED_EDGE($,$,$,#206,.T.);
#208=CARTESIAN_POINT($,(74.1757401764197,113.84300017642,0));
#209=VERTEX_POINT($,#208);
#210=CARTESIAN_POINT($,(74.1757401764197,125.313740352839,0));
#211=DIRECTION($,(0,-1,0));
#212=VECTOR($,#211,1);
#213=LINE($,#210,#212);
#214=EDGE_CURVE($,#201,#209,#213,.T.);
#215=ORIENTED_EDGE($,$,$,#214,.T.);
#216=CARTESIAN_POINT($,(74.1757401764197,52.2504601764197,0));
#217=VERTEX_POINT($,#216);
#218=CARTESIAN_POINT($,(74.1757401764197,113.84300017642,0));
#219=DIRECTION($,(0,-1,0));
#220=VECTOR($,#219,1);
#221=LINE($,#218,#220);
#222=EDGE_CURVE($,#209,#217,#221,.T.);
#223=ORIENTED_EDGE($,$,$,#222,.T.);
#224=CARTESIAN_POINT($,(74.1757401764197,40.77972,0));
#225=VERTEX_POINT($,#224);
#226=CARTESIAN_POINT($,(74.1757401764197,52.2504601764197,0));
#227=DIRECTION($,(0,-1,0));
#228=VECTOR($,#227,1);
#229=LINE($,#226,#228);
#230=EDGE_CURVE($,#217,#225,#229,.T.);
#231=ORIENTED_EDGE($,$,$,#230,.T.);
#232=CARTESIAN_POINT($,(74.1757401764197,10,-0));
#233=VERTEX_POINT($,#232);
#234=CARTESIAN_POINT($,(74.1757401764197,40.77972,0));
#235=DIRECTION($,(0,-1,0));
#236=VECTOR($,#235,1);
#237=LINE($,#234,#236);
#238=EDGE_CURVE($,#225,#233,#237,.T.);
#239=ORIENTED_EDGE($,$,$,#238,.T.);
#240=CARTESIAN_POINT($,(298.96574017642,10,-0));
#241=VERTEX_POINT($,#240);
#242=CARTESIAN_POINT($,(74.1757401764197,10,-0));
#243=DIRECTION($,(1,0,0));
#244=VECTOR($,#243,1);
#245=LINE($,#242,#244);
#246=EDGE_CURVE($,#233,#241,#245,.T.);
#247=ORIENTED_EDGE($,$,$,#246,.T.);
#248=CARTESIAN_POINT($,(298.96574017642,40.77972,0));
#249=VERTEX_POINT($,#248);
#250=CARTESIAN_POINT($,(298.96574017642,10,-0));
#251=DIRECTION($,(0,1,0));
#252=VECTOR($,#251,1);
#253=LINE($,#250,#252);
#254=EDGE_CURVE($,#241,#249,#253,.T.);
#255=ORIENTED_EDGE($,$,$,#254,.T.);
#256=CARTESIAN_POINT($,(298.96574017642,52.2504601764197,0));
#257=VERTEX_POINT($,#256);
#258=CARTESIAN_POINT($,(298.96574017642,40.77972,0));
#259=DIRECTION($,(0,1,0));
#260=VECTOR($,#259,1);
#261=LINE($,#258,#260);
#262=EDGE_CURVE($,#249,#257,#261,.T.);
#263=ORIENTED_EDGE($,$,$,#262,.T.);
#264=CARTESIAN_POINT($,(298.96574017642,113.84300017642,0));
#265=VERTEX_POINT($,#264);
#266=CARTESIAN_POINT($,(298.96574017642,52.2504601764197,0));
#267=DIRECTION($,(0,1,0));
#268=VECTOR($,#267,1);
#269=LINE($,#266,#268);
#270=EDGE_CURVE($,#257,#265,#269,.T.);
#271=ORIENTED_EDGE($,$,$,#270,.T.);
#272=CARTESIAN_POINT($,(298.96574017642,125.313740352839,0));
#273=VERTEX_POINT($,#272);
#274=CARTESIAN_POINT($,(298.96574017642,113.84300017642,0));
#275=DIRECTION($,(0,1,0));
#276=VECTOR($,#275,1);
#277=LINE($,#274,#276);
#278=EDGE_CURVE($,#265,#273,#277,.T.);
#279=ORIENTED_EDGE($,$,$,#278,.T.);
#280=CARTESIAN_POINT($,(307.22074017642,125.313740352839,-0));
#281=VERTEX_POINT($,#280);
#282=CARTESIAN_POINT($,(298.96574017642,125.313740352839,0));
#283=DIRECTION($,(1,0,0));
#284=VECTOR($,#283,1);
#285=LINE($,#282,#284);
#286=EDGE_CURVE($,#273,#281,#285,.T.);
#287=ORIENTED_EDGE($,$,$,#286,.T.);
#288=CARTESIAN_POINT($,(307.22074017642,133.568740352839,0));
#289=VERTEX_POINT($,#288);
#290=CARTESIAN_POINT($,(307.22074017642,125.313740352839,-0));
#291=DIRECTION($,(0,1,0));
#292=VECTOR($,#291,1);
#293=LINE($,#290,#292);
#294=EDGE_CURVE($,#281,#289,#293,.T.);
#295=ORIENTED_EDGE($,$,$,#294,.T.);
#296=CARTESIAN_POINT($,(318.691480352839,133.568740352839,0));
#297=VERTEX_POINT($,#296);
#298=CARTESIAN_POINT($,(307.22074017642,133.568740352839,0));
#299=DIRECTION($,(1,0,0));
#300=VECTOR($,#299,1);
#301=LINE($,#298,#300);
#302=EDGE_CURVE($,#289,#297,#301,.T.);
#303=ORIENTED_EDGE($,$,$,#302,.T.);
#304=CARTESIAN_POINT($,(347.802420352839,133.568740352839,0));
#305=VERTEX_POINT($,#304);
#306=CARTESIAN_POINT($,(318.691480352839,133.568740352839,0));
#307=DIRECTION($,(1,0,0));
#308=VECTOR($,#307,1);
#309=LINE($,#306,#308);
#310=EDGE_CURVE($,#297,#305,#309,.T.);
#311=ORIENTED_EDGE($,$,$,#310,.T.);
#312=CARTESIAN_POINT($,(353.537790441049,133.568740352839,0));
#313=VERTEX_POINT($,#312);
#314=CARTESIAN_POINT($,(347.802420352839,133.568740352839,0));
#315=DIRECTION($,(1,0,0));
#316=VECTOR($,#315,1);
#317=LINE($,#314,#316);
#318=EDGE_CURVE($,#305,#313,#317,.T.);
#319=ORIENTED_EDGE($,$,$,#318,.T.);
#320=CARTESIAN_POINT($,(353.537790441049,133.568740352839,0));
#321=DIRECTION($,(1,0,0));
#322=VECTOR($,#321,1);
#323=LINE($,#320,#322);
#324=EDGE_CURVE($,#313,#7,#323,.T.);
#325=ORIENTED_EDGE($,$,$,#324,.T.);
#326=EDGE_LOOP($,(#15,#23,#31,#39,#47,#55,#63,#71,#79,#87,#95,#103,#111,#119,#127,#135,#143,#151,#159,#167,#175,#183,#191,#199,#207,#215,#223,#231,#239,#247,#255,#263,#271,#279,#287,#295,#303,#311,#319,#325));
#327=FACE_OUTER_BOUND('',#326,.T.);
#328=CARTESIAN_POINT($,(107.67834017642,189.298880352839,-0));
#329=VERTEX_POINT($,#328);
#330=CARTESIAN_POINT($,(126.72834017642,189.298880352839,0));
#331=VERTEX_POINT($,#330);
#332=CARTESIAN_POINT($,(107.67834017642,189.298880352839,-0));
#333=DIRECTION($,(1,0,0));
#334=VECTOR($,#333,1);
#335=LINE($,#332,#334);
#336=EDGE_CURVE($,#329,#331,#335,.T.);
#337=ORIENTED_EDGE($,$,$,#336,.F.);
#338=CARTESIAN_POINT($,(107.67834017642,278.198880352839,-0));
#339=VERTEX_POINT($,#338);
#340=CARTESIAN_POINT($,(107.67834017642,278.198880352839,-0));
#341=DIRECTION($,(0,-1,0));
#342=VECTOR($,#341,1);
#343=LINE($,#340,#342);
#344=EDGE_CURVE($,#339,#329,#343,.T.);
#345=ORIENTED_EDGE($,$,$,#344,.F.);
#346=CARTESIAN_POINT($,(126.72834017642,278.198880352839,-0));
#347=VERTEX_POINT($,#346);
#348=CARTESIAN_POINT($,(126.72834017642,278.198880352839,-0));
#349=DIRECTION($,(-1,0,0));
#350=VECTOR($,#349,1);
#351=LINE($,#348,#350);
#352=EDGE_CURVE($,#347,#339,#351,.T.);
#353=ORIENTED_EDGE($,$,$,#352,.F.);
#354=CARTESIAN_POINT($,(126.72834017642,189.298880352839,0));
#355=DIRECTION($,(0,1,0));
#356=VECTOR($,#355,1);
#357=LINE($,#354,#356);
#358=EDGE_CURVE($,#331,#347,#357,.T.);
#359=ORIENTED_EDGE($,$,$,#358,.F.);
#360=EDGE_LOOP($,(#337,#345,#353,#359));
#361=FACE_BOUND('',#360,.T.);
#362=CARTESIAN_POINT($,(171.17834017642,189.298880352839,-0));
#363=VERTEX_POINT($,#362);
#364=CARTESIAN_POINT($,(190.22834017642,189.298880352839,0));
#365=VERTEX_POINT($,#364);
#366=CARTESIAN_POINT($,(171.17834017642,189.298880352839,-0));
#367=DIRECTION($,(1,0,0));
#368=VECTOR($,#367,1);
#369=LINE($,#366,#368);
#370=EDGE_CURVE($,#363,#365,#369,.T.);
#371=ORIENTED_EDGE($,$,$,#370,.F.);
#372=CARTESIAN_POINT($,(171.17834017642,278.198880352839,-0));
#373=VERTEX_POINT($,#372);
#374=CARTESIAN_POINT($,(171.17834017642,278.198880352839,-0));
#375=DIRECTION($,(0,-1,0));
#376=VECTOR($,#375,1);
#377=LINE($,#374,#376);
#378=EDGE_CURVE($,#373,#363,#377,.T.);
#379=ORIENTED_EDGE($,$,$,#378,.F.);
#380=CARTESIAN_POINT($,(190.22834017642,278.198880352839,-0));
#381=VERTEX_POINT($,#380);
#382=CARTESIAN_POINT($,(190.22834017642,278.198880352839,-0));
#383=DIRECTION($,(-1,0,0));
#384=VECTOR($,#383,1);
#385=LINE($,#382,#384);
#386=EDGE_CURVE($,#381,#373,#385,.T.);
#387=ORIENTED_EDGE($,$,$,#386,.F.);
#388=CARTESIAN_POINT($,(190.22834017642,189.298880352839,0));
#389=DIRECTION($,(0,1,0));
#390=VECTOR($,#389,1);
#391=LINE($,#388,#390);
#392=EDGE_CURVE($,#365,#381,#391,.T.);
#393=ORIENTED_EDGE($,$,$,#392,.F.);
#394=EDGE_LOOP($,(#371,#379,#387,#393));
#395=FACE_BOUND('',#394,.T.);
#396=ADVANCED_FACE('',(#327,#361,#395),#5,.T.);
#397=CARTESIAN_POINT($,(0,0,1.905));
#398=DIRECTION($,(0,0,1));
#399=DIRECTION($,(1,0,0));
#400=AXIS2_PLACEMENT_3D($,#397,#398,#399);
#401=PLANE($,#400);
#402=CARTESIAN_POINT($,(402.051790441049,133.568740352839,1.905));
#403=VERTEX_POINT($,#402);
#404=CARTESIAN_POINT($,(402.051790441049,485.358740352839,1.905));
#405=VERTEX_POINT($,#404);
#406=CARTESIAN_POINT($,(402.051790441049,133.568740352839,1.905));
#407=DIRECTION($,(0,1,0));
#408=VECTOR($,#407,1);
#409=LINE($,#406,#408);
#410=EDGE_CURVE($,#403,#405,#409,.T.);
#411=ORIENTED_EDGE($,$,$,#410,.T.);
#412=CARTESIAN_POINT($,(353.537790441049,485.358740352839,1.905));
#413=VERTEX_POINT($,#412);
#414=CARTESIAN_POINT($,(402.051790441049,485.358740352839,1.905));
#415=DIRECTION($,(-1,0,0));
#416=VECTOR($,#415,1);
#417=LINE($,#414,#416);
#418=EDGE_CURVE($,#405,#413,#417,.T.);
#419=ORIENTED_EDGE($,$,$,#418,.T.);
#420=CARTESIAN_POINT($,(347.802420352839,485.358740352839,1.905));
#421=VERTEX_POINT($,#420);
#422=CARTESIAN_POINT($,(353.537790441049,485.358740352839,1.905));
#423=DIRECTION($,(-1,0,0));
#424=VECTOR($,#423,1);
#425=LINE($,#422,#424);
#426=EDGE_CURVE($,#413,#421,#425,.T.);
#427=ORIENTED_EDGE($,$,$,#426,.T.);
#428=CARTESIAN_POINT($,(318.691480352839,485.358740352839,1.905));
#429=VERTEX_POINT($,#428);
#430=CARTESIAN_POINT($,(347.802420352839,485.358740352839,1.905));
#431=DIRECTION($,(-1,0,0));
#432=VECTOR($,#431,1);
#433=LINE($,#430,#432);
#434=EDGE_CURVE($,#421,#429,#433,.T.);
#435=ORIENTED_EDGE($,$,$,#434,.T.);
#436=CARTESIAN_POINT($,(307.22074017642,485.35874035284,1.905));
#437=VERTEX_POINT($,#436);
#438=CARTESIAN_POINT($,(318.691480352839,485.358740352839,1.905));
#439=DIRECTION($,(-1,0,0));
#440=VECTOR($,#439,1);
#441=LINE($,#438,#440);
#442=EDGE_CURVE($,#429,#437,#441,.T.);
#443=ORIENTED_EDGE($,$,$,#442,.T.);
#444=CARTESIAN_POINT($,(307.22074017642,493.613740352839,1.905));
#445=VERTEX_POINT($,#444);
#446=CARTESIAN_POINT($,(307.22074017642,485.35874035284,1.905));
#447=DIRECTION($,(0,1,0));
#448=VECTOR($,#447,1);
#449=LINE($,#446,#448);
#450=EDGE_CURVE($,#437,#445,#449,.T.);
#451=ORIENTED_EDGE($,$,$,#450,.T.);
#452=CARTESIAN_POINT($,(298.96574017642,493.613740352839,1.905));
#453=VERTEX_POINT($,#452);
#454=CARTESIAN_POINT($,(307.22074017642,493.613740352839,1.905));
#455=DIRECTION($,(-1,0,0));
#456=VECTOR($,#455,1);
#457=LINE($,#454,#456);
#458=EDGE_CURVE($,#445,#453,#457,.T.);
#459=ORIENTED_EDGE($,$,$,#458,.T.);
#460=CARTESIAN_POINT($,(298.96574017642,505.084480529259,1.905));
#461=VERTEX_POINT($,#460);
#462=CARTESIAN_POINT($,(298.96574017642,493.613740352839,1.905));
#463=DIRECTION($,(0,1,0));
#464=VECTOR($,#463,1);
#465=LINE($,#462,#464);
#466=EDGE_CURVE($,#453,#461,#465,.T.);
#467=ORIENTED_EDGE($,$,$,#466,.T.);
#468=CARTESIAN_POINT($,(298.96574017642,566.677020529259,1.905));
#469=VERTEX_POINT($,#468);
#470=CARTESIAN_POINT($,(298.96574017642,505.084480529259,1.905));
#471=DIRECTION($,(0,1,0));
#472=VECTOR($,#471,1);
#473=LINE($,#470,#472);
#474=EDGE_CURVE($,#461,#469,#473,.T.);
#475=ORIENTED_EDGE($,$,$,#474,.T.);
#476=CARTESIAN_POINT($,(298.96574017642,578.147760705679,1.905));
#477=VERTEX_POINT($,#476);
#478=CARTESIAN_POINT($,(298.96574017642,566.677020529259,1.905));
#479=DIRECTION($,(0,1,0));
#480=VECTOR($,#479,1);
#481=LINE($,#478,#480);
#482=EDGE_CURVE($,#469,#477,#481,.T.);
#483=ORIENTED_EDGE($,$,$,#482,.T.);
#484=CARTESIAN_POINT($,(298.96574017642,622.597760705679,1.905));
#485=VERTEX_POINT($,#484);
#486=CARTESIAN_POINT($,(298.96574017642,578.147760705679,1.905));
#487=DIRECTION($,(0,1,0));
#488=VECTOR($,#487,1);
#489=LINE($,#486,#488);
#490=EDGE_CURVE($,#477,#485,#489,.T.);
#491=ORIENTED_EDGE($,$,$,#490,.T.);
#492=CARTESIAN_POINT($,(74.1757401764197,622.597760705679,1.905));
#493=VERTEX_POINT($,#492);
#494=CARTESIAN_POINT($,(298.96574017642,622.597760705679,1.905));
#495=DIRECTION($,(-1,0,0));
#496=VECTOR($,#495,1);
#497=LINE($,#494,#496);
#498=EDGE_CURVE($,#485,#493,#497,.T.);
#499=ORIENTED_EDGE($,$,$,#498,.T.);
#500=CARTESIAN_POINT($,(74.1757401764197,578.147760705679,1.905));
#501=VERTEX_POINT($,#500);
#502=CARTESIAN_POINT($,(74.1757401764197,622.597760705679,1.905));
#503=DIRECTION($,(0,-1,0));
#504=VECTOR($,#503,1);
#505=LINE($,#502,#504);
#506=EDGE_CURVE($,#493,#501,#505,.T.);
#507=ORIENTED_EDGE($,$,$,#506,.T.);
#508=CARTESIAN_POINT($,(74.1757401764197,566.677020529259,1.905));
#509=VERTEX_POINT($,#508);
#510=CARTESIAN_POINT($,(74.1757401764197,578.147760705679,1.905));
#511=DIRECTION($,(0,-1,0));
#512=VECTOR($,#511,1);
#513=LINE($,#510,#512);
#514=EDGE_CURVE($,#501,#509,#513,.T.);
#515=ORIENTED_EDGE($,$,$,#514,.T.);
#516=CARTESIAN_POINT($,(74.1757401764197,505.084480529259,1.905));
#517=VERTEX_POINT($,#516);
#518=CARTESIAN_POINT($,(74.1757401764197,566.677020529259,1.905));
#519=DIRECTION($,(0,-1,0));
#520=VECTOR($,#519,1);
#521=LINE($,#518,#520);
#522=EDGE_CURVE($,#509,#517,#521,.T.);
#523=ORIENTED_EDGE($,$,$,#522,.T.);
#524=CARTESIAN_POINT($,(74.1757401764197,493.613740352839,1.905));
#525=VERTEX_POINT($,#524);
#526=CARTESIAN_POINT($,(74.1757401764197,505.084480529259,1.905));
#527=DIRECTION($,(0,-1,0));
#528=VECTOR($,#527,1);
#529=LINE($,#526,#528);
#530=EDGE_CURVE($,#517,#525,#529,.T.);
#531=ORIENTED_EDGE($,$,$,#530,.T.);
#532=CARTESIAN_POINT($,(65.9207401764197,493.613740352839,1.905));
#533=VERTEX_POINT($,#532);
#534=CARTESIAN_POINT($,(74.1757401764197,493.613740352839,1.905));
#535=DIRECTION($,(-1,0,0));
#536=VECTOR($,#535,1);
#537=LINE($,#534,#536);
#538=EDGE_CURVE($,#525,#533,#537,.T.);
#539=ORIENTED_EDGE($,$,$,#538,.T.);
#540=CARTESIAN_POINT($,(65.9207401764197,485.35874035284,1.905));
#541=VERTEX_POINT($,#540);
#542=CARTESIAN_POINT($,(65.9207401764197,493.613740352839,1.905));
#543=DIRECTION($,(0,-1,0));
#544=VECTOR($,#543,1);
#545=LINE($,#542,#544);
#546=EDGE_CURVE($,#533,#541,#545,.T.);
#547=ORIENTED_EDGE($,$,$,#546,.T.);
#548=CARTESIAN_POINT($,(54.45,485.35874035284,1.905));
#549=VERTEX_POINT($,#548);
#550=CARTESIAN_POINT($,(65.9207401764197,485.35874035284,1.905));
#551=DIRECTION($,(-1,0,0));
#552=VECTOR($,#551,1);
#553=LINE($,#550,#552);
#554=EDGE_CURVE($,#541,#549,#553,.T.);
#555=ORIENTED_EDGE($,$,$,#554,.T.);
#556=CARTESIAN_POINT($,(10,485.35874035284,1.905));
#557=VERTEX_POINT($,#556);
#558=CARTESIAN_POINT($,(54.45,485.35874035284,1.905));
#559=DIRECTION($,(-1,0,0));
#560=VECTOR($,#559,1);
#561=LINE($,#558,#560);
#562=EDGE_CURVE($,#549,#557,#561,.T.);
#563=ORIENTED_EDGE($,$,$,#562,.T.);
#564=CARTESIAN_POINT($,(10,133.568740352839,1.905));
#565=VERTEX_POINT($,#564);
#566=CARTESIAN_POINT($,(10,485.35874035284,1.905));
#567=DIRECTION($,(0,-1,0));
#568=VECTOR($,#567,1);
#569=LINE($,#566,#568);
#570=EDGE_CURVE($,#557,#565,#569,.T.);
#571=ORIENTED_EDGE($,$,$,#570,.T.);
#572=CARTESIAN_POINT($,(54.45,133.568740352839,1.905));
#573=VERTEX_POINT($,#572);
#574=CARTESIAN_POINT($,(10,133.568740352839,1.905));
#575=DIRECTION($,(1,0,0));
#576=VECTOR($,#575,1);
#577=LINE($,#574,#576);
#578=EDGE_CURVE($,#565,#573,#577,.T.);
#579=ORIENTED_EDGE($,$,$,#578,.T.);
#580=CARTESIAN_POINT($,(65.9207401764197,133.568740352839,1.905));
#581=VERTEX_POINT($,#580);
#582=CARTESIAN_POINT($,(54.45,133.568740352839,1.905));
#583=DIRECTION($,(1,0,0));
#584=VECTOR($,#583,1);
#585=LINE($,#582,#584);
#586=EDGE_CURVE($,#573,#581,#585,.T.);
#587=ORIENTED_EDGE($,$,$,#586,.T.);
#588=CARTESIAN_POINT($,(65.9207401764197,125.313740352839,1.905));
#589=VERTEX_POINT($,#588);
#590=CARTESIAN_POINT($,(65.9207401764197,133.568740352839,1.905));
#591=DIRECTION($,(0,-1,0));
#592=VECTOR($,#591,1);
#593=LINE($,#590,#592);
#594=EDGE_CURVE($,#581,#589,#593,.T.);
#595=ORIENTED_EDGE($,$,$,#594,.T.);
#596=CARTESIAN_POINT($,(74.1757401764197,125.313740352839,1.905));
#597=VERTEX_POINT($,#596);
#598=CARTESIAN_POINT($,(65.9207401764197,125.313740352839,1.905));
#599=DIRECTION($,(1,0,0));
#600=VECTOR($,#599,1);
#601=LINE($,#598,#600);
#602=EDGE_CURVE($,#589,#597,#601,.T.);
#603=ORIENTED_EDGE($,$,$,#602,.T.);
#604=CARTESIAN_POINT($,(74.1757401764197,113.84300017642,1.905));
#605=VERTEX_POINT($,#604);
#606=CARTESIAN_POINT($,(74.1757401764197,125.313740352839,1.905));
#607=DIRECTION($,(0,-1,0));
#608=VECTOR($,#607,1);
#609=LINE($,#606,#608);
#610=EDGE_CURVE($,#597,#605,#609,.T.);
#611=ORIENTED_EDGE($,$,$,#610,.T.);
#612=CARTESIAN_POINT($,(74.1757401764197,52.2504601764197,1.905));
#613=VERTEX_POINT($,#612);
#614=CARTESIAN_POINT($,(74.1757401764197,113.84300017642,1.905));
#615=DIRECTION($,(0,-1,0));
#616=VECTOR($,#615,1);
#617=LINE($,#614,#616);
#618=EDGE_CURVE($,#605,#613,#617,.T.);
#619=ORIENTED_EDGE($,$,$,#618,.T.);
#620=CARTESIAN_POINT($,(74.1757401764197,40.77972,1.905));
#621=VERTEX_POINT($,#620);
#622=CARTESIAN_POINT($,(74.1757401764197,52.2504601764197,1.905));
#623=DIRECTION($,(0,-1,0));
#624=VECTOR($,#623,1);
#625=LINE($,#622,#624);
#626=EDGE_CURVE($,#613,#621,#625,.T.);
#627=ORIENTED_EDGE($,$,$,#626,.T.);
#628=CARTESIAN_POINT($,(74.1757401764197,10,1.905));
#629=VERTEX_POINT($,#628);
#630=CARTESIAN_POINT($,(74.1757401764197,40.77972,1.905));
#631=DIRECTION($,(0,-1,0));
#632=VECTOR($,#631,1);
#633=LINE($,#630,#632);
#634=EDGE_CURVE($,#621,#629,#633,.T.);
#635=ORIENTED_EDGE($,$,$,#634,.T.);
#636=CARTESIAN_POINT($,(298.96574017642,10,1.905));
#637=VERTEX_POINT($,#636);
#638=CARTESIAN_POINT($,(74.1757401764197,10,1.905));
#639=DIRECTION($,(1,0,0));
#640=VECTOR($,#639,1);
#641=LINE($,#638,#640);
#642=EDGE_CURVE($,#629,#637,#641,.T.);
#643=ORIENTED_EDGE($,$,$,#642,.T.);
#644=CARTESIAN_POINT($,(298.96574017642,40.77972,1.905));
#645=VERTEX_POINT($,#644);
#646=CARTESIAN_POINT($,(298.96574017642,10,1.905));
#647=DIRECTION($,(0,1,0));
#648=VECTOR($,#647,1);
#649=LINE($,#646,#648);
#650=EDGE_CURVE($,#637,#645,#649,.T.);
#651=ORIENTED_EDGE($,$,$,#650,.T.);
#652=CARTESIAN_POINT($,(298.96574017642,52.2504601764197,1.905));
#653=VERTEX_POINT($,#652);
#654=CARTESIAN_POINT($,(298.96574017642,40.77972,1.905));
#655=DIRECTION($,(0,1,0));
#656=VECTOR($,#655,1);
#657=LINE($,#654,#656);
#658=EDGE_CURVE($,#645,#653,#657,.T.);
#659=ORIENTED_EDGE($,$,$,#658,.T.);
#660=CARTESIAN_POINT($,(298.96574017642,113.84300017642,1.905));
#661=VERTEX_POINT($,#660);
#662=CARTESIAN_POINT($,(298.96574017642,52.2504601764197,1.905));
#663=DIRECTION($,(0,1,0));
#664=VECTOR($,#663,1);
#665=LINE($,#662,#664);
#666=EDGE_CURVE($,#653,#661,#665,.T.);
#667=ORIENTED_EDGE($,$,$,#666,.T.);
#668=CARTESIAN_POINT($,(298.96574017642,125.313740352839,1.905));
#669=VERTEX_POINT($,#668);
#670=CARTESIAN_POINT($,(298.96574017642,113.84300017642,1.905));
#671=DIRECTION($,(0,1,0));
#672=VECTOR($,#671,1);
#673=LINE($,#670,#672);
#674=EDGE_CURVE($,#661,#669,#673,.T.);
#675=ORIENTED_EDGE($,$,$,#674,.T.);
#676=CARTESIAN_POINT($,(307.22074017642,125.313740352839,1.905));
#677=VERTEX_POINT($,#676);
#678=CARTESIAN_POINT($,(298.96574017642,125.313740352839,1.905));
#679=DIRECTION($,(1,0,0));
#680=VECTOR($,#679,1);
#681=LINE($,#678,#680);
#682=EDGE_CURVE($,#669,#677,#681,.T.);
#683=ORIENTED_EDGE($,$,$,#682,.T.);
#684=CARTESIAN_POINT($,(307.22074017642,133.568740352839,1.905));
#685=VERTEX_POINT($,#684);
#686=CARTESIAN_POINT($,(307.22074017642,125.313740352839,1.905));
#687=DIRECTION($,(0,1,0));
#688=VECTOR($,#687,1);
#689=LINE($,#686,#688);
#690=EDGE_CURVE($,#677,#685,#689,.T.);
#691=ORIENTED_EDGE($,$,$,#690,.T.);
#692=CARTESIAN_POINT($,(318.691480352839,133.568740352839,1.905));
#693=VERTEX_POINT($,#692);
#694=CARTESIAN_POINT($,(307.22074017642,133.568740352839,1.905));
#695=DIRECTION($,(1,0,0));
#696=VECTOR($,#695,1);
#697=LINE($,#694,#696);
#698=EDGE_CURVE($,#685,#693,#697,.T.);
#699=ORIENTED_EDGE($,$,$,#698,.T.);
#700=CARTESIAN_POINT($,(347.802420352839,133.568740352839,1.905));
#701=VERTEX_POINT($,#700);
#702=CARTESIAN_POINT($,(318.691480352839,133.568740352839,1.905));
#703=DIRECTION($,(1,0,0));
#704=VECTOR($,#703,1);
#705=LINE($,#702,#704);
#706=EDGE_CURVE($,#693,#701,#705,.T.);
#707=ORIENTED_EDGE($,$,$,#706,.T.);
#708=CARTESIAN_POINT($,(353.537790441049,133.568740352839,1.905));
#709=VERTEX_POINT($,#708);
#710=CARTESIAN_POINT($,(347.802420352839,133.568740352839,1.905));
#711=DIRECTION($,(1,0,0));
#712=VECTOR($,#711,1);
#713=LINE($,#710,#712);
#714=EDGE_CURVE($,#701,#709,#713,.T.);
#715=ORIENTED_EDGE($,$,$,#714,.T.);
#716=CARTESIAN_POINT($,(353.537790441049,133.568740352839,1.905));
#717=DIRECTION($,(1,0,0));
#718=VECTOR($,#717,1);
#719=LINE($,#716,#718);
#720=EDGE_CURVE($,#709,#403,#719,.T.);
#721=ORIENTED_EDGE($,$,$,#720,.T.);
#722=EDGE_LOOP($,(#411,#419,#427,#435,#443,#451,#459,#467,#475,#483,#491,#499,#507,#515,#523,#531,#539,#547,#555,#563,#571,#579,#587,#595,#603,#611,#619,#627,#635,#643,#651,#659,#667,#675,#683,#691,#699,#707,#715,#721));
#723=FACE_OUTER_BOUND('',#722,.T.);
#724=CARTESIAN_POINT($,(107.67834017642,189.298880352839,1.905));
#725=VERTEX_POINT($,#724);
#726=CARTESIAN_POINT($,(126.72834017642,189.298880352839,1.905));
#727=VERTEX_POINT($,#726);
#728=CARTESIAN_POINT($,(107.67834017642,189.298880352839,1.905));
#729=DIRECTION($,(1,0,0));
#730=VECTOR($,#729,1);
#731=LINE($,#728,#730);
#732=EDGE_CURVE($,#725,#727,#731,.T.);
#733=ORIENTED_EDGE($,$,$,#732,.F.);
#734=CARTESIAN_POINT($,(107.67834017642,278.198880352839,1.905));
#735=VERTEX_POINT($,#734);
#736=CARTESIAN_POINT($,(107.67834017642,278.198880352839,1.905));
#737=DIRECTION($,(0,-1,0));
#738=VECTOR($,#737,1);
#739=LINE($,#736,#738);
#740=EDGE_CURVE($,#735,#725,#739,.T.);
#741=ORIENTED_EDGE($,$,$,#740,.F.);
#742=CARTESIAN_POINT($,(126.72834017642,278.198880352839,1.905));
#743=VERTEX_POINT($,#742);
#744=CARTESIAN_POINT($,(126.72834017642,278.198880352839,1.905));
#745=DIRECTION($,(-1,0,0));
#746=VECTOR($,#745,1);
#747=LINE($,#744,#746);
#748=EDGE_CURVE($,#743,#735,#747,.T.);
#749=ORIENTED_EDGE($,$,$,#748,.F.);
#750=CARTESIAN_POINT($,(126.72834017642,189.298880352839,1.905));
#751=DIRECTION($,(0,1,0));
#752=VECTOR($,#751,1);
#753=LINE($,#750,#752);
#754=EDGE_CURVE($,#727,#743,#753,.T.);
#755=ORIENTED_EDGE($,$,$,#754,.F.);
#756=EDGE_LOOP($,(#733,#741,#749,#755));
#757=FACE_BOUND('',#756,.T.);
#758=CARTESIAN_POINT($,(171.17834017642,189.298880352839,1.905));
#759=VERTEX_POINT($,#758);
#760=CARTESIAN_POINT($,(190.22834017642,189.298880352839,1.905));
#761=VERTEX_POINT($,#760);
#762=CARTESIAN_POINT($,(171.17834017642,189.298880352839,1.905));
#763=DIRECTION($,(1,0,0));
#764=VECTOR($,#763,1);
#765=LINE($,#762,#764);
#766=EDGE_CURVE($,#759,#761,#765,.T.);
#767=ORIENTED_EDGE($,$,$,#766,.F.);
#768=CARTESIAN_POINT($,(171.17834017642,278.198880352839,1.905));
#769=VERTEX_POINT($,#768);
#770=CARTESIAN_POINT($,(171.17834017642,278.198880352839,1.905));
#771=DIRECTION($,(0,-1,0));
#772=VECTOR($,#771,1);
#773=LINE($,#770,#772);
#774=EDGE_CURVE($,#769,#759,#773,.T.);
#775=ORIENTED_EDGE($,$,$,#774,.F.);
#776=CARTESIAN_POINT($,(190.22834017642,278.198880352839,1.905));
#777=VERTEX_POINT($,#776);
#778=CARTESIAN_POINT($,(190.22834017642,278.198880352839,1.905));
#779=DIRECTION($,(-1,0,0));
#780=VECTOR($,#779,1);
#781=LINE($,#778,#780);
#782=EDGE_CURVE($,#777,#769,#781,.T.);
#783=ORIENTED_EDGE($,$,$,#782,.F.);
#784=CARTESIAN_POINT($,(190.22834017642,189.298880352839,1.905));
#785=DIRECTION($,(0,1,0));
#786=VECTOR($,#785,1);
#787=LINE($,#784,#786);
#788=EDGE_CURVE($,#761,#777,#787,.T.);
#789=ORIENTED_EDGE($,$,$,#788,.F.);
#790=EDGE_LOOP($,(#767,#775,#783,#789));
#791=FACE_BOUND('',#790,.T.);
#792=ADVANCED_FACE('',(#723,#757,#791),#401,.T.);
#793=CARTESIAN_POINT($,(402.051790441049,133.568740352839,0));
#794=DIRECTION($,(1,0,0));
#795=DIRECTION($,(0,0,1));
#796=AXIS2_PLACEMENT_3D($,#793,#794,#795);
#797=PLANE($,#796);
#798=ORIENTED_EDGE($,$,$,#14,.T.);
#799=CARTESIAN_POINT($,(402.051790441049,485.358740352839,-0));
#800=DIRECTION($,(0,0,1));
#801=VECTOR($,#800,1);
#802=LINE($,#799,#801);
#803=EDGE_CURVE($,#9,#405,#802,.T.);
#804=ORIENTED_EDGE($,$,$,#803,.T.);
#805=ORIENTED_EDGE($,$,$,#410,.F.);
#806=CARTESIAN_POINT($,(402.051790441049,133.568740352839,0));
#807=DIRECTION($,(0,0,1));
#808=VECTOR($,#807,1);
#809=LINE($,#806,#808);
#810=EDGE_CURVE($,#7,#403,#809,.T.);
#811=ORIENTED_EDGE($,$,$,#810,.F.);
#812=EDGE_LOOP($,(#798,#804,#805,#811));
#813=FACE_OUTER_BOUND('',#812,.T.);
#814=ADVANCED_FACE('',(#813),#797,.T.);
#815=CARTESIAN_POINT($,(402.051790441049,485.358740352839,0));
#816=DIRECTION($,(0,1,0));
#817=DIRECTION($,(0,0,1));
#818=AXIS2_PLACEMENT_3D($,#815,#816,#817);
#819=PLANE($,#818);
#820=ORIENTED_EDGE($,$,$,#22,.T.);
#821=CARTESIAN_POINT($,(353.537790441049,485.358740352839,0));
#822=DIRECTION($,(0,0,1));
#823=VECTOR($,#822,1);
#824=LINE($,#821,#823);
#825=EDGE_CURVE($,#17,#413,#824,.T.);
#826=ORIENTED_EDGE($,$,$,#825,.T.);
#827=ORIENTED_EDGE($,$,$,#418,.F.);
#828=ORIENTED_EDGE($,$,$,#803,.F.);
#829=EDGE_LOOP($,(#820,#826,#827,#828));
#830=FACE_OUTER_BOUND('',#829,.T.);
#831=ADVANCED_FACE('',(#830),#819,.T.);
#832=CARTESIAN_POINT($,(353.537790441049,485.358740352839,0));
#833=DIRECTION($,(0,1,0));
#834=DIRECTION($,(0,0,1));
#835=AXIS2_PLACEMENT_3D($,#832,#833,#834);
#836=PLANE($,#835);
#837=ORIENTED_EDGE($,$,$,#30,.T.);
#838=CARTESIAN_POINT($,(347.802420352839,485.358740352839,0));
#839=DIRECTION($,(0,0,1));
#840=VECTOR($,#839,1);
#841=LINE($,#838,#840);
#842=EDGE_CURVE($,#25,#421,#841,.T.);
#843=ORIENTED_EDGE($,$,$,#842,.T.);
#844=ORIENTED_EDGE($,$,$,#426,.F.);
#845=ORIENTED_EDGE($,$,$,#825,.F.);
#846=EDGE_LOOP($,(#837,#843,#844,#845));
#847=FACE_OUTER_BOUND('',#846,.T.);
#848=ADVANCED_FACE('',(#847),#836,.T.);
#849=CARTESIAN_POINT($,(347.802420352839,485.358740352839,0));
#850=DIRECTION($,(0,1,0));
#851=DIRECTION($,(0,0,1));
#852=AXIS2_PLACEMENT_3D($,#849,#850,#851);
#853=PLANE($,#852);
#854=ORIENTED_EDGE($,$,$,#38,.T.);
#855=CARTESIAN_POINT($,(318.691480352839,485.358740352839,0));
#856=DIRECTION($,(0,0,1));
#857=VECTOR($,#856,1);
#858=LINE($,#855,#857);
#859=EDGE_CURVE($,#33,#429,#858,.T.);
#860=ORIENTED_EDGE($,$,$,#859,.T.);
#861=ORIENTED_EDGE($,$,$,#434,.F.);
#862=ORIENTED_EDGE($,$,$,#842,.F.);
#863=EDGE_LOOP($,(#854,#860,#861,#862));
#864=FACE_OUTER_BOUND('',#863,.T.);
#865=ADVANCED_FACE('',(#864),#853,.T.);
#866=CARTESIAN_POINT($,(318.691480352839,485.35874035284,0));
#867=DIRECTION($,(0,1,0));
#868=DIRECTION($,(0,0,1));
#869=AXIS2_PLACEMENT_3D($,#866,#867,#868);
#870=PLANE($,#869);
#871=ORIENTED_EDGE($,$,$,#46,.T.);
#872=CARTESIAN_POINT($,(307.22074017642,485.35874035284,0));
#873=DIRECTION($,(0,0,1));
#874=VECTOR($,#873,1);
#875=LINE($,#872,#874);
#876=EDGE_CURVE($,#41,#437,#875,.T.);
#877=ORIENTED_EDGE($,$,$,#876,.T.);
#878=ORIENTED_EDGE($,$,$,#442,.F.);
#879=ORIENTED_EDGE($,$,$,#859,.F.);
#880=EDGE_LOOP($,(#871,#877,#878,#879));
#881=FACE_OUTER_BOUND('',#880,.T.);
#882=ADVANCED_FACE('',(#881),#870,.T.);
#883=CARTESIAN_POINT($,(307.22074017642,485.35874035284,0));
#884=DIRECTION($,(1,0,0));
#885=DIRECTION($,(0,0,1));
#886=AXIS2_PLACEMENT_3D($,#883,#884,#885);
#887=PLANE($,#886);
#888=ORIENTED_EDGE($,$,$,#54,.T.);
#889=CARTESIAN_POINT($,(307.22074017642,493.613740352839,-0));
#890=DIRECTION($,(0,0,1));
#891=VECTOR($,#890,1);
#892=LINE($,#889,#891);
#893=EDGE_CURVE($,#49,#445,#892,.T.);
#894=ORIENTED_EDGE($,$,$,#893,.T.);
#895=ORIENTED_EDGE($,$,$,#450,.F.);
#896=ORIENTED_EDGE($,$,$,#876,.F.);
#897=EDGE_LOOP($,(#888,#894,#895,#896));
#898=FACE_OUTER_BOUND('',#897,.T.);
#899=ADVANCED_FACE('',(#898),#887,.T.);
#900=CARTESIAN_POINT($,(307.22074017642,493.613740352839,0));
#901=DIRECTION($,(0,1,0));
#902=DIRECTION($,(0,0,1));
#903=AXIS2_PLACEMENT_3D($,#900,#901,#902);
#904=PLANE($,#903);
#905=ORIENTED_EDGE($,$,$,#62,.T.);
#906=CARTESIAN_POINT($,(298.96574017642,493.613740352839,0));
#907=DIRECTION($,(0,0,1));
#908=VECTOR($,#907,1);
#909=LINE($,#906,#908);
#910=EDGE_CURVE($,#57,#453,#909,.T.);
#911=ORIENTED_EDGE($,$,$,#910,.T.);
#912=ORIENTED_EDGE($,$,$,#458,.F.);
#913=ORIENTED_EDGE($,$,$,#893,.F.);
#914=EDGE_LOOP($,(#905,#911,#912,#913));
#915=FACE_OUTER_BOUND('',#914,.T.);
#916=ADVANCED_FACE('',(#915),#904,.T.);
#917=CARTESIAN_POINT($,(298.96574017642,493.613740352839,0));
#918=DIRECTION($,(1,0,0));
#919=DIRECTION($,(0,0,1));
#920=AXIS2_PLACEMENT_3D($,#917,#918,#919);
#921=PLANE($,#920);
#922=ORIENTED_EDGE($,$,$,#70,.T.);
#923=CARTESIAN_POINT($,(298.96574017642,505.084480529259,0));
#924=DIRECTION($,(0,0,1));
#925=VECTOR($,#924,1);
#926=LINE($,#923,#925);
#927=EDGE_CURVE($,#65,#461,#926,.T.);
#928=ORIENTED_EDGE($,$,$,#927,.T.);
#929=ORIENTED_EDGE($,$,$,#466,.F.);
#930=ORIENTED_EDGE($,$,$,#910,.F.);
#931=EDGE_LOOP($,(#922,#928,#929,#930));
#932=FACE_OUTER_BOUND('',#931,.T.);
#933=ADVANCED_FACE('',(#932),#921,.T.);
#934=CARTESIAN_POINT($,(298.96574017642,505.084480529259,0));
#935=DIRECTION($,(1,0,0));
#936=DIRECTION($,(0,0,1));
#937=AXIS2_PLACEMENT_3D($,#934,#935,#936);
#938=PLANE($,#937);
#939=ORIENTED_EDGE($,$,$,#78,.T.);
#940=CARTESIAN_POINT($,(298.96574017642,566.677020529259,0));
#941=DIRECTION($,(0,0,1));
#942=VECTOR($,#941,1);
#943=LINE($,#940,#942);
#944=EDGE_CURVE($,#73,#469,#943,.T.);
#945=ORIENTED_EDGE($,$,$,#944,.T.);
#946=ORIENTED_EDGE($,$,$,#474,.F.);
#947=ORIENTED_EDGE($,$,$,#927,.F.);
#948=EDGE_LOOP($,(#939,#945,#946,#947));
#949=FACE_OUTER_BOUND('',#948,.T.);
#950=ADVANCED_FACE('',(#949),#938,.T.);
#951=CARTESIAN_POINT($,(298.96574017642,566.677020529259,0));
#952=DIRECTION($,(1,0,0));
#953=DIRECTION($,(0,0,1));
#954=AXIS2_PLACEMENT_3D($,#951,#952,#953);
#955=PLANE($,#954);
#956=ORIENTED_EDGE($,$,$,#86,.T.);
#957=CARTESIAN_POINT($,(298.96574017642,578.147760705679,0));
#958=DIRECTION($,(0,0,1));
#959=VECTOR($,#958,1);
#960=LINE($,#957,#959);
#961=EDGE_CURVE($,#81,#477,#960,.T.);
#962=ORIENTED_EDGE($,$,$,#961,.T.);
#963=ORIENTED_EDGE($,$,$,#482,.F.);
#964=ORIENTED_EDGE($,$,$,#944,.F.);
#965=EDGE_LOOP($,(#956,#962,#963,#964));
#966=FACE_OUTER_BOUND('',#965,.T.);
#967=ADVANCED_FACE('',(#966),#955,.T.);
#968=CARTESIAN_POINT($,(298.96574017642,578.147760705679,0));
#969=DIRECTION($,(1,0,0));
#970=DIRECTION($,(0,0,1));
#971=AXIS2_PLACEMENT_3D($,#968,#969,#970);
#972=PLANE($,#971);
#973=ORIENTED_EDGE($,$,$,#94,.T.);
#974=CARTESIAN_POINT($,(298.96574017642,622.597760705679,-0));
#975=DIRECTION($,(0,0,1));
#976=VECTOR($,#975,1);
#977=LINE($,#974,#976);
#978=EDGE_CURVE($,#89,#485,#977,.T.);
#979=ORIENTED_EDGE($,$,$,#978,.T.);
#980=ORIENTED_EDGE($,$,$,#490,.F.);
#981=ORIENTED_EDGE($,$,$,#961,.F.);
#982=EDGE_LOOP($,(#973,#979,#980,#981));
#983=FACE_OUTER_BOUND('',#982,.T.);
#984=ADVANCED_FACE('',(#983),#972,.T.);
#985=CARTESIAN_POINT($,(298.96574017642,622.597760705679,0));
#986=DIRECTION($,(0,1,0));
#987=DIRECTION($,(0,0,1));
#988=AXIS2_PLACEMENT_3D($,#985,#986,#987);
#989=PLANE($,#988);
#990=ORIENTED_EDGE($,$,$,#102,.T.);
#991=CARTESIAN_POINT($,(74.1757401764197,622.597760705679,-0));
#992=DIRECTION($,(0,0,1));
#993=VECTOR($,#992,1);
#994=LINE($,#991,#993);
#995=EDGE_CURVE($,#97,#493,#994,.T.);
#996=ORIENTED_EDGE($,$,$,#995,.T.);
#997=ORIENTED_EDGE($,$,$,#498,.F.);
#998=ORIENTED_EDGE($,$,$,#978,.F.);
#999=EDGE_LOOP($,(#990,#996,#997,#998));
#1000=FACE_OUTER_BOUND('',#999,.T.);
#1001=ADVANCED_FACE('',(#1000),#989,.T.);
#1002=CARTESIAN_POINT($,(74.1757401764197,622.597760705679,0));
#1003=DIRECTION($,(-1,0,0));
#1004=DIRECTION($,(0,0,1));
#1005=AXIS2_PLACEMENT_3D($,#1002,#1003,#1004);
#1006=PLANE($,#1005);
#1007=ORIENTED_EDGE($,$,$,#110,.T.);
#1008=CARTESIAN_POINT($,(74.1757401764197,578.147760705679,0));
#1009=DIRECTION($,(0,0,1));
#1010=VECTOR($,#1009,1);
#1011=LINE($,#1008,#1010);
#1012=EDGE_CURVE($,#105,#501,#1011,.T.);
#1013=ORIENTED_EDGE($,$,$,#1012,.T.);
#1014=ORIENTED_EDGE($,$,$,#506,.F.);
#1015=ORIENTED_EDGE($,$,$,#995,.F.);
#1016=EDGE_LOOP($,(#1007,#1013,#1014,#1015));
#1017=FACE_OUTER_BOUND('',#1016,.T.);
#1018=ADVANCED_FACE('',(#1017),#1006,.T.);
#1019=CARTESIAN_POINT($,(74.1757401764197,578.147760705679,0));
#1020=DIRECTION($,(-1,0,0));
#1021=DIRECTION($,(0,0,1));
#1022=AXIS2_PLACEMENT_3D($,#1019,#1020,#1021);
#1023=PLANE($,#1022);
#1024=ORIENTED_EDGE($,$,$,#118,.T.);
#1025=CARTESIAN_POINT($,(74.1757401764197,566.677020529259,0));
#1026=DIRECTION($,(0,0,1));
#1027=VECTOR($,#1026,1);
#1028=LINE($,#1025,#1027);
#1029=EDGE_CURVE($,#113,#509,#1028,.T.);
#1030=ORIENTED_EDGE($,$,$,#1029,.T.);
#1031=ORIENTED_EDGE($,$,$,#514,.F.);
#1032=ORIENTED_EDGE($,$,$,#1012,.F.);
#1033=EDGE_LOOP($,(#1024,#1030,#1031,#1032));
#1034=FACE_OUTER_BOUND('',#1033,.T.);
#1035=ADVANCED_FACE('',(#1034),#1023,.T.);
#1036=CARTESIAN_POINT($,(74.1757401764197,566.677020529259,0));
#1037=DIRECTION($,(-1,0,0));
#1038=DIRECTION($,(0,0,1));
#1039=AXIS2_PLACEMENT_3D($,#1036,#1037,#1038);
#1040=PLANE($,#1039);
#1041=ORIENTED_EDGE($,$,$,#126,.T.);
#1042=CARTESIAN_POINT($,(74.1757401764197,505.084480529259,0));
#1043=DIRECTION($,(0,0,1));
#1044=VECTOR($,#1043,1);
#1045=LINE($,#1042,#1044);
#1046=EDGE_CURVE($,#121,#517,#1045,.T.);
#1047=ORIENTED_EDGE($,$,$,#1046,.T.);
#1048=ORIENTED_EDGE($,$,$,#522,.F.);
#1049=ORIENTED_EDGE($,$,$,#1029,.F.);
#1050=EDGE_LOOP($,(#1041,#1047,#1048,#1049));
#1051=FACE_OUTER_BOUND('',#1050,.T.);
#1052=ADVANCED_FACE('',(#1051),#1040,.T.);
#1053=CARTESIAN_POINT($,(74.1757401764197,505.084480529259,0));
#1054=DIRECTION($,(-1,0,0));
#1055=DIRECTION($,(0,0,1));
#1056=AXIS2_PLACEMENT_3D($,#1053,#1054,#1055);
#1057=PLANE($,#1056);
#1058=ORIENTED_EDGE($,$,$,#134,.T.);
#1059=CARTESIAN_POINT($,(74.1757401764197,493.613740352839,0));
#1060=DIRECTION($,(0,0,1));
#1061=VECTOR($,#1060,1);
#1062=LINE($,#1059,#1061);
#1063=EDGE_CURVE($,#129,#525,#1062,.T.);
#1064=ORIENTED_EDGE($,$,$,#1063,.T.);
#1065=ORIENTED_EDGE($,$,$,#530,.F.);
#1066=ORIENTED_EDGE($,$,$,#1046,.F.);
#1067=EDGE_LOOP($,(#1058,#1064,#1065,#1066));
#1068=FACE_OUTER_BOUND('',#1067,.T.);
#1069=ADVANCED_FACE('',(#1068),#1057,.T.);
#1070=CARTESIAN_POINT($,(74.1757401764197,493.613740352839,0));
#1071=DIRECTION($,(0,1,0));
#1072=DIRECTION($,(0,0,1));
#1073=AXIS2_PLACEMENT_3D($,#1070,#1071,#1072);
#1074=PLANE($,#1073);
#1075=ORIENTED_EDGE($,$,$,#142,.T.);
#1076=CARTESIAN_POINT($,(65.9207401764197,493.613740352839,-0));
#1077=DIRECTION($,(0,0,1));
#1078=VECTOR($,#1077,1);
#1079=LINE($,#1076,#1078);
#1080=EDGE_CURVE($,#137,#533,#1079,.T.);
#1081=ORIENTED_EDGE($,$,$,#1080,.T.);
#1082=ORIENTED_EDGE($,$,$,#538,.F.);
#1083=ORIENTED_EDGE($,$,$,#1063,.F.);
#1084=EDGE_LOOP($,(#1075,#1081,#1082,#1083));
#1085=FACE_OUTER_BOUND('',#1084,.T.);
#1086=ADVANCED_FACE('',(#1085),#1074,.T.);
#1087=CARTESIAN_POINT($,(65.9207401764197,493.613740352839,0));
#1088=DIRECTION($,(-1,0,0));
#1089=DIRECTION($,(0,0,1));
#1090=AXIS2_PLACEMENT_3D($,#1087,#1088,#1089);
#1091=PLANE($,#1090);
#1092=ORIENTED_EDGE($,$,$,#150,.T.);
#1093=CARTESIAN_POINT($,(65.9207401764197,485.35874035284,0));
#1094=DIRECTION($,(0,0,1));
#1095=VECTOR($,#1094,1);
#1096=LINE($,#1093,#1095);
#1097=EDGE_CURVE($,#145,#541,#1096,.T.);
#1098=ORIENTED_EDGE($,$,$,#1097,.T.);
#1099=ORIENTED_EDGE($,$,$,#546,.F.);
#1100=ORIENTED_EDGE($,$,$,#1080,.F.);
#1101=EDGE_LOOP($,(#1092,#1098,#1099,#1100));
#1102=FACE_OUTER_BOUND('',#1101,.T.);
#1103=ADVANCED_FACE('',(#1102),#1091,.T.);
#1104=CARTESIAN_POINT($,(65.9207401764197,485.35874035284,0));
#1105=DIRECTION($,(0,1,0));
#1106=DIRECTION($,(0,0,1));
#1107=AXIS2_PLACEMENT_3D($,#1104,#1105,#1106);
#1108=PLANE($,#1107);
#1109=ORIENTED_EDGE($,$,$,#158,.T.);
#1110=CARTESIAN_POINT($,(54.45,485.35874035284,0));
#1111=DIRECTION($,(0,0,1));
#1112=VECTOR($,#1111,1);
#1113=LINE($,#1110,#1112);
#1114=EDGE_CURVE($,#153,#549,#1113,.T.);
#1115=ORIENTED_EDGE($,$,$,#1114,.T.);
#1116=ORIENTED_EDGE($,$,$,#554,.F.);
#1117=ORIENTED_EDGE($,$,$,#1097,.F.);
#1118=EDGE_LOOP($,(#1109,#1115,#1116,#1117));
#1119=FACE_OUTER_BOUND('',#1118,.T.);
#1120=ADVANCED_FACE('',(#1119),#1108,.T.);
#1121=CARTESIAN_POINT($,(54.45,485.35874035284,0));
#1122=DIRECTION($,(0,1,0));
#1123=DIRECTION($,(0,0,1));
#1124=AXIS2_PLACEMENT_3D($,#1121,#1122,#1123);
#1125=PLANE($,#1124);
#1126=ORIENTED_EDGE($,$,$,#166,.T.);
#1127=CARTESIAN_POINT($,(10,485.35874035284,-0));
#1128=DIRECTION($,(0,0,1));
#1129=VECTOR($,#1128,1);
#1130=LINE($,#1127,#1129);
#1131=EDGE_CURVE($,#161,#557,#1130,.T.);
#1132=ORIENTED_EDGE($,$,$,#1131,.T.);
#1133=ORIENTED_EDGE($,$,$,#562,.F.);
#1134=ORIENTED_EDGE($,$,$,#1114,.F.);
#1135=EDGE_LOOP($,(#1126,#1132,#1133,#1134));
#1136=FACE_OUTER_BOUND('',#1135,.T.);
#1137=ADVANCED_FACE('',(#1136),#1125,.T.);
#1138=CARTESIAN_POINT($,(10,485.35874035284,0));
#1139=DIRECTION($,(-1,0,0));
#1140=DIRECTION($,(0,0,1));
#1141=AXIS2_PLACEMENT_3D($,#1138,#1139,#1140);
#1142=PLANE($,#1141);
#1143=ORIENTED_EDGE($,$,$,#174,.T.);
#1144=CARTESIAN_POINT($,(10,133.568740352839,-0));
#1145=DIRECTION($,(0,0,1));
#1146=VECTOR($,#1145,1);
#1147=LINE($,#1144,#1146);
#1148=EDGE_CURVE($,#169,#565,#1147,.T.);
#1149=ORIENTED_EDGE($,$,$,#1148,.T.);
#1150=ORIENTED_EDGE($,$,$,#570,.F.);
#1151=ORIENTED_EDGE($,$,$,#1131,.F.);
#1152=EDGE_LOOP($,(#1143,#1149,#1150,#1151));
#1153=FACE_OUTER_BOUND('',#1152,.T.);
#1154=ADVANCED_FACE('',(#1153),#1142,.T.);
#1155=CARTESIAN_POINT($,(10,133.568740352839,0));
#1156=DIRECTION($,(0,-1,0));
#1157=DIRECTION($,(0,0,1));
#1158=AXIS2_PLACEMENT_3D($,#1155,#1156,#1157);
#1159=PLANE($,#1158);
#1160=ORIENTED_EDGE($,$,$,#182,.T.);
#1161=CARTESIAN_POINT($,(54.45,133.568740352839,0));
#1162=DIRECTION($,(0,0,1));
#1163=VECTOR($,#1162,1);
#1164=LINE($,#1161,#1163);
#1165=EDGE_CURVE($,#177,#573,#1164,.T.);
#1166=ORIENTED_EDGE($,$,$,#1165,.T.);
#1167=ORIENTED_EDGE($,$,$,#578,.F.);
#1168=ORIENTED_EDGE($,$,$,#1148,.F.);
#1169=EDGE_LOOP($,(#1160,#1166,#1167,#1168));
#1170=FACE_OUTER_BOUND('',#1169,.T.);
#1171=ADVANCED_FACE('',(#1170),#1159,.T.);
#1172=CARTESIAN_POINT($,(54.45,133.568740352839,0));
#1173=DIRECTION($,(0,-1,0));
#1174=DIRECTION($,(0,0,1));
#1175=AXIS2_PLACEMENT_3D($,#1172,#1173,#1174);
#1176=PLANE($,#1175);
#1177=ORIENTED_EDGE($,$,$,#190,.T.);
#1178=CARTESIAN_POINT($,(65.9207401764197,133.568740352839,0));
#1179=DIRECTION($,(0,0,1));
#1180=VECTOR($,#1179,1);
#1181=LINE($,#1178,#1180);
#1182=EDGE_CURVE($,#185,#581,#1181,.T.);
#1183=ORIENTED_EDGE($,$,$,#1182,.T.);
#1184=ORIENTED_EDGE($,$,$,#586,.F.);
#1185=ORIENTED_EDGE($,$,$,#1165,.F.);
#1186=EDGE_LOOP($,(#1177,#1183,#1184,#1185));
#1187=FACE_OUTER_BOUND('',#1186,.T.);
#1188=ADVANCED_FACE('',(#1187),#1176,.T.);
#1189=CARTESIAN_POINT($,(65.9207401764197,133.568740352839,0));
#1190=DIRECTION($,(-1,0,0));
#1191=DIRECTION($,(0,0,1));
#1192=AXIS2_PLACEMENT_3D($,#1189,#1190,#1191);
#1193=PLANE($,#1192);
#1194=ORIENTED_EDGE($,$,$,#198,.T.);
#1195=CARTESIAN_POINT($,(65.9207401764197,125.313740352839,-0));
#1196=DIRECTION($,(0,0,1));
#1197=VECTOR($,#1196,1);
#1198=LINE($,#1195,#1197);
#1199=EDGE_CURVE($,#193,#589,#1198,.T.);
#1200=ORIENTED_EDGE($,$,$,#1199,.T.);
#1201=ORIENTED_EDGE($,$,$,#594,.F.);
#1202=ORIENTED_EDGE($,$,$,#1182,.F.);
#1203=EDGE_LOOP($,(#1194,#1200,#1201,#1202));
#1204=FACE_OUTER_BOUND('',#1203,.T.);
#1205=ADVANCED_FACE('',(#1204),#1193,.T.);
#1206=CARTESIAN_POINT($,(65.9207401764197,125.313740352839,0));
#1207=DIRECTION($,(0,-1,0));
#1208=DIRECTION($,(0,0,1));
#1209=AXIS2_PLACEMENT_3D($,#1206,#1207,#1208);
#1210=PLANE($,#1209);
#1211=ORIENTED_EDGE($,$,$,#206,.T.);
#1212=CARTESIAN_POINT($,(74.1757401764197,125.313740352839,0));
#1213=DIRECTION($,(0,0,1));
#1214=VECTOR($,#1213,1);
#1215=LINE($,#1212,#1214);
#1216=EDGE_CURVE($,#201,#597,#1215,.T.);
#1217=ORIENTED_EDGE($,$,$,#1216,.T.);
#1218=ORIENTED_EDGE($,$,$,#602,.F.);
#1219=ORIENTED_EDGE($,$,$,#1199,.F.);
#1220=EDGE_LOOP($,(#1211,#1217,#1218,#1219));
#1221=FACE_OUTER_BOUND('',#1220,.T.);
#1222=ADVANCED_FACE('',(#1221),#1210,.T.);
#1223=CARTESIAN_POINT($,(74.1757401764197,125.313740352839,0));
#1224=DIRECTION($,(-1,0,0));
#1225=DIRECTION($,(0,0,1));
#1226=AXIS2_PLACEMENT_3D($,#1223,#1224,#1225);
#1227=PLANE($,#1226);
#1228=ORIENTED_EDGE($,$,$,#214,.T.);
#1229=CARTESIAN_POINT($,(74.1757401764197,113.84300017642,0));
#1230=DIRECTION($,(0,0,1));
#1231=VECTOR($,#1230,1);
#1232=LINE($,#1229,#1231);
#1233=EDGE_CURVE($,#209,#605,#1232,.T.);
#1234=ORIENTED_EDGE($,$,$,#1233,.T.);
#1235=ORIENTED_EDGE($,$,$,#610,.F.);
#1236=ORIENTED_EDGE($,$,$,#1216,.F.);
#1237=EDGE_LOOP($,(#1228,#1234,#1235,#1236));
#1238=FACE_OUTER_BOUND('',#1237,.T.);
#1239=ADVANCED_FACE('',(#1238),#1227,.T.);
#1240=CARTESIAN_POINT($,(74.1757401764197,113.84300017642,0));
#1241=DIRECTION($,(-1,0,0));
#1242=DIRECTION($,(0,0,1));
#1243=AXIS2_PLACEMENT_3D($,#1240,#1241,#1242);
#1244=PLANE($,#1243);
#1245=ORIENTED_EDGE($,$,$,#222,.T.);
#1246=CARTESIAN_POINT($,(74.1757401764197,52.2504601764197,0));
#1247=DIRECTION($,(0,0,1));
#1248=VECTOR($,#1247,1);
#1249=LINE($,#1246,#1248);
#1250=EDGE_CURVE($,#217,#613,#1249,.T.);
#1251=ORIENTED_EDGE($,$,$,#1250,.T.);
#1252=ORIENTED_EDGE($,$,$,#618,.F.);
#1253=ORIENTED_EDGE($,$,$,#1233,.F.);
#1254=EDGE_LOOP($,(#1245,#1251,#1252,#1253));
#1255=FACE_OUTER_BOUND('',#1254,.T.);
#1256=ADVANCED_FACE('',(#1255),#1244,.T.);
#1257=CARTESIAN_POINT($,(74.1757401764197,52.2504601764197,0));
#1258=DIRECTION($,(-1,0,0));
#1259=DIRECTION($,(0,0,1));
#1260=AXIS2_PLACEMENT_3D($,#1257,#1258,#1259);
#1261=PLANE($,#1260);
#1262=ORIENTED_EDGE($,$,$,#230,.T.);
#1263=CARTESIAN_POINT($,(74.1757401764197,40.77972,0));
#1264=DIRECTION($,(0,0,1));
#1265=VECTOR($,#1264,1);
#1266=LINE($,#1263,#1265);
#1267=EDGE_CURVE($,#225,#621,#1266,.T.);
#1268=ORIENTED_EDGE($,$,$,#1267,.T.);
#1269=ORIENTED_EDGE($,$,$,#626,.F.);
#1270=ORIENTED_EDGE($,$,$,#1250,.F.);
#1271=EDGE_LOOP($,(#1262,#1268,#1269,#1270));
#1272=FACE_OUTER_BOUND('',#1271,.T.);
#1273=ADVANCED_FACE('',(#1272),#1261,.T.);
#1274=CARTESIAN_POINT($,(74.1757401764197,40.77972,0));
#1275=DIRECTION($,(-1,0,0));
#1276=DIRECTION($,(0,0,1));
#1277=AXIS2_PLACEMENT_3D($,#1274,#1275,#1276);
#1278=PLANE($,#1277);
#1279=ORIENTED_EDGE($,$,$,#238,.T.);
#1280=CARTESIAN_POINT($,(74.1757401764197,10,-0));
#1281=DIRECTION($,(0,0,1));
#1282=VECTOR($,#1281,1);
#1283=LINE($,#1280,#1282);
#1284=EDGE_CURVE($,#233,#629,#1283,.T.);
#1285=ORIENTED_EDGE($,$,$,#1284,.T.);
#1286=ORIENTED_EDGE($,$,$,#634,.F.);
#1287=ORIENTED_EDGE($,$,$,#1267,.F.);
#1288=EDGE_LOOP($,(#1279,#1285,#1286,#1287));
#1289=FACE_OUTER_BOUND('',#1288,.T.);
#1290=ADVANCED_FACE('',(#1289),#1278,.T.);
#1291=CARTESIAN_POINT($,(74.1757401764197,10,0));
#1292=DIRECTION($,(0,-1,0));
#1293=DIRECTION($,(0,0,1));
#1294=AXIS2_PLACEMENT_3D($,#1291,#1292,#1293);
#1295=PLANE($,#1294);
#1296=ORIENTED_EDGE($,$,$,#246,.T.);
#1297=CARTESIAN_POINT($,(298.96574017642,10,-0));
#1298=DIRECTION($,(0,0,1));
#1299=VECTOR($,#1298,1);
#1300=LINE($,#1297,#1299);
#1301=EDGE_CURVE($,#241,#637,#1300,.T.);
#1302=ORIENTED_EDGE($,$,$,#1301,.T.);
#1303=ORIENTED_EDGE($,$,$,#642,.F.);
#1304=ORIENTED_EDGE($,$,$,#1284,.F.);
#1305=EDGE_LOOP($,(#1296,#1302,#1303,#1304));
#1306=FACE_OUTER_BOUND('',#1305,.T.);
#1307=ADVANCED_FACE('',(#1306),#1295,.T.);
#1308=CARTESIAN_POINT($,(298.96574017642,10,0));
#1309=DIRECTION($,(1,0,0));
#1310=DIRECTION($,(0,0,1));
#1311=AXIS2_PLACEMENT_3D($,#1308,#1309,#1310);
#1312=PLANE($,#1311);
#1313=ORIENTED_EDGE($,$,$,#254,.T.);
#1314=CARTESIAN_POINT($,(298.96574017642,40.77972,0));
#1315=DIRECTION($,(0,0,1));
#1316=VECTOR($,#1315,1);
#1317=LINE($,#1314,#1316);
#1318=EDGE_CURVE($,#249,#645,#1317,.T.);
#1319=ORIENTED_EDGE($,$,$,#1318,.T.);
#1320=ORIENTED_EDGE($,$,$,#650,.F.);
#1321=ORIENTED_EDGE($,$,$,#1301,.F.);
#1322=EDGE_LOOP($,(#1313,#1319,#1320,#1321));
#1323=FACE_OUTER_BOUND('',#1322,.T.);
#1324=ADVANCED_FACE('',(#1323),#1312,.T.);
#1325=CARTESIAN_POINT($,(298.96574017642,40.77972,0));
#1326=DIRECTION($,(1,0,0));
#1327=DIRECTION($,(0,0,1));
#1328=AXIS2_PLACEMENT_3D($,#1325,#1326,#1327);
#1329=PLANE($,#1328);
#1330=ORIENTED_EDGE($,$,$,#262,.T.);
#1331=CARTESIAN_POINT($,(298.96574017642,52.2504601764197,0));
#1332=DIRECTION($,(0,0,1));
#1333=VECTOR($,#1332,1);
#1334=LINE($,#1331,#1333);
#1335=EDGE_CURVE($,#257,#653,#1334,.T.);
#1336=ORIENTED_EDGE($,$,$,#1335,.T.);
#1337=ORIENTED_EDGE($,$,$,#658,.F.);
#1338=ORIENTED_EDGE($,$,$,#1318,.F.);
#1339=EDGE_LOOP($,(#1330,#1336,#1337,#1338));
#1340=FACE_OUTER_BOUND('',#1339,.T.);
#1341=ADVANCED_FACE('',(#1340),#1329,.T.);
#1342=CARTESIAN_POINT($,(298.96574017642,52.2504601764197,0));
#1343=DIRECTION($,(1,0,0));
#1344=DIRECTION($,(0,0,1));
#1345=AXIS2_PLACEMENT_3D($,#1342,#1343,#1344);
#1346=PLANE($,#1345);
#1347=ORIENTED_EDGE($,$,$,#270,.T.);
#1348=CARTESIAN_POINT($,(298.96574017642,113.84300017642,0));
#1349=DIRECTION($,(0,0,1));
#1350=VECTOR($,#1349,1);
#1351=LINE($,#1348,#1350);
#1352=EDGE_CURVE($,#265,#661,#1351,.T.);
#1353=ORIENTED_EDGE($,$,$,#1352,.T.);
#1354=ORIENTED_EDGE($,$,$,#666,.F.);
#1355=ORIENTED_EDGE($,$,$,#1335,.F.);
#1356=EDGE_LOOP($,(#1347,#1353,#1354,#1355));
#1357=FACE_OUTER_BOUND('',#1356,.T.);
#1358=ADVANCED_FACE('',(#1357),#1346,.T.);
#1359=CARTESIAN_POINT($,(298.96574017642,113.84300017642,0));
#1360=DIRECTION($,(1,0,0));
#1361=DIRECTION($,(0,0,1));
#1362=AXIS2_PLACEMENT_3D($,#1359,#1360,#1361);
#1363=PLANE($,#1362);
#1364=ORIENTED_EDGE($,$,$,#278,.T.);
#1365=CARTESIAN_POINT($,(298.96574017642,125.313740352839,0));
#1366=DIRECTION($,(0,0,1));
#1367=VECTOR($,#1366,1);
#1368=LINE($,#1365,#1367);
#1369=EDGE_CURVE($,#273,#669,#1368,.T.);
#1370=ORIENTED_EDGE($,$,$,#1369,.T.);
#1371=ORIENTED_EDGE($,$,$,#674,.F.);
#1372=ORIENTED_EDGE($,$,$,#1352,.F.);
#1373=EDGE_LOOP($,(#1364,#1370,#1371,#1372));
#1374=FACE_OUTER_BOUND('',#1373,.T.);
#1375=ADVANCED_FACE('',(#1374),#1363,.T.);
#1376=CARTESIAN_POINT($,(298.96574017642,125.313740352839,0));
#1377=DIRECTION($,(0,-1,0));
#1378=DIRECTION($,(0,0,1));
#1379=AXIS2_PLACEMENT_3D($,#1376,#1377,#1378);
#1380=PLANE($,#1379);
#1381=ORIENTED_EDGE($,$,$,#286,.T.);
#1382=CARTESIAN_POINT($,(307.22074017642,125.313740352839,-0));
#1383=DIRECTION($,(0,0,1));
#1384=VECTOR($,#1383,1);
#1385=LINE($,#1382,#1384);
#1386=EDGE_CURVE($,#281,#677,#1385,.T.);
#1387=ORIENTED_EDGE($,$,$,#1386,.T.);
#1388=ORIENTED_EDGE($,$,$,#682,.F.);
#1389=ORIENTED_EDGE($,$,$,#1369,.F.);
#1390=EDGE_LOOP($,(#1381,#1387,#1388,#1389));
#1391=FACE_OUTER_BOUND('',#1390,.T.);
#1392=ADVANCED_FACE('',(#1391),#1380,.T.);
#1393=CARTESIAN_POINT($,(307.22074017642,125.313740352839,0));
#1394=DIRECTION($,(1,0,0));
#1395=DIRECTION($,(0,0,1));
#1396=AXIS2_PLACEMENT_3D($,#1393,#1394,#1395);
#1397=PLANE($,#1396);
#1398=ORIENTED_EDGE($,$,$,#294,.T.);
#1399=CARTESIAN_POINT($,(307.22074017642,133.568740352839,0));
#1400=DIRECTION($,(0,0,1));
#1401=VECTOR($,#1400,1);
#1402=LINE($,#1399,#1401);
#1403=EDGE_CURVE($,#289,#685,#1402,.T.);
#1404=ORIENTED_EDGE($,$,$,#1403,.T.);
#1405=ORIENTED_EDGE($,$,$,#690,.F.);
#1406=ORIENTED_EDGE($,$,$,#1386,.F.);
#1407=EDGE_LOOP($,(#1398,#1404,#1405,#1406));
#1408=FACE_OUTER_BOUND('',#1407,.T.);
#1409=ADVANCED_FACE('',(#1408),#1397,.T.);
#1410=CARTESIAN_POINT($,(307.22074017642,133.568740352839,0));
#1411=DIRECTION($,(0,-1,0));
#1412=DIRECTION($,(0,0,1));
#1413=AXIS2_PLACEMENT_3D($,#1410,#1411,#1412);
#1414=PLANE($,#1413);
#1415=ORIENTED_EDGE($,$,$,#302,.T.);
#1416=CARTESIAN_POINT($,(318.691480352839,133.568740352839,0));
#1417=DIRECTION($,(0,0,1));
#1418=VECTOR($,#1417,1);
#1419=LINE($,#1416,#1418);
#1420=EDGE_CURVE($,#297,#693,#1419,.T.);
#1421=ORIENTED_EDGE($,$,$,#1420,.T.);
#1422=ORIENTED_EDGE($,$,$,#698,.F.);
#1423=ORIENTED_EDGE($,$,$,#1403,.F.);
#1424=EDGE_LOOP($,(#1415,#1421,#1422,#1423));
#1425=FACE_OUTER_BOUND('',#1424,.T.);
#1426=ADVANCED_FACE('',(#1425),#1414,.T.);
#1427=CARTESIAN_POINT($,(318.691480352839,133.568740352839,0));
#1428=DIRECTION($,(0,-1,0));
#1429=DIRECTION($,(0,0,1));
#1430=AXIS2_PLACEMENT_3D($,#1427,#1428,#1429);
#1431=PLANE($,#1430);
#1432=ORIENTED_EDGE($,$,$,#310,.T.);
#1433=CARTESIAN_POINT($,(347.802420352839,133.568740352839,0));
#1434=DIRECTION($,(0,0,1));
#1435=VECTOR($,#1434,1);
#1436=LINE($,#1433,#1435);
#1437=EDGE_CURVE($,#305,#701,#1436,.T.);
#1438=ORIENTED_EDGE($,$,$,#1437,.T.);
#1439=ORIENTED_EDGE($,$,$,#706,.F.);
#1440=ORIENTED_EDGE($,$,$,#1420,.F.);
#1441=EDGE_LOOP($,(#1432,#1438,#1439,#1440));
#1442=FACE_OUTER_BOUND('',#1441,.T.);
#1443=ADVANCED_FACE('',(#1442),#1431,.T.);
#1444=CARTESIAN_POINT($,(347.802420352839,133.568740352839,0));
#1445=DIRECTION($,(0,-1,0));
#1446=DIRECTION($,(0,0,1));
#1447=AXIS2_PLACEMENT_3D($,#1444,#1445,#1446);
#1448=PLANE($,#1447);
#1449=ORIENTED_EDGE($,$,$,#318,.T.);
#1450=CARTESIAN_POINT($,(353.537790441049,133.568740352839,0));
#1451=DIRECTION($,(0,0,1));
#1452=VECTOR($,#1451,1);
#1453=LINE($,#1450,#1452);
#1454=EDGE_CURVE($,#313,#709,#1453,.T.);
#1455=ORIENTED_EDGE($,$,$,#1454,.T.);
#1456=ORIENTED_EDGE($,$,$,#714,.F.);
#1457=ORIENTED_EDGE($,$,$,#1437,.F.);
#1458=EDGE_LOOP($,(#1449,#1455,#1456,#1457));
#1459=FACE_OUTER_BOUND('',#1458,.T.);
#1460=ADVANCED_FACE('',(#1459),#1448,.T.);
#1461=CARTESIAN_POINT($,(353.537790441049,133.568740352839,0));
#1462=DIRECTION($,(0,-1,0));
#1463=DIRECTION($,(0,0,1));
#1464=AXIS2_PLACEMENT_3D($,#1461,#1462,#1463);
#1465=PLANE($,#1464);
#1466=ORIENTED_EDGE($,$,$,#324,.T.);
#1467=ORIENTED_EDGE($,$,$,#810,.T.);
#1468=ORIENTED_EDGE($,$,$,#720,.F.);
#1469=ORIENTED_EDGE($,$,$,#1454,.F.);
#1470=EDGE_LOOP($,(#1466,#1467,#1468,#1469));
#1471=FACE_OUTER_BOUND('',#1470,.T.);
#1472=ADVANCED_FACE('',(#1471),#1465,.T.);
#1473=CARTESIAN_POINT($,(126.72834017642,189.298880352839,0));
#1474=DIRECTION($,(-1,0,0));
#1475=DIRECTION($,(0,0,1));
#1476=AXIS2_PLACEMENT_3D($,#1473,#1474,#1475);
#1477=PLANE($,#1476);
#1478=ORIENTED_EDGE($,$,$,#358,.T.);
#1479=CARTESIAN_POINT($,(126.72834017642,278.198880352839,-0));
#1480=DIRECTION($,(0,0,1));
#1481=VECTOR($,#1480,1);
#1482=LINE($,#1479,#1481);
#1483=EDGE_CURVE($,#347,#743,#1482,.T.);
#1484=ORIENTED_EDGE($,$,$,#1483,.T.);
#1485=ORIENTED_EDGE($,$,$,#754,.F.);
#1486=CARTESIAN_POINT($,(126.72834017642,189.298880352839,0));
#1487=DIRECTION($,(0,0,1));
#1488=VECTOR($,#1487,1);
#1489=LINE($,#1486,#1488);
#1490=EDGE_CURVE($,#331,#727,#1489,.T.);
#1491=ORIENTED_EDGE($,$,$,#1490,.F.);
#1492=EDGE_LOOP($,(#1478,#1484,#1485,#1491));
#1493=FACE_OUTER_BOUND('',#1492,.T.);
#1494=ADVANCED_FACE('',(#1493),#1477,.T.);
#1495=CARTESIAN_POINT($,(126.72834017642,278.198880352839,0));
#1496=DIRECTION($,(0,-1,0));
#1497=DIRECTION($,(0,0,1));
#1498=AXIS2_PLACEMENT_3D($,#1495,#1496,#1497);
#1499=PLANE($,#1498);
#1500=ORIENTED_EDGE($,$,$,#352,.T.);
#1501=CARTESIAN_POINT($,(107.67834017642,278.198880352839,-0));
#1502=DIRECTION($,(0,0,1));
#1503=VECTOR($,#1502,1);
#1504=LINE($,#1501,#1503);
#1505=EDGE_CURVE($,#339,#735,#1504,.T.);
#1506=ORIENTED_EDGE($,$,$,#1505,.T.);
#1507=ORIENTED_EDGE($,$,$,#748,.F.);
#1508=ORIENTED_EDGE($,$,$,#1483,.F.);
#1509=EDGE_LOOP($,(#1500,#1506,#1507,#1508));
#1510=FACE_OUTER_BOUND('',#1509,.T.);
#1511=ADVANCED_FACE('',(#1510),#1499,.T.);
#1512=CARTESIAN_POINT($,(107.67834017642,278.198880352839,0));
#1513=DIRECTION($,(1,0,0));
#1514=DIRECTION($,(0,0,1));
#1515=AXIS2_PLACEMENT_3D($,#1512,#1513,#1514);
#1516=PLANE($,#1515);
#1517=ORIENTED_EDGE($,$,$,#344,.T.);
#1518=CARTESIAN_POINT($,(107.67834017642,189.298880352839,-0));
#1519=DIRECTION($,(0,0,1));
#1520=VECTOR($,#1519,1);
#1521=LINE($,#1518,#1520);
#1522=EDGE_CURVE($,#329,#725,#1521,.T.);
#1523=ORIENTED_EDGE($,$,$,#1522,.T.);
#1524=ORIENTED_EDGE($,$,$,#740,.F.);
#1525=ORIENTED_EDGE($,$,$,#1505,.F.);
#1526=EDGE_LOOP($,(#1517,#1523,#1524,#1525));
#1527=FACE_OUTER_BOUND('',#1526,.T.);
#1528=ADVANCED_FACE('',(#1527),#1516,.T.);
#1529=CARTESIAN_POINT($,(107.67834017642,189.298880352839,0));
#1530=DIRECTION($,(0,1,0));
#1531=DIRECTION($,(0,0,1));
#1532=AXIS2_PLACEMENT_3D($,#1529,#1530,#1531);
#1533=PLANE($,#1532);
#1534=ORIENTED_EDGE($,$,$,#336,.T.);
#1535=ORIENTED_EDGE($,$,$,#1490,.T.);
#1536=ORIENTED_EDGE($,$,$,#732,.F.);
#1537=ORIENTED_EDGE($,$,$,#1522,.F.);
#1538=EDGE_LOOP($,(#1534,#1535,#1536,#1537));
#1539=FACE_OUTER_BOUND('',#1538,.T.);
#1540=ADVANCED_FACE('',(#1539),#1533,.T.);
#1541=CARTESIAN_POINT($,(190.22834017642,189.298880352839,0));
#1542=DIRECTION($,(-1,0,0));
#1543=DIRECTION($,(0,0,1));
#1544=AXIS2_PLACEMENT_3D($,#1541,#1542,#1543);
#1545=PLANE($,#1544);
#1546=ORIENTED_EDGE($,$,$,#392,.T.);
#1547=CARTESIAN_POINT($,(190.22834017642,278.198880352839,-0));
#1548=DIRECTION($,(0,0,1));
#1549=VECTOR($,#1548,1);
#1550=LINE($,#1547,#1549);
#1551=EDGE_CURVE($,#381,#777,#1550,.T.);
#1552=ORIENTED_EDGE($,$,$,#1551,.T.);
#1553=ORIENTED_EDGE($,$,$,#788,.F.);
#1554=CARTESIAN_POINT($,(190.22834017642,189.298880352839,0));
#1555=DIRECTION($,(0,0,1));
#1556=VECTOR($,#1555,1);
#1557=LINE($,#1554,#1556);
#1558=EDGE_CURVE($,#365,#761,#1557,.T.);
#1559=ORIENTED_EDGE($,$,$,#1558,.F.);
#1560=EDGE_LOOP($,(#1546,#1552,#1553,#1559));
#1561=FACE_OUTER_BOUND('',#1560,.T.);
#1562=ADVANCED_FACE('',(#1561),#1545,.T.);
#1563=CARTESIAN_POINT($,(190.22834017642,278.198880352839,0));
#1564=DIRECTION($,(0,-1,0));
#1565=DIRECTION($,(0,0,1));
#1566=AXIS2_PLACEMENT_3D($,#1563,#1564,#1565);
#1567=PLANE($,#1566);
#1568=ORIENTED_EDGE($,$,$,#386,.T.);
#1569=CARTESIAN_POINT($,(171.17834017642,278.198880352839,-0));
#1570=DIRECTION($,(0,0,1));
#1571=VECTOR($,#1570,1);
#1572=LINE($,#1569,#1571);
#1573=EDGE_CURVE($,#373,#769,#1572,.T.);
#1574=ORIENTED_EDGE($,$,$,#1573,.T.);
#1575=ORIENTED_EDGE($,$,$,#782,.F.);
#1576=ORIENTED_EDGE($,$,$,#1551,.F.);
#1577=EDGE_LOOP($,(#1568,#1574,#1575,#1576));
#1578=FACE_OUTER_BOUND('',#1577,.T.);
#1579=ADVANCED_FACE('',(#1578),#1567,.T.);
#1580=CARTESIAN_POINT($,(171.17834017642,278.198880352839,0));
#1581=DIRECTION($,(1,0,0));
#1582=DIRECTION($,(0,0,1));
#1583=AXIS2_PLACEMENT_3D($,#1580,#1581,#1582);
#1584=PLANE($,#1583);
#1585=ORIENTED_EDGE($,$,$,#378,.T.);
#1586=CARTESIAN_POINT($,(171.17834017642,189.298880352839,-0));
#1587=DIRECTION($,(0,0,1));
#1588=VECTOR($,#1587,1);
#1589=LINE($,#1586,#1588);
#1590=EDGE_CURVE($,#363,#759,#1589,.T.);
#1591=ORIENTED_EDGE($,$,$,#1590,.T.);
#1592=ORIENTED_EDGE($,$,$,#774,.F.);
#1593=ORIENTED_EDGE($,$,$,#1573,.F.);
#1594=EDGE_LOOP($,(#1585,#1591,#1592,#1593));
#1595=FACE_OUTER_BOUND('',#1594,.T.);
#1596=ADVANCED_FACE('',(#1595),#1584,.T.);
#1597=CARTESIAN_POINT($,(171.17834017642,189.298880352839,0));
#1598=DIRECTION($,(0,1,0));
#1599=DIRECTION($,(0,0,1));
#1600=AXIS2_PLACEMENT_3D($,#1597,#1598,#1599);
#1601=PLANE($,#1600);
#1602=ORIENTED_EDGE($,$,$,#370,.T.);
#1603=ORIENTED_EDGE($,$,$,#1558,.T.);
#1604=ORIENTED_EDGE($,$,$,#766,.F.);
#1605=ORIENTED_EDGE($,$,$,#1590,.F.);
#1606=EDGE_LOOP($,(#1602,#1603,#1604,#1605));
#1607=FACE_OUTER_BOUND('',#1606,.T.);
#1608=ADVANCED_FACE('',(#1607),#1601,.T.);
#1609=CLOSED_SHELL($,(#396,#792,#814,#831,#848,#865,#882,#899,#916,#933,#950,#967,#984,#1001,#1018,#1035,#1052,#1069,#1086,#1103,#1120,#1137,#1154,#1171,#1188,#1205,#1222,#1239,#1256,#1273,#1290,#1307,#1324,#1341,#1358,#1375,#1392,#1409,#1426,#1443,#1460,#1472,#1494,#1511,#1528,#1540,#1562,#1579,#1596,#1608));
#1610=MANIFOLD_SOLID_BREP('sheetmetal-Ctc03 flat pattern',#1609);
#1611=APPLICATION_CONTEXT('mechanical design');
#1612=PRODUCT_CONTEXT('',#1611,'mechanical');
#1613=PRODUCT('sheetmetal_Ctc03_flat','sheetmetal-Ctc03 flat pattern','',(#1612));
#1614=PRODUCT_DEFINITION_FORMATION('','',#1613);
#1615=PRODUCT_DEFINITION_CONTEXT('design',#1611,'design');
#1616=PRODUCT_DEFINITION('','',#1614,#1615);
#1617=PRODUCT_DEFINITION_SHAPE('','',#1616);
#1618=(LENGTH_UNIT()NAMED_UNIT(*)SI_UNIT(.MILLI.,.METRE.));
#1619=(NAMED_UNIT(*)PLANE_ANGLE_UNIT()SI_UNIT($,.RADIAN.));
#1620=(NAMED_UNIT(*)SI_UNIT($,.STERADIAN.)SOLID_ANGLE_UNIT());
#1621=(GEOMETRIC_REPRESENTATION_CONTEXT(3)GLOBAL_UNIT_ASSIGNED_CONTEXT((#1618,#1619,#1620))REPRESENTATION_CONTEXT('3','3D'));
#1622=SHAPE_REPRESENTATION('sheetmetal-Ctc03 flat pattern',(#1610),#1621);
#1623=SHAPE_DEFINITION_REPRESENTATION(#1617,#1622);
ENDSEC;
END-ISO-10303-21;
