ISO-10303-21;
HEADER;
FILE_DESCRIPTION(('Aetheris AP242 subset export'),'2;1');
FILE_NAME('aetheris_export.step','1970-01-01T00:00:00',('Aetheris'),('Aetheris'),'Aetheris.Kernel','Aetheris.Kernel','');
FILE_SCHEMA(('AP242_MANAGED_MODEL_BASED_3D_ENGINEERING_MIM_LF'));
ENDSEC;
DATA;
#1=CARTESIAN_POINT($,(0,0,0));
#2=DIRECTION($,(0,0,-1));
#3=DIRECTION($,(1,0,0));
#4=AXIS2_PLACEMENT_3D($,#1,#2,#3);
#5=PLANE($,#4);
#6=CARTESIAN_POINT($,(353.540237720761,257.250330176499,0));
#7=VERTEX_POINT($,#6);
#8=CARTESIAN_POINT($,(402.054237720955,257.250330176499,-0));
#9=VERTEX_POINT($,#8);
#10=CARTESIAN_POINT($,(353.540237720761,257.250330176499,0));
#11=DIRECTION($,(1,0,0));
#12=VECTOR($,#11,1);
#13=LINE($,#10,#12);
#14=EDGE_CURVE($,#7,#9,#13,.T.);
#15=ORIENTED_EDGE($,$,$,#14,.T.);
#16=CARTESIAN_POINT($,(414.754237721006,269.950330176549,-0));
#17=VERTEX_POINT($,#16);
#18=CARTESIAN_POINT($,(402.054237720955,257.250330176499,-0));
#19=DIRECTION($,(0.707106781186568,0.707106781186527,0));
#20=VECTOR($,#19,1);
#21=LINE($,#18,#20);
#22=EDGE_CURVE($,#9,#17,#21,.T.);
#23=ORIENTED_EDGE($,$,$,#22,.T.);
#24=CARTESIAN_POINT($,(414.754237721006,371.550330176956,-0));
#25=VERTEX_POINT($,#24);
#26=CARTESIAN_POINT($,(414.754237721006,269.950330176549,-0));
#27=DIRECTION($,(0,1,0));
#28=VECTOR($,#27,1);
#29=LINE($,#26,#28);
#30=EDGE_CURVE($,#17,#25,#29,.T.);
#31=ORIENTED_EDGE($,$,$,#30,.T.);
#32=CARTESIAN_POINT($,(402.054237720955,384.250330177006,-0));
#33=VERTEX_POINT($,#32);
#34=CARTESIAN_POINT($,(414.754237721006,371.550330176956,-0));
#35=DIRECTION($,(-0.707106781186565,0.70710678118653,0));
#36=VECTOR($,#35,1);
#37=LINE($,#34,#36);
#38=EDGE_CURVE($,#25,#33,#37,.T.);
#39=ORIENTED_EDGE($,$,$,#38,.T.);
#40=CARTESIAN_POINT($,(353.540237720761,384.250330177006,0));
#41=VERTEX_POINT($,#40);
#42=CARTESIAN_POINT($,(402.054237720955,384.250330177006,-0));
#43=DIRECTION($,(-1,0,0));
#44=VECTOR($,#43,1);
#45=LINE($,#42,#44);
#46=EDGE_CURVE($,#33,#41,#45,.T.);
#47=ORIENTED_EDGE($,$,$,#46,.T.);
#48=CARTESIAN_POINT($,(350.445470176871,384.250330177006,0));
#49=VERTEX_POINT($,#48);
#50=CARTESIAN_POINT($,(353.540237720761,384.250330177006,0));
#51=DIRECTION($,(-1,0,0));
#52=VECTOR($,#51,1);
#53=LINE($,#50,#52);
#54=EDGE_CURVE($,#41,#49,#53,.T.);
#55=ORIENTED_EDGE($,$,$,#54,.T.);
#56=CARTESIAN_POINT($,(350.445470176871,492.685470177441,-0));
#57=VERTEX_POINT($,#56);
#58=CARTESIAN_POINT($,(350.445470176871,384.250330177006,0));
#59=DIRECTION($,(0,1,0));
#60=VECTOR($,#59,1);
#61=LINE($,#58,#60);
#62=EDGE_CURVE($,#49,#57,#61,.T.);
#63=ORIENTED_EDGE($,$,$,#62,.T.);
#64=CARTESIAN_POINT($,(337.74547017682,505.385470177492,-0));
#65=VERTEX_POINT($,#64);
#66=CARTESIAN_POINT($,(350.445470176871,492.685470177441,-0));
#67=DIRECTION($,(-0.707106781186551,0.707106781186544,0));
#68=VECTOR($,#67,1);
#69=LINE($,#66,#68);
#70=EDGE_CURVE($,#57,#65,#69,.T.);
#71=ORIENTED_EDGE($,$,$,#70,.T.);
#72=CARTESIAN_POINT($,(318.695470176744,505.385470177491,0));
#73=VERTEX_POINT($,#72);
#74=CARTESIAN_POINT($,(337.74547017682,505.385470177492,-0));
#75=DIRECTION($,(-1,0,0));
#76=VECTOR($,#75,1);
#77=LINE($,#74,#76);
#78=EDGE_CURVE($,#65,#73,#77,.T.);
#79=ORIENTED_EDGE($,$,$,#78,.T.);
#80=CARTESIAN_POINT($,(307.222735088943,505.385470177492,0));
#81=VERTEX_POINT($,#80);
#82=CARTESIAN_POINT($,(318.695470176744,505.385470177491,0));
#83=DIRECTION($,(-1,0,0));
#84=VECTOR($,#83,1);
#85=LINE($,#82,#84);
#86=EDGE_CURVE($,#73,#81,#85,.T.);
#87=ORIENTED_EDGE($,$,$,#86,.T.);
#88=CARTESIAN_POINT($,(298.332735088908,507.287930177499,0));
#89=VERTEX_POINT($,#88);
#90=CARTESIAN_POINT($,(307.222735088943,505.385470177492,0));
#91=DIRECTION($,(-0.977859618153247,0.209261958284793,0));
#92=VECTOR($,#91,1);
#93=LINE($,#90,#92);
#94=EDGE_CURVE($,#81,#89,#93,.T.);
#95=ORIENTED_EDGE($,$,$,#94,.T.);
#96=CARTESIAN_POINT($,(298.332735088908,518.7606652653,0));
#97=VERTEX_POINT($,#96);
#98=CARTESIAN_POINT($,(298.332735088908,507.287930177499,0));
#99=DIRECTION($,(0,1,0));
#100=VECTOR($,#99,1);
#101=LINE($,#98,#100);
#102=EDGE_CURVE($,#89,#97,#101,.T.);
#103=ORIENTED_EDGE($,$,$,#102,.T.);
#104=CARTESIAN_POINT($,(307.222735088944,531.33112526535,-0));
#105=VERTEX_POINT($,#104);
#106=CARTESIAN_POINT($,(298.332735088908,518.7606652653,0));
#107=DIRECTION($,(0.57740839789431,0.816455474622546,0));
#108=VECTOR($,#107,1);
#109=LINE($,#106,#108);
#110=EDGE_CURVE($,#97,#105,#109,.T.);
#111=ORIENTED_EDGE($,$,$,#110,.T.);
#112=CARTESIAN_POINT($,(307.222735088944,580.353125265546,0));
#113=VERTEX_POINT($,#112);
#114=CARTESIAN_POINT($,(307.222735088944,531.33112526535,-0));
#115=DIRECTION($,(0,1,0));
#116=VECTOR($,#115,1);
#117=LINE($,#114,#116);
#118=EDGE_CURVE($,#105,#113,#117,.T.);
#119=ORIENTED_EDGE($,$,$,#118,.T.);
#120=CARTESIAN_POINT($,(307.222735088944,591.825860353347,0));
#121=VERTEX_POINT($,#120);
#122=CARTESIAN_POINT($,(307.222735088944,580.353125265546,0));
#123=DIRECTION($,(0,1,0));
#124=VECTOR($,#123,1);
#125=LINE($,#122,#124);
#126=EDGE_CURVE($,#113,#121,#125,.T.);
#127=ORIENTED_EDGE($,$,$,#126,.T.);
#128=CARTESIAN_POINT($,(307.222735088944,622.60558035347,-0));
#129=VERTEX_POINT($,#128);
#130=CARTESIAN_POINT($,(307.222735088944,591.825860353347,0));
#131=DIRECTION($,(0,1,0));
#132=VECTOR($,#131,1);
#133=LINE($,#130,#132);
#134=EDGE_CURVE($,#121,#129,#133,.T.);
#135=ORIENTED_EDGE($,$,$,#134,.T.);
#136=CARTESIAN_POINT($,(294.522735088893,635.305580353521,-0));
#137=VERTEX_POINT($,#136);
#138=CARTESIAN_POINT($,(307.222735088944,622.60558035347,-0));
#139=DIRECTION($,(-0.707106781186549,0.707106781186546,0));
#140=VECTOR($,#139,1);
#141=LINE($,#138,#140);
#142=EDGE_CURVE($,#129,#137,#141,.T.);
#143=ORIENTED_EDGE($,$,$,#142,.T.);
#144=CARTESIAN_POINT($,(78.6227350880296,635.305580353521,-0));
#145=VERTEX_POINT($,#144);
#146=CARTESIAN_POINT($,(294.522735088893,635.305580353521,-0));
#147=DIRECTION($,(-1,0,0));
#148=VECTOR($,#147,1);
#149=LINE($,#146,#148);
#150=EDGE_CURVE($,#137,#145,#149,.T.);
#151=ORIENTED_EDGE($,$,$,#150,.T.);
#152=CARTESIAN_POINT($,(65.9227350879785,622.60558035347,-0));
#153=VERTEX_POINT($,#152);
#154=CARTESIAN_POINT($,(78.6227350880296,635.305580353521,-0));
#155=DIRECTION($,(-0.707106781186555,-0.70710678118654,0));
#156=VECTOR($,#155,1);
#157=LINE($,#154,#156);
#158=EDGE_CURVE($,#145,#153,#157,.T.);
#159=ORIENTED_EDGE($,$,$,#158,.T.);
#160=CARTESIAN_POINT($,(65.9227350879785,591.825860353347,0));
#161=VERTEX_POINT($,#160);
#162=CARTESIAN_POINT($,(65.9227350879785,622.60558035347,-0));
#163=DIRECTION($,(0,-1,0));
#164=VECTOR($,#163,1);
#165=LINE($,#162,#164);
#166=EDGE_CURVE($,#153,#161,#165,.T.);
#167=ORIENTED_EDGE($,$,$,#166,.T.);
#168=CARTESIAN_POINT($,(65.9227350879785,580.353125265546,0));
#169=VERTEX_POINT($,#168);
#170=CARTESIAN_POINT($,(65.9227350879785,591.825860353347,0));
#171=DIRECTION($,(0,-1,0));
#172=VECTOR($,#171,1);
#173=LINE($,#170,#172);
#174=EDGE_CURVE($,#161,#169,#173,.T.);
#175=ORIENTED_EDGE($,$,$,#174,.T.);
#176=CARTESIAN_POINT($,(65.9227350879785,531.33112526535,-0));
#177=VERTEX_POINT($,#176);
#178=CARTESIAN_POINT($,(65.9227350879785,580.353125265546,0));
#179=DIRECTION($,(0,-1,0));
#180=VECTOR($,#179,1);
#181=LINE($,#178,#180);
#182=EDGE_CURVE($,#169,#177,#181,.T.);
#183=ORIENTED_EDGE($,$,$,#182,.T.);
#184=CARTESIAN_POINT($,(74.8127350880135,518.7606652653,0));
#185=VERTEX_POINT($,#184);
#186=CARTESIAN_POINT($,(65.9227350879785,531.33112526535,-0));
#187=DIRECTION($,(0.577408397894285,-0.816455474622563,0));
#188=VECTOR($,#187,1);
#189=LINE($,#186,#188);
#190=EDGE_CURVE($,#177,#185,#189,.T.);
#191=ORIENTED_EDGE($,$,$,#190,.T.);
#192=CARTESIAN_POINT($,(74.8127350880135,507.287930177499,0));
#193=VERTEX_POINT($,#192);
#194=CARTESIAN_POINT($,(74.8127350880135,518.7606652653,0));
#195=DIRECTION($,(0,-1,0));
#196=VECTOR($,#195,1);
#197=LINE($,#194,#196);
#198=EDGE_CURVE($,#185,#193,#197,.T.);
#199=ORIENTED_EDGE($,$,$,#198,.T.);
#200=CARTESIAN_POINT($,(65.9227350879787,505.385470177492,0));
#201=VERTEX_POINT($,#200);
#202=CARTESIAN_POINT($,(74.8127350880135,507.287930177499,0));
#203=DIRECTION($,(-0.977859618153244,-0.209261958284804,0));
#204=VECTOR($,#203,1);
#205=LINE($,#202,#204);
#206=EDGE_CURVE($,#193,#201,#205,.T.);
#207=ORIENTED_EDGE($,$,$,#206,.T.);
#208=CARTESIAN_POINT($,(54.450000000178,505.385470177491,0));
#209=VERTEX_POINT($,#208);
#210=CARTESIAN_POINT($,(65.9227350879787,505.385470177492,0));
#211=DIRECTION($,(-1,0,0));
#212=VECTOR($,#211,1);
#213=LINE($,#210,#212);
#214=EDGE_CURVE($,#201,#209,#213,.T.);
#215=ORIENTED_EDGE($,$,$,#214,.T.);
#216=CARTESIAN_POINT($,(35.400000000102,505.385470177491,-0));
#217=VERTEX_POINT($,#216);
#218=CARTESIAN_POINT($,(54.450000000178,505.385470177491,0));
#219=DIRECTION($,(-1,0,0));
#220=VECTOR($,#219,1);
#221=LINE($,#218,#220);
#222=EDGE_CURVE($,#209,#217,#221,.T.);
#223=ORIENTED_EDGE($,$,$,#222,.T.);
#224=CARTESIAN_POINT($,(10,479.98547017739,-0));
#225=VERTEX_POINT($,#224);
#226=CARTESIAN_POINT($,(35.400000000102,505.385470177491,-0));
#227=DIRECTION($,(-0.707106781186553,-0.707106781186542,0));
#228=VECTOR($,#227,1);
#229=LINE($,#226,#228);
#230=EDGE_CURVE($,#217,#225,#229,.T.);
#231=ORIENTED_EDGE($,$,$,#230,.T.);
#232=CARTESIAN_POINT($,(10,165.320110176131,-0));
#233=VERTEX_POINT($,#232);
#234=CARTESIAN_POINT($,(10,479.98547017739,-0));
#235=DIRECTION($,(0,-1,0));
#236=VECTOR($,#235,1);
#237=LINE($,#234,#236);
#238=EDGE_CURVE($,#225,#233,#237,.T.);
#239=ORIENTED_EDGE($,$,$,#238,.T.);
#240=CARTESIAN_POINT($,(35.400000000102,139.920110176029,-0));
#241=VERTEX_POINT($,#240);
#242=CARTESIAN_POINT($,(10,165.320110176131,-0));
#243=DIRECTION($,(0.707106781186548,-0.707106781186548,0));
#244=VECTOR($,#243,1);
#245=LINE($,#242,#244);
#246=EDGE_CURVE($,#233,#241,#245,.T.);
#247=ORIENTED_EDGE($,$,$,#246,.T.);
#248=CARTESIAN_POINT($,(54.450000000178,139.920110176029,0));
#249=VERTEX_POINT($,#248);
#250=CARTESIAN_POINT($,(35.400000000102,139.920110176029,-0));
#251=DIRECTION($,(1,0,0));
#252=VECTOR($,#251,1);
#253=LINE($,#250,#252);
#254=EDGE_CURVE($,#241,#249,#253,.T.);
#255=ORIENTED_EDGE($,$,$,#254,.T.);
#256=CARTESIAN_POINT($,(65.922735087978,139.920110176029,0));
#257=VERTEX_POINT($,#256);
#258=CARTESIAN_POINT($,(54.450000000178,139.920110176029,0));
#259=DIRECTION($,(1,0,0));
#260=VECTOR($,#259,1);
#261=LINE($,#258,#260);
#262=EDGE_CURVE($,#249,#257,#261,.T.);
#263=ORIENTED_EDGE($,$,$,#262,.T.);
#264=CARTESIAN_POINT($,(74.8127350880135,138.987930176026,0));
#265=VERTEX_POINT($,#264);
#266=CARTESIAN_POINT($,(65.922735087978,139.920110176029,0));
#267=DIRECTION($,(0.994547412307714,-0.104285400090474,0));
#268=VECTOR($,#267,1);
#269=LINE($,#266,#268);
#270=EDGE_CURVE($,#257,#265,#269,.T.);
#271=ORIENTED_EDGE($,$,$,#270,.T.);
#272=CARTESIAN_POINT($,(74.8127350880135,127.515195088225,0));
#273=VERTEX_POINT($,#272);
#274=CARTESIAN_POINT($,(74.8127350880135,138.987930176026,0));
#275=DIRECTION($,(0,-1,0));
#276=VECTOR($,#275,1);
#277=LINE($,#274,#276);
#278=EDGE_CURVE($,#265,#273,#277,.T.);
#279=ORIENTED_EDGE($,$,$,#278,.T.);
#280=CARTESIAN_POINT($,(65.9227350879785,114.944735088175,-0));
#281=VERTEX_POINT($,#280);
#282=CARTESIAN_POINT($,(74.8127350880135,127.515195088225,0));
#283=DIRECTION($,(-0.577408397894291,-0.816455474622559,0));
#284=VECTOR($,#283,1);
#285=LINE($,#282,#284);
#286=EDGE_CURVE($,#273,#281,#285,.T.);
#287=ORIENTED_EDGE($,$,$,#286,.T.);
#288=CARTESIAN_POINT($,(65.9227350879785,65.9227350879786,0));
#289=VERTEX_POINT($,#288);
#290=CARTESIAN_POINT($,(65.9227350879785,114.944735088175,-0));
#291=DIRECTION($,(0,-1,0));
#292=VECTOR($,#291,1);
#293=LINE($,#290,#292);
#294=EDGE_CURVE($,#281,#289,#293,.T.);
#295=ORIENTED_EDGE($,$,$,#294,.T.);
#296=CARTESIAN_POINT($,(65.9227350879785,54.450000000178,0));
#297=VERTEX_POINT($,#296);
#298=CARTESIAN_POINT($,(65.9227350879785,65.9227350879786,0));
#299=DIRECTION($,(0,-1,0));
#300=VECTOR($,#299,1);
#301=LINE($,#298,#300);
#302=EDGE_CURVE($,#289,#297,#301,.T.);
#303=ORIENTED_EDGE($,$,$,#302,.T.);
#304=CARTESIAN_POINT($,(65.9227350879785,22.700000000051,-0));
#305=VERTEX_POINT($,#304);
#306=CARTESIAN_POINT($,(65.9227350879785,54.450000000178,0));
#307=DIRECTION($,(0,-1,0));
#308=VECTOR($,#307,1);
#309=LINE($,#306,#308);
#310=EDGE_CURVE($,#297,#305,#309,.T.);
#311=ORIENTED_EDGE($,$,$,#310,.T.);
#312=CARTESIAN_POINT($,(78.6227350880295,10,-0));
#313=VERTEX_POINT($,#312);
#314=CARTESIAN_POINT($,(65.9227350879785,22.700000000051,-0));
#315=DIRECTION($,(0.707106781186548,-0.707106781186547,0));
#316=VECTOR($,#315,1);
#317=LINE($,#314,#316);
#318=EDGE_CURVE($,#305,#313,#317,.T.);
#319=ORIENTED_EDGE($,$,$,#318,.T.);
#320=CARTESIAN_POINT($,(294.522735088893,10,-0));
#321=VERTEX_POINT($,#320);
#322=CARTESIAN_POINT($,(78.6227350880295,10,-0));
#323=DIRECTION($,(1,0,0));
#324=VECTOR($,#323,1);
#325=LINE($,#322,#324);
#326=EDGE_CURVE($,#313,#321,#325,.T.);
#327=ORIENTED_EDGE($,$,$,#326,.T.);
#328=CARTESIAN_POINT($,(307.222735088944,22.700000000051,-0));
#329=VERTEX_POINT($,#328);
#330=CARTESIAN_POINT($,(294.522735088893,10,-0));
#331=DIRECTION($,(0.707106781186543,0.707106781186552,0));
#332=VECTOR($,#331,1);
#333=LINE($,#330,#332);
#334=EDGE_CURVE($,#321,#329,#333,.T.);
#335=ORIENTED_EDGE($,$,$,#334,.T.);
#336=CARTESIAN_POINT($,(307.222735088944,54.450000000178,0));
#337=VERTEX_POINT($,#336);
#338=CARTESIAN_POINT($,(307.222735088944,22.700000000051,-0));
#339=DIRECTION($,(0,1,0));
#340=VECTOR($,#339,1);
#341=LINE($,#338,#340);
#342=EDGE_CURVE($,#329,#337,#341,.T.);
#343=ORIENTED_EDGE($,$,$,#342,.T.);
#344=CARTESIAN_POINT($,(307.222735088944,65.9227350879785,0));
#345=VERTEX_POINT($,#344);
#346=CARTESIAN_POINT($,(307.222735088944,54.450000000178,0));
#347=DIRECTION($,(0,1,0));
#348=VECTOR($,#347,1);
#349=LINE($,#346,#348);
#350=EDGE_CURVE($,#337,#345,#349,.T.);
#351=ORIENTED_EDGE($,$,$,#350,.T.);
#352=CARTESIAN_POINT($,(307.222735088944,114.944735088175,-0));
#353=VERTEX_POINT($,#352);
#354=CARTESIAN_POINT($,(307.222735088944,65.9227350879785,0));
#355=DIRECTION($,(0,1,0));
#356=VECTOR($,#355,1);
#357=LINE($,#354,#356);
#358=EDGE_CURVE($,#345,#353,#357,.T.);
#359=ORIENTED_EDGE($,$,$,#358,.T.);
#360=CARTESIAN_POINT($,(298.332735088908,127.515195088225,0));
#361=VERTEX_POINT($,#360);
#362=CARTESIAN_POINT($,(307.222735088944,114.944735088175,-0));
#363=DIRECTION($,(-0.577408397894315,0.816455474622542,0));
#364=VECTOR($,#363,1);
#365=LINE($,#362,#364);
#366=EDGE_CURVE($,#353,#361,#365,.T.);
#367=ORIENTED_EDGE($,$,$,#366,.T.);
#368=CARTESIAN_POINT($,(298.332735088908,138.987930176026,0));
#369=VERTEX_POINT($,#368);
#370=CARTESIAN_POINT($,(298.332735088908,127.515195088225,0));
#371=DIRECTION($,(0,1,0));
#372=VECTOR($,#371,1);
#373=LINE($,#370,#372);
#374=EDGE_CURVE($,#361,#369,#373,.T.);
#375=ORIENTED_EDGE($,$,$,#374,.T.);
#376=CARTESIAN_POINT($,(307.222735088944,139.920110176029,0));
#377=VERTEX_POINT($,#376);
#378=CARTESIAN_POINT($,(298.332735088908,138.987930176026,0));
#379=DIRECTION($,(0.994547412307714,0.104285400090468,0));
#380=VECTOR($,#379,1);
#381=LINE($,#378,#380);
#382=EDGE_CURVE($,#369,#377,#381,.T.);
#383=ORIENTED_EDGE($,$,$,#382,.T.);
#384=CARTESIAN_POINT($,(318.695470176744,139.920110176029,0));
#385=VERTEX_POINT($,#384);
#386=CARTESIAN_POINT($,(307.222735088944,139.920110176029,0));
#387=DIRECTION($,(1,0,0));
#388=VECTOR($,#387,1);
#389=LINE($,#386,#388);
#390=EDGE_CURVE($,#377,#385,#389,.T.);
#391=ORIENTED_EDGE($,$,$,#390,.T.);
#392=CARTESIAN_POINT($,(337.74547017682,139.920110176029,-0));
#393=VERTEX_POINT($,#392);
#394=CARTESIAN_POINT($,(318.695470176744,139.920110176029,0));
#395=DIRECTION($,(1,0,0));
#396=VECTOR($,#395,1);
#397=LINE($,#394,#396);
#398=EDGE_CURVE($,#385,#393,#397,.T.);
#399=ORIENTED_EDGE($,$,$,#398,.T.);
#400=CARTESIAN_POINT($,(350.445470176871,152.62011017608,-0));
#401=VERTEX_POINT($,#400);
#402=CARTESIAN_POINT($,(337.74547017682,139.920110176029,-0));
#403=DIRECTION($,(0.707106781186546,0.707106781186549,0));
#404=VECTOR($,#403,1);
#405=LINE($,#402,#404);
#406=EDGE_CURVE($,#393,#401,#405,.T.);
#407=ORIENTED_EDGE($,$,$,#406,.T.);
#408=CARTESIAN_POINT($,(350.445470176871,257.250330176499,0));
#409=VERTEX_POINT($,#408);
#410=CARTESIAN_POINT($,(350.445470176871,152.62011017608,-0));
#411=DIRECTION($,(0,1,0));
#412=VECTOR($,#411,1);
#413=LINE($,#410,#412);
#414=EDGE_CURVE($,#401,#409,#413,.T.);
#415=ORIENTED_EDGE($,$,$,#414,.T.);
#416=CARTESIAN_POINT($,(350.445470176871,257.250330176499,0));
#417=DIRECTION($,(1,0,0));
#418=VECTOR($,#417,1);
#419=LINE($,#416,#418);
#420=EDGE_CURVE($,#409,#7,#419,.T.);
#421=ORIENTED_EDGE($,$,$,#420,.T.);
#422=EDGE_LOOP($,(#15,#23,#31,#39,#47,#55,#63,#71,#79,#87,#95,#103,#111,#119,#127,#135,#143,#151,#159,#167,#175,#183,#191,#199,#207,#215,#223,#231,#239,#247,#255,#263,#271,#279,#287,#295,#303,#311,#319,#327,#335,#343,#351,#359,#367,#375,#383,#391,#399,#407,#415,#421));
#423=FACE_OUTER_BOUND('',#422,.T.);
#424=CARTESIAN_POINT($,(171.1803350884,354.402790176887,-0));
#425=VERTEX_POINT($,#424);
#426=CARTESIAN_POINT($,(190.230335088476,354.402790176887,0));
#427=VERTEX_POINT($,#426);
#428=CARTESIAN_POINT($,(171.1803350884,354.402790176887,-0));
#429=DIRECTION($,(1,0,0));
#430=VECTOR($,#429,1);
#431=LINE($,#428,#430);
#432=EDGE_CURVE($,#425,#427,#431,.T.);
#433=ORIENTED_EDGE($,$,$,#432,.F.);
#434=CARTESIAN_POINT($,(171.1803350884,443.302790177243,-0));
#435=VERTEX_POINT($,#434);
#436=CARTESIAN_POINT($,(171.1803350884,443.302790177243,-0));
#437=DIRECTION($,(0,-1,0));
#438=VECTOR($,#437,1);
#439=LINE($,#436,#438);
#440=EDGE_CURVE($,#435,#425,#439,.T.);
#441=ORIENTED_EDGE($,$,$,#440,.F.);
#442=CARTESIAN_POINT($,(190.230335088476,443.302790177243,-0));
#443=VERTEX_POINT($,#442);
#444=CARTESIAN_POINT($,(190.230335088476,443.302790177243,-0));
#445=DIRECTION($,(-1,0,0));
#446=VECTOR($,#445,1);
#447=LINE($,#444,#446);
#448=EDGE_CURVE($,#443,#435,#447,.T.);
#449=ORIENTED_EDGE($,$,$,#448,.F.);
#450=CARTESIAN_POINT($,(190.230335088476,354.402790176887,0));
#451=DIRECTION($,(0,1,0));
#452=VECTOR($,#451,1);
#453=LINE($,#450,#452);
#454=EDGE_CURVE($,#427,#443,#453,.T.);
#455=ORIENTED_EDGE($,$,$,#454,.F.);
#456=EDGE_LOOP($,(#433,#441,#449,#455));
#457=FACE_BOUND('',#456,.T.);
#458=CARTESIAN_POINT($,(107.680335088146,354.402790176887,-0));
#459=VERTEX_POINT($,#458);
#460=CARTESIAN_POINT($,(126.730335088222,354.402790176887,0));
#461=VERTEX_POINT($,#460);
#462=CARTESIAN_POINT($,(107.680335088146,354.402790176887,-0));
#463=DIRECTION($,(1,0,0));
#464=VECTOR($,#463,1);
#465=LINE($,#462,#464);
#466=EDGE_CURVE($,#459,#461,#465,.T.);
#467=ORIENTED_EDGE($,$,$,#466,.F.);
#468=CARTESIAN_POINT($,(107.680335088146,443.302790177243,-0));
#469=VERTEX_POINT($,#468);
#470=CARTESIAN_POINT($,(107.680335088146,443.302790177243,-0));
#471=DIRECTION($,(0,-1,0));
#472=VECTOR($,#471,1);
#473=LINE($,#470,#472);
#474=EDGE_CURVE($,#469,#459,#473,.T.);
#475=ORIENTED_EDGE($,$,$,#474,.F.);
#476=CARTESIAN_POINT($,(126.730335088222,443.302790177243,-0));
#477=VERTEX_POINT($,#476);
#478=CARTESIAN_POINT($,(126.730335088222,443.302790177243,-0));
#479=DIRECTION($,(-1,0,0));
#480=VECTOR($,#479,1);
#481=LINE($,#478,#480);
#482=EDGE_CURVE($,#477,#469,#481,.T.);
#483=ORIENTED_EDGE($,$,$,#482,.F.);
#484=CARTESIAN_POINT($,(126.730335088222,354.402790176887,0));
#485=DIRECTION($,(0,1,0));
#486=VECTOR($,#485,1);
#487=LINE($,#484,#486);
#488=EDGE_CURVE($,#461,#477,#487,.T.);
#489=ORIENTED_EDGE($,$,$,#488,.F.);
#490=EDGE_LOOP($,(#467,#475,#483,#489));
#491=FACE_BOUND('',#490,.T.);
#492=ADVANCED_FACE('',(#423,#457,#491),#5,.T.);
#493=CARTESIAN_POINT($,(0,0,1.90754000000764));
#494=DIRECTION($,(0,0,1));
#495=DIRECTION($,(1,0,0));
#496=AXIS2_PLACEMENT_3D($,#493,#494,#495);
#497=PLANE($,#496);
#498=CARTESIAN_POINT($,(353.540237720761,257.250330176499,1.90754000000764));
#499=VERTEX_POINT($,#498);
#500=CARTESIAN_POINT($,(402.054237720955,257.250330176499,1.90754000000764));
#501=VERTEX_POINT($,#500);
#502=CARTESIAN_POINT($,(353.540237720761,257.250330176499,1.90754000000764));
#503=DIRECTION($,(1,0,0));
#504=VECTOR($,#503,1);
#505=LINE($,#502,#504);
#506=EDGE_CURVE($,#499,#501,#505,.T.);
#507=ORIENTED_EDGE($,$,$,#506,.T.);
#508=CARTESIAN_POINT($,(414.754237721006,269.950330176549,1.90754000000764));
#509=VERTEX_POINT($,#508);
#510=CARTESIAN_POINT($,(402.054237720955,257.250330176499,1.90754000000764));
#511=DIRECTION($,(0.707106781186568,0.707106781186527,0));
#512=VECTOR($,#511,1);
#513=LINE($,#510,#512);
#514=EDGE_CURVE($,#501,#509,#513,.T.);
#515=ORIENTED_EDGE($,$,$,#514,.T.);
#516=CARTESIAN_POINT($,(414.754237721006,371.550330176956,1.90754000000764));
#517=VERTEX_POINT($,#516);
#518=CARTESIAN_POINT($,(414.754237721006,269.950330176549,1.90754000000764));
#519=DIRECTION($,(0,1,0));
#520=VECTOR($,#519,1);
#521=LINE($,#518,#520);
#522=EDGE_CURVE($,#509,#517,#521,.T.);
#523=ORIENTED_EDGE($,$,$,#522,.T.);
#524=CARTESIAN_POINT($,(402.054237720955,384.250330177006,1.90754000000764));
#525=VERTEX_POINT($,#524);
#526=CARTESIAN_POINT($,(414.754237721006,371.550330176956,1.90754000000764));
#527=DIRECTION($,(-0.707106781186565,0.70710678118653,0));
#528=VECTOR($,#527,1);
#529=LINE($,#526,#528);
#530=EDGE_CURVE($,#517,#525,#529,.T.);
#531=ORIENTED_EDGE($,$,$,#530,.T.);
#532=CARTESIAN_POINT($,(353.540237720761,384.250330177006,1.90754000000764));
#533=VERTEX_POINT($,#532);
#534=CARTESIAN_POINT($,(402.054237720955,384.250330177006,1.90754000000764));
#535=DIRECTION($,(-1,0,0));
#536=VECTOR($,#535,1);
#537=LINE($,#534,#536);
#538=EDGE_CURVE($,#525,#533,#537,.T.);
#539=ORIENTED_EDGE($,$,$,#538,.T.);
#540=CARTESIAN_POINT($,(350.445470176871,384.250330177006,1.90754000000764));
#541=VERTEX_POINT($,#540);
#542=CARTESIAN_POINT($,(353.540237720761,384.250330177006,1.90754000000764));
#543=DIRECTION($,(-1,0,0));
#544=VECTOR($,#543,1);
#545=LINE($,#542,#544);
#546=EDGE_CURVE($,#533,#541,#545,.T.);
#547=ORIENTED_EDGE($,$,$,#546,.T.);
#548=CARTESIAN_POINT($,(350.445470176871,492.685470177441,1.90754000000764));
#549=VERTEX_POINT($,#548);
#550=CARTESIAN_POINT($,(350.445470176871,384.250330177006,1.90754000000764));
#551=DIRECTION($,(0,1,0));
#552=VECTOR($,#551,1);
#553=LINE($,#550,#552);
#554=EDGE_CURVE($,#541,#549,#553,.T.);
#555=ORIENTED_EDGE($,$,$,#554,.T.);
#556=CARTESIAN_POINT($,(337.74547017682,505.385470177492,1.90754000000764));
#557=VERTEX_POINT($,#556);
#558=CARTESIAN_POINT($,(350.445470176871,492.685470177441,1.90754000000764));
#559=DIRECTION($,(-0.707106781186551,0.707106781186544,0));
#560=VECTOR($,#559,1);
#561=LINE($,#558,#560);
#562=EDGE_CURVE($,#549,#557,#561,.T.);
#563=ORIENTED_EDGE($,$,$,#562,.T.);
#564=CARTESIAN_POINT($,(318.695470176744,505.385470177491,1.90754000000764));
#565=VERTEX_POINT($,#564);
#566=CARTESIAN_POINT($,(337.74547017682,505.385470177492,1.90754000000764));
#567=DIRECTION($,(-1,0,0));
#568=VECTOR($,#567,1);
#569=LINE($,#566,#568);
#570=EDGE_CURVE($,#557,#565,#569,.T.);
#571=ORIENTED_EDGE($,$,$,#570,.T.);
#572=CARTESIAN_POINT($,(307.222735088943,505.385470177492,1.90754000000764));
#573=VERTEX_POINT($,#572);
#574=CARTESIAN_POINT($,(318.695470176744,505.385470177491,1.90754000000764));
#575=DIRECTION($,(-1,0,0));
#576=VECTOR($,#575,1);
#577=LINE($,#574,#576);
#578=EDGE_CURVE($,#565,#573,#577,.T.);
#579=ORIENTED_EDGE($,$,$,#578,.T.);
#580=CARTESIAN_POINT($,(298.332735088908,507.287930177499,1.90754000000764));
#581=VERTEX_POINT($,#580);
#582=CARTESIAN_POINT($,(307.222735088943,505.385470177492,1.90754000000764));
#583=DIRECTION($,(-0.977859618153247,0.209261958284793,0));
#584=VECTOR($,#583,1);
#585=LINE($,#582,#584);
#586=EDGE_CURVE($,#573,#581,#585,.T.);
#587=ORIENTED_EDGE($,$,$,#586,.T.);
#588=CARTESIAN_POINT($,(298.332735088908,518.7606652653,1.90754000000764));
#589=VERTEX_POINT($,#588);
#590=CARTESIAN_POINT($,(298.332735088908,507.287930177499,1.90754000000764));
#591=DIRECTION($,(0,1,0));
#592=VECTOR($,#591,1);
#593=LINE($,#590,#592);
#594=EDGE_CURVE($,#581,#589,#593,.T.);
#595=ORIENTED_EDGE($,$,$,#594,.T.);
#596=CARTESIAN_POINT($,(307.222735088944,531.33112526535,1.90754000000764));
#597=VERTEX_POINT($,#596);
#598=CARTESIAN_POINT($,(298.332735088908,518.7606652653,1.90754000000764));
#599=DIRECTION($,(0.57740839789431,0.816455474622546,0));
#600=VECTOR($,#599,1);
#601=LINE($,#598,#600);
#602=EDGE_CURVE($,#589,#597,#601,.T.);
#603=ORIENTED_EDGE($,$,$,#602,.T.);
#604=CARTESIAN_POINT($,(307.222735088944,580.353125265546,1.90754000000764));
#605=VERTEX_POINT($,#604);
#606=CARTESIAN_POINT($,(307.222735088944,531.33112526535,1.90754000000764));
#607=DIRECTION($,(0,1,0));
#608=VECTOR($,#607,1);
#609=LINE($,#606,#608);
#610=EDGE_CURVE($,#597,#605,#609,.T.);
#611=ORIENTED_EDGE($,$,$,#610,.T.);
#612=CARTESIAN_POINT($,(307.222735088944,591.825860353347,1.90754000000764));
#613=VERTEX_POINT($,#612);
#614=CARTESIAN_POINT($,(307.222735088944,580.353125265546,1.90754000000764));
#615=DIRECTION($,(0,1,0));
#616=VECTOR($,#615,1);
#617=LINE($,#614,#616);
#618=EDGE_CURVE($,#605,#613,#617,.T.);
#619=ORIENTED_EDGE($,$,$,#618,.T.);
#620=CARTESIAN_POINT($,(307.222735088944,622.60558035347,1.90754000000764));
#621=VERTEX_POINT($,#620);
#622=CARTESIAN_POINT($,(307.222735088944,591.825860353347,1.90754000000764));
#623=DIRECTION($,(0,1,0));
#624=VECTOR($,#623,1);
#625=LINE($,#622,#624);
#626=EDGE_CURVE($,#613,#621,#625,.T.);
#627=ORIENTED_EDGE($,$,$,#626,.T.);
#628=CARTESIAN_POINT($,(294.522735088893,635.305580353521,1.90754000000764));
#629=VERTEX_POINT($,#628);
#630=CARTESIAN_POINT($,(307.222735088944,622.60558035347,1.90754000000764));
#631=DIRECTION($,(-0.707106781186549,0.707106781186546,0));
#632=VECTOR($,#631,1);
#633=LINE($,#630,#632);
#634=EDGE_CURVE($,#621,#629,#633,.T.);
#635=ORIENTED_EDGE($,$,$,#634,.T.);
#636=CARTESIAN_POINT($,(78.6227350880296,635.305580353521,1.90754000000764));
#637=VERTEX_POINT($,#636);
#638=CARTESIAN_POINT($,(294.522735088893,635.305580353521,1.90754000000764));
#639=DIRECTION($,(-1,0,0));
#640=VECTOR($,#639,1);
#641=LINE($,#638,#640);
#642=EDGE_CURVE($,#629,#637,#641,.T.);
#643=ORIENTED_EDGE($,$,$,#642,.T.);
#644=CARTESIAN_POINT($,(65.9227350879785,622.60558035347,1.90754000000764));
#645=VERTEX_POINT($,#644);
#646=CARTESIAN_POINT($,(78.6227350880296,635.305580353521,1.90754000000764));
#647=DIRECTION($,(-0.707106781186555,-0.70710678118654,0));
#648=VECTOR($,#647,1);
#649=LINE($,#646,#648);
#650=EDGE_CURVE($,#637,#645,#649,.T.);
#651=ORIENTED_EDGE($,$,$,#650,.T.);
#652=CARTESIAN_POINT($,(65.9227350879785,591.825860353347,1.90754000000764));
#653=VERTEX_POINT($,#652);
#654=CARTESIAN_POINT($,(65.9227350879785,622.60558035347,1.90754000000764));
#655=DIRECTION($,(0,-1,0));
#656=VECTOR($,#655,1);
#657=LINE($,#654,#656);
#658=EDGE_CURVE($,#645,#653,#657,.T.);
#659=ORIENTED_EDGE($,$,$,#658,.T.);
#660=CARTESIAN_POINT($,(65.9227350879785,580.353125265546,1.90754000000764));
#661=VERTEX_POINT($,#660);
#662=CARTESIAN_POINT($,(65.9227350879785,591.825860353347,1.90754000000764));
#663=DIRECTION($,(0,-1,0));
#664=VECTOR($,#663,1);
#665=LINE($,#662,#664);
#666=EDGE_CURVE($,#653,#661,#665,.T.);
#667=ORIENTED_EDGE($,$,$,#666,.T.);
#668=CARTESIAN_POINT($,(65.9227350879785,531.33112526535,1.90754000000764));
#669=VERTEX_POINT($,#668);
#670=CARTESIAN_POINT($,(65.9227350879785,580.353125265546,1.90754000000764));
#671=DIRECTION($,(0,-1,0));
#672=VECTOR($,#671,1);
#673=LINE($,#670,#672);
#674=EDGE_CURVE($,#661,#669,#673,.T.);
#675=ORIENTED_EDGE($,$,$,#674,.T.);
#676=CARTESIAN_POINT($,(74.8127350880135,518.7606652653,1.90754000000764));
#677=VERTEX_POINT($,#676);
#678=CARTESIAN_POINT($,(65.9227350879785,531.33112526535,1.90754000000764));
#679=DIRECTION($,(0.577408397894285,-0.816455474622563,0));
#680=VECTOR($,#679,1);
#681=LINE($,#678,#680);
#682=EDGE_CURVE($,#669,#677,#681,.T.);
#683=ORIENTED_EDGE($,$,$,#682,.T.);
#684=CARTESIAN_POINT($,(74.8127350880135,507.287930177499,1.90754000000764));
#685=VERTEX_POINT($,#684);
#686=CARTESIAN_POINT($,(74.8127350880135,518.7606652653,1.90754000000764));
#687=DIRECTION($,(0,-1,0));
#688=VECTOR($,#687,1);
#689=LINE($,#686,#688);
#690=EDGE_CURVE($,#677,#685,#689,.T.);
#691=ORIENTED_EDGE($,$,$,#690,.T.);
#692=CARTESIAN_POINT($,(65.9227350879787,505.385470177492,1.90754000000764));
#693=VERTEX_POINT($,#692);
#694=CARTESIAN_POINT($,(74.8127350880135,507.287930177499,1.90754000000764));
#695=DIRECTION($,(-0.977859618153244,-0.209261958284804,0));
#696=VECTOR($,#695,1);
#697=LINE($,#694,#696);
#698=EDGE_CURVE($,#685,#693,#697,.T.);
#699=ORIENTED_EDGE($,$,$,#698,.T.);
#700=CARTESIAN_POINT($,(54.450000000178,505.385470177491,1.90754000000764));
#701=VERTEX_POINT($,#700);
#702=CARTESIAN_POINT($,(65.9227350879787,505.385470177492,1.90754000000764));
#703=DIRECTION($,(-1,0,0));
#704=VECTOR($,#703,1);
#705=LINE($,#702,#704);
#706=EDGE_CURVE($,#693,#701,#705,.T.);
#707=ORIENTED_EDGE($,$,$,#706,.T.);
#708=CARTESIAN_POINT($,(35.400000000102,505.385470177491,1.90754000000764));
#709=VERTEX_POINT($,#708);
#710=CARTESIAN_POINT($,(54.450000000178,505.385470177491,1.90754000000764));
#711=DIRECTION($,(-1,0,0));
#712=VECTOR($,#711,1);
#713=LINE($,#710,#712);
#714=EDGE_CURVE($,#701,#709,#713,.T.);
#715=ORIENTED_EDGE($,$,$,#714,.T.);
#716=CARTESIAN_POINT($,(10,479.98547017739,1.90754000000764));
#717=VERTEX_POINT($,#716);
#718=CARTESIAN_POINT($,(35.400000000102,505.385470177491,1.90754000000764));
#719=DIRECTION($,(-0.707106781186553,-0.707106781186542,0));
#720=VECTOR($,#719,1);
#721=LINE($,#718,#720);
#722=EDGE_CURVE($,#709,#717,#721,.T.);
#723=ORIENTED_EDGE($,$,$,#722,.T.);
#724=CARTESIAN_POINT($,(10,165.320110176131,1.90754000000764));
#725=VERTEX_POINT($,#724);
#726=CARTESIAN_POINT($,(10,479.98547017739,1.90754000000764));
#727=DIRECTION($,(0,-1,0));
#728=VECTOR($,#727,1);
#729=LINE($,#726,#728);
#730=EDGE_CURVE($,#717,#725,#729,.T.);
#731=ORIENTED_EDGE($,$,$,#730,.T.);
#732=CARTESIAN_POINT($,(35.400000000102,139.920110176029,1.90754000000764));
#733=VERTEX_POINT($,#732);
#734=CARTESIAN_POINT($,(10,165.320110176131,1.90754000000764));
#735=DIRECTION($,(0.707106781186548,-0.707106781186548,0));
#736=VECTOR($,#735,1);
#737=LINE($,#734,#736);
#738=EDGE_CURVE($,#725,#733,#737,.T.);
#739=ORIENTED_EDGE($,$,$,#738,.T.);
#740=CARTESIAN_POINT($,(54.450000000178,139.920110176029,1.90754000000764));
#741=VERTEX_POINT($,#740);
#742=CARTESIAN_POINT($,(35.400000000102,139.920110176029,1.90754000000764));
#743=DIRECTION($,(1,0,0));
#744=VECTOR($,#743,1);
#745=LINE($,#742,#744);
#746=EDGE_CURVE($,#733,#741,#745,.T.);
#747=ORIENTED_EDGE($,$,$,#746,.T.);
#748=CARTESIAN_POINT($,(65.922735087978,139.920110176029,1.90754000000764));
#749=VERTEX_POINT($,#748);
#750=CARTESIAN_POINT($,(54.450000000178,139.920110176029,1.90754000000764));
#751=DIRECTION($,(1,0,0));
#752=VECTOR($,#751,1);
#753=LINE($,#750,#752);
#754=EDGE_CURVE($,#741,#749,#753,.T.);
#755=ORIENTED_EDGE($,$,$,#754,.T.);
#756=CARTESIAN_POINT($,(74.8127350880135,138.987930176026,1.90754000000764));
#757=VERTEX_POINT($,#756);
#758=CARTESIAN_POINT($,(65.922735087978,139.920110176029,1.90754000000764));
#759=DIRECTION($,(0.994547412307714,-0.104285400090474,0));
#760=VECTOR($,#759,1);
#761=LINE($,#758,#760);
#762=EDGE_CURVE($,#749,#757,#761,.T.);
#763=ORIENTED_EDGE($,$,$,#762,.T.);
#764=CARTESIAN_POINT($,(74.8127350880135,127.515195088225,1.90754000000764));
#765=VERTEX_POINT($,#764);
#766=CARTESIAN_POINT($,(74.8127350880135,138.987930176026,1.90754000000764));
#767=DIRECTION($,(0,-1,0));
#768=VECTOR($,#767,1);
#769=LINE($,#766,#768);
#770=EDGE_CURVE($,#757,#765,#769,.T.);
#771=ORIENTED_EDGE($,$,$,#770,.T.);
#772=CARTESIAN_POINT($,(65.9227350879785,114.944735088175,1.90754000000764));
#773=VERTEX_POINT($,#772);
#774=CARTESIAN_POINT($,(74.8127350880135,127.515195088225,1.90754000000764));
#775=DIRECTION($,(-0.577408397894291,-0.816455474622559,0));
#776=VECTOR($,#775,1);
#777=LINE($,#774,#776);
#778=EDGE_CURVE($,#765,#773,#777,.T.);
#779=ORIENTED_EDGE($,$,$,#778,.T.);
#780=CARTESIAN_POINT($,(65.9227350879785,65.9227350879786,1.90754000000764));
#781=VERTEX_POINT($,#780);
#782=CARTESIAN_POINT($,(65.9227350879785,114.944735088175,1.90754000000764));
#783=DIRECTION($,(0,-1,0));
#784=VECTOR($,#783,1);
#785=LINE($,#782,#784);
#786=EDGE_CURVE($,#773,#781,#785,.T.);
#787=ORIENTED_EDGE($,$,$,#786,.T.);
#788=CARTESIAN_POINT($,(65.9227350879785,54.450000000178,1.90754000000764));
#789=VERTEX_POINT($,#788);
#790=CARTESIAN_POINT($,(65.9227350879785,65.9227350879786,1.90754000000764));
#791=DIRECTION($,(0,-1,0));
#792=VECTOR($,#791,1);
#793=LINE($,#790,#792);
#794=EDGE_CURVE($,#781,#789,#793,.T.);
#795=ORIENTED_EDGE($,$,$,#794,.T.);
#796=CARTESIAN_POINT($,(65.9227350879785,22.700000000051,1.90754000000764));
#797=VERTEX_POINT($,#796);
#798=CARTESIAN_POINT($,(65.9227350879785,54.450000000178,1.90754000000764));
#799=DIRECTION($,(0,-1,0));
#800=VECTOR($,#799,1);
#801=LINE($,#798,#800);
#802=EDGE_CURVE($,#789,#797,#801,.T.);
#803=ORIENTED_EDGE($,$,$,#802,.T.);
#804=CARTESIAN_POINT($,(78.6227350880295,10,1.90754000000764));
#805=VERTEX_POINT($,#804);
#806=CARTESIAN_POINT($,(65.9227350879785,22.700000000051,1.90754000000764));
#807=DIRECTION($,(0.707106781186548,-0.707106781186547,0));
#808=VECTOR($,#807,1);
#809=LINE($,#806,#808);
#810=EDGE_CURVE($,#797,#805,#809,.T.);
#811=ORIENTED_EDGE($,$,$,#810,.T.);
#812=CARTESIAN_POINT($,(294.522735088893,10,1.90754000000764));
#813=VERTEX_POINT($,#812);
#814=CARTESIAN_POINT($,(78.6227350880295,10,1.90754000000764));
#815=DIRECTION($,(1,0,0));
#816=VECTOR($,#815,1);
#817=LINE($,#814,#816);
#818=EDGE_CURVE($,#805,#813,#817,.T.);
#819=ORIENTED_EDGE($,$,$,#818,.T.);
#820=CARTESIAN_POINT($,(307.222735088944,22.700000000051,1.90754000000764));
#821=VERTEX_POINT($,#820);
#822=CARTESIAN_POINT($,(294.522735088893,10,1.90754000000764));
#823=DIRECTION($,(0.707106781186543,0.707106781186552,0));
#824=VECTOR($,#823,1);
#825=LINE($,#822,#824);
#826=EDGE_CURVE($,#813,#821,#825,.T.);
#827=ORIENTED_EDGE($,$,$,#826,.T.);
#828=CARTESIAN_POINT($,(307.222735088944,54.450000000178,1.90754000000764));
#829=VERTEX_POINT($,#828);
#830=CARTESIAN_POINT($,(307.222735088944,22.700000000051,1.90754000000764));
#831=DIRECTION($,(0,1,0));
#832=VECTOR($,#831,1);
#833=LINE($,#830,#832);
#834=EDGE_CURVE($,#821,#829,#833,.T.);
#835=ORIENTED_EDGE($,$,$,#834,.T.);
#836=CARTESIAN_POINT($,(307.222735088944,65.9227350879785,1.90754000000764));
#837=VERTEX_POINT($,#836);
#838=CARTESIAN_POINT($,(307.222735088944,54.450000000178,1.90754000000764));
#839=DIRECTION($,(0,1,0));
#840=VECTOR($,#839,1);
#841=LINE($,#838,#840);
#842=EDGE_CURVE($,#829,#837,#841,.T.);
#843=ORIENTED_EDGE($,$,$,#842,.T.);
#844=CARTESIAN_POINT($,(307.222735088944,114.944735088175,1.90754000000764));
#845=VERTEX_POINT($,#844);
#846=CARTESIAN_POINT($,(307.222735088944,65.9227350879785,1.90754000000764));
#847=DIRECTION($,(0,1,0));
#848=VECTOR($,#847,1);
#849=LINE($,#846,#848);
#850=EDGE_CURVE($,#837,#845,#849,.T.);
#851=ORIENTED_EDGE($,$,$,#850,.T.);
#852=CARTESIAN_POINT($,(298.332735088908,127.515195088225,1.90754000000764));
#853=VERTEX_POINT($,#852);
#854=CARTESIAN_POINT($,(307.222735088944,114.944735088175,1.90754000000764));
#855=DIRECTION($,(-0.577408397894315,0.816455474622542,0));
#856=VECTOR($,#855,1);
#857=LINE($,#854,#856);
#858=EDGE_CURVE($,#845,#853,#857,.T.);
#859=ORIENTED_EDGE($,$,$,#858,.T.);
#860=CARTESIAN_POINT($,(298.332735088908,138.987930176026,1.90754000000764));
#861=VERTEX_POINT($,#860);
#862=CARTESIAN_POINT($,(298.332735088908,127.515195088225,1.90754000000764));
#863=DIRECTION($,(0,1,0));
#864=VECTOR($,#863,1);
#865=LINE($,#862,#864);
#866=EDGE_CURVE($,#853,#861,#865,.T.);
#867=ORIENTED_EDGE($,$,$,#866,.T.);
#868=CARTESIAN_POINT($,(307.222735088944,139.920110176029,1.90754000000764));
#869=VERTEX_POINT($,#868);
#870=CARTESIAN_POINT($,(298.332735088908,138.987930176026,1.90754000000764));
#871=DIRECTION($,(0.994547412307714,0.104285400090468,0));
#872=VECTOR($,#871,1);
#873=LINE($,#870,#872);
#874=EDGE_CURVE($,#861,#869,#873,.T.);
#875=ORIENTED_EDGE($,$,$,#874,.T.);
#876=CARTESIAN_POINT($,(318.695470176744,139.920110176029,1.90754000000764));
#877=VERTEX_POINT($,#876);
#878=CARTESIAN_POINT($,(307.222735088944,139.920110176029,1.90754000000764));
#879=DIRECTION($,(1,0,0));
#880=VECTOR($,#879,1);
#881=LINE($,#878,#880);
#882=EDGE_CURVE($,#869,#877,#881,.T.);
#883=ORIENTED_EDGE($,$,$,#882,.T.);
#884=CARTESIAN_POINT($,(337.74547017682,139.920110176029,1.90754000000764));
#885=VERTEX_POINT($,#884);
#886=CARTESIAN_POINT($,(318.695470176744,139.920110176029,1.90754000000764));
#887=DIRECTION($,(1,0,0));
#888=VECTOR($,#887,1);
#889=LINE($,#886,#888);
#890=EDGE_CURVE($,#877,#885,#889,.T.);
#891=ORIENTED_EDGE($,$,$,#890,.T.);
#892=CARTESIAN_POINT($,(350.445470176871,152.62011017608,1.90754000000764));
#893=VERTEX_POINT($,#892);
#894=CARTESIAN_POINT($,(337.74547017682,139.920110176029,1.90754000000764));
#895=DIRECTION($,(0.707106781186546,0.707106781186549,0));
#896=VECTOR($,#895,1);
#897=LINE($,#894,#896);
#898=EDGE_CURVE($,#885,#893,#897,.T.);
#899=ORIENTED_EDGE($,$,$,#898,.T.);
#900=CARTESIAN_POINT($,(350.445470176871,257.250330176499,1.90754000000764));
#901=VERTEX_POINT($,#900);
#902=CARTESIAN_POINT($,(350.445470176871,152.62011017608,1.90754000000764));
#903=DIRECTION($,(0,1,0));
#904=VECTOR($,#903,1);
#905=LINE($,#902,#904);
#906=EDGE_CURVE($,#893,#901,#905,.T.);
#907=ORIENTED_EDGE($,$,$,#906,.T.);
#908=CARTESIAN_POINT($,(350.445470176871,257.250330176499,1.90754000000764));
#909=DIRECTION($,(1,0,0));
#910=VECTOR($,#909,1);
#911=LINE($,#908,#910);
#912=EDGE_CURVE($,#901,#499,#911,.T.);
#913=ORIENTED_EDGE($,$,$,#912,.T.);
#914=EDGE_LOOP($,(#507,#515,#523,#531,#539,#547,#555,#563,#571,#579,#587,#595,#603,#611,#619,#627,#635,#643,#651,#659,#667,#675,#683,#691,#699,#707,#715,#723,#731,#739,#747,#755,#763,#771,#779,#787,#795,#803,#811,#819,#827,#835,#843,#851,#859,#867,#875,#883,#891,#899,#907,#913));
#915=FACE_OUTER_BOUND('',#914,.T.);
#916=CARTESIAN_POINT($,(171.1803350884,354.402790176887,1.90754000000764));
#917=VERTEX_POINT($,#916);
#918=CARTESIAN_POINT($,(190.230335088476,354.402790176887,1.90754000000764));
#919=VERTEX_POINT($,#918);
#920=CARTESIAN_POINT($,(171.1803350884,354.402790176887,1.90754000000764));
#921=DIRECTION($,(1,0,0));
#922=VECTOR($,#921,1);
#923=LINE($,#920,#922);
#924=EDGE_CURVE($,#917,#919,#923,.T.);
#925=ORIENTED_EDGE($,$,$,#924,.F.);
#926=CARTESIAN_POINT($,(171.1803350884,443.302790177243,1.90754000000764));
#927=VERTEX_POINT($,#926);
#928=CARTESIAN_POINT($,(171.1803350884,443.302790177243,1.90754000000764));
#929=DIRECTION($,(0,-1,0));
#930=VECTOR($,#929,1);
#931=LINE($,#928,#930);
#932=EDGE_CURVE($,#927,#917,#931,.T.);
#933=ORIENTED_EDGE($,$,$,#932,.F.);
#934=CARTESIAN_POINT($,(190.230335088476,443.302790177243,1.90754000000764));
#935=VERTEX_POINT($,#934);
#936=CARTESIAN_POINT($,(190.230335088476,443.302790177243,1.90754000000764));
#937=DIRECTION($,(-1,0,0));
#938=VECTOR($,#937,1);
#939=LINE($,#936,#938);
#940=EDGE_CURVE($,#935,#927,#939,.T.);
#941=ORIENTED_EDGE($,$,$,#940,.F.);
#942=CARTESIAN_POINT($,(190.230335088476,354.402790176887,1.90754000000764));
#943=DIRECTION($,(0,1,0));
#944=VECTOR($,#943,1);
#945=LINE($,#942,#944);
#946=EDGE_CURVE($,#919,#935,#945,.T.);
#947=ORIENTED_EDGE($,$,$,#946,.F.);
#948=EDGE_LOOP($,(#925,#933,#941,#947));
#949=FACE_BOUND('',#948,.T.);
#950=CARTESIAN_POINT($,(107.680335088146,354.402790176887,1.90754000000764));
#951=VERTEX_POINT($,#950);
#952=CARTESIAN_POINT($,(126.730335088222,354.402790176887,1.90754000000764));
#953=VERTEX_POINT($,#952);
#954=CARTESIAN_POINT($,(107.680335088146,354.402790176887,1.90754000000764));
#955=DIRECTION($,(1,0,0));
#956=VECTOR($,#955,1);
#957=LINE($,#954,#956);
#958=EDGE_CURVE($,#951,#953,#957,.T.);
#959=ORIENTED_EDGE($,$,$,#958,.F.);
#960=CARTESIAN_POINT($,(107.680335088146,443.302790177243,1.90754000000764));
#961=VERTEX_POINT($,#960);
#962=CARTESIAN_POINT($,(107.680335088146,443.302790177243,1.90754000000764));
#963=DIRECTION($,(0,-1,0));
#964=VECTOR($,#963,1);
#965=LINE($,#962,#964);
#966=EDGE_CURVE($,#961,#951,#965,.T.);
#967=ORIENTED_EDGE($,$,$,#966,.F.);
#968=CARTESIAN_POINT($,(126.730335088222,443.302790177243,1.90754000000764));
#969=VERTEX_POINT($,#968);
#970=CARTESIAN_POINT($,(126.730335088222,443.302790177243,1.90754000000764));
#971=DIRECTION($,(-1,0,0));
#972=VECTOR($,#971,1);
#973=LINE($,#970,#972);
#974=EDGE_CURVE($,#969,#961,#973,.T.);
#975=ORIENTED_EDGE($,$,$,#974,.F.);
#976=CARTESIAN_POINT($,(126.730335088222,354.402790176887,1.90754000000764));
#977=DIRECTION($,(0,1,0));
#978=VECTOR($,#977,1);
#979=LINE($,#976,#978);
#980=EDGE_CURVE($,#953,#969,#979,.T.);
#981=ORIENTED_EDGE($,$,$,#980,.F.);
#982=EDGE_LOOP($,(#959,#967,#975,#981));
#983=FACE_BOUND('',#982,.T.);
#984=ADVANCED_FACE('',(#915,#949,#983),#497,.T.);
#985=CARTESIAN_POINT($,(307.222735088944,54.450000000178,0));
#986=DIRECTION($,(1,0,0));
#987=DIRECTION($,(0,0,1));
#988=AXIS2_PLACEMENT_3D($,#985,#986,#987);
#989=PLANE($,#988);
#990=ORIENTED_EDGE($,$,$,#350,.T.);
#991=CARTESIAN_POINT($,(307.222735088944,65.9227350879785,0));
#992=DIRECTION($,(0,0,1));
#993=VECTOR($,#992,1);
#994=LINE($,#991,#993);
#995=EDGE_CURVE($,#345,#837,#994,.T.);
#996=ORIENTED_EDGE($,$,$,#995,.T.);
#997=ORIENTED_EDGE($,$,$,#842,.F.);
#998=CARTESIAN_POINT($,(307.222735088944,54.450000000178,0));
#999=DIRECTION($,(0,0,1));
#1000=VECTOR($,#999,1);
#1001=LINE($,#998,#1000);
#1002=EDGE_CURVE($,#337,#829,#1001,.T.);
#1003=ORIENTED_EDGE($,$,$,#1002,.F.);
#1004=EDGE_LOOP($,(#990,#996,#997,#1003));
#1005=FACE_OUTER_BOUND('',#1004,.T.);
#1006=ADVANCED_FACE('',(#1005),#989,.T.);
#1007=CARTESIAN_POINT($,(307.222735088944,65.9227350879785,0));
#1008=DIRECTION($,(1,0,0));
#1009=DIRECTION($,(0,0,1));
#1010=AXIS2_PLACEMENT_3D($,#1007,#1008,#1009);
#1011=PLANE($,#1010);
#1012=ORIENTED_EDGE($,$,$,#358,.T.);
#1013=CARTESIAN_POINT($,(307.222735088944,114.944735088175,-0));
#1014=DIRECTION($,(0,0,1));
#1015=VECTOR($,#1014,1);
#1016=LINE($,#1013,#1015);
#1017=EDGE_CURVE($,#353,#845,#1016,.T.);
#1018=ORIENTED_EDGE($,$,$,#1017,.T.);
#1019=ORIENTED_EDGE($,$,$,#850,.F.);
#1020=ORIENTED_EDGE($,$,$,#995,.F.);
#1021=EDGE_LOOP($,(#1012,#1018,#1019,#1020));
#1022=FACE_OUTER_BOUND('',#1021,.T.);
#1023=ADVANCED_FACE('',(#1022),#1011,.T.);
#1024=CARTESIAN_POINT($,(307.222735088944,114.944735088175,0));
#1025=DIRECTION($,(0.816455474622542,0.577408397894315,0));
#1026=DIRECTION($,(0,0,1));
#1027=AXIS2_PLACEMENT_3D($,#1024,#1025,#1026);
#1028=PLANE($,#1027);
#1029=ORIENTED_EDGE($,$,$,#366,.T.);
#1030=CARTESIAN_POINT($,(298.332735088908,127.515195088225,0));
#1031=DIRECTION($,(0,0,1));
#1032=VECTOR($,#1031,1);
#1033=LINE($,#1030,#1032);
#1034=EDGE_CURVE($,#361,#853,#1033,.T.);
#1035=ORIENTED_EDGE($,$,$,#1034,.T.);
#1036=ORIENTED_EDGE($,$,$,#858,.F.);
#1037=ORIENTED_EDGE($,$,$,#1017,.F.);
#1038=EDGE_LOOP($,(#1029,#1035,#1036,#1037));
#1039=FACE_OUTER_BOUND('',#1038,.T.);
#1040=ADVANCED_FACE('',(#1039),#1028,.T.);
#1041=CARTESIAN_POINT($,(298.332735088908,127.515195088225,0));
#1042=DIRECTION($,(1,0,0));
#1043=DIRECTION($,(0,0,1));
#1044=AXIS2_PLACEMENT_3D($,#1041,#1042,#1043);
#1045=PLANE($,#1044);
#1046=ORIENTED_EDGE($,$,$,#374,.T.);
#1047=CARTESIAN_POINT($,(298.332735088908,138.987930176026,0));
#1048=DIRECTION($,(0,0,1));
#1049=VECTOR($,#1048,1);
#1050=LINE($,#1047,#1049);
#1051=EDGE_CURVE($,#369,#861,#1050,.T.);
#1052=ORIENTED_EDGE($,$,$,#1051,.T.);
#1053=ORIENTED_EDGE($,$,$,#866,.F.);
#1054=ORIENTED_EDGE($,$,$,#1034,.F.);
#1055=EDGE_LOOP($,(#1046,#1052,#1053,#1054));
#1056=FACE_OUTER_BOUND('',#1055,.T.);
#1057=ADVANCED_FACE('',(#1056),#1045,.T.);
#1058=CARTESIAN_POINT($,(298.332735088908,138.987930176026,0));
#1059=DIRECTION($,(0.104285400090468,-0.994547412307714,0));
#1060=DIRECTION($,(0,0,1));
#1061=AXIS2_PLACEMENT_3D($,#1058,#1059,#1060);
#1062=PLANE($,#1061);
#1063=ORIENTED_EDGE($,$,$,#382,.T.);
#1064=CARTESIAN_POINT($,(307.222735088944,139.920110176029,0));
#1065=DIRECTION($,(0,0,1));
#1066=VECTOR($,#1065,1);
#1067=LINE($,#1064,#1066);
#1068=EDGE_CURVE($,#377,#869,#1067,.T.);
#1069=ORIENTED_EDGE($,$,$,#1068,.T.);
#1070=ORIENTED_EDGE($,$,$,#874,.F.);
#1071=ORIENTED_EDGE($,$,$,#1051,.F.);
#1072=EDGE_LOOP($,(#1063,#1069,#1070,#1071));
#1073=FACE_OUTER_BOUND('',#1072,.T.);
#1074=ADVANCED_FACE('',(#1073),#1062,.T.);
#1075=CARTESIAN_POINT($,(307.222735088944,139.920110176029,0));
#1076=DIRECTION($,(0,-1,0));
#1077=DIRECTION($,(0,0,1));
#1078=AXIS2_PLACEMENT_3D($,#1075,#1076,#1077);
#1079=PLANE($,#1078);
#1080=ORIENTED_EDGE($,$,$,#390,.T.);
#1081=CARTESIAN_POINT($,(318.695470176744,139.920110176029,0));
#1082=DIRECTION($,(0,0,1));
#1083=VECTOR($,#1082,1);
#1084=LINE($,#1081,#1083);
#1085=EDGE_CURVE($,#385,#877,#1084,.T.);
#1086=ORIENTED_EDGE($,$,$,#1085,.T.);
#1087=ORIENTED_EDGE($,$,$,#882,.F.);
#1088=ORIENTED_EDGE($,$,$,#1068,.F.);
#1089=EDGE_LOOP($,(#1080,#1086,#1087,#1088));
#1090=FACE_OUTER_BOUND('',#1089,.T.);
#1091=ADVANCED_FACE('',(#1090),#1079,.T.);
#1092=CARTESIAN_POINT($,(318.695470176744,139.920110176029,0));
#1093=DIRECTION($,(0,-1,0));
#1094=DIRECTION($,(0,0,1));
#1095=AXIS2_PLACEMENT_3D($,#1092,#1093,#1094);
#1096=PLANE($,#1095);
#1097=ORIENTED_EDGE($,$,$,#398,.T.);
#1098=CARTESIAN_POINT($,(337.74547017682,139.920110176029,-0));
#1099=DIRECTION($,(0,0,1));
#1100=VECTOR($,#1099,1);
#1101=LINE($,#1098,#1100);
#1102=EDGE_CURVE($,#393,#885,#1101,.T.);
#1103=ORIENTED_EDGE($,$,$,#1102,.T.);
#1104=ORIENTED_EDGE($,$,$,#890,.F.);
#1105=ORIENTED_EDGE($,$,$,#1085,.F.);
#1106=EDGE_LOOP($,(#1097,#1103,#1104,#1105));
#1107=FACE_OUTER_BOUND('',#1106,.T.);
#1108=ADVANCED_FACE('',(#1107),#1096,.T.);
#1109=CARTESIAN_POINT($,(337.74547017682,139.920110176029,0));
#1110=DIRECTION($,(0.707106781186549,-0.707106781186546,0));
#1111=DIRECTION($,(0,0,1));
#1112=AXIS2_PLACEMENT_3D($,#1109,#1110,#1111);
#1113=PLANE($,#1112);
#1114=ORIENTED_EDGE($,$,$,#406,.T.);
#1115=CARTESIAN_POINT($,(350.445470176871,152.62011017608,-0));
#1116=DIRECTION($,(0,0,1));
#1117=VECTOR($,#1116,1);
#1118=LINE($,#1115,#1117);
#1119=EDGE_CURVE($,#401,#893,#1118,.T.);
#1120=ORIENTED_EDGE($,$,$,#1119,.T.);
#1121=ORIENTED_EDGE($,$,$,#898,.F.);
#1122=ORIENTED_EDGE($,$,$,#1102,.F.);
#1123=EDGE_LOOP($,(#1114,#1120,#1121,#1122));
#1124=FACE_OUTER_BOUND('',#1123,.T.);
#1125=ADVANCED_FACE('',(#1124),#1113,.T.);
#1126=CARTESIAN_POINT($,(350.445470176871,152.62011017608,0));
#1127=DIRECTION($,(1,0,0));
#1128=DIRECTION($,(0,0,1));
#1129=AXIS2_PLACEMENT_3D($,#1126,#1127,#1128);
#1130=PLANE($,#1129);
#1131=ORIENTED_EDGE($,$,$,#414,.T.);
#1132=CARTESIAN_POINT($,(350.445470176871,257.250330176499,0));
#1133=DIRECTION($,(0,0,1));
#1134=VECTOR($,#1133,1);
#1135=LINE($,#1132,#1134);
#1136=EDGE_CURVE($,#409,#901,#1135,.T.);
#1137=ORIENTED_EDGE($,$,$,#1136,.T.);
#1138=ORIENTED_EDGE($,$,$,#906,.F.);
#1139=ORIENTED_EDGE($,$,$,#1119,.F.);
#1140=EDGE_LOOP($,(#1131,#1137,#1138,#1139));
#1141=FACE_OUTER_BOUND('',#1140,.T.);
#1142=ADVANCED_FACE('',(#1141),#1130,.T.);
#1143=CARTESIAN_POINT($,(350.445470176871,257.250330176499,0));
#1144=DIRECTION($,(0,-1,0));
#1145=DIRECTION($,(0,0,1));
#1146=AXIS2_PLACEMENT_3D($,#1143,#1144,#1145);
#1147=PLANE($,#1146);
#1148=ORIENTED_EDGE($,$,$,#420,.T.);
#1149=CARTESIAN_POINT($,(353.540237720761,257.250330176499,0));
#1150=DIRECTION($,(0,0,1));
#1151=VECTOR($,#1150,1);
#1152=LINE($,#1149,#1151);
#1153=EDGE_CURVE($,#7,#499,#1152,.T.);
#1154=ORIENTED_EDGE($,$,$,#1153,.T.);
#1155=ORIENTED_EDGE($,$,$,#912,.F.);
#1156=ORIENTED_EDGE($,$,$,#1136,.F.);
#1157=EDGE_LOOP($,(#1148,#1154,#1155,#1156));
#1158=FACE_OUTER_BOUND('',#1157,.T.);
#1159=ADVANCED_FACE('',(#1158),#1147,.T.);
#1160=CARTESIAN_POINT($,(353.540237720761,257.250330176499,0));
#1161=DIRECTION($,(0,-1,0));
#1162=DIRECTION($,(0,0,1));
#1163=AXIS2_PLACEMENT_3D($,#1160,#1161,#1162);
#1164=PLANE($,#1163);
#1165=ORIENTED_EDGE($,$,$,#14,.T.);
#1166=CARTESIAN_POINT($,(402.054237720955,257.250330176499,-0));
#1167=DIRECTION($,(0,0,1));
#1168=VECTOR($,#1167,1);
#1169=LINE($,#1166,#1168);
#1170=EDGE_CURVE($,#9,#501,#1169,.T.);
#1171=ORIENTED_EDGE($,$,$,#1170,.T.);
#1172=ORIENTED_EDGE($,$,$,#506,.F.);
#1173=ORIENTED_EDGE($,$,$,#1153,.F.);
#1174=EDGE_LOOP($,(#1165,#1171,#1172,#1173));
#1175=FACE_OUTER_BOUND('',#1174,.T.);
#1176=ADVANCED_FACE('',(#1175),#1164,.T.);
#1177=CARTESIAN_POINT($,(402.054237720955,257.250330176499,0));
#1178=DIRECTION($,(0.707106781186527,-0.707106781186568,0));
#1179=DIRECTION($,(0,0,1));
#1180=AXIS2_PLACEMENT_3D($,#1177,#1178,#1179);
#1181=PLANE($,#1180);
#1182=ORIENTED_EDGE($,$,$,#22,.T.);
#1183=CARTESIAN_POINT($,(414.754237721006,269.950330176549,-0));
#1184=DIRECTION($,(0,0,1));
#1185=VECTOR($,#1184,1);
#1186=LINE($,#1183,#1185);
#1187=EDGE_CURVE($,#17,#509,#1186,.T.);
#1188=ORIENTED_EDGE($,$,$,#1187,.T.);
#1189=ORIENTED_EDGE($,$,$,#514,.F.);
#1190=ORIENTED_EDGE($,$,$,#1170,.F.);
#1191=EDGE_LOOP($,(#1182,#1188,#1189,#1190));
#1192=FACE_OUTER_BOUND('',#1191,.T.);
#1193=ADVANCED_FACE('',(#1192),#1181,.T.);
#1194=CARTESIAN_POINT($,(414.754237721006,269.950330176549,0));
#1195=DIRECTION($,(1,0,0));
#1196=DIRECTION($,(0,0,1));
#1197=AXIS2_PLACEMENT_3D($,#1194,#1195,#1196);
#1198=PLANE($,#1197);
#1199=ORIENTED_EDGE($,$,$,#30,.T.);
#1200=CARTESIAN_POINT($,(414.754237721006,371.550330176956,-0));
#1201=DIRECTION($,(0,0,1));
#1202=VECTOR($,#1201,1);
#1203=LINE($,#1200,#1202);
#1204=EDGE_CURVE($,#25,#517,#1203,.T.);
#1205=ORIENTED_EDGE($,$,$,#1204,.T.);
#1206=ORIENTED_EDGE($,$,$,#522,.F.);
#1207=ORIENTED_EDGE($,$,$,#1187,.F.);
#1208=EDGE_LOOP($,(#1199,#1205,#1206,#1207));
#1209=FACE_OUTER_BOUND('',#1208,.T.);
#1210=ADVANCED_FACE('',(#1209),#1198,.T.);
#1211=CARTESIAN_POINT($,(414.754237721006,371.550330176956,0));
#1212=DIRECTION($,(0.70710678118653,0.707106781186565,0));
#1213=DIRECTION($,(0,0,1));
#1214=AXIS2_PLACEMENT_3D($,#1211,#1212,#1213);
#1215=PLANE($,#1214);
#1216=ORIENTED_EDGE($,$,$,#38,.T.);
#1217=CARTESIAN_POINT($,(402.054237720955,384.250330177006,-0));
#1218=DIRECTION($,(0,0,1));
#1219=VECTOR($,#1218,1);
#1220=LINE($,#1217,#1219);
#1221=EDGE_CURVE($,#33,#525,#1220,.T.);
#1222=ORIENTED_EDGE($,$,$,#1221,.T.);
#1223=ORIENTED_EDGE($,$,$,#530,.F.);
#1224=ORIENTED_EDGE($,$,$,#1204,.F.);
#1225=EDGE_LOOP($,(#1216,#1222,#1223,#1224));
#1226=FACE_OUTER_BOUND('',#1225,.T.);
#1227=ADVANCED_FACE('',(#1226),#1215,.T.);
#1228=CARTESIAN_POINT($,(402.054237720955,384.250330177006,0));
#1229=DIRECTION($,(0,1,0));
#1230=DIRECTION($,(0,0,1));
#1231=AXIS2_PLACEMENT_3D($,#1228,#1229,#1230);
#1232=PLANE($,#1231);
#1233=ORIENTED_EDGE($,$,$,#46,.T.);
#1234=CARTESIAN_POINT($,(353.540237720761,384.250330177006,0));
#1235=DIRECTION($,(0,0,1));
#1236=VECTOR($,#1235,1);
#1237=LINE($,#1234,#1236);
#1238=EDGE_CURVE($,#41,#533,#1237,.T.);
#1239=ORIENTED_EDGE($,$,$,#1238,.T.);
#1240=ORIENTED_EDGE($,$,$,#538,.F.);
#1241=ORIENTED_EDGE($,$,$,#1221,.F.);
#1242=EDGE_LOOP($,(#1233,#1239,#1240,#1241));
#1243=FACE_OUTER_BOUND('',#1242,.T.);
#1244=ADVANCED_FACE('',(#1243),#1232,.T.);
#1245=CARTESIAN_POINT($,(353.540237720761,384.250330177006,0));
#1246=DIRECTION($,(0,1,0));
#1247=DIRECTION($,(0,0,1));
#1248=AXIS2_PLACEMENT_3D($,#1245,#1246,#1247);
#1249=PLANE($,#1248);
#1250=ORIENTED_EDGE($,$,$,#54,.T.);
#1251=CARTESIAN_POINT($,(350.445470176871,384.250330177006,0));
#1252=DIRECTION($,(0,0,1));
#1253=VECTOR($,#1252,1);
#1254=LINE($,#1251,#1253);
#1255=EDGE_CURVE($,#49,#541,#1254,.T.);
#1256=ORIENTED_EDGE($,$,$,#1255,.T.);
#1257=ORIENTED_EDGE($,$,$,#546,.F.);
#1258=ORIENTED_EDGE($,$,$,#1238,.F.);
#1259=EDGE_LOOP($,(#1250,#1256,#1257,#1258));
#1260=FACE_OUTER_BOUND('',#1259,.T.);
#1261=ADVANCED_FACE('',(#1260),#1249,.T.);
#1262=CARTESIAN_POINT($,(350.445470176871,384.250330177006,0));
#1263=DIRECTION($,(1,0,0));
#1264=DIRECTION($,(0,0,1));
#1265=AXIS2_PLACEMENT_3D($,#1262,#1263,#1264);
#1266=PLANE($,#1265);
#1267=ORIENTED_EDGE($,$,$,#62,.T.);
#1268=CARTESIAN_POINT($,(350.445470176871,492.685470177441,-0));
#1269=DIRECTION($,(0,0,1));
#1270=VECTOR($,#1269,1);
#1271=LINE($,#1268,#1270);
#1272=EDGE_CURVE($,#57,#549,#1271,.T.);
#1273=ORIENTED_EDGE($,$,$,#1272,.T.);
#1274=ORIENTED_EDGE($,$,$,#554,.F.);
#1275=ORIENTED_EDGE($,$,$,#1255,.F.);
#1276=EDGE_LOOP($,(#1267,#1273,#1274,#1275));
#1277=FACE_OUTER_BOUND('',#1276,.T.);
#1278=ADVANCED_FACE('',(#1277),#1266,.T.);
#1279=CARTESIAN_POINT($,(350.445470176871,492.685470177441,0));
#1280=DIRECTION($,(0.707106781186544,0.707106781186551,0));
#1281=DIRECTION($,(0,0,1));
#1282=AXIS2_PLACEMENT_3D($,#1279,#1280,#1281);
#1283=PLANE($,#1282);
#1284=ORIENTED_EDGE($,$,$,#70,.T.);
#1285=CARTESIAN_POINT($,(337.74547017682,505.385470177492,-0));
#1286=DIRECTION($,(0,0,1));
#1287=VECTOR($,#1286,1);
#1288=LINE($,#1285,#1287);
#1289=EDGE_CURVE($,#65,#557,#1288,.T.);
#1290=ORIENTED_EDGE($,$,$,#1289,.T.);
#1291=ORIENTED_EDGE($,$,$,#562,.F.);
#1292=ORIENTED_EDGE($,$,$,#1272,.F.);
#1293=EDGE_LOOP($,(#1284,#1290,#1291,#1292));
#1294=FACE_OUTER_BOUND('',#1293,.T.);
#1295=ADVANCED_FACE('',(#1294),#1283,.T.);
#1296=CARTESIAN_POINT($,(337.74547017682,505.385470177491,0));
#1297=DIRECTION($,(0,1,0));
#1298=DIRECTION($,(0,0,1));
#1299=AXIS2_PLACEMENT_3D($,#1296,#1297,#1298);
#1300=PLANE($,#1299);
#1301=ORIENTED_EDGE($,$,$,#78,.T.);
#1302=CARTESIAN_POINT($,(318.695470176744,505.385470177491,0));
#1303=DIRECTION($,(0,0,1));
#1304=VECTOR($,#1303,1);
#1305=LINE($,#1302,#1304);
#1306=EDGE_CURVE($,#73,#565,#1305,.T.);
#1307=ORIENTED_EDGE($,$,$,#1306,.T.);
#1308=ORIENTED_EDGE($,$,$,#570,.F.);
#1309=ORIENTED_EDGE($,$,$,#1289,.F.);
#1310=EDGE_LOOP($,(#1301,#1307,#1308,#1309));
#1311=FACE_OUTER_BOUND('',#1310,.T.);
#1312=ADVANCED_FACE('',(#1311),#1300,.T.);
#1313=CARTESIAN_POINT($,(318.695470176744,505.385470177492,0));
#1314=DIRECTION($,(0,1,0));
#1315=DIRECTION($,(0,0,1));
#1316=AXIS2_PLACEMENT_3D($,#1313,#1314,#1315);
#1317=PLANE($,#1316);
#1318=ORIENTED_EDGE($,$,$,#86,.T.);
#1319=CARTESIAN_POINT($,(307.222735088943,505.385470177492,0));
#1320=DIRECTION($,(0,0,1));
#1321=VECTOR($,#1320,1);
#1322=LINE($,#1319,#1321);
#1323=EDGE_CURVE($,#81,#573,#1322,.T.);
#1324=ORIENTED_EDGE($,$,$,#1323,.T.);
#1325=ORIENTED_EDGE($,$,$,#578,.F.);
#1326=ORIENTED_EDGE($,$,$,#1306,.F.);
#1327=EDGE_LOOP($,(#1318,#1324,#1325,#1326));
#1328=FACE_OUTER_BOUND('',#1327,.T.);
#1329=ADVANCED_FACE('',(#1328),#1317,.T.);
#1330=CARTESIAN_POINT($,(307.222735088944,505.385470177491,0));
#1331=DIRECTION($,(0.209261958284793,0.977859618153247,0));
#1332=DIRECTION($,(0,0,1));
#1333=AXIS2_PLACEMENT_3D($,#1330,#1331,#1332);
#1334=PLANE($,#1333);
#1335=ORIENTED_EDGE($,$,$,#94,.T.);
#1336=CARTESIAN_POINT($,(298.332735088908,507.287930177499,0));
#1337=DIRECTION($,(0,0,1));
#1338=VECTOR($,#1337,1);
#1339=LINE($,#1336,#1338);
#1340=EDGE_CURVE($,#89,#581,#1339,.T.);
#1341=ORIENTED_EDGE($,$,$,#1340,.T.);
#1342=ORIENTED_EDGE($,$,$,#586,.F.);
#1343=ORIENTED_EDGE($,$,$,#1323,.F.);
#1344=EDGE_LOOP($,(#1335,#1341,#1342,#1343));
#1345=FACE_OUTER_BOUND('',#1344,.T.);
#1346=ADVANCED_FACE('',(#1345),#1334,.T.);
#1347=CARTESIAN_POINT($,(298.332735088908,507.287930177499,0));
#1348=DIRECTION($,(1,0,0));
#1349=DIRECTION($,(0,0,1));
#1350=AXIS2_PLACEMENT_3D($,#1347,#1348,#1349);
#1351=PLANE($,#1350);
#1352=ORIENTED_EDGE($,$,$,#102,.T.);
#1353=CARTESIAN_POINT($,(298.332735088908,518.7606652653,0));
#1354=DIRECTION($,(0,0,1));
#1355=VECTOR($,#1354,1);
#1356=LINE($,#1353,#1355);
#1357=EDGE_CURVE($,#97,#589,#1356,.T.);
#1358=ORIENTED_EDGE($,$,$,#1357,.T.);
#1359=ORIENTED_EDGE($,$,$,#594,.F.);
#1360=ORIENTED_EDGE($,$,$,#1340,.F.);
#1361=EDGE_LOOP($,(#1352,#1358,#1359,#1360));
#1362=FACE_OUTER_BOUND('',#1361,.T.);
#1363=ADVANCED_FACE('',(#1362),#1351,.T.);
#1364=CARTESIAN_POINT($,(298.332735088908,518.7606652653,0));
#1365=DIRECTION($,(0.816455474622546,-0.57740839789431,0));
#1366=DIRECTION($,(0,0,1));
#1367=AXIS2_PLACEMENT_3D($,#1364,#1365,#1366);
#1368=PLANE($,#1367);
#1369=ORIENTED_EDGE($,$,$,#110,.T.);
#1370=CARTESIAN_POINT($,(307.222735088944,531.33112526535,-0));
#1371=DIRECTION($,(0,0,1));
#1372=VECTOR($,#1371,1);
#1373=LINE($,#1370,#1372);
#1374=EDGE_CURVE($,#105,#597,#1373,.T.);
#1375=ORIENTED_EDGE($,$,$,#1374,.T.);
#1376=ORIENTED_EDGE($,$,$,#602,.F.);
#1377=ORIENTED_EDGE($,$,$,#1357,.F.);
#1378=EDGE_LOOP($,(#1369,#1375,#1376,#1377));
#1379=FACE_OUTER_BOUND('',#1378,.T.);
#1380=ADVANCED_FACE('',(#1379),#1368,.T.);
#1381=CARTESIAN_POINT($,(307.222735088944,531.33112526535,0));
#1382=DIRECTION($,(1,0,0));
#1383=DIRECTION($,(0,0,1));
#1384=AXIS2_PLACEMENT_3D($,#1381,#1382,#1383);
#1385=PLANE($,#1384);
#1386=ORIENTED_EDGE($,$,$,#118,.T.);
#1387=CARTESIAN_POINT($,(307.222735088944,580.353125265546,0));
#1388=DIRECTION($,(0,0,1));
#1389=VECTOR($,#1388,1);
#1390=LINE($,#1387,#1389);
#1391=EDGE_CURVE($,#113,#605,#1390,.T.);
#1392=ORIENTED_EDGE($,$,$,#1391,.T.);
#1393=ORIENTED_EDGE($,$,$,#610,.F.);
#1394=ORIENTED_EDGE($,$,$,#1374,.F.);
#1395=EDGE_LOOP($,(#1386,#1392,#1393,#1394));
#1396=FACE_OUTER_BOUND('',#1395,.T.);
#1397=ADVANCED_FACE('',(#1396),#1385,.T.);
#1398=CARTESIAN_POINT($,(307.222735088944,580.353125265546,0));
#1399=DIRECTION($,(1,0,0));
#1400=DIRECTION($,(0,0,1));
#1401=AXIS2_PLACEMENT_3D($,#1398,#1399,#1400);
#1402=PLANE($,#1401);
#1403=ORIENTED_EDGE($,$,$,#126,.T.);
#1404=CARTESIAN_POINT($,(307.222735088944,591.825860353347,0));
#1405=DIRECTION($,(0,0,1));
#1406=VECTOR($,#1405,1);
#1407=LINE($,#1404,#1406);
#1408=EDGE_CURVE($,#121,#613,#1407,.T.);
#1409=ORIENTED_EDGE($,$,$,#1408,.T.);
#1410=ORIENTED_EDGE($,$,$,#618,.F.);
#1411=ORIENTED_EDGE($,$,$,#1391,.F.);
#1412=EDGE_LOOP($,(#1403,#1409,#1410,#1411));
#1413=FACE_OUTER_BOUND('',#1412,.T.);
#1414=ADVANCED_FACE('',(#1413),#1402,.T.);
#1415=CARTESIAN_POINT($,(307.222735088944,591.825860353347,0));
#1416=DIRECTION($,(1,0,0));
#1417=DIRECTION($,(0,0,1));
#1418=AXIS2_PLACEMENT_3D($,#1415,#1416,#1417);
#1419=PLANE($,#1418);
#1420=ORIENTED_EDGE($,$,$,#134,.T.);
#1421=CARTESIAN_POINT($,(307.222735088944,622.60558035347,-0));
#1422=DIRECTION($,(0,0,1));
#1423=VECTOR($,#1422,1);
#1424=LINE($,#1421,#1423);
#1425=EDGE_CURVE($,#129,#621,#1424,.T.);
#1426=ORIENTED_EDGE($,$,$,#1425,.T.);
#1427=ORIENTED_EDGE($,$,$,#626,.F.);
#1428=ORIENTED_EDGE($,$,$,#1408,.F.);
#1429=EDGE_LOOP($,(#1420,#1426,#1427,#1428));
#1430=FACE_OUTER_BOUND('',#1429,.T.);
#1431=ADVANCED_FACE('',(#1430),#1419,.T.);
#1432=CARTESIAN_POINT($,(307.222735088944,622.60558035347,0));
#1433=DIRECTION($,(0.707106781186546,0.707106781186549,0));
#1434=DIRECTION($,(0,0,1));
#1435=AXIS2_PLACEMENT_3D($,#1432,#1433,#1434);
#1436=PLANE($,#1435);
#1437=ORIENTED_EDGE($,$,$,#142,.T.);
#1438=CARTESIAN_POINT($,(294.522735088893,635.305580353521,-0));
#1439=DIRECTION($,(0,0,1));
#1440=VECTOR($,#1439,1);
#1441=LINE($,#1438,#1440);
#1442=EDGE_CURVE($,#137,#629,#1441,.T.);
#1443=ORIENTED_EDGE($,$,$,#1442,.T.);
#1444=ORIENTED_EDGE($,$,$,#634,.F.);
#1445=ORIENTED_EDGE($,$,$,#1425,.F.);
#1446=EDGE_LOOP($,(#1437,#1443,#1444,#1445));
#1447=FACE_OUTER_BOUND('',#1446,.T.);
#1448=ADVANCED_FACE('',(#1447),#1436,.T.);
#1449=CARTESIAN_POINT($,(294.522735088893,635.305580353521,0));
#1450=DIRECTION($,(0,1,0));
#1451=DIRECTION($,(0,0,1));
#1452=AXIS2_PLACEMENT_3D($,#1449,#1450,#1451);
#1453=PLANE($,#1452);
#1454=ORIENTED_EDGE($,$,$,#150,.T.);
#1455=CARTESIAN_POINT($,(78.6227350880296,635.305580353521,-0));
#1456=DIRECTION($,(0,0,1));
#1457=VECTOR($,#1456,1);
#1458=LINE($,#1455,#1457);
#1459=EDGE_CURVE($,#145,#637,#1458,.T.);
#1460=ORIENTED_EDGE($,$,$,#1459,.T.);
#1461=ORIENTED_EDGE($,$,$,#642,.F.);
#1462=ORIENTED_EDGE($,$,$,#1442,.F.);
#1463=EDGE_LOOP($,(#1454,#1460,#1461,#1462));
#1464=FACE_OUTER_BOUND('',#1463,.T.);
#1465=ADVANCED_FACE('',(#1464),#1453,.T.);
#1466=CARTESIAN_POINT($,(78.6227350880295,635.305580353521,0));
#1467=DIRECTION($,(-0.70710678118654,0.707106781186555,0));
#1468=DIRECTION($,(0,0,1));
#1469=AXIS2_PLACEMENT_3D($,#1466,#1467,#1468);
#1470=PLANE($,#1469);
#1471=ORIENTED_EDGE($,$,$,#158,.T.);
#1472=CARTESIAN_POINT($,(65.9227350879785,622.60558035347,-0));
#1473=DIRECTION($,(0,0,1));
#1474=VECTOR($,#1473,1);
#1475=LINE($,#1472,#1474);
#1476=EDGE_CURVE($,#153,#645,#1475,.T.);
#1477=ORIENTED_EDGE($,$,$,#1476,.T.);
#1478=ORIENTED_EDGE($,$,$,#650,.F.);
#1479=ORIENTED_EDGE($,$,$,#1459,.F.);
#1480=EDGE_LOOP($,(#1471,#1477,#1478,#1479));
#1481=FACE_OUTER_BOUND('',#1480,.T.);
#1482=ADVANCED_FACE('',(#1481),#1470,.T.);
#1483=CARTESIAN_POINT($,(65.9227350879785,622.60558035347,0));
#1484=DIRECTION($,(-1,0,0));
#1485=DIRECTION($,(0,0,1));
#1486=AXIS2_PLACEMENT_3D($,#1483,#1484,#1485);
#1487=PLANE($,#1486);
#1488=ORIENTED_EDGE($,$,$,#166,.T.);
#1489=CARTESIAN_POINT($,(65.9227350879785,591.825860353347,0));
#1490=DIRECTION($,(0,0,1));
#1491=VECTOR($,#1490,1);
#1492=LINE($,#1489,#1491);
#1493=EDGE_CURVE($,#161,#653,#1492,.T.);
#1494=ORIENTED_EDGE($,$,$,#1493,.T.);
#1495=ORIENTED_EDGE($,$,$,#658,.F.);
#1496=ORIENTED_EDGE($,$,$,#1476,.F.);
#1497=EDGE_LOOP($,(#1488,#1494,#1495,#1496));
#1498=FACE_OUTER_BOUND('',#1497,.T.);
#1499=ADVANCED_FACE('',(#1498),#1487,.T.);
#1500=CARTESIAN_POINT($,(65.9227350879785,591.825860353347,0));
#1501=DIRECTION($,(-1,0,0));
#1502=DIRECTION($,(0,0,1));
#1503=AXIS2_PLACEMENT_3D($,#1500,#1501,#1502);
#1504=PLANE($,#1503);
#1505=ORIENTED_EDGE($,$,$,#174,.T.);
#1506=CARTESIAN_POINT($,(65.9227350879785,580.353125265546,0));
#1507=DIRECTION($,(0,0,1));
#1508=VECTOR($,#1507,1);
#1509=LINE($,#1506,#1508);
#1510=EDGE_CURVE($,#169,#661,#1509,.T.);
#1511=ORIENTED_EDGE($,$,$,#1510,.T.);
#1512=ORIENTED_EDGE($,$,$,#666,.F.);
#1513=ORIENTED_EDGE($,$,$,#1493,.F.);
#1514=EDGE_LOOP($,(#1505,#1511,#1512,#1513));
#1515=FACE_OUTER_BOUND('',#1514,.T.);
#1516=ADVANCED_FACE('',(#1515),#1504,.T.);
#1517=CARTESIAN_POINT($,(65.9227350879785,580.353125265546,0));
#1518=DIRECTION($,(-1,0,0));
#1519=DIRECTION($,(0,0,1));
#1520=AXIS2_PLACEMENT_3D($,#1517,#1518,#1519);
#1521=PLANE($,#1520);
#1522=ORIENTED_EDGE($,$,$,#182,.T.);
#1523=CARTESIAN_POINT($,(65.9227350879785,531.33112526535,-0));
#1524=DIRECTION($,(0,0,1));
#1525=VECTOR($,#1524,1);
#1526=LINE($,#1523,#1525);
#1527=EDGE_CURVE($,#177,#669,#1526,.T.);
#1528=ORIENTED_EDGE($,$,$,#1527,.T.);
#1529=ORIENTED_EDGE($,$,$,#674,.F.);
#1530=ORIENTED_EDGE($,$,$,#1510,.F.);
#1531=EDGE_LOOP($,(#1522,#1528,#1529,#1530));
#1532=FACE_OUTER_BOUND('',#1531,.T.);
#1533=ADVANCED_FACE('',(#1532),#1521,.T.);
#1534=CARTESIAN_POINT($,(65.9227350879785,531.33112526535,0));
#1535=DIRECTION($,(-0.816455474622563,-0.577408397894285,0));
#1536=DIRECTION($,(0,0,1));
#1537=AXIS2_PLACEMENT_3D($,#1534,#1535,#1536);
#1538=PLANE($,#1537);
#1539=ORIENTED_EDGE($,$,$,#190,.T.);
#1540=CARTESIAN_POINT($,(74.8127350880135,518.7606652653,0));
#1541=DIRECTION($,(0,0,1));
#1542=VECTOR($,#1541,1);
#1543=LINE($,#1540,#1542);
#1544=EDGE_CURVE($,#185,#677,#1543,.T.);
#1545=ORIENTED_EDGE($,$,$,#1544,.T.);
#1546=ORIENTED_EDGE($,$,$,#682,.F.);
#1547=ORIENTED_EDGE($,$,$,#1527,.F.);
#1548=EDGE_LOOP($,(#1539,#1545,#1546,#1547));
#1549=FACE_OUTER_BOUND('',#1548,.T.);
#1550=ADVANCED_FACE('',(#1549),#1538,.T.);
#1551=CARTESIAN_POINT($,(74.8127350880135,518.7606652653,0));
#1552=DIRECTION($,(-1,0,0));
#1553=DIRECTION($,(0,0,1));
#1554=AXIS2_PLACEMENT_3D($,#1551,#1552,#1553);
#1555=PLANE($,#1554);
#1556=ORIENTED_EDGE($,$,$,#198,.T.);
#1557=CARTESIAN_POINT($,(74.8127350880135,507.287930177499,0));
#1558=DIRECTION($,(0,0,1));
#1559=VECTOR($,#1558,1);
#1560=LINE($,#1557,#1559);
#1561=EDGE_CURVE($,#193,#685,#1560,.T.);
#1562=ORIENTED_EDGE($,$,$,#1561,.T.);
#1563=ORIENTED_EDGE($,$,$,#690,.F.);
#1564=ORIENTED_EDGE($,$,$,#1544,.F.);
#1565=EDGE_LOOP($,(#1556,#1562,#1563,#1564));
#1566=FACE_OUTER_BOUND('',#1565,.T.);
#1567=ADVANCED_FACE('',(#1566),#1555,.T.);
#1568=CARTESIAN_POINT($,(74.8127350880135,507.287930177499,0));
#1569=DIRECTION($,(-0.209261958284804,0.977859618153244,0));
#1570=DIRECTION($,(0,0,1));
#1571=AXIS2_PLACEMENT_3D($,#1568,#1569,#1570);
#1572=PLANE($,#1571);
#1573=ORIENTED_EDGE($,$,$,#206,.T.);
#1574=CARTESIAN_POINT($,(65.9227350879787,505.385470177492,0));
#1575=DIRECTION($,(0,0,1));
#1576=VECTOR($,#1575,1);
#1577=LINE($,#1574,#1576);
#1578=EDGE_CURVE($,#201,#693,#1577,.T.);
#1579=ORIENTED_EDGE($,$,$,#1578,.T.);
#1580=ORIENTED_EDGE($,$,$,#698,.F.);
#1581=ORIENTED_EDGE($,$,$,#1561,.F.);
#1582=EDGE_LOOP($,(#1573,#1579,#1580,#1581));
#1583=FACE_OUTER_BOUND('',#1582,.T.);
#1584=ADVANCED_FACE('',(#1583),#1572,.T.);
#1585=CARTESIAN_POINT($,(65.9227350879785,505.385470177491,0));
#1586=DIRECTION($,(0,1,0));
#1587=DIRECTION($,(0,0,1));
#1588=AXIS2_PLACEMENT_3D($,#1585,#1586,#1587);
#1589=PLANE($,#1588);
#1590=ORIENTED_EDGE($,$,$,#214,.T.);
#1591=CARTESIAN_POINT($,(54.450000000178,505.385470177491,0));
#1592=DIRECTION($,(0,0,1));
#1593=VECTOR($,#1592,1);
#1594=LINE($,#1591,#1593);
#1595=EDGE_CURVE($,#209,#701,#1594,.T.);
#1596=ORIENTED_EDGE($,$,$,#1595,.T.);
#1597=ORIENTED_EDGE($,$,$,#706,.F.);
#1598=ORIENTED_EDGE($,$,$,#1578,.F.);
#1599=EDGE_LOOP($,(#1590,#1596,#1597,#1598));
#1600=FACE_OUTER_BOUND('',#1599,.T.);
#1601=ADVANCED_FACE('',(#1600),#1589,.T.);
#1602=CARTESIAN_POINT($,(54.450000000178,505.385470177491,0));
#1603=DIRECTION($,(0,1,0));
#1604=DIRECTION($,(0,0,1));
#1605=AXIS2_PLACEMENT_3D($,#1602,#1603,#1604);
#1606=PLANE($,#1605);
#1607=ORIENTED_EDGE($,$,$,#222,.T.);
#1608=CARTESIAN_POINT($,(35.400000000102,505.385470177491,-0));
#1609=DIRECTION($,(0,0,1));
#1610=VECTOR($,#1609,1);
#1611=LINE($,#1608,#1610);
#1612=EDGE_CURVE($,#217,#709,#1611,.T.);
#1613=ORIENTED_EDGE($,$,$,#1612,.T.);
#1614=ORIENTED_EDGE($,$,$,#714,.F.);
#1615=ORIENTED_EDGE($,$,$,#1595,.F.);
#1616=EDGE_LOOP($,(#1607,#1613,#1614,#1615));
#1617=FACE_OUTER_BOUND('',#1616,.T.);
#1618=ADVANCED_FACE('',(#1617),#1606,.T.);
#1619=CARTESIAN_POINT($,(35.400000000102,505.385470177491,0));
#1620=DIRECTION($,(-0.707106781186542,0.707106781186553,0));
#1621=DIRECTION($,(0,0,1));
#1622=AXIS2_PLACEMENT_3D($,#1619,#1620,#1621);
#1623=PLANE($,#1622);
#1624=ORIENTED_EDGE($,$,$,#230,.T.);
#1625=CARTESIAN_POINT($,(10,479.98547017739,-0));
#1626=DIRECTION($,(0,0,1));
#1627=VECTOR($,#1626,1);
#1628=LINE($,#1625,#1627);
#1629=EDGE_CURVE($,#225,#717,#1628,.T.);
#1630=ORIENTED_EDGE($,$,$,#1629,.T.);
#1631=ORIENTED_EDGE($,$,$,#722,.F.);
#1632=ORIENTED_EDGE($,$,$,#1612,.F.);
#1633=EDGE_LOOP($,(#1624,#1630,#1631,#1632));
#1634=FACE_OUTER_BOUND('',#1633,.T.);
#1635=ADVANCED_FACE('',(#1634),#1623,.T.);
#1636=CARTESIAN_POINT($,(10,479.98547017739,0));
#1637=DIRECTION($,(-1,0,0));
#1638=DIRECTION($,(0,0,1));
#1639=AXIS2_PLACEMENT_3D($,#1636,#1637,#1638);
#1640=PLANE($,#1639);
#1641=ORIENTED_EDGE($,$,$,#238,.T.);
#1642=CARTESIAN_POINT($,(10,165.320110176131,-0));
#1643=DIRECTION($,(0,0,1));
#1644=VECTOR($,#1643,1);
#1645=LINE($,#1642,#1644);
#1646=EDGE_CURVE($,#233,#725,#1645,.T.);
#1647=ORIENTED_EDGE($,$,$,#1646,.T.);
#1648=ORIENTED_EDGE($,$,$,#730,.F.);
#1649=ORIENTED_EDGE($,$,$,#1629,.F.);
#1650=EDGE_LOOP($,(#1641,#1647,#1648,#1649));
#1651=FACE_OUTER_BOUND('',#1650,.T.);
#1652=ADVANCED_FACE('',(#1651),#1640,.T.);
#1653=CARTESIAN_POINT($,(10,165.320110176131,0));
#1654=DIRECTION($,(-0.707106781186547,-0.707106781186547,0));
#1655=DIRECTION($,(0,0,1));
#1656=AXIS2_PLACEMENT_3D($,#1653,#1654,#1655);
#1657=PLANE($,#1656);
#1658=ORIENTED_EDGE($,$,$,#246,.T.);
#1659=CARTESIAN_POINT($,(35.400000000102,139.920110176029,-0));
#1660=DIRECTION($,(0,0,1));
#1661=VECTOR($,#1660,1);
#1662=LINE($,#1659,#1661);
#1663=EDGE_CURVE($,#241,#733,#1662,.T.);
#1664=ORIENTED_EDGE($,$,$,#1663,.T.);
#1665=ORIENTED_EDGE($,$,$,#738,.F.);
#1666=ORIENTED_EDGE($,$,$,#1646,.F.);
#1667=EDGE_LOOP($,(#1658,#1664,#1665,#1666));
#1668=FACE_OUTER_BOUND('',#1667,.T.);
#1669=ADVANCED_FACE('',(#1668),#1657,.T.);
#1670=CARTESIAN_POINT($,(35.400000000102,139.920110176029,0));
#1671=DIRECTION($,(0,-1,0));
#1672=DIRECTION($,(0,0,1));
#1673=AXIS2_PLACEMENT_3D($,#1670,#1671,#1672);
#1674=PLANE($,#1673);
#1675=ORIENTED_EDGE($,$,$,#254,.T.);
#1676=CARTESIAN_POINT($,(54.450000000178,139.920110176029,0));
#1677=DIRECTION($,(0,0,1));
#1678=VECTOR($,#1677,1);
#1679=LINE($,#1676,#1678);
#1680=EDGE_CURVE($,#249,#741,#1679,.T.);
#1681=ORIENTED_EDGE($,$,$,#1680,.T.);
#1682=ORIENTED_EDGE($,$,$,#746,.F.);
#1683=ORIENTED_EDGE($,$,$,#1663,.F.);
#1684=EDGE_LOOP($,(#1675,#1681,#1682,#1683));
#1685=FACE_OUTER_BOUND('',#1684,.T.);
#1686=ADVANCED_FACE('',(#1685),#1674,.T.);
#1687=CARTESIAN_POINT($,(54.450000000178,139.920110176029,0));
#1688=DIRECTION($,(0,-1,0));
#1689=DIRECTION($,(0,0,1));
#1690=AXIS2_PLACEMENT_3D($,#1687,#1688,#1689);
#1691=PLANE($,#1690);
#1692=ORIENTED_EDGE($,$,$,#262,.T.);
#1693=CARTESIAN_POINT($,(65.922735087978,139.920110176029,0));
#1694=DIRECTION($,(0,0,1));
#1695=VECTOR($,#1694,1);
#1696=LINE($,#1693,#1695);
#1697=EDGE_CURVE($,#257,#749,#1696,.T.);
#1698=ORIENTED_EDGE($,$,$,#1697,.T.);
#1699=ORIENTED_EDGE($,$,$,#754,.F.);
#1700=ORIENTED_EDGE($,$,$,#1680,.F.);
#1701=EDGE_LOOP($,(#1692,#1698,#1699,#1700));
#1702=FACE_OUTER_BOUND('',#1701,.T.);
#1703=ADVANCED_FACE('',(#1702),#1691,.T.);
#1704=CARTESIAN_POINT($,(65.9227350879785,139.920110176029,0));
#1705=DIRECTION($,(-0.104285400090474,-0.994547412307714,0));
#1706=DIRECTION($,(0,0,1));
#1707=AXIS2_PLACEMENT_3D($,#1704,#1705,#1706);
#1708=PLANE($,#1707);
#1709=ORIENTED_EDGE($,$,$,#270,.T.);
#1710=CARTESIAN_POINT($,(74.8127350880135,138.987930176026,0));
#1711=DIRECTION($,(0,0,1));
#1712=VECTOR($,#1711,1);
#1713=LINE($,#1710,#1712);
#1714=EDGE_CURVE($,#265,#757,#1713,.T.);
#1715=ORIENTED_EDGE($,$,$,#1714,.T.);
#1716=ORIENTED_EDGE($,$,$,#762,.F.);
#1717=ORIENTED_EDGE($,$,$,#1697,.F.);
#1718=EDGE_LOOP($,(#1709,#1715,#1716,#1717));
#1719=FACE_OUTER_BOUND('',#1718,.T.);
#1720=ADVANCED_FACE('',(#1719),#1708,.T.);
#1721=CARTESIAN_POINT($,(74.8127350880135,138.987930176025,0));
#1722=DIRECTION($,(-1,0,0));
#1723=DIRECTION($,(0,0,1));
#1724=AXIS2_PLACEMENT_3D($,#1721,#1722,#1723);
#1725=PLANE($,#1724);
#1726=ORIENTED_EDGE($,$,$,#278,.T.);
#1727=CARTESIAN_POINT($,(74.8127350880135,127.515195088225,0));
#1728=DIRECTION($,(0,0,1));
#1729=VECTOR($,#1728,1);
#1730=LINE($,#1727,#1729);
#1731=EDGE_CURVE($,#273,#765,#1730,.T.);
#1732=ORIENTED_EDGE($,$,$,#1731,.T.);
#1733=ORIENTED_EDGE($,$,$,#770,.F.);
#1734=ORIENTED_EDGE($,$,$,#1714,.F.);
#1735=EDGE_LOOP($,(#1726,#1732,#1733,#1734));
#1736=FACE_OUTER_BOUND('',#1735,.T.);
#1737=ADVANCED_FACE('',(#1736),#1725,.T.);
#1738=CARTESIAN_POINT($,(74.8127350880135,127.515195088225,0));
#1739=DIRECTION($,(-0.816455474622559,0.577408397894291,0));
#1740=DIRECTION($,(0,0,1));
#1741=AXIS2_PLACEMENT_3D($,#1738,#1739,#1740);
#1742=PLANE($,#1741);
#1743=ORIENTED_EDGE($,$,$,#286,.T.);
#1744=CARTESIAN_POINT($,(65.9227350879785,114.944735088175,-0));
#1745=DIRECTION($,(0,0,1));
#1746=VECTOR($,#1745,1);
#1747=LINE($,#1744,#1746);
#1748=EDGE_CURVE($,#281,#773,#1747,.T.);
#1749=ORIENTED_EDGE($,$,$,#1748,.T.);
#1750=ORIENTED_EDGE($,$,$,#778,.F.);
#1751=ORIENTED_EDGE($,$,$,#1731,.F.);
#1752=EDGE_LOOP($,(#1743,#1749,#1750,#1751));
#1753=FACE_OUTER_BOUND('',#1752,.T.);
#1754=ADVANCED_FACE('',(#1753),#1742,.T.);
#1755=CARTESIAN_POINT($,(65.9227350879785,114.944735088175,0));
#1756=DIRECTION($,(-1,0,0));
#1757=DIRECTION($,(0,0,1));
#1758=AXIS2_PLACEMENT_3D($,#1755,#1756,#1757);
#1759=PLANE($,#1758);
#1760=ORIENTED_EDGE($,$,$,#294,.T.);
#1761=CARTESIAN_POINT($,(65.9227350879785,65.9227350879786,0));
#1762=DIRECTION($,(0,0,1));
#1763=VECTOR($,#1762,1);
#1764=LINE($,#1761,#1763);
#1765=EDGE_CURVE($,#289,#781,#1764,.T.);
#1766=ORIENTED_EDGE($,$,$,#1765,.T.);
#1767=ORIENTED_EDGE($,$,$,#786,.F.);
#1768=ORIENTED_EDGE($,$,$,#1748,.F.);
#1769=EDGE_LOOP($,(#1760,#1766,#1767,#1768));
#1770=FACE_OUTER_BOUND('',#1769,.T.);
#1771=ADVANCED_FACE('',(#1770),#1759,.T.);
#1772=CARTESIAN_POINT($,(65.9227350879785,65.9227350879786,0));
#1773=DIRECTION($,(-1,0,0));
#1774=DIRECTION($,(0,0,1));
#1775=AXIS2_PLACEMENT_3D($,#1772,#1773,#1774);
#1776=PLANE($,#1775);
#1777=ORIENTED_EDGE($,$,$,#302,.T.);
#1778=CARTESIAN_POINT($,(65.9227350879785,54.450000000178,0));
#1779=DIRECTION($,(0,0,1));
#1780=VECTOR($,#1779,1);
#1781=LINE($,#1778,#1780);
#1782=EDGE_CURVE($,#297,#789,#1781,.T.);
#1783=ORIENTED_EDGE($,$,$,#1782,.T.);
#1784=ORIENTED_EDGE($,$,$,#794,.F.);
#1785=ORIENTED_EDGE($,$,$,#1765,.F.);
#1786=EDGE_LOOP($,(#1777,#1783,#1784,#1785));
#1787=FACE_OUTER_BOUND('',#1786,.T.);
#1788=ADVANCED_FACE('',(#1787),#1776,.T.);
#1789=CARTESIAN_POINT($,(65.9227350879785,54.450000000178,0));
#1790=DIRECTION($,(-1,0,0));
#1791=DIRECTION($,(0,0,1));
#1792=AXIS2_PLACEMENT_3D($,#1789,#1790,#1791);
#1793=PLANE($,#1792);
#1794=ORIENTED_EDGE($,$,$,#310,.T.);
#1795=CARTESIAN_POINT($,(65.9227350879785,22.700000000051,-0));
#1796=DIRECTION($,(0,0,1));
#1797=VECTOR($,#1796,1);
#1798=LINE($,#1795,#1797);
#1799=EDGE_CURVE($,#305,#797,#1798,.T.);
#1800=ORIENTED_EDGE($,$,$,#1799,.T.);
#1801=ORIENTED_EDGE($,$,$,#802,.F.);
#1802=ORIENTED_EDGE($,$,$,#1782,.F.);
#1803=EDGE_LOOP($,(#1794,#1800,#1801,#1802));
#1804=FACE_OUTER_BOUND('',#1803,.T.);
#1805=ADVANCED_FACE('',(#1804),#1793,.T.);
#1806=CARTESIAN_POINT($,(65.9227350879785,22.700000000051,0));
#1807=DIRECTION($,(-0.707106781186547,-0.707106781186548,0));
#1808=DIRECTION($,(0,0,1));
#1809=AXIS2_PLACEMENT_3D($,#1806,#1807,#1808);
#1810=PLANE($,#1809);
#1811=ORIENTED_EDGE($,$,$,#318,.T.);
#1812=CARTESIAN_POINT($,(78.6227350880295,10,-0));
#1813=DIRECTION($,(0,0,1));
#1814=VECTOR($,#1813,1);
#1815=LINE($,#1812,#1814);
#1816=EDGE_CURVE($,#313,#805,#1815,.T.);
#1817=ORIENTED_EDGE($,$,$,#1816,.T.);
#1818=ORIENTED_EDGE($,$,$,#810,.F.);
#1819=ORIENTED_EDGE($,$,$,#1799,.F.);
#1820=EDGE_LOOP($,(#1811,#1817,#1818,#1819));
#1821=FACE_OUTER_BOUND('',#1820,.T.);
#1822=ADVANCED_FACE('',(#1821),#1810,.T.);
#1823=CARTESIAN_POINT($,(78.6227350880295,10,0));
#1824=DIRECTION($,(0,-1,0));
#1825=DIRECTION($,(0,0,1));
#1826=AXIS2_PLACEMENT_3D($,#1823,#1824,#1825);
#1827=PLANE($,#1826);
#1828=ORIENTED_EDGE($,$,$,#326,.T.);
#1829=CARTESIAN_POINT($,(294.522735088893,10,-0));
#1830=DIRECTION($,(0,0,1));
#1831=VECTOR($,#1830,1);
#1832=LINE($,#1829,#1831);
#1833=EDGE_CURVE($,#321,#813,#1832,.T.);
#1834=ORIENTED_EDGE($,$,$,#1833,.T.);
#1835=ORIENTED_EDGE($,$,$,#818,.F.);
#1836=ORIENTED_EDGE($,$,$,#1816,.F.);
#1837=EDGE_LOOP($,(#1828,#1834,#1835,#1836));
#1838=FACE_OUTER_BOUND('',#1837,.T.);
#1839=ADVANCED_FACE('',(#1838),#1827,.T.);
#1840=CARTESIAN_POINT($,(294.522735088893,10,0));
#1841=DIRECTION($,(0.707106781186552,-0.707106781186543,0));
#1842=DIRECTION($,(0,0,1));
#1843=AXIS2_PLACEMENT_3D($,#1840,#1841,#1842);
#1844=PLANE($,#1843);
#1845=ORIENTED_EDGE($,$,$,#334,.T.);
#1846=CARTESIAN_POINT($,(307.222735088944,22.700000000051,-0));
#1847=DIRECTION($,(0,0,1));
#1848=VECTOR($,#1847,1);
#1849=LINE($,#1846,#1848);
#1850=EDGE_CURVE($,#329,#821,#1849,.T.);
#1851=ORIENTED_EDGE($,$,$,#1850,.T.);
#1852=ORIENTED_EDGE($,$,$,#826,.F.);
#1853=ORIENTED_EDGE($,$,$,#1833,.F.);
#1854=EDGE_LOOP($,(#1845,#1851,#1852,#1853));
#1855=FACE_OUTER_BOUND('',#1854,.T.);
#1856=ADVANCED_FACE('',(#1855),#1844,.T.);
#1857=CARTESIAN_POINT($,(307.222735088944,22.700000000051,0));
#1858=DIRECTION($,(1,0,0));
#1859=DIRECTION($,(0,0,1));
#1860=AXIS2_PLACEMENT_3D($,#1857,#1858,#1859);
#1861=PLANE($,#1860);
#1862=ORIENTED_EDGE($,$,$,#342,.T.);
#1863=ORIENTED_EDGE($,$,$,#1002,.T.);
#1864=ORIENTED_EDGE($,$,$,#834,.F.);
#1865=ORIENTED_EDGE($,$,$,#1850,.F.);
#1866=EDGE_LOOP($,(#1862,#1863,#1864,#1865));
#1867=FACE_OUTER_BOUND('',#1866,.T.);
#1868=ADVANCED_FACE('',(#1867),#1861,.T.);
#1869=CARTESIAN_POINT($,(190.230335088476,354.402790176887,0));
#1870=DIRECTION($,(-1,0,0));
#1871=DIRECTION($,(0,0,1));
#1872=AXIS2_PLACEMENT_3D($,#1869,#1870,#1871);
#1873=PLANE($,#1872);
#1874=ORIENTED_EDGE($,$,$,#454,.T.);
#1875=CARTESIAN_POINT($,(190.230335088476,443.302790177243,-0));
#1876=DIRECTION($,(0,0,1));
#1877=VECTOR($,#1876,1);
#1878=LINE($,#1875,#1877);
#1879=EDGE_CURVE($,#443,#935,#1878,.T.);
#1880=ORIENTED_EDGE($,$,$,#1879,.T.);
#1881=ORIENTED_EDGE($,$,$,#946,.F.);
#1882=CARTESIAN_POINT($,(190.230335088476,354.402790176887,0));
#1883=DIRECTION($,(0,0,1));
#1884=VECTOR($,#1883,1);
#1885=LINE($,#1882,#1884);
#1886=EDGE_CURVE($,#427,#919,#1885,.T.);
#1887=ORIENTED_EDGE($,$,$,#1886,.F.);
#1888=EDGE_LOOP($,(#1874,#1880,#1881,#1887));
#1889=FACE_OUTER_BOUND('',#1888,.T.);
#1890=ADVANCED_FACE('',(#1889),#1873,.T.);
#1891=CARTESIAN_POINT($,(190.230335088476,443.302790177243,0));
#1892=DIRECTION($,(0,-1,0));
#1893=DIRECTION($,(0,0,1));
#1894=AXIS2_PLACEMENT_3D($,#1891,#1892,#1893);
#1895=PLANE($,#1894);
#1896=ORIENTED_EDGE($,$,$,#448,.T.);
#1897=CARTESIAN_POINT($,(171.1803350884,443.302790177243,-0));
#1898=DIRECTION($,(0,0,1));
#1899=VECTOR($,#1898,1);
#1900=LINE($,#1897,#1899);
#1901=EDGE_CURVE($,#435,#927,#1900,.T.);
#1902=ORIENTED_EDGE($,$,$,#1901,.T.);
#1903=ORIENTED_EDGE($,$,$,#940,.F.);
#1904=ORIENTED_EDGE($,$,$,#1879,.F.);
#1905=EDGE_LOOP($,(#1896,#1902,#1903,#1904));
#1906=FACE_OUTER_BOUND('',#1905,.T.);
#1907=ADVANCED_FACE('',(#1906),#1895,.T.);
#1908=CARTESIAN_POINT($,(171.1803350884,443.302790177243,0));
#1909=DIRECTION($,(1,0,0));
#1910=DIRECTION($,(0,0,1));
#1911=AXIS2_PLACEMENT_3D($,#1908,#1909,#1910);
#1912=PLANE($,#1911);
#1913=ORIENTED_EDGE($,$,$,#440,.T.);
#1914=CARTESIAN_POINT($,(171.1803350884,354.402790176887,-0));
#1915=DIRECTION($,(0,0,1));
#1916=VECTOR($,#1915,1);
#1917=LINE($,#1914,#1916);
#1918=EDGE_CURVE($,#425,#917,#1917,.T.);
#1919=ORIENTED_EDGE($,$,$,#1918,.T.);
#1920=ORIENTED_EDGE($,$,$,#932,.F.);
#1921=ORIENTED_EDGE($,$,$,#1901,.F.);
#1922=EDGE_LOOP($,(#1913,#1919,#1920,#1921));
#1923=FACE_OUTER_BOUND('',#1922,.T.);
#1924=ADVANCED_FACE('',(#1923),#1912,.T.);
#1925=CARTESIAN_POINT($,(171.1803350884,354.402790176887,0));
#1926=DIRECTION($,(0,1,0));
#1927=DIRECTION($,(0,0,1));
#1928=AXIS2_PLACEMENT_3D($,#1925,#1926,#1927);
#1929=PLANE($,#1928);
#1930=ORIENTED_EDGE($,$,$,#432,.T.);
#1931=ORIENTED_EDGE($,$,$,#1886,.T.);
#1932=ORIENTED_EDGE($,$,$,#924,.F.);
#1933=ORIENTED_EDGE($,$,$,#1918,.F.);
#1934=EDGE_LOOP($,(#1930,#1931,#1932,#1933));
#1935=FACE_OUTER_BOUND('',#1934,.T.);
#1936=ADVANCED_FACE('',(#1935),#1929,.T.);
#1937=CARTESIAN_POINT($,(126.730335088222,354.402790176887,0));
#1938=DIRECTION($,(-1,0,0));
#1939=DIRECTION($,(0,0,1));
#1940=AXIS2_PLACEMENT_3D($,#1937,#1938,#1939);
#1941=PLANE($,#1940);
#1942=ORIENTED_EDGE($,$,$,#488,.T.);
#1943=CARTESIAN_POINT($,(126.730335088222,443.302790177243,-0));
#1944=DIRECTION($,(0,0,1));
#1945=VECTOR($,#1944,1);
#1946=LINE($,#1943,#1945);
#1947=EDGE_CURVE($,#477,#969,#1946,.T.);
#1948=ORIENTED_EDGE($,$,$,#1947,.T.);
#1949=ORIENTED_EDGE($,$,$,#980,.F.);
#1950=CARTESIAN_POINT($,(126.730335088222,354.402790176887,0));
#1951=DIRECTION($,(0,0,1));
#1952=VECTOR($,#1951,1);
#1953=LINE($,#1950,#1952);
#1954=EDGE_CURVE($,#461,#953,#1953,.T.);
#1955=ORIENTED_EDGE($,$,$,#1954,.F.);
#1956=EDGE_LOOP($,(#1942,#1948,#1949,#1955));
#1957=FACE_OUTER_BOUND('',#1956,.T.);
#1958=ADVANCED_FACE('',(#1957),#1941,.T.);
#1959=CARTESIAN_POINT($,(126.730335088222,443.302790177243,0));
#1960=DIRECTION($,(0,-1,0));
#1961=DIRECTION($,(0,0,1));
#1962=AXIS2_PLACEMENT_3D($,#1959,#1960,#1961);
#1963=PLANE($,#1962);
#1964=ORIENTED_EDGE($,$,$,#482,.T.);
#1965=CARTESIAN_POINT($,(107.680335088146,443.302790177243,-0));
#1966=DIRECTION($,(0,0,1));
#1967=VECTOR($,#1966,1);
#1968=LINE($,#1965,#1967);
#1969=EDGE_CURVE($,#469,#961,#1968,.T.);
#1970=ORIENTED_EDGE($,$,$,#1969,.T.);
#1971=ORIENTED_EDGE($,$,$,#974,.F.);
#1972=ORIENTED_EDGE($,$,$,#1947,.F.);
#1973=EDGE_LOOP($,(#1964,#1970,#1971,#1972));
#1974=FACE_OUTER_BOUND('',#1973,.T.);
#1975=ADVANCED_FACE('',(#1974),#1963,.T.);
#1976=CARTESIAN_POINT($,(107.680335088146,443.302790177243,0));
#1977=DIRECTION($,(1,0,0));
#1978=DIRECTION($,(0,0,1));
#1979=AXIS2_PLACEMENT_3D($,#1976,#1977,#1978);
#1980=PLANE($,#1979);
#1981=ORIENTED_EDGE($,$,$,#474,.T.);
#1982=CARTESIAN_POINT($,(107.680335088146,354.402790176887,-0));
#1983=DIRECTION($,(0,0,1));
#1984=VECTOR($,#1983,1);
#1985=LINE($,#1982,#1984);
#1986=EDGE_CURVE($,#459,#951,#1985,.T.);
#1987=ORIENTED_EDGE($,$,$,#1986,.T.);
#1988=ORIENTED_EDGE($,$,$,#966,.F.);
#1989=ORIENTED_EDGE($,$,$,#1969,.F.);
#1990=EDGE_LOOP($,(#1981,#1987,#1988,#1989));
#1991=FACE_OUTER_BOUND('',#1990,.T.);
#1992=ADVANCED_FACE('',(#1991),#1980,.T.);
#1993=CARTESIAN_POINT($,(107.680335088146,354.402790176887,0));
#1994=DIRECTION($,(0,1,0));
#1995=DIRECTION($,(0,0,1));
#1996=AXIS2_PLACEMENT_3D($,#1993,#1994,#1995);
#1997=PLANE($,#1996);
#1998=ORIENTED_EDGE($,$,$,#466,.T.);
#1999=ORIENTED_EDGE($,$,$,#1954,.T.);
#2000=ORIENTED_EDGE($,$,$,#958,.F.);
#2001=ORIENTED_EDGE($,$,$,#1986,.F.);
#2002=EDGE_LOOP($,(#1998,#1999,#2000,#2001));
#2003=FACE_OUTER_BOUND('',#2002,.T.);
#2004=ADVANCED_FACE('',(#2003),#1997,.T.);
#2005=CLOSED_SHELL($,(#492,#984,#1006,#1023,#1040,#1057,#1074,#1091,#1108,#1125,#1142,#1159,#1176,#1193,#1210,#1227,#1244,#1261,#1278,#1295,#1312,#1329,#1346,#1363,#1380,#1397,#1414,#1431,#1448,#1465,#1482,#1499,#1516,#1533,#1550,#1567,#1584,#1601,#1618,#1635,#1652,#1669,#1686,#1703,#1720,#1737,#1754,#1771,#1788,#1805,#1822,#1839,#1856,#1868,#1890,#1907,#1924,#1936,#1958,#1975,#1992,#2004));
#2006=MANIFOLD_SOLID_BREP('sheetmetal-import-2979c3b6e9cf464c flat pattern',#2005);
#2007=APPLICATION_CONTEXT('mechanical design');
#2008=PRODUCT_CONTEXT('',#2007,'mechanical');
#2009=PRODUCT('sheetmetal_import_2979c3b6e9cf464c_flat','sheetmetal-import-2979c3b6e9cf464c flat pattern','',(#2008));
#2010=PRODUCT_DEFINITION_FORMATION('','',#2009);
#2011=PRODUCT_DEFINITION_CONTEXT('design',#2007,'design');
#2012=PRODUCT_DEFINITION('','',#2010,#2011);
#2013=PRODUCT_DEFINITION_SHAPE('','',#2012);
#2014=(LENGTH_UNIT()NAMED_UNIT(*)SI_UNIT(.MILLI.,.METRE.));
#2015=(NAMED_UNIT(*)PLANE_ANGLE_UNIT()SI_UNIT($,.RADIAN.));
#2016=(NAMED_UNIT(*)SI_UNIT($,.STERADIAN.)SOLID_ANGLE_UNIT());
#2017=(GEOMETRIC_REPRESENTATION_CONTEXT(3)GLOBAL_UNIT_ASSIGNED_CONTEXT((#2014,#2015,#2016))REPRESENTATION_CONTEXT('3','3D'));
#2018=SHAPE_REPRESENTATION('sheetmetal-import-2979c3b6e9cf464c flat pattern',(#2006),#2017);
#2019=SHAPE_DEFINITION_REPRESENTATION(#2013,#2018);
ENDSEC;
END-ISO-10303-21;
