ISO-10303-21;
HEADER;
FILE_DESCRIPTION(('Aetheris AP242 subset export'),'2;1');
FILE_NAME('aetheris_export.step','1970-01-01T00:00:00',('Aetheris'),('Aetheris'),'Aetheris.Kernel','Aetheris.Kernel','');
FILE_SCHEMA(('AP242_MANAGED_MODEL_BASED_3D_ENGINEERING_MIM_LF'));
ENDSEC;
DATA;
#1=CARTESIAN_POINT($,(-35,-20,0));
#2=CARTESIAN_POINT($,(-35,20,0));
#3=CARTESIAN_POINT($,(-32.8125,-20,0));
#4=CARTESIAN_POINT($,(-34.8314654335269,20,-3.43059991153462));
#5=CARTESIAN_POINT($,(-30.625,-20,0));
#6=CARTESIAN_POINT($,(-34.3274848141131,20,-6.82816127056449));
#7=CARTESIAN_POINT($,(-28.4375,-20,0));
#8=CARTESIAN_POINT($,(-33.4929117506273,20,-10.1599637039062));
#9=CARTESIAN_POINT($,(-26.25,-20,0));
#10=CARTESIAN_POINT($,(-32.335783637895,20,-13.3939201327781));
#11=CARTESIAN_POINT($,(-24.0625,-20,0));
#12=CARTESIAN_POINT($,(-30.8672442521924,20,-16.4988857889099));
#13=CARTESIAN_POINT($,(-21.875,-20,0));
#14=CARTESIAN_POINT($,(-29.1014364305891,20,-19.4449581556861));
#15=CARTESIAN_POINT($,(-19.6875,-20,0));
#16=CARTESIAN_POINT($,(-27.0553658676958,20,-22.2037649457276));
#17=CARTESIAN_POINT($,(-17.5,-20,0));
#18=CARTESIAN_POINT($,(-24.7487373415292,20,-24.7487373415292));
#19=CARTESIAN_POINT($,(-15.3125,-20,0));
#20=CARTESIAN_POINT($,(-22.2037649457276,20,-27.0553658676958));
#21=CARTESIAN_POINT($,(-13.125,-20,0));
#22=CARTESIAN_POINT($,(-19.4449581556861,20,-29.1014364305891));
#23=CARTESIAN_POINT($,(-10.9375,-20,0));
#24=CARTESIAN_POINT($,(-16.4988857889099,20,-30.8672442521924));
#25=CARTESIAN_POINT($,(-8.75,-20,0));
#26=CARTESIAN_POINT($,(-13.3939201327781,20,-32.335783637895));
#27=CARTESIAN_POINT($,(-6.5625,-20,0));
#28=CARTESIAN_POINT($,(-10.1599637039062,20,-33.4929117506273));
#29=CARTESIAN_POINT($,(-4.375,-20,0));
#30=CARTESIAN_POINT($,(-6.82816127056449,20,-34.3274848141131));
#31=CARTESIAN_POINT($,(-2.1875,-20,0));
#32=CARTESIAN_POINT($,(-3.43059991153463,20,-34.8314654335269));
#33=CARTESIAN_POINT($,(0,-20,0));
#34=CARTESIAN_POINT($,(-0.000000000000002,20,-35));
#35=CARTESIAN_POINT($,(2.1875,-20,0));
#36=CARTESIAN_POINT($,(3.43059991153462,20,-34.8314654335269));
#37=CARTESIAN_POINT($,(4.375,-20,0));
#38=CARTESIAN_POINT($,(6.82816127056449,20,-34.3274848141131));
#39=CARTESIAN_POINT($,(6.5625,-20,0));
#40=CARTESIAN_POINT($,(10.1599637039062,20,-33.4929117506273));
#41=CARTESIAN_POINT($,(8.75,-20,0));
#42=CARTESIAN_POINT($,(13.3939201327781,20,-32.335783637895));
#43=CARTESIAN_POINT($,(10.9375,-20,0));
#44=CARTESIAN_POINT($,(16.4988857889099,20,-30.8672442521924));
#45=CARTESIAN_POINT($,(13.125,-20,0));
#46=CARTESIAN_POINT($,(19.4449581556861,20,-29.1014364305891));
#47=CARTESIAN_POINT($,(15.3125,-20,0));
#48=CARTESIAN_POINT($,(22.2037649457276,20,-27.0553658676958));
#49=CARTESIAN_POINT($,(17.5,-20,0));
#50=CARTESIAN_POINT($,(24.7487373415292,20,-24.7487373415292));
#51=CARTESIAN_POINT($,(19.6875,-20,0));
#52=CARTESIAN_POINT($,(27.0553658676958,20,-22.2037649457276));
#53=CARTESIAN_POINT($,(21.875,-20,0));
#54=CARTESIAN_POINT($,(29.1014364305891,20,-19.4449581556861));
#55=CARTESIAN_POINT($,(24.0625,-20,0));
#56=CARTESIAN_POINT($,(30.8672442521924,20,-16.4988857889099));
#57=CARTESIAN_POINT($,(26.25,-20,0));
#58=CARTESIAN_POINT($,(32.335783637895,20,-13.3939201327781));
#59=CARTESIAN_POINT($,(28.4375,-20,0));
#60=CARTESIAN_POINT($,(33.4929117506273,20,-10.1599637039062));
#61=CARTESIAN_POINT($,(30.625,-20,0));
#62=CARTESIAN_POINT($,(34.3274848141131,20,-6.8281612705645));
#63=CARTESIAN_POINT($,(32.8125,-20,0));
#64=CARTESIAN_POINT($,(34.8314654335269,20,-3.43059991153463));
#65=CARTESIAN_POINT($,(35,-20,0));
#66=CARTESIAN_POINT($,(35,20,-0.000000000000004));
#67=B_SPLINE_SURFACE_WITH_KNOTS($,1,1,((#1,#2),(#3,#4),(#5,#6),(#7,#8),(#9,#10),(#11,#12),(#13,#14),(#15,#16),(#17,#18),(#19,#20),(#21,#22),(#23,#24),(#25,#26),(#27,#28),(#29,#30),(#31,#32),(#33,#34),(#35,#36),(#37,#38),(#39,#40),(#41,#42),(#43,#44),(#45,#46),(#47,#48),(#49,#50),(#51,#52),(#53,#54),(#55,#56),(#57,#58),(#59,#60),(#61,#62),(#63,#64),(#65,#66)),.RULED_SURFACE.,.F.,.F.,.F.,(2,1,1,1,1,1,1,1,1,1,1,1,1,1,1,1,1,1,1,1,1,1,1,1,1,1,1,1,1,1,1,1,2),(2,2),(0,0.03125,0.0625,0.09375,0.125,0.15625,0.1875,0.21875,0.25,0.28125,0.3125,0.34375,0.375,0.40625,0.4375,0.46875,0.5,0.53125,0.5625,0.59375,0.625,0.65625,0.6875,0.71875,0.75,0.78125,0.8125,0.84375,0.875,0.90625,0.9375,0.96875,1),(0,1),.UNSPECIFIED.);
#68=CARTESIAN_POINT($,(-35,-20,0));
#69=VERTEX_POINT($,#68);
#70=CARTESIAN_POINT($,(35,-20,0));
#71=VERTEX_POINT($,#70);
#72=CARTESIAN_POINT($,(-35,-20,0));
#73=CARTESIAN_POINT($,(-32.8125,-20,0));
#74=CARTESIAN_POINT($,(-30.625,-20,0));
#75=CARTESIAN_POINT($,(-28.4375,-20,0));
#76=CARTESIAN_POINT($,(-26.25,-20,0));
#77=CARTESIAN_POINT($,(-24.0625,-20,0));
#78=CARTESIAN_POINT($,(-21.875,-20,0));
#79=CARTESIAN_POINT($,(-19.6875,-20,0));
#80=CARTESIAN_POINT($,(-17.5,-20,0));
#81=CARTESIAN_POINT($,(-15.3125,-20,0));
#82=CARTESIAN_POINT($,(-13.125,-20,0));
#83=CARTESIAN_POINT($,(-10.9375,-20,0));
#84=CARTESIAN_POINT($,(-8.75,-20,0));
#85=CARTESIAN_POINT($,(-6.5625,-20,0));
#86=CARTESIAN_POINT($,(-4.375,-20,0));
#87=CARTESIAN_POINT($,(-2.1875,-20,0));
#88=CARTESIAN_POINT($,(0,-20,0));
#89=CARTESIAN_POINT($,(2.1875,-20,0));
#90=CARTESIAN_POINT($,(4.375,-20,0));
#91=CARTESIAN_POINT($,(6.5625,-20,0));
#92=CARTESIAN_POINT($,(8.75,-20,0));
#93=CARTESIAN_POINT($,(10.9375,-20,0));
#94=CARTESIAN_POINT($,(13.125,-20,0));
#95=CARTESIAN_POINT($,(15.3125,-20,0));
#96=CARTESIAN_POINT($,(17.5,-20,0));
#97=CARTESIAN_POINT($,(19.6875,-20,0));
#98=CARTESIAN_POINT($,(21.875,-20,0));
#99=CARTESIAN_POINT($,(24.0625,-20,0));
#100=CARTESIAN_POINT($,(26.25,-20,0));
#101=CARTESIAN_POINT($,(28.4375,-20,0));
#102=CARTESIAN_POINT($,(30.625,-20,0));
#103=CARTESIAN_POINT($,(32.8125,-20,0));
#104=CARTESIAN_POINT($,(35,-20,0));
#105=B_SPLINE_CURVE_WITH_KNOTS($,1,(#72,#73,#74,#75,#76,#77,#78,#79,#80,#81,#82,#83,#84,#85,#86,#87,#88,#89,#90,#91,#92,#93,#94,#95,#96,#97,#98,#99,#100,#101,#102,#103,#104),.UNSPECIFIED.,.F.,.F.,(2,1,1,1,1,1,1,1,1,1,1,1,1,1,1,1,1,1,1,1,1,1,1,1,1,1,1,1,1,1,1,1,2),(0,0.03125,0.0625,0.09375,0.125,0.15625,0.1875,0.21875,0.25,0.28125,0.3125,0.34375,0.375,0.40625,0.4375,0.46875,0.5,0.53125,0.5625,0.59375,0.625,0.65625,0.6875,0.71875,0.75,0.78125,0.8125,0.84375,0.875,0.90625,0.9375,0.96875,1),.UNSPECIFIED.);
#106=EDGE_CURVE($,#69,#71,#105,.T.);
#107=ORIENTED_EDGE($,$,$,#106,.T.);
#108=CARTESIAN_POINT($,(35,20,-0.000000000000004));
#109=VERTEX_POINT($,#108);
#110=CARTESIAN_POINT($,(35,-20,0));
#111=CARTESIAN_POINT($,(35,20,-0.000000000000004));
#112=B_SPLINE_CURVE_WITH_KNOTS($,1,(#110,#111),.UNSPECIFIED.,.F.,.F.,(2,2),(0,1),.UNSPECIFIED.);
#113=EDGE_CURVE($,#71,#109,#112,.T.);
#114=ORIENTED_EDGE($,$,$,#113,.T.);
#115=CARTESIAN_POINT($,(-35,20,0));
#116=VERTEX_POINT($,#115);
#117=CARTESIAN_POINT($,(35,20,-0.000000000000004));
#118=CARTESIAN_POINT($,(34.8314654335269,20,-3.43059991153463));
#119=CARTESIAN_POINT($,(34.3274848141131,20,-6.8281612705645));
#120=CARTESIAN_POINT($,(33.4929117506273,20,-10.1599637039062));
#121=CARTESIAN_POINT($,(32.335783637895,20,-13.3939201327781));
#122=CARTESIAN_POINT($,(30.8672442521924,20,-16.4988857889099));
#123=CARTESIAN_POINT($,(29.1014364305891,20,-19.4449581556861));
#124=CARTESIAN_POINT($,(27.0553658676958,20,-22.2037649457276));
#125=CARTESIAN_POINT($,(24.7487373415292,20,-24.7487373415292));
#126=CARTESIAN_POINT($,(22.2037649457276,20,-27.0553658676958));
#127=CARTESIAN_POINT($,(19.4449581556861,20,-29.1014364305891));
#128=CARTESIAN_POINT($,(16.4988857889099,20,-30.8672442521924));
#129=CARTESIAN_POINT($,(13.3939201327781,20,-32.335783637895));
#130=CARTESIAN_POINT($,(10.1599637039062,20,-33.4929117506273));
#131=CARTESIAN_POINT($,(6.82816127056449,20,-34.3274848141131));
#132=CARTESIAN_POINT($,(3.43059991153462,20,-34.8314654335269));
#133=CARTESIAN_POINT($,(-0.000000000000002,20,-35));
#134=CARTESIAN_POINT($,(-3.43059991153463,20,-34.8314654335269));
#135=CARTESIAN_POINT($,(-6.82816127056449,20,-34.3274848141131));
#136=CARTESIAN_POINT($,(-10.1599637039062,20,-33.4929117506273));
#137=CARTESIAN_POINT($,(-13.3939201327781,20,-32.335783637895));
#138=CARTESIAN_POINT($,(-16.4988857889099,20,-30.8672442521924));
#139=CARTESIAN_POINT($,(-19.4449581556861,20,-29.1014364305891));
#140=CARTESIAN_POINT($,(-22.2037649457276,20,-27.0553658676958));
#141=CARTESIAN_POINT($,(-24.7487373415292,20,-24.7487373415292));
#142=CARTESIAN_POINT($,(-27.0553658676958,20,-22.2037649457276));
#143=CARTESIAN_POINT($,(-29.1014364305891,20,-19.4449581556861));
#144=CARTESIAN_POINT($,(-30.8672442521924,20,-16.4988857889099));
#145=CARTESIAN_POINT($,(-32.335783637895,20,-13.3939201327781));
#146=CARTESIAN_POINT($,(-33.4929117506273,20,-10.1599637039062));
#147=CARTESIAN_POINT($,(-34.3274848141131,20,-6.82816127056449));
#148=CARTESIAN_POINT($,(-34.8314654335269,20,-3.43059991153462));
#149=CARTESIAN_POINT($,(-35,20,0));
#150=B_SPLINE_CURVE_WITH_KNOTS($,1,(#117,#118,#119,#120,#121,#122,#123,#124,#125,#126,#127,#128,#129,#130,#131,#132,#133,#134,#135,#136,#137,#138,#139,#140,#141,#142,#143,#144,#145,#146,#147,#148,#149),.UNSPECIFIED.,.F.,.F.,(2,1,1,1,1,1,1,1,1,1,1,1,1,1,1,1,1,1,1,1,1,1,1,1,1,1,1,1,1,1,1,1,2),(0,0.03125,0.0625,0.09375,0.125,0.15625,0.1875,0.21875,0.25,0.28125,0.3125,0.34375,0.375,0.40625,0.4375,0.46875,0.5,0.53125,0.5625,0.59375,0.625,0.65625,0.6875,0.71875,0.75,0.78125,0.8125,0.84375,0.875,0.90625,0.9375,0.96875,1),.UNSPECIFIED.);
#151=EDGE_CURVE($,#109,#116,#150,.T.);
#152=ORIENTED_EDGE($,$,$,#151,.T.);
#153=CARTESIAN_POINT($,(-35,20,0));
#154=CARTESIAN_POINT($,(-35,-20,0));
#155=B_SPLINE_CURVE_WITH_KNOTS($,1,(#153,#154),.UNSPECIFIED.,.F.,.F.,(2,2),(0,1),.UNSPECIFIED.);
#156=EDGE_CURVE($,#116,#69,#155,.T.);
#157=ORIENTED_EDGE($,$,$,#156,.T.);
#158=EDGE_LOOP($,(#107,#114,#152,#157));
#159=FACE_OUTER_BOUND('',#158,.T.);
#160=ADVANCED_FACE('',(#159),#67,.F.);
#161=CARTESIAN_POINT($,(-35,-20,1));
#162=CARTESIAN_POINT($,(-35,20,1));
#163=CARTESIAN_POINT($,(-32.8125,-20,1));
#164=CARTESIAN_POINT($,(-34.8314654335269,20,-2.43059991153462));
#165=CARTESIAN_POINT($,(-30.625,-20,1));
#166=CARTESIAN_POINT($,(-34.3274848141131,20,-5.82816127056449));
#167=CARTESIAN_POINT($,(-28.4375,-20,1));
#168=CARTESIAN_POINT($,(-33.4929117506273,20,-9.15996370390618));
#169=CARTESIAN_POINT($,(-26.25,-20,1));
#170=CARTESIAN_POINT($,(-32.335783637895,20,-12.3939201327781));
#171=CARTESIAN_POINT($,(-24.0625,-20,1));
#172=CARTESIAN_POINT($,(-30.8672442521924,20,-15.4988857889099));
#173=CARTESIAN_POINT($,(-21.875,-20,1));
#174=CARTESIAN_POINT($,(-29.1014364305891,20,-18.4449581556861));
#175=CARTESIAN_POINT($,(-19.6875,-20,1));
#176=CARTESIAN_POINT($,(-27.0553658676958,20,-21.2037649457276));
#177=CARTESIAN_POINT($,(-17.5,-20,1));
#178=CARTESIAN_POINT($,(-24.7487373415292,20,-23.7487373415292));
#179=CARTESIAN_POINT($,(-15.3125,-20,1));
#180=CARTESIAN_POINT($,(-22.2037649457276,20,-26.0553658676958));
#181=CARTESIAN_POINT($,(-13.125,-20,1));
#182=CARTESIAN_POINT($,(-19.4449581556861,20,-28.1014364305891));
#183=CARTESIAN_POINT($,(-10.9375,-20,1));
#184=CARTESIAN_POINT($,(-16.4988857889099,20,-29.8672442521924));
#185=CARTESIAN_POINT($,(-8.75,-20,1));
#186=CARTESIAN_POINT($,(-13.3939201327781,20,-31.335783637895));
#187=CARTESIAN_POINT($,(-6.5625,-20,1));
#188=CARTESIAN_POINT($,(-10.1599637039062,20,-32.4929117506273));
#189=CARTESIAN_POINT($,(-4.375,-20,1));
#190=CARTESIAN_POINT($,(-6.82816127056449,20,-33.3274848141131));
#191=CARTESIAN_POINT($,(-2.1875,-20,1));
#192=CARTESIAN_POINT($,(-3.43059991153463,20,-33.8314654335269));
#193=CARTESIAN_POINT($,(0,-20,1));
#194=CARTESIAN_POINT($,(-0.000000000000002,20,-34));
#195=CARTESIAN_POINT($,(2.1875,-20,1));
#196=CARTESIAN_POINT($,(3.43059991153462,20,-33.8314654335269));
#197=CARTESIAN_POINT($,(4.375,-20,1));
#198=CARTESIAN_POINT($,(6.82816127056449,20,-33.3274848141131));
#199=CARTESIAN_POINT($,(6.5625,-20,1));
#200=CARTESIAN_POINT($,(10.1599637039062,20,-32.4929117506273));
#201=CARTESIAN_POINT($,(8.75,-20,1));
#202=CARTESIAN_POINT($,(13.3939201327781,20,-31.335783637895));
#203=CARTESIAN_POINT($,(10.9375,-20,1));
#204=CARTESIAN_POINT($,(16.4988857889099,20,-29.8672442521924));
#205=CARTESIAN_POINT($,(13.125,-20,1));
#206=CARTESIAN_POINT($,(19.4449581556861,20,-28.1014364305891));
#207=CARTESIAN_POINT($,(15.3125,-20,1));
#208=CARTESIAN_POINT($,(22.2037649457276,20,-26.0553658676958));
#209=CARTESIAN_POINT($,(17.5,-20,1));
#210=CARTESIAN_POINT($,(24.7487373415292,20,-23.7487373415292));
#211=CARTESIAN_POINT($,(19.6875,-20,1));
#212=CARTESIAN_POINT($,(27.0553658676958,20,-21.2037649457276));
#213=CARTESIAN_POINT($,(21.875,-20,1));
#214=CARTESIAN_POINT($,(29.1014364305891,20,-18.4449581556861));
#215=CARTESIAN_POINT($,(24.0625,-20,1));
#216=CARTESIAN_POINT($,(30.8672442521924,20,-15.4988857889099));
#217=CARTESIAN_POINT($,(26.25,-20,1));
#218=CARTESIAN_POINT($,(32.335783637895,20,-12.3939201327781));
#219=CARTESIAN_POINT($,(28.4375,-20,1));
#220=CARTESIAN_POINT($,(33.4929117506273,20,-9.15996370390618));
#221=CARTESIAN_POINT($,(30.625,-20,1));
#222=CARTESIAN_POINT($,(34.3274848141131,20,-5.8281612705645));
#223=CARTESIAN_POINT($,(32.8125,-20,1));
#224=CARTESIAN_POINT($,(34.8314654335269,20,-2.43059991153463));
#225=CARTESIAN_POINT($,(35,-20,1));
#226=CARTESIAN_POINT($,(35,20,0.999999999999996));
#227=B_SPLINE_SURFACE_WITH_KNOTS($,1,1,((#161,#162),(#163,#164),(#165,#166),(#167,#168),(#169,#170),(#171,#172),(#173,#174),(#175,#176),(#177,#178),(#179,#180),(#181,#182),(#183,#184),(#185,#186),(#187,#188),(#189,#190),(#191,#192),(#193,#194),(#195,#196),(#197,#198),(#199,#200),(#201,#202),(#203,#204),(#205,#206),(#207,#208),(#209,#210),(#211,#212),(#213,#214),(#215,#216),(#217,#218),(#219,#220),(#221,#222),(#223,#224),(#225,#226)),.RULED_SURFACE.,.F.,.F.,.F.,(2,1,1,1,1,1,1,1,1,1,1,1,1,1,1,1,1,1,1,1,1,1,1,1,1,1,1,1,1,1,1,1,2),(2,2),(0,0.03125,0.0625,0.09375,0.125,0.15625,0.1875,0.21875,0.25,0.28125,0.3125,0.34375,0.375,0.40625,0.4375,0.46875,0.5,0.53125,0.5625,0.59375,0.625,0.65625,0.6875,0.71875,0.75,0.78125,0.8125,0.84375,0.875,0.90625,0.9375,0.96875,1),(0,1),.UNSPECIFIED.);
#228=CARTESIAN_POINT($,(-35,20,1));
#229=VERTEX_POINT($,#228);
#230=CARTESIAN_POINT($,(-35,-20,1));
#231=VERTEX_POINT($,#230);
#232=CARTESIAN_POINT($,(-35,20,1));
#233=CARTESIAN_POINT($,(-35,-20,1));
#234=B_SPLINE_CURVE_WITH_KNOTS($,1,(#232,#233),.UNSPECIFIED.,.F.,.F.,(2,2),(0,1),.UNSPECIFIED.);
#235=EDGE_CURVE($,#229,#231,#234,.T.);
#236=ORIENTED_EDGE($,$,$,#235,.F.);
#237=CARTESIAN_POINT($,(35,20,0.999999999999996));
#238=VERTEX_POINT($,#237);
#239=CARTESIAN_POINT($,(35,20,0.999999999999996));
#240=CARTESIAN_POINT($,(34.8314654335269,20,-2.43059991153463));
#241=CARTESIAN_POINT($,(34.3274848141131,20,-5.8281612705645));
#242=CARTESIAN_POINT($,(33.4929117506273,20,-9.15996370390618));
#243=CARTESIAN_POINT($,(32.335783637895,20,-12.3939201327781));
#244=CARTESIAN_POINT($,(30.8672442521924,20,-15.4988857889099));
#245=CARTESIAN_POINT($,(29.1014364305891,20,-18.4449581556861));
#246=CARTESIAN_POINT($,(27.0553658676958,20,-21.2037649457276));
#247=CARTESIAN_POINT($,(24.7487373415292,20,-23.7487373415292));
#248=CARTESIAN_POINT($,(22.2037649457276,20,-26.0553658676958));
#249=CARTESIAN_POINT($,(19.4449581556861,20,-28.1014364305891));
#250=CARTESIAN_POINT($,(16.4988857889099,20,-29.8672442521924));
#251=CARTESIAN_POINT($,(13.3939201327781,20,-31.335783637895));
#252=CARTESIAN_POINT($,(10.1599637039062,20,-32.4929117506273));
#253=CARTESIAN_POINT($,(6.82816127056449,20,-33.3274848141131));
#254=CARTESIAN_POINT($,(3.43059991153462,20,-33.8314654335269));
#255=CARTESIAN_POINT($,(-0.000000000000002,20,-34));
#256=CARTESIAN_POINT($,(-3.43059991153463,20,-33.8314654335269));
#257=CARTESIAN_POINT($,(-6.82816127056449,20,-33.3274848141131));
#258=CARTESIAN_POINT($,(-10.1599637039062,20,-32.4929117506273));
#259=CARTESIAN_POINT($,(-13.3939201327781,20,-31.335783637895));
#260=CARTESIAN_POINT($,(-16.4988857889099,20,-29.8672442521924));
#261=CARTESIAN_POINT($,(-19.4449581556861,20,-28.1014364305891));
#262=CARTESIAN_POINT($,(-22.2037649457276,20,-26.0553658676958));
#263=CARTESIAN_POINT($,(-24.7487373415292,20,-23.7487373415292));
#264=CARTESIAN_POINT($,(-27.0553658676958,20,-21.2037649457276));
#265=CARTESIAN_POINT($,(-29.1014364305891,20,-18.4449581556861));
#266=CARTESIAN_POINT($,(-30.8672442521924,20,-15.4988857889099));
#267=CARTESIAN_POINT($,(-32.335783637895,20,-12.3939201327781));
#268=CARTESIAN_POINT($,(-33.4929117506273,20,-9.15996370390618));
#269=CARTESIAN_POINT($,(-34.3274848141131,20,-5.82816127056449));
#270=CARTESIAN_POINT($,(-34.8314654335269,20,-2.43059991153462));
#271=CARTESIAN_POINT($,(-35,20,1));
#272=B_SPLINE_CURVE_WITH_KNOTS($,1,(#239,#240,#241,#242,#243,#244,#245,#246,#247,#248,#249,#250,#251,#252,#253,#254,#255,#256,#257,#258,#259,#260,#261,#262,#263,#264,#265,#266,#267,#268,#269,#270,#271),.UNSPECIFIED.,.F.,.F.,(2,1,1,1,1,1,1,1,1,1,1,1,1,1,1,1,1,1,1,1,1,1,1,1,1,1,1,1,1,1,1,1,2),(0,0.03125,0.0625,0.09375,0.125,0.15625,0.1875,0.21875,0.25,0.28125,0.3125,0.34375,0.375,0.40625,0.4375,0.46875,0.5,0.53125,0.5625,0.59375,0.625,0.65625,0.6875,0.71875,0.75,0.78125,0.8125,0.84375,0.875,0.90625,0.9375,0.96875,1),.UNSPECIFIED.);
#273=EDGE_CURVE($,#238,#229,#272,.T.);
#274=ORIENTED_EDGE($,$,$,#273,.F.);
#275=CARTESIAN_POINT($,(35,-20,1));
#276=VERTEX_POINT($,#275);
#277=CARTESIAN_POINT($,(35,-20,1));
#278=CARTESIAN_POINT($,(35,20,0.999999999999996));
#279=B_SPLINE_CURVE_WITH_KNOTS($,1,(#277,#278),.UNSPECIFIED.,.F.,.F.,(2,2),(0,1),.UNSPECIFIED.);
#280=EDGE_CURVE($,#276,#238,#279,.T.);
#281=ORIENTED_EDGE($,$,$,#280,.F.);
#282=CARTESIAN_POINT($,(-35,-20,1));
#283=CARTESIAN_POINT($,(-32.8125,-20,1));
#284=CARTESIAN_POINT($,(-30.625,-20,1));
#285=CARTESIAN_POINT($,(-28.4375,-20,1));
#286=CARTESIAN_POINT($,(-26.25,-20,1));
#287=CARTESIAN_POINT($,(-24.0625,-20,1));
#288=CARTESIAN_POINT($,(-21.875,-20,1));
#289=CARTESIAN_POINT($,(-19.6875,-20,1));
#290=CARTESIAN_POINT($,(-17.5,-20,1));
#291=CARTESIAN_POINT($,(-15.3125,-20,1));
#292=CARTESIAN_POINT($,(-13.125,-20,1));
#293=CARTESIAN_POINT($,(-10.9375,-20,1));
#294=CARTESIAN_POINT($,(-8.75,-20,1));
#295=CARTESIAN_POINT($,(-6.5625,-20,1));
#296=CARTESIAN_POINT($,(-4.375,-20,1));
#297=CARTESIAN_POINT($,(-2.1875,-20,1));
#298=CARTESIAN_POINT($,(0,-20,1));
#299=CARTESIAN_POINT($,(2.1875,-20,1));
#300=CARTESIAN_POINT($,(4.375,-20,1));
#301=CARTESIAN_POINT($,(6.5625,-20,1));
#302=CARTESIAN_POINT($,(8.75,-20,1));
#303=CARTESIAN_POINT($,(10.9375,-20,1));
#304=CARTESIAN_POINT($,(13.125,-20,1));
#305=CARTESIAN_POINT($,(15.3125,-20,1));
#306=CARTESIAN_POINT($,(17.5,-20,1));
#307=CARTESIAN_POINT($,(19.6875,-20,1));
#308=CARTESIAN_POINT($,(21.875,-20,1));
#309=CARTESIAN_POINT($,(24.0625,-20,1));
#310=CARTESIAN_POINT($,(26.25,-20,1));
#311=CARTESIAN_POINT($,(28.4375,-20,1));
#312=CARTESIAN_POINT($,(30.625,-20,1));
#313=CARTESIAN_POINT($,(32.8125,-20,1));
#314=CARTESIAN_POINT($,(35,-20,1));
#315=B_SPLINE_CURVE_WITH_KNOTS($,1,(#282,#283,#284,#285,#286,#287,#288,#289,#290,#291,#292,#293,#294,#295,#296,#297,#298,#299,#300,#301,#302,#303,#304,#305,#306,#307,#308,#309,#310,#311,#312,#313,#314),.UNSPECIFIED.,.F.,.F.,(2,1,1,1,1,1,1,1,1,1,1,1,1,1,1,1,1,1,1,1,1,1,1,1,1,1,1,1,1,1,1,1,2),(0,0.03125,0.0625,0.09375,0.125,0.15625,0.1875,0.21875,0.25,0.28125,0.3125,0.34375,0.375,0.40625,0.4375,0.46875,0.5,0.53125,0.5625,0.59375,0.625,0.65625,0.6875,0.71875,0.75,0.78125,0.8125,0.84375,0.875,0.90625,0.9375,0.96875,1),.UNSPECIFIED.);
#316=EDGE_CURVE($,#231,#276,#315,.T.);
#317=ORIENTED_EDGE($,$,$,#316,.F.);
#318=EDGE_LOOP($,(#236,#274,#281,#317));
#319=FACE_OUTER_BOUND('',#318,.T.);
#320=ADVANCED_FACE('',(#319),#227,.T.);
#321=CARTESIAN_POINT($,(-35,-20,0));
#322=CARTESIAN_POINT($,(-35,-20,1));
#323=CARTESIAN_POINT($,(-32.8125,-20,0));
#324=CARTESIAN_POINT($,(-32.8125,-20,1));
#325=CARTESIAN_POINT($,(-30.625,-20,0));
#326=CARTESIAN_POINT($,(-30.625,-20,1));
#327=CARTESIAN_POINT($,(-28.4375,-20,0));
#328=CARTESIAN_POINT($,(-28.4375,-20,1));
#329=CARTESIAN_POINT($,(-26.25,-20,0));
#330=CARTESIAN_POINT($,(-26.25,-20,1));
#331=CARTESIAN_POINT($,(-24.0625,-20,0));
#332=CARTESIAN_POINT($,(-24.0625,-20,1));
#333=CARTESIAN_POINT($,(-21.875,-20,0));
#334=CARTESIAN_POINT($,(-21.875,-20,1));
#335=CARTESIAN_POINT($,(-19.6875,-20,0));
#336=CARTESIAN_POINT($,(-19.6875,-20,1));
#337=CARTESIAN_POINT($,(-17.5,-20,0));
#338=CARTESIAN_POINT($,(-17.5,-20,1));
#339=CARTESIAN_POINT($,(-15.3125,-20,0));
#340=CARTESIAN_POINT($,(-15.3125,-20,1));
#341=CARTESIAN_POINT($,(-13.125,-20,0));
#342=CARTESIAN_POINT($,(-13.125,-20,1));
#343=CARTESIAN_POINT($,(-10.9375,-20,0));
#344=CARTESIAN_POINT($,(-10.9375,-20,1));
#345=CARTESIAN_POINT($,(-8.75,-20,0));
#346=CARTESIAN_POINT($,(-8.75,-20,1));
#347=CARTESIAN_POINT($,(-6.5625,-20,0));
#348=CARTESIAN_POINT($,(-6.5625,-20,1));
#349=CARTESIAN_POINT($,(-4.375,-20,0));
#350=CARTESIAN_POINT($,(-4.375,-20,1));
#351=CARTESIAN_POINT($,(-2.1875,-20,0));
#352=CARTESIAN_POINT($,(-2.1875,-20,1));
#353=CARTESIAN_POINT($,(0,-20,0));
#354=CARTESIAN_POINT($,(0,-20,1));
#355=CARTESIAN_POINT($,(2.1875,-20,0));
#356=CARTESIAN_POINT($,(2.1875,-20,1));
#357=CARTESIAN_POINT($,(4.375,-20,0));
#358=CARTESIAN_POINT($,(4.375,-20,1));
#359=CARTESIAN_POINT($,(6.5625,-20,0));
#360=CARTESIAN_POINT($,(6.5625,-20,1));
#361=CARTESIAN_POINT($,(8.75,-20,0));
#362=CARTESIAN_POINT($,(8.75,-20,1));
#363=CARTESIAN_POINT($,(10.9375,-20,0));
#364=CARTESIAN_POINT($,(10.9375,-20,1));
#365=CARTESIAN_POINT($,(13.125,-20,0));
#366=CARTESIAN_POINT($,(13.125,-20,1));
#367=CARTESIAN_POINT($,(15.3125,-20,0));
#368=CARTESIAN_POINT($,(15.3125,-20,1));
#369=CARTESIAN_POINT($,(17.5,-20,0));
#370=CARTESIAN_POINT($,(17.5,-20,1));
#371=CARTESIAN_POINT($,(19.6875,-20,0));
#372=CARTESIAN_POINT($,(19.6875,-20,1));
#373=CARTESIAN_POINT($,(21.875,-20,0));
#374=CARTESIAN_POINT($,(21.875,-20,1));
#375=CARTESIAN_POINT($,(24.0625,-20,0));
#376=CARTESIAN_POINT($,(24.0625,-20,1));
#377=CARTESIAN_POINT($,(26.25,-20,0));
#378=CARTESIAN_POINT($,(26.25,-20,1));
#379=CARTESIAN_POINT($,(28.4375,-20,0));
#380=CARTESIAN_POINT($,(28.4375,-20,1));
#381=CARTESIAN_POINT($,(30.625,-20,0));
#382=CARTESIAN_POINT($,(30.625,-20,1));
#383=CARTESIAN_POINT($,(32.8125,-20,0));
#384=CARTESIAN_POINT($,(32.8125,-20,1));
#385=CARTESIAN_POINT($,(35,-20,0));
#386=CARTESIAN_POINT($,(35,-20,1));
#387=B_SPLINE_SURFACE_WITH_KNOTS($,1,1,((#321,#322),(#323,#324),(#325,#326),(#327,#328),(#329,#330),(#331,#332),(#333,#334),(#335,#336),(#337,#338),(#339,#340),(#341,#342),(#343,#344),(#345,#346),(#347,#348),(#349,#350),(#351,#352),(#353,#354),(#355,#356),(#357,#358),(#359,#360),(#361,#362),(#363,#364),(#365,#366),(#367,#368),(#369,#370),(#371,#372),(#373,#374),(#375,#376),(#377,#378),(#379,#380),(#381,#382),(#383,#384),(#385,#386)),.RULED_SURFACE.,.F.,.F.,.F.,(2,1,1,1,1,1,1,1,1,1,1,1,1,1,1,1,1,1,1,1,1,1,1,1,1,1,1,1,1,1,1,1,2),(2,2),(0,0.03125,0.0625,0.09375,0.125,0.15625,0.1875,0.21875,0.25,0.28125,0.3125,0.34375,0.375,0.40625,0.4375,0.46875,0.5,0.53125,0.5625,0.59375,0.625,0.65625,0.6875,0.71875,0.75,0.78125,0.8125,0.84375,0.875,0.90625,0.9375,0.96875,1),(0,1),.UNSPECIFIED.);
#388=ORIENTED_EDGE($,$,$,#106,.T.);
#389=CARTESIAN_POINT($,(35,-20,0));
#390=DIRECTION($,(0,0,1));
#391=VECTOR($,#390,1);
#392=LINE($,#389,#391);
#393=EDGE_CURVE($,#71,#276,#392,.T.);
#394=ORIENTED_EDGE($,$,$,#393,.T.);
#395=ORIENTED_EDGE($,$,$,#316,.F.);
#396=CARTESIAN_POINT($,(-35,-20,0));
#397=DIRECTION($,(0,0,1));
#398=VECTOR($,#397,1);
#399=LINE($,#396,#398);
#400=EDGE_CURVE($,#69,#231,#399,.T.);
#401=ORIENTED_EDGE($,$,$,#400,.F.);
#402=EDGE_LOOP($,(#388,#394,#395,#401));
#403=FACE_OUTER_BOUND('',#402,.T.);
#404=ADVANCED_FACE('',(#403),#387,.T.);
#405=CARTESIAN_POINT($,(35,-20,0));
#406=CARTESIAN_POINT($,(35,-20,1));
#407=CARTESIAN_POINT($,(35,20,-0.000000000000004));
#408=CARTESIAN_POINT($,(35,20,0.999999999999996));
#409=B_SPLINE_SURFACE_WITH_KNOTS($,1,1,((#405,#406),(#407,#408)),.RULED_SURFACE.,.F.,.F.,.F.,(2,2),(2,2),(0,1),(0,1),.UNSPECIFIED.);
#410=ORIENTED_EDGE($,$,$,#113,.T.);
#411=CARTESIAN_POINT($,(35,20,-0.000000000000004));
#412=DIRECTION($,(0,0,1));
#413=VECTOR($,#412,1);
#414=LINE($,#411,#413);
#415=EDGE_CURVE($,#109,#238,#414,.T.);
#416=ORIENTED_EDGE($,$,$,#415,.T.);
#417=ORIENTED_EDGE($,$,$,#280,.F.);
#418=ORIENTED_EDGE($,$,$,#393,.F.);
#419=EDGE_LOOP($,(#410,#416,#417,#418));
#420=FACE_OUTER_BOUND('',#419,.T.);
#421=ADVANCED_FACE('',(#420),#409,.T.);
#422=CARTESIAN_POINT($,(35,20,-0.000000000000004));
#423=CARTESIAN_POINT($,(35,20,0.999999999999996));
#424=CARTESIAN_POINT($,(34.8314654335269,20,-3.43059991153463));
#425=CARTESIAN_POINT($,(34.8314654335269,20,-2.43059991153463));
#426=CARTESIAN_POINT($,(34.3274848141131,20,-6.8281612705645));
#427=CARTESIAN_POINT($,(34.3274848141131,20,-5.8281612705645));
#428=CARTESIAN_POINT($,(33.4929117506273,20,-10.1599637039062));
#429=CARTESIAN_POINT($,(33.4929117506273,20,-9.15996370390618));
#430=CARTESIAN_POINT($,(32.335783637895,20,-13.3939201327781));
#431=CARTESIAN_POINT($,(32.335783637895,20,-12.3939201327781));
#432=CARTESIAN_POINT($,(30.8672442521924,20,-16.4988857889099));
#433=CARTESIAN_POINT($,(30.8672442521924,20,-15.4988857889099));
#434=CARTESIAN_POINT($,(29.1014364305891,20,-19.4449581556861));
#435=CARTESIAN_POINT($,(29.1014364305891,20,-18.4449581556861));
#436=CARTESIAN_POINT($,(27.0553658676958,20,-22.2037649457276));
#437=CARTESIAN_POINT($,(27.0553658676958,20,-21.2037649457276));
#438=CARTESIAN_POINT($,(24.7487373415292,20,-24.7487373415292));
#439=CARTESIAN_POINT($,(24.7487373415292,20,-23.7487373415292));
#440=CARTESIAN_POINT($,(22.2037649457276,20,-27.0553658676958));
#441=CARTESIAN_POINT($,(22.2037649457276,20,-26.0553658676958));
#442=CARTESIAN_POINT($,(19.4449581556861,20,-29.1014364305891));
#443=CARTESIAN_POINT($,(19.4449581556861,20,-28.1014364305891));
#444=CARTESIAN_POINT($,(16.4988857889099,20,-30.8672442521924));
#445=CARTESIAN_POINT($,(16.4988857889099,20,-29.8672442521924));
#446=CARTESIAN_POINT($,(13.3939201327781,20,-32.335783637895));
#447=CARTESIAN_POINT($,(13.3939201327781,20,-31.335783637895));
#448=CARTESIAN_POINT($,(10.1599637039062,20,-33.4929117506273));
#449=CARTESIAN_POINT($,(10.1599637039062,20,-32.4929117506273));
#450=CARTESIAN_POINT($,(6.82816127056449,20,-34.3274848141131));
#451=CARTESIAN_POINT($,(6.82816127056449,20,-33.3274848141131));
#452=CARTESIAN_POINT($,(3.43059991153462,20,-34.8314654335269));
#453=CARTESIAN_POINT($,(3.43059991153462,20,-33.8314654335269));
#454=CARTESIAN_POINT($,(-0.000000000000002,20,-35));
#455=CARTESIAN_POINT($,(-0.000000000000002,20,-34));
#456=CARTESIAN_POINT($,(-3.43059991153463,20,-34.8314654335269));
#457=CARTESIAN_POINT($,(-3.43059991153463,20,-33.8314654335269));
#458=CARTESIAN_POINT($,(-6.82816127056449,20,-34.3274848141131));
#459=CARTESIAN_POINT($,(-6.82816127056449,20,-33.3274848141131));
#460=CARTESIAN_POINT($,(-10.1599637039062,20,-33.4929117506273));
#461=CARTESIAN_POINT($,(-10.1599637039062,20,-32.4929117506273));
#462=CARTESIAN_POINT($,(-13.3939201327781,20,-32.335783637895));
#463=CARTESIAN_POINT($,(-13.3939201327781,20,-31.335783637895));
#464=CARTESIAN_POINT($,(-16.4988857889099,20,-30.8672442521924));
#465=CARTESIAN_POINT($,(-16.4988857889099,20,-29.8672442521924));
#466=CARTESIAN_POINT($,(-19.4449581556861,20,-29.1014364305891));
#467=CARTESIAN_POINT($,(-19.4449581556861,20,-28.1014364305891));
#468=CARTESIAN_POINT($,(-22.2037649457276,20,-27.0553658676958));
#469=CARTESIAN_POINT($,(-22.2037649457276,20,-26.0553658676958));
#470=CARTESIAN_POINT($,(-24.7487373415292,20,-24.7487373415292));
#471=CARTESIAN_POINT($,(-24.7487373415292,20,-23.7487373415292));
#472=CARTESIAN_POINT($,(-27.0553658676958,20,-22.2037649457276));
#473=CARTESIAN_POINT($,(-27.0553658676958,20,-21.2037649457276));
#474=CARTESIAN_POINT($,(-29.1014364305891,20,-19.4449581556861));
#475=CARTESIAN_POINT($,(-29.1014364305891,20,-18.4449581556861));
#476=CARTESIAN_POINT($,(-30.8672442521924,20,-16.4988857889099));
#477=CARTESIAN_POINT($,(-30.8672442521924,20,-15.4988857889099));
#478=CARTESIAN_POINT($,(-32.335783637895,20,-13.3939201327781));
#479=CARTESIAN_POINT($,(-32.335783637895,20,-12.3939201327781));
#480=CARTESIAN_POINT($,(-33.4929117506273,20,-10.1599637039062));
#481=CARTESIAN_POINT($,(-33.4929117506273,20,-9.15996370390618));
#482=CARTESIAN_POINT($,(-34.3274848141131,20,-6.82816127056449));
#483=CARTESIAN_POINT($,(-34.3274848141131,20,-5.82816127056449));
#484=CARTESIAN_POINT($,(-34.8314654335269,20,-3.43059991153462));
#485=CARTESIAN_POINT($,(-34.8314654335269,20,-2.43059991153462));
#486=CARTESIAN_POINT($,(-35,20,0));
#487=CARTESIAN_POINT($,(-35,20,1));
#488=B_SPLINE_SURFACE_WITH_KNOTS($,1,1,((#422,#423),(#424,#425),(#426,#427),(#428,#429),(#430,#431),(#432,#433),(#434,#435),(#436,#437),(#438,#439),(#440,#441),(#442,#443),(#444,#445),(#446,#447),(#448,#449),(#450,#451),(#452,#453),(#454,#455),(#456,#457),(#458,#459),(#460,#461),(#462,#463),(#464,#465),(#466,#467),(#468,#469),(#470,#471),(#472,#473),(#474,#475),(#476,#477),(#478,#479),(#480,#481),(#482,#483),(#484,#485),(#486,#487)),.RULED_SURFACE.,.F.,.F.,.F.,(2,1,1,1,1,1,1,1,1,1,1,1,1,1,1,1,1,1,1,1,1,1,1,1,1,1,1,1,1,1,1,1,2),(2,2),(0,0.03125,0.0625,0.09375,0.125,0.15625,0.1875,0.21875,0.25,0.28125,0.3125,0.34375,0.375,0.40625,0.4375,0.46875,0.5,0.53125,0.5625,0.59375,0.625,0.65625,0.6875,0.71875,0.75,0.78125,0.8125,0.84375,0.875,0.90625,0.9375,0.96875,1),(0,1),.UNSPECIFIED.);
#489=ORIENTED_EDGE($,$,$,#151,.T.);
#490=CARTESIAN_POINT($,(-35,20,0));
#491=DIRECTION($,(0,0,1));
#492=VECTOR($,#491,1);
#493=LINE($,#490,#492);
#494=EDGE_CURVE($,#116,#229,#493,.T.);
#495=ORIENTED_EDGE($,$,$,#494,.T.);
#496=ORIENTED_EDGE($,$,$,#273,.F.);
#497=ORIENTED_EDGE($,$,$,#415,.F.);
#498=EDGE_LOOP($,(#489,#495,#496,#497));
#499=FACE_OUTER_BOUND('',#498,.T.);
#500=ADVANCED_FACE('',(#499),#488,.T.);
#501=CARTESIAN_POINT($,(-35,20,0));
#502=CARTESIAN_POINT($,(-35,20,1));
#503=CARTESIAN_POINT($,(-35,-20,0));
#504=CARTESIAN_POINT($,(-35,-20,1));
#505=B_SPLINE_SURFACE_WITH_KNOTS($,1,1,((#501,#502),(#503,#504)),.RULED_SURFACE.,.F.,.F.,.F.,(2,2),(2,2),(0,1),(0,1),.UNSPECIFIED.);
#506=ORIENTED_EDGE($,$,$,#156,.T.);
#507=ORIENTED_EDGE($,$,$,#400,.T.);
#508=ORIENTED_EDGE($,$,$,#235,.F.);
#509=ORIENTED_EDGE($,$,$,#494,.F.);
#510=EDGE_LOOP($,(#506,#507,#508,#509));
#511=FACE_OUTER_BOUND('',#510,.T.);
#512=ADVANCED_FACE('',(#511),#505,.T.);
#513=CLOSED_SHELL($,(#160,#320,#404,#421,#500,#512));
#514=MANIFOLD_SOLID_BREP('AetherisBody',#513);
#515=APPLICATION_CONTEXT('mechanical design');
#516=PRODUCT_CONTEXT('',#515,'mechanical');
#517=PRODUCT('AETHERIS','AetherisBody','',(#516));
#518=PRODUCT_DEFINITION_FORMATION('','',#517);
#519=PRODUCT_DEFINITION_CONTEXT('design',#515,'design');
#520=PRODUCT_DEFINITION('','',#518,#519);
#521=PRODUCT_DEFINITION_SHAPE('','',#520);
#522=(LENGTH_UNIT()NAMED_UNIT(*)SI_UNIT(.MILLI.,.METRE.));
#523=(NAMED_UNIT(*)PLANE_ANGLE_UNIT()SI_UNIT($,.RADIAN.));
#524=(NAMED_UNIT(*)SI_UNIT($,.STERADIAN.)SOLID_ANGLE_UNIT());
#525=(GEOMETRIC_REPRESENTATION_CONTEXT(3)GLOBAL_UNIT_ASSIGNED_CONTEXT((#522,#523,#524))REPRESENTATION_CONTEXT('3','3D'));
#526=SHAPE_REPRESENTATION('AetherisBody',(#514),#525);
#527=SHAPE_DEFINITION_REPRESENTATION(#521,#526);
ENDSEC;
END-ISO-10303-21;
